<?xml version="1.0" encoding="utf-8"?>
<!-- Generator: Adobe Illustrator 24.3.0, SVG Export Plug-In . SVG Version: 6.00 Build 0)  -->
<svg version="1.1" id="Layer_1" xmlns="http://www.w3.org/2000/svg" xmlns:xlink="http://www.w3.org/1999/xlink" x="0px" y="0px"
	 width="91.9px" height="90.8px" viewBox="0 0 91.9 90.8" style="enable-background:new 0 0 91.9 90.8;" xml:space="preserve">
<style type="text/css">
	.st0{fill:#11F3E7;}
</style>
<g>
	<path class="st0" d="M81.3,7.9H70.8c-0.9,0-1.6-0.7-1.6-1.6V2.9c0-1.1-0.9-2-2-2s-2,0.9-2,2v3.4c0,0.9-0.7,1.6-1.6,1.6H28.3
		c-0.9,0-1.6-0.7-1.6-1.6V2.9c0-1.1-0.9-2-2-2c-1.1,0-2,0.9-2,2v3.4c0,0.9-0.7,1.6-1.6,1.6H10.7c-5.1,0-9.2,4.1-9.2,9.2v63.6
		c0,5.1,4.1,9.2,9.2,9.2h70.6c5.1,0,9.2-4.1,9.2-9.2V17.1C90.5,12,86.3,7.9,81.3,7.9z M86.5,80.7c0,2.9-2.3,5.2-5.2,5.2H10.7
		c-2.9,0-5.2-2.3-5.2-5.2V34.8c0-0.9,0.7-1.6,1.6-1.6h77.8c0.9,0,1.6,0.7,1.6,1.6V80.7z M86.5,27.6c0,0.9-0.7,1.6-1.6,1.6H7.1
		c-0.9,0-1.6-0.7-1.6-1.6V17.1c0-2.9,2.3-5.2,5.2-5.2h10.4c0.9,0,1.6,0.7,1.6,1.6v3.6c0,1.1,0.9,2,2,2c1.1,0,2-0.9,2-2v-3.6
		c0-0.9,0.7-1.6,1.6-1.6h35.3c0.9,0,1.6,0.7,1.6,1.6v3.6c0,1.1,0.9,2,2,2s2-0.9,2-2v-3.6c0-0.9,0.7-1.6,1.6-1.6h10.4
		c2.9,0,5.2,2.3,5.2,5.2V27.6z"/>
	<ellipse transform="matrix(0.9571 -0.2898 0.2898 0.9571 -13.5969 9.3286)" class="st0" cx="24.7" cy="50.6" rx="3.9" ry="3.9"/>
	<circle class="st0" cx="46" cy="50.6" r="3.9"/>
	<circle class="st0" cx="67.2" cy="50.6" r="3.9"/>
	<ellipse transform="matrix(0.9571 -0.2898 0.2898 0.9571 -18.7819 10.0963)" class="st0" cx="24.7" cy="68.5" rx="3.9" ry="3.9"/>
	<circle class="st0" cx="46" cy="68.5" r="3.9"/>
	<circle class="st0" cx="67.2" cy="68.5" r="3.9"/>
</g>
</svg>
