<?xml version="1.0" encoding="utf-8"?>
<!-- Generator: Adobe Illustrator 24.3.0, SVG Export Plug-In . SVG Version: 6.00 Build 0)  -->
<svg version="1.1" id="Layer_1" xmlns="http://www.w3.org/2000/svg" xmlns:xlink="http://www.w3.org/1999/xlink" x="0px" y="0px"
	 width="91.3px" height="89.4px" viewBox="0 0 91.3 89.4" style="enable-background:new 0 0 91.3 89.4;" xml:space="preserve">
<style type="text/css">
	.st0{fill:#11F3E7;}
</style>
<path class="st0" d="M66.8,88.3c-8.6,0-16.4-2.2-20.4-5.9c-5.4,2.2-11.1,3.3-17,3.3c0,0,0,0,0,0c-0.3,0-0.6,0-0.9,0
	c-7.4,0-14.2-1.4-19.3-3.9c-5.2-2.5-8-6-8-9.7V14.6c0-3.7,2.9-7.2,8-9.7C14.2,2.4,21.1,1,28.5,1s14.2,1.4,19.3,3.9
	c5.2,2.5,8,6,8,9.7v27.3c3.3-0.9,7.1-1.3,11-1.3c6.3,0,12.2,1.2,16.5,3.3c4.4,2.2,6.9,5.2,6.9,8.4c0,0,0,0,0,0l0,24.3
	c0,3.2-2.4,6.2-6.9,8.4C78.9,87.1,73.1,88.3,66.8,88.3z M46.7,76.6c0,2,2,4.1,5.4,5.6C56,84.1,61.2,85,66.8,85
	c5.6,0,10.8-1,14.7-2.8c3.4-1.6,5.4-3.7,5.4-5.6v-6c-4.1,3.4-11.5,5.5-20.1,5.5c-8.6,0-16-2-20.1-5.5V76.6z M4.4,72.1
	c0,2.6,2.6,5.2,7,7.2c4.6,2,10.7,3.1,17,3.1c0,0,0,0,0,0c0.3,0,0.6,0,0.9,0c5.1,0,10.1-0.9,14.8-2.7c-0.5-1-0.8-2.1-0.8-3.1v-7.5
	c-4.6,1.4-9.5,2.2-14.3,2.2c-0.2,0-0.4,0-0.6,0c-10.3,0-19.4-2.7-24.1-7V72.1z M46.7,64.5c0,2.1,2.1,4.2,5.8,5.7
	c3.9,1.6,8.9,2.5,14.3,2.5c5.3,0,10.4-0.9,14.3-2.5c3.7-1.6,5.8-3.7,5.8-5.7v-6.1C82.8,61.9,75.2,64,66.8,64c-8.4,0-16-2.1-20.1-5.6
	V64.5z M4.4,57.7c0,2.6,2.6,5.2,7,7.2c4.6,2,10.7,3.1,17,3.1c0,0,0,0,0,0c0.2,0,0.4,0,0.6,0c4.9,0,9.7-0.8,14.3-2.3V54.8
	c-4.7,1.4-9.5,2.2-14.4,2.2c-0.2,0-0.4,0-0.6,0c-10.3,0-19.4-2.7-24.1-7V57.7z M46.7,52.6c0.2,1.9,2.3,3.9,5.7,5.5
	c3.8,1.7,8.9,2.6,14.4,2.6c5.6,0,10.8-1,14.7-2.8c3.4-1.6,5.4-3.7,5.4-5.7c0-2-2-4.1-5.4-5.7c-3.8-1.8-9.1-2.8-14.7-2.8
	c-5.6,0-10.8,1-14.7,2.8c-3.4,1.6-5.4,3.7-5.4,5.7c0,0,0,0.1,0,0.1c0,0,0,0.1,0,0.1L46.7,52.6z M4.4,43.4c0,2.6,2.6,5.2,7,7.1
	c4.6,2,10.7,3.1,17,3.1c0,0,0,0,0,0c0.2,0,0.4,0,0.6,0c4.9,0,9.7-0.8,14.4-2.4c0.5-3.4,3.8-6.4,9.1-8.4v-7.3
	c-4.7,4.3-13.8,6.9-24.1,6.9c-10.3,0-19.4-2.6-24.1-6.9V43.4z M4.4,29.1c0,2.6,2.6,5.1,7,7c4.6,2,10.7,3.1,17.1,3.1
	c6.4,0,12.4-1.1,17.1-3.1c4.5-1.9,7-4.5,7-7v-7.9c-4.7,4.3-13.8,7-24.1,7c-10.3,0-19.4-2.7-24.1-7V29.1z M28.5,4.3
	c-6.4,0-12.4,1.1-17.1,3.1c-4.5,1.9-7,4.6-7,7.2s2.6,5.2,7,7.2c4.6,2,10.7,3.1,17.1,3.1s12.4-1.1,17.1-3.1c4.5-1.9,7-4.6,7-7.2
	s-2.6-5.2-7-7.2C40.9,5.4,34.8,4.3,28.5,4.3z"/>
</svg>
