<?xml version="1.0" encoding="utf-8"?>
<!-- Generator: Adobe Illustrator 24.3.0, SVG Export Plug-In . SVG Version: 6.00 Build 0)  -->
<svg version="1.1" id="Layer_1" xmlns="http://www.w3.org/2000/svg" xmlns:xlink="http://www.w3.org/1999/xlink" x="0px" y="0px"
	 width="78.3px" height="101.1px" viewBox="0 0 78.3 101.1" style="enable-background:new 0 0 78.3 101.1;" xml:space="preserve">
<style type="text/css">
	.st0{fill:#11F3E7;}
</style>
<path class="st0" d="M56.8,71.4c-0.2,0-0.3-0.1-0.4-0.2c-1.6-1.8-3.8-3-6.2-3.3c-0.3,0-0.5-0.3-0.5-0.6V64c0-0.2,0.1-0.4,0.3-0.5
	c5.9-3.6,9.7-9.8,10.2-16.7c0-0.2,0.2-0.4,0.4-0.5c1.8-0.5,3.3-1.8,4.1-3.5c1.4-3,2-6.4,1.7-9.8v-4.6c0-15-12.2-27.2-27.2-27.2
	S12,13.5,12,28.5l0,4.6c-0.3,3.3,0.3,6.7,1.7,9.8c0.8,1.7,2.3,3,4.1,3.5c0.2,0.1,0.4,0.3,0.4,0.5c0.5,6.9,4.3,13.1,10.2,16.7
	c0.2,0.1,0.3,0.3,0.3,0.5v3.3c0,0.3-0.2,0.5-0.5,0.6c-2.4,0.3-4.6,1.5-6.2,3.3c-0.1,0.1-0.2,0.2-0.4,0.2C10,71.8,0.9,81.1,0.9,92.7
	v2.2c0,2.7,2.2,5,5,5h66.6c2.7,0,5-2.2,5-5v-2.2C77.4,81.1,68.4,71.8,56.8,71.4z M54.3,72.7c0.1,0.1,0.2,0.3,0.2,0.4
	c-0.3,3.6-3.7,5.8-5.6,6.8c-0.1,0-0.2,0.1-0.2,0.1c-0.1,0-0.1,0-0.2,0c-0.1-0.1-0.3-0.2-0.3-0.3c-0.8-1.8-2.1-3.4-3.7-4.5
	c-0.2-0.1-0.3-0.3-0.2-0.5c0-0.2,0.2-0.4,0.3-0.5c1.8-0.7,3.4-2,4.5-3.6c0.1-0.1,0.3-0.2,0.5-0.2c0,0,0,0,0.1,0
	C51.3,70.6,53,71.4,54.3,72.7z M39.3,73.2c0,0-0.1,0-0.1,0c0,0-0.1,0-0.1,0c-5.8-1.3-7.4-3.6-7.8-4.3c0-0.1-0.1-0.2-0.1-0.3v-2.9
	c0-0.2,0.1-0.4,0.2-0.5c0.1-0.1,0.2-0.1,0.3-0.1c0.1,0,0.1,0,0.2,0c2.3,0.9,4.7,1.3,7.2,1.3c2.5,0,4.9-0.4,7.2-1.3
	c0.1,0,0.1,0,0.2,0c0.1,0,0.2,0,0.3,0.1c0.2,0.1,0.2,0.3,0.2,0.5v2.8c0,0.1,0,0.2-0.1,0.3C46.7,69.6,45.1,71.9,39.3,73.2z M39.2,3.7
	c13.5,0.1,24.5,11.1,24.6,24.6c0,0.2-0.1,0.3-0.2,0.4c-0.1,0.1-0.2,0.1-0.3,0.1c0,0-0.1,0-0.1,0c-0.3-0.1-0.7-0.1-1-0.1
	c-0.5,0-1,0.1-1.4,0.2c-0.3,0.1-0.6,0.3-0.9,0.5c-0.1,0.1-0.2,0.1-0.3,0.1c-0.1,0-0.2,0-0.2-0.1c-0.2-0.1-0.3-0.3-0.3-0.5
	c-0.6-6-4.7-11.2-10.4-13.2c-0.4-0.1-0.8-0.2-1.2-0.2c-0.8,0-1.6,0.2-2.4,0.7c-6.5,3.9-13.9,6.3-21.4,7c-2.3,0.1-4.1,2-4.1,4.4v1.2
	c0,0.2-0.1,0.4-0.3,0.5c-0.1,0-0.2,0.1-0.3,0.1c-0.1,0-0.2,0-0.3-0.1c-0.3-0.2-0.5-0.3-0.8-0.4c-0.4-0.2-0.9-0.2-1.4-0.2
	c-0.4,0-0.7,0-1.1,0.1c0,0-0.1,0-0.1,0c-0.1,0-0.2,0-0.3-0.1c-0.1-0.1-0.2-0.3-0.2-0.4C14.6,14.8,25.7,3.7,39.2,3.7z M20.7,46.5
	c-0.1-1.2-0.9-2.2-2-2.6c-1.2-0.3-2.2-1.1-2.7-2.2c-1.4-2.8-1.4-4.8-1.4-8.6c0-0.6,0.2-1.1,0.7-1.5c0.3-0.2,0.6-0.3,1-0.3
	c0,0,0,0,0,0c0.2,0,0.4,0,0.6,0.1c1.4,0.5,2.4,3.2,2.5,4.3c0,0.7,0.6,1.2,1.3,1.2c0,0,0,0,0,0c0.3,0,0.7-0.2,0.9-0.4
	c0.2-0.3,0.4-0.6,0.3-1v-7.9c0-0.9,0.7-1.7,1.6-1.8c8-0.7,15.9-3.3,22.8-7.4c0.3-0.2,0.6-0.2,0.9-0.2c0.2,0,0.4,0,0.6,0.1
	c5.2,2,8.6,7.1,8.5,12.7v4.7c0,0.7,0.6,1.3,1.4,1.4c0.6,0,1.2-0.5,1.2-1.2c0,0,0-0.1,0-0.1c0.2-1.1,1.2-3.9,2.5-4.4
	c0.2-0.1,0.4-0.1,0.6-0.1c0.3,0,0.7,0.1,1,0.3c0.5,0.3,0.7,0.9,0.7,1.5c0,3.9,0,5.9-1.4,8.6c-0.5,1.1-1.5,2-2.7,2.3
	c-1.2,0.3-2,1.4-2,2.6c-0.6,9.8-8.7,17.4-18.5,17.5c-3,0-6-0.7-8.6-2.2c0,0-0.2-0.1-0.2-0.1C24.7,58.6,21.1,52.9,20.7,46.5z
	 M24,72.7c1.3-1.3,3-2.1,4.8-2.3c0,0,0,0,0.1,0c0.2,0,0.3,0.1,0.5,0.2c1.2,1.6,2.7,2.8,4.5,3.6c0.2,0.1,0.3,0.3,0.3,0.5
	c0,0.2-0.1,0.4-0.2,0.5c-1.7,1.1-2.9,2.7-3.7,4.5c-0.1,0.1-0.2,0.3-0.3,0.3c-0.1,0-0.1,0-0.2,0c-0.1,0-0.2,0-0.2-0.1
	c-2-1-5.3-3.1-5.6-6.8C23.8,73,23.9,72.8,24,72.7z M74.9,94.8c0,1.3-1.1,2.4-2.4,2.4H5.9c-1.3,0-2.4-1.1-2.4-2.4v-2.2
	c0-9.7,7.7-17.9,17.4-18.7c0,0,0,0,0,0c0.3,0,0.5,0.2,0.5,0.4c1.3,6.3,8.9,8.6,9,8.7c0.1,0,0.2,0.1,0.4,0.1c0.6,0,1.1-0.4,1.3-1
	c0.9-3.3,3.6-5.8,7-6.4c0,0,0.1,0,0.1,0c0,0,0.1,0,0.1,0c3.4,0.5,6.1,3.1,7,6.4c0.1,0.6,0.7,1,1.2,1c0.1,0,0.3,0,0.4-0.1
	c0.3-0.1,7.8-2.5,9-8.7c0.1-0.3,0.3-0.4,0.5-0.4c0,0,0,0,0,0c9.7,0.7,17.4,8.9,17.4,18.7V94.8z"/>
</svg>
