<?xml version="1.0" encoding="utf-8"?>
<!-- Generator: Adobe Illustrator 26.3.0, SVG Export Plug-In . SVG Version: 6.00 Build 0)  -->
<svg version="1.1" id="Layer_1" xmlns="http://www.w3.org/2000/svg" xmlns:xlink="http://www.w3.org/1999/xlink" x="0px" y="0px"
	 viewBox="0 0 35 35" style="enable-background:new 0 0 35 35;" xml:space="preserve">
<style type="text/css">
	.st0{opacity:0.251;fill:#5058B6;enable-background:new    ;}
	.st1{fill:#643BFF;}
</style>
<g>
	<path class="st0" d="M35,17.5C35,4.6,30.4,0,17.5,0S0,4.6,0,17.5S4.6,35,17.5,35S35,30.4,35,17.5"/>
	<path class="st1" d="M12.5,17.5c0,2.3,4.3,5.6,6.8,7.3c0.6,0.4,1.4,0.3,1.9-0.3s0.3-1.4-0.3-1.9c-2.8-2-5.5-4.4-5.7-5.1
		c0.2-0.8,2.8-3.2,5.7-5.2c0.6-0.4,0.7-1.3,0.3-1.9c-0.4-0.6-1.2-0.7-1.8-0.3C16.8,11.9,12.5,15.2,12.5,17.5"/>
</g>
</svg>
