<?xml version="1.0" encoding="utf-8"?>
<!-- Generator: Adobe Illustrator 24.3.0, SVG Export Plug-In . SVG Version: 6.00 Build 0)  -->
<svg version="1.1" id="Layer_1" xmlns="http://www.w3.org/2000/svg" xmlns:xlink="http://www.w3.org/1999/xlink" x="0px" y="0px"
	 width="369.1px" height="369.1px" viewBox="0 0 369.1 369.1" style="enable-background:new 0 0 369.1 369.1;" xml:space="preserve"
	>
<style type="text/css">
	.st0{fill:#0FDAC2;}
	.st1{fill:#0EDBC1;}
	.st2{fill-rule:evenodd;clip-rule:evenodd;fill:#0FDAC2;}
</style>
<g>
	<path class="st0" d="M330.4,257.5h-34.3c-21.3,0-38.6,17.3-38.6,38.6v34.3c0,21.3,17.3,38.6,38.6,38.6h34.3
		c21.3,0,38.6-17.3,38.6-38.6v-34.3C369.1,274.8,351.8,257.5,330.4,257.5z"/>
	<path class="st0" d="M201.7,128.7h-34.3c-21.3,0-38.6,17.3-38.6,38.6v4.3H47.2c-12.5,0-24.5,5-33.4,13.8C5,194.3,0,206.3,0,218.9
		v60.1c0,12.5,5,24.5,13.8,33.4c8.9,8.8,20.9,13.8,33.4,13.8h140.6l-12.4,12.4c-5,5-5,13.2,0,18.2c5,5,13.2,5,18.2,0l34.3-34.3
		c5-5,5-13.2,0-18.2c0,0,0,0,0,0l-34.3-34.3c-5-5-13.2-5-18.2,0c-5,5-5,13.2,0,18.2l12.4,12.4H47.2c-11.8,0-21.4-9.6-21.5-21.5
		v-60.1c0-11.8,9.6-21.4,21.5-21.5h81.5v4.3c0,21.3,17.3,38.6,38.6,38.6h34.3c21.3,0,38.6-17.3,38.6-38.6v-34.3
		C240.3,146,223,128.7,201.7,128.7z"/>
	<path class="st0" d="M355.2,56.7c-8.9-8.8-20.9-13.8-33.4-13.8H111.6v-4.3C111.6,17.3,94.3,0,73,0H38.6C17.3,0,0,17.3,0,38.6V73
		c0,21.3,17.3,38.6,38.6,38.6H73c21.3,0,38.6-17.3,38.6-38.6v-4.3h210.3c11.8,0,21.4,9.6,21.5,21.5v60.1c0,11.8-9.6,21.4-21.5,21.5
		h-20.4l12.4-12.4c5-5,5-13.2,0-18.2c-5-5-13.2-5-18.2,0l-34.2,34.2c-0.7,0.6-1.3,1.4-1.8,2.1c0,0,0,0,0,0.1c-0.2,0.3-0.4,0.7-0.6,1
		c0,0.1-0.1,0.1-0.1,0.2c-0.2,0.3-0.3,0.6-0.4,1c0,0.1,0,0.1-0.1,0.2c-0.1,0.3-0.2,0.7-0.4,1c0,0,0,0.1,0,0.2
		c-0.1,0.4-0.2,0.7-0.3,1.1c0,0,0,0,0,0.1c-0.1,0.8-0.2,1.6-0.2,2.4c0,0.8,0.1,1.6,0.2,2.3c0,0,0,0.1,0,0.1c0.1,0.3,0.2,0.7,0.2,1
		c0,0.1,0,0.1,0,0.2c0.1,0.3,0.2,0.7,0.3,1c0,0.1,0.1,0.1,0.1,0.2c0.1,0.3,0.3,0.6,0.4,0.9c0,0.1,0.1,0.1,0.1,0.2
		c0.2,0.3,0.4,0.7,0.6,1c0,0,0,0.1,0.1,0.1c0.5,0.8,1.1,1.5,1.8,2.1l34.2,34.2c5,5,13.2,5,18.2,0c5-5,5-13.2,0-18.2l-12.4-12.4h20.4
		c12.5,0,24.5-5,33.4-13.8c8.8-8.9,13.8-20.9,13.8-33.4V90.1C369.1,77.6,364.1,65.6,355.2,56.7z"/>
</g>
</svg>
