<?xml version="1.0" encoding="utf-8"?>
<!-- Generator: Adobe Illustrator 24.3.0, SVG Export Plug-In . SVG Version: 6.00 Build 0)  -->
<svg version="1.1" id="Layer_1" xmlns="http://www.w3.org/2000/svg" xmlns:xlink="http://www.w3.org/1999/xlink" x="0px" y="0px"
	 width="382px" height="382px" viewBox="0 0 382 382" style="enable-background:new 0 0 382 382;" xml:space="preserve">
<style type="text/css">
	.st0{fill:#0FDAC2;}
	.st1{fill:#0EDBC1;}
	.st2{fill-rule:evenodd;clip-rule:evenodd;fill:#0FDAC2;}
</style>
<g>
	<g>
		<path class="st0" d="M191,94.1c11,0,19.8-8.9,19.8-19.8c0-11-8.9-19.8-19.8-19.8l0,0c-11,0.2-19.7,9.2-19.5,20.1
			C171.6,85.3,180.3,94,191,94.1L191,94.1z"/>
		<path class="st2" d="M266,223.1c29.9-22.7,49.2-58.6,49.2-99C315.2,55.6,259.6,0,191,0S66.9,55.6,66.9,124.2
			c0,40.4,19.3,76.3,49.2,99c-11.7-41.4,12.5-84.4,53.9-96.1c41.4-11.7,84.4,12.5,96.1,53.9C269.9,194.7,269.9,209.3,266,223.1
			L266,223.1z M191,113.2c21.5,0,38.9-17.4,38.9-38.9S212.5,35.4,191,35.4l0,0c-21.5,0-38.9,17.4-38.9,38.9S169.5,113.2,191,113.2z"
			/>
		<path class="st0" d="M235.9,239.9c20.9-24.8,17.8-61.9-7-82.8s-61.9-17.8-82.8,7c-18.5,21.9-18.5,53.9,0,75.8
			c14.3,5.6,29.6,8.4,44.9,8.4C206.9,248.3,222,245.3,235.9,239.9z M84.5,299.2l-20.9-38.2l-20.9,38.2l-42.8,8l29.9,31.7L24.3,382
			l39.4-18.7L103,382l-5.6-43.2l29.9-31.7L84.5,299.2z M191,260.9l20.9,38.2l42.8,8l42.8-8l20.9-38.2l20.9,38.2l42.8,8l-29.9,31.7
			l5.6,43.2l-39.4-18.7L279,382l5.6-43.2l-29.9-31.7l-29.9,31.7l5.6,43.2L191,363.3L151.7,382l5.6-43.2l-29.9-31.7l42.8-8L191,260.9
			z"/>
	</g>
</g>
</svg>
