<?xml version="1.0" encoding="utf-8"?>
<!-- Generator: Adobe Illustrator 24.3.0, SVG Export Plug-In . SVG Version: 6.00 Build 0)  -->
<svg version="1.1" id="Layer_1" xmlns="http://www.w3.org/2000/svg" xmlns:xlink="http://www.w3.org/1999/xlink" x="0px" y="0px"
	 width="383.5px" height="383.5px" viewBox="0 0 383.5 383.5" style="enable-background:new 0 0 383.5 383.5;" xml:space="preserve"
	>
<style type="text/css">
	.st0{fill:#0FDAC2;}
	.st1{fill:#0EDBC1;}
	.st2{fill-rule:evenodd;clip-rule:evenodd;fill:#0FDAC2;}
</style>
<g>
	<path class="st0" d="M0.1,167.1c-0.8,6.7,4.4,12.6,11.1,12.6h45.7c5.5,0,10.2-4,11.1-9.4c8.8-52.4,49.9-93.5,102.3-102.3
		c5.4-0.9,9.4-5.6,9.4-11.1V11.2c0-6.8-5.9-12-12.6-11.1h0C124.9,5.3,85.1,24.8,55,55C24.8,85.1,5.3,124.9,0.1,167.1z M263.3,292.6
		C242,307.8,217,315.9,191,315.9c-61.1,0-112.9-43.8-123-104.2c-0.9-5.4-5.6-9.4-11.1-9.4H11.2c-6.8,0-12,5.9-11.1,12.6v0
		C12,311,94.1,383.5,191,383.5c43.2,0,84-14,118.1-40.5c5.3-4.1,5.8-12,1-16.8l-32.3-32.3C273.9,289.9,267.8,289.4,263.3,292.6z
		 M211.7,68c60.4,10.1,104.2,61.9,104.2,123c0,26-8,51-23.3,72.3c-3.2,4.5-2.7,10.6,1.2,14.5l32.3,32.3c4.8,4.8,12.7,4.3,16.8-1l0,0
		c26.5-34.1,40.5-74.9,40.5-118.1C383.5,94.1,311,12,215,0.1h0c-6.7-0.8-12.6,4.4-12.6,11.1v45.7C202.3,62.4,206.3,67.1,211.7,68
		L211.7,68z"/>
	<path class="st0" d="M198.5,113.8h-15c-6.2,0-11.2,5-11.2,11.2v131.1h37.5V125.1C209.7,118.9,204.7,113.8,198.5,113.8z
		 M232.2,256.1h26.2c6.2,0,11.2-5,11.2-11.2V155c0-6.2-5-11.2-11.2-11.2h-26.2V256.1z M149.8,173.7h-26.2c-6.2,0-11.2,5-11.2,11.2
		v59.9c0,6.2,5,11.2,11.2,11.2h26.2V173.7z"/>
</g>
</svg>
