<?xml version="1.0" encoding="utf-8"?>
<!-- Generator: Adobe Illustrator 24.3.0, SVG Export Plug-In . SVG Version: 6.00 Build 0)  -->
<svg version="1.1" id="Layer_1" xmlns="http://www.w3.org/2000/svg" xmlns:xlink="http://www.w3.org/1999/xlink" x="0px" y="0px"
	 width="379.9px" height="402.9px" viewBox="0 0 379.9 402.9" style="enable-background:new 0 0 379.9 402.9;" xml:space="preserve"
	>
<style type="text/css">
	.st0{fill:#0FDAC2;}
	.st1{fill:#0EDBC1;}
	.st2{fill-rule:evenodd;clip-rule:evenodd;fill:#0EDBC1;}
	.st3{fill-rule:evenodd;clip-rule:evenodd;fill:#0FDAC2;}
</style>
<g>
	<g>
		<path class="st0" d="M182.2,189.2c-5.4-1-11-1.6-16.5-1.6c-51.5,0-93.3,41.7-93.3,93.2c0,26.1,10.9,51,30.1,68.7
			c1.7,14.6,0.8,29.5-2.5,43.8c-1,3.7,1.1,7.5,4.8,8.5c1.2,0.3,2.5,0.4,3.7,0c16.8-3.2,31.2-14.1,38.8-29.4
			c50.6,9.7,99.4-23.5,109.1-74.1C265.9,247.6,232.8,198.8,182.2,189.2z M196.8,242.8h-41.5v27.6H183v13.8h-27.6v48.4h-13.8v-96.8
			c0-3.8,3.1-6.9,6.9-6.9h48.4V242.8z"/>
		<path class="st0" d="M187.2,111.6c9.7-50.6-23.5-99.4-74.1-109.1c-5.4-1-11-1.6-16.5-1.6C45.1,0.9,3.3,42.6,3.3,94.1
			c0,26.1,10.9,51,30.1,68.7c1.7,14.6,0.8,29.5-2.5,43.8c-1,3.7,1.1,7.5,4.8,8.5c1.2,0.3,2.5,0.4,3.7,0
			c16.8-3.2,31.2-14.1,38.8-29.4C128.7,195.4,177.5,162.2,187.2,111.6z M52.6,110c-13.5-13.5-13.5-35.4,0.1-48.9
			c11.8-11.7,30.2-13.4,43.9-4.1c15.8-10.8,37.3-6.7,48,9c9.4,13.7,7.7,32.1-4.1,43.9l-39.1,39.1c-2.7,2.7-7.1,2.7-9.8,0
			c0,0,0,0,0,0L52.6,110z"/>
		<path class="st0" d="M357.6,141.4c-17.7-23.3-45.2-36.9-74.5-36.9c-43.5,0.1-81.2,30.2-90.9,72.6c47.3,12.2,80.5,54.8,80.5,103.7
			c0,3.2,0,6.5-0.5,9.7c6.6,0.7,13.3,0.7,19.9,0c6.8,18,22.5,31.2,41.5,34.6c3.7,0.8,7.4-1.6,8.2-5.4c0.2-0.8,0.2-1.7,0.1-2.5
			c-3.4-14.8-4.1-30-2.1-45C380.8,241,388.8,182.5,357.6,141.4z M321.2,211.7c0,13.4-10.8,24.2-24.2,24.2
			c-13.4,0-24.2-10.8-24.2-24.2V146h13.8v20.7h27.6v13.8h-27.6v31.1c0,5.7,4.6,10.4,10.4,10.4c5.7,0,10.4-4.6,10.4-10.4v-10.4h13.8
			V211.7z"/>
	</g>
</g>
</svg>
