<?xml version="1.0" encoding="utf-8"?>
<!-- Generator: Adobe Illustrator 24.3.0, SVG Export Plug-In . SVG Version: 6.00 Build 0)  -->
<svg version="1.1" id="Layer_1" xmlns="http://www.w3.org/2000/svg" xmlns:xlink="http://www.w3.org/1999/xlink" x="0px" y="0px"
	 width="326.2px" height="402.9px" viewBox="0 0 326.2 402.9" style="enable-background:new 0 0 326.2 402.9;" xml:space="preserve"
	>
<style type="text/css">
	.st0{fill:#0FDAC2;}
	.st1{fill:#0EDBC1;}
	.st2{fill-rule:evenodd;clip-rule:evenodd;fill:#0EDBC1;}
	.st3{fill-rule:evenodd;clip-rule:evenodd;fill:#0FDAC2;}
</style>
<g>
	<g>
		<path class="st0" d="M86.1,179.7c18.3,40.3,57.4,57.9,76.8,57.9c12.8,0,34.1-7.6,52.3-24.3c-6.7,0.5-13.8,0.7-21.5,0.7
			c-1.8,0-3.7,0-5.7,0c-3.9,3-8.7,4.6-13.6,4.6h-16.3c-12.3,0-22.2-10-22.2-22.2c0-12.3,10-22.2,22.2-22.2h16.3
			c5.8,0,11.3,2.2,15.4,6.2c1.4,0,2.7,0,4,0c21,0,34.8-1.9,43.9-4.2c-1.2-2.9-1.8-6.1-1.8-9.2v-56.4c0-5.9,2.2-11.5,5.9-15.8
			c-2-15.6-5.7-27.6-11.1-36.4c-11.2-18.1-32.8-26.6-68-26.6c-29.2,0-49.3,6.1-61.6,18.5c-9.5,9.7-15,23.4-17.6,44.3
			c3.8,4.4,6.1,10,6.1,16v56.4C89.8,171.4,88.5,175.9,86.1,179.7L86.1,179.7z"/>
		<path class="st0" d="M46.1,180.2h19.5c7.3,0,13.3-6,13.3-13.3v-56.4c0-4.9-2.7-9.2-6.6-11.5C76.7,52.9,94.5,21,163,21
			c39.3,0,63.8,10.1,77.2,31.7c7.8,12.6,11.5,28.9,13.3,46.5c-3.9,2.3-6.5,6.6-6.5,11.4v56.4c0,6.3,4.4,11.6,10.4,13
			c-8.6,5.6-26.4,11.4-63.3,11.4c-3,0-6.1,0-9.3-0.1c-1.9-3.6-5.7-6.1-10.1-6.1h-16.3c-6.3,0-11.4,5.1-11.4,11.4
			c0,6.3,5.1,11.4,11.4,11.4h16.3c3.8,0,7.2-1.9,9.2-4.7c3.4,0.1,6.8,0.1,10,0.1c41.6,0,68-7.1,78.7-21.2c0.5-0.6,0.9-1.2,1.2-1.8h6
			c7.3,0,13.3-6,13.3-13.3v-56.4c0-7.3-6-13.3-13.3-13.3h-7.3c-2.1-21.3-6.6-39.4-16.1-54.6C239.4,15.2,208.9,1.9,163,1.9
			c-45.9,0-76.5,13.3-93.4,40.8c-9.4,15.2-14,33.3-16.1,54.6h-7.3c-7.3,0-13.3,6-13.3,13.3v56.4C32.8,174.3,38.8,180.2,46.1,180.2
			L46.1,180.2z M323.8,346c-4.4-27.5-13.5-62.9-31.8-75.5c-12.5-8.6-55.9-31.8-74.5-41.7l-0.4-0.2c-2.1-1.1-4.7-0.9-6.6,0.6
			c-9.7,7.6-20.4,12.8-31.7,15.3c-2,0.4-3.6,1.9-4.4,3.8L163,278.5l-11.5-30.3c-0.7-1.9-2.4-3.3-4.4-3.8c-11.3-2.5-22-7.7-31.7-15.3
			c-1.9-1.5-4.5-1.7-6.6-0.6c-18.4,9.8-62.4,33.5-74.8,41.9c-21,14.2-30.2,65.4-31.8,75.6c-0.2,1-0.1,2,0.3,3
			c0.8,2.1,20,52,160.6,52c140.5,0,159.8-49.9,160.6-52C323.9,348,324,347,323.8,346z M258.4,314.4h-55.7v-11.7h55.7V314.4z"/>
	</g>
</g>
</svg>
