<?xml version="1.0" encoding="utf-8"?>
<!-- Generator: Adobe Illustrator 24.3.0, SVG Export Plug-In . SVG Version: 6.00 Build 0)  -->
<svg version="1.1" id="Layer_1" xmlns="http://www.w3.org/2000/svg" xmlns:xlink="http://www.w3.org/1999/xlink" x="0px" y="0px"
	 width="366.7px" height="392.2px" viewBox="0 0 366.7 392.2" style="enable-background:new 0 0 366.7 392.2;" xml:space="preserve"
	>
<style type="text/css">
	.st0{fill:#0FDAC2;}
	.st1{fill:#0EDBC1;}
	.st2{fill-rule:evenodd;clip-rule:evenodd;fill:#0FDAC2;}
</style>
<g>
	<path class="st0" d="M261.7,155.3c6.6-13.6,18.3-23.9,32.6-28.8c5.9-2,12.1-2.9,18.4-2.9V42.6C312.6,19.1,293.5,0,270,0H42.6
		C19.1,0,0,19.1,0,42.6v284.2c0,23.5,19.1,42.6,42.6,42.6H184l-1.5-4.5c-6.2-17.8-5-37.4,3.4-54.3L261.7,155.3z M56.8,85.3h170.5
		c7.8,0,14.2,6.4,14.2,14.2s-6.4,14.2-14.2,14.2H56.8c-7.8,0-14.2-6.4-14.2-14.2S49,85.3,56.8,85.3z M56.8,142.1h156.3
		c7.8,0,14.2,6.4,14.2,14.2c0,7.8-6.4,14.2-14.2,14.2H56.8c-7.8,0-14.2-6.4-14.2-14.2C42.6,148.5,49,142.1,56.8,142.1z M156.3,284.2
		H56.8c-7.8,0-14.2-6.4-14.2-14.2c0-7.8,6.4-14.2,14.2-14.2h99.5c7.8,0,14.2,6.4,14.2,14.2C170.5,277.8,164.2,284.2,156.3,284.2z
		 M56.8,227.3c-7.8,0-14.2-6.4-14.2-14.2s6.4-14.2,14.2-14.2h127.9c7.8,0,14.2,6.4,14.2,14.2s-6.4,14.2-14.2,14.2H56.8z
		 M363.8,205.1L288,360.5c-4.9,10.2-13.7,18-24.5,21.6l-26.9,9.2c-7.4,2.5-15.5-1.4-18-8.8l-9.3-26.9c-3.7-10.7-3-22.4,2-32.6
		l75.8-155.4c3.3-6.8,9.1-11.9,16.3-14.4c7.1-2.5,14.9-2,21.7,1.3l25.5,12.5c6.8,3.3,11.9,9.1,14.4,16.3
		C367.6,190.6,367.2,198.3,363.8,205.1L363.8,205.1z"/>
</g>
</svg>
