<?xml version="1.0" encoding="utf-8"?>
<!-- Generator: Adobe Illustrator 24.3.0, SVG Export Plug-In . SVG Version: 6.00 Build 0)  -->
<svg version="1.1" id="Layer_1" xmlns="http://www.w3.org/2000/svg" xmlns:xlink="http://www.w3.org/1999/xlink" x="0px" y="0px"
	 width="380.8px" height="394.4px" viewBox="0 0 380.8 394.4" style="enable-background:new 0 0 380.8 394.4;" xml:space="preserve"
	>
<style type="text/css">
	.st0{fill:#0FDAC2;}
	.st1{fill:#0EDBC1;}
	.st2{fill-rule:evenodd;clip-rule:evenodd;fill:#0FDAC2;}
</style>
<g>
	<path class="st0" d="M380.8,53.5v55.4H0V53.5c0.3-22.3,18.5-40.1,40.8-39.9H68v27.2c0,22.5,18.3,40.8,40.8,40.8
		s40.8-18.3,40.8-40.8V13.6h81.6v27.2c0,22.5,18.3,40.8,40.8,40.8s40.8-18.3,40.8-40.8V13.6H340C362.3,13.4,380.5,31.2,380.8,53.5z
		 M0,136v218.6c0.3,22.3,18.5,40.1,40.8,39.9H340c22.3,0.2,40.5-17.6,40.8-39.9V136H0z M122.4,326.4c0,7.5-6.1,13.6-13.6,13.6H81.6
		c-7.5,0-13.6-6.1-13.6-13.6v-27.2c0-7.5,6.1-13.6,13.6-13.6h27.2c7.5,0,13.6,6.1,13.6,13.6V326.4z M122.4,231.2
		c0,7.5-6.1,13.6-13.6,13.6H81.6c-7.5,0-13.6-6.1-13.6-13.6V204c0-7.5,6.1-13.6,13.6-13.6h27.2c7.5,0,13.6,6.1,13.6,13.6V231.2z
		 M217.6,326.4c0,7.5-6.1,13.6-13.6,13.6h-27.2c-7.5,0-13.6-6.1-13.6-13.6v-27.2c0-7.5,6.1-13.6,13.6-13.6H204
		c7.5,0,13.6,6.1,13.6,13.6V326.4z M217.6,231.2c0,7.5-6.1,13.6-13.6,13.6h-27.2c-7.5,0-13.6-6.1-13.6-13.6V204
		c0-7.5,6.1-13.6,13.6-13.6H204c7.5,0,13.6,6.1,13.6,13.6V231.2z M312.8,231.2c0,7.5-6.1,13.6-13.6,13.6H272
		c-7.5,0-13.6-6.1-13.6-13.6V204c0-7.5,6.1-13.6,13.6-13.6h27.2c7.5,0,13.6,6.1,13.6,13.6V231.2z"/>
	<path class="st0" d="M122.4,13.6v27.2c0,7.5-6.1,13.6-13.6,13.6s-13.6-6.1-13.6-13.6V13.6c0-7.5,6.1-13.6,13.6-13.6
		S122.4,6.1,122.4,13.6z M285.6,13.6v27.2c0,7.5-6.1,13.6-13.6,13.6s-13.6-6.1-13.6-13.6V13.6C258.4,6.1,264.5,0,272,0
		S285.6,6.1,285.6,13.6z"/>
</g>
</svg>
