<?xml version="1.0" encoding="utf-8"?>
<!-- Generator: Adobe Illustrator 24.3.0, SVG Export Plug-In . SVG Version: 6.00 Build 0)  -->
<svg version="1.1" id="Layer_1" xmlns="http://www.w3.org/2000/svg" xmlns:xlink="http://www.w3.org/1999/xlink" x="0px" y="0px"
	 width="382.7px" height="382.4px" viewBox="0 0 382.7 382.4" style="enable-background:new 0 0 382.7 382.4;" xml:space="preserve"
	>
<style type="text/css">
	.st0{fill:#0FDAC2;}
	.st1{fill:#0EDBC1;}
	.st2{fill-rule:evenodd;clip-rule:evenodd;fill:#0FDAC2;}
</style>
<g>
	<path class="st0" d="M371.1,158.2h-35.1c-3.3-13.6-8.5-26.6-15.4-38.7l27.6-27.6c4.5-4.5,4.5-11.9,0-16.4L312,39.3
		c-4.5-4.5-11.9-4.5-16.4,0l-26.8,26.8c-12.1-7.4-25.3-13-39-16.7V11.6c0-6.4-5.2-11.6-11.6-11.6H167c-6.4,0-11.6,5.2-11.6,11.6
		v37.2c-14.2,3.5-27.7,9.1-40.3,16.5L91.3,41.4c-4.5-4.5-11.9-4.5-16.4,0L38.7,77.6c-4.5,4.5-4.5,11.9,0,16.4L62.8,118
		c-7.4,12.5-12.8,26-16.3,40.2H11.6c-6.4,0-11.6,5.2-11.6,11.6v51.1c0,6.4,5.2,11.6,11.6,11.6h36c3.7,13.5,9.2,26.4,16.5,38.3
		l-25.9,25.9c-4.5,4.5-4.5,11.9,0,16.4l36.1,36.1c4.5,4.5,11.9,4.5,16.4,0l26.6-26.6c11.5,6.6,23.8,11.6,36.5,14.9v33.3
		c0,6.4,5.2,11.6,11.6,11.6h51.1c6.4,0,11.6-5.2,11.6-11.6v-33.2c13.4-3.4,26.3-8.8,38.3-15.8l27.7,27.7c4.5,4.5,11.9,4.5,16.4,0
		l36.1-36.1c4.5-4.5,4.5-11.9,0-16.4l-27.6-27.6c6.9-11.5,12.1-23.9,15.7-36.9h36.2c6.4,0,11.6-5.2,11.6-11.6v-51.1
		C382.7,163.4,377.5,158.2,371.1,158.2L371.1,158.2z M89.7,157.7c-3.5-5.6-1.9-12.9,3.7-16.4c5.2-3.3,12-2.1,15.7,2.7
		c16.7-28.6,47.7-47.1,81.8-47.1c41.3,0,77.5,26.4,90.1,65.6c2,6.3-1.4,13-7.7,15c-6.3,2-13-1.4-15-7.7
		c-9.4-29.4-36.5-49.1-67.4-49.1c-24,0-46,12.2-58.9,31.4c5.4-0.1,10.4,3.5,11.8,9c1.6,6.4-2.3,12.9-8.6,14.5l-21.1,5.3
		c-4.6,1.2-10.2-0.7-13-5.2L89.7,157.7z M289.3,241.2c-5.2,3.3-12,2.1-15.7-2.7c-16.7,28.6-47.7,47.1-81.8,47.1
		c-41.3,0-77.5-26.4-90.1-65.6c-2-6.3,1.4-13,7.7-15c6.3-2,13,1.4,15,7.7c9.4,29.4,36.5,49.1,67.4,49.1c24,0,46-12.2,58.9-31.4
		c-0.1,0-0.2,0-0.2,0c-5.3,0-10.2-3.6-11.5-9c-1.6-6.4,2.3-12.9,8.6-14.5l21.1-5.3c4.6-1.2,10.4,0.7,13.1,5.3l11.3,17.9
		C296.5,230.3,294.8,237.7,289.3,241.2L289.3,241.2z"/>
</g>
</svg>
