<?xml version="1.0" encoding="utf-8"?>
<!-- Generator: Adobe Illustrator 24.3.0, SVG Export Plug-In . SVG Version: 6.00 Build 0)  -->
<svg version="1.1" id="Layer_1" xmlns="http://www.w3.org/2000/svg" xmlns:xlink="http://www.w3.org/1999/xlink" x="0px" y="0px"
	 width="313px" height="382.4px" viewBox="0 0 313 382.4" style="enable-background:new 0 0 313 382.4;" xml:space="preserve">
<style type="text/css">
	.st0{fill:#0FDAC2;}
	.st1{fill:#0EDBC1;}
	.st2{fill-rule:evenodd;clip-rule:evenodd;fill:#0FDAC2;}
</style>
<g>
	<g>
		<path class="st0" d="M291.9,43.3h-11.2v274.7c0,18.2-14.9,33.1-33.1,33.1H44.2v10.2c0,11.7,9.5,21.1,21.1,21.1h226.5
			c11.7,0,21.1-9.5,21.1-21.1V64.4C313,52.7,303.5,43.3,291.9,43.3z"/>
		<path class="st0" d="M134.3,339.1h113.2c11.7,0,21.1-9.5,21.1-21.1V21.1c0-11.7-9.5-21.1-21.1-21.1H96.7v7
			c0.1,0.7,0.1,1.5,0.1,2.2v57.9c0,16.4-13.3,29.7-29.7,29.7H9.2c-0.6,0-1.2,0-1.8-0.1H0v221.2c0,11.7,9.5,21.1,21.1,21.1H134.3z
			 M138.6,267.3H64.8c-5.5,0-10-4.5-10-10c0-5.5,4.5-10,10-10h73.9c5.5,0,10,4.5,10,10C148.6,262.8,144.1,267.3,138.6,267.3z
			 M212.5,216.3H64.8c-5.5,0-10-4.5-10-10c0-5.5,4.5-10,10-10h147.7c5.5,0,10,4.5,10,10C222.4,211.9,218,216.3,212.5,216.3z
			 M64.8,142.3h147.7c5.5,0,10,4.5,10,10s-4.5,10-10,10H64.8c-5.5,0-10-4.5-10-10S59.3,142.3,64.8,142.3z"/>
		<path class="st0" d="M9.2,84.8h58c9.7-0.1,17.5-7.9,17.6-17.6V9.2c0-5.4-4.4-8.9-8.9-8.9c-2.2,0-4.4,0.8-6.2,2.6L2.9,69.7
			C-2.7,75.3,1.2,84.8,9.2,84.8z"/>
	</g>
</g>
</svg>
