<?xml version="1.0" encoding="utf-8"?>
<!-- Generator: Adobe Illustrator 24.3.0, SVG Export Plug-In . SVG Version: 6.00 Build 0)  -->
<svg version="1.1" id="Layer_1" xmlns="http://www.w3.org/2000/svg" xmlns:xlink="http://www.w3.org/1999/xlink" x="0px" y="0px"
	 width="352.4px" height="393.4px" viewBox="0 0 352.4 393.4" style="enable-background:new 0 0 352.4 393.4;" xml:space="preserve"
	>
<style type="text/css">
	.st0{fill:#0FDAC2;}
	.st1{fill:#0EDBC1;}
	.st2{fill-rule:evenodd;clip-rule:evenodd;fill:#0FDAC2;}
</style>
<g>
	<path class="st0" d="M352.4,379.8v8.6c0,2.8-2.3,5.1-5.1,5.1H5.1c-2.8,0-5.1-2.3-5.1-5.1v-8.6c0-9.4,7.7-17.1,17.1-17.1h318.2
		C344.7,362.7,352.4,370.3,352.4,379.8z M106.1,164.4c-0.5-0.1-1.1-0.2-1.7-0.2H29.1c-6.6,0-12,5.4-12,12v176.2h99.2V176.2
		C116.3,170.2,111.8,165.2,106.1,164.4z M213.8,123.2h-75.3c-6.6,0-12,5.4-12,12v217.3h99.2V135.1
		C225.8,128.6,220.4,123.2,213.8,123.2z M323.3,205.3H248c-0.6,0-1.2,0.1-1.7,0.2c-5.7,0.8-10.3,5.8-10.3,11.8v135.1h99.2V217.3
		C335.3,210.7,329.9,205.3,323.3,205.3z M181.3,59.9V5.1c0-2.8-2.3-5.1-5.1-5.1c-2.8,0-5.1,2.3-5.1,5.1v54.7c0,2.8,2.3,5.1,5.1,5.1
		C179,65,181.3,62.7,181.3,59.9z M233.4,81.1l40.1-37.3c2.1-1.9,2.2-5.2,0.3-7.3c-1.9-2.1-5.2-2.2-7.3-0.3l-40.1,37.3
		c-2.2,1.8-2.4,5.1-0.6,7.2s5.1,2.4,7.2,0.6C233.2,81.3,233.3,81.2,233.4,81.1L233.4,81.1z M126.2,80.8c1.9-2.1,1.8-5.3-0.3-7.3
		c0,0,0,0,0,0L85.9,36.3c-2.1-1.9-5.3-1.8-7.3,0.3c-1.9,2.1-1.8,5.3,0.3,7.3L119,81.1C121,83,124.2,82.9,126.2,80.8
		C126.2,80.8,126.2,80.8,126.2,80.8z"/>
</g>
</svg>
