<?xml version="1.0" encoding="utf-8"?>
<!-- Generator: Adobe Illustrator 24.3.0, SVG Export Plug-In . SVG Version: 6.00 Build 0)  -->
<svg version="1.1" id="Layer_1" xmlns="http://www.w3.org/2000/svg" xmlns:xlink="http://www.w3.org/1999/xlink" x="0px" y="0px"
	 width="389.2px" height="389.2px" viewBox="0 0 389.2 389.2" style="enable-background:new 0 0 389.2 389.2;" xml:space="preserve"
	>
<style type="text/css">
	.st0{fill:#0FDAC2;}
	.st1{fill:#0EDBC1;}
	.st2{fill-rule:evenodd;clip-rule:evenodd;fill:#0FDAC2;}
</style>
<g>
	<path class="st0" d="M389.2,162.1V227c0,17.9-14.5,32.4-32.4,32.4h-8.8c-12.4,73.5-76.3,129.7-153.3,129.7c-7.2,0-13-5.8-13-13
		c0-7.2,5.8-13,13-13c71.5,0,129.7-58.2,129.7-129.7v-77.8c0-71.5-58.2-129.7-129.7-129.7S64.9,84.1,64.9,155.7v90.8
		c0,7.2-5.8,13-13,13H32.4C14.5,259.4,0,244.9,0,227v-64.9c0-17.9,14.5-32.4,32.4-32.4h8.8C53.7,56.2,117.6,0,194.6,0
		s140.9,56.2,153.3,129.7h8.8C374.6,129.7,389.2,144.3,389.2,162.1z M194.6,51.9c-57.2,0-103.8,46.6-103.8,103.8v64.9
		c0,57.2,46.6,103.8,103.8,103.8s103.8-46.6,103.8-103.8v-64.9C298.4,98.4,251.8,51.9,194.6,51.9z"/>
</g>
</svg>
