<?xml version="1.0" encoding="utf-8"?>
<!-- Generator: Adobe Illustrator 24.3.0, SVG Export Plug-In . SVG Version: 6.00 Build 0)  -->
<svg version="1.1" id="Layer_1" xmlns="http://www.w3.org/2000/svg" xmlns:xlink="http://www.w3.org/1999/xlink" x="0px" y="0px"
	 width="266.9px" height="390.3px" viewBox="0 0 266.9 390.3" style="enable-background:new 0 0 266.9 390.3;" xml:space="preserve"
	>
<style type="text/css">
	.st0{fill:#0FDAC2;}
	.st1{fill:#0EDBC1;}
	.st2{fill-rule:evenodd;clip-rule:evenodd;fill:#0FDAC2;}
</style>
<g>
	<path class="st0" d="M16,42.7c-8.8,0-16,7.2-16,16v315.7c0,8.8,7.2,16,16,16h234.9c8.8,0,16-7.2,16-16V58.6c0-8.8-7.2-16-16-16
		h-59.2v3.7c0,9.2-7.5,16.6-16.7,16.7H91.8c-9.2,0-16.6-7.5-16.7-16.7v-3.7H16z M242.9,73.1c0-3.8,3.1-7,7-7c3.8,0,7,3.1,7,7v4.5
		c0,3.8-3.1,7-7,7c-3.8,0-7-3.1-7-7V73.1z M242.9,114.9c0-3.8,3.1-7,7-7c3.8,0,7,3.1,7,7V266c0,3.8-3.1,7-7,7c-3.8,0-7-3.1-7-7
		V114.9z M152.7,220.7H114c-16.7,0-30.3-14-30.3-31.2v-15.3c0-17.2,13.6-31.2,30.3-31.2h12.3v-15.5c0-3.8,3.1-7,7-7c3.8,0,7,3.1,7,7
		v15.5h12.4c16.7,0,30.3,14,30.3,31.2c0,3.8-3.1,7-7,7s-7-3.1-7-7c0-9.5-7.3-17.3-16.3-17.3h-19.3l-0.1,0l-0.1,0h-19.2
		c-9,0-16.3,7.7-16.3,17.3v15.3c0,9.5,7.3,17.3,16.3,17.3h38.6c16.7,0,30.3,14,30.3,31.2v15.3c0,17.2-13.6,31.2-30.3,31.2h-12.4V300
		c0,3.8-3.1,7-7,7c-3.8,0-7-3.1-7-7v-15.5h-12.3c-16.7,0-30.3-14-30.3-31.2c0-3.8,3.1-7,7-7s7,3.1,7,7c0,9.5,7.3,17.3,16.3,17.3
		h19.2l0.1,0l0.1,0h19.3c9,0,16.3-7.7,16.3-17.3V238C169,228.4,161.7,220.7,152.7,220.7L152.7,220.7z"/>
	<path class="st0" d="M175.1,49.1c1.5,0,2.7-1.2,2.7-2.7V24c0-1.5-1.2-2.7-2.7-2.7h-17.4c-3.5,0-6.4-2.6-6.9-6
		C149.6,6.6,142.1,0,133.4,0s-16.1,6.6-17.3,15.3c-0.5,3.5-3.4,6-6.9,6H91.8c-1.5,0-2.7,1.2-2.7,2.7v22.4c0,1.5,1.2,2.7,2.7,2.7
		L175.1,49.1L175.1,49.1z"/>
</g>
</svg>
