<?xml version="1.0" encoding="utf-8"?>
<!-- Generator: Adobe Illustrator 24.3.0, SVG Export Plug-In . SVG Version: 6.00 Build 0)  -->
<svg version="1.1" id="Layer_1" xmlns="http://www.w3.org/2000/svg" xmlns:xlink="http://www.w3.org/1999/xlink" x="0px" y="0px"
	 width="363.4px" height="363.4px" viewBox="0 0 363.4 363.4" style="enable-background:new 0 0 363.4 363.4;" xml:space="preserve"
	>
<style type="text/css">
	.st0{fill:#0FDAC2;}
	.st1{fill:#0EDBC1;}
	.st2{fill-rule:evenodd;clip-rule:evenodd;fill:#0FDAC2;}
</style>
<g>
	<path class="st0" d="M97.2,236.6H29.6C13.2,236.6,0,249.9,0,266.2v67.6c0,16.3,13.2,29.6,29.6,29.6h67.6
		c16.3,0,29.6-13.2,29.6-29.6v-67.6C126.8,249.9,113.5,236.6,97.2,236.6z"/>
	<path class="st0" d="M333.8,236.6h-67.6c-16.3,0-29.6,13.2-29.6,29.6v67.6c0,16.3,13.2,29.6,29.6,29.6h67.6
		c16.3,0,29.6-13.2,29.6-29.6v-67.6C363.4,249.9,350.2,236.6,333.8,236.6z"/>
	<path class="st0" d="M287.3,198.6v16.9c0,7,5.7,12.7,12.7,12.7c7,0,12.7-5.7,12.7-12.7v-16.9c0-16.3-13.3-29.6-29.6-29.6h-88.7
		v-42.3h21.1c16.3,0,29.6-13.2,29.6-29.6V29.6c0-16.3-13.2-29.6-29.6-29.6h-67.6c-16.3,0-29.6,13.2-29.6,29.6v67.6
		c0,16.3,13.2,29.6,29.6,29.6H169V169H80.3c-16.3,0-29.6,13.3-29.6,29.6v16.9c0,7,5.7,12.7,12.7,12.7c7,0,12.7-5.7,12.7-12.7v-16.9
		c0-2.3,1.9-4.2,4.2-4.2h202.8C285.5,194.4,287.3,196.3,287.3,198.6z"/>
</g>
</svg>
