<?xml version="1.0" encoding="utf-8"?>
<!-- Generator: Adobe Illustrator 24.3.0, SVG Export Plug-In . SVG Version: 6.00 Build 0)  -->
<svg version="1.1" id="Layer_1" xmlns="http://www.w3.org/2000/svg" xmlns:xlink="http://www.w3.org/1999/xlink" x="0px" y="0px"
	 width="402.9px" height="402.9px" viewBox="0 0 402.9 402.9" style="enable-background:new 0 0 402.9 402.9;" xml:space="preserve"
	>
<style type="text/css">
	.st0{fill:#0FDAC2;}
	.st1{fill:#0EDBC1;}
	.st2{fill-rule:evenodd;clip-rule:evenodd;fill:#0EDBC1;}
</style>
<g>
	<path class="st1" d="M99.6,7L99.6,7c10.2,0,18.5,8.3,18.5,18.5v18.5c0,10.2-8.3,18.5-18.5,18.5l0,0c-10.2,0-18.5-8.3-18.5-18.5
		V25.6C81.1,15.3,89.4,7,99.6,7z"/>
	<path class="st1" d="M303.3,7L303.3,7c10.2,0,18.5,8.3,18.5,18.5v18.5c0,10.2-8.3,18.5-18.5,18.5l0,0c-10.2,0-18.5-8.3-18.5-18.5
		V25.6C284.8,15.3,293,7,303.3,7z"/>
	<path class="st1" d="M16.3,145.9v212.9c0,20.5,16.6,37,37,37h296.2c20.5,0,37-16.6,37-37V145.9H16.3z M127.4,331
		c0,10.2-8.3,18.5-18.5,18.5H90.4c-10.2,0-18.5-8.3-18.5-18.5v-18.5c0-10.2,8.3-18.5,18.5-18.5h18.5c10.2,0,18.5,8.3,18.5,18.5V331z
		 M127.4,229.2c0,10.2-8.3,18.5-18.5,18.5H90.4c-10.2,0-18.5-8.3-18.5-18.5v-18.5c0-10.2,8.3-18.5,18.5-18.5h18.5
		c10.2,0,18.5,8.3,18.5,18.5V229.2z M229.2,331c0,10.2-8.3,18.5-18.5,18.5h-18.5c-10.2,0-18.5-8.3-18.5-18.5v-18.5
		c0-10.2,8.3-18.5,18.5-18.5h18.5c10.2,0,18.5,8.3,18.5,18.5V331z M229.2,229.2c0,10.2-8.3,18.5-18.5,18.5h-18.5
		c-10.2,0-18.5-8.3-18.5-18.5v-18.5c0-10.2,8.3-18.5,18.5-18.5h18.5c10.2,0,18.5,8.3,18.5,18.5V229.2z M331,331
		c0,10.2-8.3,18.5-18.5,18.5H294c-10.2,0-18.5-8.3-18.5-18.5v-18.5c0-10.2,8.3-18.5,18.5-18.5h18.5c10.2,0,18.5,8.3,18.5,18.5V331z
		 M331,229.2c0,10.2-8.3,18.5-18.5,18.5H294c-10.2,0-18.5-8.3-18.5-18.5v-18.5c0-10.2,8.3-18.5,18.5-18.5h18.5
		c10.2,0,18.5,8.3,18.5,18.5V229.2z M386.6,127.4V71.8c0-20.5-16.6-37-37-37h-9.3v9.3c0,20.4-16.6,37-37,37s-37-16.6-37-37v-9.3
		H136.6v9.3c0,20.4-16.6,37-37,37s-37-16.6-37-37v-9.3h-9.3c-20.5,0-37,16.6-37,37v55.5H386.6z"/>
</g>
</svg>
