<?xml version="1.0" encoding="utf-8"?>
<!-- Generator: Adobe Illustrator 24.3.0, SVG Export Plug-In . SVG Version: 6.00 Build 0)  -->
<svg version="1.1" id="Layer_1" xmlns="http://www.w3.org/2000/svg" xmlns:xlink="http://www.w3.org/1999/xlink" x="0px" y="0px"
	 width="402.9px" height="402.9px" viewBox="0 0 402.9 402.9" style="enable-background:new 0 0 402.9 402.9;" xml:space="preserve"
	>
<style type="text/css">
	.st0{fill:#0FDAC2;}
	.st1{fill:#0EDBC1;}
	.st2{fill-rule:evenodd;clip-rule:evenodd;fill:#0EDBC1;}
</style>
<g>
	<rect x="32.2" y="380.4" class="st1" width="309.5" height="14.4"/>
	<path class="st1" d="M57.9,131c28.5,0,51.6-23.1,51.6-51.6c0-28.5-23.1-51.6-51.6-51.6c-28.5,0-51.6,23.1-51.6,51.6
		C6.3,107.9,29.4,131,57.9,131C57.9,131,57.9,131,57.9,131z M57.8,113.7c-3.3,0-6-2.7-6.1-6c0,0,0,0,0-0.1v-1.2
		c-3.8-1.3-7-3.9-9.1-7.4c-1.7-2.8-0.8-6.5,2-8.3c2.8-1.7,6.5-0.8,8.3,2c0,0,0,0,0,0c0.9,1.5,2.8,2.6,4.9,2.6c3.3,0,5.5-2.3,5.5-5
		c0-2.7-2.2-5-5.5-5c-9.5,0-17.6-7.5-17.6-17c0-7.4,4.9-13.6,11.6-16v-1.3c0-3.3,2.7-6,6-6c0,0,0,0,0,0c3.3,0,6,2.7,6,6v1.2
		c3.8,1.3,7.1,3.9,9.2,7.4c1.7,2.8,0.8,6.5-2,8.3c0,0,0,0,0,0c-2.8,1.7-6.5,0.8-8.3-2c0,0,0,0,0,0c-1.1-1.6-2.9-2.6-4.8-2.6
		c-3.3,0-5.6,2.4-5.6,5c0,2.7,2.3,5,5.6,5c9.5,0,17.6,7.6,17.6,17c-0.1,7.2-4.7,13.6-11.6,16v1.2C63.9,111,61.2,113.7,57.8,113.7
		C57.8,113.7,57.8,113.7,57.8,113.7z"/>
	<path class="st1" d="M199.3,8.1c-17.1,0-34,0-51,0c0,74,0,147.8,0,221.7c17.1,0,34.1,0,51,0C199.3,155.7,199.3,81.9,199.3,8.1z"/>
	<path class="st1" d="M32.4,254.6c0,39,0,77.7,0,116.5c17.1,0,34.1,0,51.1,0c0-39,0-77.7,0-116.5C66.4,254.6,49.5,254.6,32.4,254.6z
		"/>
	<path class="st1" d="M148.3,254.8c0,38.9,0,77.6,0,116.4c17.1,0,34,0,51.1,0c0-38.9,0-77.7,0-116.4
		C182.1,254.8,165.2,254.8,148.3,254.8z"/>
	<path class="st1" d="M312.4,371.4c2.4,0,3.1-0.7,3-3.1c-0.1-36.9,0-73.7-0.1-110.6c0-1-0.1-2-0.1-3.1c-17.2,0-34.1,0-51.2,0
		c0,38.9,0,77.5,0,116.5c1.2,0.1,2,0.2,2.9,0.2C282.1,371.4,297.3,371.3,312.4,371.4z"/>
	<path class="st1" d="M92.6,254.5c0,39,0,77.8,0,116.8c15.7,0,31.2,0,46.7,0c0-39,0-77.9,0-116.8
		C123.6,254.5,108.2,254.5,92.6,254.5z"/>
	<path class="st1" d="M208.5,254.6c0,39,0,77.9,0,116.7c15.7,0,31.1,0,46.7,0c0-39,0-77.8,0-116.7
		C239.5,254.6,224,254.6,208.5,254.6z"/>
	<path class="st1" d="M264,226.8c0,0.9,0.1,1.9,0.1,3c17.1,0,34,0,51.2,0c0.1-0.8,0.2-1.3,0.2-1.7c0-34.1,0-68.1,0.1-102.2
		c0-2.4-1.1-2.6-3-2.6c-15,0-29.9,0.1-44.9-0.1c-2.9,0-3.7,0.7-3.7,3.7C264,160.2,264,193.5,264,226.8z"/>
	<path class="st1" d="M354.8,196.9c-0.2,0.1-0.5,0.2-0.7,0.3v4c0,9,0.1,18.1,0,27.1c0,6.8-3.5,10.3-10.3,10.4
		c-9.8,0.1-19.6,0.3-29.4,0.3c-21.2,0-42.4-0.2-63.7-0.3c-17.1,0-34.2,0.3-51.3,0.3c-21.1,0-42.2-0.2-63.4-0.3
		c-17.5,0-34.9,0.3-52.4,0.3c-17.2,0-34.4-0.2-51.6-0.2v7h66.2c80.9,0,161.9,0,242.9,0c10.3,0,12.9,2.6,12.9,13c0,8.5,0,16.9,0,25.4
		c0,1.1,0.1,2.2,0.2,4c14.4-15.6,28.2-30.6,42.3-45.9C382.6,226.9,368.7,211.9,354.8,196.9z"/>
	<path class="st1" d="M32.3,229.8h51.3v-64h-2.4c-15.2,0-30.5,0.1-45.8-0.1c-2.6,0-3.2,0.8-3.2,3.2v0.1c0.1,19.1,0.1,38.2,0.1,57.3
		V229.8z"/>
</g>
</svg>
