<?xml version="1.0" encoding="utf-8"?>
<!-- Generator: Adobe Illustrator 24.3.0, SVG Export Plug-In . SVG Version: 6.00 Build 0)  -->
<svg version="1.1" id="Layer_1" xmlns="http://www.w3.org/2000/svg" xmlns:xlink="http://www.w3.org/1999/xlink" x="0px" y="0px"
	 width="402.9px" height="402.9px" viewBox="0 0 402.9 402.9" style="enable-background:new 0 0 402.9 402.9;" xml:space="preserve"
	>
<style type="text/css">
	.st0{fill:#0FDAC2;}
	.st1{fill:#0EDBC1;}
	.st2{fill-rule:evenodd;clip-rule:evenodd;fill:#0EDBC1;}
</style>
<g>
	<path class="st2" d="M298.9,245c41.9,0,75.9,34,75.9,75.9s-34,75.9-75.9,75.9s-75.9-34-75.9-75.9S257,245,298.9,245z M192.2,83
		c-61.3,0-111,49.7-111,111c0,31.4,13,59.7,33.9,79.9c11.7-20.4,31.2-35.6,54.1-41.7c-30.9-15.6-37.7-56.9-13.1-81.5
		c19.9-19.9,52.2-19.9,72.1,0c24.6,24.6,17.8,66-13.1,81.5c12,3.2,23,8.9,32.5,16.5c13.8-9.8,30.6-15.8,48.8-16.3
		c4.4-11.9,6.8-24.8,6.8-38.3C303.1,132.7,253.4,83,192.2,83L192.2,83z M352.1,188.7h-14.6c-3.1,0-5.1,3.6-3,6.2L363,232
		c1.5,2,4.5,2,6.1,0l28.7-37.1c2-2.6,0.1-6.2-3-6.2h-14.8C377.2,87.4,294.2,6.1,192.2,6.1C88.4,6.1,4.3,90.2,4.3,193.9
		c0,103.8,84.1,187.9,187.9,187.9V354c-88.4,0-160-71.6-160-160s71.6-160,160-160C278.8,33.9,349.3,102.8,352.1,188.7L352.1,188.7z
		 M212,303.2c3.7-18,12.8-34,25.5-46.2c-37.6-28-90.7-15.5-112.5,25.4C149.3,300.8,180.8,308.8,212,303.2z M192.2,148.4
		c21.1,0,38.2,17.1,38.2,38.2c0,21.1-17.1,38.2-38.2,38.2S154,207.7,154,186.6C154,165.5,171.1,148.4,192.2,148.4L192.2,148.4z
		 M321.1,291.2l-32.9,33.2l-11.7-11.4c-4.9-4.8-12.8-4.7-17.6,0.2c-4.8,4.9-4.7,12.8,0.2,17.6l20.5,20c4.9,4.7,12.7,4.7,17.5-0.1
		l41.5-41.9c4.8-4.9,4.8-12.7,0-17.6C333.8,286.3,326,286.3,321.1,291.2z"/>
</g>
</svg>
