<?xml version="1.0" encoding="utf-8"?>
<!-- Generator: Adobe Illustrator 24.3.0, SVG Export Plug-In . SVG Version: 6.00 Build 0)  -->
<svg version="1.1" id="Layer_1" xmlns="http://www.w3.org/2000/svg" xmlns:xlink="http://www.w3.org/1999/xlink" x="0px" y="0px"
	 width="402.9px" height="402.9px" viewBox="0 0 402.9 402.9" style="enable-background:new 0 0 402.9 402.9;" xml:space="preserve"
	>
<style type="text/css">
	.st0{fill:#0FDAC2;}
	.st1{fill:#0EDBC1;}
	.st2{fill-rule:evenodd;clip-rule:evenodd;fill:#0EDBC1;}
	.st3{fill-rule:evenodd;clip-rule:evenodd;fill:#0FDAC2;}
</style>
<g>
	<path class="st0" d="M389,283.2l-7.3-3.7L216.7,362c-9.5,4.8-21.1,4.8-30.6,0L21.2,279.6l-7.3,3.7c-5.6,2.8-7.9,9.7-5.1,15.3
		c1.1,2.2,2.9,4,5.1,5.1l182.4,91.2c3.2,1.6,7,1.6,10.2,0L389,303.6c5.6-2.8,7.9-9.7,5.1-15.3C393,286.1,391.2,284.3,389,283.2
		L389,283.2z"/>
	<path class="st0" d="M389,230l-7.3-3.7l-164.9,82.5c-9.5,4.8-21.1,4.8-30.6,0L21.2,226.4l-7.3,3.7c-5.6,2.8-7.9,9.7-5.1,15.3
		c1.1,2.2,2.9,4,5.1,5.1l182.4,91.2c3.2,1.6,7,1.6,10.2,0L389,250.4c5.6-2.8,7.9-9.7,5.1-15.3C393,232.9,391.2,231.1,389,230
		L389,230z M101.2,141l22.8,39.5c3.1,5.5,10.1,7.3,15.6,4.2l9.4-5.4c5.7,4.3,11.8,7.9,18.3,10.6v10.8c0,6.3,5.1,11.4,11.4,11.4h45.6
		c6.3,0,11.4-5.1,11.4-11.4v-10.8c6.5-2.8,12.6-6.3,18.3-10.6l9.4,5.4c5.5,3.1,12.4,1.3,15.6-4.2l22.8-39.5
		c3.1-5.5,1.3-12.4-4.2-15.6l-9.4-5.4c0.4-3.6,0.7-7.1,0.7-10.6c0-3.5-0.2-7-0.7-10.6l9.4-5.4c5.5-3.1,7.3-10.1,4.2-15.6l-22.8-39.5
		c-3.1-5.5-10.1-7.3-15.6-4.2l-9.4,5.4c-5.6-4.3-11.8-7.9-18.3-10.6V18.2c0-6.3-5.1-11.4-11.4-11.4h-45.6c-6.3,0-11.4,5.1-11.4,11.4
		V29c-6.5,2.8-12.7,6.4-18.3,10.6l-9.4-5.4c-5.5-3.1-12.4-1.3-15.6,4.2l-22.8,39.5c-3.1,5.5-1.3,12.4,4.2,15.6l9.4,5.4
		c-0.4,3.6-0.7,7.1-0.7,10.6s0.2,7,0.7,10.6l-9.4,5.4C99.9,128.6,98,135.6,101.2,141L101.2,141z M201.4,75.3
		c18.9,0,34.2,15.3,34.2,34.2s-15.3,34.2-34.2,34.2s-34.2-15.3-34.2-34.2S182.6,75.3,201.4,75.3z"/>
	<path class="st0" d="M13.9,197.2l182.4,91.2c3.2,1.6,7,1.6,10.2,0L389,197.2c5.6-2.8,7.9-9.7,5.1-15.3c-1.1-2.2-2.9-4-5.1-5.1
		l-64.2-32.1c-0.8,2.7-1.9,5.3-3.3,7.7l-22.8,39.5c-6.1,10.6-17.4,17.1-29.6,17.1h0c-3.8,0-7.6-0.6-11.2-1.9
		c-3,15.8-16.9,27.7-33.6,27.7h-45.6c-16.7,0-30.6-12-33.6-27.7c-3.6,1.2-7.4,1.9-11.2,1.9c-12.2,0-23.5-6.6-29.6-17.1l-22.8-39.5
		c-1.4-2.4-2.5-5-3.3-7.7l-64.2,32.1c-5.6,2.8-7.9,9.7-5.1,15.3C9.9,194.3,11.7,196.1,13.9,197.2z"/>
</g>
</svg>
