<?xml version="1.0" encoding="utf-8"?>
<!-- Generator: Adobe Illustrator 24.3.0, SVG Export Plug-In . SVG Version: 6.00 Build 0)  -->
<svg version="1.1" id="Layer_1" xmlns="http://www.w3.org/2000/svg" xmlns:xlink="http://www.w3.org/1999/xlink" x="0px" y="0px"
	 width="402.9px" height="402.9px" viewBox="0 0 402.9 402.9" style="enable-background:new 0 0 402.9 402.9;" xml:space="preserve"
	>
<style type="text/css">
	.st0{fill:#0FDAC2;}
	.st1{fill:#0EDBC1;}
	.st2{fill-rule:evenodd;clip-rule:evenodd;fill:#0EDBC1;}
	.st3{fill-rule:evenodd;clip-rule:evenodd;fill:#0FDAC2;}
</style>
<g>
	<path class="st3" d="M117.4,229.5H33.3c-15.5,0-28,12.5-28,28v112.1c0,15.5,12.5,28,28,28h84.1c15.5,0,28-12.5,28-28V257.5
		C145.4,242,132.9,229.5,117.4,229.5z M327.5,285.5h70V159.4c0-23.2-18.8-42-42-42H215.5c-11.2,0-21.8,4.4-29.7,12.3
		c-7.9,7.9-12.3,18.6-12.3,29.7v196.1c0,11.2,4.4,21.8,12.3,29.7c7.9,7.9,18.6,12.3,29.7,12.3h70v-70
		C285.5,304.3,304.3,285.5,327.5,285.5z M388.9,313.5h-61.3c-7.7,0-14,6.3-14,14v61.3c1.4-1.1,2.8-2.3,4.1-3.6l67.6-67.6
		C386.6,316.3,387.8,315,388.9,313.5L388.9,313.5z M61.4,299.5v28c0,7.7,6.3,14,14,14s14-6.3,14-14v-28c0-7.7-6.3-14-14-14
		S61.4,291.8,61.4,299.5z M243.5,257.5h56c7.7,0,14-6.3,14-14c0-7.7-6.3-14-14-14h-56c-7.7,0-14,6.3-14,14
		C229.5,251.2,235.7,257.5,243.5,257.5z M243.5,201.4h84.1c7.7,0,14-6.3,14-14c0-7.7-6.3-14-14-14h-84.1c-7.7,0-14,6.3-14,14
		C229.5,195.2,235.7,201.4,243.5,201.4z M129.2,198.8l-61.1-67.2c-14.6-16-14.6-40.5,0-56.6l61.1-67.2c-3.7-1.7-7.7-2.6-11.8-2.6
		H33.3c-15.5,0-28,12.5-28,28v140.1c0,15.5,12.5,28,28,28h84.1C121.5,201.4,125.6,200.5,129.2,198.8z M145.4,31.8L88.9,94
		c-4.9,5.3-4.9,13.5,0,18.9l56.5,62.1c0-0.5,0-1,0-1.5V33.3C145.4,32.8,145.4,32.3,145.4,31.8z M327.5,5.3h-95
		c-4,0-7.9,0.8-11.5,2.5l-31,14c-14.1,6.4-20.4,23-14,37.1c2.8,6.2,7.8,11.2,14,14l31,14c3.6,1.6,7.6,2.5,11.5,2.5h95V5.3z
		 M355.5,5.3v84.1h14c15.5,0,28-12.5,28-28v-28c0-15.5-12.5-28-28-28H355.5z"/>
</g>
</svg>
