<?xml version="1.0" encoding="utf-8"?>
<!-- Generator: Adobe Illustrator 24.3.0, SVG Export Plug-In . SVG Version: 6.00 Build 0)  -->
<svg version="1.1" id="Layer_1" xmlns="http://www.w3.org/2000/svg" xmlns:xlink="http://www.w3.org/1999/xlink" x="0px" y="0px"
	 width="319.8px" height="402.9px" viewBox="0 0 319.8 402.9" style="enable-background:new 0 0 319.8 402.9;" xml:space="preserve"
	>
<style type="text/css">
	.st0{fill:#0FDAC2;}
	.st1{fill:#0EDBC1;}
	.st2{fill-rule:evenodd;clip-rule:evenodd;fill:#0EDBC1;}
	.st3{fill-rule:evenodd;clip-rule:evenodd;fill:#0FDAC2;}
</style>
<g>
	<path class="st3" d="M316.8,55.1v294.2c0,3.6-2.9,6.6-6.6,6.6h-22.8V91c0-3.5-1.4-6.8-3.8-9.3l-43.9-43.9c-2.5-2.5-5.8-3.8-9.3-3.8
		H45.8V11.1c0-3.6,2.9-6.6,6.6-6.6c0,0,0,0,0,0h214v43.9c0,3.6,2.9,6.6,6.6,6.6H316.8z M279.4,11.1l30.8,30.8h-30.8V11.1z
		 M274.3,97.5v294.2c0,3.6-2.9,6.6-6.6,6.6c0,0,0,0,0,0H9.8c-3.6,0-6.6-2.9-6.6-6.6V53.6c0-1.7,0.7-3.4,1.9-4.6
		c1.2-1.2,2.9-1.9,4.6-1.9h214V91c0,3.6,2.9,6.6,6.6,6.6H274.3z M58.6,304.1H219c3.6,0,6.6-2.9,6.6-6.6c0-3.6-2.9-6.6-6.6-6.6H58.6
		c-3.6,0-6.6,2.9-6.6,6.6C52,301.2,54.9,304.1,58.6,304.1z M58.6,351.4H219c3.6,0,6.6-2.9,6.6-6.6s-2.9-6.6-6.6-6.6H58.6
		c-3.6,0-6.6,2.9-6.6,6.6S54.9,351.4,58.6,351.4z M58.6,256.9H219c3.6,0,6.6-2.9,6.6-6.6c0-3.6-2.9-6.6-6.6-6.6H58.6
		c-3.6,0-6.6,2.9-6.6,6.6C52,253.9,54.9,256.9,58.6,256.9z M138.8,98.4c-30,0-54.4,24.4-54.4,54.4s24.4,54.4,54.4,54.4
		c30,0,54.4-24.4,54.4-54.4S168.8,98.4,138.8,98.4z M111.3,154.5c-2.6-2.6-2.6-6.7,0-9.3c2.6-2.6,6.7-2.6,9.3,0l12.6,12.6L157,134
		c2.6-2.6,6.7-2.6,9.3,0c2.6,2.6,2.6,6.7,0,9.3l-28.5,28.5c-2.6,2.6-6.7,2.6-9.3,0c0,0,0,0,0,0L111.3,154.5z M236.9,53.6l30.8,30.8
		h-30.8V53.6z"/>
</g>
</svg>
