<?xml version="1.0" encoding="utf-8"?>
<!-- Generator: Adobe Illustrator 24.3.0, SVG Export Plug-In . SVG Version: 6.00 Build 0)  -->
<svg version="1.1" id="Layer_1" xmlns="http://www.w3.org/2000/svg" xmlns:xlink="http://www.w3.org/1999/xlink" x="0px" y="0px"
	 width="402.9px" height="402.9px" viewBox="0 0 402.9 402.9" style="enable-background:new 0 0 402.9 402.9;" xml:space="preserve"
	>
<style type="text/css">
	.st0{fill:#0FDAC2;}
	.st1{fill:#0EDBC1;}
	.st2{fill-rule:evenodd;clip-rule:evenodd;fill:#0EDBC1;}
	.st3{fill-rule:evenodd;clip-rule:evenodd;fill:#0FDAC2;}
</style>
<g>
	<path class="st3" d="M398.9,296l-14.3-5.5c-0.3-0.1-0.4-0.3-0.5-0.6c-1.9-7.8-5-15.3-9.2-22.1c-0.1-0.2-0.2-0.5,0-0.8l6.2-14
		c0.1-0.3,0.1-0.7-0.2-0.9l-16.7-16.7c-0.2-0.2-0.6-0.3-0.9-0.2l-14,6.2c-0.2,0.1-0.5,0.1-0.8,0c-6.9-4.2-14.3-7.3-22.1-9.2
		c-0.3-0.1-0.5-0.3-0.6-0.5l-5.5-14.3c-0.1-0.3-0.4-0.5-0.8-0.5h-23.7c-0.3,0-0.7,0.2-0.8,0.5l-5.5,14.3c-0.1,0.3-0.3,0.4-0.6,0.5
		c-7.8,1.9-15.3,5-22.1,9.2c-0.2,0.1-0.5,0.2-0.8,0l-14-6.2c-0.3-0.1-0.7-0.1-0.9,0.2l-16.7,16.7c-0.2,0.2-0.3,0.6-0.2,0.9l6.2,14
		c0.1,0.2,0.1,0.5,0,0.8c-4.2,6.9-7.3,14.3-9.2,22.1c-0.1,0.3-0.3,0.5-0.5,0.6l-14.3,5.5c-0.3,0.1-0.5,0.4-0.5,0.8v23.7
		c0,0.4,0.2,0.6,0.5,0.8l14.3,5.5c0.3,0.1,0.4,0.3,0.5,0.6c1.9,7.8,5,15.3,9.2,22.1c0.1,0.2,0.2,0.5,0,0.8l-6.2,14
		c-0.1,0.3-0.1,0.7,0.2,0.9l16.7,16.7c0.2,0.2,0.6,0.3,0.9,0.2l14-6.2c0.2-0.1,0.5-0.1,0.8,0c6.9,4.2,14.3,7.3,22.1,9.2
		c0.3,0.1,0.5,0.2,0.6,0.5l5.5,14.3c0.1,0.3,0.4,0.5,0.8,0.5h23.7c0.3,0,0.7-0.2,0.8-0.5l5.5-14.3c0.1-0.3,0.3-0.4,0.6-0.5
		c7.8-1.9,15.3-5,22.1-9.2c0.2-0.1,0.5-0.2,0.8,0l14,6.2c0.3,0.1,0.7,0.1,0.9-0.2l16.7-16.7c0.2-0.2,0.3-0.6,0.2-0.9l-6.2-14
		c-0.1-0.2-0.1-0.5,0-0.8c4.2-6.9,7.3-14.3,9.2-22.1c0.1-0.3,0.3-0.5,0.5-0.6l14.3-5.5c0.3-0.1,0.5-0.4,0.5-0.8v-23.7
		C399.5,296.5,399.3,296.1,398.9,296L398.9,296z M307.8,352.4c-24.2,0-43.7-19.6-43.7-43.7c0-24.2,19.6-43.7,43.7-43.7
		c24.2,0,43.7,19.6,43.7,43.7C351.5,332.8,331.9,352.4,307.8,352.4z M163.6,99.1c-34.7,0-62.9,28.2-62.9,62.9
		c0,34.7,28.2,62.9,62.9,62.9s62.9-28.2,62.9-62.9C226.5,127.2,198.4,99.1,163.6,99.1L163.6,99.1z M200.1,150.8l-38,38
		c-5.5,5.5-12.9,3.3-17.7-1.6L127.1,170c-4.3-4.3-4.3-11.4,0-15.7c4.3-4.3,11.4-4.3,15.7,0l11.2,11.2l30.4-30.4
		c4.3-4.3,11.4-4.3,15.7,0C204.5,139.4,204.5,146.5,200.1,150.8z M297.6,131c-3.4-14.2-9-27.7-16.6-40.1l11.6-26l-30.7-30.7
		l-26,11.6c-12.4-7.6-25.9-13.2-40.1-16.6L185.5,2.6h-43.4l-10.2,26.6c-14.2,3.4-27.7,9-40.1,16.6l-26-11.6L35,64.9l11.6,26
		C39,103.3,33.4,116.8,30,131L3.4,141.2v43.4L30,194.9c3.4,14.2,9,27.7,16.6,40.1L35,261l30.7,30.7l26-11.6
		c12.4,7.6,25.9,13.2,40.1,16.6l10.2,26.6h43.4l10.2-26.6c2.4-0.6,4.8-1.2,7.2-1.9c0.7-5,4.1-9.3,8.9-11.1l8.5-3.3
		c1.5-4.7,3.4-9.2,5.6-13.6l-3.7-8.3c-2.4-5.3-1.2-11.6,2.9-15.7l16.7-16.7c4.1-4.1,10.4-5.3,15.7-2.9l8.3,3.7
		c4.4-2.2,8.9-4.1,13.6-5.6l3.3-8.5c2-5.2,6.8-8.7,12.4-9c0.9-2.9,1.7-5.9,2.4-8.8l26.6-10.2v-43.4L297.6,131z M163.8,260
		c-53.6,0-97.1-43.5-97.1-97.1c0-53.6,43.5-97.1,97.1-97.1s97.1,43.5,97.1,97.1C260.9,216.6,217.4,260,163.8,260z"/>
</g>
</svg>
