<?xml version="1.0" encoding="utf-8"?>
<!-- Generator: Adobe Illustrator 24.3.0, SVG Export Plug-In . SVG Version: 6.00 Build 0)  -->
<svg version="1.1" id="Layer_1" xmlns="http://www.w3.org/2000/svg" xmlns:xlink="http://www.w3.org/1999/xlink" x="0px" y="0px"
	 width="402.9px" height="402.9px" viewBox="0 0 402.9 402.9" style="enable-background:new 0 0 402.9 402.9;" xml:space="preserve"
	>
<style type="text/css">
	.st0{fill:#0FDAC2;}
	.st1{fill:#0EDBC1;}
	.st2{fill-rule:evenodd;clip-rule:evenodd;fill:#0EDBC1;}
	.st3{fill-rule:evenodd;clip-rule:evenodd;fill:#0FDAC2;}
</style>
<g>
	<path class="st0" d="M154.6,166.3h93.6c6.5,0,11.7-5.2,11.7-11.7c0-6.5-5.2-11.7-11.7-11.7h-93.6c-6.5,0-11.7,5.2-11.7,11.7
		C142.9,161.1,148.2,166.3,154.6,166.3z M154.6,213.2h93.6c6.5,0,11.7-5.2,11.7-11.7c0-6.5-5.2-11.7-11.7-11.7h-93.6
		c-6.5,0-11.7,5.2-11.7,11.7C142.9,207.9,148.2,213.2,154.6,213.2z M154.6,260h93.6c6.5,0,11.7-5.2,11.7-11.7
		c0-6.5-5.2-11.7-11.7-11.7h-93.6c-6.5,0-11.7,5.2-11.7,11.7C142.9,254.7,148.2,260,154.6,260z M260.8,87.6
		c31,16.2,54.7,44.4,64.4,78.7h-18.4c-4.3,0-8.3,2.4-10.3,6.2c-2,3.8-1.8,8.4,0.6,12c1.4,2.4,43.6,75.1,41,70.6
		c4.3,6.5,15.1,6.5,19.5,0c4.5-7.7,43.3-73.2,41.7-70.6c2.4-3.6,2.6-8.2,0.6-12c-2-3.8-6-6.2-10.3-6.2h-16
		c-10.7-52.6-45.1-96.3-91.3-120.3c0.8,2.9,1.2,6,1.2,9.1C283.4,80.2,263.1,86.1,260.8,87.6z M184.5,3.7c-3.6-2.4-8.2-2.6-12-0.6
		c-3.8,2-6.2,6-6.2,10.3v16C102.9,42.3,52,89.4,33.5,150.7c6.3-4.9,13.7-7.7,21.7-7.7c10.5,0,20,4.6,26.6,12.3
		c14.5-37.4,45.7-66.4,84.6-77.5v18.4c0,4.3,2.4,8.3,6.2,10.3c3.8,2,8.4,1.8,12-0.6c2.4-1.4,75.1-43.6,70.6-41
		c6.5-4.3,6.5-15.1,0-19.5C247.4,40.9,181.9,2.1,184.5,3.7L184.5,3.7z M3.1,253.8c2,3.8,6,6.2,10.3,6.2h22.7
		c14.9,42.1,45.5,76.4,84.6,96.7c-0.8-2.9-1.2-5.9-1.2-9c0-24.9,20.1-30.8,22.4-32.4c-23.6-12.3-42.9-31.7-55-55.4h9.2
		c4.3,0,8.3-2.4,10.3-6.2c2-3.8,1.8-8.4-0.6-12c-1.4-2.4-43.6-75.1-41-70.6c-4.3-6.5-15.1-6.5-19.5,0c-3.1,5.3-44.3,74.9-41.7,70.6
		C1.3,245.4,1,250,3.1,253.8z M236.6,306.8c0-4.3-2.4-8.3-6.2-10.3c-3.8-2-8.4-1.8-12,0.6c-2.4,1.4-75.1,43.6-70.6,41
		c-6.5,4.3-6.5,15.1,0,19.5c7.7,4.5,73.2,43.3,70.6,41.7c3.6,2.4,8.2,2.6,12,0.6c3.8-2,6.2-6,6.2-10.3v-16
		c52.6-10.7,96.2-45.1,120.3-91.3c-2.9,0.8-6,1.2-9.1,1.2c-19.9,0-27.4-12.7-32.9-21.8c-16.3,30.6-44.3,54-78.3,63.6V306.8z"/>
</g>
</svg>
