<?xml version="1.0" encoding="utf-8"?>
<!-- Generator: Adobe Illustrator 24.3.0, SVG Export Plug-In . SVG Version: 6.00 Build 0)  -->
<svg version="1.1" id="Layer_1" xmlns="http://www.w3.org/2000/svg" xmlns:xlink="http://www.w3.org/1999/xlink" x="0px" y="0px"
	 width="402.9px" height="402.9px" viewBox="0 0 402.9 402.9" style="enable-background:new 0 0 402.9 402.9;" xml:space="preserve"
	>
<style type="text/css">
	.st0{fill:#0FDAC2;}
	.st1{fill:#0EDBC1;}
</style>
<g>
	<g>
		<path class="st0" d="M75.2,4c-9.9,0.2-17.8,8.4-17.6,18.3c0,0,0,0,0,0v197.3L36,190.8c-3.6-4.9-9.4-7.6-15.5-7.3
			c-9.9,0.6-17.5,9.1-16.9,19c0.2,3.6,1.5,7,3.6,9.8l53.8,71.8c6,7.9,17.2,9.5,25.2,3.6c1.4-1,2.6-2.2,3.6-3.6l53.8-71.8
			c6.4-7.6,5.4-18.9-2.2-25.3c-7.6-6.4-18.9-5.4-25.3,2.2c-0.4,0.5-0.8,1-1.2,1.6l-21.5,28.5V22.3C93.6,12.3,85.7,4.2,75.8,4
			C75.6,4,75.4,4,75.2,4L75.2,4z M200.7,4c-9.9,0.2-17.8,8.4-17.6,18.3c0,0,0,0,0,0v304.9l-21.6-28.7c-3.6-4.9-9.4-7.8-15.5-7.5
			c-9.9,0.5-17.5,9-16.9,18.9c0.2,3.7,1.5,7.2,3.8,10.1l53.8,71.7c6,7.9,17.2,9.5,25.2,3.6c1.4-1,2.6-2.2,3.6-3.6l53.8-71.7
			c5.9-7.9,4.3-19.2-3.6-25.2c-7.9-5.9-19.2-4.3-25.1,3.6L219,327.1V22.3c0.2-9.9-7.8-18.1-17.7-18.2C201.1,4,200.9,4,200.7,4
			L200.7,4z M326.4,4c-9.9,0.1-17.9,8.2-17.8,18.2c0,0,0,0.1,0,0.1v197.1l-21.4-28.5c-3.6-4.9-9.5-7.6-15.6-7.3
			c-9.9,0.6-17.4,9.2-16.8,19.1c0.2,3.5,1.5,6.9,3.6,9.7l53.8,71.8c6,7.9,17.2,9.5,25.2,3.5c1.3-1,2.5-2.2,3.5-3.5l53.8-71.8
			c6.6-7.4,5.9-18.8-1.6-25.4c-7.4-6.6-18.8-5.9-25.4,1.6c-0.6,0.7-1.2,1.4-1.7,2.2l-21.6,28.7V22.3c0.2-9.9-7.7-18.1-17.6-18.3
			C326.7,4,326.6,4,326.4,4z"/>
	</g>
</g>
</svg>
