<?xml version="1.0" encoding="utf-8"?>
<!-- Generator: Adobe Illustrator 24.3.0, SVG Export Plug-In . SVG Version: 6.00 Build 0)  -->
<svg version="1.1" id="Layer_1" xmlns="http://www.w3.org/2000/svg" xmlns:xlink="http://www.w3.org/1999/xlink" x="0px" y="0px"
	 width="402.9px" height="402.9px" viewBox="0 0 402.9 402.9" style="enable-background:new 0 0 402.9 402.9;" xml:space="preserve"
	>
<style type="text/css">
	.st0{fill:#0FDAC2;}
	.st1{fill:#0EDBC1;}
</style>
<g>
	<g>
		<path class="st0" d="M367,302.6c-8.4-14.5-16.4-28.3-24.4-42.1c-6.7-11.5-13.1-23.2-20.2-34.5c-2.3-3.7-5.8-7-9.4-9.5
			c-2.7-1.9-2.5-3.9-2.3-6.4c2.1-31.8-7.4-59.6-28.9-83.3c-46.6-51.4-131.5-45.6-170.7,11.6c-10.2,14.9-16.9,31.2-19.1,49.1
			c-7.8,64.3,39.8,118.7,99.9,123.1c11.6,0.8,23.3-0.7,35.3-1.2c-0.3,0.6-1,1.9-1.7,3.2c-6.3,10.9-12.6,21.7-18.8,32.6
			c-1.4,2.6-3.2,3.7-6,3.3c-0.2,0-0.3,0-0.5,0c-11.1-2.6-17.8,2.6-22.9,12c-4,7.4-9.3,14.1-14,21.2c-4.6,6.8-10.2,8.7-17.9,6
			c-7.4-2.6-14.7-5.4-22.1-8.1c-7-2.7-10.1-7.4-9.4-15c1.1-11.6,2.2-23.1,3.6-34.6c0.6-4.7-0.7-8-4.7-10.9
			c-4.4-3.2-8.6-6.8-12.6-10.6c-3.3-3.1-6.7-4-11.1-2.7c-10.8,3.3-21.7,6.3-32.5,9.3c-8.7,2.4-13.5,0.5-18.1-7.3
			c-3.8-6.5-7.6-13-11.3-19.5c-4-7-3.3-12.5,2.5-18.3c8.3-8.1,16.6-16.2,25.1-24.1c3.3-3,4.2-6.2,3.1-10.5
			c-1.4-5.6-2.5-11.4-3.1-17.1c-0.5-4.7-2.7-7.3-6.8-9.1c-10.2-4.4-20.4-9-30.5-13.5c-8.3-3.7-10.9-8.5-9.3-17.6
			c1.3-7.4,2.5-14.8,3.9-22.2c1.5-7.6,5.8-11.4,13.5-11.9c11.7-0.9,23.5-1.7,35.2-2.4c4.1-0.2,6.6-2,8.4-5.6
			c2.7-5.3,5.6-10.5,9-15.4c2.6-3.9,2.7-7.3,0.6-11.4c-5.1-9.9-9.9-19.9-14.8-29.9c-4-8.2-2.8-13.8,4.1-19.5
			c5.6-4.7,11.2-9.5,16.9-14.3c6.3-5.3,12.1-5.5,18.8-0.6c9.4,6.8,18.9,13.5,28.1,20.5c3.4,2.6,6.6,2.8,10.4,1.2
			c5.5-2.3,11.1-4.4,16.8-6.1c4.1-1.2,6.3-3.5,7.3-7.6c2.6-11,5.4-21.9,8.2-32.9c2.3-9.3,6.3-12.4,16-12.4c7.4,0,14.7,0,22.1,0
			c8.1,0,12.5,3.4,14.5,11.3c2.8,10.9,5.6,21.9,8.1,32.9c1.1,4.8,3.4,7.6,8.3,8.9c5.6,1.5,11,3.7,16.3,6c3.7,1.6,6.8,1.3,10-1.2
			c9.3-6.9,18.7-13.7,28.1-20.5c6.9-5,12.6-4.8,19.2,0.7c5.8,4.8,11.5,9.7,17.3,14.6c6.2,5.2,7.5,11,3.9,18.4
			c-4.9,10.2-9.8,20.3-15,30.4c-2.2,4.2-2.1,7.8,0.6,11.8c3.2,4.8,6.1,9.9,8.7,15c1.9,3.9,4.6,5.5,8.8,5.8
			c11.6,0.7,23.2,1.5,34.7,2.4c8,0.6,12.3,4.4,13.8,12.2c1.5,7.7,2.8,15.4,4,23.2c1.3,8-1.5,12.8-8.9,16.1
			c-10.2,4.5-20.3,9.2-30.5,13.5c-4.8,2-7,5.1-7.6,10.2c-0.6,5.7-1.7,11.5-3.1,17.1c-1,3.9,0.1,6.6,2.8,9.2
			c8.1,7.7,16.1,15.4,24,23.2c7.6,7.3,8.3,12.2,3.1,21.2C371.9,293.9,369.6,298,367,302.6z"/>
		<path class="st0" d="M299,395.4c-26.8,0-53.7,0-80.5,0c-13.2,0-19.4-10.3-12.8-21.7c27-46.9,54.1-93.7,81.2-140.5
			c6.1-10.6,18.3-10.7,24.4-0.1c27.1,46.8,54.2,93.7,81.2,140.5c5.4,9.4,1.9,19.1-7.5,21.4c-1.8,0.4-3.7,0.4-5.6,0.4
			C352.6,395.4,325.8,395.4,299,395.4z M308.1,296.1C308.1,296.1,308.1,296.1,308.1,296.1c0.4-6.7,1-13.4,1.4-20.2
			c0.4-7.7-3.8-12.8-10.4-12.8c-6.6,0-10.8,5.1-10.3,12.8c1.3,19.4,2.7,38.7,4,58.1c0.3,3.9,1.8,6.7,6,7.1c3.7,0.3,6-2.2,6.4-7.1
			C306.3,321.4,307.2,308.7,308.1,296.1z M288.8,367.1c0,5.8,4.7,10.4,10.4,10.4c5.7,0,10.4-4.8,10.4-10.5c0-5.8-4.7-10.4-10.5-10.3
			C293.2,356.7,288.7,361.2,288.8,367.1z"/>
	</g>
</g>
</svg>
