<?xml version="1.0" encoding="utf-8"?>
<!-- Generator: Adobe Illustrator 24.3.0, SVG Export Plug-In . SVG Version: 6.00 Build 0)  -->
<svg version="1.1" id="Layer_1" xmlns="http://www.w3.org/2000/svg" xmlns:xlink="http://www.w3.org/1999/xlink" x="0px" y="0px"
	 width="402.9px" height="402.9px" viewBox="0 0 402.9 402.9" style="enable-background:new 0 0 402.9 402.9;" xml:space="preserve"
	>
<style type="text/css">
	.st0{fill:#0FDAC2;}
	.st1{fill:#0EDBC1;}
</style>
<g>
	<g>
		<path class="st0" d="M275.6,276.8c-49.4,0-98.8,0-148.2,0c1-32.7,29.3-68.8,73-69.5C244.4,206.7,274.4,242.6,275.6,276.8z"/>
		<path class="st0" d="M139.3,400.3c0-24.5,0-48.9,0-73.5c41.3,0,82.7,0,124.3,0c0,24.4,0,48.9,0,73.5
			C222.2,400.3,180.8,400.3,139.3,400.3z M201.2,380.7c1.9,0,3.8,0,5.7,0c11,0,21.9,0,32.9,0c3.2,0,5.3-2,5.3-4.8
			c0-2.8-2.1-4.7-5.4-4.7c-0.4,0-0.8,0-1.2,0c-24.8,0-49.6,0-74.3,0c-0.8,0-1.6-0.1-2.4,0.1c-2.2,0.5-3.7,1.8-4,4.1
			c-0.3,2.2,0.7,3.9,2.7,4.8c1,0.4,2.3,0.5,3.5,0.5C176.4,380.7,188.8,380.7,201.2,380.7z M201.7,346.3
			C201.7,346.3,201.7,346.3,201.7,346.3c-12.4,0-24.8,0-37.2,0c-0.9,0-1.7,0-2.6,0.1c-2.3,0.3-4,2.2-4.1,4.5
			c-0.1,2.2,1.4,4.2,3.6,4.7c0.8,0.2,1.7,0.2,2.6,0.2c25,0,49.9,0,74.9,0c0.9,0,1.9,0,2.8-0.3c2.2-0.6,3.5-2.6,3.4-4.8
			c-0.2-2.1-1.7-3.9-3.8-4.3c-0.8-0.1-1.7-0.1-2.6-0.1C226.4,346.3,214,346.3,201.7,346.3z"/>
		<path class="st0" d="M263.6,2.6c0,24.5,0,48.9,0,73.5c-41.4,0-82.7,0-124.2,0c0-24.5,0-48.9,0-73.5C180.8,2.6,222.1,2.6,263.6,2.6
			z M201.5,22.2c-12.3,0-24.6,0-36.9,0c-0.8,0-1.6,0-2.4,0c-2.4,0.2-4.1,2-4.3,4.3c-0.2,2.4,1.3,4.5,3.8,5c0.8,0.2,1.6,0.1,2.4,0.1
			c24.9,0,49.9,0,74.8,0c0.9,0,1.7,0,2.6-0.2c2.3-0.5,3.8-2.5,3.8-4.8c-0.1-2.3-1.8-4.2-4.1-4.5c-0.8-0.1-1.6-0.1-2.4-0.1
			C226.3,22.2,213.9,22.2,201.5,22.2z M201.4,56.6c12.8,0,25.6,0,38.4,0c3.2,0,5.2-1.8,5.3-4.6c0.1-2.8-2-4.8-5.2-4.9
			c-0.5,0-0.9,0-1.4,0c-24.6,0-49.3,0-73.9,0c-0.9,0-2.1-0.3-2.8,0.2c-1.4,0.9-2.9,1.9-3.6,3.3c-0.9,1.6-0.3,3.6,1.3,4.6
			c1.2,0.8,2.9,1.3,4.4,1.3C176.3,56.6,188.9,56.6,201.4,56.6z"/>
		<path class="st0" d="M2.6,249.1c0-31.8,0-63.4,0-95.2c24.5,0,48.9,0,73.5,0c0,31.7,0,63.3,0,95.2C51.6,249.1,27.3,249.1,2.6,249.1
			z"/>
		<path class="st0" d="M400.3,249.1c-24.5,0-48.9,0-73.5,0c0-31.8,0-63.4,0-95.2c24.4,0,48.8,0,73.5,0
			C400.3,185.6,400.3,217.2,400.3,249.1z"/>
		<path class="st0" d="M201.5,197.8c-19.7,0-36-16.1-35.9-35.8c0-19.9,16.1-36,36-36c19.8,0,35.9,16.1,35.9,35.8
			C237.5,181.6,221.4,197.7,201.5,197.8z"/>
		<path class="st0" d="M88.2,31.2c7.9,0,15.8-0.1,23.7,0c4,0,7,2.8,7.8,6.7c0.7,3.5-1.1,7.3-4.5,8.8c-1.3,0.6-2.9,0.8-4.4,0.8
			c-14.1,0.1-28.3,0.1-42.4,0c-12.5,0-20.8,8.3-20.9,20.7c0,7.7,0.1,15.3,0,23c0,4.4-3.1,7.7-7.4,8.2c-4,0.4-7.7-2.2-8.7-6.1
			c-0.2-0.8-0.2-1.7-0.2-2.6c0-8,0-16,0-23.9C31.3,47.4,47,31.5,66.4,31.2C73.7,31.1,81,31.2,88.2,31.2
			C88.2,31.2,88.2,31.2,88.2,31.2z"/>
		<path class="st0" d="M314.8,371.7c-7.5,0-15,0-22.5,0c-5.6,0-9.3-3.4-9.2-8.3c0.1-4.8,3.8-8.1,9.2-8.1c14.2,0,28.4,0,42.7,0
			c12.1,0,20.4-8.3,20.5-20.4c0-7.8,0-15.6,0-23.5c0.1-4.3,3.1-7.5,7.3-8c3.8-0.5,7.6,2,8.7,5.8c0.3,1,0.3,2,0.4,3
			c0,7.9,0.1,15.8,0,23.7c-0.2,19.8-15.8,35.4-35.6,35.7C329,371.8,321.9,371.7,314.8,371.7z"/>
		<path class="st0" d="M88,371.7c-7.1,0-14.2,0.1-21.3,0c-19.6-0.3-35.2-16-35.4-35.6c-0.1-8.2-0.1-16.4,0-24.6
			c0-3.8,2.4-6.7,5.9-7.7c3.4-1,7.1,0.2,8.9,3.3c0.9,1.6,1.4,3.5,1.4,5.4c0.2,7.5,0.1,15,0.1,22.5c0,12.1,8.3,20.4,20.4,20.4
			c14.4,0,28.7,0,43.1,0c3.8,0,6.6,1.5,8.1,5c2.3,5.4-1.6,11.2-7.6,11.3C103.8,371.8,95.9,371.7,88,371.7z"/>
		<path class="st0" d="M314.8,31.2c7,0,14.1,0,21.1,0c20,0.1,35.7,15.9,35.8,35.9c0,7.8,0,15.6,0,23.5c0,5.2-3.4,8.9-8.1,8.9
			c-4.9,0-8.2-3.6-8.3-9c0-7.3,0-14.7,0-22c0-12.7-8.2-20.9-20.9-20.9c-14.1,0-28.3,0-42.4,0c-6.5,0-10.5-5.4-8.4-11.1
			c1.2-3.3,4.1-5.2,7.9-5.3C299.3,31.2,307,31.2,314.8,31.2z"/>
		<path class="st0" d="M135.9,226.8c-3.2,4.6-6.2,8.9-9.3,13.4c-0.6-0.3-1.3-0.7-1.9-1.1c-11.9-7.6-23.8-15.2-35.7-22.8
			c-1.4-0.9-1.9-1.8-1.9-3.4c0.1-4.9,0-9.8,0-14.7c0-0.7,0.1-1.4,0.2-2.5C103.7,206.2,119.8,216.5,135.9,226.8z"/>
		<path class="st0" d="M276.3,240.2c-3.1-4.5-6-8.7-9.2-13.3c16-10.2,32.1-20.6,48.7-31.2c0,1.8,0,3.2,0,4.6c0,4.3,0.1,8.7-0.1,13
			c0,0.9-0.5,2.1-1.1,2.5c-12.5,8.1-25.1,16.1-37.7,24.2C276.7,240,276.5,240.1,276.3,240.2z"/>
		<path class="st0" d="M193.4,115.3c0-9.2,0-18.5,0-28c5.3,0,10.5,0,16,0c0,9.3,0,18.6,0,28C204.2,115.3,199,115.3,193.4,115.3z"/>
		<path class="st0" d="M209.5,288c0,9.2,0,18.3,0,27.5c-5.3,0-10.6,0-16.1,0c0-9.2,0-18.3,0-27.5C198.8,288,204,288,209.5,288z"/>
	</g>
</g>
</svg>
