<?xml version="1.0" encoding="utf-8"?>
<!-- Generator: Adobe Illustrator 24.3.0, SVG Export Plug-In . SVG Version: 6.00 Build 0)  -->
<svg version="1.1" id="Layer_1" xmlns="http://www.w3.org/2000/svg" xmlns:xlink="http://www.w3.org/1999/xlink" x="0px" y="0px"
	 width="402.9px" height="402.9px" viewBox="0 0 402.9 402.9" style="enable-background:new 0 0 402.9 402.9;" xml:space="preserve"
	>
<style type="text/css">
	.st0{fill:#0FDAC2;}
	.st1{fill:#0EDBC1;}
</style>
<g>
	<g>
		<path class="st0" d="M288.2,220.3c4.7-8.2,12.7-13.1,21.2-13.1c8.6,0,16.3,4.7,21.1,13c12.9,22.2,25.1,43.4,37,63.9
			c0-0.5,0-1,0-1.5c0-71.3,0-142.5,0-213.8c0-5.2,0-10.5,0-15.8c0-0.3,0-0.5,0-0.7v-1.6c0-3.9-0.7-7.5-2-10.7
			c-2.2-6-6.3-10-12.4-12.2c-0.3-0.1-0.5-0.2-0.8-0.3c0,0,0,0,0,0c-2.9-1.1-6.2-1.7-9.8-1.7h-1.9c-0.1,0-0.2,0-0.3,0
			c-102.6,0-205.2,0-307.8,0c-14.9,0-24.9,10-24.9,24.9c0,77.3,0,154.6,0,231.9c0,17.3,9.2,26.5,26.8,26.5h202.6
			C252.8,281.6,269.8,252.2,288.2,220.3z M119.6,50.7c5.9-0.1,10,4,10.1,9.9c0.1,5.6-4,9.9-9.3,10c-5.7,0.1-10.6-4.8-10.5-10.5
			C110,54.2,113.7,50.7,119.6,50.7z M84.7,50.6c5.4,0,10,4.3,10.3,9.5c0.2,5.1-4.8,10.3-10.1,10.5c-5.2,0.1-9.9-4.4-10.1-9.7
			C74.6,55.3,79.1,50.6,84.7,50.6z M49.7,50.7c5.8,0,10.4,4.4,10.3,9.8c0,5.4-4.8,10-10.3,10c-5.3-0.1-9.8-4.7-9.8-10.1
			C40,54.1,43.5,50.6,49.7,50.7z M41.9,117.6c-6.2,0-7.5-1.8-7.3-7.5c0.4-14.2,0.1-14.2,14.6-14.2c93.9,0,187.8,0,281.7,0v0.1
			c8.8,0.2,9.1,1.8,9.4,12.4c-0.3,9.2-1.5,9.2-13.2,9.2h-140v0C138.8,117.4,90.3,117.3,41.9,117.6z"/>
		<path class="st0" d="M396.4,356.8c-11-19.2-22.1-38.3-33.2-57.5c-14.1-24.5-28.3-48.9-42.4-73.4c-5.7-9.8-17-9.8-22.8,0.1
			c-16,27.7-32.1,55.4-48.1,83.1c-9.2,15.9-18.4,31.8-27.6,47.7c-6.1,10.6-0.3,20.2,11.9,20.2c25,0,50,0,74.9,0c25,0,50,0,74.9,0
			c1.7,0,3.5,0,5.2-0.4C398.2,374.6,401.4,365.5,396.4,356.8z M309.4,253.8c6.1,0,10.1,4.8,9.7,12c-0.3,6.3-0.9,12.5-1.3,18.8
			c0,0,0,0,0,0c-0.6,8.2-1.2,16.4-1.8,24.6c-0.3,3.6-0.5,7.2-0.8,10.7c-0.4,4.5-2.5,6.9-5.9,6.6c-3.9-0.3-5.4-3-5.6-6.6
			c-0.2-3.6-0.5-7.2-0.8-10.8c-1-14.5-2-28.9-3-43.4C299.3,258.6,303.3,253.8,309.4,253.8z M309.4,360.4c-5.4,0-9.7-4.3-9.7-9.7
			c0-5.5,4.1-9.7,9.6-9.7c5.4,0,9.8,4.3,9.8,9.6C319.1,355.9,314.7,360.3,309.4,360.4z"/>
	</g>
</g>
</svg>
