<?xml version="1.0" encoding="utf-8"?>
<!-- Generator: Adobe Illustrator 26.3.0, SVG Export Plug-In . SVG Version: 6.00 Build 0)  -->
<svg version="1.1" id="Layer_1" xmlns="http://www.w3.org/2000/svg" xmlns:xlink="http://www.w3.org/1999/xlink" x="0px" y="0px"
	 viewBox="0 0 340.7 312" style="enable-background:new 0 0 340.7 312;" xml:space="preserve">
<style type="text/css">
	.st0{opacity:0.55;stroke:#7C8599;enable-background:new    ;}
	.st1{opacity:0.35;}
	.st2{fill:none;stroke:#7C8599;}
	.st3{opacity:0.95;}
	.st4{fill:none;}
	.st5{fill:none;stroke:#35F3FF;stroke-width:2.2;stroke-linecap:round;}
	.st6{opacity:0.9;}
	.st7{fill:none;stroke:#35F3FF;stroke-width:2.2;}
	.st8{fill:#35F3FF;}
	.st9{fill:#6B63FF;}
	.st10{enable-background:new    ;}
	.st11{fill:#C6CFDD;}
	.st12{opacity:0.25;fill:#35F3FF;enable-background:new    ;}
	.st13{opacity:0.14;fill:#FF1493;enable-background:new    ;}
</style>
<path class="st0" d="M183.3,113.5l0.6-106.8 M183.3,113.5L280,54.8 M183.3,113.5L306,137.7 M183.3,113.5L266.1,250 M183.3,113.5
	L176,289.7 M183.3,113.5L77.8,246.8 M183.3,113.5L52,136.6 M183.3,113.5L84.7,44.6"/>
<g class="st1">
	<path class="st2" d="M183.9,6.7l96,48.1l26.1,82.9L266.1,250L176,289.7l-98.2-42.9L52,136.6l32.6-92L183.9,6.7z"/>
	<path class="st2" d="M183.8,33.9l71.6,35.8l19.4,61.8L245,215.2l-67.2,29.6l-73.1-32l-19.2-82.1l24.3-68.6L183.8,33.9z"/>
	<path class="st2" d="M183.6,56.9l50.9,25.5l13.8,43.9l-21.1,59.5l-47.8,21l-52-22.7l-13.7-58.4L131,77L183.6,56.9z"/>
	<path class="st2" d="M183.5,76.5l33.3,16.7l9,28.7L212,160.8l-31.2,13.7l-34-14.9l-8.9-38.2l11.3-31.9L183.5,76.5z"/>
	<path class="st2" d="M183.4,92.1l19.2,9.6l5.2,16.6l-8,22.5l-18.1,7.9l-19.7-8.6l-5.2-22.1l6.5-18.4L183.4,92.1z"/>
</g>
<g class="st3">
	<path class="st5" d="M183.9,6.7V42"/>
</g>
<g class="st6">
	<path class="st7" d="M122.9,80.5l37.1,0.3L183.9,42l23.9,38.8l32.4,11.1l-2.6,44.5l-5.9,47.4l-55.1,20.8l-56.4-15.9l-3.2-51.3
		L122.9,80.5"/>
</g>
<circle class="st8" cx="122.9" cy="80.5" r="4.1"/>
<circle class="st8" cx="160.1" cy="80.8" r="4.1"/>
<circle class="st8" cx="183.9" cy="42" r="4.1"/>
<circle class="st8" cx="183.9" cy="6.7" r="4.6"/>
<circle class="st8" cx="207.8" cy="80.8" r="4.1"/>
<circle class="st8" cx="240.2" cy="91.9" r="4.1"/>
<circle class="st8" cx="237.6" cy="136.4" r="4.1"/>
<circle class="st8" cx="231.7" cy="183.8" r="4.1"/>
<circle class="st8" cx="176.6" cy="204.6" r="4.1"/>
<circle class="st8" cx="120.2" cy="188.7" r="4.1"/>
<circle class="st8" cx="117" cy="137.4" r="4.1"/>
<g class="st3">
	<circle class="st9" cx="84.7" cy="44.6" r="4.2"/>
	<circle class="st9" cx="280" cy="54.8" r="4.2"/>
	<circle class="st9" cx="306" cy="137.7" r="4.2"/>
	<circle class="st9" cx="266.1" cy="250" r="4.2"/>
	<circle class="st9" cx="176" cy="289.7" r="4.2"/>
	<circle class="st9" cx="77.8" cy="246.8" r="4.2"/>
	<circle class="st9" cx="52" cy="136.6" r="4.2"/>
</g>
<g class="st6">
	<g class="st10">
		<path class="st11" d="M41.1,23.4c0.7-0.7,1.6-1,2.7-1s2,0.3,2.6,0.9c0.7,0.7,1,1.5,1,2.5h-1.3c-0.1-0.8-0.3-1.3-0.7-1.8
			c-0.4-0.4-1-0.7-1.6-0.7c-0.7,0-1.2,0.3-1.8,0.8c-0.7,0.7-1,1.7-1,3c0,1.3,0.3,2.4,1,3c0.5,0.5,1.1,0.7,1.8,0.7
			c0.7,0,1.3-0.2,1.7-0.6c0.5-0.5,0.8-1.2,0.8-2.2h1.3c0,1.2-0.4,2.2-1.1,2.9c-0.6,0.6-1.5,0.9-2.7,0.9c-1.1,0-2-0.3-2.7-1
			c-0.9-0.9-1.4-2.2-1.4-3.7C39.8,25.6,40.2,24.3,41.1,23.4z"/>
		<path class="st11" d="M53.1,25.6v1.2c-0.1,0-0.3-0.1-0.6-0.1c-0.5,0-1.1,0.2-1.5,0.7c-0.4,0.4-0.7,0.8-0.8,1.3v3.1h-1.1v-6.1h1.1
			v1.5c0.2-0.3,0.4-0.5,0.6-0.8C51.3,25.9,52.1,25.6,53.1,25.6z"/>
		<path class="st11" d="M54.1,22.5h1.1V24h-1.1V22.5z M54.1,25.7h1.1v6.1h-1.1V25.7z"/>
		<path class="st11" d="M57.4,23.6h1.1v2.1h1.9v0.9h-1.9v3.6c0,0.2,0.1,0.4,0.3,0.6c0.1,0.1,0.4,0.2,0.7,0.2c0.5,0,1-0.1,1.4-0.4v1
			c-0.4,0.2-0.8,0.3-1.3,0.3c-0.7,0-1.3-0.2-1.6-0.5c-0.4-0.4-0.5-0.8-0.5-1.2v-3.7h-1.3v-0.9h1.3V23.6z"/>
		<path class="st11" d="M62,22.5h1.1V24H62V22.5z M62,25.7h1.1v6.1H62V25.7z"/>
		<path class="st11" d="M65.5,26.5c0.5-0.5,1.2-0.8,2-0.8c0.9,0,1.5,0.2,2,0.7c0.4,0.4,0.6,0.9,0.7,1.5H69c0-0.3-0.2-0.6-0.4-0.8
			c-0.2-0.2-0.5-0.3-1-0.3s-0.8,0.1-1.1,0.4c-0.4,0.4-0.7,1-0.7,1.8c0,0.7,0.2,1.3,0.6,1.7c0.3,0.3,0.7,0.4,1.1,0.4
			c0.5,0,0.9-0.1,1.2-0.4c0.3-0.3,0.4-0.7,0.4-1.1h1.2c0,0.8-0.3,1.4-0.8,1.9c-0.5,0.5-1.2,0.7-2.1,0.7c-0.8,0-1.4-0.3-1.9-0.8
			c-0.7-0.7-1-1.5-1-2.4C64.6,27.8,64.9,27.1,65.5,26.5z"/>
		<path class="st11" d="M72.5,26.2c0.4-0.4,1-0.6,1.8-0.6c0.9,0,1.6,0.2,2,0.6c0.4,0.4,0.5,0.8,0.5,1.3v3.4c0,0.4,0.1,0.7,0.4,0.9
			h-1.3c-0.1-0.1-0.2-0.4-0.2-0.7c-0.5,0.5-1.2,0.8-2.1,0.8c-0.7,0-1.2-0.2-1.6-0.5c-0.3-0.3-0.5-0.7-0.5-1.1c0-0.5,0.2-0.9,0.5-1.3
			c0.4-0.4,0.9-0.6,1.5-0.7c0.4-0.1,0.8-0.2,1.1-0.3c0.5-0.1,0.8-0.2,1-0.3c0-0.3-0.1-0.5-0.3-0.8s-0.5-0.3-0.9-0.3
			c-0.5,0-0.9,0.1-1.1,0.3c-0.1,0.1-0.3,0.3-0.3,0.6h-1.2C71.9,27,72.1,26.6,72.5,26.2z M75.6,28.7c-0.2,0.1-0.4,0.1-0.6,0.2
			c-0.6,0.1-1.1,0.3-1.4,0.3c-0.3,0.1-0.5,0.2-0.7,0.3c-0.2,0.2-0.3,0.4-0.3,0.6c0,0.3,0.1,0.5,0.3,0.7c0.1,0.1,0.3,0.2,0.7,0.2
			c0.6,0,1.1-0.2,1.5-0.6c0.3-0.3,0.4-0.4,0.4-0.5V28.7z"/>
		<path class="st11" d="M78.6,22.5h1.1v9.4h-1.1V22.5z"/>
		<path class="st11" d="M85.9,22.5h1.7l2.5,7.3l2.5-7.3h1.7v9.4H93v-7.2l-2.5,7.2h-0.9l-2.5-7.2v7.2h-1.3V22.5z"/>
		<path class="st11" d="M96.8,26.4c0.5-0.5,1.2-0.8,2-0.8c0.8,0,1.5,0.3,2,0.8c0.6,0.6,0.9,1.4,0.9,2.4c0,0.9-0.3,1.7-0.9,2.4
			c-0.5,0.5-1.2,0.8-2,0.8c-0.8,0-1.5-0.3-2-0.8c-0.6-0.6-0.9-1.4-0.9-2.4C95.9,27.8,96.2,27,96.8,26.4z M97.7,27
			c-0.4,0.4-0.7,1-0.7,1.8c0,0.7,0.2,1.3,0.6,1.7c0.3,0.3,0.7,0.5,1.1,0.5s0.8-0.2,1.1-0.5c0.4-0.4,0.6-1,0.6-1.7
			c0-0.7-0.2-1.3-0.7-1.8c-0.3-0.3-0.7-0.4-1.1-0.4S98,26.7,97.7,27z"/>
		<path class="st11" d="M107.5,22.5h1.1v9.4h-1.1v-0.8c-0.4,0.6-0.9,0.9-1.6,0.9c-0.8,0-1.4-0.2-1.8-0.7c-0.7-0.7-1-1.5-1-2.5
			c0-1.1,0.3-1.9,0.9-2.5c0.5-0.5,1-0.7,1.7-0.7c0.8,0,1.4,0.3,1.9,0.9V22.5z M104.8,27c-0.4,0.4-0.5,1-0.5,1.8
			c0,0.8,0.2,1.4,0.6,1.8c0.3,0.3,0.6,0.4,0.9,0.4c0.4,0,0.8-0.1,1.1-0.4c0.4-0.4,0.6-1,0.6-1.8s-0.2-1.4-0.7-1.8
			c-0.3-0.3-0.6-0.4-1-0.4C105.5,26.5,105.1,26.7,104.8,27z"/>
		<path class="st11" d="M110.1,25.7h1.1v4.1c0,0.4,0.1,0.8,0.3,1c0.2,0.2,0.4,0.3,0.8,0.3c0.5,0,0.9-0.2,1.3-0.5
			c0.5-0.5,0.8-1.1,0.8-1.7v-3.1h1.1v6.1h-1.1v-1.1c-0.6,0.8-1.3,1.2-2.1,1.2c-0.8,0-1.3-0.2-1.6-0.5s-0.5-0.7-0.5-1.3V25.7z"/>
		<path class="st11" d="M117.3,22.5h1.1v9.4h-1.1V22.5z"/>
		<path class="st11" d="M120.9,26.4c0.5-0.5,1.2-0.8,2-0.8c0.8,0,1.4,0.3,2,0.8c0.5,0.5,0.8,1.3,0.8,2.4h-4.4c0,0.8,0.2,1.3,0.5,1.7
			c0.3,0.3,0.7,0.5,1.3,0.5c0.5,0,0.9-0.1,1.1-0.3c0.3-0.3,0.4-0.5,0.4-0.9h1.2c-0.1,0.7-0.4,1.1-0.7,1.5c-0.5,0.5-1.1,0.7-2,0.7
			c-0.9,0-1.6-0.3-2.1-0.8c-0.6-0.6-0.9-1.4-0.9-2.4S120.2,27,120.9,26.4z M121.7,27c-0.3,0.3-0.4,0.6-0.5,0.9h3.1
			c0-0.4-0.1-0.7-0.4-1c-0.3-0.3-0.6-0.4-1.1-0.4C122.3,26.5,122,26.7,121.7,27z"/>
		<path class="st11" d="M127.6,26.3c0.4-0.4,1.1-0.7,1.9-0.7c0.9,0,1.5,0.2,1.9,0.6c0.4,0.4,0.5,0.8,0.5,1.2h-1.1
			c0-0.3-0.1-0.4-0.2-0.5c-0.2-0.2-0.6-0.3-1.2-0.3c-0.4,0-0.7,0.1-0.9,0.3c-0.2,0.2-0.3,0.4-0.3,0.6c0,0.1,0.1,0.3,0.2,0.4
			c0.1,0.1,0.6,0.3,1.4,0.5c0.5,0.1,0.9,0.2,1.2,0.3c0.3,0.1,0.5,0.2,0.7,0.4c0.3,0.3,0.4,0.6,0.4,1c0,0.4-0.2,0.8-0.5,1.2
			c-0.4,0.4-1.1,0.7-2,0.7c-0.9,0-1.6-0.2-2-0.7c-0.4-0.4-0.5-0.8-0.5-1.4h1.1c0,0.3,0.1,0.6,0.3,0.7c0.3,0.3,0.6,0.4,1.1,0.4
			c0.6,0,1-0.1,1.3-0.3c0.1-0.1,0.2-0.3,0.2-0.5c0-0.1-0.1-0.3-0.3-0.5c-0.1-0.1-0.4-0.3-0.7-0.3c-0.7-0.1-1.1-0.3-1.5-0.4
			c-0.4-0.1-0.7-0.3-0.9-0.4c-0.3-0.3-0.5-0.7-0.5-1C127.1,27,127.3,26.6,127.6,26.3z"/>
	</g>
	<g class="st10">
		<path class="st11" d="M235.8,31.1c0.5-0.5,1.3-0.8,2.4-0.8c1.1,0,2,0.3,2.6,0.9c0.5,0.5,0.8,1.1,0.8,1.8h-1.3
			c0-0.4-0.1-0.8-0.4-1.1c-0.3-0.3-0.8-0.5-1.5-0.5c-0.8,0-1.3,0.1-1.6,0.4c-0.3,0.3-0.4,0.5-0.4,0.9s0.1,0.6,0.2,0.7
			c0.2,0.2,0.5,0.4,1,0.5c0.8,0.4,1.8,0.8,2.8,1.3c0.3,0.1,0.6,0.3,0.8,0.5c0.4,0.4,0.6,0.9,0.6,1.4c0,0.7-0.3,1.3-0.8,1.9
			c-0.5,0.5-1.4,0.8-2.7,0.8c-1.2,0-2.1-0.3-2.8-1c-0.5-0.5-0.7-1.2-0.7-2.1h1.3c0,0.7,0.1,1.1,0.4,1.4c0.4,0.4,1,0.6,1.9,0.6
			c0.8,0,1.3-0.2,1.7-0.5c0.3-0.3,0.4-0.6,0.4-0.9c0-0.3-0.1-0.6-0.3-0.8c-0.2-0.2-0.5-0.4-0.9-0.5c-0.4-0.2-0.8-0.4-1.4-0.7
			c-0.7-0.3-1.2-0.5-1.6-0.7c-0.3-0.1-0.5-0.3-0.8-0.5c-0.3-0.3-0.5-0.8-0.5-1.3C235,32.3,235.3,31.7,235.8,31.1z"/>
		<path class="st11" d="M244,34.4c0.5-0.5,1.2-0.8,2-0.8c0.8,0,1.4,0.3,2,0.8c0.5,0.5,0.8,1.3,0.8,2.4h-4.4c0,0.8,0.2,1.3,0.5,1.7
			c0.3,0.3,0.7,0.5,1.3,0.5c0.5,0,0.9-0.1,1.1-0.3c0.3-0.3,0.4-0.5,0.4-0.9h1.2c-0.1,0.7-0.4,1.1-0.7,1.5c-0.5,0.5-1.1,0.7-2,0.7
			c-0.9,0-1.6-0.3-2.1-0.8c-0.6-0.6-0.9-1.4-0.9-2.4S243.4,35,244,34.4z M244.8,35c-0.3,0.3-0.4,0.6-0.5,0.9h3.1
			c0-0.4-0.1-0.7-0.4-1c-0.3-0.3-0.6-0.4-1.1-0.4C245.5,34.5,245.1,34.7,244.8,35z"/>
		<path class="st11" d="M254.2,33.6v1.2c-0.1,0-0.3-0.1-0.6-0.1c-0.5,0-1.1,0.2-1.5,0.7c-0.4,0.4-0.7,0.8-0.8,1.3v3.1h-1.1v-6.1h1.1
			v1.5c0.2-0.3,0.4-0.5,0.6-0.8C252.5,33.9,253.2,33.6,254.2,33.6z"/>
		<path class="st11" d="M254.5,33.7h1.2l2,4.9l2-4.9h1.2l-2.6,6.2h-1.1L254.5,33.7z"/>
		<path class="st11" d="M262.5,34.4c0.5-0.5,1.2-0.8,2-0.8c0.8,0,1.4,0.3,2,0.8c0.5,0.5,0.8,1.3,0.8,2.4h-4.4c0,0.8,0.2,1.3,0.5,1.7
			c0.3,0.3,0.7,0.5,1.3,0.5c0.5,0,0.9-0.1,1.1-0.3c0.3-0.3,0.4-0.5,0.4-0.9h1.2c-0.1,0.7-0.4,1.1-0.7,1.5c-0.5,0.5-1.1,0.7-2,0.7
			c-0.9,0-1.6-0.3-2.1-0.8c-0.6-0.6-0.9-1.4-0.9-2.4S261.9,35,262.5,34.4z M263.4,35c-0.3,0.3-0.4,0.6-0.5,0.9h3.1
			c0-0.4-0.1-0.7-0.4-1c-0.3-0.3-0.6-0.4-1.1-0.4C264,34.5,263.7,34.7,263.4,35z"/>
		<path class="st11" d="M272.8,33.6v1.2c-0.1,0-0.3-0.1-0.6-0.1c-0.5,0-1.1,0.2-1.5,0.7c-0.4,0.4-0.7,0.8-0.8,1.3v3.1h-1.1v-6.1h1.1
			v1.5c0.2-0.3,0.4-0.5,0.6-0.8C271,33.9,271.8,33.6,272.8,33.6z"/>
		<path class="st11" d="M278.2,30.5h6.3v1h-5v3.1h3.9v1h-3.9v4.2h-1.3V30.5z"/>
		<path class="st11" d="M286.4,34.4c0.5-0.5,1.2-0.8,2-0.8c0.8,0,1.4,0.3,2,0.8c0.5,0.5,0.8,1.3,0.8,2.4h-4.4c0,0.8,0.2,1.3,0.5,1.7
			c0.3,0.3,0.7,0.5,1.3,0.5c0.5,0,0.9-0.1,1.1-0.3c0.3-0.3,0.4-0.5,0.4-0.9h1.2c-0.1,0.7-0.4,1.1-0.7,1.5c-0.5,0.5-1.1,0.7-2,0.7
			c-0.9,0-1.6-0.3-2.1-0.8c-0.6-0.6-0.9-1.4-0.9-2.4S285.8,35,286.4,34.4z M287.2,35c-0.3,0.3-0.4,0.6-0.5,0.9h3.1
			c0-0.4-0.1-0.7-0.4-1c-0.3-0.3-0.6-0.4-1.1-0.4C287.9,34.5,287.5,34.7,287.2,35z"/>
		<path class="st11" d="M293.4,34.4c0.5-0.5,1.2-0.8,2-0.8c0.8,0,1.4,0.3,2,0.8c0.5,0.5,0.8,1.3,0.8,2.4h-4.4c0,0.8,0.2,1.3,0.5,1.7
			c0.3,0.3,0.7,0.5,1.3,0.5c0.5,0,0.9-0.1,1.1-0.3c0.3-0.3,0.4-0.5,0.4-0.9h1.2c-0.1,0.7-0.4,1.1-0.7,1.5c-0.5,0.5-1.1,0.7-2,0.7
			c-0.9,0-1.6-0.3-2.1-0.8c-0.6-0.6-0.9-1.4-0.9-2.4S292.8,35,293.4,34.4z M294.2,35c-0.3,0.3-0.4,0.6-0.5,0.9h3.1
			c0-0.4-0.1-0.7-0.4-1c-0.3-0.3-0.6-0.4-1.1-0.4C294.9,34.5,294.5,34.7,294.2,35z"/>
		<path class="st11" d="M303.9,30.5h1.1v9.4h-1.1v-0.8c-0.4,0.6-0.9,0.9-1.6,0.9c-0.8,0-1.4-0.2-1.8-0.7c-0.7-0.7-1-1.5-1-2.5
			c0-1.1,0.3-1.9,0.9-2.5c0.5-0.5,1-0.7,1.7-0.7c0.8,0,1.4,0.3,1.9,0.9V30.5z M301.3,35c-0.4,0.4-0.5,1-0.5,1.8
			c0,0.8,0.2,1.4,0.6,1.8c0.3,0.3,0.6,0.4,0.9,0.4c0.4,0,0.8-0.1,1.1-0.4c0.4-0.4,0.6-1,0.6-1.8s-0.2-1.4-0.7-1.8
			c-0.3-0.3-0.6-0.4-1-0.4C301.9,34.5,301.6,34.7,301.3,35z"/>
		<path class="st11" d="M306.5,30.5h1.1v3.9c0.5-0.6,1.1-0.9,1.8-0.9c0.7,0,1.3,0.2,1.8,0.7c0.6,0.6,0.9,1.4,0.9,2.5
			c0,1.1-0.3,1.9-0.9,2.5c-0.5,0.5-1.1,0.7-1.9,0.7c-0.8,0-1.4-0.3-1.7-0.9v0.8h-1.1V30.5z M308,35.1c-0.3,0.3-0.5,0.8-0.5,1.4v0.7
			c0,0.5,0.2,1,0.5,1.4c0.3,0.3,0.7,0.5,1.1,0.5c0.4,0,0.7-0.1,0.9-0.4c0.4-0.4,0.6-1,0.6-1.8c0-0.8-0.2-1.4-0.5-1.8
			c-0.3-0.3-0.6-0.4-1-0.4C308.8,34.5,308.4,34.7,308,35.1z"/>
		<path class="st11" d="M314.2,34.2c0.4-0.4,1-0.6,1.8-0.6c0.9,0,1.6,0.2,2,0.6c0.4,0.4,0.5,0.8,0.5,1.3v3.4c0,0.4,0.1,0.7,0.4,0.9
			h-1.3c-0.1-0.1-0.2-0.4-0.2-0.7c-0.5,0.5-1.2,0.8-2.1,0.8c-0.7,0-1.2-0.2-1.6-0.5c-0.3-0.3-0.5-0.7-0.5-1.1c0-0.5,0.2-0.9,0.5-1.3
			c0.4-0.4,0.9-0.6,1.5-0.7c0.4-0.1,0.8-0.2,1.1-0.3c0.5-0.1,0.8-0.2,1-0.3c0-0.3-0.1-0.5-0.3-0.8s-0.5-0.3-0.9-0.3
			c-0.5,0-0.9,0.1-1.1,0.3c-0.1,0.1-0.3,0.3-0.3,0.6h-1.2C313.6,35,313.8,34.6,314.2,34.2z M317.3,36.7c-0.2,0.1-0.4,0.1-0.6,0.2
			c-0.6,0.1-1.1,0.3-1.4,0.3c-0.3,0.1-0.5,0.2-0.7,0.3c-0.2,0.2-0.3,0.4-0.3,0.6c0,0.3,0.1,0.5,0.3,0.7c0.1,0.1,0.3,0.2,0.7,0.2
			c0.6,0,1.1-0.2,1.5-0.6c0.3-0.3,0.4-0.4,0.4-0.5V36.7z"/>
		<path class="st11" d="M320.9,34.5c0.5-0.5,1.2-0.8,2-0.8c0.9,0,1.5,0.2,2,0.7c0.4,0.4,0.6,0.9,0.7,1.5h-1.2c0-0.3-0.2-0.6-0.4-0.8
			c-0.2-0.2-0.5-0.3-1-0.3s-0.8,0.1-1.1,0.4c-0.4,0.4-0.7,1-0.7,1.8c0,0.7,0.2,1.3,0.6,1.7c0.3,0.3,0.7,0.4,1.1,0.4
			c0.5,0,0.9-0.1,1.2-0.4c0.3-0.3,0.4-0.7,0.4-1.1h1.2c0,0.8-0.3,1.4-0.8,1.9c-0.5,0.5-1.2,0.7-2.1,0.7c-0.8,0-1.4-0.3-1.9-0.8
			c-0.7-0.7-1-1.5-1-2.4C320,35.8,320.3,35.1,320.9,34.5z"/>
		<path class="st11" d="M327.1,30.5h1.1v5.9l2.7-2.7h1.4l-2.1,2.1l2.5,4h-1.1l-2.1-3.3l-1.3,1.3v2.1h-1.1V30.5z"/>
	</g>
	<g class="st10">
		<path class="st11" d="M260.1,151.6c0.8-0.8,1.7-1.1,2.8-1.1s2,0.4,2.8,1.1c0.9,0.9,1.3,2.1,1.3,3.6c0,1.4-0.4,2.6-1.1,3.5l0.9,1
			l-0.8,0.8l-0.9-1.1c-0.7,0.4-1.4,0.5-2.1,0.5c-1.1,0-2-0.4-2.8-1.1c-0.9-0.9-1.3-2.1-1.3-3.6S259.3,152.5,260.1,151.6z
			 M264.2,158.5L263,157l0.8-0.7l1.2,1.4c0.4-0.6,0.7-1.4,0.7-2.6c0-1.3-0.3-2.3-0.9-2.9c-0.5-0.5-1.2-0.8-1.9-0.8
			c-0.7,0-1.3,0.3-1.9,0.8c-0.6,0.6-0.9,1.6-0.9,2.9s0.3,2.3,0.9,2.9c0.5,0.5,1.2,0.8,1.9,0.8C263.5,158.9,263.9,158.8,264.2,158.5z
			"/>
		<path class="st11" d="M268.7,153.7h1.1v4.1c0,0.4,0.1,0.8,0.3,1c0.2,0.2,0.4,0.3,0.8,0.3c0.5,0,0.9-0.2,1.3-0.5
			c0.5-0.5,0.8-1.1,0.8-1.7v-3.1h1.1v6.1H273v-1.1c-0.6,0.8-1.3,1.2-2.1,1.2c-0.8,0-1.3-0.2-1.6-0.5s-0.5-0.7-0.5-1.3V153.7z"/>
		<path class="st11" d="M276.4,154.2c0.4-0.4,1-0.6,1.8-0.6c0.9,0,1.6,0.2,2,0.6c0.4,0.4,0.5,0.8,0.5,1.3v3.4c0,0.4,0.1,0.7,0.4,0.9
			h-1.3c-0.1-0.1-0.2-0.4-0.2-0.7c-0.5,0.5-1.2,0.8-2.1,0.8c-0.7,0-1.2-0.2-1.6-0.5c-0.3-0.3-0.5-0.7-0.5-1.1c0-0.5,0.2-0.9,0.5-1.3
			c0.4-0.4,0.9-0.6,1.5-0.7c0.4-0.1,0.8-0.2,1.1-0.3c0.5-0.1,0.8-0.2,1-0.3c0-0.3-0.1-0.5-0.3-0.8s-0.5-0.3-0.9-0.3
			c-0.5,0-0.9,0.1-1.1,0.3c-0.1,0.1-0.3,0.3-0.3,0.6h-1.2C275.8,155,276,154.6,276.4,154.2z M279.5,156.7c-0.2,0.1-0.4,0.1-0.6,0.2
			c-0.6,0.1-1.1,0.3-1.4,0.3c-0.3,0.1-0.5,0.2-0.7,0.3c-0.2,0.2-0.3,0.4-0.3,0.6c0,0.3,0.1,0.5,0.3,0.7c0.1,0.1,0.3,0.2,0.7,0.2
			c0.6,0,1.1-0.2,1.5-0.6c0.3-0.3,0.4-0.4,0.4-0.5V156.7z"/>
		<path class="st11" d="M282.5,150.5h1.1v9.4h-1.1V150.5z"/>
		<path class="st11" d="M285.5,150.5h1.1v1.4h-1.1V150.5z M285.5,153.7h1.1v6.1h-1.1V153.7z"/>
		<path class="st11" d="M288.8,151.6h1.1v2.1h1.9v0.9h-1.9v3.6c0,0.2,0.1,0.4,0.3,0.6c0.1,0.1,0.4,0.2,0.7,0.2c0.5,0,1-0.1,1.4-0.4
			v1c-0.4,0.2-0.8,0.3-1.3,0.3c-0.7,0-1.3-0.2-1.6-0.5c-0.4-0.4-0.5-0.8-0.5-1.2v-3.7h-1.3v-0.9h1.3V151.6z"/>
		<path class="st11" d="M292.5,153.7h1.2l2,4.9l2-4.9h1.2l-2.7,6.6c-0.2,0.5-0.4,0.9-0.7,1.1c-0.3,0.3-0.7,0.4-1.1,0.4
			c-0.5,0-0.8-0.1-1-0.2v-1c0.3,0.1,0.6,0.2,0.9,0.2c0.2,0,0.3-0.1,0.5-0.2c0.1-0.1,0.3-0.3,0.3-0.6L292.5,153.7z"/>
		<path class="st11" d="M305.5,151.4c0.7-0.7,1.6-1,2.7-1s2,0.3,2.6,0.9c0.7,0.7,1,1.5,1,2.5h-1.3c-0.1-0.8-0.3-1.3-0.7-1.8
			c-0.4-0.4-1-0.7-1.6-0.7c-0.7,0-1.2,0.3-1.8,0.8c-0.7,0.7-1,1.7-1,3c0,1.3,0.3,2.4,1,3c0.5,0.5,1.1,0.7,1.8,0.7
			c0.7,0,1.3-0.2,1.7-0.6c0.5-0.5,0.8-1.2,0.8-2.2h1.3c0,1.2-0.4,2.2-1.1,2.9c-0.6,0.6-1.5,0.9-2.7,0.9c-1.1,0-2-0.3-2.7-1
			c-0.9-0.9-1.4-2.2-1.4-3.7C304.1,153.6,304.6,152.3,305.5,151.4z"/>
		<path class="st11" d="M314.2,154.4c0.5-0.5,1.2-0.8,2-0.8c0.8,0,1.5,0.3,2,0.8c0.6,0.6,0.9,1.4,0.9,2.4c0,0.9-0.3,1.7-0.9,2.4
			c-0.5,0.5-1.2,0.8-2,0.8c-0.8,0-1.5-0.3-2-0.8c-0.6-0.6-0.9-1.4-0.9-2.4C313.2,155.8,313.5,155,314.2,154.4z M315.1,155
			c-0.4,0.4-0.7,1-0.7,1.8c0,0.7,0.2,1.3,0.6,1.7c0.3,0.3,0.7,0.5,1.1,0.5s0.8-0.2,1.1-0.5c0.4-0.4,0.6-1,0.6-1.7
			c0-0.7-0.2-1.3-0.7-1.8c-0.3-0.3-0.7-0.4-1.1-0.4S315.4,154.7,315.1,155z"/>
		<path class="st11" d="M321.7,159.8h-1.1v-6.1h1.1v1.1c0.7-0.8,1.3-1.2,2.1-1.2c0.7,0,1.3,0.2,1.8,0.7c0.3,0.3,0.4,0.6,0.4,1v4.5
			h-1.1v-4.2c0-0.3-0.1-0.6-0.3-0.8s-0.5-0.3-0.9-0.3c-0.4,0-0.7,0.2-1.1,0.5c-0.5,0.5-0.8,1.1-0.8,1.8V159.8z"/>
		<path class="st11" d="M328.1,151.6h1.1v2.1h1.9v0.9h-1.9v3.6c0,0.2,0.1,0.4,0.3,0.6c0.1,0.1,0.4,0.2,0.7,0.2c0.5,0,1-0.1,1.4-0.4
			v1c-0.4,0.2-0.8,0.3-1.3,0.3c-0.7,0-1.3-0.2-1.6-0.5c-0.4-0.4-0.5-0.8-0.5-1.2v-3.7h-1.3v-0.9h1.3V151.6z"/>
		<path class="st11" d="M336.5,153.6v1.2c-0.1,0-0.3-0.1-0.6-0.1c-0.5,0-1.1,0.2-1.5,0.7c-0.4,0.4-0.7,0.8-0.8,1.3v3.1h-1.1v-6.1
			h1.1v1.5c0.2-0.3,0.4-0.5,0.6-0.8C334.7,153.9,335.5,153.6,336.5,153.6z"/>
		<path class="st11" d="M338.1,154.4c0.5-0.5,1.2-0.8,2-0.8c0.8,0,1.5,0.3,2,0.8c0.6,0.6,0.9,1.4,0.9,2.4c0,0.9-0.3,1.7-0.9,2.4
			c-0.5,0.5-1.2,0.8-2,0.8c-0.8,0-1.5-0.3-2-0.8c-0.6-0.6-0.9-1.4-0.9-2.4C337.1,155.8,337.4,155,338.1,154.4z M339,155
			c-0.4,0.4-0.7,1-0.7,1.8c0,0.7,0.2,1.3,0.6,1.7c0.3,0.3,0.7,0.5,1.1,0.5s0.8-0.2,1.1-0.5c0.4-0.4,0.6-1,0.6-1.7
			c0-0.7-0.2-1.3-0.7-1.8c-0.3-0.3-0.7-0.4-1.1-0.4S339.3,154.7,339,155z"/>
	</g>
	<g class="st10">
		<path class="st11" d="M231.1,264.4c0.7-0.7,1.6-1,2.7-1s2,0.3,2.6,0.9c0.7,0.7,1,1.5,1,2.5h-1.3c-0.1-0.8-0.3-1.3-0.7-1.8
			c-0.4-0.4-1-0.7-1.6-0.7c-0.7,0-1.2,0.3-1.8,0.8c-0.7,0.7-1,1.7-1,3c0,1.3,0.3,2.4,1,3c0.5,0.5,1.1,0.7,1.8,0.7
			c0.7,0,1.3-0.2,1.7-0.6c0.5-0.5,0.8-1.2,0.8-2.2h1.3c0,1.2-0.4,2.2-1.1,2.9c-0.6,0.6-1.5,0.9-2.7,0.9c-1.1,0-2-0.3-2.7-1
			c-0.9-0.9-1.4-2.2-1.4-3.7C229.8,266.6,230.2,265.3,231.1,264.4z"/>
		<path class="st11" d="M239.8,267.4c0.5-0.5,1.2-0.8,2-0.8c0.8,0,1.5,0.3,2,0.8c0.6,0.6,0.9,1.4,0.9,2.4c0,0.9-0.3,1.7-0.9,2.4
			c-0.5,0.5-1.2,0.8-2,0.8c-0.8,0-1.5-0.3-2-0.8c-0.6-0.6-0.9-1.4-0.9-2.4C238.9,268.8,239.2,268,239.8,267.4z M240.8,268
			c-0.4,0.4-0.7,1-0.7,1.8c0,0.7,0.2,1.3,0.6,1.7c0.3,0.3,0.7,0.5,1.1,0.5s0.8-0.2,1.1-0.5c0.4-0.4,0.6-1,0.6-1.7
			c0-0.7-0.2-1.3-0.7-1.8c-0.3-0.3-0.7-0.4-1.1-0.4S241,267.7,240.8,268z"/>
		<path class="st11" d="M250.5,263.5h1.1v9.4h-1.1v-0.8c-0.4,0.6-0.9,0.9-1.6,0.9c-0.8,0-1.4-0.2-1.8-0.7c-0.7-0.7-1-1.5-1-2.5
			c0-1.1,0.3-1.9,0.9-2.5c0.5-0.5,1-0.7,1.7-0.7c0.8,0,1.4,0.3,1.9,0.9V263.5z M247.9,268c-0.4,0.4-0.5,1-0.5,1.8
			c0,0.8,0.2,1.4,0.6,1.8c0.3,0.3,0.6,0.4,0.9,0.4c0.4,0,0.8-0.1,1.1-0.4c0.4-0.4,0.6-1,0.6-1.8s-0.2-1.4-0.7-1.8
			c-0.3-0.3-0.6-0.4-1-0.4C248.5,267.5,248.2,267.7,247.9,268z"/>
		<path class="st11" d="M253.9,267.4c0.5-0.5,1.2-0.8,2-0.8c0.8,0,1.4,0.3,2,0.8c0.5,0.5,0.8,1.3,0.8,2.4h-4.4
			c0,0.8,0.2,1.3,0.5,1.7c0.3,0.3,0.7,0.5,1.3,0.5c0.5,0,0.9-0.1,1.1-0.3c0.3-0.3,0.4-0.5,0.4-0.9h1.2c-0.1,0.7-0.4,1.1-0.7,1.5
			c-0.5,0.5-1.1,0.7-2,0.7c-0.9,0-1.6-0.3-2.1-0.8c-0.6-0.6-0.9-1.4-0.9-2.4S253.3,268,253.9,267.4z M254.8,268
			c-0.3,0.3-0.4,0.6-0.5,0.9h3.1c0-0.4-0.1-0.7-0.4-1c-0.3-0.3-0.6-0.4-1.1-0.4C255.4,267.5,255,267.7,254.8,268z"/>
		<path class="st11" d="M264.5,263.5h4.4c0.8,0,1.5,0.3,2,0.8c0.5,0.5,0.8,1.2,0.8,2.1c0,0.9-0.2,1.6-0.7,2.1
			c-0.5,0.5-1.1,0.7-2,0.7h-3.1v3.7h-1.3V263.5z M265.8,264.5v3.6h2.8c0.5,0,0.9-0.1,1.2-0.4c0.3-0.3,0.5-0.8,0.5-1.3
			c0-0.6-0.1-1.1-0.4-1.4c-0.3-0.3-0.7-0.5-1.3-0.5H265.8z"/>
		<path class="st11" d="M273.7,267.2c0.4-0.4,1-0.6,1.8-0.6c0.9,0,1.6,0.2,2,0.6c0.4,0.4,0.5,0.8,0.5,1.3v3.4c0,0.4,0.1,0.7,0.4,0.9
			h-1.3c-0.1-0.1-0.2-0.4-0.2-0.7c-0.5,0.5-1.2,0.8-2.1,0.8c-0.7,0-1.2-0.2-1.6-0.5c-0.3-0.3-0.5-0.7-0.5-1.1c0-0.5,0.2-0.9,0.5-1.3
			c0.4-0.4,0.9-0.6,1.5-0.7c0.4-0.1,0.8-0.2,1.1-0.3c0.5-0.1,0.8-0.2,1-0.3c0-0.3-0.1-0.5-0.3-0.8s-0.5-0.3-0.9-0.3
			c-0.5,0-0.9,0.1-1.1,0.3c-0.1,0.1-0.3,0.3-0.3,0.6H273C273.1,268,273.4,267.6,273.7,267.2z M276.9,269.7c-0.2,0.1-0.4,0.1-0.6,0.2
			c-0.6,0.1-1.1,0.3-1.4,0.3c-0.3,0.1-0.5,0.2-0.7,0.3c-0.2,0.2-0.3,0.4-0.3,0.6c0,0.3,0.1,0.5,0.3,0.7c0.1,0.1,0.3,0.2,0.7,0.2
			c0.6,0,1.1-0.2,1.5-0.6c0.3-0.3,0.4-0.4,0.4-0.5V269.7z"/>
		<path class="st11" d="M280.2,264.6h1.1v2.1h1.9v0.9h-1.9v3.6c0,0.2,0.1,0.4,0.3,0.6c0.1,0.1,0.4,0.2,0.7,0.2c0.5,0,1-0.1,1.4-0.4
			v1c-0.4,0.2-0.8,0.3-1.3,0.3c-0.7,0-1.3-0.2-1.6-0.5c-0.4-0.4-0.5-0.8-0.5-1.2v-3.7h-1.3v-0.9h1.3V264.6z"/>
		<path class="st11" d="M285.2,264.6h1.1v2.1h1.9v0.9h-1.9v3.6c0,0.2,0.1,0.4,0.3,0.6c0.1,0.1,0.4,0.2,0.7,0.2c0.5,0,1-0.1,1.4-0.4
			v1c-0.4,0.2-0.8,0.3-1.3,0.3c-0.7,0-1.3-0.2-1.6-0.5c-0.4-0.4-0.5-0.8-0.5-1.2v-3.7h-1.3v-0.9h1.3V264.6z"/>
		<path class="st11" d="M290.4,267.4c0.5-0.5,1.2-0.8,2-0.8c0.8,0,1.4,0.3,2,0.8c0.5,0.5,0.8,1.3,0.8,2.4h-4.4
			c0,0.8,0.2,1.3,0.5,1.7c0.3,0.3,0.7,0.5,1.3,0.5c0.5,0,0.9-0.1,1.1-0.3c0.3-0.3,0.4-0.5,0.4-0.9h1.2c-0.1,0.7-0.4,1.1-0.7,1.5
			c-0.5,0.5-1.1,0.7-2,0.7c-0.9,0-1.6-0.3-2.1-0.8c-0.6-0.6-0.9-1.4-0.9-2.4S289.7,268,290.4,267.4z M291.2,268
			c-0.3,0.3-0.4,0.6-0.5,0.9h3.1c0-0.4-0.1-0.7-0.4-1c-0.3-0.3-0.6-0.4-1.1-0.4C291.8,267.5,291.5,267.7,291.2,268z"/>
		<path class="st11" d="M300.6,266.6v1.2c-0.1,0-0.3-0.1-0.6-0.1c-0.5,0-1.1,0.2-1.5,0.7c-0.4,0.4-0.7,0.8-0.8,1.3v3.1h-1.1v-6.1
			h1.1v1.5c0.2-0.3,0.4-0.5,0.6-0.8C298.8,266.9,299.6,266.6,300.6,266.6z"/>
		<path class="st11" d="M302.6,272.8h-1.1v-6.1h1.1v1.1c0.7-0.8,1.3-1.2,2.1-1.2c0.7,0,1.3,0.2,1.8,0.7c0.3,0.3,0.4,0.6,0.4,1v4.5
			h-1.1v-4.2c0-0.3-0.1-0.6-0.3-0.8s-0.5-0.3-0.9-0.3c-0.4,0-0.7,0.2-1.1,0.5c-0.5,0.5-0.8,1.1-0.8,1.8V272.8z"/>
		<path class="st11" d="M309,267.3c0.4-0.4,1.1-0.7,1.9-0.7c0.9,0,1.5,0.2,1.9,0.6c0.4,0.4,0.5,0.8,0.5,1.2h-1.1
			c0-0.3-0.1-0.4-0.2-0.5c-0.2-0.2-0.6-0.3-1.2-0.3c-0.4,0-0.7,0.1-0.9,0.3c-0.2,0.2-0.3,0.4-0.3,0.6c0,0.1,0.1,0.3,0.2,0.4
			c0.1,0.1,0.6,0.3,1.4,0.5c0.5,0.1,0.9,0.2,1.2,0.3c0.3,0.1,0.5,0.2,0.7,0.4c0.3,0.3,0.4,0.6,0.4,1c0,0.4-0.2,0.8-0.5,1.2
			c-0.4,0.4-1.1,0.7-2,0.7c-0.9,0-1.6-0.2-2-0.7c-0.4-0.4-0.5-0.8-0.5-1.4h1.1c0,0.3,0.1,0.6,0.3,0.7c0.3,0.3,0.6,0.4,1.1,0.4
			c0.6,0,1-0.1,1.3-0.3c0.1-0.1,0.2-0.3,0.2-0.5c0-0.1-0.1-0.3-0.3-0.5c-0.1-0.1-0.4-0.3-0.7-0.3c-0.7-0.1-1.1-0.3-1.5-0.4
			c-0.4-0.1-0.7-0.3-0.9-0.4c-0.3-0.3-0.5-0.7-0.5-1C308.5,268,308.6,267.6,309,267.3z"/>
	</g>
	<g class="st10">
		<path class="st11" d="M145.1,300.4h4.6c0.7,0,1.3,0.2,1.8,0.7c0.5,0.5,0.7,1.1,0.7,2c0,0.8-0.2,1.5-0.7,2
			c-0.3,0.3-0.6,0.4-1.1,0.5l2.1,4.2h-1.4l-2-4h-2.8v4h-1.3V300.4z M146.4,301.5v3.2h3.2c0.4,0,0.7-0.1,0.9-0.4
			c0.3-0.3,0.4-0.7,0.4-1.2c0-0.5-0.1-0.9-0.4-1.2c-0.3-0.3-0.6-0.4-1-0.4H146.4z"/>
		<path class="st11" d="M154.3,304.4c0.5-0.5,1.2-0.8,2-0.8c0.8,0,1.5,0.3,2,0.8c0.6,0.6,0.9,1.4,0.9,2.4c0,0.9-0.3,1.7-0.9,2.4
			c-0.5,0.5-1.2,0.8-2,0.8c-0.8,0-1.5-0.3-2-0.8c-0.6-0.6-0.9-1.4-0.9-2.4C153.4,305.8,153.7,305,154.3,304.4z M155.2,305
			c-0.4,0.4-0.7,1-0.7,1.8c0,0.7,0.2,1.3,0.6,1.7c0.3,0.3,0.7,0.5,1.1,0.5s0.8-0.2,1.1-0.5c0.4-0.4,0.6-1,0.6-1.7
			c0-0.7-0.2-1.3-0.7-1.8c-0.3-0.3-0.7-0.4-1.1-0.4S155.5,304.7,155.2,305z"/>
		<path class="st11" d="M160.6,300.5h1.1v3.9c0.5-0.6,1.1-0.9,1.8-0.9c0.7,0,1.3,0.2,1.8,0.7c0.6,0.6,0.9,1.4,0.9,2.5
			c0,1.1-0.3,1.9-0.9,2.5c-0.5,0.5-1.1,0.7-1.9,0.7c-0.8,0-1.4-0.3-1.7-0.9v0.8h-1.1V300.5z M162.2,305.1c-0.3,0.3-0.5,0.8-0.5,1.4
			v0.7c0,0.5,0.2,1,0.5,1.4c0.3,0.3,0.7,0.5,1.1,0.5c0.4,0,0.7-0.1,0.9-0.4c0.4-0.4,0.6-1,0.6-1.8c0-0.8-0.2-1.4-0.5-1.8
			c-0.3-0.3-0.6-0.4-1-0.4C162.9,304.5,162.5,304.7,162.2,305.1z"/>
		<path class="st11" d="M167.6,303.7h1.1v4.1c0,0.4,0.1,0.8,0.3,1c0.2,0.2,0.4,0.3,0.8,0.3c0.5,0,0.9-0.2,1.3-0.5
			c0.5-0.5,0.8-1.1,0.8-1.7v-3.1h1.1v6.1h-1.1v-1.1c-0.6,0.8-1.3,1.2-2.1,1.2c-0.8,0-1.3-0.2-1.6-0.5s-0.5-0.7-0.5-1.3V303.7z"/>
		<path class="st11" d="M175.1,304.3c0.4-0.4,1.1-0.7,1.9-0.7c0.9,0,1.5,0.2,1.9,0.6c0.4,0.4,0.5,0.8,0.5,1.2h-1.1
			c0-0.3-0.1-0.4-0.2-0.5c-0.2-0.2-0.6-0.3-1.2-0.3c-0.4,0-0.7,0.1-0.9,0.3c-0.2,0.2-0.3,0.4-0.3,0.6c0,0.1,0.1,0.3,0.2,0.4
			c0.1,0.1,0.6,0.3,1.4,0.5c0.5,0.1,0.9,0.2,1.2,0.3c0.3,0.1,0.5,0.2,0.7,0.4c0.3,0.3,0.4,0.6,0.4,1c0,0.4-0.2,0.8-0.5,1.2
			c-0.4,0.4-1.1,0.7-2,0.7c-0.9,0-1.6-0.2-2-0.7c-0.4-0.4-0.5-0.8-0.5-1.4h1.1c0,0.3,0.1,0.6,0.3,0.7c0.3,0.3,0.6,0.4,1.1,0.4
			c0.6,0,1-0.1,1.3-0.3c0.1-0.1,0.2-0.3,0.2-0.5c0-0.1-0.1-0.3-0.3-0.5c-0.1-0.1-0.4-0.3-0.7-0.3c-0.7-0.1-1.1-0.3-1.5-0.4
			c-0.4-0.1-0.7-0.3-0.9-0.4c-0.3-0.3-0.5-0.7-0.5-1C174.6,305,174.8,304.6,175.1,304.3z"/>
		<path class="st11" d="M181.6,301.6h1.1v2.1h1.9v0.9h-1.9v3.6c0,0.2,0.1,0.4,0.3,0.6c0.1,0.1,0.4,0.2,0.7,0.2c0.5,0,1-0.1,1.4-0.4
			v1c-0.4,0.2-0.8,0.3-1.3,0.3c-0.7,0-1.3-0.2-1.6-0.5c-0.4-0.4-0.5-0.8-0.5-1.2v-3.7h-1.3v-0.9h1.3V301.6z"/>
		<path class="st11" d="M187.1,309.8H186v-6.1h1.1v1.1c0.7-0.8,1.3-1.2,2.1-1.2c0.7,0,1.3,0.2,1.8,0.7c0.3,0.3,0.4,0.6,0.4,1v4.5
			h-1.1v-4.2c0-0.3-0.1-0.6-0.3-0.8s-0.5-0.3-0.9-0.3c-0.4,0-0.7,0.2-1.1,0.5c-0.5,0.5-0.8,1.1-0.8,1.8V309.8z"/>
		<path class="st11" d="M193.8,304.4c0.5-0.5,1.2-0.8,2-0.8c0.8,0,1.4,0.3,2,0.8c0.5,0.5,0.8,1.3,0.8,2.4H194c0,0.8,0.2,1.3,0.5,1.7
			c0.3,0.3,0.7,0.5,1.3,0.5c0.5,0,0.9-0.1,1.1-0.3c0.3-0.3,0.4-0.5,0.4-0.9h1.2c-0.1,0.7-0.4,1.1-0.7,1.5c-0.5,0.5-1.1,0.7-2,0.7
			c-0.9,0-1.6-0.3-2.1-0.8c-0.6-0.6-0.9-1.4-0.9-2.4S193.1,305,193.8,304.4z M194.6,305c-0.3,0.3-0.4,0.6-0.5,0.9h3.1
			c0-0.4-0.1-0.7-0.4-1c-0.3-0.3-0.6-0.4-1.1-0.4C195.2,304.5,194.9,304.7,194.6,305z"/>
		<path class="st11" d="M200.5,304.3c0.4-0.4,1.1-0.7,1.9-0.7c0.9,0,1.5,0.2,1.9,0.6c0.4,0.4,0.5,0.8,0.5,1.2h-1.1
			c0-0.3-0.1-0.4-0.2-0.5c-0.2-0.2-0.6-0.3-1.2-0.3c-0.4,0-0.7,0.1-0.9,0.3c-0.2,0.2-0.3,0.4-0.3,0.6c0,0.1,0.1,0.3,0.2,0.4
			c0.1,0.1,0.6,0.3,1.4,0.5c0.5,0.1,0.9,0.2,1.2,0.3c0.3,0.1,0.5,0.2,0.7,0.4c0.3,0.3,0.4,0.6,0.4,1c0,0.4-0.2,0.8-0.5,1.2
			c-0.4,0.4-1.1,0.7-2,0.7c-0.9,0-1.6-0.2-2-0.7c-0.4-0.4-0.5-0.8-0.5-1.4h1.1c0,0.3,0.1,0.6,0.3,0.7c0.3,0.3,0.6,0.4,1.1,0.4
			c0.6,0,1-0.1,1.3-0.3c0.1-0.1,0.2-0.3,0.2-0.5c0-0.1-0.1-0.3-0.3-0.5c-0.1-0.1-0.4-0.3-0.7-0.3c-0.7-0.1-1.1-0.3-1.5-0.4
			c-0.4-0.1-0.7-0.3-0.9-0.4c-0.3-0.3-0.5-0.7-0.5-1C200,305,200.2,304.6,200.5,304.3z"/>
		<path class="st11" d="M206.9,304.3c0.4-0.4,1.1-0.7,1.9-0.7c0.9,0,1.5,0.2,1.9,0.6c0.4,0.4,0.5,0.8,0.5,1.2h-1.1
			c0-0.3-0.1-0.4-0.2-0.5c-0.2-0.2-0.6-0.3-1.2-0.3c-0.4,0-0.7,0.1-0.9,0.3c-0.2,0.2-0.3,0.4-0.3,0.6c0,0.1,0.1,0.3,0.2,0.4
			c0.1,0.1,0.6,0.3,1.4,0.5c0.5,0.1,0.9,0.2,1.2,0.3c0.3,0.1,0.5,0.2,0.7,0.4c0.3,0.3,0.4,0.6,0.4,1c0,0.4-0.2,0.8-0.5,1.2
			c-0.4,0.4-1.1,0.7-2,0.7c-0.9,0-1.6-0.2-2-0.7c-0.4-0.4-0.5-0.8-0.5-1.4h1.1c0,0.3,0.1,0.6,0.3,0.7c0.3,0.3,0.6,0.4,1.1,0.4
			c0.6,0,1-0.1,1.3-0.3c0.1-0.1,0.2-0.3,0.2-0.5c0-0.1-0.1-0.3-0.3-0.5c-0.1-0.1-0.4-0.3-0.7-0.3c-0.7-0.1-1.1-0.3-1.5-0.4
			c-0.4-0.1-0.7-0.3-0.9-0.4c-0.3-0.3-0.5-0.7-0.5-1C206.5,305,206.6,304.6,206.9,304.3z"/>
	</g>
	<g class="st10">
		<path class="st11" d="M46.1,262.5h1.3v8.3h5v1h-6.3V262.5z"/>
		<path class="st11" d="M54.1,266.4c0.5-0.5,1.2-0.8,2-0.8c0.8,0,1.5,0.3,2,0.8c0.6,0.6,0.9,1.4,0.9,2.4c0,0.9-0.3,1.7-0.9,2.4
			c-0.5,0.5-1.2,0.8-2,0.8c-0.8,0-1.5-0.3-2-0.8c-0.6-0.6-0.9-1.4-0.9-2.4C53.1,267.8,53.5,267,54.1,266.4z M55,267
			c-0.4,0.4-0.7,1-0.7,1.8c0,0.7,0.2,1.3,0.6,1.7c0.3,0.3,0.7,0.5,1.1,0.5s0.8-0.2,1.1-0.5c0.4-0.4,0.6-1,0.6-1.7
			c0-0.7-0.2-1.3-0.7-1.8c-0.3-0.3-0.7-0.4-1.1-0.4S55.3,266.7,55,267z"/>
		<path class="st11" d="M61.2,266.2c0.4-0.4,0.9-0.6,1.5-0.6c0.6,0,1.1,0.2,1.5,0.5c0.4-0.4,0.8-0.5,1.3-0.5h0.5v1
			c-0.4-0.2-0.9-0.2-1.5-0.1c0.3,0.3,0.4,0.7,0.4,1.1c0,0.7-0.2,1.2-0.6,1.6c-0.4,0.4-0.9,0.5-1.6,0.5c-0.4,0-0.7-0.1-1.1-0.3
			c-0.2,0.1-0.3,0.3-0.3,0.4c0,0.1,0,0.2,0.1,0.3c0.2,0.2,0.6,0.3,1.3,0.3c0.6,0,1.2,0.1,1.9,0.1c0.4,0.1,0.6,0.2,0.8,0.4
			c0.3,0.3,0.4,0.6,0.4,1c0,0.4-0.1,0.8-0.4,1.1c-0.4,0.4-1.3,0.6-2.6,0.6c-1.1,0-1.9-0.2-2.3-0.6c-0.3-0.3-0.4-0.6-0.4-0.9
			c0-0.3,0.1-0.5,0.3-0.7c0.1-0.1,0.4-0.3,0.7-0.4c-0.1-0.1-0.2-0.2-0.4-0.3c-0.2-0.2-0.3-0.4-0.3-0.7c0-0.4,0.3-0.7,0.8-1
			c-0.4-0.4-0.6-0.9-0.6-1.4C60.6,267.1,60.8,266.6,61.2,266.2z M61.8,271.5c-0.3,0.1-0.4,0.2-0.5,0.3c-0.1,0.1-0.2,0.3-0.2,0.5
			c0,0.2,0.1,0.3,0.2,0.5c0.2,0.2,0.7,0.3,1.4,0.3c1,0,1.6-0.1,1.9-0.4c0.1-0.1,0.2-0.3,0.2-0.4c0-0.1-0.1-0.3-0.2-0.4
			c-0.1-0.1-0.4-0.2-0.8-0.2C63,271.6,62.3,271.6,61.8,271.5z M62.1,266.8c-0.3,0.3-0.4,0.6-0.4,0.9c0,0.4,0.1,0.7,0.3,0.9
			s0.5,0.3,0.8,0.3c0.3,0,0.6-0.1,0.8-0.3c0.2-0.2,0.3-0.5,0.3-0.9c0-0.4-0.1-0.7-0.4-0.9c-0.2-0.2-0.4-0.3-0.8-0.3
			C62.5,266.5,62.2,266.6,62.1,266.8z"/>
		<path class="st11" d="M67,262.5h1.1v1.4H67V262.5z M67,265.7h1.1v6.1H67V265.7z"/>
		<path class="st11" d="M70.6,266.5c0.5-0.5,1.2-0.8,2-0.8c0.9,0,1.5,0.2,2,0.7c0.4,0.4,0.6,0.9,0.7,1.5h-1.2c0-0.3-0.2-0.6-0.4-0.8
			c-0.2-0.2-0.5-0.3-1-0.3s-0.8,0.1-1.1,0.4c-0.4,0.4-0.7,1-0.7,1.8c0,0.7,0.2,1.3,0.6,1.7c0.3,0.3,0.7,0.4,1.1,0.4
			c0.5,0,0.9-0.1,1.2-0.4c0.3-0.3,0.4-0.7,0.4-1.1h1.2c0,0.8-0.3,1.4-0.8,1.9c-0.5,0.5-1.2,0.7-2.1,0.7c-0.8,0-1.4-0.3-1.9-0.8
			c-0.7-0.7-1-1.5-1-2.4C69.7,267.8,70,267.1,70.6,266.5z"/>
		<path class="st11" d="M77.5,266.2c0.4-0.4,1-0.6,1.8-0.6c0.9,0,1.6,0.2,2,0.6c0.4,0.4,0.5,0.8,0.5,1.3v3.4c0,0.4,0.1,0.7,0.4,0.9
			h-1.3c-0.1-0.1-0.2-0.4-0.2-0.7c-0.5,0.5-1.2,0.8-2.1,0.8c-0.7,0-1.2-0.2-1.6-0.5c-0.3-0.3-0.5-0.7-0.5-1.1c0-0.5,0.2-0.9,0.5-1.3
			c0.4-0.4,0.9-0.6,1.5-0.7c0.4-0.1,0.8-0.2,1.1-0.3c0.5-0.1,0.8-0.2,1-0.3c0-0.3-0.1-0.5-0.3-0.8s-0.5-0.3-0.9-0.3
			c-0.5,0-0.9,0.1-1.1,0.3c-0.1,0.1-0.3,0.3-0.3,0.6h-1.2C76.9,267,77.2,266.6,77.5,266.2z M80.7,268.7c-0.2,0.1-0.4,0.1-0.6,0.2
			c-0.6,0.1-1.1,0.3-1.4,0.3c-0.3,0.1-0.5,0.2-0.7,0.3c-0.2,0.2-0.3,0.4-0.3,0.6c0,0.3,0.1,0.5,0.3,0.7c0.1,0.1,0.3,0.2,0.7,0.2
			c0.6,0,1.1-0.2,1.5-0.6c0.3-0.3,0.4-0.4,0.4-0.5V268.7z"/>
		<path class="st11" d="M83.7,262.5h1.1v9.4h-1.1V262.5z"/>
		<path class="st11" d="M91,262.5h6.3v1h-5v3.1h3.9v1h-3.9v4.2H91V262.5z"/>
		<path class="st11" d="M98.6,262.5h1.1v9.4h-1.1V262.5z"/>
		<path class="st11" d="M102.1,266.4c0.5-0.5,1.2-0.8,2-0.8c0.8,0,1.5,0.3,2,0.8c0.6,0.6,0.9,1.4,0.9,2.4c0,0.9-0.3,1.7-0.9,2.4
			c-0.5,0.5-1.2,0.8-2,0.8c-0.8,0-1.5-0.3-2-0.8c-0.6-0.6-0.9-1.4-0.9-2.4C101.2,267.8,101.5,267,102.1,266.4z M103.1,267
			c-0.4,0.4-0.7,1-0.7,1.8c0,0.7,0.2,1.3,0.6,1.7c0.3,0.3,0.7,0.5,1.1,0.5s0.8-0.2,1.1-0.5c0.4-0.4,0.6-1,0.6-1.7
			c0-0.7-0.2-1.3-0.7-1.8c-0.3-0.3-0.7-0.4-1.1-0.4S103.4,266.7,103.1,267z"/>
		<path class="st11" d="M107.9,265.7h1.1l1.3,4.6l1.3-4.6h1.2l1.3,4.6l1.3-4.6h1.1l-1.9,6.2h-1l-1.4-5l-1.4,5h-1L107.9,265.7z"/>
	</g>
	<g class="st10">
		<path class="st11" d="M11.8,151.1c0.5-0.5,1.3-0.8,2.4-0.8c1.1,0,2,0.3,2.6,0.9c0.5,0.5,0.8,1.1,0.8,1.8h-1.3
			c0-0.4-0.1-0.8-0.4-1.1c-0.3-0.3-0.8-0.5-1.5-0.5c-0.8,0-1.3,0.1-1.6,0.4c-0.3,0.3-0.4,0.5-0.4,0.9s0.1,0.6,0.2,0.7
			c0.2,0.2,0.5,0.4,1,0.5c0.8,0.4,1.8,0.8,2.8,1.3c0.3,0.1,0.6,0.3,0.8,0.5c0.4,0.4,0.6,0.9,0.6,1.4c0,0.7-0.3,1.3-0.8,1.9
			c-0.5,0.5-1.4,0.8-2.7,0.8c-1.2,0-2.1-0.3-2.8-1c-0.5-0.5-0.7-1.2-0.7-2.1h1.3c0,0.7,0.1,1.1,0.4,1.4c0.4,0.4,1,0.6,1.9,0.6
			c0.8,0,1.3-0.2,1.7-0.5c0.3-0.3,0.4-0.6,0.4-0.9c0-0.3-0.1-0.6-0.3-0.8c-0.2-0.2-0.5-0.4-0.9-0.5c-0.4-0.2-0.8-0.4-1.4-0.7
			c-0.7-0.3-1.2-0.5-1.6-0.7c-0.3-0.1-0.5-0.3-0.8-0.5c-0.3-0.3-0.5-0.8-0.5-1.3C11,152.3,11.3,151.7,11.8,151.1z"/>
		<path class="st11" d="M18.5,153.7h1.2l2,4.9l2-4.9h1.2l-2.7,6.6c-0.2,0.5-0.4,0.9-0.7,1.1c-0.3,0.3-0.7,0.4-1.1,0.4
			c-0.5,0-0.8-0.1-1-0.2v-1c0.3,0.1,0.6,0.2,0.9,0.2c0.2,0,0.3-0.1,0.5-0.2c0.1-0.1,0.3-0.3,0.3-0.6L18.5,153.7z"/>
		<path class="st11" d="M26.4,154.3c0.4-0.4,1.1-0.7,1.9-0.7c0.9,0,1.5,0.2,1.9,0.6c0.4,0.4,0.5,0.8,0.5,1.2h-1.1
			c0-0.3-0.1-0.4-0.2-0.5c-0.2-0.2-0.6-0.3-1.2-0.3c-0.4,0-0.7,0.1-0.9,0.3c-0.2,0.2-0.3,0.4-0.3,0.6c0,0.1,0.1,0.3,0.2,0.4
			c0.1,0.1,0.6,0.3,1.4,0.5c0.5,0.1,0.9,0.2,1.2,0.3c0.3,0.1,0.5,0.2,0.7,0.4c0.3,0.3,0.4,0.6,0.4,1c0,0.4-0.2,0.8-0.5,1.2
			c-0.4,0.4-1.1,0.7-2,0.7c-0.9,0-1.6-0.2-2-0.7c-0.4-0.4-0.5-0.8-0.5-1.4h1.1c0,0.3,0.1,0.6,0.3,0.7c0.3,0.3,0.6,0.4,1.1,0.4
			c0.6,0,1-0.1,1.3-0.3c0.1-0.1,0.2-0.3,0.2-0.5c0-0.1-0.1-0.3-0.3-0.5c-0.1-0.1-0.4-0.3-0.7-0.3c-0.7-0.1-1.1-0.3-1.5-0.4
			c-0.4-0.1-0.7-0.3-0.9-0.4c-0.3-0.3-0.5-0.7-0.5-1C25.9,155,26.1,154.6,26.4,154.3z"/>
		<path class="st11" d="M32.9,151.6H34v2.1h1.9v0.9H34v3.6c0,0.2,0.1,0.4,0.3,0.6c0.1,0.1,0.4,0.2,0.7,0.2c0.5,0,1-0.1,1.4-0.4v1
			c-0.4,0.2-0.8,0.3-1.3,0.3c-0.7,0-1.3-0.2-1.6-0.5c-0.4-0.4-0.5-0.8-0.5-1.2v-3.7h-1.3v-0.9h1.3V151.6z"/>
		<path class="st11" d="M38.1,154.4c0.5-0.5,1.2-0.8,2-0.8c0.8,0,1.4,0.3,2,0.8c0.5,0.5,0.8,1.3,0.8,2.4h-4.4c0,0.8,0.2,1.3,0.5,1.7
			c0.3,0.3,0.7,0.5,1.3,0.5c0.5,0,0.9-0.1,1.1-0.3c0.3-0.3,0.4-0.5,0.4-0.9h1.2c-0.1,0.7-0.4,1.1-0.7,1.5c-0.5,0.5-1.1,0.7-2,0.7
			c-0.9,0-1.6-0.3-2.1-0.8c-0.6-0.6-0.9-1.4-0.9-2.4S37.4,155,38.1,154.4z M38.9,155c-0.3,0.3-0.4,0.6-0.5,0.9h3.1
			c0-0.4-0.1-0.7-0.4-1c-0.3-0.3-0.6-0.4-1.1-0.4C39.5,154.5,39.2,154.7,38.9,155z"/>
		<path class="st11" d="M45.4,159.8h-1.1v-6.1h1.1v0.9c0.5-0.7,1-1,1.6-1c0.7,0,1.2,0.2,1.6,0.5c0.2,0.2,0.3,0.4,0.4,0.6
			c0.5-0.8,1.1-1.1,2-1.1c0.6,0,1,0.2,1.4,0.5c0.4,0.4,0.5,0.8,0.5,1.2v4.5h-1.1v-4.3c0-0.2-0.1-0.4-0.2-0.5
			c-0.2-0.2-0.5-0.3-0.8-0.3c-0.5,0-0.9,0.2-1.3,0.5c-0.3,0.3-0.4,0.6-0.4,0.8v3.9h-1.1v-4.3c0-0.2-0.1-0.4-0.3-0.7
			c-0.2-0.2-0.5-0.3-0.8-0.3c-0.4,0-0.7,0.1-1,0.4c-0.3,0.3-0.5,0.6-0.5,0.9V159.8z"/>
		<path class="st11" d="M58.9,150.5h4.4c0.7,0,1.3,0.2,1.8,0.7c0.4,0.4,0.7,1,0.7,1.8c0,0.6-0.2,1.1-0.6,1.5
			c-0.2,0.2-0.5,0.4-0.8,0.5c0.4,0.1,0.8,0.3,1,0.6c0.4,0.4,0.7,1,0.7,1.6c0,0.8-0.3,1.5-0.8,2c-0.4,0.4-1.1,0.7-2,0.7h-4.3V150.5z
			 M60.2,151.5v2.9h3c0.4,0,0.7-0.1,0.9-0.4c0.3-0.3,0.4-0.7,0.4-1.1c0-0.4-0.1-0.7-0.4-1c-0.2-0.2-0.5-0.3-0.8-0.3H60.2z
			 M60.2,155.5v3.3H63c0.5,0,1-0.1,1.3-0.4c0.3-0.3,0.5-0.7,0.5-1.2c0-0.5-0.1-0.9-0.4-1.2c-0.3-0.3-0.8-0.5-1.3-0.5H60.2z"/>
		<path class="st11" d="M67.9,150.5H69v9.4h-1.1V150.5z"/>
		<path class="st11" d="M70.7,153.7h1.1v4.1c0,0.4,0.1,0.8,0.3,1c0.2,0.2,0.4,0.3,0.8,0.3c0.5,0,0.9-0.2,1.3-0.5
			c0.5-0.5,0.8-1.1,0.8-1.7v-3.1h1.1v6.1H75v-1.1c-0.6,0.8-1.3,1.2-2.1,1.2c-0.8,0-1.3-0.2-1.6-0.5s-0.5-0.7-0.5-1.3V153.7z"/>
		<path class="st11" d="M78.5,154.4c0.5-0.5,1.2-0.8,2-0.8c0.8,0,1.4,0.3,2,0.8c0.5,0.5,0.8,1.3,0.8,2.4h-4.4c0,0.8,0.2,1.3,0.5,1.7
			c0.3,0.3,0.7,0.5,1.3,0.5c0.5,0,0.9-0.1,1.1-0.3c0.3-0.3,0.4-0.5,0.4-0.9h1.2c-0.1,0.7-0.4,1.1-0.7,1.5c-0.5,0.5-1.1,0.7-2,0.7
			c-0.9,0-1.6-0.3-2.1-0.8c-0.6-0.6-0.9-1.4-0.9-2.4S77.8,155,78.5,154.4z M79.3,155c-0.3,0.3-0.4,0.6-0.5,0.9h3.1
			c0-0.4-0.1-0.7-0.4-1c-0.3-0.3-0.6-0.4-1.1-0.4C79.9,154.5,79.6,154.7,79.3,155z"/>
		<path class="st11" d="M85.7,161.9h-1.1v-8.1h1.1v0.7c0.4-0.5,1-0.8,1.7-0.8c0.8,0,1.4,0.2,1.9,0.7c0.6,0.6,0.9,1.4,0.9,2.5
			c0,1.1-0.3,1.9-0.9,2.5c-0.5,0.5-1.1,0.7-1.9,0.7s-1.3-0.3-1.7-0.9V161.9z M86.2,155.1c-0.4,0.4-0.5,0.8-0.5,1.3v0.8
			c0,0.5,0.2,1,0.6,1.4c0.3,0.3,0.7,0.5,1.1,0.5c0.4,0,0.7-0.1,0.9-0.4c0.4-0.4,0.6-1,0.6-1.9c0-0.8-0.2-1.4-0.5-1.8
			c-0.3-0.3-0.6-0.4-1-0.4C86.9,154.6,86.6,154.8,86.2,155.1z"/>
		<path class="st11" d="M95.6,153.6v1.2c-0.1,0-0.3-0.1-0.6-0.1c-0.5,0-1.1,0.2-1.5,0.7c-0.4,0.4-0.7,0.8-0.8,1.3v3.1h-1.1v-6.1h1.1
			v1.5c0.2-0.3,0.4-0.5,0.6-0.8C93.9,153.9,94.7,153.6,95.6,153.6z"/>
		<path class="st11" d="M96.6,150.5h1.1v1.4h-1.1V150.5z M96.6,153.7h1.1v6.1h-1.1V153.7z"/>
		<path class="st11" d="M100.6,159.8h-1.1v-6.1h1.1v1.1c0.7-0.8,1.3-1.2,2.1-1.2c0.7,0,1.3,0.2,1.8,0.7c0.3,0.3,0.4,0.6,0.4,1v4.5
			h-1.1v-4.2c0-0.3-0.1-0.6-0.3-0.8s-0.5-0.3-0.9-0.3c-0.4,0-0.7,0.2-1.1,0.5c-0.5,0.5-0.8,1.1-0.8,1.8V159.8z"/>
		<path class="st11" d="M107,151.6h1.1v2.1h1.9v0.9h-1.9v3.6c0,0.2,0.1,0.4,0.3,0.6c0.1,0.1,0.4,0.2,0.7,0.2c0.5,0,1-0.1,1.4-0.4v1
			c-0.4,0.2-0.8,0.3-1.3,0.3c-0.7,0-1.3-0.2-1.6-0.5c-0.4-0.4-0.5-0.8-0.5-1.2v-3.7h-1.3v-0.9h1.3V151.6z"/>
	</g>
</g>
<path class="st12" d="M122.9,80.5l37.1,0.3L183.9,42l23.9,38.8l32.4,11.1l-2.6,44.5l-5.9,47.4l-55.1,20.8l-56.4-15.9l-3.2-51.3
	L122.9,80.5z"/>
<path class="st13" d="M179.9,149.9c-14.1,0-25.5-11.4-25.5-25.5s11.4-25.5,25.5-25.5s25.5,11.4,25.5,25.5
	C205.5,138.5,194,149.9,179.9,149.9"/>
</svg>
