<?xml version="1.0" encoding="utf-8"?>
<!-- Generator: Adobe Illustrator 26.3.0, SVG Export Plug-In . SVG Version: 6.00 Build 0)  -->
<svg version="1.1" id="Layer_1" xmlns="http://www.w3.org/2000/svg" xmlns:xlink="http://www.w3.org/1999/xlink" x="0px" y="0px"
	 viewBox="0 0 340.7 312" style="enable-background:new 0 0 340.7 312;" xml:space="preserve">
<style type="text/css">
	.st0{opacity:0.55;stroke:#7C8599;enable-background:new    ;}
	.st1{opacity:0.35;}
	.st2{fill:none;stroke:#7C8599;}
	.st3{opacity:0.95;}
	.st4{fill:none;}
	.st5{fill:none;stroke:#35F3FF;stroke-width:2.2;stroke-linecap:round;}
	.st6{opacity:0.9;}
	.st7{fill:none;stroke:#35F3FF;stroke-width:2.2;}
	.st8{fill:#35F3FF;}
	.st9{fill:#6B63FF;}
	.st10{fill:#C6CFDD;}
	.st11{opacity:0.25;fill:#35F3FF;enable-background:new    ;}
	.st12{opacity:0.14;fill:#FF1493;enable-background:new    ;}
</style>
<path class="st0" d="M183.3,113.5l0.6-106.8 M183.3,113.5L280,54.8 M183.3,113.5L306,137.7 M183.3,113.5L266.1,250 M183.3,113.5
	L176,289.7 M183.3,113.5L77.8,246.8 M183.3,113.5L52,136.6 M183.3,113.5L84.7,44.6"/>
<g class="st1">
	<path class="st2" d="M183.9,6.7l96,48.1l26.1,82.9L266.1,250L176,289.7l-98.2-42.9L52,136.6l32.6-92L183.9,6.7z"/>
	<path class="st2" d="M183.8,33.9l71.6,35.8l19.4,61.8L245,215.2l-67.2,29.6l-73.1-32l-19.2-82.1l24.3-68.6L183.8,33.9z"/>
	<path class="st2" d="M183.6,56.9l50.9,25.5l13.8,43.9l-21.1,59.5l-47.8,21l-52-22.7l-13.7-58.4L131,77L183.6,56.9z"/>
	<path class="st2" d="M183.5,76.5l33.3,16.7l9,28.7L212,160.8l-31.2,13.7l-34-14.9l-8.9-38.2l11.3-31.9L183.5,76.5z"/>
	<path class="st2" d="M183.4,92.1l19.2,9.6l5.2,16.6l-8,22.5l-18.1,7.9l-19.7-8.6l-5.2-22.1l6.5-18.4L183.4,92.1z"/>
</g>
<g class="st3">
	<path class="st4" d="M183.9,6.7V42"/>
	<path class="st5" d="M183.9,6.7V42"/>
</g>
<g class="st6">
	<path class="st7" d="M122.9,80.5l37.1,0.3L183.9,42l23.9,38.8l32.4,11.1l-2.6,44.5l-5.9,47.4l-55.1,20.8l-56.4-15.9l-3.2-51.3
		L122.9,80.5"/>
</g>
<circle class="st8" cx="122.9" cy="80.5" r="4.1"/>
<circle class="st8" cx="160.1" cy="80.8" r="4.1"/>
<circle class="st8" cx="183.9" cy="42" r="4.1"/>
<circle class="st8" cx="183.9" cy="6.7" r="4.6"/>
<circle class="st8" cx="207.8" cy="80.8" r="4.1"/>
<circle class="st8" cx="240.2" cy="91.9" r="4.1"/>
<circle class="st8" cx="237.6" cy="136.4" r="4.1"/>
<circle class="st8" cx="231.7" cy="183.8" r="4.1"/>
<circle class="st8" cx="176.6" cy="204.6" r="4.1"/>
<circle class="st8" cx="120.2" cy="188.7" r="4.1"/>
<circle class="st8" cx="117" cy="137.4" r="4.1"/>
<g class="st3">
	<circle class="st9" cx="84.7" cy="44.6" r="4.2"/>
	<circle class="st9" cx="280" cy="54.8" r="4.2"/>
	<circle class="st9" cx="306" cy="137.7" r="4.2"/>
	<circle class="st9" cx="266.1" cy="250" r="4.2"/>
	<circle class="st9" cx="176" cy="289.7" r="4.2"/>
	<circle class="st9" cx="77.8" cy="246.8" r="4.2"/>
	<circle class="st9" cx="52" cy="136.6" r="4.2"/>
</g>
<g class="st6">
	<g>
		<path class="st10" d="M2.9,154.3c0.5,0.3,1.2,0.6,2,0.6c1.2,0,1.8-0.6,1.8-1.5c0-0.8-0.5-1.3-1.7-1.7c-1.4-0.5-2.3-1.2-2.3-2.5
			c0-1.4,1.1-2.4,2.8-2.4c0.9,0,1.5,0.2,1.9,0.4l-0.3,0.9c-0.3-0.2-0.9-0.4-1.7-0.4c-1.2,0-1.7,0.7-1.7,1.3c0,0.8,0.5,1.2,1.7,1.7
			c1.5,0.6,2.2,1.3,2.2,2.6c0,1.4-1,2.5-3.1,2.5c-0.8,0-1.8-0.2-2.2-0.6L2.9,154.3z"/>
		<path class="st10" d="M10.8,147.6v1.8h1.6v0.9h-1.6v3.4c0,0.8,0.2,1.2,0.9,1.2c0.3,0,0.5,0,0.7-0.1l0.1,0.9
			c-0.2,0.1-0.6,0.2-1,0.2c-0.5,0-1-0.2-1.2-0.5c-0.3-0.3-0.4-0.9-0.4-1.6v-3.4h-1v-0.9h1v-1.5L10.8,147.6z"/>
		<path class="st10" d="M13.7,151.4c0-0.7,0-1.4-0.1-2h1l0,1.2h0.1c0.3-0.8,1-1.4,1.7-1.4c0.1,0,0.2,0,0.3,0v1.1c-0.1,0-0.2,0-0.4,0
			c-0.8,0-1.4,0.6-1.5,1.5c0,0.2-0.1,0.3-0.1,0.5v3.4h-1.1V151.4z"/>
		<path class="st10" d="M21.4,155.7l-0.1-0.8h0c-0.4,0.5-1,0.9-1.9,0.9c-1.3,0-1.9-0.9-1.9-1.8c0-1.5,1.4-2.4,3.8-2.3v-0.1
			c0-0.5-0.1-1.5-1.4-1.5c-0.6,0-1.2,0.2-1.6,0.5l-0.3-0.8c0.5-0.3,1.3-0.6,2.1-0.6c1.9,0,2.4,1.3,2.4,2.6v2.4c0,0.5,0,1.1,0.1,1.5
			H21.4z M21.2,152.5c-1.2,0-2.7,0.2-2.7,1.4c0,0.7,0.5,1.1,1.1,1.1c0.8,0,1.3-0.5,1.5-1.1c0-0.1,0.1-0.2,0.1-0.4V152.5z"/>
		<path class="st10" d="M25.5,147.6v1.8h1.6v0.9h-1.6v3.4c0,0.8,0.2,1.2,0.9,1.2c0.3,0,0.5,0,0.7-0.1l0.1,0.9
			c-0.2,0.1-0.6,0.2-1,0.2c-0.5,0-1-0.2-1.2-0.5c-0.3-0.3-0.4-0.9-0.4-1.6v-3.4h-1v-0.9h1v-1.5L25.5,147.6z"/>
		<path class="st10" d="M29,152.8c0,1.5,1,2.2,2.2,2.2c0.8,0,1.3-0.1,1.7-0.3l0.2,0.8c-0.4,0.2-1.1,0.4-2.1,0.4
			c-1.9,0-3.1-1.3-3.1-3.2s1.1-3.4,3-3.4c2.1,0,2.6,1.8,2.6,3c0,0.2,0,0.4,0,0.5H29z M32.3,152c0-0.7-0.3-1.9-1.6-1.9
			c-1.2,0-1.7,1.1-1.8,1.9H32.3z"/>
		<path class="st10" d="M40.3,149.4c0,0.5-0.1,1-0.1,1.7v3.7c0,1.4-0.3,2.3-0.9,2.9c-0.6,0.6-1.5,0.8-2.3,0.8
			c-0.8,0-1.6-0.2-2.1-0.5l0.3-0.9c0.4,0.3,1.1,0.5,1.8,0.5c1.2,0,2-0.6,2-2.2v-0.7h0c-0.4,0.6-1,1.1-2,1.1c-1.6,0-2.7-1.3-2.7-3.1
			c0-2.1,1.4-3.3,2.8-3.3c1.1,0,1.7,0.6,2,1.1h0l0.1-0.9H40.3z M39.1,151.9c0-0.2,0-0.4-0.1-0.5c-0.2-0.7-0.8-1.2-1.6-1.2
			c-1.1,0-1.9,0.9-1.9,2.4c0,1.2,0.6,2.3,1.9,2.3c0.7,0,1.3-0.4,1.6-1.2c0.1-0.2,0.1-0.4,0.1-0.6V151.9z"/>
		<path class="st10" d="M43.3,147.7c0,0.4-0.3,0.7-0.7,0.7c-0.4,0-0.7-0.3-0.7-0.7c0-0.4,0.3-0.7,0.7-0.7
			C43,146.9,43.3,147.3,43.3,147.7z M42,155.7v-6.3h1.1v6.3H42z"/>
		<path class="st10" d="M49.6,155.5c-0.3,0.2-1,0.4-1.8,0.4c-1.9,0-3.1-1.3-3.1-3.2c0-1.9,1.3-3.3,3.4-3.3c0.7,0,1.3,0.2,1.6,0.3
			l-0.3,0.9c-0.3-0.2-0.7-0.3-1.3-0.3c-1.4,0-2.2,1.1-2.2,2.4c0,1.5,0.9,2.4,2.2,2.4c0.7,0,1.1-0.2,1.4-0.3L49.6,155.5z"/>
		<path class="st10" d="M53.7,147.1c0.5-0.1,1.3-0.2,2.2-0.2c1.1,0,1.9,0.3,2.5,0.7c0.5,0.4,0.8,1.1,0.8,1.8c0,0.8-0.2,1.4-0.7,1.9
			c-0.6,0.6-1.6,1-2.7,1c-0.3,0-0.7,0-0.9-0.1v3.5h-1.1V147.1z M54.8,151.3c0.2,0.1,0.6,0.1,0.9,0.1c1.4,0,2.2-0.7,2.2-1.9
			c0-1.2-0.8-1.7-2.1-1.7c-0.5,0-0.9,0-1.1,0.1V151.3z"/>
		<path class="st10" d="M65.7,154c0,0.7,0,1.2,0.1,1.7h-1l-0.1-1h0c-0.3,0.5-1,1.2-2.1,1.2c-1,0-2.2-0.5-2.2-2.8v-3.7h1.1v3.5
			c0,1.2,0.4,2,1.4,2c0.8,0,1.3-0.5,1.5-1c0.1-0.2,0.1-0.4,0.1-0.6v-3.9h1.1V154z"/>
		<path class="st10" d="M67.6,151.4c0-0.7,0-1.4-0.1-2h1l0,1.2h0.1c0.3-0.8,1-1.4,1.7-1.4c0.1,0,0.2,0,0.3,0v1.1c-0.1,0-0.2,0-0.4,0
			c-0.8,0-1.4,0.6-1.5,1.5c0,0.2-0.1,0.3-0.1,0.5v3.4h-1.1V151.4z"/>
		<path class="st10" d="M71.9,151.5c0-0.8,0-1.5-0.1-2.1h1l0.1,1.1h0c0.5-0.8,1.2-1.2,2.2-1.2c1.5,0,2.7,1.3,2.7,3.2
			c0,2.3-1.4,3.4-2.9,3.4c-0.8,0-1.6-0.4-1.9-1h0v3.4h-1.1V151.5z M73,153.2c0,0.2,0,0.3,0.1,0.5c0.2,0.8,0.9,1.3,1.7,1.3
			c1.2,0,1.9-1,1.9-2.4c0-1.3-0.7-2.3-1.9-2.3c-0.8,0-1.5,0.6-1.7,1.4c0,0.1-0.1,0.3-0.1,0.5V153.2z"/>
		<path class="st10" d="M84.9,152.5c0,2.3-1.6,3.3-3.1,3.3c-1.7,0-3-1.2-3-3.2c0-2.1,1.4-3.3,3.1-3.3
			C83.7,149.3,84.9,150.6,84.9,152.5z M80,152.6c0,1.4,0.8,2.4,1.9,2.4c1.1,0,1.9-1,1.9-2.4c0-1.1-0.5-2.4-1.9-2.4
			C80.5,150.1,80,151.4,80,152.6z"/>
		<path class="st10" d="M86.2,154.5c0.3,0.2,0.9,0.5,1.5,0.5c0.8,0,1.2-0.4,1.2-0.9c0-0.5-0.3-0.8-1.2-1.2c-1.1-0.4-1.7-1-1.7-1.8
			c0-1,0.8-1.8,2.2-1.8c0.6,0,1.2,0.2,1.5,0.4l-0.3,0.8c-0.2-0.2-0.7-0.4-1.3-0.4c-0.7,0-1.1,0.4-1.1,0.9c0,0.5,0.4,0.8,1.2,1.1
			c1.1,0.4,1.7,1,1.7,1.9c0,1.1-0.9,1.9-2.4,1.9c-0.7,0-1.3-0.2-1.8-0.4L86.2,154.5z"/>
		<path class="st10" d="M92.2,152.8c0,1.5,1,2.2,2.2,2.2c0.8,0,1.3-0.1,1.7-0.3l0.2,0.8c-0.4,0.2-1.1,0.4-2.1,0.4
			c-1.9,0-3.1-1.3-3.1-3.2s1.1-3.4,3-3.4c2.1,0,2.6,1.8,2.6,3c0,0.2,0,0.4,0,0.5H92.2z M95.5,152c0-0.7-0.3-1.9-1.6-1.9
			c-1.2,0-1.7,1.1-1.8,1.9H95.5z"/>
	</g>
	<g>
		<path class="st10" d="M40.9,262.7c-0.1-1.2-0.1-2.7-0.1-3.8h0c-0.3,1-0.7,2.1-1.1,3.3l-1.5,4.2h-0.9l-1.4-4.2
			c-0.4-1.2-0.8-2.4-1-3.4h0c0,1.1-0.1,2.6-0.2,3.9l-0.2,3.8h-1.1l0.6-8.8h1.4l1.5,4.2c0.4,1.1,0.7,2,0.9,3h0c0.2-0.9,0.5-1.8,0.9-3
			l1.6-4.2h1.4l0.5,8.8h-1.1L40.9,262.7z"/>
		<path class="st10" d="M44.6,263.6c0,1.5,1,2.2,2.2,2.2c0.8,0,1.3-0.1,1.7-0.3l0.2,0.8c-0.4,0.2-1.1,0.4-2.1,0.4
			c-1.9,0-3.1-1.3-3.1-3.2s1.1-3.4,3-3.4c2.1,0,2.6,1.8,2.6,3c0,0.2,0,0.4,0,0.5H44.6z M48,262.8c0-0.7-0.3-1.9-1.6-1.9
			c-1.2,0-1.7,1.1-1.8,1.9H48z"/>
		<path class="st10" d="M50.3,265.4c0.3,0.2,0.9,0.5,1.5,0.5c0.8,0,1.2-0.4,1.2-0.9c0-0.5-0.3-0.8-1.2-1.2c-1.1-0.4-1.7-1-1.7-1.8
			c0-1,0.8-1.8,2.2-1.8c0.6,0,1.2,0.2,1.5,0.4l-0.3,0.8c-0.2-0.2-0.7-0.4-1.3-0.4c-0.7,0-1.1,0.4-1.1,0.9c0,0.5,0.4,0.8,1.2,1.1
			c1.1,0.4,1.7,1,1.7,1.9c0,1.1-0.9,1.9-2.4,1.9c-0.7,0-1.3-0.2-1.8-0.4L50.3,265.4z"/>
		<path class="st10" d="M55.5,265.4c0.3,0.2,0.9,0.5,1.5,0.5c0.8,0,1.2-0.4,1.2-0.9c0-0.5-0.3-0.8-1.2-1.2c-1.1-0.4-1.7-1-1.7-1.8
			c0-1,0.8-1.8,2.2-1.8c0.6,0,1.2,0.2,1.5,0.4l-0.3,0.8c-0.2-0.2-0.7-0.4-1.3-0.4c-0.7,0-1.1,0.4-1.1,0.9c0,0.5,0.4,0.8,1.2,1.1
			c1.1,0.4,1.7,1,1.7,1.9c0,1.1-0.9,1.9-2.4,1.9c-0.7,0-1.3-0.2-1.8-0.4L55.5,265.4z"/>
		<path class="st10" d="M64.3,266.5l-0.1-0.8h0c-0.4,0.5-1,0.9-1.9,0.9c-1.3,0-1.9-0.9-1.9-1.8c0-1.5,1.4-2.4,3.8-2.3v-0.1
			c0-0.5-0.1-1.5-1.4-1.5c-0.6,0-1.2,0.2-1.6,0.5l-0.3-0.8c0.5-0.3,1.3-0.6,2.1-0.6c1.9,0,2.4,1.3,2.4,2.6v2.4c0,0.5,0,1.1,0.1,1.5
			H64.3z M64.1,263.3c-1.2,0-2.7,0.2-2.7,1.4c0,0.7,0.5,1.1,1.1,1.1c0.8,0,1.3-0.5,1.5-1.1c0-0.1,0.1-0.2,0.1-0.4V263.3z"/>
		<path class="st10" d="M72.5,260.2c0,0.5-0.1,1-0.1,1.7v3.7c0,1.4-0.3,2.3-0.9,2.9c-0.6,0.6-1.5,0.8-2.3,0.8
			c-0.8,0-1.6-0.2-2.1-0.5l0.3-0.9c0.4,0.3,1.1,0.5,1.8,0.5c1.2,0,2-0.6,2-2.2v-0.7h0c-0.4,0.6-1,1.1-2,1.1c-1.6,0-2.7-1.3-2.7-3.1
			c0-2.1,1.4-3.3,2.8-3.3c1.1,0,1.7,0.6,2,1.1h0l0.1-0.9H72.5z M71.3,262.7c0-0.2,0-0.4-0.1-0.5c-0.2-0.7-0.8-1.2-1.6-1.2
			c-1.1,0-1.9,0.9-1.9,2.4c0,1.2,0.6,2.3,1.9,2.3c0.7,0,1.3-0.4,1.6-1.2c0.1-0.2,0.1-0.4,0.1-0.6V262.7z"/>
		<path class="st10" d="M75,263.6c0,1.5,1,2.2,2.2,2.2c0.8,0,1.3-0.1,1.7-0.3l0.2,0.8c-0.4,0.2-1.1,0.4-2.1,0.4
			c-1.9,0-3.1-1.3-3.1-3.2s1.1-3.4,3-3.4c2.1,0,2.6,1.8,2.6,3c0,0.2,0,0.4,0,0.5H75z M78.3,262.8c0-0.7-0.3-1.9-1.6-1.9
			c-1.2,0-1.7,1.1-1.8,1.9H78.3z"/>
		<path class="st10" d="M89.7,266.2c-0.4,0.2-1.2,0.4-2.3,0.4c-2.5,0-4.3-1.6-4.3-4.4c0-2.7,1.9-4.6,4.6-4.6c1.1,0,1.8,0.2,2.1,0.4
			l-0.3,0.9c-0.4-0.2-1-0.4-1.8-0.4c-2.1,0-3.4,1.3-3.4,3.6c0,2.1,1.2,3.5,3.4,3.5c0.7,0,1.4-0.1,1.8-0.4L89.7,266.2z"/>
		<path class="st10" d="M91.1,257.3h1.1v9.2h-1.1V257.3z"/>
		<path class="st10" d="M97.7,266.5l-0.1-0.8h0c-0.4,0.5-1,0.9-1.9,0.9c-1.3,0-1.9-0.9-1.9-1.8c0-1.5,1.4-2.4,3.8-2.3v-0.1
			c0-0.5-0.1-1.5-1.4-1.5c-0.6,0-1.2,0.2-1.6,0.5l-0.3-0.8c0.5-0.3,1.3-0.6,2.1-0.6c1.9,0,2.4,1.3,2.4,2.6v2.4c0,0.5,0,1.1,0.1,1.5
			H97.7z M97.5,263.3c-1.2,0-2.7,0.2-2.7,1.4c0,0.7,0.5,1.1,1.1,1.1c0.8,0,1.3-0.5,1.5-1.1c0-0.1,0.1-0.2,0.1-0.4V263.3z"/>
		<path class="st10" d="M100.5,262.2c0-0.7,0-1.4-0.1-2h1l0,1.2h0.1c0.3-0.8,1-1.4,1.7-1.4c0.1,0,0.2,0,0.3,0v1.1
			c-0.1,0-0.2,0-0.4,0c-0.8,0-1.4,0.6-1.5,1.5c0,0.2-0.1,0.3-0.1,0.5v3.4h-1.1V262.2z"/>
		<path class="st10" d="M106,258.5c0,0.4-0.3,0.7-0.7,0.7c-0.4,0-0.7-0.3-0.7-0.7c0-0.4,0.3-0.7,0.7-0.7
			C105.8,257.8,106,258.1,106,258.5z M104.8,266.5v-6.3h1.1v6.3H104.8z"/>
		<path class="st10" d="M109.2,258.4v1.8h1.6v0.9h-1.6v3.4c0,0.8,0.2,1.2,0.9,1.2c0.3,0,0.5,0,0.7-0.1l0.1,0.9
			c-0.2,0.1-0.6,0.2-1,0.2c-0.5,0-1-0.2-1.2-0.5c-0.3-0.3-0.4-0.9-0.4-1.6v-3.4h-1v-0.9h1v-1.5L109.2,258.4z"/>
		<path class="st10" d="M112.6,260.2l1.4,3.7c0.1,0.4,0.3,0.9,0.4,1.3h0c0.1-0.4,0.2-0.9,0.4-1.3l1.2-3.7h1.2l-1.7,4.5
			c-0.8,2.2-1.4,3.3-2.2,3.9c-0.6,0.5-1.1,0.7-1.4,0.7l-0.3-1c0.3-0.1,0.7-0.3,1-0.6c0.3-0.2,0.7-0.7,1-1.3c0.1-0.1,0.1-0.2,0.1-0.3
			c0-0.1,0-0.2-0.1-0.3l-2.3-5.8H112.6z"/>
	</g>
	<g>
		<path class="st10" d="M137.1,309.7c-0.4,0.2-1.2,0.4-2.3,0.4c-2.5,0-4.3-1.6-4.3-4.4c0-2.7,1.9-4.6,4.6-4.6c1.1,0,1.8,0.2,2.1,0.4
			l-0.3,0.9c-0.4-0.2-1-0.4-1.8-0.4c-2.1,0-3.4,1.3-3.4,3.6c0,2.1,1.2,3.5,3.4,3.5c0.7,0,1.4-0.1,1.8-0.4L137.1,309.7z"/>
		<path class="st10" d="M144,306.8c0,2.3-1.6,3.3-3.1,3.3c-1.7,0-3-1.2-3-3.2c0-2.1,1.4-3.3,3.1-3.3
			C142.8,303.5,144,304.9,144,306.8z M139.1,306.8c0,1.4,0.8,2.4,1.9,2.4c1.1,0,1.9-1,1.9-2.4c0-1.1-0.5-2.4-1.9-2.4
			C139.6,304.4,139.1,305.6,139.1,306.8z"/>
		<path class="st10" d="M145.5,305.4c0-0.7,0-1.2-0.1-1.7h1l0.1,1h0c0.3-0.6,1-1.2,2.1-1.2c0.9,0,2.2,0.5,2.2,2.7v3.8h-1.1v-3.6
			c0-1-0.4-1.9-1.5-1.9c-0.8,0-1.3,0.5-1.5,1.2c-0.1,0.1-0.1,0.3-0.1,0.5v3.8h-1.1V305.4z"/>
		<path class="st10" d="M154,301.9v1.8h1.6v0.9H154v3.4c0,0.8,0.2,1.2,0.9,1.2c0.3,0,0.5,0,0.7-0.1l0.1,0.9c-0.2,0.1-0.6,0.2-1,0.2
			c-0.5,0-1-0.2-1.2-0.5c-0.3-0.3-0.4-0.9-0.4-1.6v-3.4h-1v-0.9h1v-1.5L154,301.9z"/>
		<path class="st10" d="M157.5,307c0,1.5,1,2.2,2.2,2.2c0.8,0,1.3-0.1,1.7-0.3l0.2,0.8c-0.4,0.2-1.1,0.4-2.1,0.4
			c-1.9,0-3.1-1.3-3.1-3.2c0-1.9,1.1-3.4,3-3.4c2.1,0,2.6,1.8,2.6,3c0,0.2,0,0.4,0,0.5H157.5z M160.9,306.2c0-0.7-0.3-1.9-1.6-1.9
			c-1.2,0-1.7,1.1-1.8,1.9H160.9z"/>
		<path class="st10" d="M163.4,305.4c0-0.7,0-1.2-0.1-1.7h1l0.1,1h0c0.3-0.6,1-1.2,2.1-1.2c0.9,0,2.2,0.5,2.2,2.7v3.8h-1.1v-3.6
			c0-1-0.4-1.9-1.5-1.9c-0.8,0-1.3,0.5-1.5,1.2c-0.1,0.1-0.1,0.3-0.1,0.5v3.8h-1.1V305.4z"/>
		<path class="st10" d="M171.9,301.9v1.8h1.6v0.9h-1.6v3.4c0,0.8,0.2,1.2,0.9,1.2c0.3,0,0.5,0,0.7-0.1l0.1,0.9
			c-0.2,0.1-0.6,0.2-1,0.2c-0.5,0-1-0.2-1.2-0.5c-0.3-0.3-0.4-0.9-0.4-1.6v-3.4h-1v-0.9h1v-1.5L171.9,301.9z"/>
		<path class="st10" d="M179.1,307.2l-0.9,2.8H177l3-8.8h1.4l3,8.8h-1.2l-0.9-2.8H179.1z M181.9,306.3l-0.9-2.5
			c-0.2-0.6-0.3-1.1-0.5-1.6h0c-0.1,0.5-0.3,1.1-0.4,1.6l-0.9,2.5H181.9z"/>
		<path class="st10" d="M189.9,309.7c-0.3,0.2-1,0.4-1.8,0.4c-1.9,0-3.1-1.3-3.1-3.2c0-1.9,1.3-3.3,3.4-3.3c0.7,0,1.3,0.2,1.6,0.3
			l-0.3,0.9c-0.3-0.2-0.7-0.3-1.3-0.3c-1.4,0-2.2,1.1-2.2,2.4c0,1.5,0.9,2.4,2.2,2.4c0.7,0,1.1-0.2,1.4-0.3L189.9,309.7z"/>
		<path class="st10" d="M195.6,309.7c-0.3,0.2-1,0.4-1.8,0.4c-1.9,0-3.1-1.3-3.1-3.2c0-1.9,1.3-3.3,3.4-3.3c0.7,0,1.3,0.2,1.6,0.3
			l-0.3,0.9c-0.3-0.2-0.7-0.3-1.3-0.3c-1.4,0-2.2,1.1-2.2,2.4c0,1.5,0.9,2.4,2.2,2.4c0.7,0,1.1-0.2,1.4-0.3L195.6,309.7z"/>
		<path class="st10" d="M202.2,308.3c0,0.7,0,1.2,0.1,1.7h-1l-0.1-1h0c-0.3,0.5-1,1.2-2.1,1.2c-1,0-2.2-0.5-2.2-2.8v-3.7h1.1v3.5
			c0,1.2,0.4,2,1.4,2c0.8,0,1.3-0.5,1.5-1c0.1-0.2,0.1-0.4,0.1-0.6v-3.9h1.1V308.3z"/>
		<path class="st10" d="M204.1,305.6c0-0.7,0-1.4-0.1-2h1l0,1.2h0.1c0.3-0.8,1-1.4,1.7-1.4c0.1,0,0.2,0,0.3,0v1.1
			c-0.1,0-0.2,0-0.4,0c-0.8,0-1.4,0.6-1.5,1.5c0,0.2-0.1,0.3-0.1,0.5v3.4h-1.1V305.6z"/>
		<path class="st10" d="M211.8,310l-0.1-0.8h0c-0.4,0.5-1,0.9-1.9,0.9c-1.3,0-1.9-0.9-1.9-1.8c0-1.5,1.4-2.4,3.8-2.3v-0.1
			c0-0.5-0.1-1.5-1.4-1.5c-0.6,0-1.2,0.2-1.6,0.5l-0.3-0.8c0.5-0.3,1.3-0.6,2.1-0.6c1.9,0,2.4,1.3,2.4,2.6v2.4c0,0.5,0,1.1,0.1,1.5
			H211.8z M211.6,306.8c-1.2,0-2.7,0.2-2.7,1.4c0,0.7,0.5,1.1,1.1,1.1c0.8,0,1.3-0.5,1.5-1.1c0-0.1,0.1-0.2,0.1-0.4V306.8z"/>
		<path class="st10" d="M219.1,309.7c-0.3,0.2-1,0.4-1.8,0.4c-1.9,0-3.1-1.3-3.1-3.2c0-1.9,1.3-3.3,3.4-3.3c0.7,0,1.3,0.2,1.6,0.3
			l-0.3,0.9c-0.3-0.2-0.7-0.3-1.3-0.3c-1.4,0-2.2,1.1-2.2,2.4c0,1.5,0.9,2.4,2.2,2.4c0.7,0,1.1-0.2,1.4-0.3L219.1,309.7z"/>
		<path class="st10" d="M221.1,303.7l1.4,3.7c0.1,0.4,0.3,0.9,0.4,1.3h0c0.1-0.4,0.2-0.9,0.4-1.3l1.2-3.7h1.2l-1.7,4.5
			c-0.8,2.2-1.4,3.3-2.2,3.9c-0.6,0.5-1.1,0.7-1.4,0.7l-0.3-1c0.3-0.1,0.7-0.3,1-0.6c0.3-0.2,0.7-0.7,1-1.3c0.1-0.1,0.1-0.2,0.1-0.3
			c0-0.1,0-0.2-0.1-0.3l-2.3-5.8H221.1z"/>
	</g>
	<g>
		<path class="st10" d="M219.6,265.2c0.5,0.3,1.2,0.6,2,0.6c1.2,0,1.8-0.6,1.8-1.5c0-0.8-0.5-1.3-1.7-1.7c-1.4-0.5-2.3-1.2-2.3-2.5
			c0-1.4,1.1-2.4,2.8-2.4c0.9,0,1.5,0.2,1.9,0.4L224,259c-0.3-0.2-0.9-0.4-1.7-0.4c-1.2,0-1.7,0.7-1.7,1.3c0,0.8,0.5,1.2,1.7,1.7
			c1.5,0.6,2.2,1.3,2.2,2.6c0,1.4-1,2.5-3.1,2.5c-0.8,0-1.8-0.2-2.2-0.6L219.6,265.2z"/>
		<path class="st10" d="M227.4,258.5c0,0.4-0.3,0.7-0.7,0.7c-0.4,0-0.7-0.3-0.7-0.7c0-0.4,0.3-0.7,0.7-0.7
			C227.2,257.8,227.4,258.1,227.4,258.5z M226.2,266.5v-6.3h1.1v6.3H226.2z"/>
		<path class="st10" d="M230.6,258.4v1.8h1.6v0.9h-1.6v3.4c0,0.8,0.2,1.2,0.9,1.2c0.3,0,0.5,0,0.7-0.1l0.1,0.9
			c-0.2,0.1-0.6,0.2-1,0.2c-0.5,0-1-0.2-1.2-0.5c-0.3-0.3-0.4-0.9-0.4-1.6v-3.4h-1v-0.9h1v-1.5L230.6,258.4z"/>
		<path class="st10" d="M238.8,264.8c0,0.7,0,1.2,0.1,1.7h-1l-0.1-1h0c-0.3,0.5-1,1.2-2.1,1.2c-1,0-2.2-0.5-2.2-2.8v-3.7h1.1v3.5
			c0,1.2,0.4,2,1.4,2c0.8,0,1.3-0.5,1.5-1c0.1-0.2,0.1-0.4,0.1-0.6v-3.9h1.1V264.8z"/>
		<path class="st10" d="M244.1,266.5l-0.1-0.8h0c-0.4,0.5-1,0.9-1.9,0.9c-1.3,0-1.9-0.9-1.9-1.8c0-1.5,1.4-2.4,3.8-2.3v-0.1
			c0-0.5-0.1-1.5-1.4-1.5c-0.6,0-1.2,0.2-1.6,0.5l-0.3-0.8c0.5-0.3,1.3-0.6,2.1-0.6c1.9,0,2.4,1.3,2.4,2.6v2.4c0,0.5,0,1.1,0.1,1.5
			H244.1z M244,263.3c-1.2,0-2.7,0.2-2.7,1.4c0,0.7,0.5,1.1,1.1,1.1c0.8,0,1.3-0.5,1.5-1.1c0-0.1,0.1-0.2,0.1-0.4V263.3z"/>
		<path class="st10" d="M248.3,258.4v1.8h1.6v0.9h-1.6v3.4c0,0.8,0.2,1.2,0.9,1.2c0.3,0,0.5,0,0.7-0.1l0.1,0.9
			c-0.2,0.1-0.6,0.2-1,0.2c-0.5,0-1-0.2-1.2-0.5c-0.3-0.3-0.4-0.9-0.4-1.6v-3.4h-1v-0.9h1v-1.5L248.3,258.4z"/>
		<path class="st10" d="M252.5,258.5c0,0.4-0.3,0.7-0.7,0.7c-0.4,0-0.7-0.3-0.7-0.7c0-0.4,0.3-0.7,0.7-0.7
			C252.2,257.8,252.5,258.1,252.5,258.5z M251.2,266.5v-6.3h1.1v6.3H251.2z"/>
		<path class="st10" d="M259.9,263.3c0,2.3-1.6,3.3-3.1,3.3c-1.7,0-3-1.2-3-3.2c0-2.1,1.4-3.3,3.1-3.3
			C258.7,260.1,259.9,261.4,259.9,263.3z M254.9,263.4c0,1.4,0.8,2.4,1.9,2.4c1.1,0,1.9-1,1.9-2.4c0-1.1-0.5-2.4-1.9-2.4
			C255.5,261,254.9,262.2,254.9,263.4z"/>
		<path class="st10" d="M261.4,261.9c0-0.7,0-1.2-0.1-1.7h1l0.1,1h0c0.3-0.6,1-1.2,2.1-1.2c0.9,0,2.2,0.5,2.2,2.7v3.8h-1.1v-3.6
			c0-1-0.4-1.9-1.5-1.9c-0.8,0-1.3,0.5-1.5,1.2c-0.1,0.1-0.1,0.3-0.1,0.5v3.8h-1.1V261.9z"/>
		<path class="st10" d="M272.1,266.5l-0.1-0.8h0c-0.4,0.5-1,0.9-1.9,0.9c-1.3,0-1.9-0.9-1.9-1.8c0-1.5,1.4-2.4,3.8-2.3v-0.1
			c0-0.5-0.1-1.5-1.4-1.5c-0.6,0-1.2,0.2-1.6,0.5l-0.3-0.8c0.5-0.3,1.3-0.6,2.1-0.6c1.9,0,2.4,1.3,2.4,2.6v2.4c0,0.5,0,1.1,0.1,1.5
			H272.1z M271.9,263.3c-1.2,0-2.7,0.2-2.7,1.4c0,0.7,0.5,1.1,1.1,1.1c0.8,0,1.3-0.5,1.5-1.1c0-0.1,0.1-0.2,0.1-0.4V263.3z"/>
		<path class="st10" d="M274.8,257.3h1.1v9.2h-1.1V257.3z"/>
		<path class="st10" d="M281.8,257.8v8.8h-1.1v-8.8H281.8z"/>
		<path class="st10" d="M283.9,261.9c0-0.7,0-1.2-0.1-1.7h1l0.1,1h0c0.3-0.6,1-1.2,2.1-1.2c0.9,0,2.2,0.5,2.2,2.7v3.8h-1.1v-3.6
			c0-1-0.4-1.9-1.5-1.9c-0.8,0-1.3,0.5-1.5,1.2c-0.1,0.1-0.1,0.3-0.1,0.5v3.8h-1.1V261.9z"/>
		<path class="st10" d="M291,265.4c0.3,0.2,0.9,0.5,1.5,0.5c0.8,0,1.2-0.4,1.2-0.9c0-0.5-0.3-0.8-1.2-1.2c-1.1-0.4-1.7-1-1.7-1.8
			c0-1,0.8-1.8,2.2-1.8c0.6,0,1.2,0.2,1.5,0.4l-0.3,0.8c-0.2-0.2-0.7-0.4-1.3-0.4c-0.7,0-1.1,0.4-1.1,0.9c0,0.5,0.4,0.8,1.2,1.1
			c1.1,0.4,1.7,1,1.7,1.9c0,1.1-0.9,1.9-2.4,1.9c-0.7,0-1.3-0.2-1.8-0.4L291,265.4z"/>
		<path class="st10" d="M297.5,258.5c0,0.4-0.3,0.7-0.7,0.7c-0.4,0-0.7-0.3-0.7-0.7c0-0.4,0.3-0.7,0.7-0.7
			C297.3,257.8,297.5,258.1,297.5,258.5z M296.3,266.5v-6.3h1.1v6.3H296.3z"/>
		<path class="st10" d="M304.7,260.2c0,0.5-0.1,1-0.1,1.7v3.7c0,1.4-0.3,2.3-0.9,2.9c-0.6,0.6-1.5,0.8-2.3,0.8
			c-0.8,0-1.6-0.2-2.1-0.5l0.3-0.9c0.4,0.3,1.1,0.5,1.8,0.5c1.2,0,2-0.6,2-2.2v-0.7h0c-0.4,0.6-1,1.1-2,1.1c-1.6,0-2.7-1.3-2.7-3.1
			c0-2.1,1.4-3.3,2.8-3.3c1.1,0,1.7,0.6,2,1.1h0l0.1-0.9H304.7z M303.5,262.7c0-0.2,0-0.4-0.1-0.5c-0.2-0.7-0.8-1.2-1.6-1.2
			c-1.1,0-1.9,0.9-1.9,2.4c0,1.2,0.6,2.3,1.9,2.3c0.7,0,1.3-0.4,1.6-1.2c0.1-0.2,0.1-0.4,0.1-0.6V262.7z"/>
		<path class="st10" d="M306.6,257.3h1.1v3.9h0c0.2-0.3,0.5-0.6,0.8-0.8c0.3-0.2,0.7-0.3,1.2-0.3c0.8,0,2.2,0.5,2.2,2.7v3.7h-1.1
			v-3.6c0-1-0.4-1.9-1.5-1.9c-0.7,0-1.3,0.5-1.5,1.1c-0.1,0.2-0.1,0.3-0.1,0.5v3.8h-1.1V257.3z"/>
		<path class="st10" d="M315.1,258.4v1.8h1.6v0.9h-1.6v3.4c0,0.8,0.2,1.2,0.9,1.2c0.3,0,0.5,0,0.7-0.1l0.1,0.9
			c-0.2,0.1-0.6,0.2-1,0.2c-0.5,0-1-0.2-1.2-0.5c-0.3-0.3-0.4-0.9-0.4-1.6v-3.4h-1v-0.9h1v-1.5L315.1,258.4z"/>
	</g>
	<g>
		<path class="st10" d="M263,146.4h-2.7v-1h6.5v1h-2.7v7.8H263V146.4z"/>
		<path class="st10" d="M270.4,154.2l-0.1-0.8h0c-0.4,0.5-1,0.9-1.9,0.9c-1.3,0-1.9-0.9-1.9-1.8c0-1.5,1.4-2.4,3.8-2.3v-0.1
			c0-0.5-0.1-1.5-1.4-1.5c-0.6,0-1.2,0.2-1.6,0.5l-0.3-0.8c0.5-0.3,1.3-0.6,2.1-0.6c1.9,0,2.4,1.3,2.4,2.6v2.4c0,0.5,0,1.1,0.1,1.5
			H270.4z M270.3,151c-1.2,0-2.7,0.2-2.7,1.4c0,0.7,0.5,1.1,1.1,1.1c0.8,0,1.3-0.5,1.5-1.1c0-0.1,0.1-0.2,0.1-0.4V151z"/>
		<path class="st10" d="M273.2,149.9c0-0.7,0-1.4-0.1-2h1l0,1.2h0.1c0.3-0.8,1-1.4,1.7-1.4c0.1,0,0.2,0,0.3,0v1.1
			c-0.1,0-0.2,0-0.4,0c-0.8,0-1.4,0.6-1.5,1.5c0,0.2-0.1,0.3-0.1,0.5v3.4h-1.1V149.9z"/>
		<path class="st10" d="M282.8,147.9c0,0.5-0.1,1-0.1,1.7v3.7c0,1.4-0.3,2.3-0.9,2.9c-0.6,0.6-1.5,0.8-2.3,0.8
			c-0.8,0-1.6-0.2-2.1-0.5l0.3-0.9c0.4,0.3,1.1,0.5,1.8,0.5c1.2,0,2-0.6,2-2.2v-0.7h0c-0.4,0.6-1,1.1-2,1.1c-1.6,0-2.7-1.3-2.7-3.1
			c0-2.1,1.4-3.3,2.8-3.3c1.1,0,1.7,0.6,2,1.1h0l0.1-0.9H282.8z M281.6,150.4c0-0.2,0-0.4-0.1-0.5c-0.2-0.7-0.8-1.2-1.6-1.2
			c-1.1,0-1.9,0.9-1.9,2.4c0,1.2,0.6,2.3,1.9,2.3c0.7,0,1.3-0.4,1.6-1.2c0.1-0.2,0.1-0.4,0.1-0.6V150.4z"/>
		<path class="st10" d="M285.3,151.3c0,1.5,1,2.2,2.2,2.2c0.8,0,1.3-0.1,1.7-0.3l0.2,0.8c-0.4,0.2-1.1,0.4-2.1,0.4
			c-1.9,0-3.1-1.3-3.1-3.2c0-1.9,1.1-3.4,3-3.4c2.1,0,2.6,1.8,2.6,3c0,0.2,0,0.4,0,0.5H285.3z M288.6,150.5c0-0.7-0.3-1.9-1.6-1.9
			c-1.2,0-1.7,1.1-1.8,1.9H288.6z"/>
		<path class="st10" d="M292.5,146.1v1.8h1.6v0.9h-1.6v3.4c0,0.8,0.2,1.2,0.9,1.2c0.3,0,0.5,0,0.7-0.1l0.1,0.9
			c-0.2,0.1-0.6,0.2-1,0.2c-0.5,0-1-0.2-1.2-0.5c-0.3-0.3-0.4-0.9-0.4-1.6v-3.4h-1v-0.9h1v-1.5L292.5,146.1z"/>
		<path class="st10" d="M298.2,145.6c0.5-0.1,1.3-0.2,2.2-0.2c1.1,0,1.9,0.3,2.5,0.7c0.5,0.4,0.8,1.1,0.8,1.8c0,0.8-0.2,1.4-0.7,1.9
			c-0.6,0.6-1.6,1-2.7,1c-0.3,0-0.7,0-0.9-0.1v3.5h-1.1V145.6z M299.4,149.8c0.2,0.1,0.6,0.1,0.9,0.1c1.4,0,2.2-0.7,2.2-1.9
			c0-1.2-0.8-1.7-2.1-1.7c-0.5,0-0.9,0-1.1,0.1V149.8z"/>
		<path class="st10" d="M305.4,151.3c0,1.5,1,2.2,2.2,2.2c0.8,0,1.3-0.1,1.7-0.3l0.2,0.8c-0.4,0.2-1.1,0.4-2.1,0.4
			c-1.9,0-3.1-1.3-3.1-3.2c0-1.9,1.1-3.4,3-3.4c2.1,0,2.6,1.8,2.6,3c0,0.2,0,0.4,0,0.5H305.4z M308.8,150.5c0-0.7-0.3-1.9-1.6-1.9
			c-1.2,0-1.7,1.1-1.8,1.9H308.8z"/>
		<path class="st10" d="M311.3,149.9c0-0.7,0-1.4-0.1-2h1l0,1.2h0.1c0.3-0.8,1-1.4,1.7-1.4c0.1,0,0.2,0,0.3,0v1.1
			c-0.1,0-0.2,0-0.4,0c-0.8,0-1.4,0.6-1.5,1.5c0,0.2-0.1,0.3-0.1,0.5v3.4h-1.1V149.9z"/>
		<path class="st10" d="M315.4,153.1c0.3,0.2,0.9,0.5,1.5,0.5c0.8,0,1.2-0.4,1.2-0.9c0-0.5-0.3-0.8-1.2-1.2c-1.1-0.4-1.7-1-1.7-1.8
			c0-1,0.8-1.8,2.2-1.8c0.6,0,1.2,0.2,1.5,0.4l-0.3,0.8c-0.2-0.2-0.7-0.4-1.3-0.4c-0.7,0-1.1,0.4-1.1,0.9c0,0.5,0.4,0.8,1.2,1.1
			c1.1,0.4,1.7,1,1.7,1.9c0,1.1-0.9,1.9-2.4,1.9c-0.7,0-1.3-0.2-1.8-0.4L315.4,153.1z"/>
		<path class="st10" d="M326.4,151c0,2.3-1.6,3.3-3.1,3.3c-1.7,0-3-1.2-3-3.2c0-2.1,1.4-3.3,3.1-3.3
			C325.2,147.8,326.4,149.1,326.4,151z M321.4,151.1c0,1.4,0.8,2.4,1.9,2.4c1.1,0,1.9-1,1.9-2.4c0-1.1-0.5-2.4-1.9-2.4
			C322,148.7,321.4,149.9,321.4,151.1z"/>
		<path class="st10" d="M327.8,149.6c0-0.6,0-1.2-0.1-1.7h1l0.1,1h0c0.3-0.6,1-1.2,2.1-1.2c0.9,0,2.2,0.5,2.2,2.7v3.8h-1.1v-3.6
			c0-1-0.4-1.9-1.5-1.9c-0.8,0-1.3,0.5-1.5,1.2c-0.1,0.1-0.1,0.3-0.1,0.5v3.8h-1.1V149.6z"/>
		<path class="st10" d="M338.5,154.2l-0.1-0.8h0c-0.4,0.5-1,0.9-1.9,0.9c-1.3,0-1.9-0.9-1.9-1.8c0-1.5,1.4-2.4,3.8-2.3v-0.1
			c0-0.5-0.1-1.5-1.4-1.5c-0.6,0-1.2,0.2-1.6,0.5l-0.3-0.8c0.5-0.3,1.3-0.6,2.1-0.6c1.9,0,2.4,1.3,2.4,2.6v2.4c0,0.5,0,1.1,0.1,1.5
			H338.5z M338.4,151c-1.2,0-2.7,0.2-2.7,1.4c0,0.7,0.5,1.1,1.1,1.1c0.8,0,1.3-0.5,1.5-1.1c0-0.1,0.1-0.2,0.1-0.4V151z"/>
	</g>
</g>
<path class="st11" d="M122.9,80.5l37.1,0.3L183.9,42l23.9,38.8l32.4,11.1l-2.6,44.5l-5.9,47.4l-55.1,20.8l-56.4-15.9l-3.2-51.3
	L122.9,80.5z"/>
<path class="st12" d="M179.9,149.9c-14.1,0-25.5-11.4-25.5-25.5s11.4-25.5,25.5-25.5s25.5,11.4,25.5,25.5
	C205.5,138.5,194,149.9,179.9,149.9"/>
<script></script>
<g>
	<path class="st10" d="M51.8,26.5c0.5-0.1,1.3-0.2,2.1-0.2c1.1,0,1.9,0.2,2.4,0.6c0.5,0.3,0.7,0.9,0.7,1.5c0,0.8-0.6,1.6-1.5,1.9v0
		c0.8,0.2,1.8,0.9,1.8,2.2c0,0.8-0.3,1.3-0.7,1.8c-0.6,0.6-1.6,0.8-3,0.8c-0.8,0-1.4-0.1-1.8-0.1V26.5z M53,30.1h1
		c1.2,0,1.9-0.6,1.9-1.5c0-1-0.8-1.4-1.9-1.4c-0.5,0-0.8,0-1,0.1V30.1z M53,34.3c0.2,0,0.5,0.1,0.9,0.1c1.2,0,2.2-0.4,2.2-1.7
		c0-1.2-1-1.7-2.3-1.7H53V34.3z"/>
	<path class="st10" d="M58.8,30.8c0-0.7,0-1.4-0.1-2h1l0,1.2h0.1c0.3-0.8,1-1.4,1.7-1.4c0.1,0,0.2,0,0.3,0v1.1c-0.1,0-0.2,0-0.4,0
		c-0.8,0-1.4,0.6-1.5,1.5c0,0.2-0.1,0.3-0.1,0.5v3.4h-1.1V30.8z"/>
	<path class="st10" d="M66.5,35.2l-0.1-0.8h0c-0.4,0.5-1,0.9-1.9,0.9c-1.3,0-1.9-0.9-1.9-1.8c0-1.5,1.4-2.4,3.8-2.3V31
		c0-0.5-0.1-1.5-1.4-1.5c-0.6,0-1.2,0.2-1.6,0.5L63,29.3c0.5-0.3,1.3-0.6,2.1-0.6c1.9,0,2.4,1.3,2.4,2.6v2.4c0,0.5,0,1.1,0.1,1.5
		H66.5z M66.3,31.9c-1.2,0-2.7,0.2-2.7,1.4c0,0.7,0.5,1.1,1.1,1.1c0.8,0,1.3-0.5,1.5-1.1c0-0.1,0.1-0.2,0.1-0.4V31.9z"/>
	<path class="st10" d="M69.3,30.6c0-0.6,0-1.2-0.1-1.7h1l0.1,1h0c0.3-0.6,1-1.2,2.1-1.2c0.9,0,2.2,0.5,2.2,2.7v3.8h-1.1v-3.6
		c0-1-0.4-1.9-1.5-1.9c-0.8,0-1.3,0.5-1.5,1.2c-0.1,0.1-0.1,0.3-0.1,0.5v3.8h-1.1V30.6z"/>
	<path class="st10" d="M81.9,25.9v7.6c0,0.6,0,1.2,0.1,1.6h-1l-0.1-1.1h0c-0.4,0.7-1.1,1.2-2.1,1.2c-1.5,0-2.7-1.3-2.7-3.2
		c0-2.1,1.3-3.4,2.8-3.4c1,0,1.6,0.5,1.9,1h0v-3.8H81.9z M80.8,31.4c0-0.1,0-0.3-0.1-0.5c-0.2-0.7-0.8-1.3-1.7-1.3
		c-1.2,0-1.9,1-1.9,2.4c0,1.3,0.6,2.3,1.9,2.3c0.8,0,1.5-0.5,1.7-1.4c0-0.2,0.1-0.3,0.1-0.5V31.4z"/>
	<path class="st10" d="M88.1,35.2l-2.9-8.8h1.2l1.4,4.3c0.4,1.2,0.7,2.2,0.9,3.3h0c0.2-1,0.6-2.1,1-3.3l1.5-4.3h1.2l-3.1,8.8H88.1z"
		/>
	<path class="st10" d="M98.7,32c0,2.3-1.6,3.3-3.1,3.3c-1.7,0-3-1.2-3-3.2c0-2.1,1.4-3.3,3.1-3.3C97.4,28.7,98.7,30,98.7,32z
		 M93.7,32c0,1.4,0.8,2.4,1.9,2.4c1.1,0,1.9-1,1.9-2.4c0-1.1-0.5-2.4-1.9-2.4C94.2,29.6,93.7,30.8,93.7,32z"/>
	<path class="st10" d="M101.4,27.1c0,0.4-0.3,0.7-0.7,0.7c-0.4,0-0.7-0.3-0.7-0.7c0-0.4,0.3-0.7,0.7-0.7
		C101.1,26.4,101.4,26.7,101.4,27.1z M100.1,35.2v-6.3h1.1v6.3H100.1z"/>
	<path class="st10" d="M107.6,34.9c-0.3,0.2-1,0.4-1.8,0.4c-1.9,0-3.1-1.3-3.1-3.2c0-1.9,1.3-3.3,3.4-3.3c0.7,0,1.3,0.2,1.6,0.3
		l-0.3,0.9c-0.3-0.2-0.7-0.3-1.3-0.3c-1.4,0-2.2,1.1-2.2,2.4c0,1.5,0.9,2.4,2.2,2.4c0.7,0,1.1-0.2,1.4-0.3L107.6,34.9z"/>
	<path class="st10" d="M109.5,32.2c0,1.5,1,2.2,2.2,2.2c0.8,0,1.3-0.1,1.7-0.3l0.2,0.8c-0.4,0.2-1.1,0.4-2.1,0.4
		c-1.9,0-3.1-1.3-3.1-3.2s1.1-3.4,3-3.4c2.1,0,2.6,1.8,2.6,3c0,0.2,0,0.4,0,0.5H109.5z M112.9,31.4c0-0.7-0.3-1.9-1.6-1.9
		c-1.2,0-1.7,1.1-1.8,1.9H112.9z"/>
</g>
<g>
	<path class="st10" d="M224.8,43.8c-0.4,0.2-1.2,0.4-2.3,0.4c-2.5,0-4.3-1.6-4.3-4.4c0-2.7,1.9-4.6,4.6-4.6c1.1,0,1.8,0.2,2.1,0.4
		l-0.3,0.9c-0.4-0.2-1-0.4-1.8-0.4c-2.1,0-3.4,1.3-3.4,3.6c0,2.1,1.2,3.5,3.4,3.5c0.7,0,1.4-0.1,1.8-0.4L224.8,43.8z"/>
	<path class="st10" d="M229.6,44.1l-0.1-0.8h0c-0.4,0.5-1,0.9-1.9,0.9c-1.3,0-1.9-0.9-1.9-1.8c0-1.5,1.4-2.4,3.8-2.3V40
		c0-0.5-0.1-1.5-1.4-1.5c-0.6,0-1.2,0.2-1.6,0.5l-0.3-0.8c0.5-0.3,1.3-0.6,2.1-0.6c1.9,0,2.4,1.3,2.4,2.6v2.4c0,0.5,0,1.1,0.1,1.5
		H229.6z M229.4,40.9c-1.2,0-2.7,0.2-2.7,1.4c0,0.7,0.5,1.1,1.1,1.1c0.8,0,1.3-0.5,1.5-1.1c0-0.1,0.1-0.2,0.1-0.4V40.9z"/>
	<path class="st10" d="M232.4,39.5c0-0.6,0-1.2-0.1-1.7h1l0.1,1h0c0.4-0.6,0.9-1.2,2-1.2c0.9,0,1.5,0.5,1.8,1.3h0
		c0.2-0.4,0.4-0.6,0.7-0.8c0.4-0.3,0.8-0.4,1.4-0.4c0.8,0,2.1,0.5,2.1,2.7v3.7h-1.1v-3.6c0-1.2-0.4-1.9-1.4-1.9
		c-0.6,0-1.2,0.5-1.4,1c-0.1,0.2-0.1,0.4-0.1,0.6v3.9h-1.1v-3.8c0-1-0.4-1.7-1.3-1.7c-0.7,0-1.2,0.6-1.4,1.1
		c-0.1,0.2-0.1,0.4-0.1,0.6v3.8h-1.1V39.5z"/>
	<path class="st10" d="M243.2,39.9c0-0.8,0-1.5-0.1-2.1h1l0.1,1.1h0c0.5-0.8,1.2-1.2,2.2-1.2c1.5,0,2.7,1.3,2.7,3.2
		c0,2.3-1.4,3.4-2.9,3.4c-0.8,0-1.6-0.4-1.9-1h0v3.4h-1.1V39.9z M244.3,41.5c0,0.2,0,0.3,0.1,0.5c0.2,0.8,0.9,1.3,1.7,1.3
		c1.2,0,1.9-1,1.9-2.4c0-1.3-0.7-2.3-1.9-2.3c-0.8,0-1.5,0.6-1.7,1.4c0,0.1-0.1,0.3-0.1,0.5V41.5z"/>
	<path class="st10" d="M254.1,44.1l-0.1-0.8h0c-0.4,0.5-1,0.9-1.9,0.9c-1.3,0-1.9-0.9-1.9-1.8c0-1.5,1.4-2.4,3.8-2.3V40
		c0-0.5-0.1-1.5-1.4-1.5c-0.6,0-1.2,0.2-1.6,0.5l-0.3-0.8c0.5-0.3,1.3-0.6,2.1-0.6c1.9,0,2.4,1.3,2.4,2.6v2.4c0,0.5,0,1.1,0.1,1.5
		H254.1z M253.9,40.9c-1.2,0-2.7,0.2-2.7,1.4c0,0.7,0.5,1.1,1.1,1.1c0.8,0,1.3-0.5,1.5-1.1c0-0.1,0.1-0.2,0.1-0.4V40.9z"/>
	<path class="st10" d="M258.1,36c0,0.4-0.3,0.7-0.7,0.7c-0.4,0-0.7-0.3-0.7-0.7c0-0.4,0.3-0.7,0.7-0.7
		C257.9,35.3,258.1,35.6,258.1,36z M256.9,44.1v-6.3h1.1v6.3H256.9z"/>
	<path class="st10" d="M265.3,37.8c0,0.5-0.1,1-0.1,1.7v3.7c0,1.4-0.3,2.3-0.9,2.9c-0.6,0.6-1.5,0.8-2.3,0.8c-0.8,0-1.6-0.2-2.1-0.5
		l0.3-0.9c0.4,0.3,1.1,0.5,1.8,0.5c1.2,0,2-0.6,2-2.2V43h0c-0.4,0.6-1,1.1-2,1.1c-1.6,0-2.7-1.3-2.7-3.1c0-2.1,1.4-3.3,2.8-3.3
		c1.1,0,1.7,0.6,2,1.1h0l0.1-0.9H265.3z M264.1,40.3c0-0.2,0-0.4-0.1-0.5c-0.2-0.7-0.8-1.2-1.6-1.2c-1.1,0-1.9,0.9-1.9,2.4
		c0,1.2,0.6,2.3,1.9,2.3c0.7,0,1.3-0.4,1.6-1.2c0.1-0.2,0.1-0.4,0.1-0.6V40.3z"/>
	<path class="st10" d="M267.1,39.5c0-0.6,0-1.2-0.1-1.7h1l0.1,1h0c0.3-0.6,1-1.2,2.1-1.2c0.9,0,2.2,0.5,2.2,2.7v3.8h-1.1v-3.6
		c0-1-0.4-1.9-1.5-1.9c-0.8,0-1.3,0.5-1.5,1.2c-0.1,0.1-0.1,0.3-0.1,0.5v3.8h-1.1V39.5z"/>
	<path class="st10" d="M284.6,39.6c0,3-1.8,4.6-4.1,4.6c-2.3,0-3.9-1.8-3.9-4.4c0-2.8,1.7-4.6,4.1-4.6
		C283.1,35.2,284.6,37,284.6,39.6z M277.8,39.8c0,1.9,1,3.5,2.8,3.5c1.8,0,2.8-1.7,2.8-3.6c0-1.7-0.9-3.6-2.8-3.6
		C278.7,36.1,277.8,37.8,277.8,39.8z"/>
	<path class="st10" d="M286,44.1c0-0.4,0.1-1.1,0.1-1.6v-7.6h1.1v4h0c0.4-0.7,1.1-1.2,2.1-1.2c1.6,0,2.7,1.3,2.7,3.2
		c0,2.2-1.4,3.4-2.8,3.4c-0.9,0-1.6-0.4-2.1-1.2h0l-0.1,1H286z M287.2,41.6c0,0.1,0,0.3,0.1,0.4c0.2,0.8,0.9,1.3,1.7,1.3
		c1.2,0,1.9-1,1.9-2.4c0-1.3-0.6-2.3-1.9-2.3c-0.8,0-1.5,0.5-1.7,1.4c0,0.1-0.1,0.3-0.1,0.5V41.6z"/>
	<path class="st10" d="M291.9,45.9c0.5,0,1-0.2,1.2-0.5c0.3-0.4,0.4-0.9,0.4-2.4v-5.3h1.1v5.7c0,1.2-0.2,2-0.8,2.6
		c-0.5,0.5-1.3,0.7-2,0.7L291.9,45.9z M294.8,36c0,0.4-0.3,0.7-0.7,0.7c-0.4,0-0.7-0.3-0.7-0.7c0-0.4,0.3-0.7,0.7-0.7
		C294.6,35.3,294.8,35.6,294.8,36z"/>
	<path class="st10" d="M297.2,41.2c0,1.5,1,2.2,2.2,2.2c0.8,0,1.3-0.1,1.7-0.3l0.2,0.8c-0.4,0.2-1.1,0.4-2.1,0.4
		c-1.9,0-3.1-1.3-3.1-3.2s1.1-3.4,3-3.4c2.1,0,2.6,1.8,2.6,3c0,0.2,0,0.4,0,0.5H297.2z M300.6,40.3c0-0.7-0.3-1.9-1.6-1.9
		c-1.2,0-1.7,1.1-1.8,1.9H300.6z"/>
	<path class="st10" d="M307.6,43.9c-0.3,0.2-1,0.4-1.8,0.4c-1.9,0-3.1-1.3-3.1-3.2c0-1.9,1.3-3.3,3.4-3.3c0.7,0,1.3,0.2,1.6,0.3
		l-0.3,0.9c-0.3-0.2-0.7-0.3-1.3-0.3c-1.4,0-2.2,1.1-2.2,2.4c0,1.5,0.9,2.4,2.2,2.4c0.7,0,1.1-0.2,1.4-0.3L307.6,43.9z"/>
	<path class="st10" d="M310.5,36v1.8h1.6v0.9h-1.6v3.4c0,0.8,0.2,1.2,0.9,1.2c0.3,0,0.5,0,0.7-0.1l0.1,0.9c-0.2,0.1-0.6,0.2-1,0.2
		c-0.5,0-1-0.2-1.2-0.5c-0.3-0.3-0.4-0.9-0.4-1.6v-3.4h-1v-0.9h1v-1.5L310.5,36z"/>
	<path class="st10" d="M314.7,36c0,0.4-0.3,0.7-0.7,0.7c-0.4,0-0.7-0.3-0.7-0.7c0-0.4,0.3-0.7,0.7-0.7
		C314.4,35.3,314.7,35.6,314.7,36z M313.4,44.1v-6.3h1.1v6.3H313.4z"/>
	<path class="st10" d="M316.9,37.8l1.2,3.5c0.2,0.6,0.4,1.1,0.5,1.6h0c0.1-0.5,0.3-1,0.5-1.6l1.2-3.5h1.2l-2.5,6.3H318l-2.4-6.3
		H316.9z"/>
	<path class="st10" d="M323.2,41.2c0,1.5,1,2.2,2.2,2.2c0.8,0,1.3-0.1,1.7-0.3l0.2,0.8c-0.4,0.2-1.1,0.4-2.1,0.4
		c-1.9,0-3.1-1.3-3.1-3.2s1.1-3.4,3-3.4c2.1,0,2.6,1.8,2.6,3c0,0.2,0,0.4,0,0.5H323.2z M326.5,40.3c0-0.7-0.3-1.9-1.6-1.9
		c-1.2,0-1.7,1.1-1.8,1.9H326.5z"/>
</g>
</svg>
