<?xml version="1.0" encoding="utf-8"?>
<!-- Generator: Adobe Illustrator 24.3.0, SVG Export Plug-In . SVG Version: 6.00 Build 0)  -->
<svg version="1.1" id="Layer_1" xmlns="http://www.w3.org/2000/svg" xmlns:xlink="http://www.w3.org/1999/xlink" x="0px" y="0px"
	 viewBox="0 0 512 512" style="enable-background:new 0 0 512 512;" xml:space="preserve">
<style type="text/css">
	.st0{fill:#0ED1BF;}
</style>
<g>
	<path class="st0" d="M491,248c0,5.7,0,11.3,0,17c-0.3,1.6-0.6,3.2-0.9,4.9c-1.4,10.9-2.2,21.9-4.3,32.6
		c-18.1,93.8-95.3,168.9-189.3,184.5c-10.8,1.8-21.7,2.7-32.6,4c-5.3,0-10.7,0-16,0c-1.6-0.3-3.2-0.7-4.9-0.8
		c-24.6-1.2-48.6-6-71.4-15.4C91.3,441.7,42.3,382.4,25.1,297.1c-2.2-10.9-2.8-22-4.1-33.1c0-5.3,0-10.7,0-16
		c0.3-1.8,0.7-3.6,0.8-5.4c1.3-25.5,6.4-50.2,16.4-73.7c35-81.7,96.5-130.1,184.1-145.1c8.2-1.4,16.5-2,24.7-2.9c5.7,0,11.3,0,17,0
		c1.6,0.3,3.3,0.7,4.9,0.8c26.3,1.4,51.8,6.7,76,17.2C423,73.2,470.6,132.2,487,215.9C489.1,226.5,489.7,237.3,491,248z
		 M277.2,185.7C277.2,185.7,277.2,185.7,277.2,185.7c0-19.3,0.1-38.7-0.1-58c-0.1-12-9.3-20.8-21-20.9c-12-0.1-21.3,8.8-21.3,21
		c-0.1,42.8-0.1,85.6-0.1,128.5c0,5.6,2,10.5,5.9,14.4c21.5,21.6,43,43.2,64.7,64.7c5.8,5.7,13.1,7.3,20.8,4.9
		c15.7-4.7,20.3-23.8,8.5-35.8c-17.8-18.1-35.7-35.9-53.7-53.7c-2.5-2.5-3.8-4.9-3.8-8.7C277.4,223.3,277.2,204.5,277.2,185.7z"/>
</g>
</svg>
