<?xml version="1.0" encoding="utf-8"?>
<!-- Generator: Adobe Illustrator 24.3.0, SVG Export Plug-In . SVG Version: 6.00 Build 0)  -->
<svg version="1.1" id="Layer_1" xmlns="http://www.w3.org/2000/svg" xmlns:xlink="http://www.w3.org/1999/xlink" x="0px" y="0px"
	 viewBox="0 0 512 512" style="enable-background:new 0 0 512 512;" xml:space="preserve">
<style type="text/css">
	.st0{fill:#0ED1BF;}
</style>
<path class="st0" d="M27.6,0.3c1.5,1,2.8,2.1,4.4,3c49.5,26,99,52.1,148.5,78c12.1,6.3,22.1,14.5,26.4,27.9c1.6,5,2.6,10.4,2.6,15.6
	c0.1,113.8,0.2,227.6,0.1,341.4c0,23.4-14.3,40.5-37.2,45.3c-0.6,0.1-1.2,0.6-1.7,0.8c-4.3,0-8.7,0-13,0c-6.5-2.8-13.4-4.9-19.4-8.7
	c-39-24.4-77.8-49.2-116.7-73.9c-8.5-5.4-15-12.6-18.7-22.1c-1.3-3.4-2.1-6.9-3.2-10.4c0-120.7,0-241.3,0-362
	c3.7-15.4,11.4-27.7,26-35C26.3,0.3,26.9,0.3,27.6,0.3z M149.6,256.7c0-9.5,0-19,0-28.5c-0.1-10.1-6.2-16.9-15.1-16.8
	c-8.7,0.1-14.8,6.8-14.9,16.6c-0.1,19-0.1,38,0,57c0,9.7,6.4,16.4,15.1,16.3c8.8-0.1,14.8-6.8,14.9-16.6
	C149.6,275.3,149.6,266,149.6,256.7z"/>
<path class="st0" d="M289.6,0.3c7.1,2.9,15,4.8,21.3,9c12.6,8.4,18.6,21.2,18.6,36.2c0.2,49.5,0.1,98.9,0.1,148.4
	c0,0.6-0.1,1.3-0.3,2.1c-29.8,0-59.4,0-89.7,0c0-1.7,0-3.4,0-5.2c0-21.3,0-42.6,0-64c0-30.6-12.9-54.2-39.7-69
	C165.8,39.2,131.1,21.5,96.7,3.3c-1.7-0.9-3.4-2-5.1-3C157.6,0.3,223.6,0.3,289.6,0.3z"/>
<path class="st0" d="M511.6,260.3c-3.7,3.9-6.9,8.4-11.2,11.5c-33.6,23.7-67.4,47.1-101,70.8c-5.3,3.7-10.5,4.9-16.3,2
	c-5.9-2.9-8.4-7.9-8.4-14.2c-0.1-12.7,0-25.3,0-38c0-1.8,0-3.6,0-6.1c-2.1,0-3.8,0-5.6,0c-37.1,0-74.3,0-111.4,0
	c-12.4,0-18-5.6-18-18c0-8.3,0-16.7,0-25c0.1-11.1,5.9-17,17-17c37.6,0,75.3,0,112.9,0c1.5,0,2.9,0,4.8,0c0.1-1.9,0.2-3.5,0.2-5.1
	c0-12.7,0-25.3,0-38c0-6.7,2.2-12.1,8.5-15.2c6-3,11.4-1.5,16.7,2.3c33.5,23.6,67.2,46.9,100.6,70.5c4.3,3,7.5,7.6,11.2,11.5
	C511.6,254.9,511.6,257.6,511.6,260.3z"/>
<path class="st0" d="M239.8,452.1c0-45.4,0-90.3,0-135.5c29.8,0,59.5,0,89.5,0c0.1,1.1,0.3,2.2,0.3,3.3c0,28.6,0.1,57.3,0,85.9
	c-0.1,22.1-12.6,38.7-33.5,44.7c-3,0.9-6.2,1.5-9.3,1.5C271.2,452.2,255.8,452.1,239.8,452.1z"/>
</svg>
