<?xml version="1.0" encoding="utf-8"?>
<!-- Generator: Adobe Illustrator 24.3.0, SVG Export Plug-In . SVG Version: 6.00 Build 0)  -->
<svg version="1.1" id="Layer_1" xmlns="http://www.w3.org/2000/svg" xmlns:xlink="http://www.w3.org/1999/xlink" x="0px" y="0px"
	 viewBox="0 0 53.5 64.5" style="enable-background:new 0 0 53.5 64.5;" xml:space="preserve">
<style type="text/css">
	.st0{fill:#0FDAC2;}
	.st1{fill:#643BFF;}
</style>
<g>
	<path class="st0" d="M24.9,24.3c0,0-13.8,12.5-7.4,16.6c0,0-4.3,3.2-7.4,2.8C7.2,43.4,3.2,39.2,9,33.1C14.8,27,24.9,24.3,24.9,24.3
		z"/>
	<path class="st0" d="M2.5,63.1c-0.4,0.2,13.8-5.7,11.2-18.2c0,0,1.6-2.8,4.9-2.4c3.5,0.4,9.2,5.5,2,12.6C13.6,62,2.5,63.1,2.5,63.1
		z"/>
	<path class="st1" d="M51.2,1.3c0,0-8.5-0.1-20.9,10.4c0,0-3.4-2.3-6.6,0.1c-3.2,2.4-4.4,3.3-4.4,3.3c2.1-0.3,4.2-0.1,6.2,0.5
		l-1.3,1.9c-0.3,0.4-0.4,0.8-0.4,1.2c0,0.4,0.1,0.9,0.4,1.2l0.8,1.1l0.8,1.1c0.3,0.4,0.6,0.6,1,0.7c0.4,0.1,0.9,0.1,1.3,0l2.2-0.8
		c0,2.1-0.5,4.2-1.3,6.1c0,0,1.2-0.9,4.4-3.3c3.2-2.4,2-6.4,2-6.4C48.9,9.6,51.2,1.3,51.2,1.3z M41.2,12c-0.4,0.3-0.8,0.5-1.3,0.5
		c-0.5,0-1-0.1-1.4-0.3c-0.4-0.2-0.7-0.6-1-1.1c-0.2-0.4-0.3-0.9-0.2-1.4c0.1-0.5,0.3-0.9,0.6-1.3c0.3-0.4,0.7-0.6,1.2-0.7
		s1-0.1,1.4,0.1c0.5,0.2,0.8,0.5,1.1,0.8c0.2,0.3,0.3,0.6,0.4,0.9c0.1,0.3,0.1,0.6,0,1c0,0.3-0.2,0.6-0.3,0.9
		C41.6,11.5,41.4,11.8,41.2,12z"/>
	<path class="st1" d="M20.9,57.2c9.3-6.9,10-14.5,1.8-16.1c-6.2-1.3-12.4-1-12.2-3.5c0.2-3,11.3-11,14.6-13.4
		c-0.3-0.1-0.5-0.3-0.7-0.6l-0.8-1.1l-0.8-1.1c-0.2-0.3-0.4-0.7-0.4-1C19.4,22.1,4.3,32,3.6,38.5c-0.3,3.2,1.2,4.8,9.4,6.4
		c6.3,1.2,9.3,2.1,8.5,4.8C19.8,54.7,2.2,63.2,2.2,63.2S12.1,63.7,20.9,57.2z"/>
</g>
</svg>
