<?xml version="1.0" encoding="utf-8"?>
<!-- Generator: Adobe Illustrator 24.3.0, SVG Export Plug-In . SVG Version: 6.00 Build 0)  -->
<svg version="1.1" id="Layer_1" xmlns="http://www.w3.org/2000/svg" xmlns:xlink="http://www.w3.org/1999/xlink" x="0px" y="0px"
	 width="402.9px" height="402.9px" viewBox="0 0 402.9 402.9" style="enable-background:new 0 0 402.9 402.9;" xml:space="preserve"
	>
<style type="text/css">
	.st0{fill:#0FDAC2;}
	.st1{fill:#0EDBC1;}
</style>
<g>
	<path class="st1" d="M130.3,218.9l58.8,174.8L36.4,218.9H130.3z M140.5,218.9h122l-61,181.1L140.5,218.9z M272.6,218.9h93.8
		L213.8,393.7L272.6,218.9z M368.1,209.2h-95L250,121.9h60.4L368.1,209.2z M240,121.9l23.1,87.3H139.8l23.1-87.3L240,121.9z
		 M92.5,121.9h60.4l-23.1,87.3h-95L92.5,121.9z M188.5,15.9c0-7.2,5.8-13,13-13c7.2,0,13,5.8,13,13v27.8c0,7.2-5.8,13-13,13
		s-13-5.8-13-13V15.9z M99,38.9c5.1-5.1,13.3-5.1,18.3,0c0,0,0,0,0,0L137,58.5c5.1,5.1,5.1,13.3,0,18.4c-5.1,4.9-13.2,4.9-18.4,0
		L99,57.3C93.9,52.2,93.9,44,99,38.9C99,38.9,99,38.9,99,38.9z M265.9,58.5l19.6-19.6c5-5.1,13.2-5.1,18.3-0.1
		c2.5,2.4,3.9,5.8,3.8,9.3c0,3.4-1.4,6.8-3.8,9.2l-19.6,19.6c-5.1,4.9-13.2,4.9-18.4,0C260.8,71.8,260.8,63.6,265.9,58.5z"/>
</g>
</svg>
