<?xml version="1.0" encoding="utf-8"?>
<!-- Generator: Adobe Illustrator 24.3.0, SVG Export Plug-In . SVG Version: 6.00 Build 0)  -->
<svg version="1.1" id="Layer_1" xmlns="http://www.w3.org/2000/svg" xmlns:xlink="http://www.w3.org/1999/xlink" x="0px" y="0px"
	 width="287.6px" height="286px" viewBox="0 0 287.6 286" style="enable-background:new 0 0 287.6 286;" xml:space="preserve">
<style type="text/css">
	.st0{fill:#0FDAC2;}
</style>
<g>
	<g>
		<path class="st0" d="M284.3,42.3c0-22.3-18.2-39.8-39.8-39.8c-22.3,0-39.8,18.2-39.8,39.8c0,22.3,39.8,72.6,39.8,72.6
			S284.3,64.5,284.3,42.3z M224,42.9c0-11.1,8.8-19.9,19.9-19.9c11.1,0,19.9,8.8,19.9,19.9s-8.8,19.9-19.9,19.9
			C233.4,62.8,224,54,224,42.9z M115.7,20.6c-38.6,5.9-72,28.1-91.9,59.7h55.6C87.6,51.6,100.5,30.6,115.7,20.6z"/>
		<path class="st0" d="M244.5,129.5c0,0-49.2-63.2-49.2-87.2c0-2.9,0-5.9,0.6-8.8C183,27,169,22.4,154.3,20
			c15.2,10,28.7,31.6,36.3,60.3h7c2.3,0,4.7,2.3,4.7,4.7c0,2.3-2.3,4.7-4.7,4.7H193c4.1,17,6.4,36.3,6.4,57.4h68.5
			c-0.6-13.5-2.9-26.3-7-38.6L244.5,129.5L244.5,129.5z"/>
		<path class="st0" d="M198.8,176.4c0,2.3-2.3,4.1-4.7,4.1h-0.6c-2.3,0-4.1-2.3-4.1-4.7c0.6-6.4,0.6-12.9,1.2-19.3h-66.2
			c-2.3,0-4.7-2.3-4.7-4.7s2.3-4.7,4.7-4.7h66.2c-0.6-20.5-2.9-39.8-7-57.4H87c-2.9,11.7-5.3,24.6-6.4,38.1c0,2.3-2.3,4.1-4.7,4.1
			s-4.1-2.3-4.1-4.7c1.2-13.5,2.9-25.8,5.9-37.5H18.5c-9.4,17-14.6,36.3-15.2,57.4h36.3c2.3,0,4.7,2.3,4.7,4.7s-2.3,4.7-4.7,4.7H3.3
			c0.6,20.5,5.9,39.8,15.2,57.4h31c2.3,0,4.7,2.3,4.7,4.7c0,2.3-1.8,4.7-4.7,4.7H23.8c19.9,31.6,53.3,54.5,91.9,60.3
			c-10-6.4-19.3-18.2-26.3-34c-1.2-2.3,0-5.3,2.3-5.9c2.3-1.2,5.3,0,5.9,2.3c10.5,22.3,24,34.5,37.5,34.5
			c14.1,0,27.5-12.3,37.5-34.5c1.2-2.3,4.1-2.9,5.9-2.3c2.3,1.2,3.5,3.5,2.3,5.9c-7.6,16.4-17,27.5-26.9,34
			c39.2-5.3,73.2-28.1,93.1-60.3h-18.7c-2.3,0-4.7-2.3-4.7-4.7c0-2.3,2.3-4.7,4.7-4.7h24c9.4-17,14.6-36.3,15.2-57.4h-67.9
			C199.4,162.9,199.4,169.9,198.8,176.4L198.8,176.4z M81.7,234.3c0,0-32.2-40.4-32.2-58.6c0-17.6,14.6-32.2,32.2-32.2
			s32.2,14.6,32.2,32.2C113.9,193.9,81.7,234.3,81.7,234.3z M162,222h-47.4c-2.3,0-4.7-2.3-4.7-4.7c0-2.3,1.8-4.7,4.7-4.7H162
			c2.3,0,4.7,2.3,4.7,4.7C166.1,220.3,164.3,222,162,222L162,222z M212.9,210.3c0,10-17.6,32.2-17.6,32.2s-18.2-22.3-18.2-32.2
			c0-10,8.2-18.2,18.2-18.2C205.3,192.7,212.9,200.4,212.9,210.3z M89.4,80.3h91.9c-10-34-26.9-57.4-45.7-57.4
			C116.3,23.5,99.3,46.4,89.4,80.3z"/>
		<circle class="st0" cx="81.7" cy="176.4" r="16.4"/>
		<circle class="st0" cx="143.8" cy="142.4" r="6.4"/>
	</g>
</g>
</svg>
