<?xml version="1.0" encoding="utf-8"?>
<!-- Generator: Adobe Illustrator 24.3.0, SVG Export Plug-In . SVG Version: 6.00 Build 0)  -->
<svg version="1.1" id="Layer_1" xmlns="http://www.w3.org/2000/svg" xmlns:xlink="http://www.w3.org/1999/xlink" x="0px" y="0px"
	 width="402.9px" height="402.9px" viewBox="0 0 402.9 402.9" style="enable-background:new 0 0 402.9 402.9;" xml:space="preserve"
	>
<style type="text/css">
	.st0{fill:#0FDAC2;}
	.st1{fill:#0EDBC1;}
</style>
<g>
	<path class="st1" d="M372.7,375.3L328.1,277l-48.4-107.7c-0.3-0.7-0.8-1.3-1.4-1.8l-30.1-33.8c-1.5-1.5-3.9-1.5-5.3,0
		c-0.9,0.9-1.3,2.3-1,3.6L282,277c1,1.9,0.4,4.2-1.3,5.4l-48.9,50.3c-2.2,2.1-2.8,5.4-1.4,8.1l22.4,46.5c1.2,2.6,3.9,4.3,6.8,4.2
		h126.1c3.2,0,5.8-2.6,5.8-5.8c0-3.2-2.6-5.8-5.8-5.8h-6.3C376.5,379.9,373.8,378.1,372.7,375.3L372.7,375.3z M234,150.7l35,122.2
		c0.7,2.5,0,5.3-1.8,7.2l-49.9,50.7c-1.7,1.8-2.3,4.4-1.3,6.8l21.1,43.1c1.8,3.8,0.1,8.3-3.7,10.1c-1,0.4-2,0.7-3.1,0.7H17.2
		c-3.2,0-5.8-2.6-5.8-5.8c0-3.2,2.6-5.8,5.8-5.8h14.8c0.9,0,1.7-0.4,2.3-1l59.7-56c1.2-1.1,1.8-2.6,1.8-4.2l12.7-73.1
		c-0.1-1.7,0.8-3.3,2.2-4.2l26.9-23.8c3-2.7,7.6-2.5,10.3,0.5c0.4,0.4,0.7,0.9,1,1.3l50.2,86.5c1.6,2.7,5.1,3.6,7.8,2s3.6-5.1,2-7.8
		l-41.7-71.4c-1.4-2.4-1.4-5.2,0-7.6l53.8-90.2c0.9-1,1.3-2.3,1.4-3.6V17.3c0-3.3,2.7-5.9,6-5.8c0.7,0,1.4,0.2,2.1,0.4l72.7,31.4
		c3,1.5,4.2,5.1,2.7,8c-0.6,1.2-1.6,2.2-2.7,2.7l-65.1,27.7c-2.6,1.2-4.4,3.8-4.5,6.7v60.6c0,0.5,0.5,1.4,0.5,1.8L234,150.7z"/>
</g>
</svg>
