<?xml version="1.0" encoding="utf-8"?>
<!-- Generator: Adobe Illustrator 24.3.0, SVG Export Plug-In . SVG Version: 6.00 Build 0)  -->
<svg version="1.1" id="Layer_1" xmlns="http://www.w3.org/2000/svg" xmlns:xlink="http://www.w3.org/1999/xlink" x="0px" y="0px"
	 width="313.4px" height="240.9px" viewBox="0 0 313.4 240.9" style="enable-background:new 0 0 313.4 240.9;" xml:space="preserve"
	>
<style type="text/css">
	.st0{fill:#0FDAC2;}
</style>
<g>
	<g>
		<path class="st0" d="M170.5,155c3.8,0,6.9-3.1,6.9-6.9v-13.8c0-3.8-3.1-6.9-6.9-6.9h-27.6c-3.8,0-6.9,3.1-6.9,6.9v13.8
			c0,3.8,3.1,6.9,6.9,6.9H170.5z M288,44.4h-69.1C221.3,22.9,206.8,3,184.4,3h-55.3c-22.5,0.1-37,19.9-34.5,41.5H25.4
			C14,44.4,4.7,53.7,4.7,65.2V83l119.6,42.2c3.4-7.1,10.7-11.7,18.6-11.7h27.6c8.2,0,15.2,4.8,18.6,11.7L308.7,83V65.2
			C308.7,53.7,299.4,44.4,288,44.4z M108.4,44.4v-6.9c0-11.4,9.3-20.7,20.7-20.7h55.3c11.4,0,20.7,9.3,20.7,20.7v6.9H108.4z"/>
		<path class="st0" d="M191.3,148.1c0,11.4-9.3,20.7-20.7,20.7h-27.6c-11.4,0-20.7-9.3-20.7-20.7v-8.9L4.7,97.7v119.5
			c0,11.4,9.3,20.7,20.7,20.7H288c11.4,0,20.7-9.3,20.7-20.7V97.7l-117.5,41.5V148.1z"/>
	</g>
</g>
</svg>
