<?xml version="1.0" encoding="utf-8"?>
<!-- Generator: Adobe Illustrator 24.3.0, SVG Export Plug-In . SVG Version: 6.00 Build 0)  -->
<svg version="1.1" id="Layer_1" xmlns="http://www.w3.org/2000/svg" xmlns:xlink="http://www.w3.org/1999/xlink" x="0px" y="0px"
	 width="402.9px" height="402.9px" viewBox="0 0 402.9 402.9" style="enable-background:new 0 0 402.9 402.9;" xml:space="preserve"
	>
<style type="text/css">
	.st0{fill:#0FDAC2;}
	.st1{fill:#0EDBC1;}
</style>
<g>
	<path class="st1" d="M178.9,207.7l36.8-36.8c-8.3-5.3-18.1-8.4-28.6-8.4c-29.4,0-53.4,23.9-53.4,53.4s23.9,53.4,53.4,53.4
		s53.4-23.9,53.4-53.4c0-10.5-3.1-20.3-8.4-28.6L195.2,224L178.9,207.7z"/>
	<path class="st1" d="M370.3,215.9c0-31.5-8-62.2-23.3-89.5l-45.6,6.3c17.1,23.4,27.1,52.1,27.1,83.2c0,78-63.4,141.4-141.4,141.4
		S45.6,293.8,45.6,215.9S109.1,74.4,187,74.4c31.1,0,59.9,10.1,83.2,27.1l6.3-45.6c-27.2-15.3-58-23.3-89.5-23.3
		c-48.9,0-94.9,19.1-129.6,53.7C22.9,120.9,3.8,166.9,3.8,215.9s19.1,94.9,53.7,129.6c34.6,34.6,80.6,53.7,129.6,53.7
		S282,380,316.6,345.4C351.2,310.8,370.3,264.8,370.3,215.9z"/>
	<path class="st1" d="M187,97.6c-65.2,0-118.3,53.1-118.3,118.3S121.8,334.1,187,334.1s118.3-53.1,118.3-118.3
		c0-28.4-10.1-54.6-26.9-75l-29.7,29.7c9.3,12.7,14.9,28.3,14.9,45.3c0,42.2-34.3,76.5-76.5,76.5s-76.5-34.3-76.5-76.5
		s34.3-76.5,76.5-76.5c16.9,0,32.6,5.5,45.3,14.9l29.7-29.7C241.6,107.7,215.5,97.6,187,97.6L187,97.6z M351.4,3.8L300,55.3
		l-7.6,55.2l55.2-7.6l51.5-51.5l-34.7-12.9L351.4,3.8z"/>
</g>
</svg>
