<?xml version="1.0" encoding="utf-8"?>
<!-- Generator: Adobe Illustrator 24.3.0, SVG Export Plug-In . SVG Version: 6.00 Build 0)  -->
<svg version="1.1" id="Layer_1" xmlns="http://www.w3.org/2000/svg" xmlns:xlink="http://www.w3.org/1999/xlink" x="0px" y="0px"
	 width="313.4px" height="275.7px" viewBox="0 0 313.4 275.7" style="enable-background:new 0 0 313.4 275.7;" xml:space="preserve"
	>
<style type="text/css">
	.st0{fill:#0FDAC2;}
</style>
<g>
	<g>
		<path class="st0" d="M3.4,202.2c-1,0.1-1.6,1.3-1.6,3.5v9.1c0,32.4,49.1,58.7,109.6,58.7c18.1,0,35.1-2.3,50.2-6.5
			c3.1-0.9,3.6-3.4,1.3-5.7c-6-5.9-11.9-10-16.2-17.2c-1.9-2.9-5.2-4.6-8.7-4.3c-8.8,1.1-17.9,1.8-27.2,1.8
			c-31.7,0-56.7-6-81.7-18.5c-8.8-4.4-16.5-12.8-22.7-19.1C5.3,202.8,4.2,202.2,3.4,202.2L3.4,202.2z"/>
		<path class="st0" d="M1.8,160v9.1c0,32.4,49.1,58.7,109.6,58.7c7.7,0,15.2-0.5,22.5-1.3c3.2-0.4,4.9-3.2,4-6.3
			c-2.2-7.1-4-11.2-4.5-18.9c-0.1-3.1-2.7-5.4-5.7-5.3c-0.1,0-0.2,0-0.3,0c-5.3,0.4-10.6,0.6-15.9,0.6c-31.8,0-60.6-6.8-82.3-18.4
			c-8.7-4.7-16.4-13.6-22.6-19.9c-1.2-1.3-2.3-1.8-3.2-1.8C2.4,156.7,1.8,157.8,1.8,160L1.8,160z M111.4,2.2
			C50.8,2.2,1.8,28.5,1.8,60.9v16.8c0,32.4,49,58.7,109.6,58.7c13,0,25.9-1.3,38.1-3.7c3.7-1,7-3,9.6-5.7
			c13-14.2,29.9-24.2,48.6-28.8c4-1,9.2-4.2,10.7-8c1.7-3.9,2.5-8.2,2.6-12.4V60.9C220.9,28.5,171.9,2.2,111.4,2.2L111.4,2.2z"/>
	</g>
	<path class="st0" d="M230.3,110.8c-44.9,0-81.4,36.4-81.4,81.3l0,0c0,44.9,36.4,81.4,81.4,81.4c0,0,0,0,0,0
		c44.9,0,81.3-36.4,81.3-81.4C311.6,147.3,275.2,110.9,230.3,110.8L230.3,110.8z M230.2,138.3c5.2,0,9.4,4.2,9.5,9.5v2
		c6,2.1,11.1,6.2,14.4,11.7c2.7,4.5,1.3,10.3-3.2,13c0,0,0,0,0,0c-4.5,2.7-10.3,1.3-13-3.2c0,0,0,0,0,0c-1.7-2.6-4.6-4.1-7.6-4.1
		c-5.2,0-8.8,3.7-8.8,7.9c0,4.2,3.6,7.8,8.8,7.8c14.9,0,27.7,11.9,27.7,26.9c-0.1,11.4-7.4,21.5-18.2,25.2v1.9
		c0,5.2-4.2,9.5-9.4,9.5c0,0,0,0,0,0c-5.2,0-9.5-4.2-9.5-9.4c0,0,0-0.1,0-0.1v-1.9c-6-2.1-11-6.2-14.3-11.6
		c-2.7-4.5-1.3-10.3,3.1-13c4.5-2.7,10.3-1.3,13,3.1c0,0,0,0.1,0,0.1c1.5,2.4,4.4,4.1,7.7,4.1c5.2,0,8.7-3.7,8.7-7.9
		s-3.5-7.9-8.7-7.9c-15,0-27.8-11.8-27.8-26.8c0-11.7,7.8-21.4,18.2-25.2v-2C220.7,142.5,224.9,138.3,230.2,138.3
		C230.2,138.3,230.2,138.3,230.2,138.3L230.2,138.3z M1.8,115.4v8c0,32.4,49,58.7,109.6,58.7c5.8,0,11.5-0.3,17.1-0.7
		c3.2-0.3,6.1-3.2,6.7-6.4c0-9.9,2.1-14.7,5.5-22c0.8-1.8,0.1-2.8-1.9-2.6c-9.5,1.3-17.6,2-27.4,2c-32.2,0-61.5-6.8-83.9-18.7
		c-8.5-4.6-16.6-12.9-23-19.4C3,112.8,1.8,113.2,1.8,115.4L1.8,115.4z"/>
</g>
</svg>
