<?xml version="1.0" encoding="utf-8"?>
<!-- Generator: Adobe Illustrator 24.3.0, SVG Export Plug-In . SVG Version: 6.00 Build 0)  -->
<svg version="1.1" id="Layer_1" xmlns="http://www.w3.org/2000/svg" xmlns:xlink="http://www.w3.org/1999/xlink" x="0px" y="0px"
	 width="402.9px" height="402.9px" viewBox="0 0 402.9 402.9" style="enable-background:new 0 0 402.9 402.9;" xml:space="preserve"
	>
<style type="text/css">
	.st0{fill:#0FDAC2;}
	.st1{fill:#0EDBC1;}
</style>
<g>
	<path class="st1" d="M374.4,363.9c-3.1-4.3-7.4-6.8-12.4-6.8H209.5c14.2,7.4,23.5,21.6,23.5,38.3v3.7h147v-16.7
		C379.9,375,378.1,368.8,374.4,363.9L374.4,363.9z M190.3,365.1H53.2c-16.7,0-30.3,13.6-30.3,30.3v3.7h197.6v-3.7
		C220.6,378.7,207,365.1,190.3,365.1L190.3,365.1z M53.2,352.1h138.9c14.8-36.4,0.6-66.1-14.2-97.6c-13-27.8-26.6-56.2-21.6-91.4
		H86.6c4.9,35.2-8.6,63.6-21.6,91.4c-14.8,31.5-28.4,61.1-14.2,97.6H53.2z M60,116.9h123.5v33.3H60V116.9z"/>
	<circle class="st1" cx="121.7" cy="53.9" r="50"/>
	<path class="st1" d="M159.5,103.9h30.3c3.7,0,6.2,3.1,6.2,6.2v46.3c0,3.7-3.1,6.2-6.2,6.2h-20.4c-4.9,32.7,7.4,58.7,20.4,86.5
		c13.6,29,27.8,59.3,18.5,95.1h141.4c3.7-63-29.6-94.5-61.1-121.7c-24.7-21.6-44.5-38.3-21-73.5c18.5,25.9,47.5,19.1,47.5,19.1
		c1.9,0,3.7,0.6,4.9,1.2l21,17.3h16.7l21-16.7v-21.6l-49.4-55.6c-1.2-1.2-1.9-3.1-1.9-4.9s1.2-3.7,2.5-4.3l9.3-6.2l-22.8-24.7
		l-24.1-11.7c-1.9-0.6-3.7-2.5-3.7-4.9l-3.1-21.6c0-1.9-2.5-2.5-3.7-0.6l-13,17.3c-1.2,1.9-3.7,3.1-6.2,2.5c-0.6,0-42.6-6.8-79,12.4
		c0.6,2.5,0.6,4.9,0.6,8C184.8,74.2,174.9,92.8,159.5,103.9L159.5,103.9z M283.6,74.2c2.5-2.5,6.8-2.5,9.3,0l9.3,8.6
		c2.5,2.5,2.5,6.8,0,9.3c-1.2,1.2-3.1,1.9-4.9,1.9c-1.9,0-3.1-0.6-4.3-1.9l-9.3-8.6C281.1,81,281.1,77.3,283.6,74.2z"/>
</g>
</svg>
