<?xml version="1.0" encoding="utf-8"?>
<!-- Generator: Adobe Illustrator 24.3.0, SVG Export Plug-In . SVG Version: 6.00 Build 0)  -->
<svg version="1.1" id="Layer_1" xmlns="http://www.w3.org/2000/svg" xmlns:xlink="http://www.w3.org/1999/xlink" x="0px" y="0px"
	 width="402.9px" height="402.9px" viewBox="0 0 402.9 402.9" style="enable-background:new 0 0 402.9 402.9;" xml:space="preserve"
	>
<style type="text/css">
	.st0{fill:#0FDAC2;}
	.st1{fill:#0EDBC1;}
</style>
<g>
	<path class="st1" d="M372.7,362.3c-3.1-4.3-7.3-6.7-12.2-6.7H209.4c14.1,7.3,23.2,21.4,23.2,37.9v3.7h145.6v-16.5
		C378.2,373.3,376.4,367.2,372.7,362.3L372.7,362.3z M190.4,363.5H54.7c-16.5,0-30,13.5-30,30v3.7h195.7v-3.7
		C220.4,377,207,363.5,190.4,363.5L190.4,363.5z M54.7,350.7h137.6c14.7-36.1,0.6-65.4-14.1-96.6c-12.8-27.5-26.3-55.7-21.4-90.5
		H87.7c4.9,34.9-8.6,63-21.4,90.5c-14.7,31.2-28.1,60.6-14.1,96.6H54.7z M61.4,117.7h122.3v33H61.4V117.7z"/>
	<circle class="st1" cx="122.5" cy="55.3" r="49.5"/>
	<path class="st1" d="M159.9,104.8h30c3.7,0,6.1,3.1,6.1,6.1v45.9c0,3.7-3.1,6.1-6.1,6.1h-20.2c-4.9,32.4,7.3,58.1,20.2,85.6
		c13.5,28.7,27.5,58.7,18.3,94.2h140.1c3.7-62.4-29.4-93.6-60.6-120.5c-24.5-21.4-44-37.9-20.8-72.8c18.3,25.7,47.1,19,47.1,19
		c1.8,0,3.7,0.6,4.9,1.2l20.8,17.1h16.5l20.8-16.5v-21.4l-48.9-55c-1.2-1.2-1.8-3.1-1.8-4.9c0-1.8,1.2-3.7,2.4-4.3l9.2-6.1
		l-22.6-24.5l-23.9-11.6c-1.8-0.6-3.7-2.4-3.7-4.9l-3.1-21.4c0-1.8-2.4-2.4-3.7-0.6l-12.8,17.1c-1.2,1.8-3.7,3.1-6.1,2.4
		c-0.6,0-42.2-6.7-78.3,12.2c0.6,2.4,0.6,4.9,0.6,8C184.9,75.5,175.1,93.8,159.9,104.8L159.9,104.8z M282.8,75.5
		c2.4-2.4,6.7-2.4,9.2,0l9.2,8.6c2.4,2.4,2.4,6.7,0,9.2c-1.2,1.2-3.1,1.8-4.9,1.8s-3.1-0.6-4.3-1.8l-9.2-8.6
		C280.3,82.2,280.3,78.5,282.8,75.5z"/>
</g>
</svg>
