<?xml version="1.0" encoding="utf-8"?>
<!-- Generator: Adobe Illustrator 24.3.0, SVG Export Plug-In . SVG Version: 6.00 Build 0)  -->
<svg version="1.1" id="Layer_1" xmlns="http://www.w3.org/2000/svg" xmlns:xlink="http://www.w3.org/1999/xlink" x="0px" y="0px"
	 width="402.9px" height="402.9px" viewBox="0 0 402.9 402.9" style="enable-background:new 0 0 402.9 402.9;" xml:space="preserve"
	>
<style type="text/css">
	.st0{fill:#0FDAC2;}
	.st1{fill:#0EDBC1;}
</style>
<g>
	<path class="st1" d="M102.6,167.7c44.8-0.1,81.1-36.4,81.2-81.2c-4.5-107.7-158-107.7-162.4,0C21.4,131.3,57.7,167.7,102.6,167.7
		L102.6,167.7z M93.6,93.5c-13.8,0-25-11.2-25-25c0-13.8,11.2-25,25-25h1.9v-6.4c0-3.9,3.2-7.1,7.1-7.1s7.1,3.2,7.1,7.1v6.4h19.9
		c3.9,0,7.1,3.2,7.1,7.1s-3.2,7.1-7.1,7.1h-19.9v21.8h1.9c13.8,0.1,25,11.5,24.8,25.3s-11.5,25-25.3,24.8c-0.5,0-0.9,0-1.4-0.1v6.4
		c0,3.9-3.2,7.1-7.1,7.1s-7.1-3.2-7.1-7.1v-6.4H75.6c-3.9,0-7.1-3.2-7.1-7.1s3.2-7.1,7.1-7.1h19.9V93.5H93.6z"/>
	<path class="st1" d="M122.5,104.5c-0.1-6.2-5.2-11.2-11.4-11.1c-0.5,0-0.9,0-1.4,0.1v21.8c6.1,0.9,11.8-3.4,12.7-9.5
		C122.4,105.4,122.5,104.9,122.5,104.5L122.5,104.5z M95.5,57.6c-6-0.9-11.7,3.2-12.6,9.2s3.2,11.7,9.2,12.6c1.1,0.2,2.3,0.2,3.4,0
		V57.6z M397.1,183.2c-1.8-1.8-4.4-2.5-6.8-1.8l-84.7,22.2c-2.4,0.6-4.3,2.5-4.9,4.9c-2,5.6,6.1,10.7,9.5,15
		c-37.8,34.9-79.4,65.3-124.1,90.6C152.6,333,117.6,349,81.4,362c-23.7,8.5-47.8,15.6-72.2,21.3c-3.8,0.9-6.1,4.8-5.1,8.6
		c0.8,3.1,3.6,5.3,6.8,5.3c123.8-11.2,242.1-56.7,341.4-131.5l11.2,11.8c2.7,2.8,7.2,2.9,10,0.2c0.9-0.9,1.6-2,1.9-3.2l23.7-84.4
		C399.5,187.7,398.9,185,397.1,183.2L397.1,183.2z"/>
	<path class="st1" d="M31.9,248.9c-3.9,0-7,3.2-7.1,7.1v108.8c17.5-4.6,34.7-10,51.8-16.1c6.4-2.2,12.6-4.7,18.9-7.1V256
		c0-3.9-3.2-7-7.1-7.1H31.9z M265,243.7V143c0-3.9-3.2-7-7.1-7.1h-56.5c-3.9,0-7,3.2-7.1,7.1v149.8c16.5-9.9,32.6-20.6,48.2-32
		C250.1,255.3,257.6,249.6,265,243.7L265,243.7z M116.7,192.4c-3.9,0-7.1,3.2-7.1,7.1v136.4c24.2-10.1,47.8-21.7,70.6-34.7V199.5
		c0-3.9-3.2-7-7.1-7.1H116.7z"/>
</g>
</svg>
