<?xml version="1.0" encoding="utf-8"?>
<!-- Generator: Adobe Illustrator 24.3.0, SVG Export Plug-In . SVG Version: 6.00 Build 0)  -->
<svg version="1.1" id="Layer_1" xmlns="http://www.w3.org/2000/svg" xmlns:xlink="http://www.w3.org/1999/xlink" x="0px" y="0px"
	 width="402.9px" height="402.9px" viewBox="0 0 402.9 402.9" style="enable-background:new 0 0 402.9 402.9;" xml:space="preserve"
	>
<style type="text/css">
	.st0{fill:#0FDAC2;}
	.st1{fill:#0EDBC1;}
</style>
<g>
	<path class="st1" d="M394.3,363.2l-83.5-151.3c-8.7-15.8-31.4-15.8-40.2,0l-83.5,151.3c-8.4,15.3,2.6,34,20.1,34h167
		C391.7,397.2,402.7,378.5,394.3,363.2z M290.7,362.8c-6.3,0-11.5-5.1-11.5-11.5s5.1-11.5,11.5-11.5s11.5,5.1,11.5,11.5
		S297.1,362.8,290.7,362.8z M302.2,313.1c0,6.3-5.1,11.5-11.5,11.5s-11.5-5.1-11.5-11.5v-49.7c0-6.3,5.1-11.5,11.5-11.5
		s11.5,5.1,11.5,11.5V313.1z"/>
	<path class="st1" d="M225.4,246l17.3-31.4c-41.3-7.2-72.8-43.3-72.8-86.6c0-48.5,39.4-87.9,87.9-87.9s87.9,39.4,87.9,87.9
		c0,23.6-9.3,45-24.5,60.8c3.8,3.4,7,7.4,9.4,11.9l9.7,17.6c24.4-22.4,39.8-54.5,39.8-90.3c0-67.6-54.8-122.3-122.3-122.3
		S135.5,60.5,135.5,128C135.5,184.4,173.6,231.8,225.4,246z"/>
	<path class="st1" d="M258,63.1c-35.8,0-65,29.2-65,65c0,35.1,28.1,63.9,62.9,64.9c8.7-10.1,21.4-15.9,34.7-15.9c3,0,6,0.3,8.9,0.9
		C313.9,166,323,148.1,323,128C323,92.2,293.9,63.1,258,63.1z M137.3,208.7L24,296c-22.5,17.3-24.6,50.5-4.5,70.5S72.7,384.5,90,362
		l87.3-113.2C161.4,238.2,147.8,224.5,137.3,208.7L137.3,208.7z M51.9,345.6c-6.3,0-11.5-5.1-11.5-11.5s5.1-11.5,11.5-11.5
		s11.5,5.1,11.5,11.5S58.3,345.6,51.9,345.6z"/>
</g>
</svg>
