<?xml version="1.0" encoding="utf-8"?>
<!-- Generator: Adobe Illustrator 24.3.0, SVG Export Plug-In . SVG Version: 6.00 Build 0)  -->
<svg version="1.1" id="Layer_1" xmlns="http://www.w3.org/2000/svg" xmlns:xlink="http://www.w3.org/1999/xlink" x="0px" y="0px"
	 viewBox="0 0 512 512" style="enable-background:new 0 0 512 512;" xml:space="preserve">
<style type="text/css">
	.st0{fill:#0ED1BF;}
</style>
<path class="st0" d="M10,329c0.7-2.9,1.3-5.8,2-8.7c4.4-17.2,13.5-31.3,28.6-40.7c18.7-11.6,37.9-22.2,57.5-33.6
	c22.9,39.6,45.6,79,68.6,118.8c-2.3,1.4-4.3,2.8-6.4,4c-15,8.7-30.1,17.1-44.9,26c-43.7,26.4-97.7-0.3-104.6-48.1
	c-0.1-0.6-0.5-1.2-0.8-1.8C10,339.7,10,334.3,10,329z"/>
<path class="st0" d="M196,480c-3.7-3.2-7.9-6-10.9-9.8c-16.6-21-32.8-42.3-49.6-64c14.4-8.3,28.6-16.5,43.1-24.9
	c6.7,8.7,13.2,17.1,19.7,25.5c8.7,11.3,17.5,22.7,26.2,34c6.7,8.7,6.2,15.2-2.2,22.5c-6.6,5.7-13.5,11.1-20.3,16.6
	C200,480,198,480,196,480z"/>
<path class="st0" d="M397,32c12.1,6.1,14,13,7.2,24.9c-7.2,12.5-14.5,25.1-21.7,37.6c-3.2,5.6-8.1,8.3-14.6,7.4
	c-5.8-0.9-10.1-4.3-11.1-10c-0.6-3.5-0.2-7.9,1.4-10.9c7.6-14,15.6-27.9,24-41.5c1.9-3.1,5.9-5,8.9-7.5C393,32,395,32,397,32z"/>
<path class="st0" d="M502,212c-3.3,8.2-9.5,11.1-18.1,10.9c-14.3-0.3-28.6,0-42.9-0.1c-9.7-0.1-15.9-6.5-15.3-15.2
	c0.5-6.8,5.6-12.5,12.5-12.6c17-0.3,33.9-0.2,50.9-0.1c6.7,0,10.1,4.9,12.9,10.1C502,207.3,502,209.7,502,212z"/>
<path class="st0" d="M338,143.4c21.6-14.6,45.4-6.3,55.7,10.4c9.7,15.8,8,41.9-17.8,55c0.9,1.6,1.7,3.1,2.6,4.7
	c14.5,25.1,29.1,50.1,43.4,75.2c11.9,20.9,0.6,45.2-22.8,48.7c-10.6,1.6-19.5-2.2-27.4-9.3c-2.2-2-5.5-3.7-8.5-4
	c-47.2-5.8-93.3,0.6-138.7,13.4c-13,3.6-25.6,8.3-38.4,12.7c-2.5,0.9-4.1,1.2-5.7-1.6c-20.7-36.1-41.5-72.1-62.3-108.2
	c-0.1-0.1,0-0.3-0.1-1c5.8-5,11.9-10,17.8-15.3c35.8-32,66.6-68,88.7-111c1.7-3.3,3.2-6.6,4.7-9.9c3-6.1,4.8-11.8,3.1-19.3
	c-3.6-15.4,5.4-30.1,19.8-35.6c14.6-5.5,30.7,0.1,38.9,13.9c14.8,25.1,29.2,50.4,43.8,75.6C335.8,139.7,336.8,141.4,338,143.4z"/>
<path class="st0" d="M432.3,147.2c-7.5,0-12.5-3.6-14.5-9.5c-2-5.7-0.4-12.3,4.9-15.5c14.1-8.5,28.3-16.8,42.8-24.7
	c6.4-3.4,14.1-0.3,17.6,5.9c3.6,6.3,2.3,14.3-4,18.2c-13.9,8.5-28.1,16.4-42.3,24.5C435.1,146.9,433,147,432.3,147.2z"/>
</svg>
