<?xml version="1.0" encoding="utf-8"?>
<!-- Generator: Adobe Illustrator 24.3.0, SVG Export Plug-In . SVG Version: 6.00 Build 0)  -->
<svg version="1.1" id="Layer_1" xmlns="http://www.w3.org/2000/svg" xmlns:xlink="http://www.w3.org/1999/xlink" x="0px" y="0px"
	 viewBox="0 0 512 512" style="enable-background:new 0 0 512 512;" xml:space="preserve">
<style type="text/css">
	.st0{fill:#0ED1BF;}
</style>
<path class="st0" d="M335,512c-11.6-2.3-23.5-3.4-34.6-7c-62.9-20.3-102.7-62.8-115.2-127.7c-15.7-82.1,31-159.9,109.3-186.6
	C386.7,159.3,487,215.8,507.9,311c1.7,7.9,2.7,16,4.1,24c0,8,0,16,0,24c-0.3,1.4-0.7,2.9-0.9,4.3c-6.3,67-54.9,125.1-119.9,142.5
	c-10.5,2.8-21.5,4.1-32.2,6.2C351,512,343,512,335,512z M362,419.5c1.9-0.9,3.5-1.7,5.2-2.5c22.5-11.3,31.6-38.8,19.6-60.9
	c-8.5-15.6-22-23.5-39.8-24.1c-8.2-0.3-14.4-6.3-14.9-14.1c-0.5-7.5,5-14.4,12.5-15.7c7.3-1.3,14.4,3.3,16.8,10.9
	c0.4,1.2,0.7,2.5,1,3.5c10,0,19.7,0,29.8,0c-1.3-20.5-11.6-34.2-30.4-42.2c0-10.7,0-21.5,0-32.2c-10.1,0-19.7,0-29.8,0
	c0,9-0.2,17.8,0.1,26.6c0.2,4.2-1,6.3-5,8.2c-25.9,12.6-33.2,45.3-15.4,67.8c8.9,11.2,20.8,16.7,35.1,17.2
	c8.5,0.3,14.7,6.3,15.1,14.3c0.4,7.5-5.2,14.3-12.8,15.5c-7.5,1.2-14.5-3.7-16.8-11.7c-0.3-0.9-0.4-1.9-0.7-2.9
	c-9.8,0-19.6,0-29.8,0c1.2,20.7,11.7,34.3,30.3,42.3c0,10.8,0,21.4,0,32.1c10.1,0,19.8,0,29.8,0C362,440.7,362,430.1,362,419.5z"/>
<path class="st0" d="M184,0c10.5,1.3,21.2,2.3,31.6,4.1c29.2,4.9,57,13.8,81.3,31.2c7,5,13.5,10.9,19.2,17.4
	c21.9,25.1,21.2,55.8-1.5,80.2c-16.8,18.1-38.1,28.8-61.2,36.2c-45.6,14.6-92.2,16.4-139.2,8.4c-28.5-4.9-55.6-13.6-79.6-30.2
	c-15.5-10.8-28.1-24-33.1-42.9c-0.5-1.7-1-3.4-1.5-5.2c0-4.7,0-9.3,0-14c5.1-24.1,20.7-40.3,40.7-53C64.5,16.9,90.9,8.6,118.5,4.1
	C128.6,2.4,138.8,1.3,149,0C160.7,0,172.3,0,184,0z"/>
<path class="st0" d="M0,158c37.8,33.5,83.5,46.8,132.4,52.2c25.1,2.7,50.2,2.3,76.4-0.9c-3.5,3.9-6.3,7-9,10.2
	c-12.7,14.5-23,30.6-30.7,48.3c-1.4,3.2-3,4.4-6.6,4.3c-39-1-76.9-7.4-112-25.3c-15.1-7.7-28.6-17.6-38.9-31.5
	C5.6,207.3,2.5,198.4,0,189C0,178.7,0,168.3,0,158z"/>
<path class="st0" d="M0,338c15.1,13.3,31.8,24,50.4,31.8c31,13,63.5,19.5,96.9,21.3c9.8,0.5,9.8,0.4,12.5,9.6
	c4.7,16.4,11.5,31.9,20.2,46.5c0.7,1.1,1.2,2.3,2.1,4c-4.3,0.3-8.1,0.7-11.9,0.7c-39.9,0.2-78.6-5.6-115-22.8
	c-17-8.1-32.3-18.5-43.8-33.9C5.6,387.3,2.4,378.4,0,369C0,358.7,0,348.3,0,338z"/>
<path class="st0" d="M0,248c15.8,14.1,33.5,25,53.1,33c29.7,12.1,60.8,18.1,92.7,20.1c3,0.2,6,0.3,9,0.5c0.6,0,1.3,0.2,2.5,0.5
	c-4.1,19.3-6.6,38.7-4.5,59.3c-8.8-0.8-17.2-1.3-25.5-2.4c-30.4-4-59.7-11.9-86.2-27.9c-12.2-7.4-23.6-16.1-30.9-28.5
	C5.7,295.3,3.3,286.9,0,279C0,268.7,0,258.3,0,248z"/>
</svg>
