<svg id="Layer_1" data-name="Layer 1" xmlns="http://www.w3.org/2000/svg" viewBox="0 0 101.68 59.74"><defs><style>.cls-1{fill:#5c5aa8;}</style></defs><path class="cls-1" d="M82.36,27A16.84,16.84,0,0,1,85,19.54c.58-1,.4-1.37-.53-1.82a55.71,55.71,0,0,0-8.58-3.31,56.2,56.2,0,0,0-5.74-1.64c-3.29-.6-6.61-1-9.94-1.38a68.2,68.2,0,0,0-12.21,0,67.8,67.8,0,0,0-9.58,1.46,86.54,86.54,0,0,0-9.23,2.46c-2.19.75-4.33,1.58-6.44,2.54s-4.09,1.78-6.08,2.78c-1.07.55-2.46.95-2.4,2.74.14,4.64.14,9.28.19,13.91a1.27,1.27,0,0,0,.67,1.3c1.1.54,2.09,1.24,3.21,1.77a80.74,80.74,0,0,0,18.24,6,83,83,0,0,0,16.8,1.53c2.6,0,5.19-.08,7.79-.22a72.67,72.67,0,0,0,9.17-1.48,36.69,36.69,0,0,0,5.52-1.49A53,53,0,0,0,84,41.53c1.44-.79,1.53-.86.7-2.25C82.36,35.46,82.06,31.31,82.36,27ZM67.14,30.27c0,4.37-3.24,8-7.24,8a7.81,7.81,0,0,1-7.8-8c0-4.2,3.32-8.22,7.72-8.1A7.58,7.58,0,0,1,67.14,30.27Z"/><path class="cls-1" d="M1.64,4a39.83,39.83,0,0,1,20.1-2.69A26.1,26.1,0,0,1,36.85,8.46c.46.44.88.92,1.32,1.38.66.71.61,1.14-.44,1.31a72.84,72.84,0,0,0-9.95,2.62,63.3,63.3,0,0,0-6.93,2.7c-.85.38-1.27.21-1.66-.64A15.8,15.8,0,0,0,12.53,9,49,49,0,0,0,2.39,4.46,5,5,0,0,1,1.64,4Z"/><path class="cls-1" d="M16.27,58.91A44.58,44.58,0,0,1,2.55,56.65c-.32-.11-.84-.07-.85-.52s.5-.46.82-.56a42.77,42.77,0,0,0,10.31-4.72c2.78-1.73,5.23-3.84,6.53-7,.27-.66.6-.71,1.2-.43a73.73,73.73,0,0,0,11,3.74c1.84.51,3.73.84,5.6,1.25.42.09.94,0,1.06.6a1.3,1.3,0,0,1-.45,1.18,26.19,26.19,0,0,1-15.68,8.22A52.77,52.77,0,0,1,16.27,58.91Z"/><path class="cls-1" d="M84.16,29.65a17.42,17.42,0,0,1,2-8.53c.85-1.84,1.21-1.95,2.87-.88a64.75,64.75,0,0,1,10.83,8.17c1.07,1.06,1,1.41-.07,2.41a79.28,79.28,0,0,1-11.38,8.5c-.57.36-.93.42-1.41-.15A13,13,0,0,1,84.17,32,21.15,21.15,0,0,1,84.16,29.65Z"/><path class="cls-1" d="M9.77,30.45c0-2.56,0-5.11,0-7.67,0-.54-.07-1.32.77-1.17s2.07-.29,2.07,1.18q0,7.56,0,15.11c0,.7-1.17,1.28-2.26,1.19-.86-.08-.57-.76-.57-1.2C9.76,35.41,9.77,32.93,9.77,30.45Z"/></svg>