<?xml version="1.0" encoding="utf-8"?>
<!-- Generator: Adobe Illustrator 24.3.0, SVG Export Plug-In . SVG Version: 6.00 Build 0)  -->
<svg version="1.1" id="Layer_1" xmlns="http://www.w3.org/2000/svg" xmlns:xlink="http://www.w3.org/1999/xlink" x="0px" y="0px"
	 width="1023.6px" height="501.2px" viewBox="0 0 1023.6 501.2" style="enable-background:new 0 0 1023.6 501.2;"
	 xml:space="preserve">
<style type="text/css">
	.st0{fill:#FFFFFF;}
	.st1{fill:#5C5AA8;}
</style>
<g>
	<path class="st1" d="M1005.4,247.3c0.2-2.7,1.3-5.2,2.7-7.5c0.6-1,0.4-1.4-0.5-1.8c-2.8-1.3-5.6-2.4-8.6-3.3
		c-1.9-0.6-3.8-1.3-5.7-1.6c-3.3-0.6-6.6-1-9.9-1.4c-4.1-0.4-8.2-0.2-12.2,0c-3.2,0.2-6.4,0.8-9.6,1.5c-3.1,0.7-6.2,1.4-9.2,2.5
		c-2.2,0.7-4.3,1.6-6.4,2.5c-2,0.9-4.1,1.8-6.1,2.8c-1.1,0.5-2.5,0.9-2.4,2.7c0.1,4.6,0.1,9.3,0.2,13.9c0,0.5,0.1,1,0.7,1.3
		c1.1,0.5,2.1,1.2,3.2,1.8c5.8,2.8,11.9,4.7,18.2,6c5.5,1.1,11.1,1.5,16.8,1.5c2.6,0.1,5.2-0.1,7.8-0.2c3.1-0.2,6.1-0.9,9.2-1.5
		c1.8-0.3,3.7-0.9,5.5-1.5c2.7-1,5.5-1.8,8.1-3.2c1.4-0.8,1.5-0.9,0.7-2.2C1005.4,255.7,1005.1,251.6,1005.4,247.3z M990.2,250.5
		c0,4.4-3.2,8-7.2,8c-4.4,0-7.8-3.5-7.8-8c0-4.2,3.3-8.2,7.7-8.1C986.7,242.5,990.3,245.6,990.2,250.5z"/>
	<path class="st1" d="M924.7,224.3c3.4-1.3,6.7-2.3,10.1-2.7c3.3-0.4,6.7-0.5,10,0c5.8,0.8,10.9,3,15.1,7.1c0.5,0.4,0.9,0.9,1.3,1.4
		c0.7,0.7,0.6,1.1-0.4,1.3c-3.4,0.6-6.7,1.6-10,2.6c-2.4,0.8-4.7,1.7-6.9,2.7c-0.9,0.4-1.3,0.2-1.7-0.6c-1.4-3.1-3.9-5.1-6.7-6.8
		c-3.2-1.9-6.6-3.4-10.1-4.5C925.3,224.7,925.1,224.5,924.7,224.3z"/>
	<path class="st1" d="M939.3,279.2c-4.4,0-9.1-0.7-13.7-2.3c-0.3-0.1-0.8-0.1-0.8-0.5c0-0.4,0.5-0.5,0.8-0.6
		c3.7-1.1,7.1-2.7,10.3-4.7c2.8-1.7,5.2-3.8,6.5-7c0.3-0.7,0.6-0.7,1.2-0.4c3.5,1.6,7.2,2.7,11,3.7c1.8,0.5,3.7,0.8,5.6,1.3
		c0.4,0.1,0.9,0.1,1.1,0.6c0.1,0.5-0.1,0.8-0.5,1.2c-4.2,4.6-9.5,7.2-15.7,8.2C943.3,279,941.5,279.1,939.3,279.2z"/>
	<path class="st1" d="M1007.2,249.9c-0.2-3,0.7-5.8,1.9-8.5c0.9-1.8,1.2-2,2.9-0.9c3.8,2.4,7.6,5,10.8,8.2c1.1,1.1,1,1.4-0.1,2.4
		c-3.5,3.2-7.4,6-11.4,8.5c-0.6,0.4-0.9,0.4-1.4-0.1c-1.7-2.1-2.5-4.5-2.8-7.1C1007.1,251.5,1007.2,250.7,1007.2,249.9z"/>
	<path class="st1" d="M932.8,250.7c0-2.6,0-5.1,0-7.7c0-0.5-0.1-1.3,0.8-1.2c0.8,0.1,2.1-0.3,2.1,1.2c0,5,0,10.1,0,15.1
		c0,0.7-1.2,1.3-2.3,1.2c-0.9-0.1-0.6-0.8-0.6-1.2C932.8,255.7,932.8,253.2,932.8,250.7z"/>
	<path class="st1" d="M931.7,242.8c0-0.5-0.4-0.9-0.9-1c-3.9-0.5-7.5-0.9-10.8-1.4c-17.7-2.4-36.8-5.1-55.7-7.9l-19.4-2.9
		c-13.2-2-26.4-4-39.6-5.9c-11.3-1.7-22.4-3.7-33.2-5.6l-0.1,0c-6.9-1.2-14.1-2.5-21.2-3.7c-18.7-3.1-37.2-6.7-55.3-10.2
		c-9.5-1.8-19.4-3.7-29-5.5c-15.9-3-31.6-6.4-46.9-9.8l-4.7-1c-6.5-1.4-12.9-2.8-19.4-4.2l-0.5-0.1c-21.1-4.6-43-9.4-64.6-14.8
		c-7.3-1.8-14.5-3.7-21.8-5.5l-0.3-0.1c-18.5-4.6-37.7-9.4-56.7-14.6l-4.1-1.1c-31.5-8.5-64.2-17.4-96.2-26.9
		c-42.2-12.5-81.1-24.6-118.9-37.1l-6.3-2.1c-32.4-10.7-65.9-21.7-98.8-34c-9.9-3.7-20-7.4-30-10.9l-0.1,0
		c-13-4.7-26.4-9.5-39.6-14.6c-5.8-2.2-11.6-4.4-17.3-6.6l-2-0.8C26.1,9.6,13.7,4.9,1.3,0.1C0.7-0.2,0,0.3,0,1v249.6v249.6
		c0,0.7,0.7,1.2,1.3,0.9c12.4-4.8,24.8-9.5,36.8-14.1l2-0.8c5.8-2.2,11.6-4.4,17.3-6.6c13.3-5.1,26.7-9.9,39.6-14.6l0.1,0
		c9.9-3.6,20.1-7.2,30-10.9c32.9-12.3,66.4-23.3,98.8-34l6.3-2.1c37.8-12.5,76.7-24.6,118.9-37.1c32.1-9.5,64.7-18.3,96.2-26.9
		l4.1-1.1c18.9-5.1,38.1-9.9,56.7-14.6l0.3-0.1c7.3-1.8,14.5-3.6,21.8-5.5c21.6-5.5,43.5-10.2,64.6-14.8l0.5-0.1
		c6.5-1.4,12.9-2.8,19.4-4.2l4.7-1c15.3-3.4,31-6.9,46.9-9.8c9.7-1.8,19.5-3.7,29-5.5c18.1-3.5,36.7-7.1,55.3-10.2
		c7.1-1.2,14.2-2.5,21.2-3.7l0.1,0c10.8-1.9,21.9-4,33.2-5.6c13.2-2,26.4-3.9,39.6-5.9l19.4-2.9c18.9-2.8,38-5.5,55.7-7.9
		c3.4-0.5,6.9-0.9,10.8-1.4c0.5-0.1,0.9-0.5,0.9-1c0-2.6,0-5.2,0-7.8S931.7,245.4,931.7,242.8z"/>
</g>
</svg>
