<?xml version="1.0" encoding="utf-8"?>
<!-- Generator: Adobe Illustrator 26.3.0, SVG Export Plug-In . SVG Version: 6.00 Build 0)  -->
<svg version="1.1" id="Layer_1" xmlns="http://www.w3.org/2000/svg" xmlns:xlink="http://www.w3.org/1999/xlink" x="0px" y="0px"
	 viewBox="0 0 1752.9 264.1" style="enable-background:new 0 0 1752.9 264.1;" xml:space="preserve">
<style type="text/css">
	.st0{fill:#643BFF;}
</style>
<path class="st0" d="M1654.9,127.3c-1.9-0.3-3.5-0.5-5.1-0.7c-8.3-1.3-17.2-2.7-26-4.2l-9.1-1.5c-6.2-1.1-12.3-2.1-18.5-3.1
	c-5.2-0.9-10.4-1.9-15.5-2.9l0,0c-3.2-0.6-6.6-1.3-9.9-2c-8.8-1.6-17.4-3.5-25.8-5.4c-4.4-0.9-9.1-2-13.5-2.9
	c-7.4-1.6-14.7-3.4-21.9-5.2l-2.2-0.4l-9.1-2.2h-0.2c-9.8-2.4-20.1-5-30.2-7.8c-3.4-1-6.7-2-10.1-2.9l-0.2-0.1
	c-8.6-2.4-17.5-5-26.5-7.7l-1.9-0.6c-14.7-4.5-29.8-9.2-44.8-14.2c-19.7-6.7-37.7-13-55.4-19.6l-2.9-1.1
	c-15.2-5.6-30.7-11.4-46-17.9c-4.6-2-9.3-3.9-14-5.7l0,0c-6.1-2.5-12.3-5-18.5-7.7c-2.7-1.2-5.4-2.3-8.1-3.5l-1-0.4
	c-5.1-2.6-11.1-5-16.9-7.6c-0.2,0-0.2,0-0.3,0l0,0H0v264h1221.4v-0.3c0.2,0.2,0.3,0.4,0.5,0.2c5.7-2.5,11.5-5,17.2-7.4l0.8-0.4
	c2.7-1.2,5.4-2.3,8.1-3.5c6.2-2.7,12.5-5.2,18.4-7.7l0,0c4.6-1.9,9.4-3.8,14-5.7c15.3-6.5,30.8-12.3,46-17.9l2.9-1.1
	c17.5-6.6,35.7-13,55.4-19.6c15-5,30.2-9.6,44.8-14.2l1.9-0.6c8.8-2.7,17.7-5.2,26.5-7.7h0.2c3.4-1,6.7-1.9,10.1-2.9
	c10.1-2.9,20.2-5.4,30-7.8h0.2l9.1-2.2l2.2-0.5c7.1-1.8,14.5-3.6,21.9-5.2c4.6-0.9,9.1-2,13.5-2.9c8.4-1.9,17-3.7,25.8-5.4
	c3.4-0.6,6.6-1.3,9.8-1.9l0,0c5.1-1,10.1-2.1,15.5-3c6.1-1,12.3-2,18.4-3.1l9.1-1.5c8.8-1.5,17.7-2.9,26-4.2
	c1.5-0.3,3.2-0.5,5.1-0.7c0.3-0.1,0.5-0.3,0.3-0.5v-4.1c0-1.4,0.2-2.9,0.2-4.3C1655.4,127.7,1655.2,127.5,1654.9,127.3z"/>
<path class="st0" d="M1649.2,107.6c3.3-1.2,6.7-2.1,10.1-2.4c3.3-0.4,6.7-0.3,10,0.2c5.7,0.8,10.9,3.4,14.9,7.5
	c0.4,0.5,0.9,0.9,1.3,1.4c0.7,0.7,0.6,1.2-0.5,1.3c-3.4,0.6-6.7,1.4-10,2.4c-2.4,0.7-4.7,1.6-7,2.5c-0.9,0.4-1.3,0.2-1.7-0.7
	c-1.4-2.9-3.7-5.4-6.5-7c-3.1-2-6.5-3.6-10-4.8C1649.7,107.9,1649.4,107.7,1649.2,107.6z"/>
<path class="st0" d="M1664,159.1c-4.7,0.2-9.3-0.4-13.8-1.6c-0.3-0.1-0.8,0-0.9-0.5c-0.1-0.5,0.5-0.5,0.8-0.6c3.6-1.3,7-3,10.1-5.2
	c2.7-1.9,5-4.1,6.2-7.2c0.2-0.7,0.6-0.7,1.2-0.5c3.6,1.4,7.3,2.5,11.1,3.2c1.9,0.4,3.8,0.7,5.7,1c0.4,0.1,1,0,1.1,0.6
	c0.1,0.4-0.1,0.9-0.4,1.2c-3.9,4.7-9.3,7.8-15.3,8.9C1667.8,158.7,1665.9,158.9,1664,159.1z"/>
<path class="st0" d="M1731.6,131.6c-0.1-2.4,0.6-4.7,1.9-6.7c0.9-1.4,1.2-1.5,2.9-0.7c3.8,1.8,7.4,3.9,10.8,6.4
	c1.1,0.8,1,1.1-0.1,1.9c-3.6,2.5-7.4,4.8-11.4,6.7c-0.6,0.3-0.9,0.3-1.4-0.1c-1.6-1.5-2.5-3.5-2.8-5.6
	C1731.5,132.9,1731.5,132.3,1731.6,131.6z"/>
<path class="st0" d="M1657.2,132.5c0-2.6,0-5.1,0-7.7c0-0.5-0.1-1.3,0.8-1.2s2.1-0.3,2.1,1.2c0,5,0,10.1,0,15.1
	c0,0.7-1.2,1.3-2.3,1.2c-0.8-0.1-0.6-0.8-0.6-1.2C1657.2,137.4,1657.2,134.9,1657.2,132.5z"/>
<path class="st0" d="M1729.8,129.6c0.3-2.2,1.2-4.2,2.7-5.9c0.6-0.8,0.4-1.1-0.5-1.4c-2.8-1.1-5.7-1.9-8.6-2.6
	c-1.9-0.4-3.8-1-5.7-1.3c-3.3-0.5-6.6-0.8-10-1.1c-4.1-0.3-8.1-0.3-12.2,0c-3.2,0.2-6.4,0.6-9.6,1.1c-3.1,0.5-6.2,1.1-9.2,1.9
	c-2.2,0.6-4.3,1.2-6.4,2s-4.1,1.4-6.1,2.2c-1.1,0.4-2.5,0.7-2.4,2.1c0.2,3.6,0.2,7.3,0.2,10.9c0,0.4,0.2,0.8,0.7,1
	c1.1,0.4,2.1,1,3.2,1.4c5.9,2.2,12,3.8,18.3,4.8c5.6,0.8,11.2,1.2,16.8,1.2c2.6,0,5.2-0.1,7.8-0.2c3.1-0.2,6.1-0.6,9.2-1.1
	c1.9-0.3,3.7-0.7,5.5-1.2c2.8-0.7,5.5-1.5,8.1-2.5c1.4-0.6,1.5-0.7,0.7-1.8C1729.8,136.2,1729.5,132.9,1729.8,129.6z M1710.1,139.4
	c-4.1,0-7.5-3.3-7.5-7.5c0-4.1,3.3-7.5,7.5-7.5s7.5,3.3,7.5,7.5l0,0C1717.6,136.1,1714.2,139.4,1710.1,139.4L1710.1,139.4z"/>
</svg>
