<?xml version="1.0" encoding="utf-8"?>
<!-- Generator: Adobe Illustrator 26.3.0, SVG Export Plug-In . SVG Version: 6.00 Build 0)  -->
<svg version="1.1" id="Layer_1" xmlns="http://www.w3.org/2000/svg" xmlns:xlink="http://www.w3.org/1999/xlink" x="0px" y="0px"
	 viewBox="0 0 3413.1 264.1" style="enable-background:new 0 0 3413.1 264.1;" xml:space="preserve">
<style type="text/css">
	.st0{fill:#643BFF;}
</style>
<path class="st0" d="M3314.7,127.3c-3.7-0.3-7.1-0.5-10.1-0.7c-16.5-1.3-34.4-2.7-52-4.2l-18.2-1.5c-12.5-1.1-24.6-2.1-37.1-3.1
	c-10.5-0.9-20.9-1.9-31.1-2.9l0,0c-6.4-0.6-13.2-1.3-19.9-2c-17.6-1.6-34.8-3.5-51.6-5.4c-8.8-0.9-18.2-2-27-2.9
	c-14.9-1.6-29.4-3.4-43.9-5.2l-4.4-0.4l-18.2-2.2h-0.3c-19.6-2.4-40.2-5-60.4-7.8c-6.8-1-13.5-2-20.3-2.9l-0.3-0.1
	c-17.2-2.4-35.1-5-53-7.7l-3.7-0.6c-29.4-4.5-59.7-9.2-89.8-14.2c-39.5-6.7-75.6-13-111.1-19.6l-5.7-1.1
	c-30.4-5.6-61.4-11.4-92.1-17.9c-9.1-2-18.6-3.9-28-5.7l0,0c-12.2-2.5-24.6-5-37.1-7.7c-5.4-1.2-10.8-2.3-16.2-3.5l-2-0.4
	c-10.1-2.6-22.3-5-33.8-7.6c-0.3,0-0.3,0-0.7,0l0,0H0v264h2446.5v-0.3c0.3,0.2,0.7,0.4,1,0.2c11.5-2.5,23-5,34.4-7.4l1.7-0.4
	c5.4-1.2,10.8-2.3,16.2-3.5c12.5-2.7,25-5.2,36.8-7.7l0,0c9.1-1.9,18.9-3.8,28-5.7c30.7-6.5,61.8-12.3,92.1-17.9l5.7-1.1
	c35.1-6.6,71.6-13,111.1-19.6c30-5,60.4-9.6,89.8-14.2l3.7-0.6c17.6-2.7,35.4-5.2,53-7.7h0.3c6.8-1,13.5-1.9,20.3-2.9
	c20.3-2.9,40.5-5.4,60.1-7.8h0.3l18.2-2.2l4.4-0.5c14.2-1.8,29-3.6,43.9-5.2c9.1-0.9,18.2-2,27-2.9c16.9-1.9,34.1-3.7,51.6-5.4
	c6.8-0.6,13.2-1.3,19.6-1.9l0,0c10.1-1,20.3-2.1,31.1-3c12.2-1,24.6-2,36.8-3.1l18.2-1.5c17.6-1.5,35.4-2.9,52-4.2
	c3-0.3,6.4-0.5,10.1-0.7c0.7-0.1,1-0.3,0.7-0.5v-4.1c0-1.4,0.3-2.9,0.3-4.3C3315.7,127.7,3315.4,127.5,3314.7,127.3z"/>
<path class="st0" d="M3309.4,107.6c3.3-1.2,6.7-2.1,10.1-2.4c3.3-0.4,6.7-0.3,10,0.2c5.7,0.8,10.9,3.4,14.9,7.5
	c0.4,0.5,0.9,0.9,1.3,1.4c0.7,0.7,0.6,1.2-0.5,1.3c-3.4,0.6-6.7,1.4-10,2.4c-2.4,0.7-4.7,1.6-7,2.5c-0.9,0.4-1.3,0.2-1.7-0.7
	c-1.4-2.9-3.7-5.4-6.5-7c-3.1-2-6.5-3.6-10-4.8C3309.9,107.9,3309.6,107.7,3309.4,107.6z"/>
<path class="st0" d="M3324.2,159.1c-4.7,0.2-9.3-0.4-13.8-1.6c-0.3-0.1-0.8,0-0.9-0.5s0.5-0.5,0.8-0.6c3.6-1.3,7-3,10.1-5.2
	c2.7-1.9,5-4.1,6.2-7.2c0.2-0.7,0.6-0.7,1.2-0.5c3.6,1.4,7.3,2.5,11.1,3.2c1.9,0.4,3.8,0.7,5.7,1c0.4,0.1,1,0,1.1,0.6
	c0.1,0.4-0.1,0.9-0.4,1.2c-3.9,4.7-9.3,7.8-15.3,8.9C3328,158.7,3326.1,158.9,3324.2,159.1z"/>
<path class="st0" d="M3391.8,131.6c-0.1-2.4,0.6-4.7,1.9-6.7c0.9-1.4,1.2-1.5,2.9-0.7c3.8,1.8,7.4,3.9,10.8,6.4
	c1.1,0.8,1,1.1-0.1,1.9c-3.6,2.5-7.4,4.8-11.4,6.7c-0.6,0.3-0.9,0.3-1.4-0.1c-1.6-1.5-2.5-3.5-2.8-5.6
	C3391.7,132.9,3391.7,132.3,3391.8,131.6z"/>
<path class="st0" d="M3317.4,132.5c0-2.6,0-5.1,0-7.7c0-0.5-0.1-1.3,0.8-1.2c0.9,0.1,2.1-0.3,2.1,1.2c0,5,0,10.1,0,15.1
	c0,0.7-1.2,1.3-2.3,1.2c-0.8-0.1-0.6-0.8-0.6-1.2C3317.4,137.4,3317.4,134.9,3317.4,132.5z"/>
<path class="st0" d="M3390,129.6c0.3-2.2,1.2-4.2,2.7-5.9c0.6-0.8,0.4-1.1-0.5-1.4c-2.8-1.1-5.7-1.9-8.6-2.6c-1.9-0.4-3.8-1-5.7-1.3
	c-3.3-0.5-6.6-0.8-10-1.1c-4.1-0.3-8.1-0.3-12.2,0c-3.2,0.2-6.4,0.6-9.6,1.1c-3.1,0.5-6.2,1.1-9.2,1.9c-2.2,0.6-4.3,1.2-6.4,2
	c-2.1,0.8-4.1,1.4-6.1,2.2c-1.1,0.4-2.5,0.7-2.4,2.1c0.2,3.6,0.2,7.3,0.2,10.9c0,0.4,0.2,0.8,0.7,1c1.1,0.4,2.1,1,3.2,1.4
	c5.9,2.2,12,3.8,18.3,4.8c5.6,0.8,11.2,1.2,16.8,1.2c2.6,0,5.2-0.1,7.8-0.2c3.1-0.2,6.1-0.6,9.2-1.1c1.9-0.3,3.7-0.7,5.5-1.2
	c2.8-0.7,5.5-1.5,8.1-2.5c1.4-0.6,1.5-0.7,0.7-1.8C3390,136.2,3389.7,132.9,3390,129.6z M3370.3,139.4c-4.1,0-7.5-3.3-7.5-7.5
	c0-4.1,3.3-7.5,7.5-7.5s7.5,3.3,7.5,7.5l0,0C3377.8,136.1,3374.4,139.4,3370.3,139.4L3370.3,139.4z"/>
</svg>
