<?xml version="1.0" encoding="utf-8"?>
<!-- Generator: Adobe Illustrator 26.3.0, SVG Export Plug-In . SVG Version: 6.00 Build 0)  -->
<svg version="1.1" id="Layer_1" xmlns="http://www.w3.org/2000/svg" xmlns:xlink="http://www.w3.org/1999/xlink" x="0px" y="0px"
	 viewBox="0 0 1894.3 264.1" style="enable-background:new 0 0 1894.3 264.1;" xml:space="preserve">
<style type="text/css">
	.st0{fill:#643BFF;}
</style>
<path class="st0" d="M1795.7,127.3c-2.4-0.3-4.6-0.5-6.6-0.7c-10.8-1.3-22.5-2.7-34-4.2l-11.9-1.5c-8.2-1.1-16.1-2.1-24.3-3.1
	c-6.8-0.9-13.7-1.9-20.3-2.9c-4.2-0.6-8.6-1.3-13-2c-11.5-1.6-22.8-3.5-33.8-5.4c-5.7-0.9-11.9-2-17.7-2.9
	c-9.7-1.6-19.2-3.4-28.7-5.2l-2.9-0.4l-11.9-2.2h-0.2c-12.8-2.4-26.3-5-39.5-7.8c-4.4-1-8.8-2-13.3-2.9l-0.2-0.1
	c-11.3-2.4-23-5-34.7-7.7l-2.4-0.6c-19.2-4.5-39.1-9.2-58.8-14.2c-25.8-6.7-49.5-13-72.7-19.6l-3.8-1.1
	c-19.9-5.6-40.2-11.4-60.3-17.9c-6-2-12.1-3.9-18.3-5.7c-8-2.5-16.1-5-24.3-7.7c-3.5-1.2-7.1-2.3-10.6-3.5l-1.3-0.4
	c-6.6-2.6-14.6-5-22.1-7.6c-0.2,0-0.2,0-0.4,0H0v264h1227.6v-0.3c0.2,0.2,0.4,0.4,0.7,0.2c7.5-2.5,15-5,22.5-7.4l1.1-0.4
	c3.5-1.2,7.1-2.3,10.6-3.5c8.2-2.7,16.3-5.2,24.1-7.7c6-1.9,12.4-3.8,18.3-5.7c20.1-6.5,40.4-12.3,60.3-17.9l3.8-1.1
	c23-6.6,46.8-13,72.7-19.6c19.7-5,39.5-9.6,58.8-14.2l2.4-0.6c11.5-2.7,23.2-5.2,34.7-7.7h0.2c4.4-1,8.8-1.9,13.3-2.9
	c13.3-2.9,26.5-5.4,39.3-7.8h0.2l11.9-2.2l2.9-0.5c9.3-1.8,19-3.6,28.7-5.2c6-0.9,11.9-2,17.7-2.9c11-1.9,22.3-3.7,33.8-5.4
	c4.4-0.6,8.6-1.3,12.8-1.9c6.6-1,13.3-2.1,20.3-3c8-1,16.1-2,24.1-3.1l11.9-1.5c11.5-1.5,23.2-2.9,34-4.2c2-0.3,4.2-0.5,6.6-0.7
	c0.4-0.1,0.7-0.3,0.4-0.5v-4.1c0-1.4,0.2-2.9,0.2-4.3C1796.4,127.7,1796.2,127.5,1795.7,127.3z"/>
<g>
	<path class="st0" d="M1790.3,107.6c3.3-1.2,6.7-2.1,10.1-2.4c3.3-0.4,6.7-0.3,10,0.2c5.7,0.8,10.9,3.4,14.9,7.5
		c0.4,0.5,0.9,0.9,1.3,1.4c0.7,0.7,0.6,1.2-0.5,1.3c-3.4,0.6-6.7,1.4-10,2.4c-2.4,0.7-4.7,1.6-7,2.5c-0.9,0.4-1.3,0.2-1.7-0.7
		c-1.4-2.9-3.7-5.4-6.5-7c-3.1-2-6.5-3.6-10-4.8C1790.8,107.9,1790.5,107.7,1790.3,107.6z"/>
	<path class="st0" d="M1805.1,159.1c-4.7,0.2-9.3-0.4-13.8-1.6c-0.3-0.1-0.8,0-0.9-0.5c-0.1-0.5,0.5-0.5,0.8-0.6
		c3.6-1.3,7-3,10.1-5.2c2.7-1.9,5-4.1,6.2-7.2c0.2-0.7,0.6-0.7,1.2-0.5c3.6,1.4,7.3,2.5,11.1,3.2c1.9,0.4,3.8,0.7,5.7,1
		c0.4,0.1,1,0,1.1,0.6c0.1,0.4-0.1,0.9-0.4,1.2c-3.9,4.7-9.3,7.8-15.3,8.9C1808.9,158.7,1807,158.9,1805.1,159.1z"/>
	<path class="st0" d="M1872.7,131.6c-0.1-2.4,0.6-4.7,1.9-6.7c0.9-1.4,1.2-1.5,2.9-0.7c3.8,1.8,7.4,3.9,10.8,6.4
		c1.1,0.8,1,1.1-0.1,1.9c-3.6,2.5-7.4,4.8-11.4,6.7c-0.6,0.3-0.9,0.3-1.4-0.1c-1.6-1.5-2.5-3.5-2.8-5.6
		C1872.6,132.9,1872.6,132.3,1872.7,131.6z"/>
	<path class="st0" d="M1798.3,132.5c0-2.6,0-5.1,0-7.7c0-0.5-0.1-1.3,0.8-1.2c0.9,0.1,2.1-0.3,2.1,1.2c0,5,0,10.1,0,15.1
		c0,0.7-1.2,1.3-2.3,1.2c-0.8-0.1-0.6-0.8-0.6-1.2C1798.3,137.4,1798.3,134.9,1798.3,132.5z"/>
	<path class="st0" d="M1870.9,129.6c0.3-2.2,1.2-4.2,2.7-5.9c0.6-0.8,0.4-1.1-0.5-1.4c-2.8-1.1-5.7-1.9-8.6-2.6
		c-1.9-0.4-3.8-1-5.7-1.3c-3.3-0.5-6.6-0.8-10-1.1c-4.1-0.3-8.1-0.3-12.2,0c-3.2,0.2-6.4,0.6-9.6,1.1c-3.1,0.5-6.2,1.1-9.2,1.9
		c-2.2,0.6-4.3,1.2-6.4,2c-2.1,0.8-4.1,1.4-6.1,2.2c-1.1,0.4-2.5,0.7-2.4,2.1c0.2,3.6,0.2,7.3,0.2,10.9c0,0.4,0.2,0.8,0.7,1
		c1.1,0.4,2.1,1,3.2,1.4c5.9,2.2,12,3.8,18.3,4.8c5.6,0.8,11.2,1.2,16.8,1.2c2.6,0,5.2-0.1,7.8-0.2c3.1-0.2,6.1-0.6,9.2-1.1
		c1.9-0.3,3.7-0.7,5.5-1.2c2.8-0.7,5.5-1.5,8.1-2.5c1.4-0.6,1.5-0.7,0.7-1.8C1870.9,136.2,1870.6,132.9,1870.9,129.6z M1851.2,139.4
		c-4.1,0-7.5-3.3-7.5-7.5c0-4.1,3.3-7.5,7.5-7.5s7.5,3.3,7.5,7.5l0,0C1858.7,136.1,1855.3,139.4,1851.2,139.4L1851.2,139.4z"/>
</g>
</svg>
