<svg id="Layer_1" data-name="Layer 1" xmlns="http://www.w3.org/2000/svg" viewBox="0 0 490.78 278.04"><defs><style>.cls-1{fill:#5c5aa7;}</style></defs><path class="cls-1" d="M490.89,135.9a.56.56,0,0,0-.48-.53c-2.05-.26-4-.47-5.69-.74-9.32-1.26-19.39-2.68-29.34-4.16l-10.23-1.53c-6.95-1-13.91-2.1-20.86-3.11-6-.89-11.8-2-17.49-3h-.06c-3.63-.63-7.42-1.31-11.16-1.95-9.86-1.63-19.6-3.53-29.14-5.37-5-1-10.22-2-15.28-2.9-8.38-1.58-16.65-3.37-24.71-5.16L324,107l-10.22-2.21-.26-.05c-11.12-2.43-22.66-5-34-7.8-3.84-1-7.64-2-11.48-2.9l-.16-.05C258.06,91.53,248,89,237.94,86.27l-2.17-.58c-16.59-4.48-33.82-9.17-50.68-14.18-22.23-6.58-42.73-13-62.65-19.54l-3.31-1.11C102.05,45.22,84.4,39.43,67.07,33c-5.22-2-10.54-3.9-15.81-5.75h0c-6.85-2.47-13.91-5-20.86-7.69-3.06-1.16-6.11-2.32-9.12-3.48l-1.05-.42C13.75,13,7.22,10.55.68,8A.49.49,0,0,0,0,8.5v263a.49.49,0,0,0,.68.48c6.54-2.53,13.07-5,19.39-7.43l1.06-.42c3.05-1.16,6.11-2.32,9.11-3.48,7-2.69,14.07-5.22,20.87-7.69h0c5.22-1.9,10.59-3.8,15.81-5.74C84.3,240.74,102,235,119,229.31l3.32-1.1c19.92-6.59,40.41-13,62.64-19.55,16.92-5,34.09-9.64,50.69-14.17l2.16-.58c10-2.69,20.07-5.22,29.87-7.7l.16-.05c3.85-.95,7.64-1.9,11.49-2.9,11.38-2.89,22.92-5.37,34-7.79l.27-.06,10.22-2.21,2.47-.53c8.07-1.79,16.34-3.63,24.71-5.16,5.12-.95,10.28-1.95,15.28-2.9,9.54-1.84,19.34-3.74,29.14-5.37,3.74-.63,7.48-1.32,11.17-2h.05c5.69-1,11.54-2.11,17.49-2.95,7-1.06,13.91-2.06,20.87-3.11l10.22-1.53c10-1.47,20-2.9,29.35-4.16,1.79-.26,3.63-.48,5.69-.74a.56.56,0,0,0,.47-.53v-4.11C490.78,138.8,490.89,137.27,490.89,135.9Z"/></svg>