<?xml version="1.0" encoding="utf-8"?>
<!-- Generator: Adobe Illustrator 26.3.0, SVG Export Plug-In . SVG Version: 6.00 Build 0)  -->
<svg version="1.1" id="Layer_1" xmlns="http://www.w3.org/2000/svg" xmlns:xlink="http://www.w3.org/1999/xlink" x="0px" y="0px"
	 viewBox="0 0 1922.7 264.1" style="enable-background:new 0 0 1922.7 264.1;" xml:space="preserve">
<style type="text/css">
	.st0{fill:#643BFF;}
</style>
<path class="st0" d="M1826.7,127.9c0.1-0.2-0.1-0.4-0.6-0.6c-2.6-0.3-4.8-0.5-7.1-0.7c-11.5-1.3-23.8-2.7-36-4.2l-12.6-1.5
	c-8.6-1.1-17-2.1-25.6-3.1c-7.2-0.9-14.4-1.9-21.4-2.9c-4.4-0.6-9.1-1.3-13.7-2c-12.2-1.6-24.1-3.5-35.7-5.4
	c-6.1-0.9-12.6-2-18.7-2.9c-10.2-1.6-20.3-3.4-30.3-5.2l-3-0.4l-12.6-2.2h-0.3c-13.6-2.4-27.8-5-41.8-7.8c-4.7-1-9.3-2-14-2.9
	l-0.3-0.1c-11.9-2.4-24.2-5-36.6-7.7l-2.6-0.6c-20.3-4.5-41.2-9.2-62-14.2c-27.2-6.7-52.1-13-76.6-19.6l-4-1.1
	c-21-5.6-42.5-11.4-63.6-17.9c-6.4-2-12.9-3.9-19.4-5.7c-8.4-2.5-17-5-25.6-7.7c-3.7-1.2-7.5-2.3-11.2-3.5l-1.4-0.4
	c-7.1-2.6-15.3-5-23.4-7.6c-0.3,0-0.3,0-0.4,0H0v264h1226.7v-0.3c0.3,0.2,0.4,0.4,0.7,0.2c7.9-2.5,15.9-5,23.8-7.4l1.1-0.4
	c3.7-1.2,7.5-2.3,11.2-3.5c8.6-2.7,17.3-5.2,25.4-7.7c6.4-1.9,13-3.8,19.4-5.7c21.2-6.5,42.6-12.3,63.6-17.9l4-1.1
	c24.2-6.6,49.4-13,76.6-19.6c20.7-5,41.8-9.6,62-14.2l2.6-0.6c12.2-2.7,24.5-5.2,36.6-7.7h0.3c4.7-1,9.3-1.9,14-2.9
	c14-2.9,27.9-5.4,41.5-7.8h0.3l12.6-2.2l3-0.5c9.8-1.8,20.1-3.6,30.3-5.2c6.4-0.9,12.6-2,18.7-2.9c11.6-1.9,23.5-3.7,35.7-5.4
	c4.7-0.6,9.1-1.3,13.6-1.9c7.1-1,14-2.1,21.4-3c8.4-1,17-2,25.4-3.1l12.6-1.5c12.2-1.5,24.5-2.9,36-4.2c2.1-0.3,4.4-0.5,7.1-0.7
	c0.4-0.1,0.7-0.3,0.4-0.5v-4.1C1826.4,130.8,1826.7,129.3,1826.7,127.9z"/>
<g>
	<path class="st0" d="M1820.6,107.6c3.3-1.2,6.7-2.1,10.1-2.4c3.3-0.4,6.7-0.3,10,0.2c5.7,0.8,10.9,3.4,14.9,7.5
		c0.4,0.5,0.9,0.9,1.3,1.4c0.7,0.7,0.6,1.2-0.5,1.3c-3.4,0.6-6.7,1.4-10,2.4c-2.4,0.7-4.7,1.6-7,2.5c-0.9,0.4-1.3,0.2-1.7-0.7
		c-1.4-2.9-3.7-5.4-6.5-7c-3.1-2-6.5-3.6-10-4.8C1821.1,107.9,1820.8,107.7,1820.6,107.6z"/>
	<path class="st0" d="M1835.4,159.1c-4.7,0.2-9.3-0.4-13.8-1.6c-0.3-0.1-0.8,0-0.9-0.5s0.5-0.5,0.8-0.6c3.6-1.3,7-3,10.1-5.2
		c2.7-1.9,5-4.1,6.2-7.2c0.2-0.7,0.6-0.7,1.2-0.5c3.6,1.4,7.3,2.5,11.1,3.2c1.9,0.4,3.8,0.7,5.7,1c0.4,0.1,1,0,1.1,0.6
		c0.1,0.4-0.1,0.9-0.4,1.2c-3.9,4.7-9.3,7.8-15.3,8.9C1839.2,158.7,1837.3,158.9,1835.4,159.1z"/>
	<path class="st0" d="M1903,131.6c-0.1-2.4,0.6-4.7,1.9-6.7c0.9-1.4,1.2-1.5,2.9-0.7c3.8,1.8,7.4,3.9,10.8,6.4
		c1.1,0.8,1,1.1-0.1,1.9c-3.6,2.5-7.4,4.8-11.4,6.7c-0.6,0.3-0.9,0.3-1.4-0.1c-1.6-1.5-2.5-3.5-2.8-5.6
		C1902.9,132.9,1902.9,132.3,1903,131.6z"/>
	<path class="st0" d="M1828.6,132.5c0-2.6,0-5.1,0-7.7c0-0.5-0.1-1.3,0.8-1.2s2.1-0.3,2.1,1.2c0,5,0,10.1,0,15.1
		c0,0.7-1.2,1.3-2.3,1.2c-0.8-0.1-0.6-0.8-0.6-1.2C1828.6,137.4,1828.6,134.9,1828.6,132.5z"/>
	<path class="st0" d="M1901.2,129.6c0.3-2.2,1.2-4.2,2.7-5.9c0.6-0.8,0.4-1.1-0.5-1.4c-2.8-1.1-5.7-1.9-8.6-2.6
		c-1.9-0.4-3.8-1-5.7-1.3c-3.3-0.5-6.6-0.8-10-1.1c-4.1-0.3-8.1-0.3-12.2,0c-3.2,0.2-6.4,0.6-9.6,1.1c-3.1,0.5-6.2,1.1-9.2,1.9
		c-2.2,0.6-4.3,1.2-6.4,2s-4.1,1.4-6.1,2.2c-1.1,0.4-2.5,0.7-2.4,2.1c0.2,3.6,0.2,7.3,0.2,10.9c0,0.4,0.2,0.8,0.7,1
		c1.1,0.4,2.1,1,3.2,1.4c5.9,2.2,12,3.8,18.3,4.8c5.6,0.8,11.2,1.2,16.8,1.2c2.6,0,5.2-0.1,7.8-0.2c3.1-0.2,6.1-0.6,9.2-1.1
		c1.9-0.3,3.7-0.7,5.5-1.2c2.8-0.7,5.5-1.5,8.1-2.5c1.4-0.6,1.5-0.7,0.7-1.8C1901.2,136.2,1900.9,132.9,1901.2,129.6z M1881.5,139.4
		c-4.1,0-7.5-3.3-7.5-7.5c0-4.1,3.3-7.5,7.5-7.5s7.5,3.3,7.5,7.5l0,0C1889,136.1,1885.6,139.4,1881.5,139.4L1881.5,139.4z"/>
</g>
</svg>
