<?xml version="1.0" encoding="utf-8"?>
<!-- Generator: Adobe Illustrator 26.3.0, SVG Export Plug-In . SVG Version: 6.00 Build 0)  -->
<svg version="1.1" id="Layer_1" xmlns="http://www.w3.org/2000/svg" xmlns:xlink="http://www.w3.org/1999/xlink" x="0px" y="0px"
	 viewBox="0 0 1922.7 301.2" style="enable-background:new 0 0 1922.7 301.2;" xml:space="preserve">
<style type="text/css">
	.st0{fill:#643BFF;}
</style>
<path class="st0" d="M1826.7,145.9c0.1-0.2-0.1-0.5-0.6-0.7c-2.6-0.3-4.8-0.6-7.1-0.8c-11.5-1.5-23.8-3.1-36-4.8l-12.6-1.7
	c-8.6-1.3-17-2.4-25.6-3.5c-7.2-1-14.4-2.2-21.4-3.3c-4.4-0.7-9.1-1.5-13.7-2.3c-12.2-1.8-24.1-4-35.7-6.2c-6.1-1-12.6-2.3-18.7-3.3
	c-10.2-1.8-20.3-3.9-30.3-5.9l-3-0.5l-12.6-2.5h-0.3c-13.6-2.7-27.8-5.7-41.8-8.9c-4.7-1.1-9.3-2.3-14-3.3l-0.3-0.1
	c-11.9-2.7-24.2-5.7-36.6-8.8l-2.6-0.7c-20.3-5.1-41.2-10.5-62-16.2c-27.2-7.6-52.1-14.8-76.6-22.4l-4-1.3
	c-21-6.4-42.5-13-63.6-20.4c-6.4-2.3-12.9-4.4-19.4-6.5c-8.4-2.9-17-5.7-25.6-8.8c-3.7-1.4-7.5-2.6-11.2-4l-1.4-0.5
	c-7.1-3-15.3-5.7-23.4-8.7c-0.3,0-0.3,0-0.4,0H0v301.1h1226.7v-0.3c0.3,0.2,0.4,0.5,0.7,0.2c7.9-2.9,15.9-5.7,23.8-8.4l1.1-0.5
	c3.7-1.4,7.5-2.6,11.2-4c8.6-3.1,17.3-5.9,25.4-8.8c6.4-2.2,13-4.3,19.4-6.5c21.2-7.4,42.6-14,63.6-20.4l4-1.3
	c24.2-7.5,49.4-14.8,76.6-22.4c20.7-5.7,41.8-11,62-16.2l2.6-0.7c12.2-3.1,24.5-5.9,36.6-8.8h0.3c4.7-1.1,9.3-2.2,14-3.3
	c14-3.3,27.9-6.2,41.5-8.9h0.3l12.6-2.5l3-0.6c9.8-2.1,20.1-4.1,30.3-5.9c6.4-1,12.6-2.3,18.7-3.3c11.6-2.2,23.5-4.2,35.7-6.2
	c4.7-0.7,9.1-1.5,13.6-2.2c7.1-1.1,14-2.4,21.4-3.4c8.4-1.1,17-2.3,25.4-3.5l12.6-1.7c12.2-1.7,24.5-3.3,36-4.8
	c2.1-0.3,4.4-0.6,7.1-0.8c0.4-0.1,0.7-0.3,0.4-0.6v-4.7C1826.4,149.2,1826.7,147.5,1826.7,145.9z"/>
<g>
	<path class="st0" d="M1820.6,126.2c3.3-1.2,6.7-2.1,10.1-2.4c3.3-0.4,6.7-0.3,10,0.2c5.7,0.8,10.9,3.4,14.9,7.5
		c0.4,0.5,0.9,0.9,1.3,1.4c0.7,0.7,0.6,1.2-0.5,1.3c-3.4,0.6-6.7,1.4-10,2.4c-2.4,0.7-4.7,1.6-7,2.5c-0.9,0.4-1.3,0.2-1.7-0.7
		c-1.4-2.9-3.7-5.4-6.5-7c-3.1-2-6.5-3.6-10-4.8C1821.1,126.5,1820.8,126.3,1820.6,126.2z"/>
	<path class="st0" d="M1835.4,177.7c-4.7,0.2-9.3-0.4-13.8-1.6c-0.3-0.1-0.8,0-0.9-0.5s0.5-0.5,0.8-0.6c3.6-1.3,7-3,10.1-5.2
		c2.7-1.9,5-4.1,6.2-7.2c0.2-0.7,0.6-0.7,1.2-0.5c3.6,1.4,7.3,2.5,11.1,3.2c1.9,0.4,3.8,0.7,5.7,1c0.4,0.1,1,0,1.1,0.6
		c0.1,0.4-0.1,0.9-0.4,1.2c-3.9,4.7-9.3,7.8-15.3,8.9C1839.2,177.3,1837.3,177.5,1835.4,177.7z"/>
	<path class="st0" d="M1903,150.2c-0.1-2.4,0.6-4.7,1.9-6.7c0.9-1.4,1.2-1.5,2.9-0.7c3.8,1.8,7.4,3.9,10.8,6.4
		c1.1,0.8,1,1.1-0.1,1.9c-3.6,2.5-7.4,4.8-11.4,6.7c-0.6,0.3-0.9,0.3-1.4-0.1c-1.6-1.5-2.5-3.5-2.8-5.6
		C1902.9,151.5,1902.9,150.9,1903,150.2z"/>
	<path class="st0" d="M1828.6,151.1c0-2.6,0-5.1,0-7.7c0-0.5-0.1-1.3,0.8-1.2s2.1-0.3,2.1,1.2c0,5,0,10.1,0,15.1
		c0,0.7-1.2,1.3-2.3,1.2c-0.8-0.1-0.6-0.8-0.6-1.2C1828.6,156,1828.6,153.5,1828.6,151.1z"/>
	<path class="st0" d="M1901.2,148.2c0.3-2.2,1.2-4.2,2.7-5.9c0.6-0.8,0.4-1.1-0.5-1.4c-2.8-1.1-5.7-1.9-8.6-2.6
		c-1.9-0.4-3.8-1-5.7-1.3c-3.3-0.5-6.6-0.8-10-1.1c-4.1-0.3-8.1-0.3-12.2,0c-3.2,0.2-6.4,0.6-9.6,1.1c-3.1,0.5-6.2,1.1-9.2,1.9
		c-2.2,0.6-4.3,1.2-6.4,2s-4.1,1.4-6.1,2.2c-1.1,0.4-2.5,0.7-2.4,2.1c0.2,3.6,0.2,7.3,0.2,10.9c0,0.4,0.2,0.8,0.7,1
		c1.1,0.4,2.1,1,3.2,1.4c5.9,2.2,12,3.8,18.3,4.8c5.6,0.8,11.2,1.2,16.8,1.2c2.6,0,5.2-0.1,7.8-0.2c3.1-0.2,6.1-0.6,9.2-1.1
		c1.9-0.3,3.7-0.7,5.5-1.2c2.8-0.7,5.5-1.5,8.1-2.5c1.4-0.6,1.5-0.7,0.7-1.8C1901.2,154.8,1900.9,151.5,1901.2,148.2z M1881.5,158
		c-4.1,0-7.5-3.3-7.5-7.5c0-4.1,3.3-7.5,7.5-7.5s7.5,3.3,7.5,7.5l0,0C1889,154.7,1885.6,158,1881.5,158L1881.5,158z"/>
</g>
</svg>
