<?xml version="1.0" encoding="utf-8"?>
<!-- Generator: Adobe Illustrator 24.3.0, SVG Export Plug-In . SVG Version: 6.00 Build 0)  -->
<svg version="1.1" id="Layer_1" xmlns="http://www.w3.org/2000/svg" xmlns:xlink="http://www.w3.org/1999/xlink" x="0px" y="0px"
	 viewBox="0 0 1327.3 264.1" style="enable-background:new 0 0 1327.3 264.1;" xml:space="preserve">
<style type="text/css">
	.st0{fill:#643BFF;}
</style>
<path class="st0" d="M1229.4,127.3c-1.1-0.3-2.1-0.5-3-0.7c-4.9-1.3-10.2-2.7-15.4-4.2l-5.4-1.5c-3.7-1.1-7.3-2.1-11-3.1
	c-3.1-0.9-6.2-1.9-9.2-2.9l0,0c-1.9-0.6-3.9-1.3-5.9-2c-5.2-1.6-10.3-3.5-15.3-5.4c-2.6-0.9-5.4-2-8-2.9c-4.4-1.6-8.7-3.4-13-5.2
	l-1.3-0.4l-5.4-2.2h-0.1c-5.8-2.4-11.9-5-17.9-7.8c-2-1-4-2-6-2.9l-0.1-0.1c-5.1-2.4-10.4-5-15.7-7.7l-1.1-0.6
	c-8.7-4.5-17.7-9.2-26.6-14.2c-11.7-6.7-22.4-13-32.9-19.6l-1.7-1.1c-9-5.6-18.2-11.4-27.3-17.9c-2.7-2-5.5-3.9-8.3-5.7l0,0
	c-3.6-2.5-7.3-5-11-7.7c-1.6-1.2-3.2-2.3-4.8-3.5l-0.6-0.4c-3.4-2.6-7-5.1-10.4-7.6c-0.1,0-0.1,0-0.2,0l0,0H0v264h972.2v-0.3
	c0.1,0.2,0.2,0.4,0.3,0.2c3.4-2.5,6.8-5,10.2-7.4l0.5-0.4c1.6-1.2,3.2-2.3,4.8-3.5c3.7-2.7,7.4-5.2,10.9-7.7l0,0
	c2.7-1.9,5.6-3.8,8.3-5.7c9.1-6.5,18.3-12.3,27.3-17.9l1.7-1.1c10.4-6.6,21.2-13,32.9-19.6c8.9-5,17.9-9.6,26.6-14.2l1.1-0.6
	c5.2-2.7,10.5-5.2,15.7-7.7h0.1c2-1,4-1.9,6-2.9c6-2.9,12-5.4,17.8-7.8h0.1l5.4-2.2l1.3-0.5c4.2-1.8,8.6-3.6,13-5.2
	c2.7-0.9,5.4-2,8-2.9c5-1.9,10.1-3.7,15.3-5.4c2-0.6,3.9-1.3,5.8-1.9l0,0c3-1,6-2.1,9.2-3c3.6-1,7.3-2,10.9-3.1l5.4-1.5
	c5.2-1.5,10.5-2.9,15.4-4.2c0.9-0.3,1.9-0.5,3-0.7c0.2-0.1,0.3-0.3,0.2-0.5v-4.1c0-1.4,0.1-2.9,0.1-4.3
	C1229.7,127.7,1229.6,127.5,1229.4,127.3z"/>
<path class="st0" d="M1223.6,107.6c3.3-1.2,6.7-2.1,10.1-2.4c3.3-0.4,6.7-0.3,10,0.2c5.7,0.8,10.9,3.4,14.9,7.5
	c0.4,0.5,0.9,0.9,1.3,1.4c0.7,0.7,0.6,1.2-0.5,1.3c-3.4,0.6-6.7,1.4-10,2.4c-2.4,0.7-4.7,1.6-7,2.5c-0.9,0.4-1.3,0.2-1.7-0.7
	c-1.4-2.9-3.7-5.4-6.5-7c-3.1-2-6.5-3.6-10-4.8C1224,107.9,1223.8,107.7,1223.6,107.6z"/>
<path class="st0" d="M1238.4,159.1c-4.7,0.2-9.3-0.4-13.8-1.6c-0.3-0.1-0.8,0-0.9-0.5c0-0.5,0.5-0.5,0.8-0.6c3.6-1.3,7-3,10.1-5.2
	c2.7-1.9,5-4.1,6.2-7.2c0.2-0.7,0.6-0.7,1.2-0.5c3.6,1.4,7.3,2.5,11.1,3.2c1.9,0.4,3.8,0.7,5.7,1c0.4,0.1,1,0,1.1,0.6
	c0.1,0.4-0.1,0.9-0.4,1.2c-3.9,4.7-9.3,7.8-15.3,8.9C1242.2,158.7,1240.3,158.9,1238.4,159.1z"/>
<path class="st0" d="M1306,131.6c-0.1-2.4,0.6-4.7,2-6.7c0.9-1.4,1.2-1.5,2.9-0.7c3.8,1.8,7.4,3.9,10.8,6.4c1.1,0.8,1,1.1-0.1,1.9
	c-3.6,2.5-7.4,4.8-11.4,6.7c-0.6,0.3-0.9,0.3-1.4-0.1c-1.6-1.5-2.5-3.5-2.8-5.6C1305.9,132.9,1305.9,132.3,1306,131.6z"/>
<path class="st0" d="M1231.6,132.5c0-2.6,0-5.1,0-7.7c0-0.5-0.1-1.3,0.8-1.2c0.8,0.2,2.1-0.3,2.1,1.2c0,5,0,10.1,0,15.1
	c0,0.7-1.2,1.3-2.3,1.2c-0.8-0.1-0.6-0.8-0.6-1.2C1231.6,137.4,1231.6,134.9,1231.6,132.5z"/>
<path class="st0" d="M1304.2,129.6c0.3-2.2,1.2-4.2,2.7-5.9c0.6-0.8,0.4-1.1-0.5-1.4c-2.8-1.1-5.7-1.9-8.6-2.6
	c-1.9-0.4-3.8-1-5.7-1.3c-3.3-0.5-6.6-0.8-10-1.1c-4.1-0.3-8.1-0.3-12.2,0c-3.2,0.2-6.4,0.6-9.6,1.1c-3.1,0.5-6.2,1.1-9.2,1.9
	c-2.2,0.6-4.3,1.2-6.4,2s-4.1,1.4-6.1,2.2c-1.1,0.4-2.5,0.7-2.4,2.1c0.2,3.6,0.2,7.3,0.2,10.9c0,0.4,0.2,0.8,0.7,1
	c1.1,0.4,2.1,1,3.2,1.4c5.9,2.2,12,3.8,18.3,4.8c5.6,0.8,11.2,1.2,16.8,1.2c2.6,0,5.2-0.1,7.8-0.2c3.1-0.2,6.1-0.6,9.2-1.1
	c1.9-0.3,3.7-0.7,5.5-1.2c2.8-0.7,5.5-1.5,8.1-2.5c1.4-0.6,1.5-0.7,0.7-1.8C1304.2,136.2,1303.9,132.9,1304.2,129.6z M1284.5,139.4
	c-4.1,0-7.5-3.3-7.5-7.5c0-4.1,3.3-7.5,7.5-7.5c4.1,0,7.5,3.3,7.5,7.5c0,0,0,0,0,0C1292,136.1,1288.6,139.4,1284.5,139.4
	C1284.5,139.4,1284.5,139.4,1284.5,139.4z"/>
</svg>
