<?xml version="1.0" encoding="utf-8"?>
<!-- Generator: Adobe Illustrator 24.3.0, SVG Export Plug-In . SVG Version: 6.00 Build 0)  -->
<svg version="1.1" id="Layer_1" xmlns="http://www.w3.org/2000/svg" xmlns:xlink="http://www.w3.org/1999/xlink" x="0px" y="0px"
	 viewBox="0 0 340.7 312" style="enable-background:new 0 0 340.7 312;" xml:space="preserve">
<style type="text/css">
	.st0{opacity:0.55;stroke:#7C8599;enable-background:new    ;}
	.st1{opacity:0.35;}
	.st2{fill:none;stroke:#7C8599;}
	.st3{opacity:0.95;enable-background:new    ;}
	.st4{fill:none;}
	.st5{fill:none;stroke:#35F3FF;stroke-width:2.2;stroke-linecap:round;}
	.st6{opacity:0.9;enable-background:new    ;}
	.st7{fill:none;stroke:#35F3FF;stroke-width:2.2;}
	.st8{fill:#35F3FF;}
	.st9{opacity:0.95;}
	.st10{fill:#6B63FF;}
	.st11{opacity:0.9;}
	.st12{fill:#C6CFDD;}
	.st13{font-family:'MS-UIGothic';}
	.st14{font-size:14px;}
	.st15{opacity:0.25;enable-background:new    ;}
	.st16{opacity:0.14;fill:#FF1493;enable-background:new    ;}
</style>
<path class="st0" d="M183.3,113.5l0.6-106.8 M183.3,113.5L280,54.8 M183.3,113.5L306,137.7 M183.3,113.5L266.1,250 M183.3,113.5
	L176,289.7 M183.3,113.5L77.8,246.8 M183.3,113.5L52,136.6 M183.3,113.5L84.7,44.6"/>
<g class="st1">
	<path class="st2" d="M183.9,6.7l96,48.1l26.1,82.9L266.1,250L176,289.7l-98.2-42.9L52,136.6l32.6-92L183.9,6.7z"/>
	<path class="st2" d="M183.8,33.9l71.6,35.8l19.4,61.8L245,215.2l-67.2,29.6l-73.1-32l-19.2-82.1l24.3-68.6L183.8,33.9z"/>
	<path class="st2" d="M183.6,56.9l50.9,25.5l13.8,43.9l-21.1,59.5l-47.8,21l-52-22.7l-13.7-58.4L131,77L183.6,56.9z"/>
	<path class="st2" d="M183.5,76.5l33.3,16.7l9,28.7L212,160.8l-31.2,13.7l-34-14.9l-8.9-38.2l11.3-31.9L183.5,76.5z"/>
	<path class="st2" d="M183.4,92.1l19.2,9.6l5.2,16.6l-8,22.5l-18.1,7.9l-19.7-8.6l-5.2-22.1l6.5-18.4L183.4,92.1z"/>
</g>
<g class="st3">
	<line class="st4" x1="183.9" y1="6.7" x2="183.9" y2="42"/>
	<line class="st5" x1="183.9" y1="6.7" x2="183.9" y2="42"/>
</g>
<g class="st6">
	<polyline class="st7" points="122.9,80.5 160,80.8 183.9,42 207.8,80.8 240.2,91.9 237.6,136.4 231.7,183.8 176.6,204.6 
		120.2,188.7 117,137.4 122.9,80.5 	"/>
</g>
<g>
	<circle class="st8" cx="122.9" cy="80.5" r="4.1"/>
	<circle class="st8" cx="160.1" cy="80.8" r="4.1"/>
	<circle class="st8" cx="183.9" cy="42" r="4.1"/>
	<circle class="st8" cx="183.9" cy="6.7" r="4.6"/>
	<circle class="st8" cx="207.8" cy="80.8" r="4.1"/>
	<circle class="st8" cx="240.2" cy="91.9" r="4.1"/>
	<circle class="st8" cx="237.6" cy="136.4" r="4.1"/>
	<circle class="st8" cx="231.7" cy="183.8" r="4.1"/>
	<circle class="st8" cx="176.6" cy="204.6" r="4.1"/>
	<circle class="st8" cx="120.2" cy="188.7" r="4.1"/>
	<circle class="st8" cx="117" cy="137.4" r="4.1"/>
</g>
<g class="st9">
	<circle class="st10" cx="84.7" cy="44.6" r="4.2"/>
	<circle class="st10" cx="280" cy="54.8" r="4.2"/>
	<circle class="st10" cx="306" cy="137.7" r="4.2"/>
	<circle class="st10" cx="266.1" cy="250" r="4.2"/>
	<circle class="st10" cx="176" cy="289.7" r="4.2"/>
	<circle class="st10" cx="77.8" cy="246.8" r="4.2"/>
	<circle class="st10" cx="52" cy="136.6" r="4.2"/>
</g>
<g class="st11">
	<text transform="matrix(1 0 0 1 55 30)" class="st12 st13 st14">Feeling</text>
	<text transform="matrix(1 0 0 1 236 40)" class="st12 st13 st14">Core Thinking</text>
	<text transform="matrix(1 0 0 1 280 160)" class="st12 st13 st14">Simplicity</text>
	<text transform="matrix(1 0 0 1 244 275)" class="st12 st13 st14">Balance</text>
	<text transform="matrix(1 0 0 1 140 310)" class="st12 st13 st14">Credibility</text>
	<text transform="matrix(1 0 0 1 44 272)" class="st12 st13 st14">Intent</text>
	<text transform="matrix(1 0 0 1 10 160)" class="st12 st13 st14">Originality</text>
</g>
<g class="st15">
	<polyline class="st8" points="122.9,80.5 160,80.8 183.9,42 207.8,80.8 240.2,91.9 237.6,136.4 231.7,183.8 176.6,204.6 
		120.2,188.7 117,137.4 122.9,80.5 	"/>
</g>
<path class="st16" d="M179.9,149.9L179.9,149.9c-14.1,0-25.5-11.4-25.5-25.5v0c0-14.1,11.4-25.5,25.5-25.5h0
	c14.1,0,25.5,11.4,25.5,25.5v0C205.5,138.5,194,149.9,179.9,149.9z"/>
</svg>
