<?xml version="1.0" encoding="utf-8"?>
<!-- Generator: Adobe Illustrator 26.3.0, SVG Export Plug-In . SVG Version: 6.00 Build 0)  -->
<svg version="1.1" id="Layer_1" xmlns="http://www.w3.org/2000/svg" xmlns:xlink="http://www.w3.org/1999/xlink" x="0px" y="0px"
	 viewBox="0 0 340.7 312" style="enable-background:new 0 0 340.7 312;" xml:space="preserve">
<style type="text/css">
	.st0{opacity:0.55;stroke:#7C8599;enable-background:new    ;}
	.st1{opacity:0.35;}
	.st2{fill:none;stroke:#7C8599;}
	.st3{opacity:0.95;}
	.st4{fill:none;}
	.st5{fill:none;stroke:#35F3FF;stroke-width:2.2;stroke-linecap:round;}
	.st6{opacity:0.9;}
	.st7{fill:none;stroke:#35F3FF;stroke-width:2.2;}
	.st8{fill:#35F3FF;}
	.st9{fill:#6B63FF;}
	.st10{fill:#C6CFDD;}
	.st11{font-family:'MS-UIGothic';}
	.st12{font-size:14px;}
	.st13{opacity:0.25;fill:#35F3FF;enable-background:new    ;}
	.st14{opacity:0.14;fill:#FF1493;enable-background:new    ;}
</style>
<path class="st0" d="M183.3,113.5l0.6-106.8 M183.3,113.5L280,54.8 M183.3,113.5L306,137.7 M183.3,113.5L266.1,250 M183.3,113.5
	L176,289.7 M183.3,113.5L77.8,246.8 M183.3,113.5L52,136.6 M183.3,113.5L84.7,44.6"/>
<g class="st1">
	<path class="st2" d="M183.9,6.7l96,48.1l26.1,82.9L266.1,250L176,289.7l-98.2-42.9L52,136.6l32.6-92L183.9,6.7z"/>
	<path class="st2" d="M183.8,33.9l71.6,35.8l19.4,61.8L245,215.2l-67.2,29.6l-73.1-32l-19.2-82.1l24.3-68.6L183.8,33.9z"/>
	<path class="st2" d="M183.6,56.9l50.9,25.5l13.8,43.9l-21.1,59.5l-47.8,21l-52-22.7l-13.7-58.4L131,77L183.6,56.9z"/>
	<path class="st2" d="M183.5,76.5l33.3,16.7l9,28.7L212,160.8l-31.2,13.7l-34-14.9l-8.9-38.2l11.3-31.9L183.5,76.5z"/>
	<path class="st2" d="M183.4,92.1l19.2,9.6l5.2,16.6l-8,22.5l-18.1,7.9l-19.7-8.6l-5.2-22.1l6.5-18.4L183.4,92.1z"/>
</g>
<g class="st3">
	<path class="st4" d="M183.9,6.7V42"/>
	<path class="st5" d="M183.9,6.7V42"/>
</g>
<g class="st6">
	<path class="st7" d="M122.9,80.5l37.1,0.3L183.9,42l23.9,38.8l32.4,11.1l-2.6,44.5l-5.9,47.4l-55.1,20.8l-56.4-15.9l-3.2-51.3
		L122.9,80.5"/>
</g>
<circle class="st8" cx="122.9" cy="80.5" r="4.1"/>
<circle class="st8" cx="160.1" cy="80.8" r="4.1"/>
<circle class="st8" cx="183.9" cy="42" r="4.1"/>
<circle class="st8" cx="183.9" cy="6.7" r="4.6"/>
<circle class="st8" cx="207.8" cy="80.8" r="4.1"/>
<circle class="st8" cx="240.2" cy="91.9" r="4.1"/>
<circle class="st8" cx="237.6" cy="136.4" r="4.1"/>
<circle class="st8" cx="231.7" cy="183.8" r="4.1"/>
<circle class="st8" cx="176.6" cy="204.6" r="4.1"/>
<circle class="st8" cx="120.2" cy="188.7" r="4.1"/>
<circle class="st8" cx="117" cy="137.4" r="4.1"/>
<g class="st3">
	<circle class="st9" cx="84.7" cy="44.6" r="4.2"/>
	<circle class="st9" cx="280" cy="54.8" r="4.2"/>
	<circle class="st9" cx="306" cy="137.7" r="4.2"/>
	<circle class="st9" cx="266.1" cy="250" r="4.2"/>
	<circle class="st9" cx="176" cy="289.7" r="4.2"/>
	<circle class="st9" cx="77.8" cy="246.8" r="4.2"/>
	<circle class="st9" cx="52" cy="136.6" r="4.2"/>
</g>
<g class="st6">
	<text transform="matrix(1 0 0 1 39 30)" class="st10 st11 st12">Visual Hierarchy</text>
	<text transform="matrix(1 0 0 1 234 40)" class="st10 st11 st12">Motion Dynamics</text>
	<text transform="matrix(1 0 0 1 258 160)" class="st10 st11 st12">Content Zones</text>
	<text transform="matrix(1 0 0 1 229 273)" class="st10 st11 st12">Emphasis Points</text>
	<text transform="matrix(1 0 0 1 137 310)" class="st10 st11 st12">User Pathways</text>
	<text transform="matrix(1 0 0 1 45 272)" class="st10 st11 st12">Visual Flow</text>
	<text transform="matrix(1 0 0 1 10 160)" class="st10 st11 st12">Color Palette</text>
</g>
<path class="st13" d="M122.9,80.5l37.1,0.3L183.9,42l23.9,38.8l32.4,11.1l-2.6,44.5l-5.9,47.4l-55.1,20.8l-56.4-15.9l-3.2-51.3
	L122.9,80.5z"/>
<path class="st14" d="M179.9,149.9c-14.1,0-25.5-11.4-25.5-25.5s11.4-25.5,25.5-25.5s25.5,11.4,25.5,25.5
	C205.5,138.5,194,149.9,179.9,149.9"/>
<script></script>
</svg>
