<svg xmlns="http://www.w3.org/2000/svg" width="512" height="512" viewBox="0 0 512.013 512.013" xml:space="preserve"><path fill="#00005b" d="M90.669 6.4h330.675c50.135 0 90.669 40.534 90.669 90.669v317.875c0 50.135-40.534 90.669-90.669 90.669H90.669C40.534 505.613 0 465.078 0 414.944V97.069C0 46.934 40.534 6.4 90.669 6.4" data-original="#00005b"/><path d="M189.872 133.337c17.493 0 32 2.133 43.947 6.613 20.062 7.523 36.561 21.389 44.162 41.815 3.2 8.96 4.907 18.134 4.907 27.734 0 31.455-16.596 60.188-47.148 71.469-14.507 5.333-30.507 7.253-48.001 7.253-5.12 0-8.534 0-10.667-.213s-5.12-.213-9.173-.213v68.482c.213 1.493-.853 2.773-2.347 2.987h-41.387c-1.707 0-2.56-.853-2.56-2.773V136.963c0-1.493.64-2.347 2.133-2.347 3.627 0 7.04 0 11.947-.213zm-21.761 42.454v71.682c2.987.213 5.76.427 8.32.427h11.307c8.32 0 16.64-1.28 24.533-3.84 15.278-4.955 24.108-17.385 24.108-33.28 0-13.313-7.037-26.292-19.84-31.148-7.893-3.2-16.427-4.48-25.174-4.267-5.547 0-10.454 0-14.507.213-4.267-.214-7.254 0-8.747.213m144.644 12.374h37.334c2.133 0 3.84 1.493 4.48 3.413a21.7 21.7 0 0 1 1.28 5.333c.427 2.133.853 4.48 1.067 6.613.213 2.347.427 4.907.427 7.68a79.4 79.4 0 0 1 22.827-18.347c9.814-5.547 21.121-8.32 32.428-8.32 1.493-.213 2.773.853 2.987 2.347v42.454c0 1.707-1.067 2.347-3.413 2.347-7.68-.213-15.574.427-23.041 2.133a87.8 87.8 0 0 0-17.921 5.76c-4.053 1.92-7.893 4.48-10.88 7.893v108.803c0 2.133-.853 2.987-2.773 2.987h-42.028c-1.707.213-3.2-.853-3.413-2.56V237.658c0-5.12 0-10.454-.213-16-.213-5.547-.213-11.094-.427-16.64 0-4.907-.427-9.6-.853-14.507-.213-1.067.427-2.133 1.493-2.347-.001-.213.425-.213.639.001" data-original="#9999ff" fill="#99f"/></svg>