<svg xmlns="http://www.w3.org/2000/svg" width="512" height="512" viewBox="0 0 24 24" xml:space="preserve"><linearGradient id="a"><stop offset="0" stop-color="#1bffb9"/><stop offset=".067" stop-color="#20e9c3"/><stop offset=".214" stop-color="#28c0d5"/><stop offset=".364" stop-color="#2f9ee4"/><stop offset=".516" stop-color="#3583f0"/><stop offset=".671" stop-color="#3970f8"/><stop offset=".83" stop-color="#3b65fd"/><stop offset="1" stop-color="#3c61ff"/></linearGradient><linearGradient id="b" x1="3.791" x2="23.698" y1="9.869" y2="19.152" gradientUnits="userSpaceOnUse"><stop offset="0" stop-color="#fff" stop-opacity=".2"/><stop offset="1" stop-color="#fff" stop-opacity="0"/></linearGradient><path fill="#004793" d="M14.79 2.5H13.5l-.335-.5H12.5L1.491 20.5l.5.5h.501l.5 1H12.8l6.68-11.348z" data-original="#004793"/><path fill="#003f7f" d="M1.501 20.5 0 18l2.502-4 2.502-1.5 3.503-6-1-1.5 2-3h3.003z" data-original="#003f7f"/><path fill="#006a6f" d="m18.53 9-3.74-6.5H13.5l-.335-.5H12.5L8.335 9z" data-original="#006a6f"/><path fill="#004a52" d="M7.047 9h1.298l4.165-7H9.508L7.506 5l1 1.5z" data-original="#004a52"/><path fill="#001054" d="m24 18.505-4.52-7.853L12.8 22h9.208z" data-original="#001054"/><path fill="url(#a)" d="m13.501 3.5-10.008 17H12.5l-3.502-6 5.504-9z" data-original="url(#a)"/><path fill="url(#a)" d="m11.195 11.745-1.23 1.995a.5.5 0 0 0 .427.762h2.643zm2.441 2.756 6.37-.001-5.149-8.697-3.373 5.473z" data-original="url(#a)"/><path fill="#00225c" d="m2.492 21 .5 1H12.8l.589-1z" data-original="#00225c"/><path fill="url(#a)" d="M22.332 18.5H12l-2.002-3.52 10.276.024z" data-original="url(#a)"/><path fill="#000b3d" d="m13.389 21-.59 1h9.21l.569-1z" data-original="#000b3d"/><path fill="url(#b)" d="M14.794 2.5h-1.289L13.17 2H9.504L7.503 5l1 1.5-3.501 6L2.501 14 0 18l1.5 2.5.5.5h.501l.5 1H22.01L24 18.505z" data-original="url(#d)"/></svg>