<svg xmlns="http://www.w3.org/2000/svg" width="512" height="512" viewBox="0 0 512.123 512.123" xml:space="preserve"><path fill="#00005b" d="M90.688 6.402h330.746c50.086 0 90.689 40.603 90.689 90.688v317.943c0 50.086-40.603 90.689-90.689 90.689H90.688C40.603 505.721 0 465.119 0 415.033V97.09C0 47.004 40.603 6.402 90.688 6.402" data-original="#00005b"/><path d="M205.735 305.14h-79.361l-16.146 50.254a4.04 4.04 0 0 1-4.123 3.092H65.91q-3.438 0-2.405-3.779l68.71-197.067c.687-2.061 1.374-4.076 2.061-6.712.9-4.583 1.36-9.242 1.374-13.913a2.127 2.127 0 0 1 2.405-2.405h54.625q2.399 0 2.749 1.718l77.985 218.722q1.03 3.439-2.061 3.436h-44.662a3.174 3.174 0 0 1-3.435-2.405zm-39.853-131.353h-.344l-26.796 88.979h54.281zm233.96 111.793h-67.679a48.3 48.3 0 0 0 6.528 18.928 35.35 35.35 0 0 0 15.631 12.883 65.3 65.3 0 0 0 27.313 5.353 124 124 0 0 0 22.159-2.433 81.7 81.7 0 0 0 19.052-4.966c1.143-.912 1.718-.343 1.718 1.718V349.7a5.1 5.1 0 0 1-.516 2.577 4.9 4.9 0 0 1-1.546 1.546 87.4 87.4 0 0 1-21.284 6.341 151 151 0 0 1-30.232 2.577q-24.398 0-40.883-7.558a72.9 72.9 0 0 1-26.796-20.269 79.4 79.4 0 0 1-14.773-27.999 110.3 110.3 0 0 1-4.466-31.091 108.3 108.3 0 0 1 5.325-33.839 88.4 88.4 0 0 1 15.975-29.202c15.704-19.028 37.317-26.958 61.495-26.958 20.835 0 42.207 6.9 55.655 23.522a78.1 78.1 0 0 1 12.711 24.22 86.3 86.3 0 0 1 4.123 26.11q0 7.56-.516 13.742-.514 6.184-.858 8.932a3.114 3.114 0 0 1-3.092 2.749q-2.061 0-7.042.515-4.984.514-12.367.687c-4.932.116-10.138-.722-15.635-.722m-67.679-31.297h45.005q8.245 0 12.196-.172a12 12 0 0 0 4.983-1.651v-2.062a27.5 27.5 0 0 0-1.374-7.901 28.065 28.065 0 0 0-27.827-19.582 29.84 29.84 0 0 0-28.343 16.146 49.6 49.6 0 0 0-4.64 15.222" data-original="#9999ff" fill="#99f"/></svg>