<svg xmlns="http://www.w3.org/2000/svg" viewBox="0 0 65.6 75.4"><path d="M62.2 2c-.6-1.2-1.8-2-3.4-2h-5.9c-1.7 0-3 .7-3.6 1.9l-8.7 12.7L48.2 25 61.5 6c1.5-1.8.9-3.4.7-4" style="fill-rule:evenodd;clip-rule:evenodd;fill:#74bb11"/><path d="M16.3 1.8C14.9 0 13.2 0 12.6 0H6.9C5.4 0 4.2.7 3.5 1.9c-.6 1.2-.5 2.6.4 4l21.3 29.6L.7 69.6c-.9 1.3-1 2.7-.3 3.9.6 1.2 1.8 1.9 3.3 1.9h5.9c1.5 0 2.8-.8 3.5-2l27.4-37.8z" style="fill-rule:evenodd;clip-rule:evenodd;fill:#009cd9"/><path d="M65.1 70.6 50.3 50.3l-6.5 9L55.5 75l.3.1q.75.3 1.5.3h5c1.2 0 2.2-.5 2.8-1.5.6-.9.6-2.1 0-3.3" style="fill-rule:evenodd;clip-rule:evenodd;fill:#eb2084"/></svg>