<svg xmlns="http://www.w3.org/2000/svg" xml:space="preserve" viewBox="0 0 526.6 500.9"><linearGradient id="a" x1="257.088" x2="556.451" y1="288.8" y2="346.99" gradientTransform="matrix(1 0 0 -1 0 515.086)" gradientUnits="userSpaceOnUse"><stop offset="0" style="stop-color:#0f6067"/><stop offset=".5" style="stop-color:#05abac"/><stop offset="1" style="stop-color:#58bec4"/></linearGradient><path d="M368.6 14.6h158.1L315.4 404.9s-35.6-103.4-50.9-140.3" style="fill:url(#a)"/><linearGradient id="b" x1="466.637" x2="509.441" y1="12.695" y2="501.943" gradientTransform="matrix(1 0 0 -1 0 515.086)" gradientUnits="userSpaceOnUse"><stop offset="0" style="stop-color:#117c83"/><stop offset=".5" style="stop-color:#21b5b5"/><stop offset="1" style="stop-color:#7ed4d4"/></linearGradient><path d="M407.6 497.2h119.1V14.6c-.1 252.2-106.1 482.6-119.1 482.6" style="fill:url(#b)"/><linearGradient id="c" x1="218.957" x2="106.02" y1="493.828" y2="146.246" gradientTransform="matrix(1 0 0 -1 0 515.086)" gradientUnits="userSpaceOnUse"><stop offset="0" style="stop-color:#9accd3"/><stop offset=".5" style="stop-color:#72aeb3"/><stop offset="1" style="stop-color:#317d7f"/></linearGradient><path d="M315.4 404.9h-98.3L0 14.6C38.5 9.7 115.4 3.1 153.5 0z" style="fill:url(#c)"/><linearGradient id="d" x1="-26.925" x2="162.603" y1="97.049" y2="158.63" gradientTransform="matrix(1 0 0 -1 0 515.086)" gradientUnits="userSpaceOnUse"><stop offset="0" style="stop-color:#21626e"/><stop offset=".5" style="stop-color:#157c84"/><stop offset="1" style="stop-color:#03a3a5"/></linearGradient><path d="M125.9 250.8C93.3 379.6-.1 501 0 500.9c108.2 0 131.5-15.7 131.5-24V260.6c-1.9-3.2-3.7-6.5-5.6-9.8" style="fill:url(#d)"/><linearGradient id="e" x1="121.268" x2="-121.268" y1="370.396" y2="144.227" gradientTransform="matrix(1 0 0 -1 0 515.086)" gradientUnits="userSpaceOnUse"><stop offset="0" style="stop-color:#0b7c81"/><stop offset=".5" style="stop-color:#068d90"/><stop offset="1" style="stop-color:#16b1b1"/></linearGradient><path d="M0 14.6v486.3c59.2-97.8 93.7-161.8 124.2-253C49 114.9 0 14.6 0 14.6" style="fill:url(#e)"/><linearGradient id="f" x1="345.574" x2="469.538" y1="94.405" y2="194.789" gradientTransform="matrix(1 0 0 -1 0 515.086)" gradientUnits="userSpaceOnUse"><stop offset="0" style="stop-color:#0a8a8f"/><stop offset=".5" style="stop-color:#0f7c82"/><stop offset="1" style="stop-color:#1a5964"/></linearGradient><path style="fill:url(#f)" d="m399.4 478.1 8.2 19.1V243.8l-8.2 13.7"/><linearGradient id="g" x1="533.274" x2="401.471" y1="217.794" y2="300.154" gradientTransform="matrix(1 0 0 -1 0 515.086)" gradientUnits="userSpaceOnUse"><stop offset="0" style="stop-color:#256a77"/><stop offset=".5" style="stop-color:#0d9499"/><stop offset="1" style="stop-color:#06a0a2"/></linearGradient><path d="M407.2 244.3v252.1l.3.8c8.5 0 119.1-272.8 119.1-482.6 0 0-67.5 140.8-119.4 229.7" style="fill:url(#g)"/></svg>