<svg xmlns="http://www.w3.org/2000/svg" viewBox="0 0 64 64"><path fill="#fff" d="M5.2 47.56s8 10.37 8.48 10.83a5.8 5.8 0 0 0 4.33 1.6c8.37-.42 27.54-1.38 35.57-1.78a5.86 5.86 0 0 0 5.56-5.83l.1-35.5c0-1.99-1.03-3.83-2.72-4.87-2.99-1.84-8.91-5.49-10.7-6.68a8.05 8.05 0 0 0-4.96-1.32c-5.96.38-23.45 1.51-30.85 1.98-2.96.19-5.24 2.62-5.24 5.54v34.78c0 .45.15.89.43 1.24Zm50.01-28.91v.02l-.1 33.7c0 .97-.77 1.77-1.74 1.82L17.8 55.97c-.5.03-.99-.16-1.35-.5s-.57-.82-.57-1.32V20.71c0-.97.75-1.77 1.72-1.82l35.67-2.06c.5-.03.99.15 1.36.5.36.34.57.82.57 1.32ZM43.23 40.07V26.35c-.63-.72-1.63-.67-3.07-1.11a.37.37 0 0 1-.23-.21.34.34 0 0 1 .03-.31c1.72-2.53 6.63-.95 9.83-1.96.09-.03.2-.02.28.05s.11.17.09.27c-.31 1.39-1.4 2.1-2.95 2.4v22.57c0 .75-.45 1.44-1.15 1.72-.64.26-1.31.54-1.31.54-1.54.8-3.43.29-4.37-1.17L28.92 31.27v16.27c.62.72 1.63.67 3.07 1.11.1.03.19.11.23.21s.03.22-.03.31c-1.73 2.53-6.63.95-9.83 1.96-.09.04-.2.02-.28-.05-.08-.06-.11-.17-.09-.27.31-1.39 1.4-2.1 2.95-2.4V27.1l-3.02-.29s.21-2.45 3.09-2.73c1.42-.14 5.13-.3 6.47-.36.3-.01.59.13.77.38l10.99 15.95Zm-28.2-25.79c.55.42 1.24.63 1.93.59 5.09-.29 26.82-1.53 32.21-1.84a.384.384 0 0 0 .18-.71c-2.39-1.49-4.74-2.95-5.76-3.63a4.1 4.1 0 0 0-2.48-.66s-24.7 1.36-29.78 1.91c-.64.07-.78.3-.8.39-.09.31.02.54.27.74 1.02.78 3.07 2.33 4.23 3.21"/></svg>