<svg xmlns="http://www.w3.org/2000/svg" viewBox="0 0 48 48" width="144" height="144" baseProfile="basic"><path fill="#fff" d="M28 14c1.657 0 3 0 3-1 0-3-2-5-4-5-1.657 0-3 1-3 3 0 1.657 2.343 3 4 3m14.667 25.377L39.92 34.23c-.058-.097-5.448-9.767-15.92-9.23 1.679-1.831 2.791-2.518 3.99-3.7.569.322 1.106.564 1.53.62q.645.09 1.23.09c.91 0 1.71-.16 2.46-.43 1.88-.68 3.13-1.72 3.74-3.11.33-.74.27-1.57-.17-2.27a2.51 2.51 0 0 0-2.02-1.19c-1.51-.09-2.51.75-3.94 1.66-.33.21-.76.22-1.09 0C27.98 15.48 24.43 14.1 19 15c-4.17.69-7.62 4.7-9.15 6.77-.53.71.07 1.74.95 1.58.77-.14 1.73-.49 2.86-.89.8-.28 1.34-1.04 1.34-1.88V20c0-1 1-2.19 3-3 1.8-.54 4 0 6.73 2 .44.346 1 .782 1.593 1.211a130 130 0 0 0-4.882 5.113C14.259 26.432 5 32.509 5 37c0 2 1.593 2.184 3 2 5.891 0 10.382-6.969 10.613-7.277.222-.289.451-.576.679-.864 8.447-1.662 14.099 1.147 15.988 2.091 1.14.57 1.04.96.86 1.68-.07.27-.14.56-.14.87 0 1.897 3.682 4.219 5.369 5.161a.952.952 0 0 0 1.298-1.284M36 17c-1 2-4 1-4 1s2-2 4-1M8.989 36.999c-.867.227-1.534-.779-1.049-1.533 1.928-2.997 7.35-4.53 9.123-4.92-.044.059-4.482 5.511-8.074 6.453"/></svg>