<?xml version="1.0" encoding="utf-8"?>
<!-- Generator: Adobe Illustrator 24.3.0, SVG Export Plug-In . SVG Version: 6.00 Build 0)  -->
<svg version="1.1" id="Layer_1" xmlns="http://www.w3.org/2000/svg" xmlns:xlink="http://www.w3.org/1999/xlink" x="0px" y="0px"
	 width="402.9px" height="402.9px" viewBox="0 0 402.9 402.9" style="enable-background:new 0 0 402.9 402.9;" xml:space="preserve"
	>
<style type="text/css">
	.st0{fill:#0FDAC2;}
	.st1{fill:#0EDBC1;}
	.st2{fill-rule:evenodd;clip-rule:evenodd;fill:#0EDBC1;}
	.st3{fill-rule:evenodd;clip-rule:evenodd;fill:#0FDAC2;}
</style>
<g>
	<g>
		<circle class="st0" cx="73.3" cy="260.5" r="46.6"/>
		<circle class="st0" cx="329.6" cy="260.5" r="46.6"/>
		<path class="st0" d="M115.6,30.3l20.2-11.7L159.1,59l-20.2,11.7L115.6,30.3z M286.4,93.1l40.4-23.3L338.4,90l-40.4,23.3
			L286.4,93.1z M64.5,90l11.7-20.2l40.4,23.3l-11.7,20.2L64.5,90z M243.8,59l23.3-40.4l20.2,11.7L264,70.7L243.8,59z M189.8,2.6
			h23.3v48.2h-23.3V2.6z M50,144h46.6v23.3H50V144z M306.3,144h46.6v23.3h-46.6V144z M329.6,307.1c-21.6,0-40.7,10.1-53.6,25.5
			c-7.5-17-20.5-30.9-36.9-39.5c-10.2,8.7-23.3,14-37.7,14c-14.4,0-27.6-5.3-37.8-14c-16.3,8.6-29.3,22.6-36.8,39.5
			c-12.8-15.5-31.9-25.5-53.6-25.5c-38.5,0-70.7,31.4-70.7,69.9v23.3h397.7V377C400.3,338.4,368.1,307.1,329.6,307.1z M236.4,248.5
			c0-10.9,5.2-21.4,14-27.9c20.7-15.5,32.6-39.2,32.6-64.9c0-24.3-10.7-47.1-29.4-62.7c-18.7-15.5-43.3-21.9-67.4-17.5
			c-32.4,6-58.4,31.6-64.7,63.9c-6.1,31.1,5.8,62.2,31,81.1c8.8,6.6,14,17,14,28.3c0,19.3,15.7,35,35,35S236.4,268.1,236.4,248.5z
			 M161.7,155.6l16.5-16.5l23.3,23.3l23.3-23.3l16.5,16.5l-39.8,39.8L161.7,155.6z"/>
	</g>
</g>
</svg>
