<?xml version="1.0" encoding="utf-8"?>
<!-- Generator: Adobe Illustrator 24.3.0, SVG Export Plug-In . SVG Version: 6.00 Build 0)  -->
<svg version="1.1" id="Layer_1" xmlns="http://www.w3.org/2000/svg" xmlns:xlink="http://www.w3.org/1999/xlink" x="0px" y="0px"
	 width="402.9px" height="402.9px" viewBox="0 0 402.9 402.9" style="enable-background:new 0 0 402.9 402.9;" xml:space="preserve"
	>
<style type="text/css">
	.st0{fill:#0FDAC2;}
	.st1{fill:#0EDBC1;}
	.st2{fill-rule:evenodd;clip-rule:evenodd;fill:#0EDBC1;}
	.st3{fill-rule:evenodd;clip-rule:evenodd;fill:#0FDAC2;}
</style>
<g>
	<g>
		<path class="st0" d="M331.2,79.1V60.4c0-32.2-26.2-58.4-58.4-58.4H129.4c-32.2,0-58.4,26.2-58.4,58.4v18.7H331.2z M94.3,250.5v127
			c0,12.9,10.5,23.4,23.4,23.4h166.8c12.9,0,23.4-10.5,23.4-23.4v-127H94.3z M232.2,350.3h-62.3c-6.5,0-11.7-5.2-11.7-11.7
			s5.2-11.7,11.7-11.7h62.3c6.5,0,11.7,5.2,11.7,11.7S238.7,350.3,232.2,350.3z M232.2,300.4h-62.3c-6.5,0-11.7-5.2-11.7-11.7
			s5.2-11.7,11.7-11.7h62.3c6.5,0,11.7,5.2,11.7,11.7S238.7,300.4,232.2,300.4z"/>
		<path class="st0" d="M342.1,102.5H60.8c-32.2,0-58.4,26.2-58.4,58.4v93.5c0,32.2,26.2,58.4,58.4,58.4h10.1v-62.3h-7
			c-6.5,0-11.7-5.2-11.7-11.7s5.2-11.7,11.7-11.7h274.3c6.5,0,11.7,5.2,11.7,11.7s-5.2,11.7-11.7,11.7h-7v62.3h10.9
			c32.2,0,58.4-26.2,58.4-58.4v-93.5C400.6,128.7,374.3,102.5,342.1,102.5z M101.3,175.7H63.9c-6.5,0-11.7-5.2-11.7-11.7
			s5.2-11.7,11.7-11.7h37.4c6.5,0,11.7,5.2,11.7,11.7S107.8,175.7,101.3,175.7z"/>
	</g>
</g>
</svg>
