<?xml version="1.0" encoding="utf-8"?>
<!-- Generator: Adobe Illustrator 24.3.0, SVG Export Plug-In . SVG Version: 6.00 Build 0)  -->
<svg version="1.1" id="Layer_1" xmlns="http://www.w3.org/2000/svg" xmlns:xlink="http://www.w3.org/1999/xlink" x="0px" y="0px"
	 width="402.9px" height="386.3px" viewBox="0 0 402.9 386.3" style="enable-background:new 0 0 402.9 386.3;" xml:space="preserve"
	>
<style type="text/css">
	.st0{fill:#0FDAC2;}
	.st1{fill:#0EDBC1;}
	.st2{fill-rule:evenodd;clip-rule:evenodd;fill:#0EDBC1;}
	.st3{fill-rule:evenodd;clip-rule:evenodd;fill:#0FDAC2;}
</style>
<g>
	<g>
		<path class="st0" d="M401.7,241.7c-48.3,0-96.5,0-145,0c0-0.5,0-1,0-1.4c0-26.3,0-52.6,0-78.9c0-1.4,0.3-2.8,0.9-4
			c8.4-17.7,17-35.4,25.4-53.1c2.6-5.5,2.3-10.8-1.1-15.9C263.8,60.2,245.6,32.1,227.3,4c-0.2-0.3-0.4-0.7-0.7-1.2
			c0.7,0,1.2,0,1.8,0c51.2,0,102.3,0,153.5,0c7.9,0,14.2,3.3,19,9.5c0.2,0.3,0.5,0.6,0.8,0.9C401.7,89.3,401.7,165.5,401.7,241.7z"
			/>
		<path class="st0" d="M401.7,308.3c-2,2.7-4.3,5.2-7.2,6.9c-0.4,0.2-0.8,0.5-1.2,0.7c-0.4-0.3-0.8-0.7-1.1-1
			c-2.9-2.5-6.3-3.7-10.1-3.7c-120.4,0-240.9,0-361.3,0c-4.4,0-8,1.6-11.2,4.7c-3.4-1.8-6.1-4.3-8.2-7.5c-0.2-0.2-0.1-0.6-0.1-1
			c0-11.3,0-22.5,0-33.8c0-0.2,0-0.5,0.1-0.9c0.5,0,1,0,1.5,0c132.6,0,265.1,0,397.7,0c0.4,0,0.8,0,1.2,0
			C401.7,284.6,401.7,296.5,401.7,308.3z"/>
		<path class="st0" d="M146.1,241.7c-48.3,0-96.5,0-144.9,0c0-0.5,0-0.9,0-1.3c0-75.2,0-150.5,0-225.7c0-0.8,0.3-1.7,0.8-2.4
			c4.7-6.2,11-9.5,18.8-9.5c50.8,0,101.6,0,152.4,0c0.5,0,1.1,0,1.8,0c-0.3,0.5-0.5,0.9-0.8,1.3c-17.8,28-35.5,56-53.3,84
			c-3.5,5.5-3.8,11-0.9,16.8c8.5,17.5,16.8,35,25.2,52.5c0.6,1.2,0.9,2.6,0.9,3.9c0.1,26.5,0,52.9,0,79.4
			C146.1,241,146.1,241.3,146.1,241.7z"/>
		<path class="st0" d="M201.3,383.5c-39.7,0-79.5,0-119.2,0c-7.8,0-14.5-5.7-15.5-13.2c-1.1-8.1,3.6-15.3,11.3-17.4
			c1.5-0.4,3-0.5,4.5-0.6c6.6-0.1,13.2,0,19.9,0c0.9,0,1.4-0.3,1.8-1.1c1.4-2.7,2.9-5.3,4.3-8c0.4-0.8,0.9-1.1,1.8-1.1
			c27,0,54.1,0,81.1,0c33.7,0,67.3,0,101,0c1,0,1.6,0.3,2.1,1.2c1.3,2.6,2.8,5.1,4.2,7.7c0.4,0.8,0.9,1.2,1.9,1.1
			c6.7,0,13.4,0,20.1,0c7.2,0,13.2,4.6,15.2,11.3c2.8,9.9-4.7,19.8-15,19.8C281,383.5,241.2,383.5,201.3,383.5z"/>
		<path class="st0" d="M217.1,45.4c2.2,3.4,4.3,6.5,6.3,9.7c9.1,14.1,18.3,28.2,27.4,42.2c0.5,0.7,0.5,1.2,0.2,2
			c-7.2,15-14.4,29.9-21.6,44.9c-2.5,5.3-3.8,10.8-3.8,16.7c0,10.7,0,21.4,0,32.2c0,0.5,0,1,0,1.5c-16.1,0-32.2,0-48.4,0
			c0-0.5,0-1,0-1.5c0-9.4-0.2-18.7,0.1-28.1c0.2-8.8-1.8-16.9-5.7-24.8c-6.8-13.6-13.3-27.5-19.8-41.2c-0.2-0.4-0.2-1.1,0-1.4
			c11.2-17.7,22.4-35.4,33.7-53.1c0-0.1,0.1-0.1,0.3-0.3c0,0.4,0.1,0.7,0.1,1c0,17.8,0,35.6,0,53.4c0,1.1-0.7,1.4-1.3,2
			c-10.4,9.1-11.4,25.4-2.1,35.6c7,7.7,15.7,10.3,25.7,7.6c9.8-2.7,16-9.5,18-19.5c1.8-9.4-1.2-17.5-8.4-23.9
			c-0.6-0.5-0.8-1-0.8-1.8c0-17.2,0-34.4,0-51.7C217,46.5,217,46.1,217.1,45.4z"/>
		<path class="st0" d="M177.3,241.6c0-5.2,0-10.4,0-15.7c16.1,0,32.1,0,48.2,0c0,5.2,0,10.4,0,15.7
			C209.5,241.6,193.4,241.6,177.3,241.6z"/>
	</g>
</g>
</svg>
