<?xml version="1.0" encoding="utf-8"?>
<!-- Generator: Adobe Illustrator 24.3.0, SVG Export Plug-In . SVG Version: 6.00 Build 0)  -->
<svg version="1.1" id="Layer_1" xmlns="http://www.w3.org/2000/svg" xmlns:xlink="http://www.w3.org/1999/xlink" x="0px" y="0px"
	 width="313.7px" height="402.9px" viewBox="0 0 313.7 402.9" style="enable-background:new 0 0 313.7 402.9;" xml:space="preserve"
	>
<style type="text/css">
	.st0{fill:#0FDAC2;}
	.st1{fill:#0EDBC1;}
	.st2{fill-rule:evenodd;clip-rule:evenodd;fill:#0EDBC1;}
	.st3{fill-rule:evenodd;clip-rule:evenodd;fill:#0FDAC2;}
</style>
<g>
	<g>
		<path class="st0" d="M94.8,310.4c-7.7,0-14.8-3.4-19.6-9.4l-16.8-21.1l-14.8-7.1L5,350.4c-3.1,6.2-0.6,13.7,5.6,16.8
			c1.7,0.9,3.6,1.3,5.6,1.3h0l35.8-0.1L73.6,397c2.6,3.5,6.8,5.3,11.2,4.9c4.3-0.4,8.1-3,10.1-6.9l39.1-78.7l-12.3-5.9H94.8
			L94.8,310.4z M308.6,350.4l-38.6-77.6l-14.8,7.1L238.5,301c-4.8,6-11.9,9.4-19.6,9.4H192l-12.3,5.9l39.1,78.7
			c2.1,4.3,6.5,7,11.2,7c3.9,0,7.6-1.8,10-5l21.5-28.6l35.8,0.1h0c6.9,0,12.5-5.6,12.5-12.5C309.9,354,309.5,352.1,308.6,350.4
			L308.6,350.4z"/>
		<path class="st0" d="M218.9,297.9c3.8,0,7.4-1.7,9.8-4.7l18.6-23.3l26.8-12.9c3.4-1.7,5.9-4.8,6.8-8.5l6.6-29l18.6-23.3
			c2.4-3,3.3-6.9,2.4-10.6l-6.6-29l6.6-29c0.8-3.7,0-7.6-2.4-10.6l-18.6-23.3l-6.6-29c-0.8-3.7-3.3-6.8-6.8-8.5l-26.8-12.9
			l-18.6-23.3c-2.4-3-6-4.7-9.8-4.7h-29.8L162.3,2.1c-3.4-1.7-7.4-1.7-10.9,0l-26.8,12.9H94.8c-3.8,0-7.4,1.7-9.8,4.7L66.4,43.1
			L39.6,56c-3.4,1.7-5.9,4.8-6.8,8.5l-6.6,29L7.6,116.8c-2.4,3-3.3,6.9-2.4,10.6l6.6,29l-6.6,29c-0.8,3.7,0,7.6,2.4,10.6l18.6,23.3
			l6.6,29c0.8,3.7,3.3,6.8,6.8,8.5l26.8,12.9L85,293.2c2.4,3,6,4.7,9.8,4.7h29.8l26.8,12.9c3.4,1.7,7.4,1.7,10.9,0l26.8-12.9
			L218.9,297.9L218.9,297.9z M156.8,266.2c-60.5,0-109.7-49.2-109.7-109.7S96.4,46.8,156.8,46.8S266.5,96,266.5,156.5
			S217.3,266.2,156.8,266.2z"/>
		<path class="st0" d="M156.8,59.3c-53.6,0-97.1,43.6-97.1,97.1s43.6,97.1,97.1,97.1S254,210,254,156.5S210.4,59.3,156.8,59.3z
			 M159.4,185.2c-2.3,2.4-5.5,3.7-8.9,3.7c-2.8,0-5.6-1-7.8-2.7l-31.3-25.1l15.7-19.6l22.6,18.1l35.9-35.9l17.7,17.7L159.4,185.2
			L159.4,185.2z"/>
	</g>
</g>
</svg>
