<?xml version="1.0" encoding="utf-8"?>
<!-- Generator: Adobe Illustrator 24.3.0, SVG Export Plug-In . SVG Version: 6.00 Build 0)  -->
<svg version="1.1" id="Layer_1" xmlns="http://www.w3.org/2000/svg" xmlns:xlink="http://www.w3.org/1999/xlink" x="0px" y="0px"
	 width="383.9px" height="402.9px" viewBox="0 0 383.9 402.9" style="enable-background:new 0 0 383.9 402.9;" xml:space="preserve"
	>
<style type="text/css">
	.st0{fill:#0FDAC2;}
	.st1{fill:#0EDBC1;}
	.st2{fill-rule:evenodd;clip-rule:evenodd;fill:#0EDBC1;}
	.st3{fill-rule:evenodd;clip-rule:evenodd;fill:#0FDAC2;}
</style>
<g>
	<g>
		<path class="st0" d="M166.1,89.5L57.9,276.8c-9.4,16.3-3.8,37.1,12.5,46.5l103.2,59.6c-2.3-5.6-3.4-11.6-3.4-17.6V149
			c0-19.4,7.5-38,21-52l43.4-44.9l-32.4,9.1C187,65.6,174,75.8,166.1,89.5L166.1,89.5z M12.6,212.6c-13.3,13.3-13.3,34.8,0,48.1
			L39.8,288c0.9-6.4,3-12.5,6.3-18c15.9-27.2,86-148.9,124-214.2C165.6,59.3,173.9,51.4,12.6,212.6L12.6,212.6z M277.2,249.5h2
			v-27.2h-2c-7.5,0-13.6,6.1-13.6,13.6C263.5,243.4,269.6,249.5,277.2,249.5z"/>
		<path class="st0" d="M326.8,3.6c-2.7,16-9.6,31.1-20,43.6c-13.1-13.5-34.7-13.8-48.1-0.7c-0.2,0.2-0.5,0.4-0.7,0.7l-57,59.4
			c-11,11.4-17.1,26.6-17.2,42.4v216.3c0,18.8,15.2,34,34,34h129.4c18.8,0,34-15.2,34-34V149c0-15.8-6.2-31-17.2-42.4L325.9,67
			c-8.5,9.3-19,16.6-30.6,21.6c-2.5,7.1-10.3,10.8-17.4,8.3c-7.1-2.5-10.8-10.3-8.3-17.4c1.9-5.4,7.1-9.1,12.9-9.1
			c3.8,0,7.4,1.7,10,4.5c4.2-1.9,8.2-4.2,11.9-6.8c4.3-3.2,8.3-6.8,12-10.7c12.7-14.8,21-32.8,24-52.1L326.8,3.6z M277.2,208.7h2
			v-16.5h13.6v16.5h2c15,0,27.2,12.2,27.2,27.2h-13.6c0-7.5-6.1-13.6-13.6-13.6h-2v27.2h2c15,0,27.2,12.2,27.2,27.2
			c0,15-12.2,27.2-27.2,27.2h-2v16.5h-13.6V304h-2c-15,0-27.2-12.2-27.2-27.2h13.6c0,7.5,6.1,13.6,13.6,13.6h2v-27.2h-2
			c-15,0-27.2-12.2-27.2-27.2C249.9,220.9,262.1,208.7,277.2,208.7z"/>
		<path class="st0" d="M308.3,276.8c0-7.5-6.1-13.6-13.6-13.6h-2v27.2h2C302.2,290.4,308.3,284.3,308.3,276.8z"/>
	</g>
</g>
</svg>
