<?xml version="1.0" encoding="utf-8"?>
<!-- Generator: Adobe Illustrator 24.3.0, SVG Export Plug-In . SVG Version: 6.00 Build 0)  -->
<svg version="1.1" id="Layer_1" xmlns="http://www.w3.org/2000/svg" xmlns:xlink="http://www.w3.org/1999/xlink" x="0px" y="0px"
	 width="312.9px" height="402.9px" viewBox="0 0 312.9 402.9" style="enable-background:new 0 0 312.9 402.9;" xml:space="preserve"
	>
<style type="text/css">
	.st0{fill:#0FDAC2;}
	.st1{fill:#0EDBC1;}
	.st2{fill-rule:evenodd;clip-rule:evenodd;fill:#0EDBC1;}
	.st3{fill-rule:evenodd;clip-rule:evenodd;fill:#0FDAC2;}
</style>
<g>
	<g>
		<path class="st0" d="M308.3,328.3c-8.9-26.6-44.6-43.2-69.9-54.4c-9.9-4.4-37.5-11.7-40.8-24.3c-1.2-4.5-1-8.8-0.1-12.8
			c-1.5,0.3-3.1,0.5-4.7,0.5h-16.5c-13.2,0-23.9-10.7-23.9-23.9c0-13.2,10.7-23.9,23.9-23.9h16.5c5.5,0,10.6,1.9,14.8,5.2
			c5.9-0.8,11.8-2.1,17.5-3.8c7.2-15.2,12.9-33.3,14.1-48.9c5.4-66.8-35.5-105.8-94.2-99.1c-42.7,4.9-68.2,36.7-70.9,77.7
			c-2.8,41.8,12.7,72.6,29.1,95.2c7.2,9.9,14.8,16.2,13.6,28.2c-1.3,14.1-16.4,18-27.2,22.3c-12.8,5.1-26.5,12.9-33,16.5
			C34.4,295,9.8,309.8,4.3,330.2c-12.2,45.1,29.1,58.8,63.1,65.1c29.2,5.4,62.2,5.8,89.4,5.8c49.1,0,137.3-2,151.5-38.8
			C312.4,351.8,310.7,335.1,308.3,328.3z"/>
		<path class="st0" d="M203.3,206.5c-2.3-3.5-6.2-5.7-10.5-5.7h-16.5c-6.9-0.2-12.6,5.2-12.8,12.1c-0.2,6.9,5.2,12.6,12.1,12.8
			c0.2,0,0.4,0,0.7,0h16.5c4.6,0,8.9-2.6,11-6.7c23.1-1.8,43.1-8.9,57.2-19.3c3.2,2.1,7.1,3.3,11.2,3.3h1c11.5,0,20.8-9.3,20.8-20.8
			c0,0,0,0,0,0v-41.6c0-8-4.6-15.3-11.9-18.7C279.2,55.2,223.9,1.8,156.4,1.8S33.7,55.2,30.7,121.9c-7.2,3.4-11.9,10.7-11.9,18.7
			v41.6c0,11.5,9.3,20.8,20.8,20.8c0,0,0,0,0,0h1.1c11.5,0,20.8-9.3,20.8-20.8c0,0,0,0,0,0v-41.6c0-7.9-4.5-15.1-11.6-18.6
			C52.8,65.8,99.5,21,156.4,21c56.9,0,103.6,44.8,106.6,101.1c-7.1,3.5-11.6,10.7-11.6,18.6v41.6c0,2.8,0.5,5.3,1.5,7.7
			C240.8,198.6,223.2,204.8,203.3,206.5L203.3,206.5z"/>
	</g>
</g>
</svg>
