<?xml version="1.0" encoding="utf-8"?>
<!-- Generator: Adobe Illustrator 24.3.0, SVG Export Plug-In . SVG Version: 6.00 Build 0)  -->
<svg version="1.1" id="Layer_1" xmlns="http://www.w3.org/2000/svg" xmlns:xlink="http://www.w3.org/1999/xlink" x="0px" y="0px"
	 width="402.9px" height="402.9px" viewBox="0 0 402.9 402.9" style="enable-background:new 0 0 402.9 402.9;" xml:space="preserve"
	>
<style type="text/css">
	.st0{fill:#0FDAC2;}
	.st1{fill:#0EDBC1;}
	.st2{fill-rule:evenodd;clip-rule:evenodd;fill:#0EDBC1;}
	.st3{fill-rule:evenodd;clip-rule:evenodd;fill:#0FDAC2;}
</style>
<g>
	<g>
		<path class="st0" d="M326.7,129c0-69.2-56-125.2-125.1-125.3c-69.2,0-125.2,56-125.3,125.1c0,40.6,19.6,78.7,52.7,102.2v36.4
			h-19.8v26.4h184.5v-26.4h-19.8V231C307,207.6,326.7,169.5,326.7,129z M168.5,116.9l21.5,22.7l43.4-45.6l19.1,18.1l-52.7,55.8
			c-5,5.3-13.4,5.5-18.6,0.5c-0.2-0.2-0.3-0.3-0.5-0.5l-30.7-32.2L168.5,116.9z M155.3,333.3c0,12,5.5,23.4,14.9,30.8l18.1,15v20
			h26.4v-20l18.1-14.5c9.5-7.6,15-19.2,14.9-31.4v-13.2h-92.3V333.3z M346.4,122.4h52.7v26.4h-52.7V122.4z M328.4,71.3L374.1,45
			l13.2,22.8l-45.7,26.4L328.4,71.3z M328.5,199.8l13.2-22.8l45.7,26.4l-13.2,22.8L328.5,199.8z M3.7,122.4h52.7v26.4H3.7V122.4z
			 M15.6,68l13.2-22.8l45.7,26.4L61.2,94.3L15.6,68z M15.5,203.3l45.7-26.4l13.2,22.8l-45.7,26.4L15.5,203.3z"/>
	</g>
</g>
</svg>
