<?xml version="1.0" encoding="utf-8"?>
<!-- Generator: Adobe Illustrator 24.3.0, SVG Export Plug-In . SVG Version: 6.00 Build 0)  -->
<svg version="1.1" id="Layer_1" xmlns="http://www.w3.org/2000/svg" xmlns:xlink="http://www.w3.org/1999/xlink" x="0px" y="0px"
	 width="356.2px" height="402.9px" viewBox="0 0 356.2 402.9" style="enable-background:new 0 0 356.2 402.9;" xml:space="preserve"
	>
<style type="text/css">
	.st0{fill:#0FDAC2;}
	.st1{fill:#0EDBC1;}
	.st2{fill-rule:evenodd;clip-rule:evenodd;fill:#0EDBC1;}
	.st3{fill-rule:evenodd;clip-rule:evenodd;fill:#0FDAC2;}
</style>
<g>
	<g>
		<path class="st0" d="M342.6,167.6L187,11.9c-9.2-9.2-24-9-33.1,0c-9.1,9.1-9.1,24,0,33.1l155.7,155.7c9.1,9.1,23.9,9.1,33.1,0
			C351.7,191.5,351.7,176.7,342.6,167.6z M142.3,66.5l-1.2,5.9c-8.3,41.3-28.3,80.5-55.4,112.3l84.7,84.7
			c31.8-27.1,70.5-47.7,111.7-56l5.9-1.2L142.3,66.5z M70.2,202.2l-57.9,57.9c-13.7,13.7-13.7,35.9,0,49.6l33.1,33.1
			c13.7,13.7,35.9,13.7,49.6,0l57.9-57.9L70.2,202.2L70.2,202.2z M78.5,293.2c-4.6,4.6-12,4.6-16.5,0s-4.6-12,0-16.5l16.5-16.5
			c4.6-4.6,12-4.6,16.5,0s4.6,12,0,16.5L78.5,293.2z M201.7,349l15.9-15.9c13.7-13.7,13.7-35.9,0-49.6l-11.8-11.8
			c-6.5,4.4-12.8,9.2-18.8,14.2L201,300c4.6,4.5,4.6,11.9,0,16.5l-16.2,16.2l-23.8-23l-33.1,33.1l53,51.4c9.1,9.1,23.9,9.1,33.1,0
			c9.1-9.1,9.1-24,0-33.1L201.7,349L201.7,349z M248.9,1.9c-6.5,0-11.7,5.2-11.7,11.7V37c0,6.5,5.2,11.7,11.7,11.7
			s11.7-5.2,11.7-11.7V13.6C260.6,7.1,255.4,1.9,248.9,1.9z M342.4,95.4h-23.4c-6.5,0-11.7,5.2-11.7,11.7s5.2,11.7,11.7,11.7h23.4
			c6.5,0,11.7-5.2,11.7-11.7S348.9,95.4,342.4,95.4z M327.3,28.7c-4.6-4.6-12-4.6-16.5,0l-23.4,23.4c-4.6,4.6-4.6,12,0,16.5
			s12,4.6,16.5,0l23.4-23.4C331.9,40.7,331.9,33.3,327.3,28.7z"/>
	</g>
</g>
</svg>
