<?xml version="1.0" encoding="utf-8"?>
<!-- Generator: Adobe Illustrator 24.3.0, SVG Export Plug-In . SVG Version: 6.00 Build 0)  -->
<svg version="1.1" id="Layer_1" xmlns="http://www.w3.org/2000/svg" xmlns:xlink="http://www.w3.org/1999/xlink" x="0px" y="0px"
	 width="402.9px" height="402.9px" viewBox="0 0 402.9 402.9" style="enable-background:new 0 0 402.9 402.9;" xml:space="preserve"
	>
<style type="text/css">
	.st0{fill:#0FDAC2;}
	.st1{fill:#0EDBC1;}
	.st2{fill-rule:evenodd;clip-rule:evenodd;fill:#0EDBC1;}
	.st3{fill-rule:evenodd;clip-rule:evenodd;fill:#0FDAC2;}
</style>
<g>
	<g>
		<path class="st3" d="M323.1,307h-243c-2.6,0-4.7,2.3-4.7-0.2V29c0-13.5,11-24.5,24.5-24.5l203.4-0.2c13.5,0,24.5,11.2,24.5,24.5
			v277.9C327.7,309.3,325.6,307,323.1,307z M200,65.2c-9.3,0-9.3,13.7,0,13.7C209.1,78.9,209.1,65.2,200,65.2z M123.4,88.2
			c-21.4,0-21.2-32.4,0-32.4c8.6,0,14,5.1,15.6,11.4h45.4c4.2-15.6,26.8-15.4,31,0h48.7c1.6-6.3,6.8-11.4,15.4-11.4
			c21.4,0,21.4,32.4,0,32.4c-8.6,0-13.7-5.1-15.4-11.6h-28.2c19.3,10.7,33.5,29.8,37.5,52.2c14.9,0,13,2.1,13,25.2
			c0,4.2-3.3,7.5-7.5,7.5c-28.2,0-25.2,3-25.2-25.2c0-6.8,5.8-7.5,10.3-7.5c-5.4-24.7-24.7-44.5-49.2-50.3
			c-5.1,13.3-24.9,13.3-29.8,0c-24.7,5.8-44,25.6-49.2,50.3c11.9,0.2,10,3.7,10.3,25.2c0,4.2-3.3,7.5-7.5,7.5
			c-28.2,0-25.4,3-25.4-25.2c0-8.4,8.9-7.5,13-7.5c4.2-22.4,18.2-41.5,37.7-52.2H139C137.4,83.1,132.3,88.2,123.4,88.2z M123.4,65.2
			c-9.1,0-9.1,13.7,0,13.7C132.7,78.9,132.7,65.2,123.4,65.2z M279.5,65.2c-9.1,0-9.1,13.7,0,13.7C288.6,78.9,288.6,65.2,279.5,65.2
			z M122.7,152.1h14.2v-14h-14.2V152.1z M263.2,152.1h14v-14h-14V152.1z M235.2,251.5h-67.3c-2.6,0-4.7-2.1-4.7-4.7v-28.4
			c0-6.1,7.2-4.7,12.6-4.7c-3.3-19.1-24.9-20-20.5-28.2l41.9-77.1c1.6-4,7-4,8.6,0l41.7,77.1c1.4,2.3,0.5,5.4-2.1,6.5
			c0,0-15.4,7.5-18.2,21.7c5.1,0,12.6-1.2,12.6,4.7v28.4C239.9,249.4,237.8,251.5,235.2,251.5z M185.6,213.8h32.2
			c2.1-14.7,13.3-23.8,19.6-27.7l-31.2-57.5V149c13.7,4.4,12.1,27.5-4.7,27.5s-18.2-23.1-4.7-27.5v-20.5l-31,57.5
			C177.9,193.8,184.4,205.6,185.6,213.8z M172.6,242.2h58v-19.1h-58V242.2z M201.4,157.6c-6.3,0-6.3,9.6,0,9.6
			S207.7,157.6,201.4,157.6z"/>
		<path class="st3" d="M292.8,398.5H110.4c-3,0-5.4-2.8-4.4-5.8c9.1-35.9,66.6-29.1,76.2-53.1H32.8c-16.5,0-30.1-13.3-30.1-29.8V67
			C2.7,50.5,16.2,37,32.8,37h33.3v36.8H46.3c-2.8,0-4.7,2.1-4.7,4.7v219.7c0,2.6,1.9,4.7,4.7,4.7h310.6c2.6,0,4.7-2.1,4.7-4.7V78.4
			c0-2.6-2.1-4.7-4.7-4.7H337V37h33.3c16.5,0,29.8,13.5,29.8,30.1v242.8c0,16.5-13.3,29.8-29.8,29.8H221c9.6,24,66.9,17.2,76.2,53.1
			C297.9,395.8,295.8,398.5,292.8,398.5z M341.2,325.2h-18.9c-6.1,0-6.1-9.3,0-9.3h18.9C347.3,315.8,347.3,325.2,341.2,325.2z
			 M119.9,325.2h-18.6c-6.1,0-6.1-9.3,0-9.3h18.6C126.2,315.8,126.2,325.2,119.9,325.2z M82.9,325.2H64c-6.1,0-6.1-9.3,0-9.3h18.9
			C88.9,315.8,88.9,325.2,82.9,325.2z"/>
	</g>
</g>
</svg>
