<?xml version="1.0" encoding="utf-8"?>
<!-- Generator: Adobe Illustrator 24.3.0, SVG Export Plug-In . SVG Version: 6.00 Build 0)  -->
<svg version="1.1" id="Layer_1" xmlns="http://www.w3.org/2000/svg" xmlns:xlink="http://www.w3.org/1999/xlink" x="0px" y="0px"
	 width="402.9px" height="402.9px" viewBox="0 0 402.9 402.9" style="enable-background:new 0 0 402.9 402.9;" xml:space="preserve"
	>
<style type="text/css">
	.st0{fill:#0FDAC2;}
	.st1{fill:#0EDBC1;}
	.st2{fill-rule:evenodd;clip-rule:evenodd;fill:#0EDBC1;}
	.st3{fill-rule:evenodd;clip-rule:evenodd;fill:#0FDAC2;}
</style>
<g>
	<g>
		<path class="st0" d="M85,3.1H17.1C9.5,3.1,3.1,9.5,3.1,17.1v51.2H85V3.1z M17.1,399.8H85v-65.3H3.1v51.2
			C3.1,393.4,9.5,399.8,17.1,399.8L17.1,399.8z M211.7,3.1h83.2v65.3h-83.2V3.1z M106.7,334.6h83.2v65.3h-83.2V334.6z M106.7,3.1
			h83.2v65.3h-83.2V3.1z M3.1,312.8h396.8V90.1H3.1V312.8z M136.2,140c0-14.1,11.5-25.6,25.6-25.6c5.1,0,10.2,1.3,15.4,5.1
			l79.4,61.4c6.4,5.1,10.2,11.5,10.2,20.5s-3.8,15.4-10.2,20.5l-79.4,61.4c-3.8,3.8-10.2,5.1-15.4,5.1c-14.1,0-25.6-11.5-25.6-25.6
			L136.2,140L136.2,140z M317.9,68.3h81.9V17.1c0-7.7-6.4-14.1-14.1-14.1h-67.8V68.3z M211.7,334.6h83.2v65.3h-83.2V334.6z
			 M317.9,399.8h67.8c7.7,0,14.1-6.4,14.1-14.1v-51.2h-81.9V399.8z"/>
	</g>
</g>
</svg>
