<?xml version="1.0" encoding="utf-8"?>
<!-- Generator: Adobe Illustrator 24.3.0, SVG Export Plug-In . SVG Version: 6.00 Build 0)  -->
<svg version="1.1" id="Layer_1" xmlns="http://www.w3.org/2000/svg" xmlns:xlink="http://www.w3.org/1999/xlink" x="0px" y="0px"
	 width="402.9px" height="402.9px" viewBox="0 0 402.9 402.9" style="enable-background:new 0 0 402.9 402.9;" xml:space="preserve"
	>
<style type="text/css">
	.st0{fill:#0FDAC2;}
	.st1{fill:#0EDBC1;}
	.st2{fill-rule:evenodd;clip-rule:evenodd;fill:#0EDBC1;}
	.st3{fill-rule:evenodd;clip-rule:evenodd;fill:#0FDAC2;}
</style>
<g>
	<g>
		<path class="st0" d="M346,64.9l24.1-2l-1.9-23.2l-66,5.5l5.5,66l23.2-1.9l-2.4-28.9c31,32.4,48.5,75.5,48.5,121.1
			c0,46.9-18.3,91-51.4,124.1S248.3,377,201.4,377s-91-18.3-124.1-51.4s-51.4-77.2-51.4-124.1s18.3-91,51.4-124.1
			s77.2-51.4,124.1-51.4V2.6c-53.1,0-103,20.7-140.6,58.2C23.3,98.4,2.6,148.3,2.6,201.4s20.7,103,58.2,140.6
			c37.6,37.6,87.5,58.2,140.6,58.2s103-20.7,140.6-58.2c37.6-37.6,58.2-87.5,58.2-140.6C400.3,150,380.8,101.5,346,64.9z"/>
		<path class="st0" d="M189.8,106V78.6c-58.7,5.5-105.6,52.4-111.2,111.2H106v23.3H78.6c5.5,58.7,52.4,105.6,111.2,111.2v-27.3h23.3
			v27.3c58.7-5.5,105.6-52.4,111.2-111.2h-27.3v-23.3h27.3c-5.5-58.7-52.4-105.6-111.2-111.2V106H189.8z M213.1,206.9l-43.9,36.9
			l-15-17.8l35.6-29.9v-65.5h23.3V206.9z"/>
	</g>
</g>
</svg>
