<?xml version="1.0" encoding="utf-8"?>
<!-- Generator: Adobe Illustrator 24.3.0, SVG Export Plug-In . SVG Version: 6.00 Build 0)  -->
<svg version="1.1" id="Layer_1" xmlns="http://www.w3.org/2000/svg" xmlns:xlink="http://www.w3.org/1999/xlink" x="0px" y="0px"
	 viewBox="0 0 400 400" style="enable-background:new 0 0 400 400;" xml:space="preserve">
<style type="text/css">
	.st0{fill-rule:evenodd;clip-rule:evenodd;fill:#FF6726;}
</style>
<path class="st0" d="M274.9,19.6v37.6l-1.5,0.7c-25.1-29.5-61.2-45-99.6-45C80.8,13,9.3,89.7,9.3,200.4
	C9.3,311.8,80.8,387,179.7,387c43.5,0,76-14.8,99.6-45l1.5,0.7v37.6h109.9V19.6H274.9z M204.1,285.2c-45.7,0-77.5-33.9-77.5-84.8
	c0-51.6,33.2-85.6,77.5-85.6c42.8,0,76,36.2,76,85.6C280.1,252,245.4,285.2,204.1,285.2z"/>
</svg>
