<?xml version="1.0" encoding="utf-8"?>
<!-- Generator: Adobe Illustrator 24.3.0, SVG Export Plug-In . SVG Version: 6.00 Build 0)  -->
<svg version="1.1" id="Layer_1" xmlns="http://www.w3.org/2000/svg" xmlns:xlink="http://www.w3.org/1999/xlink" x="0px" y="0px"
	 viewBox="0 0 400 400" style="enable-background:new 0 0 400 400;" xml:space="preserve">
<style type="text/css">
	.st0{fill:#57B7DD;}
	.st1{fill:#F99132;}
	.st2{fill:#A98BBC;}
	.st3{fill:#FF6D56;}
	.st4{fill:#8AC539;}
	.st5{fill:#FFBE0A;}
</style>
<g>
	<path class="st0" d="M26,124.1v101.6l118.8,56.2l121.6-128L186.9,9c-2.6,0.9-5.2,2-7.5,3.4l-132,76C34,95.4,26,108.9,26,124.1"/>
	<path class="st1" d="M144.8,281.6L287.9,349l64.8-37.6l-86.6-158.1L144.8,281.6z"/>
	<path class="st2" d="M337.6,78.7L221.1,12.2c-10.3-5.7-22.7-7.2-33.9-3.4l79.5,144.9l71.1-74.9L337.6,78.7z"/>
	<path class="st3" d="M353.1,311.7h0.3c12.9-7.5,20.7-21.2,20.7-35.9V124.1c0-14.9-7.7-28.4-20.7-36.1L337.6,79l-71.1,74.9
		L353.1,311.7L353.1,311.7z"/>
	<path class="st4" d="M26,225.3v50.2c0,14.6,8,28.4,20.9,35.9l44.8,25.8l53.1-55.9L26,225.3z"/>
	<path class="st5" d="M92,337.5l87.2,50.2c12.9,7.5,29,7.5,41.9,0l66.8-38.4l-143.2-67.4C144.8,281.6,92,337.5,92,337.5z"/>
</g>
</svg>
