<?xml version="1.0" encoding="utf-8"?>
<!-- Generator: Adobe Illustrator 24.3.0, SVG Export Plug-In . SVG Version: 6.00 Build 0)  -->
<svg version="1.1" id="Layer_1" xmlns="http://www.w3.org/2000/svg" xmlns:xlink="http://www.w3.org/1999/xlink" x="0px" y="0px"
	 viewBox="0 0 100 100" style="enable-background:new 0 0 100 100;" xml:space="preserve">
<style type="text/css">
	.st0{fill:#FFFFFF;}
</style>
<path class="st0" d="M99.1,76c1.2,0.6,1.2,1.1,0,1.6L51.8,99.3c-1.1,0.6-2.4,0.6-3.6,0L0.9,77.6c-1.2-0.4-1.2-1,0-1.6l11.3-5.1
	c1.2-0.6,2.4-0.6,3.6,0l32.4,14.9c1.2,0.6,2.4,0.6,3.6,0l32.4-14.9c1.1-0.6,2.4-0.6,3.5,0L99.1,76L99.1,76z M99.1,49.1
	c1.2,0.6,1.2,1.2,0,1.8L51.8,72.7c-1.2,0.4-2.4,0.4-3.6,0L0.9,50.9c-1.2-0.6-1.2-1.2,0-1.8L12.2,44c1.1-0.6,2.4-0.6,3.6,0l32.4,14.9
	c1.2,0.6,2.4,0.6,3.6,0L84.2,44c1.1-0.6,2.4-0.6,3.5,0L99.1,49.1L99.1,49.1z M0.9,24c-1.2-0.6-1.2-1.1,0-1.6L48.2,0.7
	c1.2-0.6,2.4-0.6,3.6,0l47.3,21.8c1.2,0.4,1.2,1,0,1.6L51.8,45.8c-1.1,0.6-2.4,0.6-3.6,0L0.9,24L0.9,24z"/>
</svg>
