<?xml version="1.0" encoding="utf-8"?>
<!-- Generator: Adobe Illustrator 24.3.0, SVG Export Plug-In . SVG Version: 6.00 Build 0)  -->
<svg version="1.1"
	 id="Layer_1" image-rendering="optimizeQuality" shape-rendering="geometricPrecision" text-rendering="geometricPrecision"
	 xmlns="http://www.w3.org/2000/svg" xmlns:xlink="http://www.w3.org/1999/xlink" x="0px" y="0px" viewBox="0 0 512 509.7"
	 style="enable-background:new 0 0 512 509.7;" xml:space="preserve">
<style type="text/css">
	.st0{fill-rule:evenodd;clip-rule:evenodd;fill:#FFFFFF;}
	.st1{fill:#999999;}
	.st2{fill:#FFFFFF;}
</style>
<path class="st0" d="M117,2.5H395C458,2.5,509.5,54,509.5,117v275.7c0,63-51.5,114.5-114.5,114.5H117c-63,0-114.5-51.5-114.5-114.5
	V117C2.5,54,54,2.5,117,2.5"/>
<path class="st1" d="M117,0H395c64.3,0,117,52.6,117,117v275.7c0,64.3-52.6,117-117,117H117c-64.3,0-117-52.6-117-117V117
	C0,52.6,52.6,0,117,0 M395,5H117C55.4,5,5,55.4,5,117v275.7c0,61.6,50.4,112,112,112H395c61.6,0,112-50.4,112-112V117
	C507,55.4,456.6,5,395,5"/>
<path class="st2" d="M109.1,181.5c-0.1,8.9,0,17.8,0,26.7c0,2.1,1.3,4.1,3.2,4.9c28,13.9,56,27.8,84.1,41.6
	c-27.8,13.7-55.6,27.5-83.4,41.3c-2.2,0.7-3.8,2.6-4.1,4.9v26.8c1.9,18.2,15.8,32.8,33.9,35.5c3.5,0.3,7,0.3,10.5,0.3l155.8,0
	c3.8,0.2,7.5-0.1,11.2-0.9c11.1-2.7,20.6-10,26.1-20c1.8-3.6,3.2-7.4,4.3-11.2c16,8.3,32.3,16.1,48.5,24.2c0.4,0.3,0.9,0.4,1.3,0.4
	c1.3,0,2.3-1,2.3-2.3V326c-0.1-1.9-1.4-3.5-3.1-4.1l-135.3-67.1c45.2-22.4,90.4-44.9,135.6-67.3c1.6-0.7,2.7-2.3,2.8-4.1v-27.6
	c-0.2-1.2-1.2-2-2.4-1.9c-0.2,0-0.5,0.1-0.7,0.2l-49.1,24.4c-1.1-5.3-3.3-10.4-6.4-14.9c-6.9-10-18-16.4-30.1-17.4l-167.1,0
	C127.4,147,111.3,162,109.1,181.5L109.1,181.5z"/>
<path class="st2" d="M140,181.7c1.8-3.5,5.4-5.7,9.3-5.6h161.5l0.1,0c5.1,0,9.4,3.7,10.1,8.7c0.2,2.7,0.1,5.4,0,8.2l-90.6,44.9
	c-30.6-15-61-30.2-91.5-45.3C139.2,189,138.4,185.1,140,181.7 M139,317.1c30.4-15.2,60.9-30.3,91.4-45.3
	c30.3,14.8,60.5,30,90.8,44.9c-0.2,3.9,0.8,8.2-1.3,11.8c-1.8,3.1-5.1,5.1-8.8,5.1H311l-161.6,0l-0.3,0c-3.8,0-7.2-2.1-9-5.4
	C138.3,324.7,139.2,320.8,139,317.1"/>
<path d="M109.1,181.5c2.2-19.5,18.3-34.6,38-35.5l167.2,0c12.1,1,23.2,7.4,30.1,17.4c3.1,4.5,5.2,9.6,6.4,14.9l49.1-24.4
	c1.1-0.5,2.4-0.1,2.9,1c0.1,0.2,0.2,0.5,0.2,0.7v27.6l0,0.1c0,1.9-1.1,3.5-2.8,4.2c-45.2,22.4-90.4,44.9-135.6,67.3l135.3,66.9
	c1.8,0.6,3,2.2,3.1,4.1v27.7c0,1.3-1,2.3-2.3,2.3c-0.5,0-1-0.2-1.3-0.4c-16.1-8.2-32.5-15.9-48.5-24.2c-1.1,3.9-2.5,7.6-4.3,11.2
	c-5.5,10.1-15,17.4-26.1,20.1c-3.7,0.8-7.5,1.1-11.2,0.9l-155.8,0c-3.5,0-7,0-10.5-0.3c-18.1-2.7-32-17.4-33.9-35.6V301
	c0.3-2.3,1.9-4.2,4.1-4.9c27.8-13.7,55.5-27.6,83.4-41.3c-28-14-56.1-27.9-84.2-41.7c-1.9-0.9-3.2-2.8-3.2-4.9
	C109.1,199.3,109,190.4,109.1,181.5 M140.1,181.7c-1.7,3.4-0.9,7.3-1,10.9c30.6,15.1,61,30.3,91.5,45.3c30.2-15,60.4-29.9,90.6-44.9
	c0-2.7,0.1-5.4,0-8.2c-0.7-5-5-8.7-10.1-8.7H311l-161.6,0C145.5,176,141.8,178.2,140.1,181.7L140.1,181.7z M139,317.1
	c0.1,3.7-0.7,7.6,1.1,11c1.8,3.4,5.4,5.5,9.3,5.4l161.7,0l0.1,0c3.6,0,7-1.9,8.8-5.1c2-3.6,1.1-7.9,1.3-11.8
	c-30.3-14.9-60.5-30.1-90.8-44.9C199.9,286.9,169.5,302,139,317.1L139,317.1z"/>
</svg>
