<?xml version="1.0" encoding="utf-8"?>
<!-- Generator: Adobe Illustrator 24.3.0, SVG Export Plug-In . SVG Version: 6.00 Build 0)  -->
<svg version="1.1" id="Layer_1" xmlns="http://www.w3.org/2000/svg" xmlns:xlink="http://www.w3.org/1999/xlink" x="0px" y="0px"
	 viewBox="0 0 800 800" style="enable-background:new 0 0 800 800;" xml:space="preserve">
<style type="text/css">
	.st0{fill:#5865F2;}
</style>
<g>
	<path class="st0" d="M668.8,149.2C618.6,125.8,565,108.7,509,99c-6.9,12.4-14.9,29.2-20.5,42.5c-59.6-9-118.6-9-177,0
		c-5.5-13.3-13.8-30-20.7-42.5c-56.1,9.7-109.7,26.8-159.9,50.3C29.8,302.1,2.4,451.1,16.1,597.9c67.1,50.1,132,80.5,195.9,100.4
		c15.8-21.7,29.8-44.8,42-69.1c-23.1-8.8-45.2-19.6-66.1-32.2c5.5-4.1,11-8.4,16.2-12.8c127.4,59.6,265.8,59.6,391.7,0
		c5.3,4.4,10.7,8.7,16.2,12.8c-21,12.6-43.1,23.4-66.2,32.2c12.1,24.3,26.1,47.4,42,69.1c63.9-19.9,129-50.3,196-100.5
		C799.9,427.7,756.4,280.1,668.8,149.2z M271.4,507.6c-38.2,0-69.6-35.7-69.6-79.2s30.7-79.2,69.6-79.2c38.9,0,70.3,35.7,69.6,79.2
		C341,471.9,310.3,507.6,271.4,507.6z M528.6,507.6c-38.2,0-69.6-35.7-69.6-79.2s30.7-79.2,69.6-79.2c38.9,0,70.3,35.7,69.6,79.2
		C598.2,471.9,567.5,507.6,528.6,507.6z"/>
</g>
</svg>
