<?xml version="1.0" encoding="UTF-8"?>
<!DOCTYPE svg PUBLIC "-//W3C//DTD SVG 1.1//EN" "http://www.w3.org/Graphics/SVG/1.1/DTD/svg11.dtd">
<svg xmlns="http://www.w3.org/2000/svg" version="1.1" width="256px" height="256px" style="shape-rendering:geometricPrecision; text-rendering:geometricPrecision; image-rendering:optimizeQuality; fill-rule:evenodd; clip-rule:evenodd" xmlns:xlink="http://www.w3.org/1999/xlink">
<g><path style="opacity:1" fill="#fefefe" d="M -0.5,-0.5 C 84.8333,-0.5 170.167,-0.5 255.5,-0.5C 255.5,84.8333 255.5,170.167 255.5,255.5C 170.167,255.5 84.8333,255.5 -0.5,255.5C -0.5,170.167 -0.5,84.8333 -0.5,-0.5 Z"/></g>
<g><path style="opacity:1" fill="#49c6eb" d="M 154.5,38.5 C 154.414,39.4959 154.748,40.3292 155.5,41C 153.655,42.4229 151.655,43.5896 149.5,44.5C 151.637,45.0798 153.47,46.0798 155,47.5C 155.483,46.552 155.649,45.552 155.5,44.5C 159.08,44.6107 161.747,46.2774 163.5,49.5C 160.039,58.8233 158.705,68.49 159.5,78.5C 134.49,78.3335 109.49,78.6668 84.5,79.5C 84.1718,74.1254 84.5052,68.7921 85.5,63.5C 86.4255,64.6405 87.2588,64.6405 88,63.5C 88.1001,60.5628 88.9334,57.8961 90.5,55.5C 89.9747,54.8076 89.3081,54.3076 88.5,54C 89.8613,52.4157 90.528,50.5824 90.5,48.5C 105.004,29.0626 123.671,23.8959 146.5,33C 149.621,34.3063 152.287,36.1397 154.5,38.5 Z"/></g>
<g><path style="opacity:1" fill="#4fc9ea" d="M 154.5,38.5 C 163.821,45.118 169.654,54.118 172,65.5C 172.499,71.1569 172.666,76.8236 172.5,82.5C 142.5,82.5 112.5,82.5 82.5,82.5C 80.808,69.9437 83.4747,58.6104 90.5,48.5C 90.528,50.5824 89.8613,52.4157 88.5,54C 89.3081,54.3076 89.9747,54.8076 90.5,55.5C 88.9334,57.8961 88.1001,60.5628 88,63.5C 87.2588,64.6405 86.4255,64.6405 85.5,63.5C 84.5052,68.7921 84.1718,74.1254 84.5,79.5C 109.49,78.6668 134.49,78.3335 159.5,78.5C 158.705,68.49 160.039,58.8233 163.5,49.5C 161.747,46.2774 159.08,44.6107 155.5,44.5C 155.649,45.552 155.483,46.552 155,47.5C 153.47,46.0798 151.637,45.0798 149.5,44.5C 151.655,43.5896 153.655,42.4229 155.5,41C 154.748,40.3292 154.414,39.4959 154.5,38.5 Z"/></g>
<g><path style="opacity:1" fill="#053863" d="M 86.5,83.5 C 115.167,83.5 143.833,83.5 172.5,83.5C 172.5,113.167 172.5,142.833 172.5,172.5C 149.498,172.333 126.498,172.5 103.5,173C 102.619,173.708 101.953,174.542 101.5,175.5C 100.5,176.167 99.5,176.833 98.5,177.5C 98.8588,175.629 99.8588,174.129 101.5,173C 100.027,172.29 99.3601,171.124 99.5,169.5C 103.94,167.969 108.606,167.302 113.5,167.5C 126.331,168.729 139.164,168.729 152,167.5C 156.167,167.667 160.333,167.833 164.5,168C 163.112,168.889 163.278,169.389 165,169.5C 165.5,169.167 166,168.833 166.5,168.5C 169.127,161.844 169.46,155.177 167.5,148.5C 169.535,143.095 169.535,137.762 167.5,132.5C 168.258,129.198 168.925,125.865 169.5,122.5C 167.158,114.213 167.158,105.879 169.5,97.5C 169.291,93.6851 168.291,90.1851 166.5,87C 145.362,85.1857 124.195,85.019 103,86.5C 98.1299,86.3531 93.2966,85.8531 88.5,85C 87.5842,84.7216 86.9175,84.2216 86.5,83.5 Z"/></g>
<g><path style="opacity:1" fill="#00395c" d="M 86.5,83.5 C 86.9175,84.2216 87.5842,84.7216 88.5,85C 93.2966,85.8531 98.1299,86.3531 103,86.5C 124.195,85.019 145.362,85.1857 166.5,87C 168.291,90.1851 169.291,93.6851 169.5,97.5C 167.158,105.879 167.158,114.213 169.5,122.5C 168.925,125.865 168.258,129.198 167.5,132.5C 169.535,137.762 169.535,143.095 167.5,148.5C 169.46,155.177 169.127,161.844 166.5,168.5C 166,168.833 165.5,169.167 165,169.5C 163.278,169.389 163.112,168.889 164.5,168C 160.333,167.833 156.167,167.667 152,167.5C 139.164,168.729 126.331,168.729 113.5,167.5C 108.606,167.302 103.94,167.969 99.5,169.5C 99.3601,171.124 100.027,172.29 101.5,173C 99.8588,174.129 98.8588,175.629 98.5,177.5C 94.6226,181.811 90.6226,186.145 86.5,190.5C 85.5832,191.127 84.5832,191.461 83.5,191.5C 83.5,190.167 83.5,188.833 83.5,187.5C 83.5,152.833 83.5,118.167 83.5,83.5C 84.5,83.5 85.5,83.5 86.5,83.5 Z"/></g>
<g><path style="opacity:1" fill="#485da9" d="M 185.5,83.5 C 207.355,86.0212 220.688,98.0212 225.5,119.5C 224.51,125.645 224.177,131.978 224.5,138.5C 219.355,157.649 207.022,168.649 187.5,171.5C 183.366,170.515 179.032,170.182 174.5,170.5C 174.172,154.448 174.506,138.448 175.5,122.5C 174.775,109.521 174.108,96.5208 173.5,83.5C 177.5,83.5 181.5,83.5 185.5,83.5 Z"/></g>
<g><path style="opacity:1" fill="#4bc6eb" d="M 82.5,82.5 C 82.5,112.5 82.5,142.5 82.5,172.5C 58.4384,174.89 41.2717,165.223 31,143.5C 24.0154,117.767 32.1821,98.6003 55.5,86C 64.2648,83.0488 73.2648,81.8821 82.5,82.5 Z"/></g>
<g><path style="opacity:1" fill="#166083" d="M 82.5,82.5 C 112.5,82.5 142.5,82.5 172.5,82.5C 172.5,82.8333 172.5,83.1667 172.5,83.5C 143.833,83.5 115.167,83.5 86.5,83.5C 85.5,83.5 84.5,83.5 83.5,83.5C 83.5,118.167 83.5,152.833 83.5,187.5C 82.5128,182.695 82.1795,177.695 82.5,172.5C 82.5,142.5 82.5,112.5 82.5,82.5 Z"/></g>
<g><path style="opacity:1" fill="#5968a2" d="M 225.5,119.5 C 226.163,121.641 226.497,123.975 226.5,126.5C 226.589,130.761 225.922,134.761 224.5,138.5C 224.177,131.978 224.51,125.645 225.5,119.5 Z"/></g>
<g><path style="opacity:1" fill="#4965a0" d="M 172.5,82.5 C 177.032,82.1818 181.366,82.5151 185.5,83.5C 181.5,83.5 177.5,83.5 173.5,83.5C 174.108,96.5208 174.775,109.521 175.5,122.5C 174.506,138.448 174.172,154.448 174.5,170.5C 179.032,170.182 183.366,170.515 187.5,171.5C 182.695,172.487 177.695,172.821 172.5,172.5C 172.5,142.833 172.5,113.167 172.5,83.5C 172.5,83.1667 172.5,82.8333 172.5,82.5 Z"/></g>
<g><path style="opacity:1" fill="#41619d" d="M 172.5,172.5 C 172.821,177.695 172.487,182.695 171.5,187.5C 171.5,182.833 171.5,178.167 171.5,173.5C 157.017,174.239 142.517,174.906 128,175.5C 119.266,173.573 110.432,173.573 101.5,175.5C 101.953,174.542 102.619,173.708 103.5,173C 126.498,172.5 149.498,172.333 172.5,172.5 Z"/></g>
<g><path style="opacity:1" fill="#485da9" d="M 171.5,187.5 C 166.856,211.81 152.19,224.81 127.5,226.5C 104.565,225.232 89.8981,213.565 83.5,191.5C 84.5832,191.461 85.5832,191.127 86.5,190.5C 90.6226,186.145 94.6226,181.811 98.5,177.5C 99.5,176.833 100.5,176.167 101.5,175.5C 110.432,173.573 119.266,173.573 128,175.5C 142.517,174.906 157.017,174.239 171.5,173.5C 171.5,178.167 171.5,182.833 171.5,187.5 Z"/></g>
</svg>
