<?xml version="1.0" encoding="utf-8"?>
<!-- Generator: Adobe Illustrator 24.3.0, SVG Export Plug-In . SVG Version: 6.00 Build 0)  -->
<svg version="1.1" id="Layer_1" xmlns="http://www.w3.org/2000/svg" xmlns:xlink="http://www.w3.org/1999/xlink" x="0px" y="0px"
	 viewBox="0 0 800 800" style="enable-background:new 0 0 800 800;" xml:space="preserve">
<style type="text/css">
	.st0{fill:#E24329;}
	.st1{fill:#FC6D26;}
	.st2{fill:#FCA326;}
</style>
<path class="st0" d="M520.2,114.5c-31,19.5-75,50-134.2,87.8c-50.6,31.9-99.3,66.8-145.8,104.5c-20.2,21-36.2,75-73.5,120.5
	c-23.9,29.9-50.7,57.5-80,82.3c28.3-5.4,55.4-15.9,80-30.8c31.6-18.3,59.8-42,83.3-70c10.2-16.2,21.5-31.8,33.8-46.5
	c29.5-28,132.8-70,195.8-90s77.5-7.8,140-19.5c29.4-3.1,57.9-11.6,84.3-25L750,85l-229.8,84.8V114.5z"/>
<path class="st1" d="M750,263.8l-87.8,153h-70L400,378v-25l89.2-53l65.5-10.5L750,263.8z M322,418.2l-7.8,77.2l-40.8,12l-42.8-14.2
	L322,418.2z"/>
<path class="st2" d="M86.8,525c-4.2,7.7-6.6,16.2-7,25c0,11.2-29.8,17.5-29.8,52.8c2.5,30.5,20,57.7,46.8,72.5l61.8,39.8
	c-6.4-13.5-9.4-28.3-8.5-43.2c-0.3-14.1,7.4-27.1,19.8-33.8c16.8-13.2,169.2-39.8,214.8-33.2c32.5,5.7,62.2,22.2,84.2,46.8L675,500
	l-53.2-48.5h-35l-48.5-23.3H398l-59,123.3c-78.7-3.8-125.9-6.7-141.7-8.5C181.2,541,144.8,535.8,86.8,525z"/>
</svg>
