<?xml version="1.0" encoding="utf-8"?>
<!-- Generator: Adobe Illustrator 24.3.0, SVG Export Plug-In . SVG Version: 6.00 Build 0)  -->
<svg version="1.1" id="Layer_1" xmlns="http://www.w3.org/2000/svg" xmlns:xlink="http://www.w3.org/1999/xlink" x="0px" y="0px"
	 viewBox="0 0 225 225" style="enable-background:new 0 0 225 225;" xml:space="preserve">
<style type="text/css">
	.st0{enable-background:new    ;}
	.st1{fill:#FF4C46;}
</style>
<g class="st0">
	<path class="st1" d="M107.4,105c4.4,6.6,2.5,13.8-3.3,17.7c-5.8,3.9-13.2,3-17.6-3.6c-4.4-6.6-2.5-13.8,3.3-17.7
		C95.5,97.5,102.9,98.4,107.4,105z M151.4,102.6c-5.8,3.9-7.8,11.1-3.3,17.7c4.4,6.6,11.9,7.5,17.6,3.6c5.8-3.9,7.8-11.1,3.3-17.7
		C164.6,99.5,157.2,98.7,151.4,102.6z M216.5,40.4l-42.3,25.1l2.1,2.4c19.5,22.9,31.5,56.2,37.2,75.5c3.4,11.4,1.3,23.7-5.6,33.3
		c-12.5,17.4-39.3,41.1-92.1,41.1c-57.7,0-87.7-28.5-102.1-46.1c-6.2-7.5-7.9-17.8-4.5-26.9c8-21.4,24.3-62.5,37.3-77.4
		c7.4-8.4,15.9-15.8,25.4-21.7L28.3,11.9c-2.4-1.8-0.3-5.5,2.5-4.5l70.8,26.4c3.3-0.6,6.6-0.9,9.9-0.9c12.3,0,24,2.7,35.7,9.5
		l67.9-6.1C217.5,36.1,218.5,39.2,216.5,40.4L216.5,40.4z M144.4,160.2c-9.6,3.4-20.1,2.7-29.1-2c-0.6-0.3-1.3,0.5-0.8,1
		c4,4.3,11.2,11.8,15.5,15.6c0.9,0.8,2.3,0.7,3.1-0.2l12-13.3C145.6,160.7,145.1,159.9,144.4,160.2z M146.5,150l-15.8-17.7
		c-1.1-1.2-3-1.3-4.2-0.2c-0.1,0.1-0.2,0.2-0.3,0.3l-12.6,15c-0.6,0.7-0.5,1.7,0.2,2.2c0,0,0.1,0,0.1,0.1c2.9,2.1,10.1,6.7,17,6.7
		c6.4,0,12.3-2.5,15.1-3.9c0.8-0.4,1.1-1.3,0.7-2.1C146.7,150.3,146.6,150.1,146.5,150z M160.7,76.3c-2.6-0.3-5.3,0.3-7.6,1.6
		l-15.9,9.4c-3.9,2.4-8.9,2-12.6-0.8l-13.8-10.7c-4.6-3.6-9.9-6.2-15.6-7.5c-23.7-5.6-39.7,6.8-51.9,30.2
		c-11.6,22.3-5.1,54.2,23.4,61.8c30.2,8,50.1-25.5,58-36.6c1.2-1.7,3.6-2.1,5.4-0.9c0.3,0.2,0.6,0.5,0.9,0.9
		c12.3,16.8,29,34.8,46.8,31.2c23.3-4.7,20.5-34.2,13.3-50C184.8,91,175.2,77.9,160.7,76.3L160.7,76.3z"/>
</g>
</svg>
