<?xml version="1.0" encoding="UTF-8"?>
<!DOCTYPE svg PUBLIC "-//W3C//DTD SVG 1.1//EN" "http://www.w3.org/Graphics/SVG/1.1/DTD/svg11.dtd">
<svg xmlns="http://www.w3.org/2000/svg" version="1.1" width="28px" height="28px" style="shape-rendering:geometricPrecision; text-rendering:geometricPrecision; image-rendering:optimizeQuality; fill-rule:evenodd; clip-rule:evenodd" xmlns:xlink="http://www.w3.org/1999/xlink">
<g><path style="opacity:1" fill="#fafcff" d="M -0.5,-0.5 C 8.83333,-0.5 18.1667,-0.5 27.5,-0.5C 27.5,8.83333 27.5,18.1667 27.5,27.5C 18.1667,27.5 8.83333,27.5 -0.5,27.5C -0.5,18.1667 -0.5,8.83333 -0.5,-0.5 Z"/></g>
<g><path style="opacity:1" fill="#208bff" d="M 9.5,1.5 C 20.4929,0.661002 25.6596,5.661 25,16.5C 23.4421,22.6245 19.4421,25.6245 13,25.5C 3.92256,24.0375 0.255893,18.7042 2,9.5C 3.35318,5.64987 5.85318,2.9832 9.5,1.5 Z"/></g>
<g><path style="opacity:1" fill="#f6faff" d="M 7.5,6.5 C 11.9355,6.58615 16.1022,6.91948 20,7.5C 20.4063,11.9271 20.2396,16.0937 19.5,20C 15.0729,20.4063 10.9063,20.2396 7,19.5C 6.63547,14.909 6.80214,10.5757 7.5,6.5 Z"/></g>
<g><path style="opacity:1" fill="#1d8fff" d="M 13.5,8.5 C 14.9314,10.437 16.5981,12.2703 18.5,14C 16.3762,15.1217 14.5429,16.6217 13,18.5C 11.8783,16.3762 10.3783,14.5429 8.5,13C 10.6605,12.0041 12.3272,10.5041 13.5,8.5 Z"/></g>
</svg>
