<svg xmlns="http://www.w3.org/2000/svg" viewBox="0 0 400 400" xml:space="preserve"><path fill="#fdfffe" d="M222 401H1.034V1.097h399.807V401zm-83.742-20.709c26.308 9.286 53.335 12.562 81.106 9.787 40.889-4.086 77.198-19.306 107.572-46.856 47.485-43.071 68.819-97.05 63.128-161.083-3.623-40.758-19.294-76.875-46.84-106.977-45.156-49.348-101.584-70.66-168.09-62.037-54.546 7.071-98.553 33.834-129.662 78.932-38.774 56.21-45.766 117.512-20.195 181 21.017 52.18 59.384 87.525 112.98 107.234"/><path fill="#67bf7a" d="M137.88 380.182c-53.22-19.6-91.586-54.944-112.603-107.126C-.294 209.57 6.697 148.267 45.472 92.057c31.11-45.098 75.116-71.86 129.661-78.932 66.507-8.623 122.935 12.689 168.092 62.037 27.545 30.102 43.216 66.219 46.839 106.977 5.69 64.033-15.643 118.012-63.128 161.083-30.374 27.55-66.683 42.77-107.572 46.856-27.771 2.775-54.798-.501-81.485-9.896m2.544-273.097c-4.408-2.964-8.605-6.33-13.279-8.79-6.027-3.172-9.71-1.087-11.18 5.629-.426 1.947-.7 3.93-.986 5.904-4.192 28.957-8.279 57.929-12.59 86.867-3.024 20.288-6.02 40.547-2.345 61.074 3.54 19.772 14.003 34.344 33.4 40.563 9.346 2.996 19.55 3.314 29.367 4.843 4.11.64 7.056-.576 7.292-5.174.231-4.495-2.85-5.42-6.56-5.652-5.64-.355-11.332-.495-16.891-1.405-20.322-3.328-31.82-14.785-35.884-34.965-3.597-17.853-.887-35.462 1.7-53.09 3.5-23.856 7.059-47.702 10.555-71.558 1.018-6.945 1.908-13.91 2.857-20.866l1.525-.662 31.265 29.301c.732-.435 1.46-.806 2.122-1.272 20.341-14.329 36.332-14.46 56.46-.188 2.584 1.833 4.007 1.238 5.908-.684 5.268-5.323 10.54-10.654 16.043-15.729 4.076-3.757 8.517-7.118 13.65-11.362.586 4.332.99 7.255 1.377 10.181 2.804 21.26 5.344 42.559 8.484 63.77 2.8 18.918 6.932 37.658 6.567 56.939-.187 9.915-1.376 19.616-5.95 28.598-2.836 5.572-4.06 6.022-9.054 2.502-9.924-6.993-19.58-14.367-29.532-21.319-13.483-9.418-26.87-19.021-40.836-27.68-6.955-4.311-15.252-5.948-23.6-3.39-16.524 5.063-23.262 24.544-13.319 40.614 15.162 24.504 38.024 38.257 65.845 43.7 17.988 3.518 34.876 1.143 48.358-13.16.916-.971 3.677-.99 5.224-.443 7.497 2.644 15.023 3.905 23.022 2.91 18.647-2.32 31.307-18.517 27.578-36.966-2.663-13.175-6.822-26.045-10.233-39.071-3.882-14.82-7.99-29.618-7.059-45.187.47-7.852 3.497-10.752 11.291-10.723 3.44.012 6.53-.275 6.868-4.604.348-4.456-2.748-5.67-6.298-6.158-11.606-1.593-21.925 6.356-22.313 18.818-.328 10.516.348 21.342 2.572 31.6 4.05 18.678 9.74 36.995 14.418 55.546 2.336 9.264-1.093 17.717-8.216 22.357-8.29 5.4-20.571 5.62-27.876.385 10.517-17.609 11.34-36.94 8.953-56.524-2.373-19.47-5.817-38.809-8.49-58.247-2.674-19.44-4.802-38.955-7.516-58.388-1.249-8.943-4.95-10.572-13.026-6.33-3.077 1.615-6.124 3.47-8.757 5.715-6.578 5.611-12.994 11.42-19.295 17.342-2.083 1.958-3.551 2.693-6.397 1.064-17.12-9.8-34.537-10.115-51.815-.486-3.4 1.894-5.149 1.124-7.577-1.332-4.912-4.966-10.173-9.586-15.827-14.817"/><path fill="#f4fcf5" d="M140.691 107.318c5.386 4.998 10.647 9.618 15.559 14.584 2.428 2.456 4.178 3.226 7.577 1.332 17.278-9.63 34.695-9.314 51.815.486 2.846 1.63 4.314.894 6.397-1.064 6.3-5.921 12.717-11.73 19.295-17.342 2.633-2.246 5.68-4.1 8.757-5.716 8.076-4.24 11.777-2.612 13.026 6.33 2.714 19.434 4.842 38.95 7.515 58.389 2.674 19.438 6.118 38.776 8.491 58.247 2.387 19.584 1.564 38.915-8.953 56.524 7.305 5.235 19.586 5.014 27.876-.385 7.123-4.64 10.552-13.093 8.216-22.357-4.677-18.55-10.368-36.868-14.418-55.547-2.224-10.257-2.9-21.083-2.572-31.6.388-12.46 10.707-20.41 22.313-18.817 3.55.487 6.646 1.702 6.298 6.158-.338 4.329-3.427 4.616-6.868 4.604-7.794-.03-10.82 2.871-11.29 10.723-.933 15.569 3.176 30.367 7.058 45.187 3.411 13.026 7.57 25.896 10.233 39.07 3.73 18.45-8.93 34.647-27.578 36.967-7.999.995-15.525-.266-23.022-2.91-1.547-.546-4.308-.528-5.224.443-13.482 14.303-30.37 16.678-48.358 13.16-27.821-5.443-50.683-19.196-65.845-43.7-9.943-16.07-3.205-35.551 13.32-40.614 8.347-2.558 16.644-.921 23.6 3.39 13.964 8.659 27.352 18.262 40.835 27.68 9.952 6.952 19.608 14.326 29.532 21.319 4.995 3.52 6.218 3.07 9.055-2.502 4.573-8.982 5.762-18.683 5.95-28.598.364-19.28-3.767-38.02-6.568-56.94-3.14-21.21-5.68-42.509-8.484-63.769-.386-2.926-.79-5.849-1.378-10.181-5.132 4.244-9.573 7.605-13.649 11.362-5.503 5.075-10.775 10.406-16.043 15.73-1.901 1.92-3.324 2.516-5.908.683-20.128-14.273-36.119-14.14-56.46.188-.661.466-1.39.837-2.122 1.272l-31.265-29.3-1.525.661c-.949 6.956-1.839 13.92-2.857 20.866-3.496 23.856-7.055 47.702-10.556 71.558-2.586 17.628-5.296 35.237-1.7 53.09 4.066 20.18 15.563 31.637 35.885 34.965 5.559.91 11.25 1.05 16.89 1.405 3.711.232 6.792 1.157 6.561 5.652-.236 4.598-3.182 5.814-7.292 5.174-9.816-1.53-20.02-1.847-29.367-4.843-19.397-6.22-29.86-20.79-33.4-40.563-3.676-20.527-.679-40.786 2.344-61.074 4.312-28.938 8.4-57.91 12.591-86.867.286-1.974.56-3.957.986-5.904 1.47-6.716 5.153-8.8 11.18-5.629 4.674 2.46 8.87 5.826 13.547 9.023m100.356 184.525 11.628-7.269c-1.098-1.326-1.349-1.787-1.732-2.07-16.607-12.246-33.147-24.583-49.873-36.665-9.297-6.715-18.593-13.617-30.153-16.132-10.935-2.379-20.435 7.452-17.289 18.225 1.234 4.225 3.357 8.389 5.904 11.995 9.641 13.649 23.279 22.208 38.41 28.448 13.65 5.63 27.73 8.322 43.105 3.468"/><path fill="#69bf7c" d="M240.675 291.967c-15.002 4.73-29.082 2.038-42.733-3.592-15.131-6.24-28.769-14.799-38.41-28.448-2.547-3.606-4.67-7.77-5.904-11.995-3.146-10.773 6.354-20.604 17.289-18.225 11.56 2.515 20.856 9.417 30.153 16.132 16.726 12.082 33.266 24.42 49.873 36.665.383.283.634.744 1.732 2.07-3.986 2.492-7.807 4.88-12 7.393"/></svg>