<svg xmlns="http://www.w3.org/2000/svg" width="300" height="300"><path d="M146.685-.446c3.177.008 6.353-.02 9.53-.052C168.145-.539 178.603.382 190 4q2.337.657 4.676 1.309C202.388 7.703 209.757 10.396 217 14l2.309 1.133A597 597 0 0 1 225 18q2 1.002 4 2v2l1.68.281c7.992 2.476 15.025 10.057 21.03 15.64a95 95 0 0 0 4.88 4.13C265.022 48.87 272.008 59.01 278 68v3h2c2.025 3.988 4.02 7.99 6 12l1.3 2.613c2.675 5.602 4.826 11.33 6.825 17.2l.732 2.115A168 168 0 0 1 297 112l.831 2.854c2.682 10.545 2.66 21.007 2.615 31.831-.008 3.177.02 6.353.052 9.53.041 11.93-.88 22.388-4.498 33.785q-.658 2.337-1.309 4.676C292.297 202.39 289.59 209.749 286 217l-.957 2.062c-5.188 10.95-12.53 20.512-20.043 29.938l-1.691 2.133c-3.082 3.745-6.484 6.918-10.184 10.05a139 139 0 0 0-4.25 3.79C234.819 278 234.819 278 229 278v2c-15.098 7.257-29.642 14.086-46 18l-1.945.516c-6.087 1.52-11.862 1.776-18.117 1.75l-3.126.005q-3.252.002-6.504-.01c-3.298-.011-6.596 0-9.894.012q-3.175 0-6.351-.007l-2.956.012c-5.965-.04-11.348-.743-17.107-2.278l-4.324-1.078C99.356 293.399 87.25 288.332 75 282a1404 1404 0 0 0-4-2v-2l-2.566-.672c-4.12-1.594-6.986-3.797-10.371-6.578l-1.872-1.509A907 907 0 0 1 51 265l-2.219-1.777c-3.721-3.054-6.863-6.435-9.972-10.106a140 140 0 0 0-3.711-4.172C26.216 239.342 19.48 228.863 14 217l-1.266-2.563c-2.703-5.611-4.853-11.36-6.859-17.25l-.732-2.115A167 167 0 0 1 3 188l-.83-2.865C-.474 174.68-.523 164.322-.5 153.59c.001-3.123-.04-6.243-.085-9.365C-.734 119.015 6.452 97.177 18 75q1.007-1.997 2-4h2l.281-1.68c2.476-7.992 10.057-15.025 15.64-21.03a95 95 0 0 0 4.13-4.88C48.87 34.978 59.01 27.992 68 22h3v-2c3.988-2.025 7.99-4.02 12-6 .862-.43 1.725-.859 2.613-1.3 5.602-2.675 11.33-4.826 17.2-6.825l2.115-.732A168 168 0 0 1 112 3l2.854-.831c10.545-2.682 21.007-2.66 31.831-2.615" fill="#6d00cc"/><path d="m193.69 89.748 2.345.022h2.406q2.517.006 5.036.024c2.579.018 5.157.02 7.736.02l4.885.018 2.351.003c5.435.049 5.435.049 6.551 1.165.1 1.526.13 3.057.134 4.587l.013 3.004-.002 3.323.01 3.478q.013 5.724.013 11.448l.01 7.918q.009 8.31.007 16.623.001 9.616.026 19.234c.015 6.159.018 12.318.018 18.477q0 3.937.013 7.874c.01 3.664.007 7.327 0 10.99.007 1.095.012 2.19.018 3.318l-.013 3.012.002 2.628C225 209 225 209 223 211a88 88 0 0 1-7.527.3l-2.257.014q-2.364.009-4.728.002c-2.413-.003-4.824.02-7.236.045q-2.295.004-4.592.002l-2.188.028c-4.996-.046-4.996-.046-7.163-1.617-1.703-2.308-1.684-3.67-1.683-6.525l-.021-2.962.023-3.244-.011-3.42c-.009-3.74.005-7.48.02-11.22l-.002-7.776q0-8.153.029-16.304c.021-6.288.024-12.575.018-18.863q-.006-9.068.011-18.134.006-3.861.004-7.724.002-5.387.028-10.774l-.007-3.251.021-2.953.007-2.575c.593-4.775 3.924-4.284 7.944-4.301" fill="#fcfafe"/><path d="M109 90a100 100 0 0 1 6.238 2.906l3.483 1.754 1.785.915c1.815.93 3.635 1.848 5.457 2.765 8.869 4.492 8.869 4.492 10.037 5.66-.325 6.338-2.735 11.163-5.58 16.759l-1.439 2.89c-1.566 3.139-3.146 6.27-4.727 9.402l-3.277 6.547q-3.43 6.85-6.878 13.69a6919 6919 0 0 0-8.82 17.578q-3.382 6.753-6.771 13.503l-3.253 6.484a4356 4356 0 0 1-4.546 9.035l-1.362 2.722-1.253 2.476-1.085 2.157C86 209 86 209 84 211c-6.265 1.148-11.147-2.336-16.437-5.25l-2.776-1.488A565 565 0 0 1 50 196c.519-5.948 3.023-10.603 5.672-15.845l1.468-2.953c1.6-3.214 3.212-6.42 4.825-9.628l3.344-6.693a8443 8443 0 0 1 7.92-15.795c2.41-4.8 4.81-9.605 7.209-14.411a9131 9131 0 0 1 7.802-15.596q1.662-3.317 3.32-6.637 2.311-4.626 4.639-9.244l1.39-2.794 1.279-2.528 1.108-2.208c2.302-3.749 5.227-2.533 9.024-1.668m40.387-1.84c1.541.26 3.078.543 4.613.84l2.944.53c3.295.609 6.582 1.254 9.869 1.907l3.427.659 3.28.65 2.971.584C179 94 179 94 182 96a375 375 0 0 1-.312 5.188l-.176 2.917c-.446 3.39-1.098 6.554-1.888 9.875-1.493 6.389-2.834 12.796-4.112 19.23l-.679 3.395-1.418 7.117q-1.103 5.537-2.212 11.072c-2.098 10.503-4.188 21.006-6.152 31.534l-.42 2.232q-.917 4.88-1.792 9.77l-.62 3.334-.502 2.795c-.865 3.066-1.626 5.108-3.717 7.541-4.69.558-8.936-.231-13.52-1.242l-3.595-.793-3.697-.84-3.756-.816-3.577-.801-3.26-.73C124 206 124 206 122 204c-.407-9.192 2.392-18.803 4.203-27.785l.969-4.878q1.273-6.405 2.559-12.808 1.529-7.64 3.047-15.283 1.23-6.188 2.472-12.373c1.467-7.324 2.91-14.648 4.244-21.998l.677-3.684q.607-3.33 1.182-6.665l.533-2.914.437-2.503c1.326-4.132 2.742-5.153 7.064-4.949" fill="#fdfbfe"/></svg>