<?xml version="1.0" encoding="utf-8"?>
<!-- Generator: Adobe Illustrator 24.3.0, SVG Export Plug-In . SVG Version: 6.00 Build 0)  -->
<svg version="1.1" id="Layer_1" xmlns="http://www.w3.org/2000/svg" xmlns:xlink="http://www.w3.org/1999/xlink" x="0px" y="0px"
	 viewBox="0 0 200 200" style="enable-background:new 0 0 200 200;" xml:space="preserve">
<path d="M127.3,134.2c-9.6-5.2-15.8-13-19.1-23.7c-3.7,2.4-7.1,4.6-10.5,6.9c-7.5,5-14.9,10.1-22.4,15.2
	c-16.7,11.3-42.7,8.1-56.1-6.5C2.7,107.9,6.7,73.7,35,63.6c16.7-6,36.8-2.5,48.4,10.6c3.1,3.5,5.4,7.3,7.1,11.6c0.4,1,0.5,2.3,1.6,3
	c1.4,0.1,2.2-0.9,3.1-1.5c9.6-6.4,19.1-13,28.7-19.4c17.5-11.6,43-9,56.6,6c10,11,12.2,24.1,8.1,38c-4.4,14.7-15.1,23.2-29.9,26.4
	C147.9,140.6,137.4,139.3,127.3,134.2 M160.1,114.3c5.7-5,7.2-11.3,6-18.4c-1.4-8.7-10.5-15.7-19.1-14.7
	c-7.5,0.8-13.9,6.4-15.8,13.7c-2,7.8,1.1,16.5,7.2,20.6C145.5,120,153,119.8,160.1,114.3 M35.5,90.9c-2.3,4.3-2.7,8.8-1.8,13.5
	c1.6,8.7,11.2,15.5,19.8,14c9.9-1.8,15.7-9,15.5-19.4c-0.2-8.3-5.6-15.4-13.3-17.3C47.7,79.8,40,83.1,35.5,90.9z"/>
</svg>
