<?xml version="1.0" encoding="utf-8"?>
<!-- Generator: Adobe Illustrator 24.3.0, SVG Export Plug-In . SVG Version: 6.00 Build 0)  -->
<svg version="1.1" id="Layer_1" xmlns="http://www.w3.org/2000/svg" xmlns:xlink="http://www.w3.org/1999/xlink" x="0px" y="0px"
	 viewBox="0 0 64 64" style="enable-background:new 0 0 64 64;" xml:space="preserve">
<style type="text/css">
	.st0{fill:#8B15E7;}
	.st1{fill:#FFFFFF;}
</style>
<path class="st0" d="M5.2,47.6c0,0,8,10.4,8.5,10.8c1.2,1.1,2.7,1.7,4.3,1.6c8.4-0.4,27.5-1.4,35.6-1.8c3.1-0.2,5.5-2.7,5.6-5.8
	l0.1-35.5c0-2-1-3.8-2.7-4.9c-3-1.8-8.9-5.5-10.7-6.7c-1.5-1-3.2-1.4-5-1.3c-6,0.4-23.5,1.5-30.9,2c-3,0.2-5.2,2.6-5.2,5.5v34.8
	C4.8,46.8,4.9,47.2,5.2,47.6L5.2,47.6z M55.2,18.7L55.2,18.7l-0.1,33.7c0,1-0.8,1.8-1.7,1.8L17.8,56c-0.5,0-1-0.2-1.4-0.5
	s-0.6-0.8-0.6-1.3V20.7c0-1,0.8-1.8,1.7-1.8l35.7-2.1c0.5,0,1,0.1,1.4,0.5C55,17.7,55.2,18.1,55.2,18.7L55.2,18.7z M43.2,40.1V26.4
	c-0.6-0.7-1.6-0.7-3.1-1.1c-0.1,0-0.2-0.1-0.2-0.2c0-0.1,0-0.2,0-0.3c1.7-2.5,6.6-1,9.8-2c0.1,0,0.2,0,0.3,0s0.1,0.2,0.1,0.3
	c-0.3,1.4-1.4,2.1-3,2.4v22.6c0,0.8-0.5,1.4-1.2,1.7c-0.6,0.3-1.3,0.5-1.3,0.5c-1.5,0.8-3.4,0.3-4.4-1.2L28.9,31.3v16.3
	c0.6,0.7,1.6,0.7,3.1,1.1c0.1,0,0.2,0.1,0.2,0.2s0,0.2,0,0.3c-1.7,2.5-6.6,1-9.8,2c-0.1,0-0.2,0-0.3,0C22,51,22,50.9,22,50.8
	c0.3-1.4,1.4-2.1,3-2.4V27.1l-3-0.3c0,0,0.2-2.5,3.1-2.7c1.4-0.1,5.1-0.3,6.5-0.4c0.3,0,0.6,0.1,0.8,0.4L43.2,40.1L43.2,40.1z"/>
<path class="st1" d="M15,14.3c0.6,0.4,1.2,0.6,1.9,0.6c5.1-0.3,26.8-1.5,32.2-1.8c0.2,0,0.4-0.2,0.4-0.4c0-0.1-0.1-0.2-0.2-0.3
	c-2.4-1.5-4.7-2.9-5.8-3.6C42.9,8.2,42,8,41.1,8c0,0-24.7,1.4-29.8,1.9c-0.6,0.1-0.8,0.3-0.8,0.4c-0.1,0.3,0,0.5,0.3,0.7
	C11.8,11.8,13.9,13.4,15,14.3"/>
</svg>
