<?xml version="1.0" encoding="utf-8"?>
<!-- Generator: Adobe Illustrator 24.3.0, SVG Export Plug-In . SVG Version: 6.00 Build 0)  -->
<svg version="1.1" id="Layer_1" xmlns="http://www.w3.org/2000/svg" xmlns:xlink="http://www.w3.org/1999/xlink" x="0px" y="0px"
	 viewBox="0 0 200 200" style="enable-background:new 0 0 200 200;" xml:space="preserve">
<style type="text/css">
	.st0{fill:#FA56ED;}
	.st1{fill:#FA57EE;}
	.st2{fill:#B681FB;}
	.st3{fill:#4F10A7;}
	.st4{fill:#0C0515;}
	.st5{fill:#5211AA;}
	.st6{fill:#AC6EFE;}
	.st7{fill:#F454EE;}
	.st8{fill:#F756ED;}
	.st9{fill:#842CFE;}
	.st10{fill:#F957EE;}
	.st11{fill:#F858EE;}
	.st12{fill:#010101;}
	.st13{fill:#AE71FE;}
	.st14{fill:#FCFBFD;}
	.st15{fill:#FAF9FC;}
	.st16{fill:#5010A8;}
	.st17{fill:#11071D;}
	.st18{fill:#5312AB;}
	.st19{fill:#10061C;}
	.st20{fill:#F0EFF2;}
	.st21{fill:#F354EE;}
	.st22{fill:#F254EE;}
	.st23{fill:#C1B5D0;}
</style>
<path class="st0" d="M74.4,111.6c8.7,2.3,16.3-0.5,23.6-5c10.4-6.4,19.8-14,27.5-23.6c-2.1,9.1-7.8,15.8-14.9,21.5
	c-7.7,4.9-15.5,9.7-24.5,11.9C80.9,117.8,77.5,116.5,74.4,111.6z"/>
<path class="st1" d="M78.7,87.3c0.3,11.3,8.5,18.9,20.8,19.9c8.8,0.7,16.6-1.2,23.6-7.3c-1.5,4.7-3.2,6.5-8.3,9.4
	c-2.2,1.2-4.4,2.4-6.6,3.5c-3.1-1.5-6.3-0.4-9.5-0.5c-6-0.2-11.4-2.1-16-5.9C76.7,101.5,75.3,94.6,78.7,87.3z"/>
<path class="st2" d="M103,97.7c-0.4,0.3-1.6,0-1.1,0.9c0.7,1.2,3.7,1.8,1.6,3.5c-1.8,1.4-5.3,1.7-6.9,0.2c-2.3-2.2,0.9-3,2.9-4.2
	c-1.6-0.2-2.7-0.3-3.8-0.4C98.1,96.3,100.6,96.3,103,97.7z"/>
<path class="st3" d="M100.7,103.2c-2.4-0.3-4.7-1-4.8-3.6c-0.1-2.2,1.7-2.9,3.7-2.9c2.7,0.1,4.5,1.3,4.5,4.1
	C104.2,103.1,102,102.9,100.7,103.2z"/>
<path class="st4" d="M94.6,103.4c1.9-3.6,5-5.3,8.3-6.6c0.9-0.3,2.1-0.5,2.4,0.9c0.3,1-0.6,1.5-1.3,1.8
	C100.9,100.8,97.8,102.1,94.6,103.4z"/>
<path class="st5" d="M103.3,100.1c0,1.9-1.2,2.4-2.6,2.3c-2-0.1-3.7-0.9-3.9-3c-0.1-1.4,1.2-1.9,2.4-1.9
	C101.1,97.5,102.7,98.2,103.3,100.1z"/>
<path class="st6" d="M102.5,99.4c0,1.8-1,3.3-2.7,3.6c-1.6,0.4-2.3-1-2.3-2.4c0-1.9,1.1-3.3,2.7-3.7C101.8,96.6,102.4,98,102.5,99.4
	z"/>
<path class="st7" d="M95.9,103.1c1.9-3.7,4-5.2,8.3-6.3C102,100.5,99.9,102,95.9,103.1z"/>
<path class="st8" d="M96.8,102.5c0.8-3.1,3-4,6.4-4.9C101.7,101.1,99,101.4,96.8,102.5z"/>
<g>
	<path class="st9" d="M45.3,184.7c-2.6-3.6-1.6-6.9,0.7-10.3c2.3-3.3,6.2-5.3,7.4-9.5c0-1.1,0.5-2,1.3-2.7
		c5.2-4.4,9.1-9.7,12.1-15.7c-9.1,10.5-19.8,19.1-32.5,25c-5.8,2.7-12,4.6-18.3,0.7c-5.9-5.8-0.9-14.6,6.1-16.2
		c5.9-1.3,11.8-2.5,17.3-5.1c1.5-3.3,5.1-3.9,7.7-5.8c1.5-1.1,3.1-2.1,5.2-4.3c-6.2,4.6-12.2,5.7-18.8,5.6
		c-6.6-0.1-12.7-1.6-17.9-5.6c-5.3-4-9.2-8.9-6.6-16.3c0.9-2.4,2.9-3.7,5.2-4.5c3.4-0.3,3.5-0.2,3.1,2.5c-0.2,1.5,0.6,1.4,1.4,1.4
		c1.1,0,2.3-0.1,1.4-1.7c-1.1-2-1-3,1.6-2.2c3.4,1.4,4.9,4.1,5.3,7.6c0.2,2.2,0.8,4.4,1.9,6.4c2.6,4.4,7.9,6.3,12.5,4.6
		c4.6-1.7,7.3-6.6,6.4-11.7c-0.7-4.3-3.3-7.4-6.4-10.3c-14.2-13-20.4-29.1-19-48.1c1-13,6.7-24,15-33.9
		C64.5,2.4,110.5-4.6,145.7,19.1c19.6,13.2,31.1,31.9,31.1,55.8c0.1,16.1-6.4,30.1-18.6,41.1c-2.5,2.2-4.8,4.5-6.1,7.6
		c-2.5,5.7,0,11.9,5.8,13.9c6.1,2.2,11.5-0.6,13.3-6.8c0.3-1,0.5-2,0.8-3c1.3-5.7,3.9-8.2,8.8-8.3c5.4-0.1,8.8,2.7,10.1,8.3
		c1.4,7.9-3.8,12.2-9.5,15.5c-9.2,5.3-19.3,5.4-28.8,3c2.4,1.8,6,2.9,9,5.1c3.4,3.5,8.2,3.9,12.5,4.9c4.3,1,8,2.5,9.1,7.1
		c1.1,4.7-1.4,8.1-5,10.8c-1.3,0.6-2.7,1-4,0.8c-13.6-2.8-25.3-9.2-34.1-17.2c2.1,3.2,7.5,6.5,9.4,12.3c1.1,1.5,2.3,2.9,3.4,4.4
		c3.7,5,2.8,9.7-2.7,13.1c-6.2,1.6-11.2-0.7-15.4-4.9c-8.5-8.4-14.1-18.5-16.5-30.7c1,5.8,2.9,10.8,4.9,15.8c1,2.6,1.6,5.2,0.8,8
		c0.7,2.5,1.6,4.9,2.2,7.4c1,4.5-0.2,8-4.5,10.4c-4.5,2.4-8.3,1.6-11.7-1.8c-6.2-6.3-7.1-14.6-8.5-22.7c-0.7-4-0.9-8.1-1.7-12.1
		c-0.7,6.5-1.2,12.9-2.5,19.3c-0.8,4.1-1.9,8-3.9,11.7c-3,5.6-6.9,7.3-12.3,5.6c-5-1.6-8.2-6.7-7.6-12.1c0.3-2.4,1.5-4.6,0.6-7.1
		c0.8-7.2,4.1-13.6,6.2-20.5c-2.8,8.8-6.3,17.3-11.9,24.7c-4,5.3-9.1,8.8-16,9.2C49.5,187.9,47.1,187.1,45.3,184.7z"/>
	<path class="st10" d="M161.6,151.3c-5.8-0.4-9.8-4.2-13.9-7.8c10.5,3.9,21,4.1,31.2-0.5c6.6-3,11.5-7.6,12-15.4
		c4,11-5.2,19.1-14.6,21.6C171.5,150.4,166.5,150.7,161.6,151.3z"/>
	<path class="st10" d="M45.3,184.7c7.7,3.9,16.2,1.5,22-6.7c6.1-8.6,10.6-18,14.3-27.8c-2.7,8-3.3,16.6-7.4,24.2
		c-3.7,4.9-6.8,10.2-11.5,14.4C56.3,194.3,48.5,192.6,45.3,184.7z"/>
	<path class="st0" d="M149.5,170c-1.9-2-3.8-3.9-5.5-6c-2.8-3.4-5.4-7-7.9-10.9c12.3,10.5,25.6,19,42.1,20.9
		c-7.5,6-14.7,2.6-21.9-0.9C154,172.2,152.2,170.2,149.5,170z"/>
	<path class="st11" d="M124,175.7c-2-8.9-5.9-17.4-6.5-26.7c3.1,10.3,7.5,19.8,14.1,28.2c4.8,6.1,10.3,10.6,18.6,10.2
		c-7.3,2.8-13.7,0.9-20.1-5.8C128.1,179.7,127.2,176.5,124,175.7z"/>
	<path class="st12" d="M77.7,85c6,10.9,5.4,16.6-2.3,25.1c-6.8,2.1-11.7-0.2-14.4-6.8c-1.8-4.5-1.8-9,0-13.5c1.2-3.1,3.6-2,5.8-2.5
		c2.6-0.6-1.4-4.5,2-5.7C73,80,75.3,82.5,77.7,85z"/>
	<path class="st12" d="M120.1,103.1c-1.9-5.3-2-10.5,0.1-15.8c5,0.9,5,0.9,3.5-4c-0.1-0.5,0.2-1,0.6-1.3l-0.1,0.1
		c4.8-3.1,8.1-2.8,11.9,1.2c5.1,5.4,6.1,14.8,2.1,21.1c-2.8,4.5-6.8,6.8-12.3,5.4C123.2,108.3,121.5,105.9,120.1,103.1z"/>
	<path class="st13" d="M69.1,17.9c1.3,0,3.1-0.3,3.5,1.3c0.3,1.5-1.2,2.4-2.3,3.1c-4.7,2.8-9.6,5.3-14.2,8.3
		c-6.2,3.9-10.6,9.7-15.9,14.6c-0.8,0.8-1.8,1.9-3.1,1c-1.2-0.8-1-1.9-0.7-3.2C39.3,33,58.7,18.1,69.1,17.9z"/>
	<path class="st14" d="M77.7,85c-2.9-2-5.8-4.3-10-1.6c1.8,1.5,3.9,3.2,1.6,5.6c-2.5,2.6-4.2,0.1-5.9-1.5
		c-6.1,12.6-0.5,22.8,12.1,22.7c-4,4-8.8,4.3-13.2,0.9c-8.5-6.7-8.6-23-0.1-29.8C67.7,76.7,74.8,78.4,77.7,85z"/>
	<path class="st15" d="M125.6,108.7c5,1.5,8.7-0.4,11.4-4.6c3.4-5.4,3-14-0.8-18.9c-3.2-4.1-7.3-4.8-12-3c3.8-4.6,8.6-5.3,13.4-1.8
		c8.7,6.3,9.1,23.5,0.6,30.2c-4.5,3.6-8.7,3.3-14-0.7C124.2,108.9,124.5,108.3,125.6,108.7z"/>
	<path class="st16" d="M139.3,36.6c-6.2-0.1-11.2-3.9-11-8.6c0.2-4.9,4.1-5.6,7.7-5.8c5.6-0.4,11.7,4.4,11.7,8.9
		C147.8,34.6,144.6,36.7,139.3,36.6z"/>
	<path class="st17" d="M89.3,110.6c8,6.7,15.4,6.7,22.7-0.1c-1.5,5-4,7.1-9.1,7.7C96.6,118.9,92.7,116.8,89.3,110.6z"/>
	<path class="st18" d="M156.2,38.3c-0.3,2.1-1.8,2.4-3.4,2.4c-2.1,0-3.9-0.9-4.1-3.1c-0.2-1.7,1.4-2.9,3-2.9
		C153.9,34.8,155.3,36.4,156.2,38.3z"/>
	<path class="st19" d="M140.3,70.1c-3.4-1.3-6.9-2.6-10.3-4c-0.8-0.3-1.6-0.9-1.3-1.9c0.3-1.2,1.4-1.4,2.5-1
		C134.9,64.4,138.1,66.4,140.3,70.1z"/>
	<path class="st20" d="M124.4,82c0.1,0.5,0.1,1.2,0.4,1.4c2,1.4,3.6,3,1.3,5.3c-2.5,2.4-4.2,0.5-5.8-1.4
		C121.1,85.2,121.7,82.8,124.4,82z"/>
	<path class="st21" d="M139.8,113.3c-3.3,2.4-5,4.3-9.2,4.9C133.1,114.7,135,113.1,139.8,113.3z"/>
	<path class="st22" d="M138.6,119.2c1.5-3.6,3.7-4.8,7.4-5C144.2,117.3,142,118.5,138.6,119.2z"/>
	<path class="st23" d="M125.6,108.7c-0.5,0.4-0.9,0.7-1.4,1.1c-2.3-1.6-4-3.7-4.1-6.6C122,105,123.8,106.8,125.6,108.7z"/>
</g>
</svg>
