<?xml version="1.0" encoding="utf-8"?>
<!-- Generator: Adobe Illustrator 24.3.0, SVG Export Plug-In . SVG Version: 6.00 Build 0)  -->
<svg version="1.1" id="Layer_1" xmlns="http://www.w3.org/2000/svg" xmlns:xlink="http://www.w3.org/1999/xlink" x="0px" y="0px"
	 viewBox="0 0 28 28" style="enable-background:new 0 0 28 28;" xml:space="preserve">
<style type="text/css">
	.st0{fill-rule:evenodd;clip-rule:evenodd;fill:#3A3A3A;}
</style>
<path class="st0" d="M1.7,3.4c0,7.1,0,14.2,0,21.3c8.2,0,16.4,0,24.6,0c0-7.1,0-14.2,0-21.3C18.1,3.4,9.9,3.4,1.7,3.4z M10.6,22.4
	c-1.9,0-3.7,0-5.6,0c0-2.6,0-5.2,0-7.8c2.6-0.2,5.2,0,7.8,0.6C10.9,17.1,10.2,19.5,10.6,22.4z M5,12.3c0-1.9,0-3.7,0-5.6
	c2.6-0.2,5.2,0,7.8,0.6c1.5,1.5,1.5,3,0,4.5C10.3,12.3,7.7,12.5,5,12.3z M23,22.4c-3.8,0.8-6.8-0.4-9-3.4c0.4-0.8,0.8-1.5,1.1-2.2
	c2.6,0,5.2,0,7.8,0C23,18.7,23,20.5,23,22.4z M23,13.4c-2.4,0.3-4.6,0-6.7-1.1c0.9-1.8,1.3-3.6,1.1-5.6c1.9,0,3.7,0,5.6,0
	C23,9,23,11.2,23,13.4z"/>
</svg>
