<?xml version="1.0" encoding="utf-8"?>
<!-- Generator: Adobe Illustrator 24.3.0, SVG Export Plug-In . SVG Version: 6.00 Build 0)  -->
<svg version="1.1" id="Layer_1" xmlns="http://www.w3.org/2000/svg" xmlns:xlink="http://www.w3.org/1999/xlink" x="0px" y="0px"
	 viewBox="0 0 28 28" style="enable-background:new 0 0 28 28;" xml:space="preserve">
<style type="text/css">
	.st0{fill-rule:evenodd;clip-rule:evenodd;fill:#29CFC8;}
	.st1{fill-rule:evenodd;clip-rule:evenodd;fill:#F4FCFB;}
	.st2{fill-rule:evenodd;clip-rule:evenodd;fill:#B1EBE8;}
	.st3{fill-rule:evenodd;clip-rule:evenodd;fill:#26CDC6;}
</style>
<path class="st0" d="M2.5,2.5h23.3c-1.1,7.1-2.7,14-4.9,20.8c-4.8,1.2-9.8,1.6-14.7,1.2C4.9,17.9,3.3,11.3,1.3,4.9
	C1.7,4.1,2.1,3.3,2.5,2.5"/>
<path class="st1" d="M4.9,4.9h17.1c-0.2,3.3-0.8,6.6-1.8,9.8c-3,1-6.1,1.6-9.2,1.8c1.1,1.7,1.5,3.5,1.2,5.5H8.6L4.9,4.9z"/>
<path class="st2" d="M17.2,11C15,9.9,12.6,9.5,9.8,9.8c0-1,1.3-1.4,3.7-1.2l4.9,1.2C18.2,10.6,17.8,11,17.2,11"/>
<path class="st3" d="M9.8,9.8c2.7-0.4,5.2,0,7.3,1.2c-0.9,0.8-2.2,1.2-3.7,1.2C11.6,12.1,10.4,11.3,9.8,9.8"/>
</svg>
