<svg xmlns="http://www.w3.org/2000/svg" viewBox="0 0 500 500" xml:space="preserve"><path fill="#2167fa" d="M233 501H1V1h500v500zm35.765-160.02c1.155-1.261 2.31-2.524 3.793-4.103.218-.213.432-.43 1.327-.807l6.49-5.015c2.992 2.294 5.564 4.157 8.017 6.166 10.509 8.608 22.353 14.225 35.907 15.86 22.407 2.7 43.398-.073 60.946-16.02 10.978-9.976 18.781-21.923 22.496-36.328 3.448-13.37 4.286-26.996 1.948-40.6-1.057-6.147-3.02-12.26-5.468-18.006-1.858-4.361-5.166-8.098-7.77-12.15-8.707-13.543-21.734-22.087-36.45-26.305-13.211-3.786-27.367-5.201-41.4-1.411-5.221 1.41-10.707 1.296-15.231 5.174-1.783 1.529-4.846 1.564-7.436 2.311-.445-1.332-.832-1.947-.83-2.56.072-17.988.1-35.977.347-53.963.055-4.054-1.624-6.393-5.449-6.42-7.814-.057-15.648-.56-23.429-.108-2.456.144-6.576 2.492-6.826 4.268-.924 6.574-.693 13.33-.64 20.016.275 34.476.991 68.953.797 103.425-.092 16.3-2.792 31.995-18.313 42.157-9.42 6.168-22.929 2.936-26.968-6.326-2.35-1.092-4.468-1.397-5.368-2.608-4.839-6.511-9.311-13.294-14.041-19.89-2.804-3.91-2.532-4.995 1.876-6.818 18.008-7.446 31.71-18.899 37.527-38.483 6.962-23.436.792-43.916-14.793-61.24-5.881-6.538-15.281-10.272-23.617-14.111-5.619-2.588-12.168-4.289-18.328-4.369-24.313-.316-48.636.168-72.956.345-1.832.013-3.674.054-5.496-.1-6.733-.568-9.82 2.757-8.973 9.586.348 2.799.575 5.633.577 8.451.035 47.332.041 94.663-.003 141.995-.004 4.317-.628 8.638-.547 12.949.087 4.623.334 9.301 1.213 13.819.308 1.582 2.654 3.874 4.149 3.937 8.816.368 17.677.523 26.475-.02 3.057-.19 6.333-1.54 5.497-6.788-1.077-6.765-.76-13.77-.839-20.673-.109-9.498-.027-18.999-.027-28.499 0-14.474 1.351-15.45 16.045-12.937 4.766.814 8.489 2.353 10.496 7.128 1.136 2.703 2.773 5.232 4.43 7.674 4.457 6.573 10.497 12.508 13.224 19.712 3.612 9.54 10.605 15.838 17.906 21.124 7.95 5.756 16.563 11.438 27.044 12.82 10.784 1.42 21.657 2.521 32.165-.172 6.704-1.717 13.638-4.475 18.457-11.057.451-.308.903-.617 2.05-1.03"/><path fill="#3b71de" d="M266.227 342.254c-4.33 6.338-11.264 9.096-17.968 10.813-10.508 2.693-21.381 1.593-32.165.172-10.48-1.382-19.093-7.064-27.044-12.82-7.301-5.286-14.294-11.584-17.906-21.124-2.727-7.204-8.767-13.14-13.225-19.712-1.656-2.442-3.293-4.971-4.43-7.674-2.006-4.775-5.73-6.314-10.495-7.128-14.694-2.512-16.045-1.537-16.045 12.937 0 9.5-.082 19 .027 28.5.08 6.903-.238 13.907.84 20.672.835 5.247-2.441 6.598-5.498 6.787-8.798.544-17.66.389-26.475.02-1.495-.062-3.841-2.354-4.15-3.936-.878-4.518-1.125-9.196-1.212-13.82-.081-4.31.543-8.631.547-12.948.044-47.332.038-94.663.003-141.995-.002-2.818-.23-5.652-.577-8.45-.847-6.83 2.24-10.155 8.973-9.587 1.822.154 3.664.113 5.496.1 24.32-.177 48.643-.66 72.956-.345 6.16.08 12.71 1.781 18.328 4.369 8.336 3.84 17.736 7.573 23.617 14.11 15.585 17.325 21.755 37.805 14.793 61.241-5.817 19.584-19.52 31.037-37.527 38.483-4.408 1.823-4.68 2.908-1.876 6.818 4.73 6.596 9.202 13.379 14.041 19.89.9 1.21 3.018 1.516 5.368 2.608 4.04 9.262 17.549 12.494 26.968 6.326 15.52-10.162 18.22-25.858 18.313-42.157.194-34.472-.522-68.95-.797-103.425-.053-6.685-.284-13.442.64-20.016.25-1.776 4.37-4.124 6.826-4.268 7.781-.453 15.615.05 23.43.107 3.824.028 5.503 2.367 5.448 6.42-.246 17.987-.275 35.976-.347 53.964-.002.613.385 1.228.83 2.56 2.59-.747 5.653-.782 7.436-2.31 4.524-3.88 10.01-3.765 15.231-5.175 14.033-3.79 28.189-2.375 41.4 1.41 14.716 4.219 27.743 12.763 36.45 26.307 2.604 4.051 5.912 7.788 7.77 12.149 2.447 5.747 4.411 11.86 5.468 18.006 2.338 13.604 1.5 27.23-1.948 40.6-3.715 14.405-11.518 26.352-22.496 36.328-17.548 15.947-38.54 18.72-60.946 16.02-13.554-1.635-25.398-7.252-35.907-15.86-2.453-2.01-5.025-3.872-8.017-6.166-1.72 1.329-4.105 3.172-6.94 4.982-.45-.034-.665-.257-.662-.453s-.063-.582.187-.79c1.193-1.369 2.137-2.528 3.312-3.801.386-.411.54-.709.713-.999.019.008-.002-.028.217-.114.478-.31.588-.593.782-1.097 1.487-2.356 2.98-2.157 4.718-.295 1.202 1.316 2.297 2.326 3.386 3.387-.005.05.097.059.147.283.226.517.483.658.832.716.007.07.147.054.198.24.211.43.435.53.923.737 1.037.898 1.873 1.547 2.85 2.477a17.3 17.3 0 0 0 2.847 1.824c.034-.05-.067.015.08.307 1.458 1.007 2.771 1.722 4.094 2.473.011.035.082.013.148.198.246.419.48.504.99.67.983.59 1.743.952 2.656 1.52.48.264.807.32 1.323.515.188.138.644.232.764.451.392.449.705.536 1.253.606.195.125.656.184.907.443 6.13 1.938 12.01 3.617 18.272 5.42 1.448.184 2.514.245 3.948.5 6.49.076 12.611-.045 19.098-.121 1.086-.091 1.805-.226 2.926-.305 6.455-1.92 12.507-3.896 18.86-5.934.799-.406 1.297-.75 2.078-1.093.579-.218.875-.436 1.338-.693.168-.04.382-.31.626-.336.571-.153.794-.381 1.155-.78.367-.185.49-.3.804-.434.448-.14.594-.341.676-.607.044.014.072-.074.333-.093.49-.269.717-.519.91-.779-.035-.01-.018.06.317-.013a220 220 0 0 0 10.785-9.867c-.105-.11.08.131.37.02.767-.767 1.243-1.424 1.907-2.183.419-.3.544-.549.804-.972.393-.435.547-.75.696-1.066-.004 0-.002.008.3-.144 8.526-11.09 13.904-23.2 15.55-37.292.185-1.765.26-3.133.509-4.875.795-10.37.518-20.264-3.22-30.081-.13-.734-.258-1.144-.38-1.917-1.232-3.181-2.47-6-3.737-9.049-.03-.231-.257-.639-.245-.886-.09-.596-.316-.818-.694-.874-.027.039.06.002 0-.345-3.071-4.728-6.083-9.11-9.087-13.517.009-.026-.046-.017-.108-.262-.328-.44-.592-.635-.935-1.055-.271-.498-.53-.672-.975-1.05-1.396-1.442-2.672-2.58-4.039-3.945-.267-.527-.53-.7-1.04-1.034a101 101 0 0 0-6.783-4.834c-.06.063.083-.035-.092-.326-2.39-1.452-4.603-2.612-6.827-3.737-.009.035.063.036-.07-.197-.467-.327-.802-.421-1.145-.546-.008-.031-.062.001-.224-.225-.688-.352-1.213-.478-1.935-.723-.196-.12-.654-.155-.793-.334-.405-.375-.693-.418-1.31-.465-.748-.27-1.192-.382-1.892-.742-3.13-.926-6.005-1.602-9.188-2.387-.74-.154-1.17-.2-1.914-.448-2.806-.59-5.3-.98-8.24-1.467-4.129-.116-7.81-.133-11.891-.236-2.489.201-4.576.489-7.057.783-1.425.195-2.456.383-3.87.557-4.9 1.502-9.42 3.017-14.131 4.539-.193.006-.522.209-.865.22-2.097.986-3.85 1.962-5.887 3-.78.37-1.275.674-2.041.988-.485.285-.699.56-1.15.912-.239.077-.617.402-.814.406-.471.11-.621.31-1.011.641-.843-.032-1.321-.101-1.74-.562-.027-1.438-.113-2.485-.144-3.848.015-.742-.026-1.167.048-2.053.043-17.186-.029-33.912-.025-51.042.033-1.773-.01-3.14.044-4.903.469-3.752-1.544-3.88-4.453-3.475-5.142-.02-9.822.017-14.957-.027-3.692-.082-6.932-.082-10.535-.082v6.239c0 23.45-.027 46.901.013 70.352.018 10.803.167 21.606.187 32.869-.152 6.451-.234 12.443-.499 18.792-1.367 7.13-2.552 13.903-3.93 20.974-1.018 2.298-1.79 4.323-2.678 6.295-5.522 12.262-16.304 18.968-27.484 17.235-7.91-1.225-14.832-4.655-19.663-10.874-7.335-9.442-13.955-19.44-21.253-29.728 2.18-.62 3.724-1.093 5.285-1.5 28.388-7.385 46.728-36.157 41.288-64.785-5.581-29.371-28.637-48.763-58.788-49.054-22.987-.222-45.978-.049-68.967-.05-13.277-.002-13.301 0-13.305 13.17-.019 55.309.035 110.617-.128 165.924-.014 4.853.937 6.91 6.285 6.503 6.624-.505 13.33-.36 19.976-.012 4.305.226 5.78-.951 5.705-5.49-.269-16.321-.105-32.65-.105-48.976v-14.698c7.42 0 14.368.139 21.307-.064 3.016-.088 4.833.861 6.47 3.468a2177 2177 0 0 0 24.013 37.411c14.058 21.407 40.891 33.348 64.654 28.803 4.976-1.505 9.556-3.051 14.275-4.581.139.015.353-.165.64-.179.542-.285.797-.557 1.012-.824-.039.005.005.07.335.043 1.418-.755 2.506-1.482 3.805-2.265.21-.055.537-.345.77-.353.557-.127.746-.358 1.021-.756.508-.186.722-.392 1.152-.728.651-.2 1.013-.348 1.487-.364z"/><path fill="#3b71de" d="M272.23 337.194c-1.155 1.262-2.31 2.525-3.987 3.663-.523-.123-.875-.473-.667-.71 1.06-1.153 1.914-2.07 2.99-3.058.486-.258.776-.37 1.237-.278zm-4.335 3.716c-.276.483-.728.792-1.424 1.222-.244.122-.469-.143-.435-.496.467-.653.9-.953 1.332-1.252z"/><path fill="#3b71de" d="M273.092 336.115c-.102.333-.316.55-.698.92-.164.16-.45-.096-.535-.47-.027-.53.032-.687.294-.81.204.033.617.025.617.025z"/><path fill="#fbfdfe" d="M271.95 335.72a8 8 0 0 0-.233.718c-.375.281-.665.393-1.55.627-4.25-.145-5.638 2.021-6.054 5.208-.14.284-.354.49-1.07.736-.695.248-.901.443-1.046.704 0 0-.326.29-.914.328-1.645.795-2.702 1.552-3.758 2.31 0 0-.044-.066-.26.016a9 9 0 0 0-1.044.751s-.214.18-.748.122c-5.531.257-10.61.327-14.277 4.584-23.366 4.585-50.2-7.356-64.257-28.763a2177 2177 0 0 1-24.013-37.41c-1.637-2.608-3.454-3.557-6.47-3.469-6.939.203-13.887.064-21.307.064v14.698c0 16.326-.164 32.655.105 48.976.075 4.539-1.4 5.716-5.705 5.49-6.646-.347-13.352-.493-19.976.012-5.348.408-6.299-1.65-6.285-6.503.163-55.307.11-110.615.128-165.923.004-13.172.028-13.173 13.305-13.171 22.989.001 45.98-.172 68.967.05 30.15.291 53.207 19.683 58.788 49.054 5.44 28.628-12.9 57.4-41.288 64.786-1.561.406-3.104.878-5.285 1.499 7.298 10.289 13.918 20.286 21.253 29.728 4.831 6.22 11.754 9.649 19.663 10.874 11.18 1.733 21.962-4.973 27.484-17.235.889-1.972 1.66-3.997 3-6.442 3.78-7.015 6.297-13.703 3.79-21.185.083-5.991.165-11.983.619-18.659.727-2.927 1.391-5.17 1.396-7.414.068-30.136.151-60.273-.052-90.408-.039-5.671.15-10.264 7.425-10.285.573-.002 1.145-.629 1.718-.965 4.68-.037 9.361-.075 14.627.228 1.801 1.422 3.017 2.505 4.233 3.588.042 1.368.085 2.735-.264 4.72-.776 1.836-1.49 3.054-1.496 4.275-.078 14.226-.1 28.453.03 42.678.013 1.451 1.102 2.892 1.692 4.338.04.425.082.85-.175 1.708-.09 1.663.118 2.893.326 4.123.479.07.957.139 1.973.121.762-.197.928-.367 1.035-.595 0 0 .378-.325.845-.494.753-.339.996-.56 1.193-.83.495-.304.99-.609 2.14-.97 2.39-1.045 4.125-2.032 5.86-3.02 0 0 .329-.202.955-.166 5.111-1.5 9.596-3.033 14.08-4.568 1.032-.187 2.063-.375 3.76-.353 2.839-.165 5.013-.54 7.186-.914 3.68.017 7.361.034 11.667.434 3.209.717 5.792 1.051 8.376 1.386.43.045.861.091 1.773.53 3.411 1.047 6.341 1.7 9.271 2.352.445.11.889.221 1.796.637.717.463.993.527 1.29.499 0 0 .458.035.85.336a10.3 10.3 0 0 0 1.9.768s.055-.032.245.17c.491.338.794.473 1.096.608 0 0-.072-.001.008.308 2.363 1.435 4.647 2.56 6.931 3.684 0 0-.142.098-.043.372 1.479 3.119 3.112 5.583 6.906 4.789.347.043.61.215.899 1.109 1.453 1.687 2.795 2.783 4.136 3.879.326.077.585.251.954.97.358.726.599.936.9 1.079 0 0 .054-.009.063.382 3.049 4.76 6.089 9.13 9.129 13.499 0 0-.087.037-.004.218.21.462.39.702.626.901 0 0 .227.408.228 1.054 1.254 3.43 2.507 6.213 3.76 8.997.128.41.256.82.173 1.87.363 6.626.862 12.62 1.539 18.594.438 3.863 1.137 7.697 1.72 11.544-.075 1.369-.15 2.737-.63 4.667-1.077 1.87-2.12 3.112-2.363 4.494-1.596 9.1-5.155 17.352-10.06 25.14-1.445 2.296-2.11 5.083-3.134 7.645 0 0-.002-.008-.208.144-.379.446-.552.74-.726 1.035-.02.302-.145.552-.881.932-.964.86-1.422 1.537-1.88 2.213 0 0-.185-.241-.454-.13-5.348 1.696-9.77 3.98-10.746 9.94 0 0-.017-.07-.215.017-.494.24-.741.451-.938.72 0 0-.028.088-.243.132-.435.163-.596.337-.697.566-.123.116-.245.232-.84.477-.767.265-1 .47-1.17.746 0 0-.215.27-.651.355-.742.273-1.048.46-1.353.648-.498.343-.996.687-2.21 1.08-6.76 1.997-12.803 3.944-18.846 5.89-.72.136-1.44.271-2.683.071-6.785-.15-13.047.033-19.309.217-1.065-.06-2.131-.12-3.81-.552-6.507-2.059-12.4-3.746-18.292-5.432 0 0-.46-.059-.817-.355-.605-.502-.89-.622-1.212-.654 0 0-.456-.094-.827-.39-.651-.477-.959-.566-1.292-.563-.76-.362-1.52-.724-2.604-1.464-.497-.558-.708-.667-.956-.705 0 0-.07.022-.185-.342-1.456-1.054-2.797-1.745-4.138-2.436 0 0 .1-.066-.02-.34-1.048-.777-1.975-1.278-2.902-1.78-.835-.649-1.67-1.298-2.797-2.349-.45-.588-.648-.71-.885-.77 0 0-.14.016-.248-.24-.285-.486-.509-.653-.781-.754 0 0-.102-.009-.124-.428-1.17-1.388-2.319-2.357-3.467-3.326-1.63-1.554-3.123-1.753-4.789.73-.624.506-.761.76-.822 1.056 0 0 .02.036-.205.168-.48.36-.65.64-.737.972-.944 1.16-1.888 2.319-3.245 3.763-.618.427-.763.616-.847.852m-79-88.625c9.086-8.895 12.02-21.822 7.496-33.04-4.816-11.945-14.427-18.193-28.213-18.235-13.991-.042-27.983-.019-41.974.004-1.605.002-3.21.182-5.06.294v57.669c.67.21 1.126.48 1.583.48 16.488.001 32.98.121 49.465-.116 6.132-.089 11.706-2.294 16.066-6.922 0 0 .002.083.637-.134m183.731 19.992c-3.725-14.891-12.095-26.017-26.914-31.001-15.716-5.287-30.514-2.843-42.815 8.6-12.662 11.78-16.408 26.932-12.654 43.445 6.859 30.172 41.63 43.39 66.096 25.142 15.162-11.309 19.238-27.243 16.287-46.186"/><path fill="#dcf1fe" d="M273.545 149.142c-.119.417-.69 1.044-1.264 1.046-7.275.021-7.464 4.614-7.425 10.285.203 30.135.12 60.272.052 90.408-.005 2.244-.669 4.487-1.327 6.955-.391-10.58-.54-21.382-.558-32.185-.04-23.45-.013-46.902-.013-70.352v-6.239c3.603 0 6.843 0 10.535.082m19.391 59.448c-.705-.986-1.794-2.427-1.807-3.878-.13-14.225-.108-28.452-.03-42.678.006-1.221.72-2.439 1.42-3.87.388 16.513.46 33.24.417 50.425m99.367 117.266c.721-2.41 1.387-5.197 2.833-7.493 4.904-7.788 8.463-16.04 10.06-25.14.242-1.382 1.285-2.624 2.253-4.096-1.242 13.528-6.62 25.64-15.146 36.73m16.059-42.168c-.757-3.474-1.456-7.308-1.894-11.171a328 328 0 0 1-1.538-18.27c3.95 9.177 4.227 19.07 3.432 29.44m-145.651-6.375c2.69 7.124.173 13.812-3.415 20.529.863-6.626 2.048-13.399 3.415-20.53m65.609 73.945a230 230 0 0 1 18.575-.457c-5.964.411-12.085.532-18.575.457m22.024-.426c5.642-2.004 11.685-3.95 18.144-5.885a382 382 0 0 1-18.144 5.884m27.097-10.762c.642-5.885 5.063-8.17 10.516-9.755-3.144 3.226-6.663 6.454-10.516 9.755m-136.048 11.797c3.27-4.297 8.349-4.367 13.74-4.64q-6.276 2.383-13.74 4.64m64.707-6.529c5.642 1.427 11.534 3.114 17.658 5.048a317 317 0 0 1-17.658-5.048m93.986-104.799a248 248 0 0 1-9.078-13.125c2.995 4.016 6.007 8.397 9.078 13.125m-79.415-36.19a215 215 0 0 1-13.505 4.574c4.085-1.557 8.604-3.072 13.505-4.574m42.16 3.198c-2.675-.403-5.605-1.055-8.707-1.993 2.702.39 5.577 1.067 8.707 1.993m-98.428 134.677c.126-3.135 1.513-5.3 5.54-5.084-.453.94-1.307 1.857-2.367 3.01-.64.536-1.073.836-1.653 1.357-.507.37-.869.517-1.52.717m119.499-122.548c-3.631 1.086-5.264-1.378-6.684-4.56 2.147 1.198 4.334 2.734 6.684 4.56m20.86 32.017c-1.259-2.42-2.512-5.204-3.736-8.402 1.267 2.403 2.504 5.22 3.736 8.402m-53.032-46.98a48 48 0 0 1-7.616-1.085c2.316.105 4.809.493 7.615 1.084m25.298 9.804a42 42 0 0 1-6.747-3.428c2.144.816 4.358 1.976 6.747 3.428m-84.072-61.869c-1.312-.688-2.528-1.77-3.868-3.136 2.324-.743 4.337-.616 3.868 3.136m38.643 50.362c-1.772.46-3.946.835-6.392.993 1.816-.504 3.903-.792 6.392-.993m-25.923 6.099c-1.392.976-3.126 1.963-5.232 2.943 1.383-.981 3.135-1.957 5.232-2.943m-22.973 119.383c1.04.661 2.189 1.63 3.364 2.968-1.067-.642-2.162-1.652-3.364-2.968m106.279-103.837c-1.222-.794-2.564-1.89-3.927-3.352 1.255.772 2.531 1.911 3.927 3.352m-95.017 113.808c1.195.399 2.536 1.09 3.981 2.109-1.209-.387-2.522-1.102-3.98-2.109m-.933-123.969c-.268-.839-.476-2.069-.442-3.415.329.93.415 1.977.442 3.415m-35.377 131.833c.726-.73 1.783-1.487 3.217-2.227-.711.745-1.799 1.472-3.217 2.227m33.384-9.995c.784.22 1.711.722 2.726 1.549-.803-.206-1.694-.738-2.726-1.55m97.558-6.107c.167-.565.625-1.242 1.4-2-.158.576-.634 1.233-1.4 2m-19.836-120.412c-.34.07-.843-.085-1.542-.422.329-.056.854.07 1.542.422m4.485 132.965c-.073-.25.16-.455.684-.651.11.27-.113.498-.684.651m2.968-1.913c-.064-.25.183-.461.712-.692.005.172-.223.422-.712.691m-113.984 2.846c-.088-.253.118-.448.594-.638.152.28-.037.51-.594.638m39.623-.385c.181-.209.489-.12.952.219-.145.102-.473.045-.952-.218m69.429.481c.022-.188.328-.375.902-.608-.027.172-.323.39-.902.608m-67.342.484c.202-.187.487-.067.896.31-.191.226-.504.139-.896-.31m66.19-133.707c-.17.098-.472-.037-.956-.344.154-.077.49.017.957.344M256.308 347.104c-.01-.209.265-.432.796-.742 0 .185-.254.457-.796.742M366.033 208.75c-.158.208-.434.144-.846-.16.153-.257.441-.214.846.16m-68.286 4.343c.074.26-.169.481-.685.744-.014-.184.2-.46.685-.744m77.458 128.466c-.09-.212.07-.386.461-.563.133.222-.013.423-.46.563m-76.999-.429c.182-.147.393-.038.668.292-.188.212-.422.127-.668-.292m-2.424-126.72c.09.225-.076.395-.474.556-.147-.244.003-.444.474-.555m-23.63 121.343c-.12-.269.025-.458.394-.676.163-.076.229.31.226.506s-.416.204-.62.17m15.112-2.64c.186-.126.384-.004.633.334-.198.195-.422.095-.633-.334m-1.03-.956c.222-.123.446.044.723.46-.24.198-.497.057-.723-.46M390.89 226.757c-.237.102-.478-.108-.757-.608.166-.027.43.168.758.608M276.272 330.993c-.144-.218.027-.499.487-.868.053.159-.101.457-.487.868m.93-1.113c-.158-.21-.021-.464.37-.805.218.212.108.494-.37.805m114.105-2.815c-.066-.174.107-.468.49-.914.057.164-.097.479-.49.914m9.473-85.31c-.248.048-.429-.192-.611-.693.295-.125.521.097.61.693"/><path fill="#2468f6" d="M376.776 267.498c2.855 18.533-1.221 34.467-16.383 45.776-24.466 18.248-59.237 5.03-66.096-25.142-3.754-16.513-.008-31.664 12.654-43.444 12.301-11.444 27.099-13.888 42.815-8.601 14.82 4.984 23.189 16.11 27.01 31.41"/><path fill="#4472ce" d="M192.358 247.307c-4.406 4.551-9.98 6.756-16.112 6.845-16.486.237-32.977.117-49.465.116-.457 0-.914-.27-1.583-.48v-57.669c1.85-.112 3.455-.292 5.06-.294 13.991-.023 27.983-.046 41.974-.004 13.786.042 23.397 6.29 28.213 18.236 4.523 11.217 1.59 24.144-7.763 32.795 4.37-7.63 8.148-15.029 7.55-24.396-.853-13.37-11.265-24.382-24.748-24.507-14.331-.133-28.665-.064-42.997-.017-5.9.02-6.41.613-6.414 6.737q-.02 20.25.005 40.497c.009 6.681 1.03 7.729 7.896 7.773 9.665.062 19.333-.1 28.997.055 9.242.148 18.372.118 26.483-5.335.721-.484 1.925-.251 2.904-.352"/><path fill="#2268f8" d="M192.335 247.269c-.956.139-2.16-.095-2.88.39-8.112 5.453-17.242 5.483-26.484 5.335-9.664-.155-19.332.007-28.997-.055-6.865-.044-7.887-1.092-7.896-7.773q-.025-20.248-.005-40.497c.005-6.124.514-6.717 6.414-6.737 14.332-.047 28.666-.116 42.997.017 13.483.125 23.895 11.138 24.748 24.507.598 9.367-3.18 16.766-7.868 24.505-.05.352-.052.27-.029.308"/></svg>