<svg xmlns="http://www.w3.org/2000/svg" viewBox="0 0 62 62" xml:space="preserve" fill="#4D36FF"><path d="M31 0c17.1 0 31 13.9 31 31S48.1 62 31 62 0 48.1 0 31 13.9 0 31 0m17.2 39.1c-2.5 0-4.5 2-4.5 4.5s2 4.5 4.5 4.5 4.5-2 4.5-4.5-2-4.5-4.5-4.5M18.6 8.3c-2.5 0-4.6 2-4.6 4.5s2 4.6 4.5 4.6 4.6-2 4.6-4.5c0-2.6-2-4.6-4.5-4.6m-6.8 8.1c-13.1 16-1 38.1 17.7 38.6h.4c2.5.1 5.1-.3 7.4-1.3 3.2-1.1 5.5-4.1 5.7-7.5v-1c-.4-3.5-2.8-6.3-6.1-7.4h-.4c-2-.5-4.2-.9-6.2-1.4-3.1-.7-6.2-1.7-9.2-3-6.2-2.3-10.1-8.4-9.5-15 0-.6.1-1.3.2-2M53.5 38c2.9-10.5-1.9-22.6-11.7-26.9-2-.9-4.2-1.3-6.3-1.3-5.8-.2-11.8 1.7-12.1 8.7v.3c.1 2.7 1.6 5.1 4.1 6.2 4.5 1.8 9.2 3.2 14 4 6.3 1.3 10.1 4.3 12 9"/></svg>