<svg xmlns="http://www.w3.org/2000/svg" width="512" height="512" viewBox="0 0 512 512" xml:space="preserve"><path fill="#ff4340" d="M187.432 271c-29.538 0-53.568 24.03-53.568 53.568v133.863c0 29.538 24.03 53.568 53.568 53.568C216.97 512 241 487.97 241 458.432V324.568C241 295.03 216.97 271 187.432 271m-83.569 0h-51.86c-28.596 0-51.86 23.265-51.86 51.86 0 28.596 23.265 51.86 51.86 51.86s51.86-23.265 51.86-51.86z" data-original="#ff4340"/><path fill="#36c6ff" d="M0 187.432C0 216.97 24.03 241 53.568 241h133.863C216.97 241 241 216.97 241 187.432s-24.03-53.568-53.568-53.568H53.568C24.03 133.863 0 157.894 0 187.432m189.14-83.569H241v-51.86c0-28.596-23.265-51.86-51.86-51.86-28.596 0-51.86 23.265-51.86 51.86s23.264 51.86 51.86 51.86" data-original="#36c6ff"/><path fill="#0dc46e" d="M324.568 241c29.538 0 53.568-24.03 53.568-53.568V53.568C378.137 24.03 354.106 0 324.568 0S271 24.03 271 53.568v133.863C271 216.97 295.03 241 324.568 241m83.569 0h51.86c28.596 0 51.86-23.265 51.86-51.86 0-28.596-23.265-51.86-51.86-51.86s-51.86 23.265-51.86 51.86z" data-original="#0dc46e"/><path d="M512 324.568C512 295.03 487.97 271 458.432 271H324.568C295.03 271 271 295.03 271 324.568s24.03 53.568 53.568 53.568h133.863c29.539.001 53.569-24.03 53.569-53.568m-189.14 83.569H271v51.86c0 28.596 23.265 51.86 51.86 51.86 28.596 0 51.86-23.265 51.86-51.86s-23.264-51.86-51.86-51.86" data-original="#fdcb02" fill="#fdcb02"/></svg>