<?xml version="1.0" encoding="utf-8"?>
<!-- Generator: Adobe Illustrator 24.3.0, SVG Export Plug-In . SVG Version: 6.00 Build 0)  -->
<svg version="1.1" id="Layer_1" xmlns="http://www.w3.org/2000/svg" xmlns:xlink="http://www.w3.org/1999/xlink" x="0px" y="0px"
	 viewBox="0 0 280 280" style="enable-background:new 0 0 280 280;" xml:space="preserve">
<style type="text/css">
	.st0{fill:#FFFFFF;}
</style>
<g transform="translate(0.000000,280.000000) scale(0.100000,-0.100000)">
	<path class="st0" d="M2560.7,2600.3c15.8-38.3-69.8-286.1-745.8-2142.6c-99.1-272.6-144.2-322.2-223.1-241.1
		c-42.8,47.3-414.6,989.1-401,1022.9c4.5,11.3,245.6,265.9,534,567.8c290.6,301.9,493.4,515.9,450.6,477.6
		c-40.6-38.3-297.4-272.6-565.5-522.7c-270.4-250.1-495.7-455.1-500.2-455.1c-18,0-991.3,365-1031.9,385.3
		c-49.6,27-51.8,94.6-4.5,135.2c67.6,54.1,2383.7,849.4,2428.8,831.4C2526.9,2652.1,2553.9,2625.1,2560.7,2600.3z"/>
</g>
</svg>
