<?xml version="1.0" encoding="utf-8"?>
<!-- Generator: Adobe Illustrator 24.3.0, SVG Export Plug-In . SVG Version: 6.00 Build 0)  -->
<svg version="1.1" id="Layer_1" xmlns="http://www.w3.org/2000/svg" xmlns:xlink="http://www.w3.org/1999/xlink" x="0px" y="0px"
	 viewBox="0 0 400 400" style="enable-background:new 0 0 400 400;" xml:space="preserve">
<style type="text/css">
	.st0{fill:#212533;}
	.st1{fill:#F5C300;}
	.st2{fill:#FFFFFF;}
</style>
<g>
	<path class="st0" d="M199.4,367.9c-26.9,0-53.8-0.4-80.7,0.2c-11.9,0.3-19.7-5.6-25.1-14.7c-11.9-19.9-22.9-40.4-34.4-60.5
		c-12.7-22.3-25.6-44.4-38.3-66.7c-4.9-8.6-12.2-16.9-9.7-27.6c1.8-7.9,4.9-15.9,9-23c18.8-33.1,38.1-65.9,57.3-98.8
		c6.4-10.9,12.5-22,19-32.9c5-8.3,12.9-11.9,22.5-11.9c54.1,0,108.2,0.1,162.2-0.1c11.7-0.1,19.6,5.7,25,15
		c12.4,21.2,24.4,42.6,36.6,63.9c12.6,22,24.9,44.2,38.3,65.8c11,17.7,10.9,29.2-0.1,47.3c-15.6,25.6-30.1,51.8-45.2,77.7
		c-11,18.9-21.8,37.8-33.3,56.3c-4.1,6.6-10.7,10.1-19.1,10C255.4,367.8,227.4,367.9,199.4,367.9z"/>
	<path class="st1" d="M202.7,161.1c-21.7,0-43.4,0.1-65.1,0c-10.4,0-13.3-3.2-11-13.6c8.2-36.9,38.7-64.2,82.3-61.5
		c36.3,2.2,63.7,31.7,69.1,61.8c1.9,10.5-0.5,13.3-11.2,13.4C245.5,161.2,224.1,161.1,202.7,161.1z"/>
	<path class="st2" d="M295.5,187.6c10.3,0,20.6-0.3,30.9,0.1c19,0.7,32.4,16.8,30,35.6c-2.3,18.1-20.5,30.6-38.6,27.1
		c-20.3-4-34.6-17.1-48.1-31.3c-5.2-5.5-10.2-11.2-14.5-17.4c-1.8-2.6-2.8-7.1-1.8-9.9c0.7-2.1,5.3-3.8,8.2-4
		C272.9,187.3,284.2,187.6,295.5,187.6C295.5,187.6,295.5,187.6,295.5,187.6z"/>
	<path class="st2" d="M107.1,187c10.4,0,20.9-0.4,31.3,0.2c3.6,0.2,9,1.9,10.2,4.5c1.4,3,0.3,9-2,11.4
		c-14.2,14.4-28.3,29.2-44.1,41.7c-16.8,13.3-39,11-52.2-2.5c-10.3-10.6-10.7-23.1-6-35.7c4.3-11.6,13.6-18.5,26.3-19.1
		c12.2-0.6,24.4-0.1,36.5-0.1C107.1,187.2,107.1,187.1,107.1,187z"/>
	<path class="st1" d="M202.8,239.6c16,0,32-0.1,48,0c8.7,0.1,11.8,5.3,7.7,13c-4.2,7.9-9.4,13.1-20.1,12.7c-24.3-1-48.6-0.3-73-0.3
		c-8.8,0-19.2-7.9-20.4-16.3c-1.1-7.1,3.6-9.1,9.9-9.1C170.8,239.6,186.8,239.6,202.8,239.6z"/>
	<path class="st1" d="M202.5,187.7c3.7,0,7.3,0,11,0c14.1,0,16.4,2.4,14.1,16.5c-0.5,2.9-4.4,7.2-6.9,7.3c-12.3,0.8-24.7,0.7-37,0.2
		c-9.4-0.4-6.4-8.4-6.9-13.8c-0.5-5.5,0.7-10.2,7.7-10.2C190.5,187.8,196.5,187.8,202.5,187.7C202.5,187.8,202.5,187.7,202.5,187.7z
		"/>
	<path class="st1" d="M219.4,307.8c-5,3.3-11.3,10.8-17,10.3c-5.4-0.4-14-9.1-14.2-14.3c-0.4-11,10.4-7.8,17.5-8.2
		C212.3,295.1,218.3,296.2,219.4,307.8z"/>
</g>
</svg>
