<?xml version="1.0" encoding="utf-8"?>
<!-- Generator: Adobe Illustrator 24.3.0, SVG Export Plug-In . SVG Version: 6.00 Build 0)  -->
<svg version="1.1" id="Layer_1" xmlns="http://www.w3.org/2000/svg" xmlns:xlink="http://www.w3.org/1999/xlink" x="0px" y="0px"
	 viewBox="0 0 240 240" style="enable-background:new 0 0 240 240;" xml:space="preserve">
<style type="text/css">
	.st0{fill-rule:evenodd;clip-rule:evenodd;fill:#0FBAE9;}
	.st1{fill-rule:evenodd;clip-rule:evenodd;fill:#FAA21D;}
	.st2{fill-rule:evenodd;clip-rule:evenodd;fill:#70BF53;}
	.st3{fill-rule:evenodd;clip-rule:evenodd;fill:#188ACB;}
</style>
<g>
	<path class="st0" d="M166.5,32.8c17.7-2.8,30.3,3.8,37.8,19.8c3.4,12.9-0.2,23.4-10.5,31.6c-30.2,17.8-51.4,43.2-63.8,76.2
		c-5.3,15.4-9,31.1-11.1,47.1c-16.8-54.6-9.3-105.8,22.3-153.6C148.4,45.1,156.8,38.1,166.5,32.8z"/>
</g>
<g>
	<path class="st1" d="M38.9,45.1c8.3-1.3,15.7,0.6,22.3,5.6c25.7,26.1,36.5,57.2,32.2,93.5c-10.6-29.3-30-50.6-58.2-63.8
		c-9.6-8.6-11-18.3-4.3-29.1C33.3,48.8,36,46.7,38.9,45.1z"/>
</g>
<g>
	<path class="st2" d="M21.6,125.6c14.1-1.4,26.5,2.5,37.2,11.8c12.9,10.4,23,23,30.3,37.8c1.2,2.4,1.6,4.9,1.2,7.4
		c-18.9-13.9-40.2-21.1-63.8-21.7c-13-3.6-17.8-12-14.2-25.4C14.8,131.6,17.9,128.3,21.6,125.6z"/>
</g>
<g>
	<path class="st3" d="M199.9,125.6c15.3-3.7,24.8,1.9,28.5,16.7c-0.9,10-6.3,16.2-16.1,18.6c-23.5,0.5-44.5,7.7-63.2,21.7
		c-1.1-2.4-0.9-4.9,0.6-7.4C161.5,153.4,178.2,136.9,199.9,125.6z"/>
</g>
</svg>
