<?xml version="1.0" encoding="utf-8"?>
<!-- Generator: Adobe Illustrator 24.3.0, SVG Export Plug-In . SVG Version: 6.00 Build 0)  -->
<svg version="1.1" id="Layer_1" xmlns="http://www.w3.org/2000/svg" xmlns:xlink="http://www.w3.org/1999/xlink" x="0px" y="0px"
	 viewBox="0 0 37.3 37.3" style="enable-background:new 0 0 37.3 37.3;" xml:space="preserve">
<style type="text/css">
	.st0{fill:#FFFFFF;}
</style>
<g>
	<path class="st0" d="M7.6,20c0.4-0.6,0.7-1,1-1.4c-0.3-0.4-0.6-0.7-1-1.3c2.3-2.2,4.6-4.3,7-6.5c-2.5-2.4-4.7-4.7-7.1-7
		c0.9-0.9,1.7-1.6,2.5-2.3c2.6,2.7,5.3,5.3,7.9,8c-0.3,0.3-0.5,0.7-0.8,1.1c0.3,0.4,0.6,0.7,1,1.3c-2.3,2.2-4.6,4.3-7,6.5
		c2.5,2.4,4.8,4.6,7.1,6.8c-0.5,0.7-0.8,1-1.1,1.5c0.3,0.4,0.5,0.7,0.7,1c-2.6,2.7-5.3,5.3-7.9,8c-0.7-0.7-1.4-1.4-2.2-2.2
		c2.4-2.3,4.6-4.5,6.9-6.8C12.1,24.4,9.9,22.2,7.6,20z"/>
	<path class="st0" d="M26.5,35.9c-1.8-0.1-3.2-1.5-3.1-3.4c0-1.8,1.6-3.2,3.4-3.2c1.8,0.1,3.2,1.6,3.1,3.4
		C29.8,34.5,28.3,35.9,26.5,35.9z"/>
</g>
</svg>
