<?xml version="1.0" encoding="utf-8"?>
<!-- Generator: Adobe Illustrator 24.3.0, SVG Export Plug-In . SVG Version: 6.00 Build 0)  -->
<svg version="1.1" id="Layer_1" xmlns="http://www.w3.org/2000/svg" xmlns:xlink="http://www.w3.org/1999/xlink" x="0px" y="0px"
	 viewBox="0 0 200 200" style="enable-background:new 0 0 200 200;" xml:space="preserve">
<style type="text/css">
	.st0{fill:#F8D967;}
	.st1{fill:#FEFDAC;}
	.st2{fill:#D4D188;}
	.st3{fill:#EFEC9F;}
	.st4{fill:#F0EC9D;}
	.st5{fill:#F9D341;}
	.st6{fill:#FFFFFE;}
</style>
<path class="st0" d="M13.2,120.3c0-0.1-0.1-0.1-0.1-0.4c-0.1-0.7-0.2-1.1-0.3-1.6c0,0,0,0,0-0.2c-0.1-0.8-0.3-1.5-0.4-2.2
	c0,0-0.1-0.1,0-0.4c-0.1-0.8-0.2-1.4-0.3-2c0,0,0,0,0-0.2c-0.1-1.3-0.3-2.3-0.4-3.4c0,0,0,0,0-0.2c0-1.1,0-2,0-3
	c0.1-5.7,0.2-11.3,0.4-17c0.1-2.2,0.5-4.5,0.7-6.7c0,0,0,0,0.1-0.1c0.2-0.6,0.2-1.2,0.3-1.7c0,0,0,0,0.1-0.2
	c0.4-1.6,0.8-3.2,1.1-4.7c0,0,0,0,0.1-0.1c0.8-2.5,1.5-4.9,2.2-7.3c0,0,0,0,0.1,0c1.5-3.4,2.9-6.7,4.3-10c0,0,0,0,0.1,0
	c0.5-1,0.9-1.9,1.3-2.8c0,0,0-0.1,0.2-0.1c0.6-0.9,1-1.8,1.5-2.7c0,0,0-0.1,0.2-0.1c0.3-0.4,0.4-0.7,0.6-1.1c0,0,0-0.1,0.2-0.1
	c0.3-0.4,0.5-0.7,0.6-1.1c0,0,0-0.1,0.2-0.1c0.3-0.4,0.4-0.7,0.6-1.1c0,0,0-0.1,0.2-0.1c0.3-0.4,0.5-0.7,0.6-1.1c0,0,0-0.1,0.2-0.1
	c0.4-0.4,0.6-0.9,0.9-1.3c1.4-1.8,2.8-3.7,4.4-5.6c0.7-0.6,1.2-1.2,1.7-1.8c0,0,0-0.1,0.2-0.1c0.3-0.1,0.3-0.2,0.2-0.3
	c0,0,0-0.1,0.2-0.1c1.8-1.7,3.4-3.4,5-5.1c0,0,0-0.1,0.2-0.1c0.6-0.5,1.1-1,1.5-1.5c0,0,0,0,0.2,0c0.5-0.2,0.9-0.4,1.3-0.7
	c0-0.2,0-0.3,0-0.4c0,0,0,0,0.1,0c0.3-0.3,0.6-0.7,0.8-1c0,0,0-0.1,0.2,0c0.7-0.4,1.2-0.9,1.7-1.4c0,0,0,0,0.1,0
	c0.4-0.3,0.8-0.5,1.1-0.8c0,0,0,0,0.1,0c3.1-1.8,6-3.7,8.9-5.5c0.2-0.1,0.2-0.4,0.2-0.7c0,0,0-0.1,0.2,0c0.8-0.2,1.4-0.4,2-0.6
	c5-2.1,9.9-4.5,15-6.3c7-2.5,14.2-3.5,21.6-4.1c6.4-0.5,12.7,0,19,0.8c2.8,0.4,5.6,0.8,8.4,1.3c0,0,0,0,0,0.1
	c3.4,1.2,6.7,2.3,10,3.4c1.4,0.5,2.9,0.9,4.3,1.3c0,0,0,0,0,0.1c2.7,1.4,5.3,2.6,8,3.9c0,0,0,0,0,0.1c1,0.6,1.9,1,2.8,1.5
	c0,0,0,0,0,0.1c1.8,1.1,3.6,2.1,5.3,3.2c0,0,0.1,0,0.1,0.2c0.2,0.3,0.4,0.4,0.6,0.5c0,0,0,0,0,0.1c0.4,0.3,0.8,0.5,1.2,0.7
	c0,0,0,0,0,0.1c0.2,0.2,0.3,0.2,0.4,0.3c0,0,0,0,0,0.1c0.3,0.2,0.5,0.2,0.8,0.3c0,0,0,0,0,0.1c0.3,0.3,0.6,0.5,0.8,0.7
	c0,0,0,0,0,0.1c0.3,0.2,0.6,0.3,1,0.4c0,0,0.1,0,0.1,0.2c0.3,0.4,0.6,0.7,1,0.9c0,0,0,0,0,0.1c0,0.2,0,0.2,0.1,0.4
	c0.5,0.2,0.9,0.3,1.3,0.4c0,0,0,0,0,0.2c0.5,0.5,1.1,0.9,1.6,1.3c0,0,0.1,0,0.1,0.2c0.3,0.4,0.7,0.7,1,0.9c0,0,0,0,0,0.1
	c0.2,0.2,0.3,0.2,0.4,0.3c0,0-0.1,0,0,0.1c0.2,0.2,0.3,0.2,0.4,0.3c0,0,0,0,0,0.1c0.2,0.2,0.3,0.2,0.4,0.3c0,0,0,0,0,0.1
	c0.2,0.2,0.3,0.2,0.4,0.3c0,0,0,0,0,0.1c0.2,0.2,0.3,0.2,0.4,0.3c0,0,0,0,0,0.1c0.2,0.2,0.3,0.2,0.4,0.3c0,0,0,0,0,0.1
	c0.2,0.2,0.3,0.2,0.4,0.3c0,0,0,0,0,0.1c0.2,0.2,0.3,0.2,0.4,0.3c0,0,0,0,0,0.1c0.2,0.2,0.3,0.2,0.4,0.3c0,0,0,0,0,0.1
	c0.2,0.2,0.4,0.3,0.6,0.4c0,0,0.1,0,0.1,0.1c0,0.1,0.1,0.3,0.1,0.3l0.2,0c0,0,0.1,0,0.1,0.2c0.5,0.7,0.9,1.2,1.4,1.7
	c1.5,1.9,3,3.7,4.6,5.8c0.4,0.5,0.8,0.8,1.1,1.1c0,0,0.1,0,0.1,0.2c0.2,0.4,0.5,0.7,0.7,1c0,0,0.1,0,0.1,0.2c0.2,0.5,0.5,0.7,0.7,1
	c0,0,0.1,0,0,0.2c0.2,0.5,0.5,0.7,0.8,1c0,0,0.1,0,0,0.2c0.2,0.5,0.5,0.7,0.7,1c0,0,0.1,0,0,0.2c0.5,1,1,1.8,1.6,2.6
	c0,0,0.1,0,0,0.2c0.5,1,1,1.9,1.5,2.7c0,0,0,0-0.1,0.2c0.5,1.1,1.1,2.1,1.7,3.1c0,0,0,0-0.1,0.1c0.9,2.3,1.9,4.5,2.9,6.7
	c0,0,0,0-0.1,0.1c0.8,2.5,1.6,4.9,2.4,7.2c0,0,0,0,0,0.2c0.4,1.6,0.8,3.1,1.2,4.6c0,0,0,0,0,0.2c0.1,0.7,0.3,1.2,0.4,1.7
	c0,0,0,0-0.1,0.1c0,0.7,0,1.3,0.1,1.9c0.5,6.1,1,12.2,1.4,18.4c0.1,2.2-0.2,4.5-0.3,6.7c0,0.1,0,0.1-0.1,0.4
	c-0.2,1.1-0.3,1.9-0.3,2.8c0,0,0,0-0.1,0.1c-0.2,0.8-0.2,1.6-0.3,2.3c0,0,0,0-0.1,0.1c-0.2,0.8-0.3,1.5-0.3,2.2c0,0,0,0-0.1,0.1
	c-0.2,0.6-0.2,1.1-0.3,1.5c0,0.1,0,0.1-0.1,0.4c-0.2,0.6-0.3,1.1-0.3,1.5c0,0,0,0-0.1,0.1c-0.2,0.6-0.2,1-0.3,1.5c0,0,0,0-0.1,0.1
	c-0.2,0.5-0.2,0.8-0.3,1.1c0,0.1,0,0.1-0.1,0.4c-0.2,0.4-0.2,0.7-0.3,0.9c-2.7,10.1-7.3,19.3-13.5,27.6
	c-15.9,21.3-37,33.7-63.4,36.6c-42.8,4.7-83.4-22.5-95.6-63.9c-0.1-0.6-0.2-0.9-0.3-1.2c0-0.1-0.1-0.1-0.1-0.4
	c-0.1-0.6-0.2-0.9-0.3-1.2c0,0-0.1-0.1-0.1-0.4c-0.1-0.6-0.2-0.9-0.3-1.2c0,0-0.1-0.2-0.1-0.4C13.4,120.9,13.3,120.6,13.2,120.3
	 M49.1,36.6c-2.7,2.6-5.5,5.2-8.2,7.8c-5.3,5.2-9.4,11.2-12.8,17.7c-8,15-10.7,31-9,47.9c1,9.4,3.6,18.2,7.6,26.7
	c5.3,11.2,13,20.5,22.5,28.3c8,6.5,16.9,11.3,26.7,14.4c9.3,2.9,18.7,4.1,28.5,3.7c8.4-0.3,16.5-1.9,24.4-4.7
	c12.6-4.5,23.3-11.7,32.5-21.4c8.1-8.6,14-18.4,17.8-29.5c4.1-11.7,5.2-23.8,3.9-36.1c-1-9.6-3.7-18.6-7.9-27.2
	c-4.4-8.9-10.3-16.7-17.5-23.5c-5.6-5.3-11.8-9.8-18.6-13.3c-11.9-6.1-24.5-9.2-38-9.1c-10.2,0.1-20.1,1.7-29.6,5.4
	C63.3,26.8,56,31.1,49.1,36.6z"/>
<path class="st1" d="M122.5,13.1c-2.7-0.3-5.5-0.7-8.4-1.1c-6.3-0.9-12.6-1.3-19-0.8c-7.4,0.6-14.6,1.7-21.6,4.1
	c-5.1,1.8-10,4.2-15,6.3c-0.6,0.3-1.2,0.4-2,0.6c6.2-3.8,12.9-6.7,20.1-8.5c5.6-1.4,11.2-2.6,16.9-3.1c5.1-0.5,10.3-0.1,15.5,0.3
	C113.5,11.2,118,12.2,122.5,13.1z"/>
<path class="st2" d="M190.5,110.2c0-2.1,0.4-4.4,0.2-6.6c-0.4-6.1-0.9-12.2-1.4-18.4c0-0.6-0.1-1.2-0.1-2c1.8,7.2,2.1,14.7,1.7,22.2
	C190.9,107,190.7,108.5,190.5,110.2z"/>
<path class="st2" d="M12.5,83.2c-0.1,2.1-0.5,4.3-0.6,6.6c-0.2,5.7-0.3,11.3-0.4,17c0,0.9,0,1.9,0,3c-1.1-7.3-0.7-14.8,0.3-22.3
	C12,86,12.2,84.7,12.5,83.2z"/>
<path class="st1" d="M136.9,17.8c-1.4-0.3-2.8-0.7-4.2-1.2c-3.3-1.1-6.6-2.2-10-3.4c3.6,0.9,7.2,2,10.9,3.1
	C134.7,16.7,135.7,17.3,136.9,17.8z"/>
<path class="st1" d="M56.2,22.3c0,0.1,0,0.5-0.1,0.6c-2.9,1.9-5.9,3.7-8.9,5.5C50,26.4,53.1,24.4,56.2,22.3z"/>
<path class="st2" d="M20.8,59.1c-1.3,3.2-2.7,6.5-4.2,9.9C17.9,65.8,19.3,62.5,20.8,59.1z"/>
<path class="st3" d="M39.8,34.3c-1.5,1.6-3.1,3.4-4.9,5C36.5,37.6,38.1,36,39.8,34.3z"/>
<path class="st1" d="M144.9,21.9c-2.6-1.1-5.2-2.4-7.9-3.8C139.6,19.2,142.2,20.5,144.9,21.9z"/>
<path class="st2" d="M16.4,69.1c-0.6,2.3-1.3,4.7-2.2,7.2C14.9,74,15.6,71.6,16.4,69.1z"/>
<path class="st2" d="M187.8,76.3c-0.8-2.2-1.6-4.6-2.4-7.1C186.2,71.4,187,73.7,187.8,76.3z"/>
<path class="st1" d="M153,26.7c-1.7-0.9-3.4-1.9-5.3-3.1C149.5,24.6,151.2,25.6,153,26.7z"/>
<path class="st2" d="M185.5,68.9c-1-2-1.9-4.2-2.9-6.5C183.6,64.4,184.5,66.6,185.5,68.9z"/>
<path class="st2" d="M189,81c-0.4-1.3-0.8-2.8-1.2-4.4C188.2,77.9,188.6,79.4,189,81z"/>
<path class="st2" d="M14.1,76.6c-0.2,1.4-0.5,2.9-1,4.5C13.3,79.7,13.7,78.2,14.1,76.6z"/>
<path class="st2" d="M22.3,56.3c-0.3,0.8-0.7,1.8-1.3,2.7C21.3,58.2,21.8,57.3,22.3,56.3z"/>
<path class="st2" d="M181,58.9c-0.5-0.7-1-1.6-1.5-2.6C180.1,57.1,180.5,57.9,181,58.9z"/>
<path class="st2" d="M23.9,53.5c-0.3,0.8-0.8,1.7-1.3,2.6C22.9,55.3,23.4,54.4,23.9,53.5z"/>
<path class="st2" d="M179.4,56c-0.5-0.7-1-1.5-1.5-2.4C178.4,54.2,178.9,55,179.4,56z"/>
<path class="st1" d="M147.7,23.4c-0.9-0.3-1.8-0.8-2.7-1.4C145.8,22.4,146.8,22.9,147.7,23.4z"/>
<path class="st2" d="M182.6,62.1c-0.5-0.8-1.1-1.8-1.6-3C181.6,60,182.1,61,182.6,62.1z"/>
<path class="st1" d="M45.7,29.2c-0.4,0.4-0.9,0.9-1.5,1.3C44.6,30,45.1,29.6,45.7,29.2z"/>
<path class="st2" d="M11.4,110.1c0.2,0.9,0.3,2,0.5,3.2C11.7,112.4,11.6,111.3,11.4,110.1z"/>
<path class="st3" d="M34.3,39.9c-0.4,0.5-0.9,1.1-1.5,1.7C33.1,41,33.6,40.5,34.3,39.9z"/>
<path class="st4" d="M161.8,34c-0.5-0.3-1-0.7-1.5-1.3C160.8,33,161.3,33.4,161.8,34z"/>
<path class="st3" d="M41.5,32.6c-0.3,0.5-0.8,1-1.3,1.5C40.5,33.6,41,33.2,41.5,32.6z"/>
<path class="st2" d="M190.1,113.3c0-0.7,0-1.6,0.2-2.5C190.3,111.5,190.3,112.4,190.1,113.3z"/>
<path class="st4" d="M168.9,41.5c-0.4-0.4-0.9-0.9-1.4-1.5C168.1,40.3,168.5,40.8,168.9,41.5z"/>
<path class="st2" d="M189.3,118.1c0-0.6,0.1-1.3,0.3-2.1C189.6,116.6,189.5,117.3,189.3,118.1z"/>
<path class="st2" d="M12.3,116c0.2,0.5,0.3,1.2,0.5,2C12.6,117.5,12.4,116.9,12.3,116z"/>
<path class="st2" d="M189.7,115.8c0-0.6,0.1-1.3,0.2-2.2C190,114.2,189.9,114.9,189.7,115.8z"/>
<path class="st2" d="M28.1,47.2c-0.1,0.4-0.3,0.8-0.7,1.2C27.5,48.1,27.8,47.7,28.1,47.2z"/>
<path class="st2" d="M174.6,48.3c-0.3-0.2-0.6-0.5-0.9-0.9C174,47.6,174.3,47.9,174.6,48.3z"/>
<path class="st3" d="M43.1,32c-0.4,0.2-0.8,0.4-1.3,0.6c0.1-0.4,0.4-0.7,0.8-0.9C42.9,31.9,43,32,43.1,32z"/>
<path class="st4" d="M160.2,32.5c-0.4,0-0.8-0.1-1.1-0.3c0.1-0.1,0.2-0.1,0.3-0.1C159.6,32.1,159.9,32.2,160.2,32.5z"/>
<path class="st2" d="M11.9,113.6c0.2,0.4,0.3,1,0.4,1.8C12.1,115,12,114.4,11.9,113.6z"/>
<path class="st1" d="M46.9,28.4c-0.2,0.3-0.5,0.5-1,0.8C46.1,28.9,46.4,28.7,46.9,28.4z"/>
<path class="st2" d="M27.1,48.7c0,0.3-0.2,0.7-0.4,1C26.6,49.3,26.8,49,27.1,48.7z"/>
<path class="st2" d="M175.4,49.5c-0.2-0.2-0.5-0.4-0.7-0.8C175,48.9,175.2,49.2,175.4,49.5z"/>
<path class="st2" d="M26.2,49.9c0,0.3-0.2,0.7-0.4,1C25.8,50.6,26,50.3,26.2,49.9z"/>
<path class="st2" d="M176.2,50.8c-0.2-0.2-0.5-0.5-0.7-0.9C175.8,50.1,176,50.4,176.2,50.8z"/>
<path class="st2" d="M25.5,51.1c-0.1,0.3-0.2,0.7-0.5,1C25,51.8,25.2,51.5,25.5,51.1z"/>
<path class="st2" d="M177,52c-0.2-0.2-0.5-0.5-0.7-0.9C176.6,51.3,176.8,51.6,177,52z"/>
<path class="st2" d="M24.7,52.3c-0.1,0.3-0.2,0.7-0.5,1C24.3,53,24.4,52.7,24.7,52.3z"/>
<path class="st2" d="M177.8,53.2c-0.2-0.2-0.5-0.5-0.7-0.9C177.4,52.5,177.6,52.8,177.8,53.2z"/>
<path class="st1" d="M154.9,28.3c-0.3-0.1-0.7-0.3-1.1-0.6C154.1,27.7,154.5,27.9,154.9,28.3z"/>
<path class="st2" d="M188.5,121.7c0-0.3,0-0.8,0.2-1.3C188.7,120.7,188.7,121.2,188.5,121.7z"/>
<path class="st4" d="M162.9,35.1c-0.3-0.1-0.6-0.4-0.9-0.7C162.3,34.4,162.6,34.7,162.9,35.1z"/>
<path class="st2" d="M189.4,83c-0.2-0.3-0.3-0.9-0.5-1.5C189.1,81.8,189.2,82.3,189.4,83z"/>
<path class="st1" d="M158.9,31.5c-0.3-0.1-0.6-0.4-0.9-0.8C158.3,30.8,158.6,31.1,158.9,31.5z"/>
<path class="st1" d="M43.8,30.7c-0.1,0.2-0.3,0.6-0.7,0.9C43.3,31.3,43.5,31,43.8,30.7z"/>
<path class="st2" d="M12.9,81.4c0,0.4,0,1-0.2,1.6C12.7,82.6,12.8,82.1,12.9,81.4z"/>
<path class="st1" d="M157.8,30.4c-0.2,0-0.5-0.1-0.9-0.3C157.2,30.1,157.5,30.2,157.8,30.4z"/>
<path class="st2" d="M12.7,118.4c0.1,0.3,0.3,0.7,0.4,1.3C13,119.4,12.8,119,12.7,118.4z"/>
<path class="st2" d="M189,119.8c0-0.3,0-0.8,0.2-1.4C189.2,118.7,189.1,119.2,189,119.8z"/>
<path class="st2" d="M188.1,123.3c0-0.3,0.1-0.8,0.2-1.3C188.4,122.3,188.3,122.8,188.1,123.3z"/>
<path class="st2" d="M13.2,120.4c0.1,0.2,0.2,0.5,0.3,1C13.4,121.2,13.3,120.9,13.2,120.4z"/>
<path class="st2" d="M13.5,122c0.1,0.2,0.3,0.5,0.4,1C13.8,122.8,13.6,122.5,13.5,122z"/>
<path class="st2" d="M13.9,123.6c0.1,0.2,0.3,0.5,0.4,1C14.2,124.4,14,124.1,13.9,123.6z"/>
<path class="st2" d="M187.8,124.6c0-0.2,0-0.6,0.2-1C188,123.8,187.9,124.1,187.8,124.6z"/>
<path class="st2" d="M14.4,125.2c0.1,0.2,0.2,0.5,0.4,0.9C14.6,125.9,14.5,125.6,14.4,125.2z"/>
<path class="st1" d="M156.9,29.9c-0.2-0.1-0.5-0.3-0.8-0.6C156.4,29.3,156.6,29.5,156.9,29.9z"/>
<path class="st1" d="M156.1,29.1c-0.2,0-0.4,0-0.7-0.2C155.6,28.8,155.8,28.9,156.1,29.1z"/>
<path class="st4" d="M167.1,39.2c-0.1,0-0.3-0.1-0.5-0.3C166.7,38.9,166.8,39,167.1,39.2z"/>
<path class="st1" d="M153.7,27.5c-0.2,0-0.3-0.1-0.5-0.4C153.4,27.1,153.6,27.2,153.7,27.5z"/>
<path class="st2" d="M187.4,125.9c0-0.1,0-0.4,0.1-0.7C187.5,125.3,187.5,125.5,187.4,125.9z"/>
<path class="st1" d="M159.3,31.9c0,0.1-0.1,0.1-0.3,0.1c-0.1-0.1-0.1-0.1-0.1-0.3C159.1,31.6,159.2,31.7,159.3,31.9z"/>
<path class="st1" d="M155.3,28.7c-0.1,0-0.2-0.1-0.4-0.2C155,28.4,155.2,28.5,155.3,28.7z"/>
<path class="st1" d="M43.1,31.9c-0.1,0.1-0.2,0-0.4-0.2c-0.1-0.1,0.1-0.1,0.2-0.2C43,31.6,43.1,31.7,43.1,31.9z"/>
<path class="st4" d="M163.3,35.5c-0.1,0-0.2-0.1-0.4-0.2C163,35.2,163.2,35.3,163.3,35.5z"/>
<path class="st4" d="M163.7,35.9c-0.1,0-0.2-0.1-0.4-0.2C163.4,35.6,163.6,35.7,163.7,35.9z"/>
<path class="st4" d="M164.1,36.3c-0.1,0-0.2-0.1-0.4-0.2C163.8,36,164,36.1,164.1,36.3z"/>
<path class="st4" d="M164.5,36.7c-0.1,0-0.2-0.1-0.4-0.2C164.2,36.4,164.4,36.5,164.5,36.7z"/>
<path class="st4" d="M164.9,37.1c-0.1,0-0.2-0.1-0.4-0.2C164.6,36.8,164.8,36.9,164.9,37.1z"/>
<path class="st4" d="M165.3,37.5c-0.1,0-0.2-0.1-0.4-0.2C165,37.2,165.2,37.3,165.3,37.5z"/>
<path class="st4" d="M165.7,37.9c-0.1,0-0.2-0.1-0.4-0.2C165.4,37.6,165.6,37.7,165.7,37.9z"/>
<path class="st4" d="M166.1,38.3c-0.1,0-0.2-0.1-0.4-0.2C165.8,38,166,38.1,166.1,38.3z"/>
<path class="st4" d="M166.5,38.7c-0.1,0-0.2-0.1-0.4-0.2C166.2,38.4,166.4,38.5,166.5,38.7z"/>
<path class="st4" d="M167.5,39.6c0,0.1-0.1,0.1-0.1,0.1s-0.1-0.1-0.1-0.2C167.3,39.4,167.4,39.5,167.5,39.6z"/>
<path class="st3" d="M34.7,39.4c0.1,0.1,0.1,0.2-0.1,0.2C34.5,39.6,34.6,39.5,34.7,39.4z"/>
<path class="st5" d="M49.2,36.5c6.8-5.4,14.1-9.7,22.1-12.8c9.5-3.6,19.4-5.3,29.6-5.4c13.5-0.1,26.1,3,38,9.1
	c6.8,3.5,13,8,18.6,13.3c7.2,6.8,13.1,14.6,17.5,23.5c4.2,8.6,6.9,17.7,7.9,27.2c1.3,12.3,0.2,24.4-3.9,36.1
	c-3.8,11.1-9.8,20.9-17.8,29.5c-9.1,9.7-19.9,17-32.5,21.4c-7.9,2.8-16,4.4-24.4,4.7c-9.7,0.3-19.2-0.8-28.5-3.7
	c-9.8-3.1-18.7-7.9-26.7-14.4c-9.5-7.8-17.2-17.2-22.5-28.3c-4-8.5-6.7-17.3-7.6-26.7c-1.7-16.8,1-32.9,9-47.9
	c3.4-6.5,7.5-12.5,12.8-17.7C43.5,41.7,46.3,39.2,49.2,36.5 M153.8,56.4c-3.9,1.5-7.8,3-11.7,4.5c-1.4,0.5-2.4,0.1-3.6-0.9
	c-13.6-11.6-34-4.4-37.3,13.1c-0.5,2.7-0.1,5.5-0.1,8.7c-19.5-1-35-8.9-47.4-23.4c-2.2,2.9-3.5,7.6-3.1,12.4
	c0.6,7.1,3.5,13,9.3,17.4c-0.1,0.2-0.2,0.4-0.3,0.6c-3-0.9-6-1.8-9-2.7c0.1,5.1,1.7,9.9,4.9,14c3.2,4.2,7.6,6.7,12.6,8.5
	c-3,0-6,0-9.4,0c4.2,9.3,10.7,14.9,20.6,16.3c-9.3,8.1-20.7,9.1-32.7,9.9c1.2,0.7,1.9,1,2.5,1.4c13.9,7,28.6,9.3,44,6.8
	c15.9-2.6,29.4-9.9,39.3-22.8c9.3-12.2,14.3-26,14-41.5c0-1.7,0.4-2.9,1.9-3.9c3.7-2.5,6.7-5.7,9.2-9.6c-0.2-0.1-0.3-0.1-0.7-0.1
	c-3.5,1.3-7.1,2.6-11.3,2.9c1.5-1.6,2.9-2.8,3.9-4.2c1.7-2.3,3.2-4.8,4.9-7.3C154.3,56.4,154.2,56.4,153.8,56.4z"/>
<path class="st6" d="M157.4,65.3c-2.3,3.8-5.4,7-9,9.4c-1.6,1.1-2,2.2-1.9,3.9c0.3,15.5-4.7,29.4-14,41.5
	c-9.9,12.9-23.4,20.1-39.3,22.8c-15.4,2.6-30.1,0.2-44-6.8c-0.6-0.3-1.3-0.7-2.5-1.4c12-0.8,23.4-1.8,32.7-9.9
	c-9.9-1.5-16.4-7-20.6-16.3c3.4,0,6.4,0,9.4,0c-5.1-1.7-9.4-4.3-12.6-8.5c-3.2-4.2-4.8-8.9-4.9-14c3.1,0.9,6,1.8,9,2.7
	c0.1-0.2,0.2-0.4,0.3-0.6c-5.8-4.4-8.7-10.3-9.3-17.4c-0.4-4.7,0.9-9.5,3.1-12.4c12.3,14.5,27.9,22.4,47.4,23.4c0-3.2-0.4-6,0.1-8.7
	c3.3-17.6,23.7-24.7,37.3-13.1c1.1,1,2.2,1.4,3.6,0.9c3.9-1.5,7.8-3,11.9-4.5c0.2,0,0.2,0.1,0.2,0.1c-1.6,2.4-3.1,4.9-4.8,7.2
	c-1,1.4-2.4,2.6-3.9,4.2c4.2-0.3,7.8-1.6,11.5-2.9C157.3,65.1,157.4,65.2,157.4,65.3z"/>
<path class="st6" d="M157.2,65c0.1,0,0.2,0.1,0.3,0.2C157.4,65.2,157.3,65.1,157.2,65z"/>
<path class="st6" d="M154.1,56.4c0.1,0,0.1,0,0.2,0.1C154.2,56.5,154.2,56.4,154.1,56.4z"/>
</svg>
