<?xml version="1.0" encoding="utf-8"?>
<!-- Generator: Adobe Illustrator 24.3.0, SVG Export Plug-In . SVG Version: 6.00 Build 0)  -->
<svg version="1.1" id="Layer_1" xmlns="http://www.w3.org/2000/svg" xmlns:xlink="http://www.w3.org/1999/xlink" x="0px" y="0px"
	 viewBox="0 0 500 500" style="enable-background:new 0 0 500 500;" xml:space="preserve">
<style type="text/css">
	.st0{fill:#2E7D32;}
	.st1{fill:#FFFFFF;}
</style>
<path class="st0" d="M338.3,477c-30.6-20.8-45.1-49.6-45-86c0-4.3,0.6-8.7,1.5-12.9c0.5-2.7-0.2-4.1-2.6-5
	c-14.2-5.4-28.5-10.8-42.6-16.3c-3.4-1.3-4.1,1.1-5.2,3.1c-7.4,12.7-16.4,23.8-27.7,33.2c-21.3,17.8-45.7,27.8-73.4,28.9
	c-51.7,2-91.1-19.6-116.4-64.6c-40.1-71.5,0.8-162.8,80.9-180.7c43.8-9.8,82.5,1.3,115.2,32.2c3.6,3.4,6,3.9,10,0.8
	c11.5-8.8,23.3-17.2,35.2-25.6c3.1-2.2,3.8-3.9,2.2-7.5c-6.9-15.1-7.9-31.1-6.1-47.3c0.4-3.3-0.7-4.6-3.4-5.6
	c-14.9-5.6-29.8-11.3-44.7-17.1c-3.1-1.2-4.5,0.2-6.3,2.3c-17.8,19.9-44.5,25.6-68.2,13.8c-20.3-10.1-30.7-27.3-31-49.9
	c-0.3-22.6,9.7-39.9,30-50.3c35.6-18.3,76.1,2.6,82.3,42.2c0.1,0.5,0.3,1.1,0.2,1.6c-2.4,10.4,3.9,13.6,12.3,16.3
	c10.9,3.5,21.4,8,32,12c7.8,3,7.7,2.9,12.6-3.7c13.8-18.9,32.1-30.7,55.1-34.9c48.2-8.8,93.1,22.1,102.4,70.2
	c11.1,57.4-36.8,109.4-95.1,103.4c-18.1-1.8-34-8.5-47.8-20.2c-3.9-3.3-6.5-3.5-10.6-0.3c-11.4,8.7-23.1,17-34.8,25.2
	c-3.1,2.2-3.7,4.2-1.9,7.7c12.9,25.5,15.8,52.4,10.8,80.3c-0.2,1.3-0.4,2.5-0.5,3.8c0,0.5,0.1,1.1,0.2,2.1
	c15,5.7,30.2,11.6,45.4,17.4c3.3,1.2,4.1-1.5,5.3-3.3c8.9-13.6,20.4-24.6,34.6-32.4c61-33.9,136,4.1,144.5,72.4
	c6.3,50.8-25.1,95.9-74.9,107.7C386.3,496.1,361.6,491.2,338.3,477 M41.1,294.4c-0.8,3.6,0,7.2,0.2,10.8
	c3.5,53.4,53.9,95.2,108.5,86.8c52.2-8,88.2-56.4,80.3-108.4c-7.7-50.5-55-86.6-105.2-80.2C76.5,209.5,42.5,250.1,41.1,294.4"/>
<path class="st0" d="M136,316.3c-7.1,5-13.8,9.9-20.7,14.7c-7.9,5.4-17,4.1-22-3.1c-4.7-6.8-2.6-15.7,5-21.2
	c6.3-4.6,12.6-9.2,19-13.6c2.9-1.9,4-4.2,4-7.6c-0.2-12.7-0.1-25.3-0.1-38c0-9.8,5.6-16.3,14.2-16.6c8.8-0.3,15.3,6,15.4,16
	c0.3,16.6,0.1,33.3,0.1,50c0,6-2.5,10.8-7.6,14.2C140.9,312.6,138.7,314.4,136,316.3"/>
<path class="st1" d="M409.6,141.4c-0.3-31.1-27-57.9-57.7-57.8c-32.5,0.1-59.2,26.5-59.2,58.6c0,31.8,26,57.7,57.4,58.4
	C380.4,201.3,409.5,176,409.6,141.4 M170.4,98.8c1.1-0.3,2.1-0.5,3.2-0.8c14.1-3.8,23.1-18.7,19.4-32.3
	c-3.9-14.6-18.2-23.1-32.8-19.4c-13.3,3.3-21.7,16.2-19.6,30.2C142.4,89.9,154.7,99.4,170.4,98.8 M345.9,343.9
	c-17.9,16.4-25.7,37-22.2,60.7c7.5,50.3,64.6,74.6,106.4,45.7c6.7-4.6,12.7-10.1,16.5-17.3c-1.6-2-3.4-2.4-5-3.1
	c-17.4-6.6-34.9-13.3-52.3-19.9c-10.5-4-13.2-7.9-13.2-19.1c0-18.7,0-37.3,0-56c0-5.6-1.2-6.4-6.6-4.6
	C360.9,333.1,353.3,337.5,345.9,343.9 M406,361.2c0,6.3,0.2,12.7,0.1,19c-0.1,3.2,1.2,4.9,4.2,6.1c14.4,5.4,28.8,10.9,43.1,16.5
	c3.7,1.4,5.1,0.4,5.4-3.7c2-30.2-16.9-58.7-45.8-68.6c-5.1-1.7-6.8-0.7-6.9,4.6C405.9,343.4,406,351.7,406,361.2"/>
</svg>
