<?xml version="1.0" encoding="UTF-8"?>
<!DOCTYPE svg PUBLIC "-//W3C//DTD SVG 1.1//EN" "http://www.w3.org/Graphics/SVG/1.1/DTD/svg11.dtd">
<svg xmlns="http://www.w3.org/2000/svg" version="1.1" width="400px" height="400px" style="shape-rendering:geometricPrecision; text-rendering:geometricPrecision; image-rendering:optimizeQuality; fill-rule:evenodd; clip-rule:evenodd" xmlns:xlink="http://www.w3.org/1999/xlink">
<g><path style="opacity:1" fill="#004cfe" d="M -0.5,-0.5 C 132.833,-0.5 266.167,-0.5 399.5,-0.5C 399.5,132.833 399.5,266.167 399.5,399.5C 266.167,399.5 132.833,399.5 -0.5,399.5C -0.5,266.167 -0.5,132.833 -0.5,-0.5 Z"/></g>
<g><path style="opacity:1" fill="#114fec" d="M 155.5,89.5 C 151.863,88.0145 148.53,86.0145 145.5,83.5C 145.44,82.9569 145.107,82.6236 144.5,82.5C 143.502,92.1437 143.168,101.81 143.5,111.5C 142.5,111.5 141.5,111.5 140.5,111.5C 140.833,100.833 141.167,90.1667 141.5,79.5C 143.5,79.5 145.5,79.5 147.5,79.5C 147.116,81.6648 147.783,83.3315 149.5,84.5C 150.429,83.3112 150.762,81.9778 150.5,80.5C 151.5,80.5 152.5,80.5 153.5,80.5C 153.065,83.8375 153.732,86.8375 155.5,89.5 Z"/></g>
<g><path style="opacity:1" fill="#144fee" d="M 181.5,107.5 C 172.476,101.99 163.81,95.9905 155.5,89.5C 157.262,89.3573 158.929,89.6906 160.5,90.5C 161.466,88.604 161.799,86.604 161.5,84.5C 164.792,84.1196 167.125,85.4529 168.5,88.5C 170.071,89.3094 171.738,89.6427 173.5,89.5C 173.822,91.7224 173.155,93.5557 171.5,95C 173.473,95.4955 175.473,95.6621 177.5,95.5C 177.5,96.5 177.5,97.5 177.5,98.5C 175.051,97.9426 172.718,97.9426 170.5,98.5C 171.62,100.596 173.12,100.93 175,99.5C 175.761,103.251 176.928,103.417 178.5,100C 179.635,99.2506 180.635,99.4173 181.5,100.5C 180.737,101.719 179.737,102.719 178.5,103.5C 179.524,104.852 180.524,106.185 181.5,107.5 Z"/></g>
<g><path style="opacity:1" fill="#4c75b5" d="M 145.5,83.5 C 144.506,92.6517 144.173,101.985 144.5,111.5C 144.167,111.5 143.833,111.5 143.5,111.5C 143.168,101.81 143.502,92.1437 144.5,82.5C 145.107,82.6236 145.44,82.9569 145.5,83.5 Z"/></g>
<g><path style="opacity:1" fill="#5a79d2" d="M 186.5,111.5 C 187.609,111.557 188.609,111.89 189.5,112.5C 189.5,112.833 189.5,113.167 189.5,113.5C 187.973,113.573 186.973,112.906 186.5,111.5 Z"/></g>
<g><path style="opacity:1" fill="#1a52ea" d="M 214.5,130.5 C 205.888,125.217 197.554,119.55 189.5,113.5C 189.5,113.167 189.5,112.833 189.5,112.5C 195.484,111.668 201.484,111.501 207.5,112C 205.99,112.85 204.49,113.683 203,114.5C 200.03,111.549 197.53,111.882 195.5,115.5C 198.393,114.977 201.226,115.644 204,117.5C 205.107,117.415 206.107,117.081 207,116.5C 207.333,118.833 207.667,121.167 208,123.5C 209.011,124.337 210.178,124.67 211.5,124.5C 211.5,125.5 211.5,126.5 211.5,127.5C 213.199,127.34 214.866,127.506 216.5,128C 215.244,128.417 214.577,129.25 214.5,130.5 Z"/></g>
<g><path style="opacity:1" fill="#1452e7" d="M 143.5,111.5 C 143.833,111.5 144.167,111.5 144.5,111.5C 146.266,113.771 148.266,115.937 150.5,118C 156.418,122.414 162.418,126.581 168.5,130.5C 166.508,130.328 164.842,130.995 163.5,132.5C 156.629,128.129 150.129,123.129 144,117.5C 143.505,115.527 143.338,113.527 143.5,111.5 Z"/></g>
<g><path style="opacity:1" fill="#f8fafa" d="M 145.5,83.5 C 148.53,86.0145 151.863,88.0145 155.5,89.5C 163.81,95.9905 172.476,101.99 181.5,107.5C 182.585,109.587 184.251,110.92 186.5,111.5C 186.973,112.906 187.973,113.573 189.5,113.5C 197.554,119.55 205.888,125.217 214.5,130.5C 214.5,131.167 214.833,131.5 215.5,131.5C 220.603,136.225 226.269,140.225 232.5,143.5C 239.984,149.077 247.65,154.41 255.5,159.5C 265.649,167.076 275.983,174.41 286.5,181.5C 286.833,181.5 287.167,181.5 287.5,181.5C 289.452,184.118 291.785,186.452 294.5,188.5C 295.925,189.922 296.925,191.589 297.5,193.5C 297.647,198.214 297.314,202.881 296.5,207.5C 293.5,210.833 290.5,214.167 287.5,217.5C 281.612,220.393 276.278,224.06 271.5,228.5C 265.612,231.393 260.278,235.06 255.5,239.5C 252.079,240.539 249.412,242.539 247.5,245.5C 243.975,246.759 240.975,248.759 238.5,251.5C 233.214,254.788 228.214,258.454 223.5,262.5C 220.296,263.383 217.629,265.05 215.5,267.5C 214.833,267.5 214.5,267.833 214.5,268.5C 209.886,271.117 205.553,274.117 201.5,277.5C 193.963,281.767 186.963,286.767 180.5,292.5C 177.074,294.076 173.74,295.909 170.5,298C 165.431,301.854 160.431,305.687 155.5,309.5C 152.222,311.477 148.889,313.477 145.5,315.5C 144.335,306.184 144.168,296.851 145,287.5C 146.332,285.34 147.832,283.34 149.5,281.5C 153.095,279.898 156.429,277.898 159.5,275.5C 162.206,275.425 164.873,275.092 167.5,274.5C 167.351,273.448 167.517,272.448 168,271.5C 169.627,270.468 170.793,269.134 171.5,267.5C 174.952,264.601 178.618,261.934 182.5,259.5C 184.749,258.92 186.415,257.587 187.5,255.5C 191.221,253.646 194.554,251.313 197.5,248.5C 197.5,247.833 197.833,247.5 198.5,247.5C 202.852,245.327 206.852,242.66 210.5,239.5C 212.001,238.248 213.668,237.248 215.5,236.5C 221.14,232.853 226.473,228.853 231.5,224.5C 232.391,223.89 233.391,223.557 234.5,223.5C 236.191,222.136 237.858,220.803 239.5,219.5C 241.389,218.396 243.055,217.063 244.5,215.5C 250.941,211.773 257.274,207.773 263.5,203.5C 267.544,203.149 269.878,200.982 270.5,197C 262.841,194.73 262.841,193.396 270.5,193C 269.975,192.308 269.308,191.808 268.5,191.5C 266.167,192.167 263.833,192.833 261.5,193.5C 260.142,191.139 258.642,188.806 257,186.5C 255.333,187.833 253.667,187.833 252,186.5C 252.661,184.965 252.994,183.298 253,181.5C 249.36,183.143 246.193,182.476 243.5,179.5C 244.603,179.002 245.603,178.669 246.5,178.5C 243.512,178.37 240.512,178.037 237.5,177.5C 235.938,177.267 234.605,176.6 233.5,175.5C 233.167,175.5 232.833,175.5 232.5,175.5C 230.763,173.45 228.763,171.617 226.5,170C 225.552,169.517 224.552,169.351 223.5,169.5C 221.733,167.11 219.4,165.443 216.5,164.5C 207.137,157.145 197.47,150.145 187.5,143.5C 181.306,138.908 174.973,134.575 168.5,130.5C 162.418,126.581 156.418,122.414 150.5,118C 148.266,115.937 146.266,113.771 144.5,111.5C 144.173,101.985 144.506,92.6517 145.5,83.5 Z"/></g>
<g><path style="opacity:1" fill="#1e54e5" d="M 234.5,137.5 C 233.77,139.045 232.437,139.878 230.5,140C 231.823,140.816 232.489,141.983 232.5,143.5C 226.269,140.225 220.603,136.225 215.5,131.5C 221.119,128.097 223.785,129.763 223.5,136.5C 224.675,136.719 225.675,136.386 226.5,135.5C 225.754,134.264 225.421,132.93 225.5,131.5C 226.552,131.351 227.552,131.517 228.5,132C 230.071,134.409 232.071,136.242 234.5,137.5 Z"/></g>
<g><path style="opacity:1" fill="#1e53e7" d="M 164.5,154.5 C 160.66,152.189 156.66,150.023 152.5,148C 149.562,147.288 146.896,147.788 144.5,149.5C 144.586,148.504 144.252,147.671 143.5,147C 149.587,146.471 155.587,145.804 161.5,145C 163.015,146.726 164.682,148.226 166.5,149.5C 162.312,150.166 161.645,151.833 164.5,154.5 Z"/></g>
<g><path style="opacity:1" fill="#164fef" d="M 234.5,137.5 C 236.014,138.68 237.681,139.68 239.5,140.5C 238.167,141.5 236.833,142.5 235.5,143.5C 236.391,144.59 237.391,144.59 238.5,143.5C 239.167,144.167 239.833,144.833 240.5,145.5C 243.67,143.805 247.004,143.305 250.5,144C 248.381,144.098 246.714,144.931 245.5,146.5C 247.834,147.334 249.834,148.667 251.5,150.5C 252.645,151.776 252.645,153.109 251.5,154.5C 252.391,155.59 253.391,155.59 254.5,154.5C 255.452,156.045 255.785,157.712 255.5,159.5C 247.65,154.41 239.984,149.077 232.5,143.5C 232.489,141.983 231.823,140.816 230.5,140C 232.437,139.878 233.77,139.045 234.5,137.5 Z"/></g>
<g><path style="opacity:1" fill="#1f52de" d="M 187.5,143.5 C 197.47,150.145 207.137,157.145 216.5,164.5C 213.692,163.071 210.692,162.405 207.5,162.5C 207.5,161.5 207.5,160.5 207.5,159.5C 206.167,159.5 204.833,159.5 203.5,159.5C 203.5,158.5 203.5,157.5 203.5,156.5C 201.801,156.66 200.134,156.494 198.5,156C 199.833,155 199.833,154 198.5,153C 196.19,152.503 193.857,152.337 191.5,152.5C 191.785,150.712 191.452,149.045 190.5,147.5C 188.712,146.717 187.712,145.384 187.5,143.5 Z"/></g>
<g><path style="opacity:1" fill="#074df6" d="M 168.5,130.5 C 174.973,134.575 181.306,138.908 187.5,143.5C 187.712,145.384 188.712,146.717 190.5,147.5C 191.452,149.045 191.785,150.712 191.5,152.5C 193.857,152.337 196.19,152.503 198.5,153C 199.833,154 199.833,155 198.5,156C 200.134,156.494 201.801,156.66 203.5,156.5C 203.5,157.5 203.5,158.5 203.5,159.5C 204.833,159.5 206.167,159.5 207.5,159.5C 207.5,160.5 207.5,161.5 207.5,162.5C 210.692,162.405 213.692,163.071 216.5,164.5C 219.4,165.443 221.733,167.11 223.5,169.5C 225.975,172.241 228.975,174.241 232.5,175.5C 232.833,175.5 233.167,175.5 233.5,175.5C 233.967,178.297 235.633,179.631 238.5,179.5C 239.167,179.5 239.5,179.833 239.5,180.5C 239.5,181.5 239.5,182.5 239.5,183.5C 240.873,183.343 242.207,183.51 243.5,184C 244.833,185 244.833,186 243.5,187C 246.968,187.23 249.634,188.73 251.5,191.5C 249.801,191.66 248.134,191.494 246.5,191C 244.275,190.124 242.275,188.957 240.5,187.5C 236.802,186.606 233.135,185.606 229.5,184.5C 228.529,185.962 228.862,187.295 230.5,188.5C 232.115,189.154 233.782,189.654 235.5,190C 236.641,190.741 236.641,191.575 235.5,192.5C 236.689,193.429 238.022,193.762 239.5,193.5C 239.5,196.167 239.5,198.833 239.5,201.5C 236.136,200.789 233.803,201.956 232.5,205C 225.922,205.885 225.922,207.052 232.5,208.5C 231.009,209.244 229.509,209.91 228,210.5C 225.138,207.755 221.638,206.422 217.5,206.5C 217.719,207.675 217.386,208.675 216.5,209.5C 213.09,210.608 209.757,211.774 206.5,213C 210.805,212.923 215.138,212.756 219.5,212.5C 219.176,215.694 220.342,216.694 223,215.5C 223.494,217.134 223.66,218.801 223.5,220.5C 220.459,220.594 218.793,219.094 218.5,216C 215.11,215.754 211.777,215.254 208.5,214.5C 206.339,215.035 204.339,215.868 202.5,217C 206.802,217.545 210.802,218.878 214.5,221C 213.333,221.167 212.167,221.333 211,221.5C 204.693,219.363 198.193,218.03 191.5,217.5C 194.086,216.52 196.753,216.187 199.5,216.5C 199.799,214.396 199.466,212.396 198.5,210.5C 195.804,209.26 193.471,207.593 191.5,205.5C 194.607,206.553 197.607,207.886 200.5,209.5C 203.976,210.643 207.642,210.81 211.5,210C 213.32,209.8 214.653,208.966 215.5,207.5C 215.973,206.094 216.973,205.427 218.5,205.5C 222.947,203.879 226.281,201.046 228.5,197C 227.095,195.731 225.429,195.231 223.5,195.5C 222.833,195.5 222.5,195.167 222.5,194.5C 222.5,193.5 222.5,192.5 222.5,191.5C 221.022,191.762 219.689,191.429 218.5,190.5C 220.108,189.758 221.775,189.591 223.5,190C 225.064,187.256 224.564,186.423 222,187.5C 220.57,185.33 219.07,185.164 217.5,187C 215.833,187.667 214.167,187.667 212.5,187C 211,184.833 209.5,182.667 208,180.5C 207.692,181.308 207.192,181.975 206.5,182.5C 205.583,181.873 204.583,181.539 203.5,181.5C 200.489,180.331 197.822,178.664 195.5,176.5C 195.649,175.448 195.483,174.448 195,173.5C 192.944,172.417 191.611,170.75 191,168.5C 189.506,169.747 188.006,169.747 186.5,168.5C 189.044,167.063 189.044,165.563 186.5,164C 184.288,163.211 182.288,163.378 180.5,164.5C 179.596,163.791 179.263,162.791 179.5,161.5C 176.549,161.713 173.882,161.046 171.5,159.5C 168.63,158.567 166.296,156.9 164.5,154.5C 166.094,154.92 167.594,155.586 169,156.5C 171.112,155.614 173.278,155.614 175.5,156.5C 175.5,155.5 175.5,154.5 175.5,153.5C 179.86,155.664 184.527,157.33 189.5,158.5C 191.345,157.062 192.511,157.396 193,159.5C 193.71,158.027 194.876,157.36 196.5,157.5C 196.5,156.5 196.5,155.5 196.5,154.5C 193.617,153.69 190.783,153.69 188,154.5C 185.301,152.299 182.467,150.299 179.5,148.5C 178.253,146.994 178.253,145.494 179.5,144C 177.144,143.845 174.811,143.845 172.5,144C 173.641,143.259 173.641,142.425 172.5,141.5C 170.363,140.92 168.53,139.92 167,138.5C 165.301,139.406 163.467,139.739 161.5,139.5C 161.374,137.8 160.707,136.3 159.5,135C 159.833,134.5 160.167,134 160.5,133.5C 161.216,134.311 162.05,134.978 163,135.5C 165.405,134.354 167.238,132.687 168.5,130.5 Z"/></g>
<g><path style="opacity:1" fill="#f8faf9" d="M 164.5,154.5 C 166.296,156.9 168.63,158.567 171.5,159.5C 174.275,162.605 177.608,164.938 181.5,166.5C 185.865,170.189 190.531,173.522 195.5,176.5C 197.822,178.664 200.489,180.331 203.5,181.5C 208.315,185.47 213.315,189.303 218.5,193C 219.745,193.791 221.078,194.291 222.5,194.5C 222.5,195.167 222.833,195.5 223.5,195.5C 224.23,196.712 225.23,197.712 226.5,198.5C 223.802,200.841 221.135,203.174 218.5,205.5C 216.973,205.427 215.973,206.094 215.5,207.5C 210.659,209.152 205.659,209.818 200.5,209.5C 197.607,207.886 194.607,206.553 191.5,205.5C 188.133,201.818 184.133,198.818 179.5,196.5C 174.353,191.781 168.686,187.781 162.5,184.5C 158.355,180.688 153.688,177.688 148.5,175.5C 147.521,173.855 146.188,172.521 144.5,171.5C 143.204,164.11 143.204,156.776 144.5,149.5C 146.896,147.788 149.562,147.288 152.5,148C 156.66,150.023 160.66,152.189 164.5,154.5 Z"/></g>
<g><path style="opacity:1" fill="#1d54ec" d="M 144.5,149.5 C 143.204,156.776 143.204,164.11 144.5,171.5C 146.188,172.521 147.521,173.855 148.5,175.5C 146.609,174.464 144.776,174.464 143,175.5C 142.333,173.5 141,172.167 139,171.5C 136.828,164.023 137.995,157.19 142.5,151C 142.167,150.667 141.833,150.333 141.5,150C 142.448,149.517 143.448,149.351 144.5,149.5 Z"/></g>
<g><path style="opacity:1" fill="#3c64da" d="M 171.5,159.5 C 173.882,161.046 176.549,161.713 179.5,161.5C 179.263,162.791 179.596,163.791 180.5,164.5C 180.833,165.167 181.167,165.833 181.5,166.5C 177.608,164.938 174.275,162.605 171.5,159.5 Z"/></g>
<g><path style="opacity:1" fill="#2155e7" d="M 195.5,176.5 C 190.531,173.522 185.865,170.189 181.5,166.5C 181.167,165.833 180.833,165.167 180.5,164.5C 182.288,163.378 184.288,163.211 186.5,164C 189.044,165.563 189.044,167.063 186.5,168.5C 188.006,169.747 189.506,169.747 191,168.5C 191.611,170.75 192.944,172.417 195,173.5C 195.483,174.448 195.649,175.448 195.5,176.5 Z"/></g>
<g><path style="opacity:1" fill="#2054e8" d="M 255.5,159.5 C 258.577,159.727 261.41,160.727 264,162.5C 265.44,161.852 266.94,161.519 268.5,161.5C 267.862,163.46 267.862,165.293 268.5,167C 271.351,168.289 274.351,168.789 277.5,168.5C 277.798,171.265 278.798,173.765 280.5,176C 283.199,175.562 285.865,175.728 288.5,176.5C 284.312,177.166 283.645,178.833 286.5,181.5C 275.983,174.41 265.649,167.076 255.5,159.5 Z"/></g>
<g><path style="opacity:1" fill="#3a60d1" d="M 223.5,169.5 C 224.552,169.351 225.552,169.517 226.5,170C 228.763,171.617 230.763,173.45 232.5,175.5C 228.975,174.241 225.975,172.241 223.5,169.5 Z"/></g>
<g><path style="opacity:1" fill="#325eca" d="M 233.5,175.5 C 234.605,176.6 235.938,177.267 237.5,177.5C 237.833,178.167 238.167,178.833 238.5,179.5C 235.633,179.631 233.967,178.297 233.5,175.5 Z"/></g>
<g><path style="opacity:1" fill="#2057de" d="M 294.5,188.5 C 291.785,186.452 289.452,184.118 287.5,181.5C 289.484,181.617 291.15,180.95 292.5,179.5C 294.55,180.077 295.55,181.41 295.5,183.5C 294.325,183.281 293.325,183.614 292.5,184.5C 293.63,185.622 294.297,186.956 294.5,188.5 Z"/></g>
<g><path style="opacity:1" fill="#2c59d9" d="M 148.5,175.5 C 153.688,177.688 158.355,180.688 162.5,184.5C 160.784,184.371 159.117,184.038 157.5,183.5C 155.299,183.142 153.965,181.808 153.5,179.5C 151.577,178.692 149.577,178.192 147.5,178C 148.252,177.329 148.586,176.496 148.5,175.5 Z"/></g>
<g><path style="opacity:1" fill="#1550e8" d="M 157.5,183.5 C 159.117,184.038 160.784,184.371 162.5,184.5C 168.686,187.781 174.353,191.781 179.5,196.5C 178.533,197.806 177.199,198.473 175.5,198.5C 175.5,197.5 175.5,196.5 175.5,195.5C 173.833,195.5 172.167,195.5 170.5,195.5C 170.5,193.833 170.5,192.167 170.5,190.5C 167.145,191.618 163.812,191.618 160.5,190.5C 159.593,188.061 158.593,185.728 157.5,183.5 Z"/></g>
<g><path style="opacity:1" fill="#2253e3" d="M 222.5,194.5 C 221.078,194.291 219.745,193.791 218.5,193C 213.315,189.303 208.315,185.47 203.5,181.5C 204.583,181.539 205.583,181.873 206.5,182.5C 207.192,181.975 207.692,181.308 208,180.5C 209.5,182.667 211,184.833 212.5,187C 214.167,187.667 215.833,187.667 217.5,187C 219.07,185.164 220.57,185.33 222,187.5C 224.564,186.423 225.064,187.256 223.5,190C 221.775,189.591 220.108,189.758 218.5,190.5C 219.689,191.429 221.022,191.762 222.5,191.5C 222.5,192.5 222.5,193.5 222.5,194.5 Z"/></g>
<g><path style="opacity:1" fill="#2056de" d="M 239.5,180.5 C 245.388,183.393 250.722,187.06 255.5,191.5C 254.167,191.5 252.833,191.5 251.5,191.5C 249.634,188.73 246.968,187.23 243.5,187C 244.833,186 244.833,185 243.5,184C 242.207,183.51 240.873,183.343 239.5,183.5C 239.5,182.5 239.5,181.5 239.5,180.5 Z"/></g>
<g><path style="opacity:1" fill="#e6effa" d="M 237.5,177.5 C 240.512,178.037 243.512,178.37 246.5,178.5C 245.603,178.669 244.603,179.002 243.5,179.5C 246.193,182.476 249.36,183.143 253,181.5C 252.994,183.298 252.661,184.965 252,186.5C 253.667,187.833 255.333,187.833 257,186.5C 258.642,188.806 260.142,191.139 261.5,193.5C 263.833,192.833 266.167,192.167 268.5,191.5C 269.308,191.808 269.975,192.308 270.5,193C 262.841,193.396 262.841,194.73 270.5,197C 269.878,200.982 267.544,203.149 263.5,203.5C 264.8,202.173 266.133,200.84 267.5,199.5C 263.736,196.389 259.736,193.723 255.5,191.5C 250.722,187.06 245.388,183.393 239.5,180.5C 239.5,179.833 239.167,179.5 238.5,179.5C 238.167,178.833 237.833,178.167 237.5,177.5 Z"/></g>
<g><path style="opacity:1" fill="#1951e7" d="M 255.5,191.5 C 259.736,193.723 263.736,196.389 267.5,199.5C 266.133,200.84 264.8,202.173 263.5,203.5C 257.274,207.773 250.941,211.773 244.5,215.5C 244.096,214.244 243.429,213.077 242.5,212C 245.075,208.877 248.409,207.044 252.5,206.5C 254.653,203.581 257.32,202.247 260.5,202.5C 259.597,200.38 258.263,200.046 256.5,201.5C 255.369,199.926 255.202,198.259 256,196.5C 256.893,197.711 257.726,197.711 258.5,196.5C 257.675,195.614 256.675,195.281 255.5,195.5C 255.5,194.167 255.5,192.833 255.5,191.5 Z"/></g>
<g><path style="opacity:1" fill="#3e63d5" d="M 223.5,195.5 C 225.429,195.231 227.095,195.731 228.5,197C 226.281,201.046 222.947,203.879 218.5,205.5C 221.135,203.174 223.802,200.841 226.5,198.5C 225.23,197.712 224.23,196.712 223.5,195.5 Z"/></g>
<g><path style="opacity:1" fill="#4776db" d="M 297.5,193.5 C 298.833,198.167 298.833,202.833 297.5,207.5C 297.167,207.5 296.833,207.5 296.5,207.5C 297.314,202.881 297.647,198.214 297.5,193.5 Z"/></g>
<g><path style="opacity:1" fill="#5278dd" d="M 215.5,207.5 C 214.653,208.966 213.32,209.8 211.5,210C 207.642,210.81 203.976,210.643 200.5,209.5C 205.659,209.818 210.659,209.152 215.5,207.5 Z"/></g>
<g><path style="opacity:1" fill="#1854e5" d="M 296.5,207.5 C 296.833,207.5 297.167,207.5 297.5,207.5C 297.477,209.6 298.144,211.433 299.5,213C 297.006,215.328 294.672,217.828 292.5,220.5C 292.167,220.167 291.833,219.833 291.5,219.5C 292.711,218.126 293.711,216.626 294.5,215C 294.167,214.5 293.833,214 293.5,213.5C 291.786,215.35 289.786,216.684 287.5,217.5C 290.5,214.167 293.5,210.833 296.5,207.5 Z"/></g>
<g><path style="opacity:1" fill="#3b60d0" d="M 239.5,219.5 C 237.858,220.803 236.191,222.136 234.5,223.5C 234.384,220.09 236.05,218.756 239.5,219.5 Z"/></g>
<g><path style="opacity:1" fill="#2654da" d="M 287.5,217.5 C 286.859,218.482 286.193,219.482 285.5,220.5C 286.167,221.167 286.833,221.833 287.5,222.5C 285.269,222.887 282.936,223.053 280.5,223C 278.487,226.344 275.487,228.178 271.5,228.5C 276.278,224.06 281.612,220.393 287.5,217.5 Z"/></g>
<g><path style="opacity:1" fill="#1b52e9" d="M 231.5,224.5 C 226.473,228.853 221.14,232.853 215.5,236.5C 215.5,235.5 215.5,234.5 215.5,233.5C 214.167,233.5 212.833,233.5 211.5,233.5C 211.5,232.5 211.5,231.5 211.5,230.5C 213.666,230.579 215.666,231.246 217.5,232.5C 220.028,231.831 220.028,230.998 217.5,230C 218.337,228.989 218.67,227.822 218.5,226.5C 220.167,226.5 221.833,226.5 223.5,226.5C 223.5,225.5 223.5,224.5 223.5,223.5C 224.675,223.281 225.675,223.614 226.5,224.5C 225.494,225.396 225.494,226.062 226.5,226.5C 227.842,224.995 229.508,224.328 231.5,224.5 Z"/></g>
<g><path style="opacity:1" fill="#315cd3" d="M 271.5,228.5 C 271.5,229.5 271.5,230.5 271.5,231.5C 266.477,232.187 262.477,234.687 259.5,239C 258.207,239.49 256.873,239.657 255.5,239.5C 260.278,235.06 265.612,231.393 271.5,228.5 Z"/></g>
<g><path style="opacity:1" fill="#345dce" d="M 255.5,239.5 C 255.657,240.873 255.49,242.207 255,243.5C 254.439,242.978 253.772,242.645 253,242.5C 251.269,243.741 249.436,244.741 247.5,245.5C 249.412,242.539 252.079,240.539 255.5,239.5 Z"/></g>
<g><path style="opacity:1" fill="#1d52e8" d="M 210.5,239.5 C 206.852,242.66 202.852,245.327 198.5,247.5C 197.85,245.565 197.517,243.565 197.5,241.5C 196.022,241.762 194.689,241.429 193.5,240.5C 194.167,240.167 194.833,239.833 195.5,239.5C 197.239,240.4 199.072,241.067 201,241.5C 204.007,240.021 207.174,239.354 210.5,239.5 Z"/></g>
<g><path style="opacity:1" fill="#1c51d7" d="M 197.5,248.5 C 194.554,251.313 191.221,253.646 187.5,255.5C 186.833,255.5 186.167,255.5 185.5,255.5C 185.511,253.983 186.177,252.816 187.5,252C 189.78,251.767 191.78,250.934 193.5,249.5C 192.833,248.833 192.167,248.167 191.5,247.5C 191.833,247.167 192.167,246.833 192.5,246.5C 193.85,247.95 195.516,248.617 197.5,248.5 Z"/></g>
<g><path style="opacity:1" fill="#81a7e7" d="M 185.5,255.5 C 186.167,255.5 186.833,255.5 187.5,255.5C 186.415,257.587 184.749,258.92 182.5,259.5C 183.5,258.167 184.5,256.833 185.5,255.5 Z"/></g>
<g><path style="opacity:1" fill="#2c54d0" d="M 238.5,251.5 C 237.972,252.721 237.305,253.887 236.5,255C 233.938,257.075 231.271,258.909 228.5,260.5C 226.95,261.441 225.284,262.107 223.5,262.5C 228.214,258.454 233.214,254.788 238.5,251.5 Z"/></g>
<g><path style="opacity:1" fill="#0d4ef1" d="M 215.5,267.5 C 217.629,265.05 220.296,263.383 223.5,262.5C 225.284,262.107 226.95,261.441 228.5,260.5C 228.369,261.376 228.702,262.043 229.5,262.5C 232.533,260.302 235.7,258.302 239,256.5C 239.167,257 239.333,257.5 239.5,258C 238.43,259.709 237.097,261.209 235.5,262.5C 227.987,265.096 227.987,266.596 235.5,267C 236.833,267.667 236.833,268.333 235.5,269C 232.881,269.151 230.547,269.985 228.5,271.5C 227.948,269.997 227.948,268.331 228.5,266.5C 225.404,266.809 222.571,267.809 220,269.5C 218.7,268.293 217.2,267.626 215.5,267.5 Z"/></g>
<g><path style="opacity:1" fill="#1450eb" d="M 185.5,255.5 C 184.5,256.833 183.5,258.167 182.5,259.5C 178.618,261.934 174.952,264.601 171.5,267.5C 167.148,269.673 163.148,272.34 159.5,275.5C 156.429,277.898 153.095,279.898 149.5,281.5C 148.778,280.449 147.778,279.782 146.5,279.5C 147.172,278.733 148.005,278.066 149,277.5C 149.251,275.567 149.751,273.734 150.5,272C 153.748,271.329 154.081,271.829 151.5,273.5C 152,273.833 152.5,274.167 153,274.5C 156.185,273.328 158.685,271.328 160.5,268.5C 161.736,267.754 163.07,267.421 164.5,267.5C 164.297,265.362 163.297,263.695 161.5,262.5C 162,262.167 162.5,261.833 163,261.5C 165.862,263.566 169.029,264.4 172.5,264C 170.624,261.954 168.624,260.121 166.5,258.5C 168.489,257.385 170.322,257.718 172,259.5C 174.375,259.182 175.542,257.849 175.5,255.5C 178.833,255.5 182.167,255.5 185.5,255.5 Z"/></g>
<g><path style="opacity:1" fill="#1f56dd" d="M 214.5,268.5 C 214.881,269.931 215.881,270.764 217.5,271C 215.527,271.495 213.527,271.662 211.5,271.5C 211.833,274.5 210.5,275.833 207.5,275.5C 207.367,278.896 206.367,279.229 204.5,276.5C 203.583,277.127 202.583,277.461 201.5,277.5C 205.553,274.117 209.886,271.117 214.5,268.5 Z"/></g>
<g><path style="opacity:1" fill="#ddeaf9" d="M 171.5,267.5 C 170.793,269.134 169.627,270.468 168,271.5C 167.517,272.448 167.351,273.448 167.5,274.5C 164.873,275.092 162.206,275.425 159.5,275.5C 163.148,272.34 167.148,269.673 171.5,267.5 Z"/></g>
<g><path style="opacity:1" fill="#1f50e5" d="M 201.5,277.5 C 200.859,278.482 200.193,279.482 199.5,280.5C 200.167,281.167 200.833,281.833 201.5,282.5C 200.224,283.645 198.891,283.645 197.5,282.5C 196.41,283.391 196.41,284.391 197.5,285.5C 194.893,286.318 192.226,286.818 189.5,287C 188.833,287.667 188.167,288.333 187.5,289C 188.711,289.893 188.711,290.726 187.5,291.5C 186.707,291.069 185.873,290.735 185,290.5C 183.594,291.414 182.094,292.08 180.5,292.5C 186.963,286.767 193.963,281.767 201.5,277.5 Z"/></g>
<g><path style="opacity:1" fill="#1050ef" d="M 180.5,292.5 C 180.077,293.265 179.743,294.098 179.5,295C 180.627,296.057 181.127,297.223 181,298.5C 179.326,299.676 177.826,301.01 176.5,302.5C 174.889,301.68 174.222,300.346 174.5,298.5C 170.348,298.631 169.682,300.131 172.5,303C 170.965,303.496 169.465,303.33 168,302.5C 166.72,302.613 165.887,303.28 165.5,304.5C 167.771,305.363 170.105,305.363 172.5,304.5C 172.714,306.144 172.38,307.644 171.5,309C 167.322,310.427 163.322,311.927 159.5,313.5C 159.657,314.873 159.49,316.207 159,317.5C 157.445,315.485 155.611,315.152 153.5,316.5C 154.09,317.799 155.09,318.632 156.5,319C 154.465,319.599 152.799,319.099 151.5,317.5C 151.986,314.473 153.32,311.807 155.5,309.5C 160.431,305.687 165.431,301.854 170.5,298C 173.74,295.909 177.074,294.076 180.5,292.5 Z"/></g>
<g><path style="opacity:1" fill="#2357dc" d="M 146.5,279.5 C 147.778,279.782 148.778,280.449 149.5,281.5C 147.832,283.34 146.332,285.34 145,287.5C 144.168,296.851 144.335,306.184 145.5,315.5C 148.889,313.477 152.222,311.477 155.5,309.5C 153.32,311.807 151.986,314.473 151.5,317.5C 148.996,318.639 146.33,319.306 143.5,319.5C 143.577,307.226 143.577,295.059 143.5,283C 143.833,282.5 144.167,282 144.5,281.5C 147.506,283.004 148.172,282.337 146.5,279.5 Z"/></g>
</svg>
