<svg xmlns="http://www.w3.org/2000/svg" width="512" height="512" viewBox="0 0 512 512" xml:space="preserve"><path fill="#54001a" d="M90.667 6.4h330.667C471.467 6.4 512 46.933 512 97.067v317.867c0 50.133-40.533 90.667-90.667 90.667H90.667C40.533 505.6 0 465.067 0 414.933V97.067C0 46.933 40.533 6.4 90.667 6.4" data-original="#54001a"/><path d="M186.027 136.96v218.88c0 2.347-1.067 3.413-2.987 3.413h-41.813c-1.92 0-2.773-1.067-2.773-3.413V136.96c0-1.92 1.067-2.773 2.987-2.773h41.6c1.28-.213 2.56.64 2.773 2.133.213.213.213.427.213.64m122.88 225.707c-15.787.213-31.573-2.987-45.867-9.6-13.44-6.187-24.533-16.427-32.213-29.013-7.893-13.013-11.733-29.227-11.733-48.64a87.6 87.6 0 0 1 11.733-45.013c8.107-13.867 19.84-25.387 33.92-33.067 14.933-8.32 32.853-12.373 53.973-12.373 1.067 0 2.56 0 4.48.213s4.053.213 6.613.427v-67.413c0-1.493.64-2.347 2.133-2.347h43.307c1.067-.213 1.92.64 2.133 1.493v203.52c0 3.84.213 8.107.427 12.8.427 4.48.64 8.747.853 12.373 0 1.493-.64 2.773-2.133 3.413-11.093 4.693-22.827 8.107-34.773 10.24-10.667 1.92-21.76 2.987-32.853 2.987M329.813 320v-93.867c-1.92-.427-3.84-.853-5.76-1.067-2.347-.213-4.693-.427-7.04-.427-8.32 0-16.64 1.707-24.107 5.547-7.253 3.627-13.44 8.96-18.133 15.787s-7.04 16-7.04 27.093c-.213 7.467 1.067 14.933 3.627 21.973 2.133 5.76 5.333 10.88 9.6 15.147 4.053 3.84 8.96 6.827 14.507 8.533 5.76 1.92 11.733 2.773 17.707 2.773 3.2 0 6.187-.213 8.96-.427a18.1 18.1 0 0 0 7.679-1.065" data-original="#ff3068" fill="#ff3068"/></svg>