<?xml version="1.0" encoding="utf-8"?>
<!-- Generator: Adobe Illustrator 24.3.0, SVG Export Plug-In . SVG Version: 6.00 Build 0)  -->
<svg version="1.1" id="beehiiv-logo-a" xmlns="http://www.w3.org/2000/svg" xmlns:xlink="http://www.w3.org/1999/xlink" x="0px"
	 y="0px" viewBox="0 0 200 200" style="enable-background:new 0 0 200 200;" xml:space="preserve">
<style type="text/css">
	.st0{fill:url(#SVGID_1_);}
	.st1{fill:url(#SVGID_2_);}
	.st2{fill:url(#SVGID_3_);}
	.st3{fill:url(#SVGID_4_);}
	.st4{fill:url(#SVGID_5_);}
</style>
<g id="beehiiv-logo-b">
	<g>
		<g id="beehiiv-logo-c_8_">
			<g>
				<g id="beehiiv-logo-d_8_">
					<g>
						<linearGradient id="SVGID_1_" gradientUnits="userSpaceOnUse" x1="20.8939" y1="-3.186" x2="185.9276" y2="176.4095">
							<stop  offset="0.1425" style="stop-color:#E05CBF"/>
							<stop  offset="0.5726" style="stop-color:#3742CF"/>
						</linearGradient>
						<path class="st0" d="M161.6,95.3h-123c-3.1,0-5.7-2.6-5.7-5.7v-8.7c0-9.8,8-17.8,17.8-17.8h98.7c9.8,0,17.8,8,17.8,17.8v8.7
							C167.3,92.7,164.7,95.3,161.6,95.3z"/>
						<linearGradient id="SVGID_2_" gradientUnits="userSpaceOnUse" x1="40.3688" y1="-21.0818" x2="205.4025" y2="158.5137">
							<stop  offset="0.1425" style="stop-color:#E05CBF"/>
							<stop  offset="0.5726" style="stop-color:#3742CF"/>
						</linearGradient>
						<path class="st1" d="M135.7,53.7H64.5c-3.1,0-5.8-2.6-5.8-5.8l0,0c0-14.5,11.8-26.3,26.3-26.3h30.2
							c14.5,0,26.3,11.8,26.3,26.3l0,0C141.5,51.2,138.9,53.7,135.7,53.7L135.7,53.7z"/>
						<linearGradient id="SVGID_3_" gradientUnits="userSpaceOnUse" x1="2.0341" y1="14.1447" x2="167.0678" y2="193.7402">
							<stop  offset="0.1425" style="stop-color:#E05CBF"/>
							<stop  offset="0.5726" style="stop-color:#3742CF"/>
						</linearGradient>
						<path class="st2" d="M167.3,104.7H32.9c-8.8,0-16.1,7.3-16.1,16.1s7.3,16.1,16.1,16.1h47.7c1.7-9.1,9.7-16.1,19.4-16.1
							s17.8,7,19.5,16.1h47.7c8.8,0,16.1-7.3,16.1-16.1S176.1,104.7,167.3,104.7L167.3,104.7z"/>
						<g>
							<linearGradient id="SVGID_4_" gradientUnits="userSpaceOnUse" x1="3.9894" y1="12.3479" x2="169.0231" y2="191.9434">
								<stop  offset="0.1425" style="stop-color:#E05CBF"/>
								<stop  offset="0.5726" style="stop-color:#3742CF"/>
							</linearGradient>
							<path class="st3" d="M161.4,146.3h-41.7v32.2h31.3c8.8,0,16.1-7.3,16.1-16.1v-10.3C167.3,149,164.7,146.3,161.4,146.3
								L161.4,146.3z"/>
							<linearGradient id="SVGID_5_" gradientUnits="userSpaceOnUse" x1="-39.8672" y1="52.6486" x2="125.1665" y2="232.2441">
								<stop  offset="0.1425" style="stop-color:#E05CBF"/>
								<stop  offset="0.5726" style="stop-color:#3742CF"/>
							</linearGradient>
							<path class="st4" d="M38.6,146.3c-3.1,0-5.8,2.6-5.8,5.8v10.3c0,8.8,7.3,16.1,16.1,16.1h31.3v-32.2
								C80.3,146.3,38.6,146.3,38.6,146.3z"/>
						</g>
					</g>
				</g>
			</g>
		</g>
	</g>
</g>
</svg>
