<?xml version="1.0" encoding="utf-8"?>
<!-- Generator: Adobe Illustrator 24.3.0, SVG Export Plug-In . SVG Version: 6.00 Build 0)  -->
<svg version="1.1" id="Layer_1" xmlns="http://www.w3.org/2000/svg" xmlns:xlink="http://www.w3.org/1999/xlink" x="0px" y="0px"
	 viewBox="0 0 480 480" style="enable-background:new 0 0 480 480;" xml:space="preserve">
<style type="text/css">
	.st0{fill:#3070BF;}
</style>
<g>
	<path class="st0" d="M191,25.2c-8.7,3.4-17.9,16.5-17.9,25.2c0,14,7.3,18.8,36.2,23.8c55.5,9.3,94.5,28.9,132.1,65.9
		s57.5,74.9,68.4,130.1c5.3,26.1,7.3,31.7,13.5,36.2c6.2,4.8,8.7,5,17.1,2.2c17.4-5.9,20.2-11.5,19.6-40.7
		C457.4,150.5,353.4,40.9,229.2,25.4C201.7,21.8,198.9,21.8,191,25.2"/>
	<path class="st0" d="M188,109.3c-17.9,7.3-21,38.1-4.5,44.3c4.5,1.4,14.9,4.2,23.6,5.9c57.5,11.8,106.8,62.2,119.2,122
		c5.3,24.4,9.5,29.7,24.1,29.7c8.4,0,12.9-2,19.3-8.1c7-7,8.1-10.4,8.1-23.6c0-20.5-9.3-54.7-20.2-75.7
		c-5.6-10.9-18.2-26.4-33.1-41.2c-19.1-19.3-28.6-26.4-47.9-35.9C242.9,110.1,204.8,102.6,188,109.3"/>
	<path class="st0" d="M133.8,194.8c-58.9,16.5-97,76.8-87.8,139.6c9,63.6,57.8,105.7,122.5,105.7c43.5,0,76.5-16,101.8-49.1
		c31.4-41.5,32.5-104.9,2-149.2c-12.1-17.7-35-35.6-55-43.5S155.2,188.9,133.8,194.8 M198.6,260.1c22.4,11.8,31.7,26.4,32.8,52.2
		c0.8,16.3,0,22.7-4.5,31.4c-11.8,22.7-31.7,34.8-57.2,34.8c-19.3-0.3-35-7.6-47.7-22.2C76.7,303,136.7,227.6,198.6,260.1"/>
	<path class="st0" d="M146.2,292.7c-8.1,8.1-9.5,11.5-9.5,22.7s1.4,14.6,9.5,22.7c8.4,8.4,11.2,9.5,24.1,9.5
		c12.1,0,15.7-1.4,22.4-7.9c10.7-10.7,13.2-25,7-38.1c-5.9-12.3-16.5-18.5-32.5-18.5C158,283.1,154,284.8,146.2,292.7"/>
</g>
</svg>
