<!-- created by svgstack.com | Attribution is required. --><svg width="201" height="201" viewBox="0 0 201 201" fill="none" xmlns="http://www.w3.org/2000/svg"><g clip-path="url(#clip0_105_976)"><path d="M163.42 0.275391H38.4202C17.7095 0.275391 0.920166 17.0647 0.920166 37.7754V162.775C0.920166 183.486 17.7095 200.275 38.4202 200.275H163.42C184.131 200.275 200.92 183.486 200.92 162.775V37.7754C200.92 17.0647 184.131 0.275391 163.42 0.275391Z" fill="url(#paint0_linear_105_976)"/><path d="M99.1395 162.145C74.9388 159.063 58.0167 143.211 51.9209 117.849C51.375 115.559 50.9202 107.809 50.9202 100.676C50.9202 85.1761 52.6488 77.6023 58.3805 66.7703C65.295 53.7365 77.3953 44.1375 92.134 39.9982C101.596 37.3561 120.611 37.0041 130.073 39.2937C135.441 40.6147 148.724 46.251 149.543 47.572C149.724 47.8361 149.543 50.4782 149.088 53.3844C146.722 68.6196 145.812 74.1678 145.266 74.6082C144.994 74.8723 141.991 73.4634 138.534 71.5258C130.709 66.8582 125.069 65.1851 115.88 64.6568C95.0453 63.3358 82.7633 76.5454 82.7633 100.147C82.7633 113.798 85.7657 121.9 93.044 128.416C101.414 135.902 112.15 138.28 124.614 135.374C131.165 133.876 135.168 132.115 141.354 128.328C144.084 126.655 146.631 125.598 146.904 126.039C147.359 126.743 149.543 139.336 150.725 147.791C151.18 151.402 151.18 151.49 146.813 154.22C135.805 160.913 115.698 164.259 99.1395 162.145Z" fill="white"/></g><defs><linearGradient id="paint0_linear_105_976" x1="7.17016" y1="12.7754" x2="194.67" y2="200.275" gradientUnits="userSpaceOnUse"><stop stop-color="#DEBF4B"/><stop offset="0.192708" stop-color="#6FAA72"/><stop offset="0.657004" stop-color="#4967BD"/></linearGradient><clipPath id="clip0_105_976"><rect width="200" height="200" fill="white" transform="translate(0.920166 0.275391)"/></clipPath></defs></svg> 