<svg xmlns="http://www.w3.org/2000/svg"  viewBox="0 0 50 50" width="50px" height="50px"><path d="M25,2C12.317,2,2,12.317,2,25s10.317,23,23,23s23-10.317,23-23S37.683,2,25,2z M20.672,29.121 c0.77,2.037,2.123,3.066,4.136,3.146c2.138,0.084,3.437-0.692,4.177-2.521c0.123-0.306,0.217-0.763,0.242-0.913l0.141-0.824 L30.204,28c0,0,5.486-0.051,7.758-0.051h1.056l-0.058,1.055c-0.362,6.646-6.218,11.74-13.405,11.74 c-0.126,0-0.252-0.001-0.378-0.004C15.851,40.508,10.035,34.422,10,24.856C9.966,15.489,15.632,9.019,24.1,8.755 c8.195-0.232,14.449,4.869,14.898,12.184L39.063,22h-9.455l-0.219-0.703c-0.779-2.512-1.886-3.838-3.383-4.055 c-2.76-0.395-4.664,0.806-5.519,3.483C19.58,23.573,19.643,26.398,20.672,29.121z"/></svg>