<?xml version="1.0" encoding="utf-8"?>
<!-- Generator: Adobe Illustrator 24.3.0, SVG Export Plug-In . SVG Version: 6.00 Build 0)  -->
<svg version="1.1" id="Layer_1" xmlns="http://www.w3.org/2000/svg" xmlns:xlink="http://www.w3.org/1999/xlink" x="0px" y="0px"
	 viewBox="0 0 400 400" style="enable-background:new 0 0 400 400;" xml:space="preserve">
<style type="text/css">
	.st0{fill:#D4765D;}
	.st1{fill:#C15C48;}
</style>
<g>
	<path class="st0" d="M353.9,192c-19.7-3.4-38.7,9.5-42.8,29.2c-9.5,54.3-57,93.6-112,93c-62.4,0-113.3-51.6-113.3-114
		s51.6-113.3,114-113.3c4.8,0,9.5,0,13.6,0.7c20.4,2.7,38-11.5,40.7-31.9s-11.5-38-31.9-40.7c-7.5-0.7-14.9-1.4-22.4-1.4
		C96.7,13.5,13.3,97,12.6,200.2C11.9,303.3,96,387.5,198.5,387.5c90.9,0,168.3-64.5,184.6-153.4C386.5,214.4,373.6,195.4,353.9,192
		 M184.9,156.7c-14.3-14.3-37.3-14.3-51.6,0s-14.3,37.3,0,51.6l66.5,66.5L376.3,98.4c14.3-14.3,14.3-37.3,0-51.6s-37.3-14.3-51.6,0
		L199.2,171L184.9,156.7z"/>
	<path class="st1" d="M199.2,171l51.6,52.3L216.2,154L199.2,171z"/>
</g>
</svg>
