<?xml version="1.0" encoding="utf-8"?>
<!-- Generator: Adobe Illustrator 24.3.0, SVG Export Plug-In . SVG Version: 6.00 Build 0)  -->
<svg version="1.1" id="Layer_1" xmlns="http://www.w3.org/2000/svg" xmlns:xlink="http://www.w3.org/1999/xlink" x="0px" y="0px"
	 viewBox="0 0 50 50" style="enable-background:new 0 0 50 50;" xml:space="preserve">
<style type="text/css">
	.st0{fill:#8ABC00;}
</style>
<g>
	<path class="st0" d="M37.8,18.2c0-9.4-8.6-17.2-12.8-17.2S12.2,8.8,12.2,18.2c0,4.6,1.4,8.7,3.5,11.8c0.7,1.5,2,3.2,3.1,4.9
		c1.4,2,2.8,3.9,3.7,5.9c-0.7,0.3-1.3,0.8-1.5,1.5c0.7,0.1,1.4,0.3,2.3,0.4c2.1,0.3,4.1,0.1,5.2-0.3c-0.7,0.6-2.8,0.8-5.2,0.7
		c-0.8,0-1.7-0.1-2.4-0.3c0,0.1,0,0.3,0,0.4V47c0,1.5,1.3,2,2.8,2h3.9c1.5,0,2.8-0.4,2.8-2v-3.5c0-1.3-1-2.4-2.3-2.7
		c0.6-1.1,1.1-2.3,1.7-3.4l0.6-1.1l0.4-0.8c0.3-0.6,0.8-1.7,1.4-2.7l0,0C35.4,29.8,37.8,24.4,37.8,18.2z M29.8,35.1L29.4,36
		l-0.6,1.1c-0.6,1.1-1.3,2.4-1.7,3.7h-1.7v-5.2h-0.8v5.2h-1.3c-0.1,0-0.1,0-0.3,0c-0.8-2-2.3-4.1-3.7-6.2c-0.4-0.6-0.7-1-1.1-1.5
		c2,1.5,4.2,2.5,6.8,2.5c2,0,3.8-0.6,5.5-1.7C30.2,34.2,30.1,34.6,29.8,35.1z M29.6,33.7c0,0,4.1-4.4,5.2-10.6
		c-1.5,1.8-4.1,3.1-7,3.1c-4.6,0-8.5-3-8.5-6.6s3.8-6.6,8.5-6.6c3,0,5.5,1.1,7,3C32.5,5.8,21.3,3.3,21.3,3.3S22,2.5,23.6,2
		c1.3-0.4,1.8-0.3,2.7,0C27.3,2.3,37,7.7,37,18.1C36.8,28.2,29.6,33.7,29.6,33.7z"/>
	<path class="st0" d="M30.8,17.8c-0.7,0-1.4-0.4-2.4-0.4c-1.7,0-2.5,1-2.5,2.1c0,1,0.8,2,2.5,2c0.7,0,1.8-0.4,2.3-0.4
		c0.7,0,1.3,0.4,1.3,0.8c0,1-2.5,1.4-3.7,1.4c-3.2,0-5.4-1.8-5.4-3.8s2.3-3.9,5.4-3.9c1.3,0,3.7,0.3,3.7,1.3
		C32,17.3,31.5,17.8,30.8,17.8z"/>
</g>
</svg>
