<?xml version="1.0" encoding="utf-8"?>
<!-- Generator: Adobe Illustrator 24.3.0, SVG Export Plug-In . SVG Version: 6.00 Build 0)  -->
<svg version="1.1" id="Layer_1" xmlns="http://www.w3.org/2000/svg" xmlns:xlink="http://www.w3.org/1999/xlink" x="0px" y="0px"
	 viewBox="0 0 28 28" style="enable-background:new 0 0 28 28;" xml:space="preserve">
<style type="text/css">
	.st0{fill:#DBDADA;}
	.st1{fill:#1AAC84;}
	.st2{fill:#E97A7D;}
	.st3{fill:#F6D062;}
</style>
<g>
	<path class="st0" d="M14.8,5.5h-6c-0.7,0-1.3-0.6-1.3-1.3V3.9c0-0.7,0.6-1.3,1.3-1.3h6c0.7,0,1.3,0.6,1.3,1.3v0.3
		C16.1,4.9,15.5,5.5,14.8,5.5z"/>
	<path class="st1" d="M18.1,10.5H10c-0.7,0-1.3-0.6-1.3-1.3V8.9c0-0.7,0.6-1.3,1.3-1.3h8.1c0.7,0,1.3,0.6,1.3,1.3v0.3
		C19.4,9.9,18.8,10.5,18.1,10.5z"/>
	<path class="st0" d="M24.4,10.5h-2.1c-0.7,0-1.3-0.6-1.3-1.3V8.9c0-0.7,0.6-1.3,1.3-1.3h2.1c0.7,0,1.3,0.6,1.3,1.3v0.3
		C25.7,9.9,25.1,10.5,24.4,10.5z"/>
	<path class="st0" d="M25.1,15.4h-6.3c-0.7,0-1.3-0.6-1.3-1.3v-0.3c0-0.7,0.6-1.3,1.3-1.3h6.3c0.7,0,1.3,0.6,1.3,1.3v0.3
		C26.4,14.8,25.8,15.4,25.1,15.4z"/>
	<path class="st1" d="M14.8,15.4H10c-0.7,0-1.3-0.6-1.3-1.3v-0.3c0-0.7,0.6-1.3,1.3-1.3h4.8c0.7,0,1.3,0.6,1.3,1.3v0.3
		C16.1,14.8,15.5,15.4,14.8,15.4z"/>
	<path class="st0" d="M6,15.4H2.9c-0.7,0-1.3-0.6-1.3-1.3v-0.3c0-0.7,0.6-1.3,1.3-1.3H6c0.7,0,1.3,0.6,1.3,1.3v0.3
		C7.3,14.8,6.7,15.4,6,15.4z"/>
	<path class="st0" d="M6,20.4h-2c-0.7,0-1.3-0.6-1.3-1.3v-0.3c0-0.7,0.6-1.3,1.3-1.3h2c0.7,0,1.3,0.6,1.3,1.3v0.3
		C7.3,19.8,6.7,20.4,6,20.4z"/>
	<path class="st0" d="M24.4,20.4h-9.6c-0.7,0-1.3-0.6-1.3-1.3v-0.3c0-0.7,0.6-1.3,1.3-1.3h9.6c0.7,0,1.3,0.6,1.3,1.3v0.3
		C25.7,19.8,25.1,20.4,24.4,20.4z"/>
	<path class="st0" d="M19.2,25.4H8.5c-0.7,0-1.3-0.6-1.3-1.3v-0.3c0-0.7,0.6-1.3,1.3-1.3h10.7c0.7,0,1.3,0.6,1.3,1.3v0.3
		C20.5,24.8,20,25.4,19.2,25.4z"/>
	<path class="st2" d="M19.5,5.6h-0.3c-0.7,0-1.3-0.6-1.3-1.3V4c0-0.7,0.6-1.3,1.3-1.3h0.3c0.7,0,1.3,0.6,1.3,1.3v0.3
		C20.9,5,20.3,5.6,19.5,5.6z"/>
	<path class="st3" d="M4.2,10.5H3.9c-0.7,0-1.3-0.6-1.3-1.3V8.9c0-0.7,0.6-1.3,1.3-1.3h0.3c0.7,0,1.3,0.6,1.3,1.3v0.3
		C5.5,9.9,4.9,10.5,4.2,10.5z"/>
	<path class="st1" d="M10.5,20.3h-0.3c-0.7,0-1.3-0.6-1.3-1.3v-0.3c0-0.7,0.6-1.3,1.3-1.3h0.3c0.7,0,1.3,0.6,1.3,1.3v0.3
		C11.8,19.7,11.2,20.3,10.5,20.3z"/>
</g>
</svg>
