<?xml version="1.0" encoding="utf-8"?>
<!-- Generator: Adobe Illustrator 24.3.0, SVG Export Plug-In . SVG Version: 6.00 Build 0)  -->
<svg version="1.1" id="Layer_1" xmlns="http://www.w3.org/2000/svg" xmlns:xlink="http://www.w3.org/1999/xlink" x="0px" y="0px"
	 viewBox="0 0 96 96" style="enable-background:new 0 0 96 96;" xml:space="preserve">
<style type="text/css">
	.st0{fill:#FFFFFF;}
	.st1{fill:#FBC02D;}
	.st2{fill:#4CAF50;}
	.st3{fill:#2E7D32;}
	.st4{fill:#1E88E5;}
	.st5{fill:#1565C0;}
	.st6{fill:#E53935;}
</style>
<rect x="36" y="24" class="st0" width="24" height="48"/>
<path class="st1" d="M58,6H38H24c-3.3,0-6,2.7-6,6v58l10,2l10-2V26h20l2-10L58,6z"/>
<polygon class="st2" points="58,90 38,90 36,80 38,70 58,70 60,80 "/>
<path class="st3" d="M38,70v20H24c-3.3,0-6-2.7-6-6V70H38z"/>
<polygon class="st4" points="78,70 68,72 58,70 58,26 68,24 78,26 "/>
<path class="st5" d="M58,70h20v14c0,3.3-2.7,6-6,6H58V70z"/>
<polygon class="st6" points="78,26 58,26 58,6 "/>
</svg>
