<?xml version="1.0" encoding="utf-8"?>
<!-- Generator: Adobe Illustrator 24.3.0, SVG Export Plug-In . SVG Version: 6.00 Build 0)  -->
<svg version="1.1" id="Layer_1" xmlns="http://www.w3.org/2000/svg" xmlns:xlink="http://www.w3.org/1999/xlink" x="0px" y="0px"
	 viewBox="0 0 28 28" style="enable-background:new 0 0 28 28;" xml:space="preserve">
<style type="text/css">
	.st0{fill:#FFFFFF;}
	.st1{fill:#3B3A3A;}
</style>
<g>
	<path class="st0" d="M-532.2,354c10.9,0,10.9,0.3,10.9,7.5v37.4c0,24.2-1.3,26.8-13.3,28.3l-5.7,0.8c-2.1,1.6-2.1,7.5,0,9.1
		c12.5-0.5,25.2-0.8,38.2-0.8c12,0,24.7,0.3,37.7,0.8c2.1-1.6,2.1-7.5,0-9.1l-6.2-1c-12-2.1-13.5-3.9-13.5-28.1v-96.7
		c0-24.2,1.6-26.5,13.5-28.3l5.2-0.8c2.1-1.6,2.1-7.5,0-9.1c-12,0.5-23.9,0.8-36.7,0.8c-12.5,0-25.2-0.3-39.5-0.8
		c-2.1,1.6-2.1,7.5,0,9.1l7,1c12,1.8,13.3,3.9,13.3,28.1v30.2c0,7.5,0,7.8-10.9,7.8h-54.1c-10.7,0-10.9-0.3-10.9-7.8v-30.2
		c0-24.2,1.6-26.8,12.7-28.3l5.5-0.8c2.1-1.6,2.1-7.5,0-9.1c-11.4,0.5-24.4,0.8-36.1,0.8c-12.5,0-26-0.3-38.7-0.8
		c-2.1,1.6-2.1,7.5,0,9.1l6.2,0.8c12,1.6,13.3,4.2,13.3,28.3v96.7c0,24.2-1.3,26.8-13.3,28.3l-6.2,0.8c-2.1,1.6-2.1,7.5,0,9.1
		c13.3-0.5,26.3-0.8,38.7-0.8c11.7,0,24.7,0.3,39.5,0.8c2.1-1.6,2.1-7.5,0-9.1l-8.3-1c-11.7-1.6-13.3-3.9-13.3-28.1v-37.4
		c0-7.3,0.3-7.5,10.9-7.5L-532.2,354z M-367.7,374.8c8.1,0,9.4-3.6,9.4-8.6c0-20-14.6-37.4-41.6-37.4c-32.5,0-56.2,25.5-56.2,58.2
		c0,28.3,19,53,54.1,53c15.6,0,34.8-7.5,45.5-29.6c0-4.4-3.9-6.5-6.8-6c-7,12-16.9,13.5-24.2,13.5c-24.2,0-36.7-19-36.7-38.5
		c0-4.2,0.5-4.7,6.5-4.7L-367.7,374.8z M-413.1,363.3c-8.3,0-12-0.3-12-3.9c0-8.3,9.4-18.7,20.3-18.7c8.8,0,13.8,5.7,13.8,14.3
		c0,2.6-0.5,5.2-1.8,6c-2.9,1.8-7,2.3-10.7,2.3H-413.1z M-336.4,406.2c0,18.2-1,20.3-9.6,21.3l-4.2,0.5c-2.1,1.6-2.1,7.5,0.5,9.1
		c7.8-0.5,17.9-0.8,29.6-0.8c12.5,0,20.8,0.3,28.9,0.8c2.3-1.6,2.3-7.5,0.3-9.1l-4.2-0.5c-6.5-0.8-7.5-3.1-7.5-17.4v-46.5
		c0-4.7,0.5-7.8,2.1-9.6c2.1-2.9,7.3-6.2,14-6.2c12.5,0,17.7,8.3,17.7,18.2v44.2c0,14.3-1,16.6-7,17.4l-4.2,0.5
		c-2.1,1.6-2.1,7.5,0.3,9.1c6.8-0.5,17.2-0.8,27.6-0.8c11.7,0,20,0.3,28.1,0.8c2.3-1.6,2.3-7.5,0.3-9.1l-4.2-0.5
		c-6-0.8-7-3.1-7-17.4V362c0-3.6,0.8-6.2,1.8-7.8c1.8-3.1,7.3-6.5,14.6-6.5c12,0,17.4,8.3,17.4,18.2v44.2c0,14.3-1,16.6-7.5,17.4
		l-4.2,0.5c-2.1,1.6-2.1,7.5,0.3,9.1c7-0.5,17.9-0.8,28.3-0.8c12.5,0,22.4,0.3,30.4,0.8c2.3-1.6,2.3-7.5,0.3-9.1l-4.2-0.5
		c-8.6-1-9.6-3.1-9.6-21.3v-44.7c0-17.9-10.9-32.8-31.5-32.8c-14,0-23.9,7-29.6,10.1c-4.9,2.6-7.3,4.4-8.3,4.4c-1.6,0-3.1-1-6.2-4.7
		c-6-6.8-14-9.9-23.4-9.9c-12.5,0-24.2,7-29.9,10.4c-1.6,0.8-4.2,2.1-4.9,2.1s-1.3-0.5-1.3-2.1c0-1.8,0.8-8.1,0.8-11.7
		c-1-1.6-2.6-2.3-4.7-2.3c-8.1,4.7-26.5,11.7-38.5,15.1c-1.8,1.6-1.8,6.2,0,7.8l3.6,2.3c4.9,3.1,4.9,6.2,4.9,16.6L-336.4,406.2z
		 M-93,358.4c0-11.7,0.3-23.1,0.8-30.9c-1-1.6-2.6-2.3-4.7-2.3c-7.8,4.7-26.3,11.7-38.5,15.1c-1.8,1.6-1.8,6.2,0,7.8l3.6,2.3
		c4.9,3.1,4.9,6.2,4.9,16.6v39.3c0,18.2-1,20.5-9.6,21.3l-4.9,0.5c-2.1,1.6-2.1,7.5,0.3,9.1c8.6-0.5,19.5-0.8,31.2-0.8
		c12,0,22.1,0.3,31.2,0.8c2.3-1.6,2.3-7.5,0.3-9.1l-4.9-0.5c-8.6-0.8-9.6-3.1-9.6-21.3L-93,358.4z M-109.1,270.2
		c-10.4,0-19.5,7.5-19.5,19c0,10.7,6.8,18.5,18.2,18.5c9.9,0,19.5-6.5,19.5-19C-90.9,278.3-98.2,270.2-109.1,270.2 M-52.5,406.2
		c0,18.2-1,20.3-10.4,21.3l-4.2,0.5c-2.1,1.6-2.1,7.5,0.3,9.1c9.1-0.5,19.8-0.8,30.7-0.8c12.5,0,20.8,0.3,28.9,0.8
		c2.3-1.6,2.3-7.5,0.3-9.1l-4.2-0.5c-6.5-0.8-7.5-3.1-7.5-17.4v-46.5c0-4.7,0.5-7.8,2.1-9.6c2.1-2.9,7.3-6.2,14.6-6.2
		c13,0,18.2,8.3,18.2,18.5v43.9c0,14.3-1,16.1-7,17.2l-4.7,0.8c-2.1,1.6-2.1,7.5,0.3,9.1c7.5-0.5,17.7-0.8,28.1-0.8
		c12.5,0,23.4,0.3,31.5,0.8c2.3-1.6,2.3-7.5,0.3-9.1l-4.2-0.5c-9.4-1-10.4-3.1-10.4-21.3v-44.7c0-17.9-10.9-32.8-32.5-32.8
		c-12,0-24.2,7-29.9,10.4c-1.6,0.8-4.2,2.1-4.9,2.1s-1.3-0.5-1.3-2.1c0-1.8,0.8-8.1,0.8-11.7c-1-1.6-2.6-2.3-4.7-2.3
		c-7.5,4.7-26.3,11.7-38.5,15.1c-1.8,1.6-1.8,6.2,0,7.8l3.6,2.3c4.9,3.1,4.9,6.2,4.9,16.6L-52.5,406.2z M166.7,338.4
		c-9.6-5.2-23.4-9.6-38.7-9.6c-33.8,0-50.7,20.3-50.7,41.9c0,15.9,9.1,28.3,22.1,33.5c1.3,2.3,0.3,3.9-2.1,5.7
		c-1.6,1.6-9.4,7.5-16.6,12.2c-1.3,1.3-1.8,3.4-1.8,5.5c0,9.1,6.5,17.7,16.1,20.8c2.1,0.5,2.9,1.8-0.3,3.6
		c-2.9,1.6-7.5,4.9-12.7,8.1c-4.4,2.6-8.3,6.8-8.3,13c0,16.1,13.5,33.3,51,33.3c15.1,0,32-3.4,45.5-11.4
		c13.5-8.3,23.4-22.9,23.4-39.3c0-26.3-20.8-31.5-40.3-31.5c-12.2,0-22.9,0.5-31.7,0.5c-7.8,0-13.3-3.6-13.3-9.4
		c0-3.1,1.8-5.2,4.4-6.2c2.9,0.3,6.5,0.8,10.7,0.8c41.1,0,53.3-25,53.3-45.5c0-4.4-0.3-6.8-0.8-9.1h19.2c2.6-1.6,3.9-6.2,3.9-10.4
		c0-2.9-0.5-4.9-2.3-6.5L166.7,338.4z M111.1,366.2c0-17.7,7.8-25.5,15.9-25.5c9.4,0,16.9,9.9,16.9,30.9c0,19-6.8,26.5-14.8,26.5
		C118.6,398.2,111.1,385.9,111.1,366.2 M140.7,450.9c14.3,0,25.5,6,25.5,21.1c0,12.5-10.9,20.5-27.3,20.5
		c-20.5,0-33.8-11.4-33.8-29.1c0-3.4,1-6.8,3.6-9.1c2.3-1.8,7.5-3.4,14.6-3.4H140.7z M231.1,332.4c-10.9,0-19.2-0.3-29.9-0.8
		c-2.6,1.3-2.6,7-0.8,9.1l4.7,1.3c4.4,1.3,7,2.3,10.7,9.9c12.7,27,25.5,56.9,38,86.3c1.6,1.6,3.4,1.8,6,1.8s4.4-0.3,6-1.8
		c6-13,21.6-47.6,28.3-61.1c7.8,16.6,21.3,47.1,26.8,61.1c1.6,1.6,3.4,1.8,6,1.8s4.4-0.3,6-1.8c10.9-27.6,22.9-56.2,34.8-82.7
		c4.2-9.6,6-12.2,14.6-14l3.6-0.8c2.1-2.3,1.6-8.1-0.8-9.1c-5.7,0.5-12.5,0.8-20,0.8c-6.5,0-12.7-0.3-21.3-0.8c-2.6,1-2.6,7.3-1,9.1
		l4.4,1c4.4,1,6.5,2.3,6.5,3.6c0,1.8-0.8,5.5-2.3,10.1c-4.2,12-8.3,24.7-14.6,39.8c-5.7-12.5-13-29.4-17.7-41.9
		c-1.6-4.4-2.1-6-2.1-8.1c0-1.3,3.6-2.6,9.6-3.9l3.9-0.8c1.8-1,2.1-8.8-0.8-9.1c-16.6,0.5-29.6,0.8-46,0.8L231.1,332.4z
		 M277.2,356.6c0,2.1,0,4.4-0.8,7.8c-1.3,5.2-10.1,23.9-13.8,30.9c-4.4-8.3-14.8-31.7-18.5-40.8c-1.6-3.9-2.3-7-2.3-8.6
		c0-2.9,4.9-3.9,13.3-3.9c4.7,0,8.8,0.3,12.5,1C272.8,344.1,277.2,352.4,277.2,356.6 M471.8,366.4c1.3-26.8-11.4-37.7-33.3-37.7
		c-18.5,0-34.8,8.8-43.7,15.9c-6.2,4.9-12.5,13.3-12.5,20c0,3.6,1.6,6.5,6,6.5c4.7,0,14.8-3.1,18.7-6c2.3-1.8,3.9-4.2,4.4-8.3
		c1.8-11.2,7.3-14.8,13.5-14.8c11.2,0,15.1,12.5,15.1,22.4c0,3.1-0.3,6-0.5,8.8c-0.3,2.1-1.6,3.9-6.2,5.2
		c-7.3,2.1-14.6,4.2-24.4,7.3c-19,5.7-27,13.8-27,27c0,18.2,14,27.3,29.1,27.3c9.6,0,17.4-4.9,22.1-8.3c2.6-1.8,4.2-2.9,5.5-2.9
		s2.3,0.5,4.2,2.1c7,6,12.7,9.1,21.8,9.1c14.8,0,27-9.9,30.2-14c0.8-2.3-0.8-5.5-3.1-6c-4.2,2.3-6.8,3.1-9.9,3.1
		c-5.2,0-12.7-4.7-11.7-22.4L471.8,366.4z M435.3,410.4c-0.3,8.1-1.8,12.7-9.9,12.7c-7.3,0-13.3-7.3-13.3-15.6
		c0-12.2,10.1-16.6,21.8-18.2c1.8-0.3,2.1,0.5,1.8,4.7L435.3,410.4z M484.9,341.5c8.3,1.3,10.7,6,15.6,18.5l25,62.9
		c4.2,10.7,4.9,15.6,4.9,19c0,3.1-2.1,7.8-3.6,10.9c-2.6,5.5-4.7,10.4-7.5,14.3c-2.6,3.4-6.5,5.5-12.7,5.5h-6.2
		c-9.1,0-14.8,5.7-14.8,13.5c0,7,2.6,15.9,16.6,15.6c9.6-0.3,16.9-5.5,22.4-17.2l39.5-81.9l13.8-28.3c5.7-12,12.2-23.1,15.3-27.3
		c2.3-3.1,6.8-5.2,12-5.7l4.9-0.5c2.3-1.6,2.1-8.1-0.5-9.1c-6.8,0.5-13.5,0.8-20.3,0.8c-11.7,0-19.5-0.3-25.2-0.8
		c-2.9,0.8-3.1,7.3-0.8,9.1l5.2,1c3.1,0.5,5.7,1.8,5.7,3.6c0,2.9-4.2,13.8-9.6,26.3l-4.7,10.7c-2.6,5.7-5.2,11.7-8.1,17.2
		c-3.1-6.5-8.8-22.4-11.7-29.6c-4.9-13.3-7.8-20-7.8-23.1c0-2.3,0.5-3.4,7.8-4.9l5.2-1c2.1-1.8,1.8-8.1-0.8-9.1
		c-9.6,0.5-19.5,0.8-29.1,0.8c-13.8,0-25-0.3-34.3-0.8c-2.6,1-2.6,7.3-0.8,9.1L484.9,341.5z M242.1,473.5c8.7,0,14.9-0.1,18.7-0.3
		c-1.6,4.4-2.8,8-3.5,10.9c-0.3,1.4-0.7,3.3-1.2,5.7h-2c0.1-1.2,0.1-2.3,0.1-3.3c0-2.8-0.3-5-1-6.6c-0.7-1.6-1.8-2.8-3.2-3.5
		c-1.5-0.7-3.5-1.1-6-1.1h-2.8c-2.2,0-3.8,0.2-4.9,0.5c-1.1,0.4-1.9,1.1-2.6,2.1c-0.6,1-1.3,2.7-1.9,5l-5.8,21.7h3.4
		c3.1,0,5.6-1.1,7.7-3.2c2.1-2.1,3.7-4.7,4.9-7.8h2.2c-0.7,2.1-1.3,3.9-1.7,5.3c-0.4,1.3-0.7,2.6-1.1,4c-0.3,1.2-0.5,2.1-0.7,2.7
		c-0.8,2.7-1.6,6.7-2.7,12h-2c0.1-0.8,0.1-1.5,0.1-2c0-6.1-2.6-9.1-7.7-9.1h-2.8l-5.9,22.1c-0.6,2-0.9,3.5-0.9,4.5
		c0,0.9,0.2,1.5,0.6,2c0.4,0.4,1,0.8,1.9,0.9c0.9,0.2,2,0.2,3.6,0.2h3.4c3.4,0,6.2-0.5,8.4-1.5c2.3-1,4.3-2.7,6.1-5s3.6-5.6,5.4-9.7
		h2.1c-0.7,1.6-1.3,3.8-2,6.6c-1,3.2-1.8,7.2-2.4,11.8c-4.2-0.2-11.1-0.3-20.8-0.3c-13.3,0-23.2,0.1-29.9,0.3l0.5-1.8
		c2.2-0.1,3.9-0.3,4.9-0.7s1.9-1.1,2.6-2.2c0.7-1,1.3-2.7,1.9-5l12.1-45.6c0.5-1.9,0.8-3.4,0.8-4.4c0-0.9-0.2-1.6-0.6-2.1
		c-0.4-0.5-1-0.8-1.9-1c-0.9-0.2-2.1-0.3-3.7-0.4l0.5-1.8C218.9,473.4,228.8,473.5,242.1,473.5 M305.9,523.5l-2.2,6.7
		c-1.1,3.5-2.8,5.9-5,7.3c-2.1,1.4-4.6,2.2-7.2,2.1c-3.8,0-6.2-1.4-7.3-4.3c-0.5-1-0.7-2.2-0.7-3.8c0-1.9,0.4-4.1,1.1-6.6l0.1-0.4
		c-2.3,5.2-4.8,9-7.4,11.4c-2.6,2.4-5.7,3.6-9.3,3.6c-3.2,0-5.9-1.1-7.9-3.2s-3.1-5.4-3.1-9.7c0-4.9,1.3-10.3,3.9-16.2
		c2.6-5.9,6.2-10.8,10.9-14.9s10-6.1,15.9-6.1c2.9,0,4.7,1,5.6,3.1l4.1-15.6c0.3-1.1,0.5-2,0.5-2.6c0-1.2-0.5-2.1-1.4-2.7
		c-1-0.6-2.6-0.8-4.8-0.8l0.6-1.9c4.2,0,8.1-0.4,11.5-1c3.4-0.6,6.8-1.6,10-2.8l-18.1,65.3c-0.3,1-0.5,1.9-0.5,2.5
		c0,1.4,0.6,2.1,1.8,2.1c0.9,0,1.8-0.5,2.8-1.6s1.9-2.9,2.9-5.7l1.6-4.4L305.9,523.5z M288.9,491.7c-2.6,0-5.4,1.9-8.2,5.6
		c-2.9,3.8-5.3,8.5-7.2,14.3c-1.9,5.8-2.9,11.5-2.9,17.1c0,2.2,0.2,3.8,0.7,4.8s1.2,1.6,2.3,1.5c1.2,0,2.6-0.9,4.3-2.7
		c1.7-1.8,3.4-4.4,5.2-7.9c1.8-3.5,3.4-7.5,4.9-12.2l4.6-17.4C292,492.7,290.8,491.7,288.9,491.7 M327.3,471.3
		c0.8-1.3,1.9-2.3,3.4-3c1.4-0.7,3-1,4.8-1c2.2,0,3.9,0.5,5.1,1.5s1.8,2.4,1.8,4.2c0,1.6-0.4,3.1-1.3,4.4c-0.9,1.3-2,2.3-3.5,3
		c-1.5,0.7-3.1,1.1-4.8,1.1c-2.1,0-3.7-0.5-4.9-1.5c-1.2-1-1.8-2.3-1.8-4C326.1,474.2,326.5,472.6,327.3,471.3 M323.2,495.8
		c0-1.2-0.5-1.8-1.6-1.8c-1.1,0-2.1,0.6-3.1,1.7c-0.9,1.1-1.9,3-2.8,5.6l-1.8,4.7h-1.8l2.6-7c2.2-6.3,6.5-9.4,12.8-9.4
		c2.8,0,4.9,0.7,6.2,2s1.9,3.2,1.9,5.4c0,1.7-0.3,3.5-1,5.4l-9.7,28.2c-0.4,1.1-0.5,2-0.5,2.7c0,1.3,0.6,1.9,1.8,1.9
		c0.9,0,1.9-0.5,2.8-1.5c0.9-1,1.9-2.9,3-5.7l1.6-4.4h1.8l-2.4,6.7c-2.2,6.3-6.3,9.5-12.4,9.5c-5.6,0-8.4-2.5-8.4-7.6
		c0-2.1,0.4-4.4,1.3-7.1l9-26.4C323,497.5,323.2,496.6,323.2,495.8 M354.3,532.4c0,1.8,0.9,2.7,2.7,2.7c1.3,0,2.7-0.7,3.9-2
		c1.3-1.3,2.4-3.3,3.4-5.9l1.4-3.8h1.8l-1.8,5.3c-2.5,7.2-7.1,10.9-13.8,10.9c-3.1,0-5.5-0.8-7-2.4c-1.6-1.6-2.4-3.9-2.4-6.7
		c0-1.6,0.3-3.4,0.9-5.5l9.3-32.1h-8.4l0.5-1.8h8.4l4-14c5.3-0.1,9.7-0.5,13.3-1.3l-4.4,15.3h10.4l-0.3,1.8h-10.6l-10.9,37.6
		C354.4,531.2,354.3,531.8,354.3,532.4 M376.5,508.8c2.3-5.4,5.7-10,10.2-13.7c4.5-3.7,9.9-5.5,16.2-5.5c4.8,0,8.5,1.3,11.1,3.9
		c2.6,2.6,3.9,6.3,3.9,11.3c0,5.1-1.1,10.3-3.4,15.7c-2.3,5.4-5.7,10-10.2,13.7c-4.5,3.7-9.9,5.5-16.2,5.5c-4.8,0-8.4-1.3-11-3.9
		c-2.6-2.6-3.9-6.4-3.9-11.3C373.1,519.4,374.2,514.2,376.5,508.8 M394.9,497.9c-2.7,4.4-4.9,9.7-6.8,16s-2.8,12.2-2.8,17.6
		c0,2.2,0.3,3.8,0.8,4.8c0.5,1,1.3,1.5,2.4,1.5c2.2,0,4.7-2.1,7.4-6.4c2.7-4.2,4.9-9.5,6.8-15.8c1.8-6.3,2.8-12.2,2.8-17.9
		c0-2.4-0.2-4.1-0.7-5.1c-0.5-0.9-1.2-1.4-2.3-1.4C400.1,491.3,397.6,493.5,394.9,497.9 M448.1,496.1c1.5-2.3,3.2-4,4.9-5
		c1.7-1,3.7-1.5,6-1.5c2.3,0,4.2,0.7,5.5,2.1c1.3,1.4,2,3.2,2,5.3c0,1.7-0.4,3.3-1.1,4.8c-0.8,1.5-1.8,2.6-3.2,3.5
		c-1.3,0.9-2.9,1.3-4.4,1.3c-1.8,0-3.2-0.5-4.2-1.4s-1.5-2.3-1.5-4.1c0-1.4,0.3-2.8,1-4.1c0.7-1.3,1.6-2.4,2.8-3.3
		c1.1-0.9,2.5-1.5,3.9-1.8c-0.7-0.2-1.1-0.3-1.2-0.3c-3.2,0-6.5,2.3-9.7,7s-6.6,13-10,25l-3.8,14.9H422l11.2-39.8
		c0.3-1.2,0.5-2.2,0.5-2.8c0-1.2-0.5-1.8-1.5-1.8c-1.1,0-2.2,0.5-3.1,1.6c-0.9,1.1-1.9,3-2.9,5.6l-1.8,4.7h-1.8l2.5-7
		c2.3-6.3,6.5-9.4,12.7-9.4c4.7,0,7.1,2.5,7.1,7.4c0,1.7-0.2,3.5-0.7,5.4l-0.8,3.2C445,501.6,446.5,498.4,448.1,496.1"/>
</g>
<g>
	<path class="st1" d="M14,14.7c1.1,0,1.1,0,1.1,0.7v3.7c0,2.4-0.1,2.6-1.3,2.8L13.2,22c-0.2,0.2-0.2,0.7,0,0.9
		c1.2-0.1,2.5-0.1,3.8-0.1c1.2,0,2.4,0,3.7,0.1c0.2-0.2,0.2-0.7,0-0.9l-0.6-0.1c-1.2-0.2-1.3-0.4-1.3-2.8V9.6c0-2.4,0.2-2.6,1.3-2.8
		l0.5-0.1c0.2-0.2,0.2-0.7,0-0.9c-1.2,0.1-2.4,0.1-3.6,0.1c-1.2,0-2.5,0-3.9-0.1c-0.2,0.2-0.2,0.7,0,0.9l0.7,0.1
		c1.2,0.2,1.3,0.4,1.3,2.8v3c0,0.7,0,0.8-1.1,0.8H8.7c-1,0-1.1,0-1.1-0.8v-3c0-2.4,0.2-2.6,1.3-2.8l0.5-0.1c0.2-0.2,0.2-0.7,0-0.9
		C8.3,5.9,7,5.9,5.8,5.9c-1.2,0-2.6,0-3.8-0.1C1.8,6,1.8,6.6,2,6.7l0.6,0.1C3.8,7,3.9,7.2,3.9,9.6v9.5c0,2.4-0.1,2.6-1.3,2.8L2,22
		c-0.2,0.2-0.2,0.7,0,0.9c1.3-0.1,2.6-0.1,3.8-0.1c1.2,0,2.4,0,3.9,0.1c0.2-0.2,0.2-0.7,0-0.9l-0.8-0.1c-1.2-0.2-1.3-0.4-1.3-2.8
		v-3.7c0-0.7,0-0.7,1.1-0.7H14z"/>
	<rect x="24" y="1.5" class="st1" width="2.2" height="24.9"/>
</g>
</svg>
