<?xml version="1.0" encoding="utf-8"?>
<!-- Generator: Adobe Illustrator 24.3.0, SVG Export Plug-In . SVG Version: 6.00 Build 0)  -->
<svg version="1.1" id="Layer_1" xmlns="http://www.w3.org/2000/svg" xmlns:xlink="http://www.w3.org/1999/xlink" x="0px" y="0px"
	 viewBox="0 0 200 200" style="enable-background:new 0 0 200 200;" xml:space="preserve">
<style type="text/css">
	.st0{fill:url(#SVGID_1_);}
	.st1{fill:#FFFFFF;}
	.st2{fill:url(#SVGID_2_);}
</style>
<g>
	
		<linearGradient id="SVGID_1_" gradientUnits="userSpaceOnUse" x1="58.5224" y1="39.4576" x2="151.9651" y2="141.1862" gradientTransform="matrix(1 0 0 -1 0 202)">
		<stop  offset="0" style="stop-color:#FF61D3"/>
		<stop  offset="0.5" style="stop-color:#B318FF"/>
		<stop  offset="1" style="stop-color:#00F0FF"/>
	</linearGradient>
	<path class="st0" d="M181.3,102.5l-6.7-3.6c-2.9-14.4-9.9-27.3-19.8-37.4c-5.5-5.8-12-10.6-19.1-14.4v-4.2c0-2.2-4.2-4.2-11.1-5.7
		c-6.4-1.4-15.1-2.2-24.7-2.2c-3.4,0-6.6,0.1-9.8,0.3c-15,0.9-26,4-26,7.5v4.2c-4.8,2.6-9.2,5.6-13.4,9.1
		c-12.8,10.9-22,25.8-25.5,42.8l-6.7,3.6c-3,1.6-4.7,5.1-4.1,8.4l6.1,34.2c0.6,3.5,3.4,6.1,6.9,6.5l10.2,1.2
		c5.5,6,12.6,10.7,20.7,14.1c10.9,4.6,23.6,7.1,37.4,7.4c1.4,0.1,2.8,0.1,4.1,0.1c10.5,0,20.5-1.1,29.6-3.5
		c12-3.1,22.4-8.3,30.3-15.8c0.9-0.9,1.8-1.8,2.7-2.8l9.6-0.9c3.6-0.3,6.5-3,7.1-6.6l6-34C186,107.5,184.3,104.1,181.3,102.5z"/>
	<path class="st1" d="M100,155.8c-18.1,0-33-3.7-43-10.9c-9.7-6.9-14.5-17-14.5-30.7c0-31.7,25.8-57.5,57.5-57.5
		c31.7,0,57.5,25.8,57.5,57.5c0,13.7-4.7,23.7-14.5,30.7C133,152,118.2,155.8,100,155.8z"/>
	<linearGradient id="SVGID_2_" gradientUnits="userSpaceOnUse" x1="73.2635" y1="131.9269" x2="126.7362" y2="131.9269">
		<stop  offset="0" style="stop-color:#FF61D3"/>
		<stop  offset="0.5" style="stop-color:#B318FF"/>
		<stop  offset="1" style="stop-color:#00F0FF"/>
	</linearGradient>
	<path class="st2" d="M100,142.5c-11.3,0-21.8-6.6-26.7-16.8l9.1-4.3c3.3,6.8,10.1,11.1,17.6,11.1c7.6,0,14.3-4.2,17.6-11.1l9.1,4.3
		C121.8,135.9,111.3,142.5,100,142.5z"/>
</g>
</svg>
