<?xml version="1.0" encoding="UTF-8"?>
<!DOCTYPE svg PUBLIC "-//W3C//DTD SVG 1.1//EN" "http://www.w3.org/Graphics/SVG/1.1/DTD/svg11.dtd">
<svg xmlns="http://www.w3.org/2000/svg" version="1.1" width="28px" height="28px" style="shape-rendering:geometricPrecision; text-rendering:geometricPrecision; image-rendering:optimizeQuality; fill-rule:evenodd; clip-rule:evenodd" xmlns:xlink="http://www.w3.org/1999/xlink">
<g><path style="opacity:0.924" fill="#6e3fc2" d="M 14.5,-0.5 C 16.1667,-0.5 17.8333,-0.5 19.5,-0.5C 19.4081,3.68408 17.7414,7.01741 14.5,9.5C 13.8333,9.5 13.1667,9.5 12.5,9.5C 11.5,8.83333 10.5,8.16667 9.5,7.5C 12.7969,5.86652 14.4636,3.19985 14.5,-0.5 Z"/></g>
<g><path style="opacity:1" fill="#3108b9" d="M 9.5,7.5 C 10.5,8.16667 11.5,8.83333 12.5,9.5C 11.2196,10.9313 9.55292,11.5979 7.5,11.5C 6.56552,10.4324 6.23219,9.09903 6.5,7.5C 7.5,7.5 8.5,7.5 9.5,7.5 Z"/></g>
<g><path style="opacity:0.888" fill="#6411ef" d="M 12.5,9.5 C 13.1667,9.5 13.8333,9.5 14.5,9.5C 17.8922,12.3286 19.5589,15.9953 19.5,20.5C 15.6246,21.1258 13.7913,19.4592 14,15.5C 12.2082,13.372 10.0416,12.0387 7.5,11.5C 9.55292,11.5979 11.2196,10.9313 12.5,9.5 Z"/></g>
<g><path style="opacity:0.891" fill="#e73e8b" d="M 24.5,27.5 C 17.1667,27.5 9.83333,27.5 2.5,27.5C 2.5,26.1667 2.5,24.8333 2.5,23.5C 9.83333,23.5 17.1667,23.5 24.5,23.5C 24.5,24.8333 24.5,26.1667 24.5,27.5 Z"/></g>
</svg>
