<?xml version="1.0" encoding="utf-8"?>
<!-- Generator: Adobe Illustrator 24.3.0, SVG Export Plug-In . SVG Version: 6.00 Build 0)  -->
<svg version="1.1" id="Layer_1" xmlns="http://www.w3.org/2000/svg" xmlns:xlink="http://www.w3.org/1999/xlink" x="0px" y="0px"
	 viewBox="0 0 512 512" style="enable-background:new 0 0 512 512;" xml:space="preserve">
<style type="text/css">
	.st0{fill:#12100E;}
	.st1{fill:#FFFFFF;}
</style>
<path class="st0" d="M76.8,0h358.4C477.6,0,512,34.4,512,76.8v358.4c0,42.4-34.4,76.8-76.8,76.8H76.8C34.4,512,0,477.6,0,435.2V76.8
	C0,34.4,34.4,0,76.8,0z"/>
<path class="st1" d="M125,173c0-4-2-9-5-11l-31-38v-6h98l75,166l67-166h93v6l-27,26c-2,1-3,4-3,7v190c0,3,1,6,3,8l27,25v6H289v-6
	l27-26c3-3,3-4,3-8V193l-76,192h-10l-88-192v129c-1,5,1,11,5,15l35,43v5H85v-5l35-43c4-4,6-10,5-15V173z"/>
</svg>
