<?xml version="1.0" encoding="utf-8"?>
<!-- Generator: Adobe Illustrator 24.3.0, SVG Export Plug-In . SVG Version: 6.00 Build 0)  -->
<svg version="1.1" id="Layer_1" xmlns="http://www.w3.org/2000/svg" xmlns:xlink="http://www.w3.org/1999/xlink" x="0px" y="0px"
	 viewBox="0 0 64 64" style="enable-background:new 0 0 64 64;" xml:space="preserve">
<style type="text/css">
	.st0{fill:#8B15E7;}
</style>
<g>
	<path class="st0" d="M50,22.8c-0.1,0-0.2,0-0.3,0c-3.2,1-8.1-0.5-9.8,2c0,0.1,0,0.2,0,0.3c0,0.1,0.1,0.2,0.2,0.2
		c1.5,0.4,2.5,0.4,3.1,1.1v13.7l-10.8-16c-0.2-0.3-0.5-0.4-0.8-0.4c-1.4,0.1-5.1,0.3-6.5,0.4c-2.9,0.2-3.1,2.7-3.1,2.7l3,0.3v21.3
		c-1.6,0.3-2.7,1-3,2.4c0,0.1,0,0.2,0.1,0.4c0.1,0,0.2,0,0.3,0c3.2-1,8.1,0.5,9.8-2c0-0.1,0-0.2,0-0.3c0-0.1-0.1-0.2-0.2-0.2
		c-1.5-0.4-2.5-0.4-3.1-1.1V31.3l11.3,17.8c1,1.5,2.9,2,4.4,1.2c0,0,0.7-0.2,1.3-0.5c0.7-0.3,1.2-0.9,1.2-1.7V25.5
		c1.6-0.3,2.7-1,3-2.4C50.1,23,50.1,22.8,50,22.8z"/>
	<path class="st0" d="M56.6,12c-3-1.8-8.9-5.5-10.7-6.7c-1.5-1-3.2-1.4-5-1.3c-6,0.4-23.5,1.5-30.9,2c-3,0.2-5.2,2.6-5.2,5.5v34.8
		c0,0.5,0.1,0.9,0.4,1.3c0,0,8,10.4,8.5,10.8c1.2,1.1,2.7,1.7,4.3,1.6c8.4-0.4,27.5-1.4,35.6-1.8c3.1-0.2,5.5-2.7,5.6-5.8l0.1-35.5
		C59.3,14.9,58.3,13.1,56.6,12z M10.8,11c-0.3-0.2-0.4-0.4-0.3-0.7c0-0.1,0.2-0.3,0.8-0.4C16.4,9.4,41.1,8,41.1,8
		c0.9,0,1.8,0.2,2.4,0.8c1.1,0.7,3.4,2.1,5.8,3.6c0.1,0.1,0.2,0.2,0.2,0.3c0,0.2-0.2,0.4-0.4,0.4c-5.4,0.3-27.1,1.5-32.2,1.8
		c-0.7,0-1.3-0.2-1.9-0.6C13.9,13.4,11.8,11.8,10.8,11z M55.1,52.4c0,1-0.8,1.8-1.7,1.8L17.8,56c-0.5,0-1-0.2-1.4-0.5
		c-0.4-0.3-0.6-0.8-0.6-1.3V20.7c0-1,0.8-1.8,1.7-1.8l35.7-2.1c0.5,0,1,0.1,1.4,0.5c0.4,0.4,0.6,0.8,0.6,1.4L55.1,52.4z"/>
</g>
</svg>
