<?xml version="1.0" encoding="utf-8"?>
<!-- Generator: Adobe Illustrator 24.3.0, SVG Export Plug-In . SVG Version: 6.00 Build 0)  -->
<svg version="1.1" id="Layer_1" xmlns="http://www.w3.org/2000/svg" xmlns:xlink="http://www.w3.org/1999/xlink" x="0px" y="0px"
	 viewBox="0 0 28 28" style="enable-background:new 0 0 28 28;" xml:space="preserve">
<style type="text/css">
	.st0{opacity:0.983;fill-rule:evenodd;clip-rule:evenodd;fill:#FAC2C3;enable-background:new    ;}
	.st1{fill:#232E28;}
</style>
<g>
	<path class="st0" d="M24.7,26.6H3.3c-1.1,0-2-0.9-2-2V3.3c0-1.1,0.9-2,2-2h21.3c1.1,0,2,0.9,2,2v21.3
		C26.6,25.8,25.8,26.6,24.7,26.6z"/>
	<g>
		<path class="st1" d="M5.9,6.3C9.5,7.1,12,9.1,14,12.1c1.9-3,4.5-5.1,8.1-5.9c0,0.2,0.1,0.4,0.1,0.6c0,2.8,0,5.6,0,8.4
			c0,0.4-0.1,0.6-0.5,0.7c-3,0.8-5.3,2.7-6.9,5.3c-0.4,0.7-1.1,0.7-1.5,0c-1.6-2.6-3.9-4.5-6.9-5.3c-0.3-0.1-0.5-0.2-0.5-0.6
			c0-2.9,0-5.8,0-8.6C5.9,6.6,5.9,6.5,5.9,6.3z"/>
	</g>
</g>
</svg>
