<svg xmlns="http://www.w3.org/2000/svg" viewBox="0 0 256 256" width="288" height="288"><path fill="#d8ecff" fill-rule="evenodd" d="M53.047 53.047C42.421 63.671 38.584 78.513 41.536 92.184 29.78 99.766 22 112.974 22 128c0 15.025 7.782 28.234 19.536 35.815-2.951 13.671.886 28.513 11.511 39.139 10.625 10.624 25.467 14.461 39.138 11.511C99.765 226.219 112.974 234 128 234s28.234-7.781 35.815-19.535c13.671 2.95 28.513-.887 39.139-11.511 10.624-10.626 14.461-25.468 11.511-39.139C226.219 156.234 234 143.025 234 128c0-15.026-7.781-28.234-19.535-35.815 2.95-13.671-.887-28.514-11.511-39.139-10.626-10.624-25.468-14.461-39.139-11.511C156.234 29.782 143.025 22 128 22c-15.026 0-28.234 7.782-35.815 19.536-13.671-2.951-28.513.886-39.138 11.511" clip-rule="evenodd" class="svgShape colord8ecff-0 selectable"/><path fill="#d8ecff" fill-rule="evenodd" d="M41.536 163.815C29.782 156.234 22 143.025 22 128c0-15.026 7.78-28.234 19.536-35.816-2.952-13.671.885-28.513 11.511-39.137 10.625-10.625 25.467-14.462 39.138-11.511C99.765 29.782 112.974 22 128 22s28.234 7.782 35.815 19.535c13.671-2.95 28.513.887 39.139 11.511 10.624 10.625 14.461 25.468 11.511 39.139C226.219 99.765 234 112.974 234 128s-7.781 28.234-19.535 35.815c2.95 13.671-.887 28.513-11.511 39.139-10.626 10.624-25.468 14.461-39.139 11.511C156.234 226.219 143.025 234 128 234c-15.026 0-28.234-7.781-35.815-19.535-13.671 2.95-28.513-.887-39.138-11.511-10.625-10.626-14.462-25.468-11.511-39.139" clip-rule="evenodd" class="svgShape colord8ecff-1 selectable"/><g clip-path="url(#a)"><path fill="#ff622d" class="svgShape colorff622d-3 selectable" d="M53 53h150v150H53z"/><path fill="#fff" d="M171.5 127.543c0 2.218-1.109 2.609-3.978 2.609-3 0-3.522-.522-3.848-2.739-.587-5.739-4.5-10.696-11.022-11.152-2.087-.196-2.609-.978-2.609-3.522 0-2.413.327-3.522 2.218-3.522 11.413-.065 19.239 9 19.239 18.326m16.5 0C188 110.261 176.326 92 149.261 92H95.587c-1.109 0-1.76.587-1.76 1.565 0 .522.39 1.044.782 1.305 1.956 1.565 4.826 3.26 8.674 5.152 3.717 1.891 6.587 3.065 9.521 4.239 1.174.522 1.696 1.043 1.696 1.761 0 .913-.652 1.5-2.022 1.5H69.891c-1.239 0-1.891.782-1.891 1.63 0 .718.26 1.239.848 1.891 3.456 3.587 8.935 7.957 17.022 12.979 7.043 4.435 15.717 9.13 22.63 12.456 1.174.587 1.565 1.174 1.565 1.892 0 .782-.652 1.434-1.956 1.434H88.544c-1.11 0-1.696.587-1.696 1.5 0 .522.391 1.109.913 1.631 4.435 4.043 11.543 8.413 21 12.456 12.652 5.348 25.5 8.609 39.913 8.609C176 164 188 143.522 188 127.543m-35.674 24.522c-13.435 0-24.587-10.956-24.587-24.522 0-13.434 11.152-24.195 24.587-24.195 13.761 0 24.522 10.761 24.522 24.195-.065 13.566-10.761 24.522-24.522 24.522" class="svgShape colorffffff-4 selectable"/></g><defs><clipPath id="a"><rect width="150" height="150" x="53" y="53" fill="#fff" rx="75" class="svgShape colorffffff-7 selectable"/></clipPath></defs></svg>