<?xml version="1.0" encoding="utf-8"?>
<!-- Generator: Adobe Illustrator 24.3.0, SVG Export Plug-In . SVG Version: 6.00 Build 0)  -->
<svg version="1.1" id="Layer_1" xmlns="http://www.w3.org/2000/svg" xmlns:xlink="http://www.w3.org/1999/xlink" x="0px" y="0px"
	 viewBox="0 0 28 28" style="enable-background:new 0 0 28 28;" xml:space="preserve">
<style type="text/css">
	.st0{fill-rule:evenodd;clip-rule:evenodd;fill:#FF5E29;}
</style>
<path class="st0" d="M24.5,1H3.5C2.2,1,1,2.2,1,3.5v20.9C1,25.8,2.2,27,3.5,27h20.9c1.4,0,2.5-1.1,2.5-2.5V3.5C27,2.2,25.8,1,24.5,1
	z M19.3,15.5c0,3.1-1.9,5.2-5.3,5.2s-5.3-2.1-5.3-5.2V7.3h2.7v8.2c0,1.7,1,2.7,2.7,2.7c1.7,0,2.7-1.1,2.7-2.7V7.3h2.7V15.5z"/>
</svg>
