<?xml version="1.0" encoding="utf-8"?>
<!-- Generator: Adobe Illustrator 24.3.0, SVG Export Plug-In . SVG Version: 6.00 Build 0)  -->
<svg version="1.1" id="Layer_1" xmlns="http://www.w3.org/2000/svg" xmlns:xlink="http://www.w3.org/1999/xlink" x="0px" y="0px"
	 viewBox="0 0 200 200" style="enable-background:new 0 0 200 200;" xml:space="preserve">
<style type="text/css">
	.st0{fill:#BF3078;}
	.st1{fill:#802050;}
	.st2{fill:#26134D;}
</style>
<g>
	<path class="st0" d="M164.7,68.2c-1.2,0-2.6,0-3.8,0.2l-6.9,12c3.1-1.9,6.9-2.8,10.7-2.8c12.3,0,22.5,10.1,22.5,22.4
		s-10.2,22.4-22.5,22.4c-12.3,0-22.3-9.9-22.5-22.2l-7.1,12c4.7,11.6,16.4,19.6,29.4,19.6c17.5,0,32-14.4,32-31.8
		C196.7,82.5,182.2,68.2,164.7,68.2z"/>
	<path class="st1" d="M68,101.4l5.5-9.4l12.3,21L100,88.7l14.2,24.3l24.4-41.3c1.2-2.1,3.6-3.5,6.2-3.5h6.9l-37.4,63.7L100,107.5
		l-14.2,24.3L68,101.4L68,101.4z"/>
	<path class="st2" d="M78.2,68.2l-37.4,63.7L3.5,68.2h6.9c2.6,0,5,1.4,6.2,3.5l24.2,41.5l24.4-41.5c1.2-2.1,3.6-3.5,6.2-3.5H78.2z"
		/>
</g>
</svg>
