<svg viewBox="0 0 512 512" xmlns="http://www.w3.org/2000/svg" fill-rule="evenodd" clip-rule="evenodd" stroke-linejoin="round" stroke-miterlimit="2"><path d="M170.797 103.091h271.066l3.868-17.216c5.633-26.718-14.568-51.964-41.874-51.964H140.505c-34.138 0-63.525 23.754-70.967 57.01L11.941 356.94c-5.634 26.718 14.546 51.964 41.874 51.964h16.039l58.775-271.97c4.456-19.591 21.967-33.844 42.168-33.844z" fill="#00cdfa" fill-rule="nonzero"/><path d="M23.5 4.417h-.763l-2.796 12.937a2.041 2.041 0 01-1.992 1.61H5.054l-.184.819a2.043 2.043 0 001.992 2.472H19.39a3.46 3.46 0 003.375-2.712l2.741-12.641A2.058 2.058 0 0023.5 4.417z" fill="url(#prefix___Linear1)" fill-rule="nonzero" transform="matrix(21.02101 0 0 21.02101 -36.092 10.263)"/><path d="M383.067 375.061l58.796-271.949H170.797c-20.201 0-37.712 13.937-41.874 33.844l-58.775 271.95h271.066c20.18 0 37.417-14.253 41.853-33.845z" fill="#3a00ff" fill-rule="nonzero"/><path d="M158.331 305.124l-19.633-101.973h30.774l9.48 63.631 31.091-63.63h20.727l12.15 63.63 28.525-63.63h30.775L252.4 305.123h-25.75l-12.256-59.741-29.997 59.741h-26.066zM291.415 288.623l16.06-18.604c7.232 8.913 16.376 13.475 27.643 13.475 7.231 0 13.58-3.006 14.589-8.01.336-3.026-1.682-5.57-6.349-7.82-1.114-.546-3.573-1.429-7.462-2.774-7.694-3.006-11.036-4.12-17.72-8.366-9.376-5.781-13.833-13.811-12.277-27.643 3.027-18.835 20.285-29.303 42.126-29.303 14.946 0 27.201 4.898 37.123 14.588l-15.829 18.52c-6.58-6.138-14.147-9.144-22.724-9.144-6.915 0-11.036 1.997-11.94 6.348-.777 3.574 1.115 6.58 5.571 8.577 1.45.778 4.478 2.018 8.934 3.678 4.456 1.682 8.24 3.133 11.351 4.92 10.048 4.225 21.862 14.146 18.289 29.303-1.682 9.922-6.685 17.72-15.156 23.29-8.367 5.571-18.499 8.367-29.871 8.367-18.289-.105-32.436-6.474-42.358-19.402z" fill="#fff" fill-rule="nonzero"/><defs><linearGradient id="prefix___Linear1" x1="0" y1="0" x2="1" y2="0" gradientUnits="userSpaceOnUse" gradientTransform="translate(4.825 13.338) scale(20.7201)"><stop offset="0" stop-color="#ffb3ff"/><stop offset=".53" stop-color="#ff76df"/><stop offset="1" stop-color="#c239c6"/></linearGradient></defs></svg>