<?xml version="1.0" encoding="utf-8"?>
<!-- Generator: Adobe Illustrator 24.3.0, SVG Export Plug-In . SVG Version: 6.00 Build 0)  -->
<svg version="1.1" id="Yoast--Streamline-Simple-Icons"
	 xmlns="http://www.w3.org/2000/svg" xmlns:xlink="http://www.w3.org/1999/xlink" x="0px" y="0px" viewBox="0 0 24 24"
	 style="enable-background:new 0 0 24 24;" xml:space="preserve">
<style type="text/css">
	.st0{fill:#78B027;}
	.st1{fill:#A2276A;}
</style>
<desc>Yoast Streamline Icon: https://streamlinehq.com</desc>
<path class="st0" d="M16.6,0l-5.2,14.5L8.8,6.4H5.9l3.8,9.8c0.4,0.9,0.4,2,0,2.9c-0.4,1-1.1,2.2-3,2.5V24c1.5-0.1,2.7-0.6,3.7-1.6
	c1-1,1.9-2.7,2.8-5.1L19.7,0H16.6z"/>
<path class="st1" d="M5.4,3.3c-2,0-3.7,1.7-3.7,3.7v10.4c0,2,1.7,3.7,3.7,3.7h0.8l0.3,0c1.8-0.2,2.4-1.2,2.7-2.2
	c0.3-0.8,0.3-1.7,0-2.5L5,5.7h4.2l2.2,6.8l3.3-9.3L5.4,3.3z"/>
<path class="st1" d="M19.1,3.4l-5.3,14.2c-0.5,1.4-1,2.5-1.6,3.5h10V7C22.3,5.1,21,3.6,19.1,3.4L19.1,3.4z"/>
</svg>
