<svg version="1.0" xmlns="http://www.w3.org/2000/svg" viewBox="0 0 600 450" xml:space="preserve"><path d="M80 213h44.3v12.4l-16.7 1.3c-26.9 2-35.3 9.1-35.3 29.1v4c0 14.6 10.2 23.4 26 23.4 12.4 0 19.6-2.9 28.4-11.9h1.5v9.5H146v-87.3H80zm44.3 42.1c-5.5 5.5-13.7 9.1-20.5 9.1-7.3 0-10.4-2.7-10.2-8.8.2-8.4 3.3-10.4 17.4-11.7l13.4-1.3v12.7z" style="fill:#f18618"/><path d="M183.2 193.6h34.2v17.8h18.7v69.5h-21.8v-67.7h-31.1v67.7h-21.8V167.4h21.8zm318.4 35.2-13.2-1.3c-7.3-.7-9.1-2.6-9.1-8.4 0-6.6 2.6-8.2 12.8-8.2 9.1 0 11.7 1.5 13 7.7h20.5c-.5-20.9-7-26.2-32.4-26.2-27.8 0-34.8 5.3-34.8 26.7 0 19.6 5.1 24.9 25.8 26.9l10.8 1c9.7.9 12.1 2.7 12.1 8.6 0 7.1-2.9 9-14.8 9-10.4 0-13.2-1.6-13.7-8.4h-20.7c.5 21.6 7.1 27.1 33.5 27.1 29.3 0 36.6-5.9 36.6-29.7 0-17.7-5.3-22.8-26.4-24.8m-112.1 1.6c0-28.2-9.7-38.1-37.5-38.1-27.5 0-38.2 12.8-38.2 44.7 0 34.8 9.5 46.3 40.3 46.3 22.1 0 31.5-6.8 34.6-25.8h-21c-2.4 5.9-4.9 7.2-13.9 7.2-13.5 0-17-3.8-17.8-20.1h52.2c.8-4.8 1.2-9.5 1.3-14.2m-53.4-3.1c.2-12.3 5.1-16.8 16.8-16.8 11.2 0 15.7 4.6 16.1 16.8zm66.1-29.8V281H424v-68.6h26.2v-18.7H424v-2.4c.2-5.1 1.5-6.6 5.7-6.6h23.8v-17.2h-25.6c-17.5-.1-25.7 5.3-25.7 30m-128.4 83.4H252v-87.3h54.2v20.5h-32.4z" style="fill-rule:evenodd;clip-rule:evenodd;fill:#2e53a0"/></svg>