<svg width="100" height="100" viewBox="0 0 24 24" xmlns="http://www.w3.org/2000/svg"><path fill="#fff" d="M23.784 18.24q.43.213 0 .374l-11.357 5.223a.9.9 0 0 1-.854 0L.213 18.614q-.426-.16 0-.375l2.722-1.23q.427-.21.852 0l7.787 3.573q.428.21.854 0l7.787-3.574a.92.92 0 0 1 .852 0l2.717 1.23zm0-6.454q.43.215 0 .426L12.427 17.44q-.43.156-.854 0L.213 12.21q-.426-.214 0-.426l2.722-1.227a.9.9 0 0 1 .852 0l7.787 3.57q.428.216.854 0l7.787-3.57a.9.9 0 0 1 .852 0l2.717 1.226zM.214 5.76q-.427-.214 0-.375L11.574.16c.283-.14.57-.14.852 0l11.358 5.23q.43.16 0 .375l-11.357 5.223a.9.9 0 0 1-.854 0L.213 5.76z"/></svg>