<svg viewBox="0 0 512 512" xmlns="http://www.w3.org/2000/svg" fill-rule="evenodd" clip-rule="evenodd" stroke-linejoin="round" stroke-miterlimit="2"><g transform="translate(-443.84 -163.205)scale(8.33333)"><clipPath id="a"><path d="M113.754 50c0 16.557-13.443 30-30 30s-30-13.443-30-30 13.442-30 30-30c16.557 0 30 13.443 30 30"/></clipPath><g clip-path="url(#a)"><path d="M83.754 20c16.557 0 30 13.443 30 30s-13.443 30-30 30-30-13.443-30-30 13.443-30 30-30m0 23.607-8.87 9.802h17.74z" fill="url(#b)"/><path d="m115.258-18.959 49.158 54.814-39.209 35.163-49.158-54.815z" fill="url(#c)" fill-rule="nonzero"/><path d="M66.097 121.749 16.94 66.935l39.209-35.163 49.157 54.814z" fill="url(#d)" fill-rule="nonzero"/><path d="M74.914 112.73 25.756 57.916l39.209-35.163 49.158 54.815z" fill="url(#e)" fill-rule="nonzero"/><path fill="url(#f)" fill-rule="nonzero" d="M45.25 75.627h73.628v52.667H45.25z"/><path d="m109.181 127.304 49.737-54.29-38.833-35.577-49.738 54.289z" fill="url(#g)" fill-rule="nonzero"/><path d="M58.083-24.565 8.346 29.725l38.833 35.577 49.737-54.289z" fill="url(#h)" fill-rule="nonzero"/><path d="M66.894-15.754 17.156 38.535 55.99 74.113l49.737-54.29z" fill="url(#i)" fill-rule="nonzero"/><path fill="url(#j)" fill-rule="nonzero" d="M52.906 53.412h62.185v11.683H52.906z"/></g></g><defs><linearGradient id="b" x1="0" y1="0" x2="1" y2="0" gradientUnits="userSpaceOnUse" gradientTransform="rotate(41.223 -17.155 105.75)scale(50.7472)"><stop offset="0" stop-color="#01bb99"/><stop offset="1" stop-color="#206ed4"/></linearGradient><linearGradient id="c" x1="0" y1="0" x2="1" y2="0" gradientUnits="userSpaceOnUse" gradientTransform="rotate(253.071 75.332 -15.535)scale(36.4266)"><stop offset="0" stop-color="#094fcf" stop-opacity=".4"/><stop offset=".53" stop-color="#094fcf" stop-opacity=".11"/><stop offset="1" stop-color="#094fcf" stop-opacity="0"/></linearGradient><linearGradient id="d" x1="0" y1="0" x2="1" y2="0" gradientUnits="userSpaceOnUse" gradientTransform="rotate(137.536 28.472 44.255)scale(11.6282)"><stop offset="0" stop-color="#094fcf" stop-opacity=".1"/><stop offset=".53" stop-color="#094fcf" stop-opacity=".03"/><stop offset="1" stop-color="#094fcf" stop-opacity="0"/></linearGradient><linearGradient id="e" x1="0" y1="0" x2="1" y2="0" gradientUnits="userSpaceOnUse" gradientTransform="rotate(135.785 34.236 42.264)scale(11.3082)"><stop offset="0" stop-color="#094fcf" stop-opacity=".1"/><stop offset=".53" stop-color="#094fcf" stop-opacity=".03"/><stop offset="1" stop-color="#094fcf" stop-opacity="0"/></linearGradient><linearGradient id="f" x1="0" y1="0" x2="1" y2="0" gradientUnits="userSpaceOnUse" gradientTransform="rotate(89.06 1.853 78.955)scale(26.803)"><stop offset="0" stop-color="#5994fe" stop-opacity=".2"/><stop offset="1" stop-color="#5994fe" stop-opacity="0"/></linearGradient><linearGradient id="g" x1="0" y1="0" x2="1" y2="0" gradientUnits="userSpaceOnUse" gradientTransform="rotate(42.259 -33.685 156.887)scale(11.5716)"><stop offset="0" stop-color="#094fcf" stop-opacity=".3"/><stop offset="1" stop-color="#094fcf" stop-opacity="0"/></linearGradient><linearGradient id="h" x1="0" y1="0" x2="1" y2="0" gradientUnits="userSpaceOnUse" gradientTransform="rotate(224.214 43.492 5.124)scale(8.316)"><stop offset="0" stop-color="#094fcf" stop-opacity=".05"/><stop offset=".53" stop-color="#094fcf" stop-opacity=".01"/><stop offset="1" stop-color="#094fcf" stop-opacity="0"/></linearGradient><linearGradient id="i" x1="0" y1="0" x2="1" y2="0" gradientUnits="userSpaceOnUse" gradientTransform="rotate(226.558 50.188 6.706)scale(8.0639)"><stop offset="0" stop-color="#094fcf" stop-opacity=".05"/><stop offset=".53" stop-color="#094fcf" stop-opacity=".01"/><stop offset="1" stop-color="#094fcf" stop-opacity="0"/></linearGradient><linearGradient id="j" x1="0" y1="0" x2="1" y2="0" gradientUnits="userSpaceOnUse" gradientTransform="rotate(180.217 56.344 29.252)scale(48.8986)"><stop offset="0" stop-color="#094fcf" stop-opacity=".4"/><stop offset="1" stop-color="#094fcf" stop-opacity="0"/></linearGradient></defs></svg>