<svg width="90" height="91" viewBox="0 0 90 91" fill="none" xmlns="http://www.w3.org/2000/svg"><path d="M68.983.972c11.514 0 20.848 9.334 20.848 20.847v5.496l-9.323 2.866v-8.396c-.018-6.35-5.171-11.491-11.525-11.491H20.847c-6.365 0-11.525 5.16-11.525 11.525v22.23c0 3.862 0 5.793-1.061 7.23-1.062 1.436-2.907 2.003-6.599 3.138L0 54.927V21.82C0 10.306 9.334.972 20.848.972zm19.186 36.589 1.662-.51v33.073c0 11.514-9.334 20.848-20.848 20.848H20.847C9.334 90.972 0 81.638 0 70.125v-5.462l9.322-2.865v8.36c.018 6.35 5.172 11.492 11.526 11.492h48.135c6.365 0 11.525-5.16 11.525-11.526V47.93c0-3.862 0-5.793 1.062-7.23 1.061-1.437 2.907-2.004 6.599-3.139" fill="#ff5b49"/><path d="M25.119 60.1V42.692c0-4.587.958-5.545 5.545-5.545h1.715c4.588 0 5.545.958 5.545 5.545V60.1c0 4.587-.957 5.544-5.545 5.544h-1.715c-4.587 0-5.545-.957-5.545-5.545M57.45 26.31c-4.587 0-5.544.957-5.544 5.545v28.244c0 4.588.957 5.545 5.544 5.545h1.716c4.588 0 5.545-.957 5.545-5.545V31.855c0-4.588-.957-5.545-5.545-5.545z" fill="#ff5b49"/></svg>