<?xml version="1.0" encoding="utf-8"?>
<!-- Generator: Adobe Illustrator 24.3.0, SVG Export Plug-In . SVG Version: 6.00 Build 0)  -->
<svg version="1.1" id="Layer_1" xmlns="http://www.w3.org/2000/svg" xmlns:xlink="http://www.w3.org/1999/xlink" x="0px" y="0px"
	 width="47.9px" height="58px" viewBox="0 0 47.9 58" style="enable-background:new 0 0 47.9 58;" xml:space="preserve">
<style type="text/css">
	.st0{fill:#0FDAC2;}
</style>
<g>
	<path class="st0" d="M18.3,19.3h-1.5c-0.6,0-1,0.4-1,1v7.3c0,0.6,0.4,1,1,1h14.3c0.6,0,1-0.4,1-1v-7.3c0-0.6-0.4-1-1-1h-1.5
		c-0.6,0-1,0.4-1,1v2.2c0,0.3-0.2,0.5-0.5,0.5h-1.7c-0.3,0-0.5-0.2-0.5-0.5v-2.2c0-0.6-0.4-1-1-1h-1.7c-0.6,0-1,0.4-1,1v2.2
		c0,0.3-0.2,0.5-0.5,0.5h-1.7c-0.3,0-0.5-0.2-0.5-0.5v-2.2C19.3,19.7,18.9,19.3,18.3,19.3L18.3,19.3z M34.9,49.5H13
		c-0.7,0-1.2,0.6-1.2,1.2V58h24.4v-7.2C36.1,50.1,35.6,49.5,34.9,49.5L34.9,49.5z M32,54.6H15.9c-0.5,0-0.9-0.4-0.9-0.9
		s0.4-0.9,0.9-0.9H32c0.5,0,0.9,0.4,0.9,0.9C32.9,54.2,32.5,54.6,32,54.6z"/>
	<path class="st0" d="M46.4,20H43c-0.5-2.5-1.5-4.8-2.8-6.8l2.4-2.4c0.6-0.6,0.6-1.5,0-2.1l-3.4-3.4c-0.6-0.6-1.5-0.6-2.1,0
		l-2.4,2.4c-2.1-1.4-4.4-2.3-6.8-2.8V1.5c0-0.8-0.7-1.5-1.5-1.5h-4.9C20.7,0,20,0.7,20,1.5v3.4c-2.5,0.5-4.8,1.5-6.8,2.8l-2.4-2.4
		c-0.6-0.6-1.5-0.6-2.1,0L5.3,8.7c-0.6,0.6-0.6,1.5,0,2.1l2.4,2.4c-1.4,2.1-2.3,4.4-2.8,6.8H1.5C0.7,20,0,20.7,0,21.5v4.9
		c0,0.8,0.7,1.5,1.5,1.5h3.4c0.5,2.5,1.5,4.8,2.8,6.8L5.3,37c-0.6,0.6-0.6,1.5,0,2.1l3.4,3.4c0.6,0.6,1.5,0.6,2.1,0l2.4-2.4
		c1,0.7,2.1,1.2,3.2,1.7c1-1.8,1.5-3.9,1.7-5.9c-4.5-2.2-7.6-6.8-7.6-12.1c0-7.4,6-13.4,13.4-13.4s13.4,6,13.4,13.4
		c0,5.3-3.1,9.9-7.6,12.1c0.2,2,0.7,4.1,1.7,5.9c1.1-0.5,2.2-1.1,3.2-1.7l2.4,2.4c0.6,0.6,1.5,0.6,2.1,0l3.4-3.4
		c0.6-0.6,0.6-1.5,0-2.1l-2.4-2.4c1.3-2,2.3-4.3,2.8-6.8h3.3c0.8,0,1.5-0.7,1.5-1.5v-4.9C47.9,20.7,47.2,20,46.4,20L46.4,20z"/>
	<path class="st0" d="M30.7,44.2c-3.1-4.4-3.1-10.7-2.9-13.8h-7.7c0.2,3.1,0.2,9.4-2.9,13.8H30.7z M14,47.1v0.6h19.9v-0.6
		c0-0.6-0.5-1.2-1.2-1.2H15.2C14.5,46,14,46.5,14,47.1z"/>
</g>
</svg>
