<?xml version="1.0" encoding="utf-8"?>
<!-- Generator: Adobe Illustrator 24.3.0, SVG Export Plug-In . SVG Version: 6.00 Build 0)  -->
<svg version="1.1" id="Layer_1" xmlns="http://www.w3.org/2000/svg" xmlns:xlink="http://www.w3.org/1999/xlink" x="0px" y="0px"
	 width="57.8px" height="49px" viewBox="0 0 57.8 49" style="enable-background:new 0 0 57.8 49;" xml:space="preserve">
<style type="text/css">
	.st0{fill:#0FDAC2;}
</style>
<g>
	<path class="st0" d="M49.4,26.4h-4.5c0.5,1.2,0.7,2.6,0.7,4v16.9c0,0.6-0.1,1.1-0.3,1.7h7.4c2.8,0,5-2.2,5-5v-9.2
		C57.8,30.2,54,26.4,49.4,26.4z M12.1,30.4c0-1.4,0.2-2.7,0.7-4H8.3c-4.6,0-8.3,3.7-8.3,8.3V44c0,2.8,2.2,5,5,5h7.4
		c-0.2-0.5-0.3-1.1-0.3-1.7V30.4L12.1,30.4z M34,22.1H23.8c-4.6,0-8.3,3.7-8.3,8.3v16.9c0,0.9,0.7,1.7,1.7,1.7h23.5
		c0.9,0,1.7-0.7,1.7-1.7V30.4C42.3,25.8,38.6,22.1,34,22.1z M28.9,0c-5.5,0-10,4.5-10,10c0,3.7,2.1,7,5.1,8.7
		c1.4,0.8,3.1,1.3,4.9,1.3c1.8,0,3.4-0.5,4.9-1.3c3.1-1.7,5.1-5,5.1-8.7C38.9,4.5,34.4,0,28.9,0L28.9,0z M11.3,9.3
		c-4.1,0-7.5,3.4-7.5,7.5s3.4,7.5,7.5,7.5c1,0,2-0.2,3-0.6c1.6-0.7,2.9-1.9,3.7-3.4c0.6-1.1,0.9-2.3,0.9-3.5
		C18.8,12.7,15.4,9.3,11.3,9.3z M46.5,9.3c-4.1,0-7.5,3.4-7.5,7.5c0,1.2,0.3,2.4,0.9,3.5c0.8,1.5,2.1,2.7,3.7,3.4
		c0.9,0.4,1.9,0.6,3,0.6c4.1,0,7.5-3.4,7.5-7.5S50.6,9.3,46.5,9.3z"/>
</g>
</svg>
