<?xml version="1.0" encoding="utf-8"?>
<!-- Generator: Adobe Illustrator 24.3.0, SVG Export Plug-In . SVG Version: 6.00 Build 0)  -->
<svg version="1.1" id="Layer_1" xmlns="http://www.w3.org/2000/svg" xmlns:xlink="http://www.w3.org/1999/xlink" x="0px" y="0px"
	 width="56.4px" height="56.4px" viewBox="0 0 56.4 56.4" style="enable-background:new 0 0 56.4 56.4;" xml:space="preserve">
<style type="text/css">
	.st0{fill:#0FDAC2;}
</style>
<g>
	<path class="st0" d="M55.9,12.9L43.6,0.5c-0.6-0.6-1.7-0.6-2.3,0L28.8,12.9c-0.6,0.6-0.6,1.7,0,2.3c0.3,0.3,0.7,0.5,1.2,0.5h5.4
		v39.1c0,0.9,0.7,1.7,1.7,1.7h10.6c0.9,0,1.7-0.7,1.7-1.7V15.7h5.4c0.9,0,1.7-0.7,1.7-1.7C56.4,13.6,56.3,13.2,55.9,12.9z"/>
	<path class="st0" d="M30,23H19.4c-0.9,0-1.7,0.7-1.7,1.7v30.1c0,0.9,0.7,1.7,1.7,1.7H30c0.9,0,1.7-0.7,1.7-1.7V24.7
		C31.6,23.8,30.9,23,30,23z M12.3,37.2H1.7c-0.9,0-1.7,0.7-1.7,1.7v15.9c0,0.9,0.7,1.7,1.7,1.7h10.6c0.9,0,1.7-0.7,1.7-1.7V38.8
		C13.9,37.9,13.2,37.2,12.3,37.2z"/>
</g>
</svg>
