<svg xmlns="http://www.w3.org/2000/svg" width="512" height="512" viewBox="0 0 32 32" xml:space="preserve"><linearGradient id="a" x1="5" x2="27" y1="16" y2="16" gradientUnits="userSpaceOnUse"><stop offset="0" stop-color="#02beff"/><stop offset="1" stop-color="#535bff"/></linearGradient><path fill="url(#a)" d="M5 5v22h22V5zm2 2h18v18H7zm8 1c-.6 0-1 .4-1 1v1.3c.6-.2 1.3-.3 2-.3s1.4.1 2 .3V9c0-.6-.4-1-1-1zm-4.3 2c-.3 0-.5.1-.7.3l-.7.7c-.4.4-.4 1 0 1.4l.8.8c.5-.9 1.3-1.6 2.1-2.1l-.8-.8c-.2-.2-.4-.3-.7-.3m5.3 1c-3.3 0-6 2.7-6 6s2.7 6 6 6 6-2.7 6-6-2.7-6-6-6m0 2c2.2 0 4 1.8 4 4s-1.8 4-4 4-4-1.8-4-4 1.8-4 4-4m0 1v3l2.6-1.5c-.5-.9-1.5-1.5-2.6-1.5" data-original="url(#a)"/></svg>