<svg xmlns="http://www.w3.org/2000/svg" width="512" height="512" viewBox="0 0 512 512" xml:space="preserve"><path d="M16.436 25.814c-10.23 0-17.903 9.378-16.198 18.756l69.056 422.86c1.705 11.085 11.083 18.756 22.166 18.756h334.196c7.674 0 14.494-5.967 16.198-13.641l69.907-427.123c1.707-10.231-5.967-18.756-16.196-18.756zm293.275 305.21H203.143l-28.134-150.899H336.14z" fill="#2684ff" data-original="#2684ff"/><linearGradient id="a" x1="524.616" x2="270.312" y1="2211.385" y2="2012.875" gradientTransform="matrix(1 0 0 -1 0 2434)" gradientUnits="userSpaceOnUse"><stop offset=".176" style="stop-color:#0052cc" stop-color="#0052cc"/><stop offset="1" style="stop-color:#2684ff" stop-color="#2684ff"/></linearGradient><path d="M488.743 180.125H335.286L309.71 331.024H203.14L77.818 480.219s5.968 5.116 14.493 5.116h334.196c7.674 0 14.494-5.969 16.198-13.643z" style="fill:url(#a)"/></svg>