<svg xmlns="http://www.w3.org/2000/svg" viewBox="0 0 90 47"><style type="text/css">  
	.st0{fill:#8ABC00;}
	.st1{fill:#404040;}
</style><path class="st0" d="M90 12.2C90 5.5 83.9 0 80.9 0c-3 0-9.1 5.5-9.1 12.2 0 3.3 1 6.2 2.5 8.4 0.5 1.1 1.4 2.3 2.2 3.5 1 1.4 2 2.8 2.6 4.2 -0.5 0.2-0.9 0.6-1.1 1.1 0.5 0.1 1 0.2 1.6 0.3 1.5 0.2 2.9 0.1 3.7-0.2 -0.5 0.4-2 0.6-3.7 0.5 -0.6 0-1.2-0.1-1.7-0.2 0 0.1 0 0.2 0 0.3v2.5c0 1.1 0.9 1.4 2 1.4h2.8c1.1 0 2-0.3 2-1.4v-2.5c0-0.9-0.7-1.7-1.6-1.9 0.4-0.8 0.8-1.6 1.2-2.4l0.4-0.8 0.3-0.6c0.2-0.4 0.6-1.2 1-1.9h0C88.3 20.4 90 16.6 90 12.2zM84.3 24.2l-0.3 0.6 -0.4 0.8c-0.4 0.8-0.9 1.7-1.2 2.6h-1.2v-3.7h-0.6v3.7h-0.9c-0.1 0-0.1 0-0.2 0 -0.6-1.4-1.6-2.9-2.6-4.4 -0.3-0.4-0.5-0.7-0.8-1.1 1.4 1.1 3 1.8 4.8 1.8 1.4 0 2.7-0.4 3.9-1.2C84.6 23.5 84.5 23.8 84.3 24.2zM84.2 23.2c0 0 2.9-3.1 3.7-7.5 -1.1 1.3-2.9 2.2-5 2.2 -3.3 0-6-2.1-6-4.7 0-2.6 2.7-4.7 6-4.7 2.1 0 3.9 0.8 5 2.1 -1.7-7.2-9.6-9-9.6-9s0.5-0.6 1.6-0.9c0.9-0.3 1.3-0.2 1.9 0 0.7 0.2 7.6 4 7.6 11.4C89.3 19.3 84.2 23.2 84.2 23.2z"/><path class="st1" d="M5 32.6c1.3 0 3.5 0.4 3.5 1.9 0 0.8-0.5 1.4-1.2 1.4 -0.7 0-1-0.5-2.1-0.5 -1.5 0-2.2 1.1-2.2 2.5 0 1.4 0.7 2.5 2 2.5 1.3 0 1.9-0.5 2.3-0.5 0.7 0 1.2 0.7 1.2 1.3 0 1.5-2.3 2-3.5 2C2 43.1 0 40.8 0 37.9 0 34.9 2 32.6 5 32.6z"/><path class="st1" d="M9.1 34.3c0-0.8 0.6-1.5 1.5-1.5 0.8 0 1.3 0.5 1.5 0.9 0.5-0.6 1.2-1.1 2-1.1 0.8 0 1.5 0.6 1.5 1.5 0 1-0.8 1.3-1.8 1.6 -1.3 0.4-1.7 0.7-1.7 2.2v3.6c0 0.8-0.6 1.5-1.5 1.5 -0.9 0-1.5-0.7-1.5-1.5L9.1 34.3 9.1 34.3z"/><path class="st1" d="M25.3 41.4c0 0.8-0.6 1.5-1.5 1.5 -0.7 0-1.2-0.5-1.4-0.9 -0.7 0.8-1.4 1.1-2.5 1.1 -2.6 0-4.5-2.3-4.5-5.3 0-2.9 2-5.3 4.5-5.3 1.1 0 1.9 0.3 2.5 1.1 0.2-0.4 0.7-0.9 1.4-0.9 0.9 0 1.5 0.7 1.5 1.5V41.4zM18.3 37.9c0 1.4 0.7 2.5 2 2.5s2-1.1 2-2.5c0-1.3-0.7-2.5-2-2.5S18.3 36.5 18.3 37.9z"/><path class="st1" d="M30 35.6h-2.6c-0.9 0-1.5-0.4-1.5-1.3 0-0.9 0.6-1.3 1.5-1.3h5.7c0.6 0 0.8 0.1 1.1 0.4 0.2 0.2 0.3 0.4 0.3 0.7 0 0.3-0.1 0.5-0.4 0.8l-4 5.4h3.1c0.9 0 1.5 0.4 1.5 1.4 0 0.9-0.6 1.4-1.5 1.4h-5.9c-0.5 0-0.7-0.1-1-0.2 -0.4-0.2-0.4-0.6-0.4-0.8 0-0.2 0-0.5 0.5-1.1L30 35.6z"/><path class="st1" d="M37.7 41.9l-2.5-5.9c-0.3-0.8-0.6-1.5-0.6-1.8 0-0.9 0.7-1.4 1.4-1.4 0.7 0 1.2 0.4 1.5 1.1l1.7 4.5 1.6-4c0.4-0.9 0.8-1.6 1.6-1.6 0.9 0 1.5 0.6 1.5 1.5 0 0.4-0.2 0.9-0.4 1.3L39.3 45.6C39 46.4 38.7 47 37.7 47c-1 0-1.4-0.8-1.4-1.3 0-0.5 0.2-0.8 0.5-1.6L37.7 41.9z"/><path class="st1" d="M47.5 38.8c0 0.6 0.5 1.6 2.4 1.6 1.5 0 2.3-0.9 3-0.9 0.7 0 1.2 0.5 1.2 1.3 0 1.4-2.4 2.4-4.6 2.4 -3.2 0-5.1-2.3-5.1-5.3 0-2.8 2.1-5.3 5.1-5.3 2.9 0 4.8 2.4 4.8 5 0 1-0.5 1.3-1.4 1.3L47.5 38.8 47.5 38.8zM51.3 36.8c0-0.7-0.7-1.8-1.9-1.8s-1.9 1.1-1.9 1.8H51.3z"/><path class="st1" d="M64.7 41.9c0 3.7-2.4 5.1-5.3 5.1 -1.5 0-4.4-0.6-4.4-2.2 0-0.7 0.6-1.3 1.2-1.3 0.9 0 1.4 0.9 3.1 0.9 1.8 0 2.5-1 2.5-2.6H61.7c-0.6 0.9-1.7 1.1-2.7 1.1 -2.8 0-4.3-2.5-4.3-5.1 0-2.9 2-5.3 4.5-5.3 1.1 0 1.9 0.3 2.5 1.1 0.2-0.4 0.7-0.9 1.4-0.9 0.9 0 1.5 0.7 1.5 1.5C64.7 34.3 64.7 41.9 64.7 41.9zM59.7 35.4c-1.3 0-2 1.1-2 2.5 0 1.4 0.7 2.5 2 2.5 1.3 0 2-1.1 2-2.5C61.7 36.5 61 35.4 59.7 35.4z"/><path class="st1" d="M75.5 41.9c0 3.7-2.4 5.1-5.3 5.1 -1.5 0-4.4-0.6-4.4-2.2 0-0.7 0.6-1.3 1.2-1.3 0.9 0 1.4 0.9 3.1 0.9 1.8 0 2.5-1 2.5-2.6H72.5c-0.6 0.9-1.7 1.1-2.7 1.1 -2.8 0-4.3-2.5-4.3-5.1 0-2.9 2-5.3 4.5-5.3 1.1 0 1.9 0.3 2.5 1.1 0.2-0.4 0.7-0.9 1.4-0.9 0.9 0 1.5 0.7 1.5 1.5C75.5 34.3 75.5 41.9 75.5 41.9zM70.5 35.4c-1.3 0-2 1.1-2 2.5 0 1.4 0.7 2.5 2 2.5 1.3 0 2-1.1 2-2.5C72.5 36.5 71.8 35.4 70.5 35.4z"/><path class="st0" d="M85 11.9c-0.5 0-1-0.3-1.7-0.3 -1.2 0-1.8 0.7-1.8 1.5 0 0.7 0.6 1.4 1.8 1.4 0.5 0 1.3-0.3 1.6-0.3 0.5 0 0.9 0.3 0.9 0.6 0 0.7-1.8 1-2.6 1 -2.3 0-3.8-1.3-3.8-2.7 0-1.4 1.6-2.8 3.8-2.8 0.9 0 2.6 0.2 2.6 0.9C85.9 11.5 85.5 11.9 85 11.9z"/><path class="st1" d="M77.7 42.1h-0.3c-0.1 0-0.2-0.1-0.2-0.2 0-0.1 0.1-0.2 0.2-0.2h1c0.1 0 0.2 0.1 0.2 0.2 0 0.1 0 0.2-0.2 0.2h-0.3v1.4c0 0.1-0.1 0.2-0.2 0.2 -0.1 0-0.2-0.1-0.2-0.2V42.1z"/><path class="st1" d="M78.9 42c0-0.1 0.1-0.2 0.3-0.2 0.1 0 0.2 0.1 0.3 0.2l0.3 1.1h0l0.3-1.1c0-0.1 0.1-0.2 0.3-0.2 0.1 0 0.3 0.1 0.3 0.2l0.3 1.6c0 0 0 0 0 0.1 0 0.1-0.1 0.2-0.2 0.2 -0.1 0-0.2-0.1-0.2-0.2l-0.2-1.1h0l-0.3 1.2c0 0.1-0.1 0.2-0.2 0.2 -0.1 0-0.2-0.1-0.2-0.2l-0.3-1.2h0l-0.2 1.1c0 0.1-0.1 0.2-0.2 0.2 -0.1 0-0.2-0.1-0.2-0.2 0 0 0 0 0 0L78.9 42z"/></svg>