<svg xmlns="http://www.w3.org/2000/svg" width="512" height="512" viewBox="0 0 438.536 438.536" xml:space="preserve"><path d="M158.173 352.599c-3.049.568-4.381 1.999-3.999 4.281q.57 3.426 5.138 2.283c3.049-.76 4.38-2.095 3.997-3.997q-.568-3.14-5.136-2.567m-16.275 2.286c-3.046 0-4.568 1.041-4.568 3.139q.001 3.71 4.853 3.138 4.57 0 4.57-3.138c0-2.471-1.619-3.522-4.855-3.139m-22.269-.863c-.76 2.095.478 3.519 3.711 4.284q4.283 1.707 5.424-1.714c.572-2.091-.666-3.61-3.711-4.568-2.856-.759-4.663-.102-5.424 1.998" data-original="#000000"/><path d="M414.41 24.123C398.326 8.042 378.964 0 356.309 0H82.225Q48.252 0 24.123 24.123.001 48.25 0 82.225v274.088q0 33.976 24.123 58.098 24.128 24.126 58.102 24.126h63.953c4.184 0 7.327-.144 9.42-.424q3.137-.431 6.279-3.717c2.096-2.187 3.14-5.376 3.14-9.562 0-.568-.05-7.046-.144-19.417q-.145-18.56-.144-29.41l-6.567 1.143q-6.28 1.142-15.846.999-9.563-.143-19.841-1.998c-6.855-1.239-13.229-4.093-19.13-8.562q-8.847-6.714-12.56-17.559l-2.856-6.571c-1.903-4.373-4.899-9.229-8.992-14.554q-6.139-7.998-12.419-10.852l-1.999-1.428c-1.331-.951-2.568-2.098-3.711-3.429q-1.712-2.004-2.568-3.997-.858-2.002 1.427-3.289c1.524-.855 4.281-1.279 8.28-1.279l5.708.855c3.808.76 8.516 3.042 14.134 6.851q8.42 5.71 13.846 14.843c4.38 7.806 9.657 13.75 15.846 17.843q9.277 6.144 18.699 6.143c9.422-.001 11.704-.476 16.274-1.424q6.848-1.432 12.847-4.288c1.713-12.751 6.377-22.559 13.988-29.41q-16.271-1.713-29.265-5.14c-8.658-2.286-17.605-5.995-26.835-11.136-9.234-5.14-16.894-11.512-22.985-19.13q-9.137-11.427-14.987-29.978-5.852-18.563-5.852-42.829c0-23.029 7.521-42.637 22.557-58.814q-10.566-25.978 1.997-58.242 8.281-2.57 24.554 3.855 16.273 6.43 23.84 10.992 7.567 4.565 12.135 7.71 26.556-7.423 54.818-7.423t54.821 7.423l10.849-6.852q11.137-6.855 26.269-12.562 15.13-5.71 23.127-3.14c8.562 21.51 9.328 40.922 2.279 58.241 15.036 16.179 22.559 35.786 22.559 58.815q0 24.272-5.852 42.969-5.845 18.702-15.13 29.981c-6.184 7.519-13.894 13.843-23.124 18.986-9.232 5.137-18.178 8.853-26.84 11.132q-12.99 3.43-29.263 5.147c9.891 8.562 14.839 22.072 14.839 40.538v68.238c0 3.237.472 5.852 1.424 7.851.958 1.998 2.478 3.374 4.571 4.141 2.102.76 3.949 1.235 5.571 1.424 1.622.191 3.949.287 6.995.287h63.953c22.648 0 42.018-8.042 58.095-24.126 16.084-16.084 24.126-35.454 24.126-58.102V82.225c-.002-22.649-8.044-42.021-24.125-58.102" data-original="#000000"/><path d="M86.793 319.195q-1.997 1.423.572 4.565 2.857 2.854 4.57.855 1.998-1.422-.575-4.569c-1.902-1.71-3.424-1.997-4.567-.851m-9.419-7.138q-.855 2.003 1.999 3.426c1.521.955 2.762.767 3.711-.568q.855-2.002-1.999-3.433-2.855-.858-3.711.575m18.272 18.274c-1.715.948-1.715 2.666 0 5.137q2.568 3.716 4.853 1.998 2.571-2 0-5.427c-1.521-2.468-3.14-3.046-4.853-1.708m9.995 12.843c-1.714 1.526-1.336 3.327 1.142 5.428 2.281 2.279 4.185 2.566 5.708.849q2.286-2.279-1.142-5.42-3.422-3.422-5.708-.857" data-original="#000000"/></svg>