<svg xmlns="http://www.w3.org/2000/svg"  viewBox="0 0 24 24" width="24px" height="24px"><path d="M 7.875 2 C 7.136719 2 6.503906 2.398438 6.15625 3 L 5.84375 3 C 4.265625 3 2.941406 4.234375 2.84375 5.8125 L 1.96875 18.8125 C 1.917969 19.636719 2.214844 20.460938 2.78125 21.0625 C 3.347656 21.664063 4.144531 22 4.96875 22 L 18.96875 22 C 19.792969 22 20.5625 21.664063 21.125 21.0625 C 21.691406 20.460938 21.988281 19.636719 21.9375 18.8125 L 21.0625 5.8125 C 20.964844 4.234375 19.671875 3 18.09375 3 L 17.78125 3 C 17.433594 2.398438 16.800781 2 16.0625 2 Z M 7.875 4 L 16.0625 4 L 16.875 13 L 7.0625 13 Z M 5.78125 5 L 5.0625 12.8125 C 5.058594 12.84375 4.96875 16 4.96875 16 C 4.96875 17.101563 5.867188 18 6.96875 18 L 16.96875 18 C 18.070313 18 18.96875 17.101563 18.96875 16 C 18.96875 16 18.847656 12.839844 18.84375 12.8125 L 18.15625 5 C 18.652344 5.035156 19.0625 5.433594 19.09375 5.9375 L 19.9375 18.9375 C 19.957031 19.214844 19.878906 19.484375 19.6875 19.6875 C 19.496094 19.890625 19.246094 20 18.96875 20 L 4.96875 20 C 4.691406 20 4.410156 19.890625 4.21875 19.6875 C 4.027344 19.484375 3.953125 19.214844 3.96875 18.9375 L 4.84375 5.9375 C 4.875 5.433594 5.285156 5.035156 5.78125 5 Z M 12.03125 5 C 10.972656 5 9.375 5.445313 9.375 7.03125 C 9.375 8.964844 13.0625 8.484375 13.0625 9.71875 C 13.0625 10.183594 12.460938 10.5 11.875 10.5 C 11.046875 10.5 10.394531 10 9.9375 10 C 9.574219 10 8.96875 10.113281 8.96875 10.78125 C 8.96875 11.835938 11.394531 12 12.28125 12 C 12.808594 12 14.96875 11.6875 14.96875 9.65625 C 14.96875 7.203125 11.21875 7.761719 11.21875 6.8125 C 11.21875 6.445313 11.472656 6.15625 12.03125 6.15625 C 12.589844 6.15625 13.019531 6.53125 13.59375 6.53125 C 13.917969 6.53125 14.3125 6.398438 14.3125 5.9375 C 14.3125 5.195313 12.824219 5 12.03125 5 Z M 6.96875 15 C 7 15.003906 16.9375 15.003906 16.96875 15 L 16.96875 16 L 6.96875 16 Z"/></svg>