<?xml version="1.0" encoding="utf-8"?>
<!-- Generator: Adobe Illustrator 24.3.0, SVG Export Plug-In . SVG Version: 6.00 Build 0)  -->
<svg version="1.1" id="Layer_1" xmlns="http://www.w3.org/2000/svg" xmlns:xlink="http://www.w3.org/1999/xlink" x="0px" y="0px"
	 width="140.6px" height="140.6px" viewBox="0 0 140.6 140.6" style="enable-background:new 0 0 140.6 140.6;" xml:space="preserve"
	>
<style type="text/css">
	.st0{fill:#054AD9;}
	.st1{fill:#FCFDFD;}
	.st2{fill:#F88504;}
	.st3{fill-rule:evenodd;clip-rule:evenodd;fill:#24ABE2;}
	.st4{fill:url(#SVGID_1_);}
	.st5{fill:#72B52D;}
	.st6{fill:#010201;}
	.st7{fill:#01CAFE;}
	.st8{fill:#FFFFFF;}
</style>
<g>
	<g>
		<path class="st0" d="M140.6,70.3c0,23,0,45.9,0,68.9c0,1.2-0.2,1.4-1.4,1.4c-45.9,0-91.8,0-137.8,0c-1.2,0-1.4-0.2-1.4-1.4
			C0,93.3,0,47.4,0,1.4C0,0.2,0.2,0,1.4,0c45.9,0,91.8,0,137.8,0c1.2,0,1.4,0.2,1.4,1.4C140.6,24.4,140.6,47.4,140.6,70.3z
			 M76.7,32.4c-0.2,0-0.5-0.1-0.7-0.1c-12.8,0-25.5,0-38.3,0c-1.2,0-1.4,0.5-1.4,1.6c0,4.4,0.1,8.9,0,13.3c0,1.6,0.3,2.2,2.1,2.1
			c12.8-0.1,25.5,0,38.3,0c0,2.6-0.1,5.2,0,7.7c0,1-0.3,1.4-1.4,1.5c-4.6,0.4-9.2,0.8-13.8,1.3c-6.2,0.7-12.4,1.3-18.4,3.5
			c-7,2.5-11.5,7.2-12.6,14.7c-0.7,4.9-0.9,9.8-0.3,14.7c0.9,7.1,4.7,12.1,11.3,14.8c6.1,2.5,12.4,2.2,18.6,0.5
			c5-1.3,9.4-4.1,14.1-6.3c0.8-0.4,1.5-0.7,2.4-0.6c0,2.1,0,4,0,6c0,0.8,0.3,1.1,1.1,1.1c5.3-0.1,10.5-0.1,15.8-0.1
			c5.3,0,10.5,0,15.8,0.1c1.2,0,1.1-0.7,1.1-1.5c0-18.7,0-37.5,0-56.2c0-1.1-0.3-1.5-1.5-1.5c-5.1,0.1-10.3,0-15.5,0l0,0
			c0-5.1,0-10.3,0-15.4c0-0.9,0-1.6-1.2-1.5C87.1,32.3,81.9,32.3,76.7,32.4z"/>
		<path class="st1" d="M93.5,108.2c-5.3,0-10.5,0.1-15.8,0.1c-0.8,0-1.1-0.3-1.1-1.1c0-2,0-4,0-6c-0.9-0.2-1.6,0.2-2.4,0.6
			c-4.6,2.3-9,5-14.1,6.3c-6.2,1.6-12.5,2-18.6-0.5c-6.6-2.7-10.4-7.7-11.3-14.8c-0.6-4.9-0.4-9.8,0.3-14.7
			c1.1-7.6,5.5-12.2,12.6-14.7c6-2.1,12.2-2.8,18.4-3.5c4.6-0.5,9.2-0.9,13.8-1.3c1.1-0.1,1.4-0.5,1.4-1.5c-0.1-2.6,0-5.1,0-7.7l0,0
			c5.6,0,11.3,0,16.9,0l0,0C93.5,68.9,93.5,88.6,93.5,108.2z M47,85c0,0.6,0,1.2,0,1.8c-0.2,4.5,2.9,6.6,6.9,6.3
			c2.7-0.2,5.4-0.6,7.9-1.8c4.7-2.3,9.3-4.7,13.9-7c0.8-0.4,0.8-1,0.8-1.7c-0.1-2.7-0.4-5.5-0.2-8.2c0.1-1.2-0.3-1.1-1.1-1
			C70.1,74,65,74.5,59.8,75.1c-2.9,0.3-5.8,0.8-8.5,1.8c-2.8,1.1-4.2,3.1-4.2,6.1C47,83.8,47,84.4,47,85z"/>
		<path class="st2" d="M93.5,108.2c0-19.7,0-39.4,0-59c5.2,0,10.3,0,15.5,0c1.2,0,1.5,0.3,1.5,1.5c0,18.7,0,37.5,0,56.2
			c0,0.8,0.1,1.5-1.1,1.5C104,108.2,98.8,108.3,93.5,108.2z"/>
		<path class="st1" d="M76.6,49.3c-12.8,0-25.5-0.1-38.3,0c-1.8,0-2.1-0.5-2.1-2.1c0.1-4.4,0.1-8.9,0-13.3c0-1.1,0.2-1.6,1.4-1.6
			c12.8,0,25.5,0,38.3,0c0.2,0,0.5,0.1,0.7,0.1C76.7,38,76.7,43.6,76.6,49.3L76.6,49.3z"/>
		<path class="st2" d="M76.7,49.2c0-5.6,0-11.2,0-16.9c5.2,0,10.4,0,15.6-0.1c1.2,0,1.2,0.7,1.2,1.5c0,5.1,0,10.3,0,15.4
			C87.9,49.2,82.3,49.2,76.7,49.2z"/>
		<path class="st0" d="M47,85c0-0.6,0-1.3,0-1.9c0-3,1.4-5,4.2-6.1c2.8-1.1,5.6-1.5,8.5-1.8c5.2-0.6,10.3-1.1,15.5-1.7
			c0.7-0.1,1.1-0.2,1.1,1c-0.1,2.7,0.1,5.5,0.2,8.2c0,0.7,0,1.4-0.8,1.7c-4.6,2.3-9.3,4.7-13.9,7c-2.5,1.2-5.2,1.6-7.9,1.8
			c-4,0.3-7.1-1.9-6.9-6.3C47,86.2,47,85.6,47,85z"/>
	</g>
</g>
</svg>
