<svg xmlns="http://www.w3.org/2000/svg" width="28" height="28" style="shape-rendering:geometricPrecision;text-rendering:geometricPrecision;image-rendering:optimizeQuality;fill-rule:evenodd;clip-rule:evenodd"><path style="opacity:.57" fill="#00f" d="M14.5-.5h2a108.5 108.5 0 0 1-7 19q1.5 2 3 0l4.5-7q1.34-1.817 2.5 0a47.4 47.4 0 0 1-9 11.5q2.667-.066 5-2a424 424 0 0 0 12-11.5v2q-5.664 4.928-8.5 12a60 60 0 0 0-6.5 4h-8a80 80 0 0 1-5-11v-6Q.462 5.36 3 .5a93.5 93.5 0 0 0 0 17 93.3 93.3 0 0 1 3.5-15l1 2a424 424 0 0 1-2 13 29 29 0 0 1 1.5 4 171 171 0 0 1 7.5-22"/></svg>