<?xml version="1.0" encoding="UTF-8"?>
<!DOCTYPE svg PUBLIC "-//W3C//DTD SVG 1.1//EN" "http://www.w3.org/Graphics/SVG/1.1/DTD/svg11.dtd">
<svg xmlns="http://www.w3.org/2000/svg" version="1.1" width="56px" height="56px" style="shape-rendering:geometricPrecision; text-rendering:geometricPrecision; image-rendering:optimizeQuality; fill-rule:evenodd; clip-rule:evenodd" xmlns:xlink="http://www.w3.org/1999/xlink">
<g><path style="opacity:1" fill="#d159bf" d="M -0.5,-0.5 C 6.5,-0.5 13.5,-0.5 20.5,-0.5C 13.366,4.14135 7.69935,10.308 3.5,18C 2.0993,18.4101 0.765972,18.9101 -0.5,19.5C -0.5,12.8333 -0.5,6.16667 -0.5,-0.5 Z"/></g>
<g><path style="opacity:1" fill="#9e51c8" d="M 25.5,-0.5 C 30.5,-0.5 35.5,-0.5 40.5,-0.5C 40.2155,2.25382 39.5488,4.92048 38.5,7.5C 36.5658,7.90054 35.0658,8.90054 34,10.5C 30.6222,10.1317 27.1222,10.1317 23.5,10.5C 25.5573,8.14398 28.224,7.14398 31.5,7.5C 31.5,5.83333 31.5,4.16667 31.5,2.5C 29.5,2.5 27.5,2.5 25.5,2.5C 24.1667,1.5 24.1667,0.5 25.5,-0.5 Z"/></g>
<g><path style="opacity:1" fill="#c157c0" d="M 20.5,-0.5 C 21.1667,-0.5 21.8333,-0.5 22.5,-0.5C 22.5858,0.495904 22.2524,1.32924 21.5,2C 19.6494,2.83718 17.8161,3.67051 16,4.5C 15.2797,6.11238 15.4464,7.61238 16.5,9C 14.7444,9.2022 13.0777,9.7022 11.5,10.5C 9.40875,14.4264 6.74208,17.9264 3.5,21C 3.83333,21.3333 4.16667,21.6667 4.5,22C 3.34565,25.5367 1.67898,28.7033 -0.5,31.5C -0.5,27.5 -0.5,23.5 -0.5,19.5C 0.765972,18.9101 2.0993,18.4101 3.5,18C 7.69935,10.308 13.366,4.14135 20.5,-0.5 Z"/></g>
<g><path style="opacity:1" fill="#b856c2" d="M 22.5,-0.5 C 23.5,-0.5 24.5,-0.5 25.5,-0.5C 24.1667,0.5 24.1667,1.5 25.5,2.5C 24.1225,3.23442 22.6225,3.90109 21,4.5C 20.9117,8.63315 19.0783,11.6331 15.5,13.5C 14.5481,15.0453 14.2148,16.712 14.5,18.5C 7.84145,20.3119 4.00812,24.3119 3,30.5C 2.18405,31.8228 1.01739,32.4894 -0.5,32.5C -0.5,32.1667 -0.5,31.8333 -0.5,31.5C 1.67898,28.7033 3.34565,25.5367 4.5,22C 4.16667,21.6667 3.83333,21.3333 3.5,21C 6.74208,17.9264 9.40875,14.4264 11.5,10.5C 13.0777,9.7022 14.7444,9.2022 16.5,9C 15.4464,7.61238 15.2797,6.11238 16,4.5C 17.8161,3.67051 19.6494,2.83718 21.5,2C 22.2524,1.32924 22.5858,0.495904 22.5,-0.5 Z"/></g>
<g><path style="opacity:1" fill="#744cc8" d="M 50.5,-0.5 C 52.1667,-0.5 53.8333,-0.5 55.5,-0.5C 55.5,2.5 55.5,5.5 55.5,8.5C 52.2707,12.5432 48.7707,16.5432 45,20.5C 44.9633,22.9739 44.13,24.9739 42.5,26.5C 43.1841,25.1623 43.1841,23.4957 42.5,21.5C 40.8716,22.5353 39.205,22.5353 37.5,21.5C 37.5,20.8333 37.1667,20.5 36.5,20.5C 36.1961,19.8501 35.8627,19.1835 35.5,18.5C 37.5,17.8333 39.5,17.1667 41.5,16.5C 40.689,15.7836 40.0223,14.9503 39.5,14C 41.3387,10.828 43.8387,8.32797 47,6.5C 48.1932,4.11355 49.3599,1.78022 50.5,-0.5 Z"/></g>
<g><path style="opacity:1" fill="#8a50c4" d="M 40.5,-0.5 C 43.8333,-0.5 47.1667,-0.5 50.5,-0.5C 49.3599,1.78022 48.1932,4.11355 47,6.5C 43.8387,8.32797 41.3387,10.828 39.5,14C 40.0223,14.9503 40.689,15.7836 41.5,16.5C 39.5,17.1667 37.5,17.8333 35.5,18.5C 35.8627,19.1835 36.1961,19.8501 36.5,20.5C 35.209,20.7373 34.209,20.404 33.5,19.5C 34.0967,19.2648 34.4301,18.7648 34.5,18C 33.4451,16.4928 32.4451,14.9928 31.5,13.5C 29.3647,11.631 26.6981,10.9644 23.5,11.5C 23.5,11.1667 23.5,10.8333 23.5,10.5C 27.1222,10.1317 30.6222,10.1317 34,10.5C 35.0658,8.90054 36.5658,7.90054 38.5,7.5C 39.5488,4.92048 40.2155,2.25382 40.5,-0.5 Z"/></g>
<g><path style="opacity:1" fill="#9a69b4" d="M 23.5,11.5 C 26.6981,10.9644 29.3647,11.631 31.5,13.5C 28.0217,13.1842 24.6883,13.6842 21.5,15C 20.6198,16.3561 20.2865,17.8561 20.5,19.5C 24.8333,19.5 29.1667,19.5 33.5,19.5C 34.209,20.404 35.209,20.7373 36.5,20.5C 37.1667,20.5 37.5,20.8333 37.5,21.5C 30.8333,21.5 24.1667,21.5 17.5,21.5C 17.5,21.1667 17.5,20.8333 17.5,20.5C 17.6933,17.6915 18.36,15.0248 19.5,12.5C 20.9587,12.5674 22.2921,12.2341 23.5,11.5 Z"/></g>
<g><path style="opacity:1" fill="#ac53c3" d="M 25.5,2.5 C 27.5,2.5 29.5,2.5 31.5,2.5C 31.5,4.16667 31.5,5.83333 31.5,7.5C 28.224,7.14398 25.5573,8.14398 23.5,10.5C 23.5,10.8333 23.5,11.1667 23.5,11.5C 22.2921,12.2341 20.9587,12.5674 19.5,12.5C 18.36,15.0248 17.6933,17.6915 17.5,20.5C 16.7611,20.369 16.0944,20.5357 15.5,21C 14.9103,22.5095 14.2436,24.0095 13.5,25.5C 11.739,26.0351 10.4057,27.0351 9.5,28.5C 6.36962,31.401 4.20295,35.0677 3,39.5C 1.98873,40.3366 0.822066,40.67 -0.5,40.5C -0.5,37.8333 -0.5,35.1667 -0.5,32.5C 1.01739,32.4894 2.18405,31.8228 3,30.5C 4.00812,24.3119 7.84145,20.3119 14.5,18.5C 14.2148,16.712 14.5481,15.0453 15.5,13.5C 19.0783,11.6331 20.9117,8.63315 21,4.5C 22.6225,3.90109 24.1225,3.23442 25.5,2.5 Z"/></g>
<g><path style="opacity:1" fill="#f8e8fc" d="M 31.5,13.5 C 32.4451,14.9928 33.4451,16.4928 34.5,18C 34.4301,18.7648 34.0967,19.2648 33.5,19.5C 29.1667,19.5 24.8333,19.5 20.5,19.5C 20.2865,17.8561 20.6198,16.3561 21.5,15C 24.6883,13.6842 28.0217,13.1842 31.5,13.5 Z"/></g>
<g><path style="opacity:1" fill="#5d48cc" d="M 55.5,8.5 C 55.5,15.1667 55.5,21.8333 55.5,28.5C 52.9853,29.6129 50.4853,30.6129 48,31.5C 46.7147,31.0496 45.548,30.3829 44.5,29.5C 43.7025,29.9569 43.3691,30.6236 43.5,31.5C 42.5489,30.0813 42.2155,28.4147 42.5,26.5C 44.13,24.9739 44.9633,22.9739 45,20.5C 48.7707,16.5432 52.2707,12.5432 55.5,8.5 Z"/></g>
<g><path style="opacity:1" fill="#fcf3fd" d="M 17.5,21.5 C 24.1667,21.5 30.8333,21.5 37.5,21.5C 38.3007,23.0418 38.634,24.7085 38.5,26.5C 31.1667,26.5 23.8333,26.5 16.5,26.5C 15.0698,24.5453 15.4031,22.8786 17.5,21.5 Z"/></g>
<g><path style="opacity:1" fill="#8d74a6" d="M 16.5,26.5 C 23.8333,26.5 31.1667,26.5 38.5,26.5C 39.1667,27.1667 39.8333,27.8333 40.5,28.5C 32.1667,28.5 23.8333,28.5 15.5,28.5C 15.8333,27.8333 16.1667,27.1667 16.5,26.5 Z"/></g>
<g><path style="opacity:1" fill="#fcf7fd" d="M 15.5,28.5 C 23.8333,28.5 32.1667,28.5 40.5,28.5C 41.881,30.2741 41.5477,31.7741 39.5,33C 35.1017,33.8823 30.9351,33.3823 27,31.5C 25.3933,32.0735 23.8933,32.7402 22.5,33.5C 20.1432,33.6633 17.8098,33.4966 15.5,33C 14.1772,32.1841 13.5106,31.0174 13.5,29.5C 14.1667,29.1667 14.8333,28.8333 15.5,28.5 Z"/></g>
<g><path style="opacity:1" fill="#9158b2" d="M 17.5,20.5 C 17.5,20.8333 17.5,21.1667 17.5,21.5C 15.4031,22.8786 15.0698,24.5453 16.5,26.5C 16.1667,27.1667 15.8333,27.8333 15.5,28.5C 14.8333,28.8333 14.1667,29.1667 13.5,29.5C 12.4265,30.2506 12.2599,31.2506 13,32.5C 14.1451,33.6364 15.3117,34.6364 16.5,35.5C 15.1991,36.8845 15.1991,38.3845 16.5,40C 18.8098,40.4966 21.1432,40.6633 23.5,40.5C 23.5,40.8333 23.5,41.1667 23.5,41.5C 20.8872,42.4349 18.2205,42.6015 15.5,42C 14.7476,41.3292 14.4142,40.4959 14.5,39.5C 14.7373,38.209 14.404,37.209 13.5,36.5C 10.6109,34.7226 9.27757,32.0559 9.5,28.5C 10.4057,27.0351 11.739,26.0351 13.5,25.5C 14.2436,24.0095 14.9103,22.5095 15.5,21C 16.0944,20.5357 16.7611,20.369 17.5,20.5 Z"/></g>
<g><path style="opacity:1" fill="#9c81bf" d="M 13.5,29.5 C 13.5106,31.0174 14.1772,32.1841 15.5,33C 17.8098,33.4966 20.1432,33.6633 22.5,33.5C 22.5,34.1667 22.5,34.8333 22.5,35.5C 20.5,35.5 18.5,35.5 16.5,35.5C 15.3117,34.6364 14.1451,33.6364 13,32.5C 12.2599,31.2506 12.4265,30.2506 13.5,29.5 Z"/></g>
<g><path style="opacity:1" fill="#9a51c7" d="M 9.5,28.5 C 9.27757,32.0559 10.6109,34.7226 13.5,36.5C 11.9791,36.1871 10.3124,36.6871 8.5,38C 7.9389,39.676 6.9389,41.0094 5.5,42C 6.45057,42.7175 6.61723,43.5509 6,44.5C 4.26577,46.4506 2.0991,47.4506 -0.5,47.5C -0.5,45.1667 -0.5,42.8333 -0.5,40.5C 0.822066,40.67 1.98873,40.3366 3,39.5C 4.20295,35.0677 6.36962,31.401 9.5,28.5 Z"/></g>
<g><path style="opacity:1" fill="#fcf0fe" d="M 16.5,35.5 C 18.5,35.5 20.5,35.5 22.5,35.5C 23.4345,36.5676 23.7678,37.901 23.5,39.5C 23.5,39.8333 23.5,40.1667 23.5,40.5C 21.1432,40.6633 18.8098,40.4966 16.5,40C 15.1991,38.3845 15.1991,36.8845 16.5,35.5 Z"/></g>
<g><path style="opacity:1" fill="#7056b7" d="M 37.5,21.5 C 39.205,22.5353 40.8716,22.5353 42.5,21.5C 43.1841,23.4957 43.1841,25.1623 42.5,26.5C 42.2155,28.4147 42.5489,30.0813 43.5,31.5C 43.5,32.1667 43.5,32.8333 43.5,33.5C 40.6108,33.999 39.9442,35.499 41.5,38C 40.3636,39.1451 39.3636,40.3117 38.5,41.5C 35.6146,41.8064 32.9479,41.4731 30.5,40.5C 32.8568,40.6633 35.1902,40.4966 37.5,40C 38.3802,38.6439 38.7135,37.1439 38.5,35.5C 35.8333,35.5 33.1667,35.5 30.5,35.5C 30.5,36.5 30.5,37.5 30.5,38.5C 28.283,39.3686 25.9496,39.702 23.5,39.5C 23.7678,37.901 23.4345,36.5676 22.5,35.5C 22.5,34.8333 22.5,34.1667 22.5,33.5C 23.8933,32.7402 25.3933,32.0735 27,31.5C 30.9351,33.3823 35.1017,33.8823 39.5,33C 41.5477,31.7741 41.881,30.2741 40.5,28.5C 39.8333,27.8333 39.1667,27.1667 38.5,26.5C 38.634,24.7085 38.3007,23.0418 37.5,21.5 Z"/></g>
<g><path style="opacity:1" fill="#4644ce" d="M 55.5,28.5 C 55.5,31.5 55.5,34.5 55.5,37.5C 53.7356,38.326 52.4023,39.6593 51.5,41.5C 48.752,39.9562 45.752,39.2895 42.5,39.5C 44.0419,38.8365 45.7086,38.1698 47.5,37.5C 46.7376,37.0894 45.7376,36.9227 44.5,37C 43.6634,35.9887 43.33,34.8221 43.5,33.5C 43.5,32.8333 43.5,32.1667 43.5,31.5C 43.3691,30.6236 43.7025,29.9569 44.5,29.5C 45.548,30.3829 46.7147,31.0496 48,31.5C 50.4853,30.6129 52.9853,29.6129 55.5,28.5 Z"/></g>
<g><path style="opacity:1" fill="#faf6fc" d="M 30.5,40.5 C 30.5,39.8333 30.5,39.1667 30.5,38.5C 30.5,37.5 30.5,36.5 30.5,35.5C 33.1667,35.5 35.8333,35.5 38.5,35.5C 38.7135,37.1439 38.3802,38.6439 37.5,40C 35.1902,40.4966 32.8568,40.6633 30.5,40.5 Z"/></g>
<g><path style="opacity:1" fill="#3843d0" d="M 55.5,37.5 C 55.5,43.5 55.5,49.5 55.5,55.5C 52.1667,55.5 48.8333,55.5 45.5,55.5C 46.7189,53.3641 47.5522,51.0307 48,48.5C 49.3333,48.5 50.6667,48.5 52,48.5C 52.5564,46.1152 52.3897,43.7819 51.5,41.5C 52.4023,39.6593 53.7356,38.326 55.5,37.5 Z"/></g>
<g><path style="opacity:1" fill="#3d43d2" d="M 42.5,39.5 C 45.752,39.2895 48.752,39.9562 51.5,41.5C 52.3897,43.7819 52.5564,46.1152 52,48.5C 50.6667,48.5 49.3333,48.5 48,48.5C 47.5522,51.0307 46.7189,53.3641 45.5,55.5C 43.5,55.5 41.5,55.5 39.5,55.5C 39.4411,52.9512 40.4411,50.9512 42.5,49.5C 41.7542,48.2638 41.4208,46.9305 41.5,45.5C 43.5,45.5 45.5,45.5 47.5,45.5C 47.5,44.5 47.5,43.5 47.5,42.5C 45.139,42.6741 42.8056,43.0074 40.5,43.5C 40.2291,41.6203 40.8958,40.287 42.5,39.5 Z"/></g>
<g><path style="opacity:1" fill="#6549c9" d="M 30.5,38.5 C 30.5,39.1667 30.5,39.8333 30.5,40.5C 32.9479,41.4731 35.6146,41.8064 38.5,41.5C 38.3893,42.1174 38.056,42.6174 37.5,43C 35.5,43.3333 33.5,43.6667 31.5,44C 30.7924,46.7676 29.2924,47.6009 27,46.5C 26.1402,49.6905 24.9735,52.6905 23.5,55.5C 19.5,55.5 15.5,55.5 11.5,55.5C 12.3697,51.9323 13.8697,48.599 16,45.5C 18.1474,44.8875 20.314,44.2208 22.5,43.5C 22.8627,42.8165 23.1961,42.1499 23.5,41.5C 23.5,41.1667 23.5,40.8333 23.5,40.5C 23.5,40.1667 23.5,39.8333 23.5,39.5C 25.9496,39.702 28.283,39.3686 30.5,38.5 Z"/></g>
<g><path style="opacity:1" fill="#7d4ec8" d="M 14.5,39.5 C 14.4142,40.4959 14.7476,41.3292 15.5,42C 18.2205,42.6015 20.8872,42.4349 23.5,41.5C 23.1961,42.1499 22.8627,42.8165 22.5,43.5C 20.314,44.2208 18.1474,44.8875 16,45.5C 13.8697,48.599 12.3697,51.9323 11.5,55.5C 9.16667,55.5 6.83333,55.5 4.5,55.5C 5.64808,53.2576 6.64808,50.9242 7.5,48.5C 11.2352,47.1035 11.9019,45.1035 9.5,42.5C 10.0728,39.9147 11.7395,38.9147 14.5,39.5 Z"/></g>
<g><path style="opacity:1" fill="#4c45cd" d="M 43.5,33.5 C 43.33,34.8221 43.6634,35.9887 44.5,37C 45.7376,36.9227 46.7376,37.0894 47.5,37.5C 45.7086,38.1698 44.0419,38.8365 42.5,39.5C 40.8958,40.287 40.2291,41.6203 40.5,43.5C 42.8056,43.0074 45.139,42.6741 47.5,42.5C 47.5,43.5 47.5,44.5 47.5,45.5C 45.5,45.5 43.5,45.5 41.5,45.5C 41.4208,46.9305 41.7542,48.2638 42.5,49.5C 40.4411,50.9512 39.4411,52.9512 39.5,55.5C 34.1667,55.5 28.8333,55.5 23.5,55.5C 24.9735,52.6905 26.1402,49.6905 27,46.5C 29.2924,47.6009 30.7924,46.7676 31.5,44C 33.5,43.6667 35.5,43.3333 37.5,43C 38.056,42.6174 38.3893,42.1174 38.5,41.5C 39.3636,40.3117 40.3636,39.1451 41.5,38C 39.9442,35.499 40.6108,33.999 43.5,33.5 Z"/></g>
<g><path style="opacity:1" fill="#8b4fc7" d="M 13.5,36.5 C 14.404,37.209 14.7373,38.209 14.5,39.5C 11.7395,38.9147 10.0728,39.9147 9.5,42.5C 11.9019,45.1035 11.2352,47.1035 7.5,48.5C 6.64808,50.9242 5.64808,53.2576 4.5,55.5C 2.83333,55.5 1.16667,55.5 -0.5,55.5C -0.5,52.8333 -0.5,50.1667 -0.5,47.5C 2.0991,47.4506 4.26577,46.4506 6,44.5C 6.61723,43.5509 6.45057,42.7175 5.5,42C 6.9389,41.0094 7.9389,39.676 8.5,38C 10.3124,36.6871 11.9791,36.1871 13.5,36.5 Z"/></g>
</svg>
