<svg version="1.0" xmlns="http://www.w3.org/2000/svg" width="480" height="480" viewBox="0 0 360 360"><g fill="#3070bf"><path d="M167.4 100c-3.1 1.2-6.4 5.9-6.4 9 0 5 2.6 6.7 12.9 8.5 19.8 3.3 33.7 10.3 47.1 23.5s20.5 26.7 24.4 46.4c1.9 9.3 2.6 11.3 4.8 12.9 2.2 1.7 3.1 1.8 6.1.8 6.2-2.1 7.2-4.1 7-14.5-.9-41.9-38-81-82.3-86.5-9.8-1.3-10.8-1.3-13.6-.1"/><path d="M166.3 130c-6.4 2.6-7.5 13.6-1.6 15.8 1.6.5 5.3 1.5 8.4 2.1 20.5 4.2 38.1 22.2 42.5 43.5 1.9 8.7 3.4 10.6 8.6 10.6 3 0 4.6-.7 6.9-2.9 2.5-2.5 2.9-3.7 2.9-8.4 0-7.3-3.3-19.5-7.2-27-2-3.9-6.5-9.4-11.8-14.7-6.8-6.9-10.2-9.4-17.1-12.8-12-5.9-25.6-8.6-31.6-6.2"/><path d="M147 160.5c-21 5.9-34.6 27.4-31.3 49.8 3.2 22.7 20.6 37.7 43.7 37.7 15.5 0 27.3-5.7 36.3-17.5 11.2-14.8 11.6-37.4.7-53.2-4.3-6.3-12.5-12.7-19.6-15.5s-22.2-3.4-29.8-1.3m23.1 23.3c8 4.2 11.3 9.4 11.7 18.6.3 5.8 0 8.1-1.6 11.2-4.2 8.1-11.3 12.4-20.4 12.4-6.9-.1-12.5-2.7-17-7.9-16.2-19 5.2-45.9 27.3-34.3"/><path d="M151.4 195.4c-2.9 2.9-3.4 4.1-3.4 8.1s.5 5.2 3.4 8.1c3 3 4 3.4 8.6 3.4 4.3 0 5.6-.5 8-2.8 3.8-3.8 4.7-8.9 2.5-13.6-2.1-4.4-5.9-6.6-11.6-6.6-3.3 0-4.7.6-7.5 3.4"/></g></svg>