<?xml version="1.0" encoding="UTF-8"?>
<!DOCTYPE svg PUBLIC "-//W3C//DTD SVG 1.1//EN" "http://www.w3.org/Graphics/SVG/1.1/DTD/svg11.dtd">
<svg xmlns="http://www.w3.org/2000/svg" version="1.1" width="28px" height="28px" style="shape-rendering:geometricPrecision; text-rendering:geometricPrecision; image-rendering:optimizeQuality; fill-rule:evenodd; clip-rule:evenodd" xmlns:xlink="http://www.w3.org/1999/xlink">
<g><path style="opacity:1" fill="#f3f3f3" d="M 1.5,-0.5 C 9.5,-0.5 17.5,-0.5 25.5,-0.5C 25.8333,0.5 26.5,1.16667 27.5,1.5C 27.5,9.5 27.5,17.5 27.5,25.5C 26.5,25.8333 25.8333,26.5 25.5,27.5C 17.5,27.5 9.5,27.5 1.5,27.5C 1.16667,26.5 0.5,25.8333 -0.5,25.5C -0.5,17.5 -0.5,9.5 -0.5,1.5C 0.5,1.16667 1.16667,0.5 1.5,-0.5 Z"/></g>
<g><path style="opacity:1" fill="#111314" d="M 2.5,1.5 C 9.8409,1.33368 17.1742,1.50034 24.5,2C 25.4558,5.39364 25.7892,8.89364 25.5,12.5C 21.0907,12.9657 17.0907,11.9657 13.5,9.5C 8.16667,12.1667 8.16667,14.8333 13.5,17.5C 17.0907,15.0343 21.0907,14.0343 25.5,14.5C 25.7892,18.1064 25.4558,21.6064 24.5,25C 17.1667,25.6667 9.83333,25.6667 2.5,25C 1.1818,17.1668 1.1818,9.33351 2.5,1.5 Z"/></g>
</svg>
