<?xml version="1.0" encoding="UTF-8"?>
<!DOCTYPE svg PUBLIC "-//W3C//DTD SVG 1.1//EN" "http://www.w3.org/Graphics/SVG/1.1/DTD/svg11.dtd">
<svg xmlns="http://www.w3.org/2000/svg" version="1.1" width="400px" height="400px" style="shape-rendering:geometricPrecision; text-rendering:geometricPrecision; image-rendering:optimizeQuality; fill-rule:evenodd; clip-rule:evenodd" xmlns:xlink="http://www.w3.org/1999/xlink">
<g><path style="opacity:1" fill="#fefefe" d="M -0.5,-0.5 C 132.833,-0.5 266.167,-0.5 399.5,-0.5C 399.5,132.833 399.5,266.167 399.5,399.5C 266.167,399.5 132.833,399.5 -0.5,399.5C -0.5,266.167 -0.5,132.833 -0.5,-0.5 Z"/></g>
<g><path style="opacity:1" fill="#d8998c" d="M 187.5,72.5 C 181.804,74.5606 175.804,75.5606 169.5,75.5C 175.223,73.5792 181.223,72.5792 187.5,72.5 Z"/></g>
<g><path style="opacity:1" fill="#d5785f" d="M 233.5,85.5 C 233.666,91.8421 233.5,98.1754 233,104.5C 230.772,106.113 228.272,106.78 225.5,106.5C 225.5,104.167 225.5,101.833 225.5,99.5C 230.694,99.5842 231.694,97.5842 228.5,93.5C 224.436,97.2716 222.769,101.938 223.5,107.5C 225.167,107.5 226.833,107.5 228.5,107.5C 228.543,111.893 228.043,112.226 227,108.5C 225.86,110.078 225.36,111.744 225.5,113.5C 223.335,115.725 220.668,116.891 217.5,117C 218.056,117.383 218.389,117.883 218.5,118.5C 207.674,119.33 196.674,119.83 185.5,120C 181.941,120.852 178.607,122.019 175.5,123.5C 158.097,129.239 144.097,139.572 133.5,154.5C 131.983,154.511 130.816,155.177 130,156.5C 128.587,158.652 127.754,160.986 127.5,163.5C 126.205,167.445 124.871,171.445 123.5,175.5C 122.5,175.5 121.5,175.5 120.5,175.5C 117.904,190.507 117.904,205.507 120.5,220.5C 116.581,226.35 115.581,232.683 117.5,239.5C 118.5,239.5 119.5,239.5 120.5,239.5C 120.174,235.116 120.508,230.783 121.5,226.5C 123.836,230.829 125.836,235.162 127.5,239.5C 129.027,240.931 130.694,242.265 132.5,243.5C 136.167,247.5 139.833,251.5 143.5,255.5C 152.216,265.196 162.883,271.863 175.5,275.5C 179.207,277.19 183.207,278.356 187.5,279C 199.709,280.238 211.709,279.404 223.5,276.5C 227.462,275.624 231.462,274.958 235.5,274.5C 235.5,273.5 235.5,272.5 235.5,271.5C 239.197,269.495 242.864,267.495 246.5,265.5C 250.042,264.971 252.709,263.138 254.5,260C 258.137,260.316 260.804,258.982 262.5,256C 261.692,255.692 261.025,255.192 260.5,254.5C 261.859,252.308 263.692,250.641 266,249.5C 266.49,248.207 266.657,246.873 266.5,245.5C 267.938,242.283 269.605,239.283 271.5,236.5C 272.822,236.67 273.989,236.337 275,235.5C 276.476,230.986 277.476,226.319 278,221.5C 280.243,217.869 281.077,213.869 280.5,209.5C 281.359,205.108 283.693,201.775 287.5,199.5C 292.537,196.775 297.87,195.109 303.5,194.5C 304.167,194.5 304.833,194.5 305.5,194.5C 308.141,196.453 311.141,197.953 314.5,199C 315.872,200.242 316.872,201.742 317.5,203.5C 318.689,204.429 320.022,204.762 321.5,204.5C 323.136,205.749 324.303,207.416 325,209.5C 325.667,214.833 325.667,220.167 325,225.5C 307.598,289.389 265.765,323.389 199.5,327.5C 195.475,327.332 191.475,326.999 187.5,326.5C 182.562,324.053 177.228,323.053 171.5,323.5C 127.111,312.283 96.6114,285.283 80,242.5C 78.2602,237.965 77.0935,233.298 76.5,228.5C 76.5715,225.807 76.9049,223.14 77.5,220.5C 77.3779,218.209 76.5446,216.209 75,214.5C 74.5001,202.505 74.3335,190.505 74.5,178.5C 75.0699,171.221 76.7366,164.221 79.5,157.5C 80.7206,156.972 81.8873,156.305 83,155.5C 84.5387,150.849 85.7054,146.182 86.5,141.5C 91.9977,130.024 99.3311,120.024 108.5,111.5C 109.5,111.5 110.5,111.5 111.5,111.5C 111.5,110.5 111.5,109.5 111.5,108.5C 127.493,91.8309 146.827,80.8309 169.5,75.5C 175.804,75.5606 181.804,74.5606 187.5,72.5C 197.834,71.2908 208.168,71.4574 218.5,73C 225.25,75.2653 230.25,79.4319 233.5,85.5 Z"/></g>
<g><path style="opacity:1" fill="#ce8274" d="M 313.5,91.5 C 309.701,90.9526 305.868,90.6192 302,90.5C 297.11,90.5861 292.61,91.5861 288.5,93.5C 292.254,89.7145 296.92,88.0478 302.5,88.5C 305.903,88.5611 309.236,89.0611 312.5,90C 313.056,90.3826 313.389,90.8826 313.5,91.5 Z"/></g>
<g><path style="opacity:1" fill="#d57860" d="M 313.5,91.5 C 317.413,92.4499 320.08,94.7833 321.5,98.5C 323.644,102.834 324.644,107.501 324.5,112.5C 324.333,114.833 324.167,117.167 324,119.5C 321.961,120.978 321.128,122.978 321.5,125.5C 282.057,166.443 242.057,206.943 201.5,247C 200.5,247.667 199.5,247.667 198.5,247C 184.57,232.016 170.07,217.516 155,203.5C 154.487,202.473 153.987,201.473 153.5,200.5C 150.957,194.415 150.124,188.082 151,181.5C 151.308,180.692 151.808,180.025 152.5,179.5C 153.167,183.5 153.833,187.5 154.5,191.5C 155.579,186.449 155.246,181.449 153.5,176.5C 154.493,172.999 156.493,170.166 159.5,168C 163.485,167.06 167.485,166.227 171.5,165.5C 174.427,166.296 177.26,166.296 180,165.5C 181.993,166.914 184.16,167.914 186.5,168.5C 191.031,172.368 195.531,176.368 200,180.5C 202.306,178.168 204.806,176.168 207.5,174.5C 206.846,178.316 204.846,181.149 201.5,183C 210.738,190.905 219.238,199.405 227,208.5C 227.75,207.874 228.584,207.374 229.5,207C 223.425,195.352 217.425,183.519 211.5,171.5C 210.817,171.863 210.15,172.196 209.5,172.5C 223.9,157.93 238.233,143.097 252.5,128C 253.448,127.517 254.448,127.351 255.5,127.5C 255.351,126.448 255.517,125.448 256,124.5C 260.5,120.667 264.667,116.5 268.5,112C 269.448,111.517 270.448,111.351 271.5,111.5C 276.488,104.846 282.155,98.8457 288.5,93.5C 292.61,91.5861 297.11,90.5861 302,90.5C 305.868,90.6192 309.701,90.9526 313.5,91.5 Z"/></g>
<g><path style="opacity:1" fill="#d07c67" d="M 233.5,85.5 C 239.25,98.9199 235.917,109.587 223.5,117.5C 221.883,118.038 220.216,118.371 218.5,118.5C 218.389,117.883 218.056,117.383 217.5,117C 220.668,116.891 223.335,115.725 225.5,113.5C 225.36,111.744 225.86,110.078 227,108.5C 228.043,112.226 228.543,111.893 228.5,107.5C 226.833,107.5 225.167,107.5 223.5,107.5C 222.769,101.938 224.436,97.2716 228.5,93.5C 231.694,97.5842 230.694,99.5842 225.5,99.5C 225.5,101.833 225.5,104.167 225.5,106.5C 228.272,106.78 230.772,106.113 233,104.5C 233.5,98.1754 233.666,91.8421 233.5,85.5 Z"/></g>
<g><path style="opacity:1" fill="#d49492" d="M 111.5,108.5 C 111.5,109.5 111.5,110.5 111.5,111.5C 110.5,111.5 109.5,111.5 108.5,111.5C 108.5,109.5 109.5,108.5 111.5,108.5 Z"/></g>
<g><path style="opacity:1" fill="#f9e3dc" d="M 223.5,117.5 C 223.5,118.5 223.5,119.5 223.5,120.5C 212.828,120.333 202.161,120.5 191.5,121C 186.257,122.478 180.924,123.312 175.5,123.5C 178.607,122.019 181.941,120.852 185.5,120C 196.674,119.83 207.674,119.33 218.5,118.5C 220.216,118.371 221.883,118.038 223.5,117.5 Z"/></g>
<g><path style="opacity:1" fill="#ca8475" d="M 321.5,98.5 C 324.934,101.881 326.601,106.047 326.5,111C 326.731,116.618 325.064,121.451 321.5,125.5C 321.128,122.978 321.961,120.978 324,119.5C 324.167,117.167 324.333,114.833 324.5,112.5C 324.644,107.501 323.644,102.834 321.5,98.5 Z"/></g>
<g><path style="opacity:1" fill="#cd8574" d="M 86.5,141.5 C 85.7054,146.182 84.5387,150.849 83,155.5C 81.8873,156.305 80.7206,156.972 79.5,157.5C 81.3221,151.864 83.6554,146.531 86.5,141.5 Z"/></g>
<g><path style="opacity:1" fill="#c57f74" d="M 133.5,154.5 C 131.735,157.709 129.735,160.709 127.5,163.5C 127.754,160.986 128.587,158.652 130,156.5C 130.816,155.177 131.983,154.511 133.5,154.5 Z"/></g>
<g><path style="opacity:1" fill="#cd8779" d="M 178.5,164.5 C 172.013,164.152 165.68,164.818 159.5,166.5C 164.908,162.915 170.908,161.749 177.5,163C 178.056,163.383 178.389,163.883 178.5,164.5 Z"/></g>
<g><path style="opacity:1" fill="#ce7d6a" d="M 178.5,164.5 C 181.754,164.794 184.421,166.127 186.5,168.5C 184.16,167.914 181.993,166.914 180,165.5C 177.26,166.296 174.427,166.296 171.5,165.5C 167.485,166.227 163.485,167.06 159.5,168C 156.493,170.166 154.493,172.999 153.5,176.5C 155.246,181.449 155.579,186.449 154.5,191.5C 153.833,187.5 153.167,183.5 152.5,179.5C 151.808,180.025 151.308,180.692 151,181.5C 150.124,188.082 150.957,194.415 153.5,200.5C 151.163,198.035 149.663,195.035 149,191.5C 146.612,180.452 150.112,172.119 159.5,166.5C 165.68,164.818 172.013,164.152 178.5,164.5 Z"/></g>
<g><path style="opacity:1" fill="#cb6952" d="M 207.5,174.5 C 207.5,173.167 208.167,172.5 209.5,172.5C 210.15,172.196 210.817,171.863 211.5,171.5C 217.425,183.519 223.425,195.352 229.5,207C 228.584,207.374 227.75,207.874 227,208.5C 219.238,199.405 210.738,190.905 201.5,183C 204.846,181.149 206.846,178.316 207.5,174.5 Z"/></g>
<g><path style="opacity:1" fill="#cf8471" d="M 74.5,178.5 C 74.3335,190.505 74.5001,202.505 75,214.5C 76.5446,216.209 77.3779,218.209 77.5,220.5C 76.9049,223.14 76.5715,225.807 76.5,228.5C 73.7946,217.809 72.4612,206.809 72.5,195.5C 72.3048,189.583 72.9715,183.916 74.5,178.5 Z"/></g>
<g><path style="opacity:1" fill="#cd8b7b" d="M 303.5,194.5 C 297.87,195.109 292.537,196.775 287.5,199.5C 291.825,195.105 297.158,193.438 303.5,194.5 Z"/></g>
<g><path style="opacity:1" fill="#cb826f" d="M 305.5,194.5 C 312.552,195.346 317.886,198.679 321.5,204.5C 320.022,204.762 318.689,204.429 317.5,203.5C 316.872,201.742 315.872,200.242 314.5,199C 311.141,197.953 308.141,196.453 305.5,194.5 Z"/></g>
<g><path style="opacity:1" fill="#cf7c64" d="M 123.5,175.5 C 120.045,185.9 118.879,196.566 120,207.5C 121.814,216.765 124.314,225.765 127.5,234.5C 127.5,236.167 127.5,237.833 127.5,239.5C 125.836,235.162 123.836,230.829 121.5,226.5C 120.508,230.783 120.174,235.116 120.5,239.5C 119.5,239.5 118.5,239.5 117.5,239.5C 115.581,232.683 116.581,226.35 120.5,220.5C 117.904,205.507 117.904,190.507 120.5,175.5C 121.5,175.5 122.5,175.5 123.5,175.5 Z"/></g>
<g><path style="opacity:1" fill="#d08779" d="M 280.5,209.5 C 281.077,213.869 280.243,217.869 278,221.5C 277.476,226.319 276.476,230.986 275,235.5C 273.989,236.337 272.822,236.67 271.5,236.5C 275.133,227.602 278.133,218.602 280.5,209.5 Z"/></g>
<g><path style="opacity:1" fill="#c9887d" d="M 127.5,234.5 C 129.723,237.144 131.389,240.144 132.5,243.5C 130.694,242.265 129.027,240.931 127.5,239.5C 127.5,237.833 127.5,236.167 127.5,234.5 Z"/></g>
<g><path style="opacity:1" fill="#d0806b" d="M 266.5,245.5 C 266.657,246.873 266.49,248.207 266,249.5C 263.692,250.641 261.859,252.308 260.5,254.5C 261.025,255.192 261.692,255.692 262.5,256C 260.804,258.982 258.137,260.316 254.5,260C 252.709,263.138 250.042,264.971 246.5,265.5C 253.473,259.194 260.14,252.527 266.5,245.5 Z"/></g>
<g><path style="opacity:1" fill="#fdf1e8" d="M 143.5,255.5 C 145.199,255.34 146.866,255.506 148.5,256C 148.167,256.333 147.833,256.667 147.5,257C 148.939,257.991 149.939,259.324 150.5,261C 153.583,262.332 156.249,264.165 158.5,266.5C 159.086,266.291 159.586,265.957 160,265.5C 162.717,266.629 165.217,268.129 167.5,270C 167.167,270.333 166.833,270.667 166.5,271C 170.173,271.503 173.173,273.003 175.5,275.5C 162.883,271.863 152.216,265.196 143.5,255.5 Z"/></g>
<g><path style="opacity:1" fill="#cc887a" d="M 235.5,271.5 C 235.5,272.5 235.5,273.5 235.5,274.5C 231.462,274.958 227.462,275.624 223.5,276.5C 227.429,274.852 231.429,273.185 235.5,271.5 Z"/></g>
<g><path style="opacity:1" fill="#d28f80" d="M 171.5,323.5 C 177.228,323.053 182.562,324.053 187.5,326.5C 181.816,326.739 176.482,325.739 171.5,323.5 Z"/></g>
</svg>
