<?xml version="1.0" encoding="UTF-8"?>
<!DOCTYPE svg PUBLIC "-//W3C//DTD SVG 1.1//EN" "http://www.w3.org/Graphics/SVG/1.1/DTD/svg11.dtd">
<svg xmlns="http://www.w3.org/2000/svg" version="1.1" width="28px" height="28px" style="shape-rendering:geometricPrecision; text-rendering:geometricPrecision; image-rendering:optimizeQuality; fill-rule:evenodd; clip-rule:evenodd" xmlns:xlink="http://www.w3.org/1999/xlink">
<g><path style="opacity:0.988" fill="#0c61fe" d="M -0.5,-0.5 C 8.83333,-0.5 18.1667,-0.5 27.5,-0.5C 27.5,8.83333 27.5,18.1667 27.5,27.5C 18.1667,27.5 8.83333,27.5 -0.5,27.5C -0.5,18.1667 -0.5,8.83333 -0.5,-0.5 Z"/></g>
<g><path style="opacity:1" fill="#e3e9f3" d="M 12.5,13.5 C 12.0334,16.2974 10.3667,17.6308 7.5,17.5C 3.52651,15.5397 3.52651,13.5397 7.5,11.5C 5.01975,10.5846 4.35308,9.08461 5.5,7C 8.45486,4.7087 10.7882,5.2087 12.5,8.5C 11.7366,9.71927 10.7366,10.7193 9.5,11.5C 10.0047,12.9185 11.0047,13.5852 12.5,13.5 Z"/></g>
<g><path style="opacity:1" fill="#e7ecf3" d="M 19.5,17.5 C 16.796,17.3304 15.1293,15.9971 14.5,13.5C 15.9953,13.5852 16.9953,12.9185 17.5,11.5C 14.1771,10.0622 13.8438,8.22887 16.5,6C 22.4792,5.75429 23.4792,7.58762 19.5,11.5C 20.2634,12.7193 21.2634,13.7193 22.5,14.5C 21.6602,15.735 20.6602,16.735 19.5,17.5 Z"/></g>
<g><path style="opacity:1" fill="#5889fb" d="M 12.5,13.5 C 13.1667,13.5 13.8333,13.5 14.5,13.5C 15.1293,15.9971 16.796,17.3304 19.5,17.5C 19.0679,18.7095 18.4013,19.7095 17.5,20.5C 14.8333,15.1667 12.1667,15.1667 9.5,20.5C 8.59872,19.7095 7.93205,18.7095 7.5,17.5C 10.3667,17.6308 12.0334,16.2974 12.5,13.5 Z"/></g>
<g><path style="opacity:1" fill="#eceff2" d="M 17.5,20.5 C 16.1932,21.1534 14.8599,21.8201 13.5,22.5C 12.1401,21.8201 10.8068,21.1534 9.5,20.5C 12.1667,15.1667 14.8333,15.1667 17.5,20.5 Z"/></g>
</svg>
