<svg xmlns="http://www.w3.org/2000/svg" width="28" height="28" style="shape-rendering:geometricPrecision;text-rendering:geometricPrecision;image-rendering:optimizeQuality;fill-rule:evenodd;clip-rule:evenodd"><path style="opacity:.699" fill="#d4d2d6" d="M7.5 2.5q3.535-.245 7 .5 1.255 1.517 1 3.5h-8z"/><path style="opacity:1" fill="#f48d81" d="M17.5 2.5q5.04 1.055 1 4-3.213-1.405-1-4"/><path style="opacity:.831" fill="#fbcc50" d="M3.5 7.5h4v3a8.4 8.4 0 0 1-4-.5q-1.647-1.155 0-2.5"/><path style="opacity:.877" fill="#049568" d="M8.5 7.5h10v3h-10z"/><path style="opacity:.795" fill="#d4d2d5" d="M19.5 7.5h5v3h-5z"/><path style="opacity:.734" fill="#d4d1d5" d="M2.5 11.5h5q-.3 5.775-5.5 3-.705-1.616.5-3"/><path style="opacity:.806" fill="#049568" d="M9.5 11.5q3.715-.675 6 2-2.316 2.919-6 1.5-1.776-1.719 0-3.5"/><path style="opacity:.707" fill="#d4d2d5" d="M16.5 11.5a32.4 32.4 0 0 1 8 .5q2 1.5 0 3a32.4 32.4 0 0 1-8 .5z"/><path style="opacity:.775" fill="#d4d2d6" d="M2.5 16.5h5v3q-4.178.876-5-3"/><path style="opacity:.822" fill="#049568" d="M8.5 16.5h3v3h-3z"/><path style="opacity:.865" fill="#d4d3d7" d="M12.5 16.5h12v3h-12z"/><path style="opacity:.656" fill="#d4d3d7" d="M7.5 20.5q6.798-.645 13 1.5-.685.621-1 1.5a24.56 24.56 0 0 1-12 .5q-1.776-1.718 0-3.5"/></svg>