<svg xmlns="http://www.w3.org/2000/svg" width="32" height="32" style="shape-rendering:geometricPrecision;text-rendering:geometricPrecision;image-rendering:optimizeQuality;fill-rule:evenodd;clip-rule:evenodd"><path style="opacity:.942" fill="#17191c" d="M5.5-.5h20a25.6 25.6 0 0 1 6 6v20a25.6 25.6 0 0 1-6 6h-20a25.6 25.6 0 0 1-6-6v-20a25.6 25.6 0 0 1 6-6"/><path style="opacity:1" fill="#e2e3e3" d="M10.5 3.5q18.564-2.184 16.5 16-3.157 8.09-12 8-14.1-2.664-11-17 2.54-4.287 6.5-7"/><path style="opacity:1" fill="#181a1d" d="M12.5 5.5q9.092-.334 12.5 8 1.553 8.133-6.5 10.5Q4 25.995 7 11.5q2.04-3.784 5.5-6"/></svg>