<?xml version="1.0" encoding="UTF-8"?>
<!DOCTYPE svg PUBLIC "-//W3C//DTD SVG 1.1//EN" "http://www.w3.org/Graphics/SVG/1.1/DTD/svg11.dtd">
<svg xmlns="http://www.w3.org/2000/svg" version="1.1" width="94px" height="94px" style="shape-rendering:geometricPrecision; text-rendering:geometricPrecision; image-rendering:optimizeQuality; fill-rule:evenodd; clip-rule:evenodd" xmlns:xlink="http://www.w3.org/1999/xlink">
<g><path style="opacity:0.008" fill="#7f7fff" d="M 64.5,11.5 C 65.8333,12.1667 65.8333,12.1667 64.5,11.5 Z"/></g>
<g><path style="opacity:0.996" fill="#945bee" d="M 41.5,21.5 C 40.8333,21.5 40.1667,21.5 39.5,21.5C 35.159,22.6332 31.9924,20.9665 30,16.5C 29.2411,18.0629 28.0744,19.0629 26.5,19.5C 27.5063,18.6043 27.5063,17.9377 26.5,17.5C 26.1617,13.8493 27.8284,12.1826 31.5,12.5C 35.5207,11.4949 39.5207,11.4949 43.5,12.5C 44.4564,15.9525 46.4564,18.4525 49.5,20C 46.6353,20.1829 43.9686,20.6829 41.5,21.5 Z"/></g>
<g><path style="opacity:1" fill="#d295e7" d="M 26.5,17.5 C 27.5063,17.9377 27.5063,18.6043 26.5,19.5C 21.8483,22.4863 17.8483,26.1529 14.5,30.5C 13.8333,30.5 13.1667,30.5 12.5,30.5C 11.475,30.1034 11.3083,29.4368 12,28.5C 13.3639,29.2583 14.5305,28.7583 15.5,27C 14.5494,26.2825 14.3828,25.4491 15,24.5C 16.5,23 18,21.5 19.5,20C 20.4491,19.3828 21.2825,19.5494 22,20.5C 22.1971,18.4845 23.1971,16.4845 25,14.5C 25.2321,15.7375 25.7321,16.7375 26.5,17.5 Z"/></g>
<g><path style="opacity:1" fill="#ededee" d="M 39.5,21.5 C 40.1667,21.5 40.8333,21.5 41.5,21.5C 53.4666,20.4042 63.3,24.4042 71,33.5C 71.4643,34.0944 71.631,34.7611 71.5,35.5C 69.2034,33.7059 67.0367,31.7059 65,29.5C 58.4292,38.0589 49.9292,43.8923 39.5,47C 35.9049,47.5844 32.4049,48.4177 29,49.5C 27.8525,48.5419 26.8525,48.8753 26,50.5C 23.1878,49.5024 20.3544,49.3358 17.5,50C 16.5939,48.3005 16.2606,46.4672 16.5,44.5C 20.4649,33.2017 28.1316,25.5351 39.5,21.5 Z"/></g>
<g><path style="opacity:1" fill="#e8e8ea" d="M 71.5,35.5 C 74.2945,37.8193 76.1278,40.8193 77,44.5C 77.948,50.3505 77.448,56.0172 75.5,61.5C 74.2101,60.9423 73.3768,59.9423 73,58.5C 70.6833,61.0965 67.85,61.9299 64.5,61C 63.8095,59.9326 63.3095,58.7659 63,57.5C 62.2303,58.5981 61.397,58.5981 60.5,57.5C 57.0518,54.4686 54.0518,54.9686 51.5,59C 49.7216,59.704 47.8882,60.204 46,60.5C 42.4731,59.4625 39.3064,57.7959 36.5,55.5C 34.3472,55.5613 33.0138,56.5613 32.5,58.5C 32.3893,59.1174 32.056,59.6174 31.5,60C 34.8462,66.6549 32.8462,69.3216 25.5,68C 28.0891,69.1965 30.7558,70.1965 33.5,71C 32.552,71.4828 31.552,71.6495 30.5,71.5C 18.9522,67.7609 13.9522,59.7609 15.5,47.5C 15.2627,46.209 15.596,45.209 16.5,44.5C 16.2606,46.4672 16.5939,48.3005 17.5,50C 20.3544,49.3358 23.1878,49.5024 26,50.5C 26.8525,48.8753 27.8525,48.5419 29,49.5C 32.4049,48.4177 35.9049,47.5844 39.5,47C 49.9292,43.8923 58.4292,38.0589 65,29.5C 67.0367,31.7059 69.2034,33.7059 71.5,35.5 Z"/></g>
<g><path style="opacity:1" fill="#59b2ed" d="M 64.5,12.5 C 65.8321,13.8304 66.6655,15.4971 67,17.5C 67.3333,16.5 67.6667,15.5 68,14.5C 68.4652,15.9308 69.2986,17.0975 70.5,18C 69.3463,18.9138 69.513,19.7471 71,20.5C 71.7175,19.5494 72.5509,19.3828 73.5,20C 75,21.5 76.5,23 78,24.5C 78.6172,25.4491 78.4506,26.2825 77.5,27C 78.4695,28.7583 79.6361,29.2583 81,28.5C 81.6172,29.4491 81.4506,30.2825 80.5,31C 81.3617,33.7344 82.195,33.9011 83,31.5C 84.1882,32.5634 84.6882,33.8967 84.5,35.5C 83.6618,35.8417 83.3284,36.5084 83.5,37.5C 82.9101,38.766 82.4101,40.0993 82,41.5C 77.5486,36.9258 72.882,32.5925 68,28.5C 65.1532,21.1481 59.9865,16.4814 52.5,14.5C 52.5,13.5 52.5,12.5 52.5,11.5C 48.2022,10.8005 43.8689,10.4672 39.5,10.5C 44.8401,9.71852 50.3401,9.05186 56,8.5C 57.8882,8.79603 59.7216,9.29603 61.5,10C 60.5,10.3333 59.5,10.6667 58.5,11C 60.4357,11.813 62.4357,12.313 64.5,12.5 Z"/></g>
<g><path style="opacity:0.008" fill="#d455f4" d="M 8.5,35.5 C 8.5,36.1667 8.5,36.8333 8.5,37.5C 7.66175,37.8417 7.32842,38.5084 7.5,39.5C 7.16667,39.5 6.83333,39.5 6.5,39.5C 6.22911,37.6203 6.89578,36.287 8.5,35.5 Z"/></g>
<g><path style="opacity:0.012" fill="#6a82eb" d="M 84.5,35.5 C 86.1042,36.287 86.7709,37.6203 86.5,39.5C 86.1667,39.5 85.8333,39.5 85.5,39.5C 85.6716,38.5084 85.3382,37.8417 84.5,37.5C 84.5,36.8333 84.5,36.1667 84.5,35.5 Z"/></g>
<g><path style="opacity:1" fill="#bc3eed" d="M 39.5,21.5 C 28.1316,25.5351 20.4649,33.2017 16.5,44.5C 15.596,45.209 15.2627,46.209 15.5,47.5C 14.6805,50.3054 14.1805,53.3054 14,56.5C 12.1895,51.9218 10.6895,47.2551 9.5,42.5C 10.246,38.0968 11.9127,34.0968 14.5,30.5C 17.8483,26.1529 21.8483,22.4863 26.5,19.5C 28.0744,19.0629 29.2411,18.0629 30,16.5C 31.9924,20.9665 35.159,22.6332 39.5,21.5 Z"/></g>
<g><path style="opacity:0.012" fill="#ee66ff" d="M 6.5,39.5 C 6.5,40.5 6.5,41.5 6.5,42.5C 5.83333,42.5 5.16667,42.5 4.5,42.5C 4.93205,41.2905 5.59872,40.2905 6.5,39.5 Z"/></g>
<g><path style="opacity:1" fill="#4e9fe9" d="M 39.5,10.5 C 43.8689,10.4672 48.2022,10.8005 52.5,11.5C 52.5,12.5 52.5,13.5 52.5,14.5C 59.9865,16.4814 65.1532,21.1481 68,28.5C 72.882,32.5925 77.5486,36.9258 82,41.5C 82.4101,40.0993 82.9101,38.766 83.5,37.5C 83.8333,37.5 84.1667,37.5 84.5,37.5C 84.3284,38.4916 84.6618,39.1583 85.5,39.5C 85.8333,43.5 86.1667,43.5 86.5,39.5C 89.4681,41.4936 91.4681,43.8269 92.5,46.5C 92.5,46.8333 92.5,47.1667 92.5,47.5C 91.8826,47.6107 91.3826,47.944 91,48.5C 90.6667,50.8333 90.3333,53.1667 90,55.5C 88.0414,56.7481 86.5414,58.4148 85.5,60.5C 83.8793,58.3761 82.046,56.3761 80,54.5C 78.6244,58.1677 76.7911,61.501 74.5,64.5C 74.5569,63.391 74.8902,62.391 75.5,61.5C 77.448,56.0172 77.948,50.3505 77,44.5C 76.1278,40.8193 74.2945,37.8193 71.5,35.5C 71.631,34.7611 71.4643,34.0944 71,33.5C 63.3,24.4042 53.4666,20.4042 41.5,21.5C 43.9686,20.6829 46.6353,20.1829 49.5,20C 46.4564,18.4525 44.4564,15.9525 43.5,12.5C 39.5207,11.4949 35.5207,11.4949 31.5,12.5C 33.8383,10.9605 36.5049,10.2938 39.5,10.5 Z"/></g>
<g><path style="opacity:0.008" fill="#7f7fff" d="M 93.5,45.5 C 93.5,45.8333 93.5,46.1667 93.5,46.5C 92.8299,46.0187 92.8299,45.6853 93.5,45.5 Z"/></g>
<g><path style="opacity:1" fill="#dbdade" d="M 60.5,57.5 C 61.397,58.5981 62.2303,58.5981 63,57.5C 63.3095,58.7659 63.8095,59.9326 64.5,61C 67.85,61.9299 70.6833,61.0965 73,58.5C 73.3768,59.9423 74.2101,60.9423 75.5,61.5C 74.8902,62.391 74.5569,63.391 74.5,64.5C 69.4847,68.8397 63.818,71.8397 57.5,73.5C 55.8333,73.5 54.1667,73.5 52.5,73.5C 46.1579,73.6662 39.8246,73.4995 33.5,73C 32.2625,72.7679 31.2625,72.2679 30.5,71.5C 31.552,71.6495 32.552,71.4828 33.5,71C 30.7558,70.1965 28.0891,69.1965 25.5,68C 32.8462,69.3216 34.8462,66.6549 31.5,60C 32.056,59.6174 32.3893,59.1174 32.5,58.5C 38.8957,65.9833 46.5624,67.4833 55.5,63C 57.3734,61.2962 59.0401,59.4628 60.5,57.5 Z"/></g>
<g><path style="opacity:0.012" fill="#ed44ed" d="M -0.5,59.5 C -0.166667,59.5 0.166667,59.5 0.5,59.5C 0.767809,61.099 0.434475,62.4324 -0.5,63.5C -0.5,62.1667 -0.5,60.8333 -0.5,59.5 Z"/></g>
<g><path style="opacity:0.012" fill="#4c3fcb" d="M 92.5,59.5 C 92.8333,59.5 93.1667,59.5 93.5,59.5C 93.5,60.8333 93.5,62.1667 93.5,63.5C 92.5655,62.4324 92.2322,61.099 92.5,59.5 Z"/></g>
<g><path style="opacity:1" fill="#d956e6" d="M 12.5,30.5 C 13.1667,30.5 13.8333,30.5 14.5,30.5C 11.9127,34.0968 10.246,38.0968 9.5,42.5C 10.6895,47.2551 12.1895,51.9218 14,56.5C 14.1805,53.3054 14.6805,50.3054 15.5,47.5C 13.9522,59.7609 18.9522,67.7609 30.5,71.5C 31.2625,72.2679 32.2625,72.7679 33.5,73C 39.8246,73.4995 46.1579,73.6662 52.5,73.5C 45.6866,74.4912 38.6866,74.8245 31.5,74.5C 31.2865,76.1439 31.6198,77.6439 32.5,79C 31.2068,79.49 29.8734,79.6567 28.5,79.5C 27.1667,79.5 25.8333,79.5 24.5,79.5C 23.1667,79.8333 23.1667,80.1667 24.5,80.5C 24.44,81.0431 24.1067,81.3764 23.5,81.5C 21.3703,80.5328 19.3703,79.3662 17.5,78C 17.6192,76.7188 17.1192,75.5521 16,74.5C 15.586,74.9574 15.086,75.2907 14.5,75.5C 12.8849,74.846 11.2182,74.346 9.5,74C 10.1667,73.6667 10.8333,73.3333 11.5,73C 9.95558,71.8129 8.28891,71.4795 6.5,72C 8.88081,73.2465 8.54747,73.5798 5.5,73C 5.79367,71.3464 5.12701,69.8464 3.5,68.5C 3.67158,67.5084 3.33825,66.8417 2.5,66.5C 2.67158,65.5084 2.33825,64.8417 1.5,64.5C 1.78448,62.5853 1.45115,60.9187 0.5,59.5C 0.334316,55.1539 0.500982,50.8206 1,46.5C 2.75827,45.5305 3.25827,44.3639 2.5,43C 3.09442,42.5357 3.76109,42.369 4.5,42.5C 5.16667,43.8333 5.83333,43.8333 6.5,42.5C 7.40397,41.791 7.73731,40.791 7.5,39.5C 8.33825,39.1583 8.67158,38.4916 8.5,37.5C 9.83333,36.8333 9.83333,36.1667 8.5,35.5C 8.31181,33.8967 8.81181,32.5634 10,31.5C 11.0074,33.7416 11.8407,33.4082 12.5,30.5 Z"/></g>
<g><path style="opacity:1" fill="#1a1816" d="M 60.5,57.5 C 59.0401,59.4628 57.3734,61.2962 55.5,63C 46.5624,67.4833 38.8957,65.9833 32.5,58.5C 33.0138,56.5613 34.3472,55.5613 36.5,55.5C 39.3064,57.7959 42.4731,59.4625 46,60.5C 47.8882,60.204 49.7216,59.704 51.5,59C 54.0518,54.9686 57.0518,54.4686 60.5,57.5 Z"/></g>
<g><path style="opacity:1" fill="#4972d4" d="M 92.5,47.5 C 92.5,51.5 92.5,55.5 92.5,59.5C 91.5489,60.9187 91.2155,62.5853 91.5,64.5C 90.6618,64.8417 90.3284,65.5084 90.5,66.5C 89.6618,66.8417 89.3284,67.5084 89.5,68.5C 88.6618,68.8417 88.3284,69.5084 88.5,70.5C 87.1667,70.8333 87.1667,71.1667 88.5,71.5C 87.6857,73.2726 86.3524,73.7726 84.5,73C 86.8808,71.7535 86.5475,71.4202 83.5,72C 80.8333,72.6667 80.8333,73.3333 83.5,74C 81.4817,74.5046 79.4817,75.0046 77.5,75.5C 77.5,75.1667 77.5,74.8333 77.5,74.5C 78.8333,74.1667 78.8333,73.8333 77.5,73.5C 77.3601,71.8762 78.0267,70.7096 79.5,70C 76.0608,65.4052 72.7275,65.5718 69.5,70.5C 66.8061,71.7535 64.1394,72.7535 61.5,73.5C 60.1667,73.5 58.8333,73.5 57.5,73.5C 63.818,71.8397 69.4847,68.8397 74.5,64.5C 76.7911,61.501 78.6244,58.1677 80,54.5C 82.046,56.3761 83.8793,58.3761 85.5,60.5C 86.5414,58.4148 88.0414,56.7481 90,55.5C 90.3333,53.1667 90.6667,50.8333 91,48.5C 91.3826,47.944 91.8826,47.6107 92.5,47.5 Z"/></g>
<g><path style="opacity:0.008" fill="#e96ae9" d="M 1.5,64.5 C 1.5,65.1667 1.5,65.8333 1.5,66.5C 0.166667,65.8333 0.166667,65.1667 1.5,64.5 Z"/></g>
<g><path style="opacity:0.008" fill="#6168e9" d="M 91.5,64.5 C 92.8333,65.1667 92.8333,65.8333 91.5,66.5C 91.5,65.8333 91.5,65.1667 91.5,64.5 Z"/></g>
<g><path style="opacity:0.008" fill="#e96ae9" d="M 1.5,66.5 C 1.83333,66.5 2.16667,66.5 2.5,66.5C 2.5,67.1667 2.5,67.8333 2.5,68.5C 1.66175,68.1583 1.32842,67.4916 1.5,66.5 Z"/></g>
<g><path style="opacity:0.008" fill="#6168e9" d="M 90.5,66.5 C 90.8333,66.5 91.1667,66.5 91.5,66.5C 91.6716,67.4916 91.3382,68.1583 90.5,68.5C 90.5,67.8333 90.5,67.1667 90.5,66.5 Z"/></g>
<g><path style="opacity:0.004" fill="#381337" d="M 2.5,68.5 C 2.83333,68.5 3.16667,68.5 3.5,68.5C 3.16667,71.1667 2.83333,71.1667 2.5,68.5 Z"/></g>
<g><path style="opacity:0.004" fill="#1731e2" d="M 89.5,68.5 C 89.8333,68.5 90.1667,68.5 90.5,68.5C 90.6716,69.4916 90.3382,70.1583 89.5,70.5C 89.5,69.8333 89.5,69.1667 89.5,68.5 Z"/></g>
<g><path style="opacity:0.008" fill="#00007f" d="M 88.5,70.5 C 88.8333,70.5 89.1667,70.5 89.5,70.5C 89.3147,71.1701 88.9813,71.1701 88.5,70.5 Z"/></g>
<g><path style="opacity:1" fill="#5a3ec5" d="M 77.5,73.5 C 77.5,73.8333 77.5,74.1667 77.5,74.5C 76.8333,74.5 76.5,74.8333 76.5,75.5C 75.1667,75.8333 75.1667,76.1667 76.5,76.5C 73.4903,80.1817 69.8236,81.8483 65.5,81.5C 64.5,81.5 63.5,81.5 62.5,81.5C 63.4831,80.1497 64.8164,79.1497 66.5,78.5C 64.0087,77.4593 64.0087,76.6259 66.5,76C 65.3474,74.117 63.6807,73.2837 61.5,73.5C 64.1394,72.7535 66.8061,71.7535 69.5,70.5C 72.7275,65.5718 76.0608,65.4052 79.5,70C 78.0267,70.7096 77.3601,71.8762 77.5,73.5 Z"/></g>
<g><path style="opacity:0.012" fill="#5555aa" d="M 76.5,75.5 C 76.8333,75.5 77.1667,75.5 77.5,75.5C 77.3147,76.1701 76.9813,76.1701 76.5,75.5 Z"/></g>
<g><path style="opacity:1" fill="#912ce1" d="M 52.5,73.5 C 54.1667,73.5 55.8333,73.5 57.5,73.5C 58.8333,73.5 60.1667,73.5 61.5,73.5C 63.6807,73.2837 65.3474,74.117 66.5,76C 64.0087,76.6259 64.0087,77.4593 66.5,78.5C 64.8164,79.1497 63.4831,80.1497 62.5,81.5C 52.4944,81.6665 42.4944,81.4998 32.5,81C 30.9419,80.79 29.6085,80.29 28.5,79.5C 29.8734,79.6567 31.2068,79.49 32.5,79C 31.6198,77.6439 31.2865,76.1439 31.5,74.5C 38.6866,74.8245 45.6866,74.4912 52.5,73.5 Z"/></g>
<g><path style="opacity:1" fill="#642797" d="M 24.5,80.5 C 24.5,80.1667 24.5,79.8333 24.5,79.5C 25.8333,79.5 27.1667,79.5 28.5,79.5C 29.6085,80.29 30.9419,80.79 32.5,81C 42.4944,81.4998 52.4944,81.6665 62.5,81.5C 62.5,81.8333 62.5,82.1667 62.5,82.5C 60.901,82.2322 59.5676,82.5655 58.5,83.5C 50.5,83.5 42.5,83.5 34.5,83.5C 31.3811,82.1301 28.0477,81.1301 24.5,80.5 Z"/></g>
<g><path style="opacity:0.012" fill="#540055" d="M 65.5,82.5 C 65.5,82.1667 65.5,81.8333 65.5,81.5C 68.1667,81.8333 68.1667,82.1667 65.5,82.5 Z"/></g>
<g><path style="opacity:0.016" fill="#2f2589" d="M 62.5,83.5 C 62.5,83.1667 62.5,82.8333 62.5,82.5C 63.5,82.5 64.5,82.5 65.5,82.5C 64.791,83.404 63.791,83.7373 62.5,83.5 Z"/></g>
<g><path style="opacity:0.012" fill="#460753" d="M 34.5,83.5 C 33.3991,84.5983 32.0657,84.765 30.5,84C 31.7932,83.51 33.1266,83.3433 34.5,83.5 Z"/></g>
<g><path style="opacity:0.012" fill="#1e0664" d="M 58.5,83.5 C 59.8333,83.5 61.1667,83.5 62.5,83.5C 61.1667,84.8333 59.8333,84.8333 58.5,83.5 Z"/></g>
<g><path style="opacity:0.016" fill="#431172" d="M 35.5,85.5 C 42.6549,84.3448 49.9882,84.1782 57.5,85C 50.1742,85.4997 42.8409,85.6663 35.5,85.5 Z"/></g>
</svg>
