<svg xmlns="http://www.w3.org/2000/svg" width="28" height="28" style="shape-rendering:geometricPrecision;text-rendering:geometricPrecision;image-rendering:optimizeQuality;fill-rule:evenodd;clip-rule:evenodd"><path style="opacity:.674" fill="#349ff4" d="M5.5.5q1.295 3.39 5 4.5-3.758.765-4.5 4.5Q4.578 6.395 1.5 5q2.826-1.574 4-4.5"/><path style="opacity:.725" fill="#349ff4" d="M27.5 11.5v2q-7.083-.293-7.5 7a16.1 16.1 0 0 1-2.5-5 77 77 0 0 0-6-3.5q7.067-.567 8.5-7.5.417 7.294 7.5 7"/><path style="opacity:.708" fill="#349ff4" d="M-.5 21.5v-1q5.403-.652 6.5-6 .673 5.028 5.5 6.5-4.668.937-5.5 5.5-1.392-4.982-6.5-5"/></svg>