<?xml version="1.0" encoding="UTF-8"?>
<!DOCTYPE svg PUBLIC "-//W3C//DTD SVG 1.1//EN" "http://www.w3.org/Graphics/SVG/1.1/DTD/svg11.dtd">
<svg xmlns="http://www.w3.org/2000/svg" version="1.1" width="28px" height="28px" style="shape-rendering:geometricPrecision; text-rendering:geometricPrecision; image-rendering:optimizeQuality; fill-rule:evenodd; clip-rule:evenodd" xmlns:xlink="http://www.w3.org/1999/xlink">
<g><path style="opacity:0.983" fill="#040404" d="M 1.5,-0.5 C 9.5,-0.5 17.5,-0.5 25.5,-0.5C 25.8333,0.5 26.5,1.16667 27.5,1.5C 27.5,4.16667 27.5,6.83333 27.5,9.5C 23.6953,9.64251 22.0286,11.6425 22.5,15.5C 22.0286,19.3575 23.6953,21.3575 27.5,21.5C 27.5,22.8333 27.5,24.1667 27.5,25.5C 26.5,25.8333 25.8333,26.5 25.5,27.5C 17.5,27.5 9.5,27.5 1.5,27.5C 1.16667,26.5 0.5,25.8333 -0.5,25.5C -0.5,17.5 -0.5,9.5 -0.5,1.5C 0.5,1.16667 1.16667,0.5 1.5,-0.5 Z"/></g>
<g><path style="opacity:1" fill="#dddddd" d="M 15.5,12.5 C 15.1594,15.5158 13.9927,18.1825 12,20.5C 10.0593,16.9523 8.39262,13.2857 7,9.5C 6.20729,13.423 6.37396,17.2564 7.5,21C 6.5,21.6667 5.5,21.6667 4.5,21C 5.83333,16 5.83333,11 4.5,6C 6.16667,5.33333 7.83333,5.33333 9.5,6C 10.6031,9.03927 12.1031,11.8726 14,14.5C 14.2784,13.5842 14.7784,12.9175 15.5,12.5 Z"/></g>
<g><path style="opacity:1" fill="#fefffe" d="M 17.5,6.5 C 18.5,6.5 19.5,6.5 20.5,6.5C 20.8266,11.2137 20.4933,15.8804 19.5,20.5C 18.7777,16.1233 18.1111,11.7899 17.5,7.5C 17.5,7.16667 17.5,6.83333 17.5,6.5 Z"/></g>
<g><path style="opacity:1" fill="#b0b0b0" d="M 17.5,6.5 C 18.9464,5.38705 20.6131,5.22039 22.5,6C 21.1667,11 21.1667,16 22.5,21C 20.5,21.6667 18.5,21.6667 16.5,21C 17.6219,17.5915 17.7886,14.0915 17,10.5C 16.7216,11.4158 16.2216,12.0825 15.5,12.5C 15.4021,10.4471 16.0687,8.78041 17.5,7.5C 18.1111,11.7899 18.7777,16.1233 19.5,20.5C 20.4933,15.8804 20.8266,11.2137 20.5,6.5C 19.5,6.5 18.5,6.5 17.5,6.5 Z"/></g>
<g><path style="opacity:1" fill="#000000" d="M 27.5,10.5 C 27.5,11.5 27.5,12.5 27.5,13.5C 25.0155,12.7399 25.0155,11.7399 27.5,10.5 Z"/></g>
<g><path style="opacity:1" fill="#dedede" d="M 27.5,9.5 C 27.5,9.83333 27.5,10.1667 27.5,10.5C 25.0155,11.7399 25.0155,12.7399 27.5,13.5C 27.5,13.8333 27.5,14.1667 27.5,14.5C 24.9781,15.6649 24.9781,16.9982 27.5,18.5C 27.5,19.5 27.5,20.5 27.5,21.5C 23.6953,21.3575 22.0286,19.3575 22.5,15.5C 22.0286,11.6425 23.6953,9.64251 27.5,9.5 Z"/></g>
<g><path style="opacity:1" fill="#000000" d="M 27.5,14.5 C 27.5,15.8333 27.5,17.1667 27.5,18.5C 24.9781,16.9982 24.9781,15.6649 27.5,14.5 Z"/></g>
</svg>
