<svg xmlns="http://www.w3.org/2000/svg" width="28" height="28" style="shape-rendering:geometricPrecision;text-rendering:geometricPrecision;image-rendering:optimizeQuality;fill-rule:evenodd;clip-rule:evenodd"><path style="opacity:.983" fill="#fac2c3" d="M.5-.5h26q0 1 1 1v26q-1 0-1 1H.5q0-1-1-1V.5q1 0 1-1"/><path style="opacity:1" fill="#987c7b" d="M7.5 7.5q-1.465 4.18-1 9-1.959-4.78 0-10 .91.186 1 1"/><path style="opacity:1" fill="#232e28" d="M7.5 7.5q3.863 1.602 6.5 5 2.69-4.212 7.5-5v9a4.93 4.93 0 0 0-3 .5 32 32 0 0 1-5 4.5q-2.268-4.274-7-5-.465-4.82 1-9"/></svg>