<svg xmlns="http://www.w3.org/2000/svg" width="350" height="350" style="shape-rendering:geometricPrecision;text-rendering:geometricPrecision;image-rendering:optimizeQuality;fill-rule:evenodd;clip-rule:evenodd"><path style="opacity:1" fill="#fcfbfd" d="M-.5-.5h15q-5.797 2.287-10 7a25.1 25.1 0 0 0-5 8z"/><path style="opacity:1" fill="#7149b1" d="M14.5-.5h23q1.144 1.152 3 1.5a7.3 7.3 0 0 0-3 2 1879 1879 0 0 1 10 6q-1.526 1.575-.5 3.5 2.936 3.135 6.5 2.5l-1 1q4.392 1.89 5.5 6.5l1-2q.54 2.882 2.5 5a3.65 3.65 0 0 1-1 1.5 24.8 24.8 0 0 1 8 5l-1 1 4 3-1 1 4 1q-1.425 1.076-.5 2.5a7.3 7.3 0 0 0 2-3q.324 2.825 2 5l1-1q3.57 4.824 8.5 8 2.197-1.663 3 1.5-5.775-1.716-2.5 3.5a6.54 6.54 0 0 1 3 3l1-2q.61 5.745 4 2 .75 1.75 2.5 2.5-.795 3.205 2.5 5.5l1-1q.41 2.743 2.5 4.5l-1 1q6.04 1.816 9.5 8.5a6.8 6.8 0 0 1 1.5-3l1 .5q-1.526 1.574-.5 3.5 1.166-3.301 3.5 0-1.772 2.547 0 5-.587-2.085 2.5-3a10.8 10.8 0 0 0 2.5 3l-2 1a4.45 4.45 0 0 0 2 1.5l-1 1q6.188 1.048 5.5 6.5l3-1q2.23 1.13.5 2.5a11.5 11.5 0 0 1 3.5 4.5l1-1q3.633 3.9 5.5 9 .253-1.346 1-3 3.522 5.007 9.5 10 2.5-1.26.5 1.5a25.9 25.9 0 0 0 6.5 5.5q.705 1.615-.5 3h-25a124 124 0 0 1-6-4.5q2-1 0-2-4.703-1.252-6-5.5-3.84 1.402-2-2.5-6.474-2.356-9.5-8.5l-1 2a20.6 20.6 0 0 0-2-6 4.46 4.46 0 0 1-1.5 2 10.8 10.8 0 0 0-3-2.5l1-1q-3.335-.978-3.5-4.5-.621.685-1.5 1-2.043-2.268-1-4.5-2.024-1.159-2.5-3.5l-1 1a4.93 4.93 0 0 1-.5-3 8.4 8.4 0 0 1-4-.5q1.17-1.61-.5-3.5l-1 1a29.8 29.8 0 0 0-5.5-4.5q1.664-2.72-2-2.5a4.93 4.93 0 0 0-.5-3q-1.524 1.7-2-1-1.627 3.236-3.5.5 3.567-1.462-1-2 .975-2.415-1.5-4.5l-1 2q-.743-3.735-4.5-4.5 1.71-1.112 0-2.5a344 344 0 0 1-18.5-18l-1 1q-1.565-1.684-2-4l-1 1q-.476-2.341-2.5-3.5l1-1-3-1a18.1 18.1 0 0 0-4.5-5.5q-3.873 1.87-2.5-2-.803-2.655-2.5-1-.925-1.424.5-2.5-2.21-1.065-2-3.5-4.527-.009-8-3-5.828 2.454-6.5-4-.621.685-1.5 1-3.243-5.305-8-6 4.203-4.713 10-7"/><path style="opacity:1" fill="#784cb4" d="M37.5-.5h28a32.6 32.6 0 0 1 4 4.5l-1 1 4 1q2 1.5 0 3 4.053 3.94 7.5 6.5l1-1q.84 4.185 4 7l1-1a6.98 6.98 0 0 0 3.5 2.5q2 1 0 2 3.903 1.402 4.5 5.5l1-1q3.05 1.865 2.5 4.5 1.422.725 3 .5a4.93 4.93 0 0 0 .5 3l1-1q1.566 1.684 2 4l1-2q.858 4.81 5.5 5a4.93 4.93 0 0 0 .5 3q1 2 2 0a11.5 11.5 0 0 0 3.5 4.5q-1.656 1.697 1 2.5 1.762-2.032 3 .5l-1 1q2.707 3.605 7 5-1.137 2.045 1.5 3.5l1-1q1.47 2.64 2 5l1-2q2.59 3.136 3.5 7a86 86 0 0 1 10 6.5 17.7 17.7 0 0 1 4 6.5q1.16 1.816 2.5 0a34.2 34.2 0 0 1 5.5 8q1.783 1.393 4 1v4a4.93 4.93 0 0 1 3 .5 1130 1130 0 0 0 28 28.5v41l-4-1v-42h-30q1.205-1.385.5-3a25.9 25.9 0 0 1-6.5-5.5q2-2.76-.5-1.5-5.978-4.993-9.5-10-.747 1.654-1 3-1.867-5.1-5.5-9l-1 1a11.5 11.5 0 0 0-3.5-4.5q1.73-1.37-.5-2.5l-3 1q.688-5.452-5.5-6.5l1-1a4.45 4.45 0 0 1-2-1.5l2-1a10.8 10.8 0 0 1-2.5-3q-3.087.915-2.5 3-1.772-2.453 0-5-2.334-3.301-3.5 0-1.026-1.926.5-3.5l-1-.5a6.8 6.8 0 0 0-1.5 3q-3.46-6.684-9.5-8.5l1-1q-2.09-1.757-2.5-4.5l-1 1q-3.295-2.295-2.5-5.5-1.75-.75-2.5-2.5-3.39 3.745-4-2l-1 2a6.54 6.54 0 0 0-3-3q-3.275-5.216 2.5-3.5-.803-3.163-3-1.5-4.93-3.176-8.5-8l-1 1q-1.676-2.175-2-5a7.3 7.3 0 0 1-2 3q-.925-1.424.5-2.5l-4-1 1-1-4-3 1-1a24.8 24.8 0 0 0-8-5q.685-.621 1-1.5-1.96-2.118-2.5-5l-1 2q-1.108-4.61-5.5-6.5l1-1q-3.564.635-6.5-2.5-1.026-1.925.5-3.5a1879 1879 0 0 0-10-6 7.3 7.3 0 0 1 3-2q-1.856-.348-3-1.5"/><path style="opacity:1" fill="#8351ba" d="M65.5-.5h43a3649 3649 0 0 0 50.5 52l1-1a1688 1688 0 0 0 33.5 35 442 442 0 0 0-1 42 1130 1130 0 0 1-28-28.5 4.93 4.93 0 0 0-3-.5v-4q-2.217.393-4-1a34.2 34.2 0 0 0-5.5-8q-1.34 1.816-2.5 0a17.7 17.7 0 0 0-4-6.5 86 86 0 0 0-10-6.5q-.91-3.864-3.5-7l-1 2q-.53-2.36-2-5l-1 1q-2.637-1.455-1.5-3.5-4.293-1.395-7-5l1-1q-1.238-2.532-3-.5-2.656-.803-1-2.5a11.5 11.5 0 0 1-3.5-4.5q-1 2-2 0a4.93 4.93 0 0 1-.5-3q-4.642-.19-5.5-5l-1 2q-.434-2.316-2-4l-1 1a4.93 4.93 0 0 1-.5-3 4.93 4.93 0 0 1-3-.5q.55-2.635-2.5-4.5l-1 1q-.597-4.098-4.5-5.5 2-1 0-2a6.98 6.98 0 0 1-3.5-2.5l-1 1q-3.16-2.815-4-7l-1 1q-3.447-2.56-7.5-6.5 2-1.5 0-3l-4-1 1-1a32.6 32.6 0 0 0-4-4.5"/><path style="opacity:1" fill="#9c5cc7" d="M130.5-.5h25q21.315 22.58 42 41.5l-1 1q2.75.75 3.5 3.5 1.72-1.437 3 1 1.06 2.37 2.5 4.5 9.847 7.212 16 16l4 2-1 1a35 35 0 0 1 8 6l-1 1q1.422.725 3 .5a35.4 35.4 0 0 0 6 8h-24q-27.876-26.632-55.5-56l-1 1q-2.053-5.62-7.5-8-1.419-3.663-4.5-6l-1 1-1-3-1 1a321 321 0 0 0-14.5-16"/><path style="opacity:1" fill="#a35fcb" d="M155.5-.5h11q47.563 46.32 96 96.5 7.006 5.002 11 11a4.93 4.93 0 0 0 3 .5q-.276 4.232 4 5a18.6 18.6 0 0 1 4.5 6q32.135 30.378 64.5 64v23a29.9 29.9 0 0 0-8-5 4.93 4.93 0 0 0-.5-3q-4.575-3.074-7-8l-1 1q-2.541-2.61-3.5-6-6.372-4.11-11.5-10-1.37 1.73-2.5-.5-2.598-5.835-9-10l1-1q-5.739-2.739-8.5-8.5l-1 1a268 268 0 0 1-15-17 783 783 0 0 1-16-14l-1-3-1 1a124 124 0 0 0-13.5-13.5l1-1q-3.784-2.04-6-5.5v-17h-6a35.4 35.4 0 0 1-6-8 4.93 4.93 0 0 1-3-.5l1-1a35 35 0 0 0-8-6l1-1-4-2q-6.153-8.788-16-16a29.6 29.6 0 0 1-2.5-4.5q-1.28-2.437-3-1-.75-2.75-3.5-3.5l1-1q-20.685-18.92-42-41.5"/><path style="opacity:1" fill="#ab62cf" d="M166.5-.5h13a332 332 0 0 1 12.5 14l1-1q2.093 4.897 7 7 2.019 4.635 6.5 7 1.329 1.237 1 3 5.888 3.133 9.5 9 1.37-1.73 2.5.5l-1 1q26.05 24.25 50.5 50.5l1-1a95 95 0 0 0 10.5 12.5 4.93 4.93 0 0 0 3 .5 4.93 4.93 0 0 0 .5 3l1-1q3.83 6.496 11.5 11.5a2769 2769 0 0 0 53 54.5v12q-32.365-33.622-64.5-64a18.6 18.6 0 0 0-4.5-6q-4.276-.768-4-5a4.93 4.93 0 0 1-3-.5q-3.994-5.998-11-11-48.437-50.18-96-96.5"/><path style="opacity:1" fill="#b265d2" d="M179.5-.5h13a245.5 245.5 0 0 0 23.5 22q7.422 9.423 17 17 .724 1.422.5 3a4.93 4.93 0 0 1 3 .5l-1 1q5.77 3.521 9 9.5a3.65 3.65 0 0 0 1.5-1q7.678 9.783 17.5 18a139 139 0 0 1 13 15q5.937 6.886 14 11.5a51.4 51.4 0 0 1 7.5 9.5 9419 9419 0 0 0 29.5 28 15 15 0 0 0 3 3.5l-1 1q6.668 3.738 11 8l-1 1a19 19 0 0 1 5 3q-3.567 1.461 1 2a26.4 26.4 0 0 0 4 4.5v14a2769 2769 0 0 1-53-54.5q-7.67-5.004-11.5-11.5l-1 1a4.93 4.93 0 0 1-.5-3 4.93 4.93 0 0 1-3-.5A95 95 0 0 1 270 89.5l-1 1A1002 1002 0 0 0 218.5 40l1-1q-1.13-2.23-2.5-.5-3.612-5.867-9.5-9 .329-1.763-1-3-4.481-2.365-6.5-7-4.907-2.103-7-7l-1 1a332 332 0 0 0-12.5-14"/><path style="opacity:1" fill="#b868d6" d="M192.5-.5h14q6.396 6.177 11.5 14l1-1 1 3 1-1A376 376 0 0 1 243.5 39q1.422.725 3 .5 9.469 10.162 17.5 20l1-1a363 363 0 0 0 26 26l2 4 1-1a38 38 0 0 0 7.5 7.5l-1 1a58.5 58.5 0 0 0 10 8q-1.73 1.37.5 2.5l1-1a658 658 0 0 0 37.5 39v12a26.4 26.4 0 0 1-4-4.5q-4.567-.539-1-2a19 19 0 0 0-5-3l1-1q-4.332-4.262-11-8l1-1a15 15 0 0 1-3-3.5 9419 9419 0 0 1-29.5-28 51.4 51.4 0 0 0-7.5-9.5q-8.063-4.614-14-11.5a139 139 0 0 0-13-15q-9.822-8.217-17.5-18-.621.685-1.5 1-3.23-5.979-9-9.5l1-1a4.93 4.93 0 0 0-3-.5 4.93 4.93 0 0 0-.5-3q-9.578-7.578-17-17a245.5 245.5 0 0 1-23.5-22"/><path style="opacity:1" fill="#c06bda" d="M206.5-.5h24q4.903 3.735 8.5 9l1-1q13.48 15.223 27.5 28 5.45 6.506 11 10.5l-1 1A54.9 54.9 0 0 1 291 60.5l1-1a35.7 35.7 0 0 0 6 8q1.37-1.73 2.5.5l-1 1a14.5 14.5 0 0 1 4.5 4.5l1-1q4.434 6.515 11 13l1-1 2 4 1-1q.75 2.75 3.5 3.5l-1 1q14.372 11.586 27 26.5v26a658 658 0 0 1-37.5-39l-1 1q-2.23-1.13-.5-2.5a58.5 58.5 0 0 1-10-8l1-1a38 38 0 0 1-7.5-7.5l-1 1-2-4a363 363 0 0 1-26-26l-1 1q-8.031-9.838-17.5-20a4.93 4.93 0 0 1-3-.5A376 376 0 0 0 221 14.5l-1 1-1-3-1 1q-5.104-7.824-11.5-14"/><path style="opacity:1" fill="#ca6fdf" d="M230.5-.5h18a28 28 0 0 1 1.5 4l1-1q6.362 6.5 14 14l2 4 1-1q.765 3.758 4.5 4.5l-1 1q5.741 2.734 9.5 9.5l1-1A47.1 47.1 0 0 0 293.5 45l-1 1 3 1A417 417 0 0 1 308 61.5l1-1a180 180 0 0 0 15 17l1-1a289 289 0 0 0 24.5 25v17q-12.628-14.914-27-26.5l1-1q-2.75-.75-3.5-3.5l-1 1-2-4-1 1q-6.566-6.485-11-13l-1 1a14.5 14.5 0 0 0-4.5-4.5l1-1q-1.13-2.23-2.5-.5a35.7 35.7 0 0 1-6-8l-1 1A54.9 54.9 0 0 0 277.5 47l1-1q-5.55-3.994-11-10.5-14.02-12.777-27.5-28l-1 1q-3.597-5.265-8.5-9"/><path style="opacity:1" fill="#d574e5" d="M248.5-.5h28q2.817 1.062 5 3.5l-1 1q1.75.75 2.5 2.5l1-1q.884 3.544 4.5 3 2.868 3.482 4 8 7.522 3.257 12 10.5l6 4a3.65 3.65 0 0 0-1 1.5q6.786 3.504 9 9.5a143 143 0 0 1 11 7.5q2.253 6.02 7.5 10l1-1a23 23 0 0 1 2 5l1-1q.663 3.267 3 2 .964 3.645 4.5 5-2.222 2.165 1 2v30a289 289 0 0 1-24.5-25l-1 1a180 180 0 0 1-15-17l-1 1A417 417 0 0 0 295.5 47l-3-1 1-1A47.1 47.1 0 0 1 282 33.5l-1 1q-3.759-6.766-9.5-9.5l1-1q-3.735-.742-4.5-4.5l-1 1-2-4q-7.638-7.5-14-14l-1 1a28 28 0 0 0-1.5-4"/><path style="opacity:1" fill="#e27aec" d="M276.5-.5h58q11 4 15 15v57q-3.222.165-1-2-3.536-1.355-4.5-5-2.337 1.267-3-2l-1 1a23 23 0 0 0-2-5l-1 1q-5.247-3.98-7.5-10a143 143 0 0 0-11-7.5q-2.214-5.996-9-9.5a3.65 3.65 0 0 1 1-1.5l-6-4q-4.478-7.243-12-10.5-1.132-4.518-4-8-3.616.544-4.5-3l-1 1q-.75-1.75-2.5-2.5l1-1q-2.183-2.438-5-3.5"/><path style="opacity:1" fill="#fefbfe" d="M334.5-.5h15v15q-4-11-15-15"/><path style="opacity:1" fill="#6845ac" d="M4.5 6.5q4.757.695 8 6a3.65 3.65 0 0 0 1.5-1q.672 6.454 6.5 4 3.473 2.991 8 3-.21 2.435 2 3.5-1.425 1.076-.5 2.5 1.697-1.655 2.5 1-1.373 3.87 2.5 2a18.1 18.1 0 0 1 4.5 5.5l3 1-1 1q2.024 1.159 2.5 3.5l1-1q.434 2.316 2 4l1-1a344 344 0 0 0 18.5 18q1.71 1.388 0 2.5 3.757.765 4.5 4.5l1-2q2.475 2.085 1.5 4.5 4.567.538 1 2 1.873 2.736 3.5-.5.476 2.7 2 1 .725 1.422.5 3 3.664-.22 2 2.5a29.8 29.8 0 0 1 5.5 4.5l1-1q1.67 1.89.5 3.5a8.4 8.4 0 0 0 4 .5 4.93 4.93 0 0 0 .5 3l1-1q.476 2.341 2.5 3.5-1.043 2.232 1 4.5a3.65 3.65 0 0 0 1.5-1q.165 3.522 3.5 4.5l-1 1a10.8 10.8 0 0 1 3 2.5 4.46 4.46 0 0 0 1.5-2 20.6 20.6 0 0 1 2 6l1-2q3.026 6.144 9.5 8.5-1.84 3.902 2 2.5 1.297 4.248 6 5.5 2 1 0 2a124 124 0 0 0 6 4.5v31q-2.146-.572-2.5-3l-1 2-4-6-1 1a6.98 6.98 0 0 0-2.5-3.5l1-1a15.7 15.7 0 0 1-4-2.5 3.65 3.65 0 0 0-1.5 1 29.5 29.5 0 0 0-2.5-4.5l1-1a33.4 33.4 0 0 0-7-2.5q-.803-7.457-8-9.5a159 159 0 0 0-15-15v-3q-1.424-.926-2.5.5-1.127-3.824-5-5l-1-3-1 1a40 40 0 0 0-7.5-7.5l1-1a19.4 19.4 0 0 0-7-4.5 104 104 0 0 1-8.5-11q-1.922.18-3.5-1.5 2-1 0-2-4.073-1.317-7-4.5-1.816-1.83 0-3.5-1.424-.925-2.5.5-.434-2.316-2-4l-1 2-2-4q-1-2-2 0a27.6 27.6 0 0 0-4-8q-2.337 1.267-3-2l-1 1q-1.565-1.684-2-4l-1 1q-1.75-5.75-7.5-7.5 1.73-1.37-.5-2.5l-1 1q-8.555-9.711-15.5-17v-9a25.1 25.1 0 0 1 5-8"/><path style="opacity:1" fill="#5f42a8" d="M-.5 23.5q6.945 7.289 15.5 17l1-1q2.23 1.13.5 2.5 5.75 1.75 7.5 7.5l1-1q.434 2.316 2 4l1-1q.663 3.267 3 2a27.6 27.6 0 0 1 4 8q1-2 2 0l2 4 1-2q1.566 1.684 2 4 1.076-1.425 2.5-.5-1.816 1.67 0 3.5 2.927 3.183 7 4.5 2 1 0 2 1.578 1.68 3.5 1.5a104 104 0 0 0 8.5 11 19.4 19.4 0 0 1 7 4.5l-1 1a40 40 0 0 1 7.5 7.5l1-1 1 3q3.873 1.176 5 5 1.076-1.426 2.5-.5v3a159 159 0 0 1 15 15q7.197 2.043 8 9.5a33.4 33.4 0 0 1 7 2.5l-1 1a29.5 29.5 0 0 1 2.5 4.5 3.65 3.65 0 0 1 1.5-1 15.7 15.7 0 0 0 4 2.5l-1 1a6.98 6.98 0 0 1 2.5 3.5l1-1 4 6 1-2q.354 2.428 2.5 3-.25 18.007.5 36a3790 3790 0 0 0 53.5 22 553 553 0 0 0 1-47l4 1v49a6.85 6.85 0 0 1 4 1q6.526-4.04 13-8 4.803.055 5 5a8598 8598 0 0 1-15 9.5q-2.5 1-5 0a2856 2856 0 0 0-68-27.5q-18.519 7.005-37 14 .837-1.935 3-2.5-1.5-5-3 0a15.3 15.3 0 0 0-4.5 1.5q-.565-2.163-2.5-3a333 333 0 0 1 47-18v-30h-37q.449-1.89 0-3.5-1.454-2.637-3.5-1.5-5.193-.725-1.5-3.5a47 47 0 0 1-6-4q2.184-.634 1.5-2.5-2.082 1.58-4.5.5l2-1q-2.75-.75-3.5-3.5-.585 5.498-3.5.5 3.604-2.207-.5-4.5-1.076 1.426-2.5.5 2.145-2.82-1-4.5a4.45 4.45 0 0 0-1.5 2q-1.26-5.52-6.5-7.5 1.816-1.34 0-2.5-2.346 1.029-5-.5l2-1a209 209 0 0 0-9-8.5q-1.762 2.032-3-.5 2.115-.552 3-2.5-.519-1.794-1.5 0l-2-4-1 1a29 29 0 0 1-5-4 3.65 3.65 0 0 1-1.5 1q-3.336-1.866-5-7-2.435 1.464-4-1.5 2.84-1.651 2-4-1.866-.684-2.5 1.5-1-4-2 0-1.25-2.25-3.5-3.5l1-1q-3.708-2.401-3-6l-4-1q-.569-3.283-3.5-6.5-1 2-2 0v-4q-1.575 1.526-3.5.5-3.963-3.73-9-5.5z"/><path style="opacity:1" fill="#9056c1" d="M108.5-.5h22a321 321 0 0 1 14.5 16l1-1 1 3 1-1q3.081 2.337 4.5 6 5.447 2.38 7.5 8l1-1q27.624 29.368 55.5 56h-23a1688 1688 0 0 1-33.5-35l-1 1a3649 3649 0 0 1-50.5-52"/><path style="opacity:1" fill="#fefefe" d="M193.5 85.5h53v42q.25 29.504-.5 59a1195 1195 0 0 1-36.5 24q-6.474 3.96-13 8a6.85 6.85 0 0 0-4-1v-90a442 442 0 0 1 1-42"/><path style="opacity:1" fill="#503aa0" d="M-.5 67.5q5.037 1.77 9 5.5 1.925 1.026 3.5-.5v4q1 2 2 0 2.931 3.217 3.5 6.5l4 1q-.708 3.599 3 6l-1 1q2.25 1.25 3.5 3.5 1-4 2 0 .634-2.184 2.5-1.5.84 2.349-2 4 1.565 2.964 4 1.5 1.664 5.134 5 7a3.65 3.65 0 0 0 1.5-1 29 29 0 0 0 5 4l1-1 2 4q.981-1.794 1.5 0-.885 1.948-3 2.5 1.238 2.532 3 .5 4.68 4.168 9 8.5l-2 1q2.654 1.529 5 .5 1.816 1.16 0 2.5 5.24 1.98 6.5 7.5a4.45 4.45 0 0 1 1.5-2q3.145 1.68 1 4.5 1.424.926 2.5-.5 4.104 2.293.5 4.5 2.915 4.998 3.5-.5.75 2.75 3.5 3.5l-2 1q2.418 1.08 4.5-.5.684 1.866-1.5 2.5a47 47 0 0 0 6 4q-3.693 2.775 1.5 3.5 2.046-1.137 3.5 1.5.449 1.61 0 3.5h-18v33q-2.866-.111-3.5-3a3.65 3.65 0 0 1-1.5 1q-1.96-2.118-2.5-5-1.166 3.301-3.5 0l2-1a14.8 14.8 0 0 0-4-3.5l2-1a11.3 11.3 0 0 1-3.5-1.5l-1 1-1-5-1 3a14.5 14.5 0 0 1-4.5-4.5 4.46 4.46 0 0 0 2-1.5q-4.149.202-6-4.5l1-1q-1.573-.738-3 .5-1.635-1.337 0-3a14.7 14.7 0 0 0-5-1.5q.685-.621 1-1.5-1.828.586-2.5-2l-1 3q-2.523-2.048-.5-4.5-1.13-2.23-2.5-.5-.476-2.701-2-1-2.135-4.093-2-8a7.25 7.25 0 0 1-2.5 2 64 64 0 0 0-7-6.5q3.644-.677.5-2.5l-1 1a15.5 15.5 0 0 0-5.5-3.5l2-1q-4.39-1.518-2.5-5.5-1.08 2.633-3.5 2.5 1.17-1.61-.5-3.5l-1 1a39 39 0 0 0-5.5-5 6.85 6.85 0 0 0 1-4q-4.032.502-7-2z"/><path style="opacity:1" fill="#9559c4" d="M246.5 102.5q2.216 3.46 6 5.5l-1 1a124 124 0 0 1 13.5 13.5l1-1 1 3a783 783 0 0 0 16 14 268 268 0 0 0 15 17l1-1q2.761 5.761 8.5 8.5l-1 1q6.402 4.165 9 10 1.13 2.23 2.5.5 5.128 5.89 11.5 10 .959 3.39 3.5 6l1-1q2.425 4.926 7 8 .724 1.422.5 3a29.9 29.9 0 0 1 8 5v36l-54-54q-1.025.544-2 1l10-20a92.5 92.5 0 0 0-22 0q2.178-1.203 5-1.5-19.124-19.695-40-39.5z"/><path style="opacity:1" fill="#fefefe" d="M133.5 125.5h55v42a553 553 0 0 1-1 47 3790 3790 0 0 1-53.5-22 648 648 0 0 1-.5-36z"/><path style="opacity:1" fill="#443599" d="M-.5 120.5q2.968 2.502 7 2a6.85 6.85 0 0 1-1 4 39 39 0 0 1 5.5 5l1-1q1.67 1.89.5 3.5 2.42.133 3.5-2.5-1.89 3.982 2.5 5.5l-2 1a15.5 15.5 0 0 1 5.5 3.5l1-1q3.144 1.823-.5 2.5a64 64 0 0 1 7 6.5 7.25 7.25 0 0 0 2.5-2q-.135 3.907 2 8 1.524-1.701 2 1 1.37-1.73 2.5.5-2.023 2.452.5 4.5l1-3q.672 2.586 2.5 2a3.65 3.65 0 0 1-1 1.5 14.7 14.7 0 0 1 5 1.5q-1.635 1.663 0 3 1.427-1.238 3-.5l-1 1q1.851 4.702 6 4.5a4.46 4.46 0 0 1-2 1.5 14.5 14.5 0 0 0 4.5 4.5l1-3 1 5 1-1a11.3 11.3 0 0 0 3.5 1.5l-2 1a14.8 14.8 0 0 1 4 3.5l-2 1q2.334 3.301 3.5 0 .54 2.882 2.5 5a3.65 3.65 0 0 0 1.5-1q.634 2.889 3.5 3-.25 9.014.5 18a72 72 0 0 1 7.5-3q1.935.837 2.5 3a15.3 15.3 0 0 1 4.5-1.5q1.5-5 3 0-2.163.565-3 2.5a931 931 0 0 1-37 16q1.765-2.404-.5-4l-1 2a23 23 0 0 0-2-5l-1 2a14.7 14.7 0 0 0-1.5-5 3.65 3.65 0 0 0-1.5 1q-1.064-2.21-3.5-2a8.44 8.44 0 0 0-.5-4q-5.04-2.79-7.5-8-1.635-2.254-3.5-1-.168-4.42-4.5-4a4.93 4.93 0 0 0-.5-3q-3.585 1.654-1.5-2-1.16-1.817-2.5 0-.965-5.388-6.5-6.5l1-1q-3.315-2.263-5.5-5.5-4.665 1.76-.5-1.5a108 108 0 0 1-10-7.5z"/><path style="opacity:1" fill="#8151b9" d="M246.5 127.5q20.876 19.805 40 39.5-2.822.297-5 1.5-10.05-.495-20 1a94 94 0 0 1 7 11 1141 1141 0 0 1-54 35q-.197-4.945-5-5a1195 1195 0 0 0 36.5-24q.75-29.496.5-59"/><path style="opacity:1" fill="#fefefe" d="M92.5 159.5h37v30a333 333 0 0 0-47 18 72 72 0 0 0-7.5 3q-.75-8.986-.5-18v-33z"/><path style="opacity:1" fill="#fcfbfd" d="M293.5 188.5a199 199 0 0 1-9.5 16 124 124 0 0 0-7.5-11q-6.097 4.035-12 8a221 221 0 0 0-17 11 249 249 0 0 0-31 20q-6.275 2.381-11 7-2.885.442-5 2.5-2 1-4 0a2648 2648 0 0 0-37-15.5 1962 1962 0 0 1-32.5-14q-3.18.96-5.5 3-9.1 2.308-17 7a510 510 0 0 0-41 17 67 67 0 0 0-12.5 5 73.7 73.7 0 0 1-5.5-12.5q2.436-3.729 7-4.5a931 931 0 0 0 37-16q18.481-6.995 37-14a2856 2856 0 0 1 68 27.5q2.5 1 5 0a8598 8598 0 0 0 15-9.5 1141 1141 0 0 0 54-35 94 94 0 0 0-7-11q9.95-1.495 20-1a92.5 92.5 0 0 1 22 0z"/><path style="opacity:1" fill="#3b3195" d="M-.5 172.5a108 108 0 0 0 10 7.5q-4.165 3.26.5 1.5 2.185 3.237 5.5 5.5l-1 1q5.535 1.112 6.5 6.5 1.34-1.817 2.5 0-2.085 3.654 1.5 2 .725 1.422.5 3 4.332-.42 4.5 4 1.865-1.254 3.5 1 2.46 5.21 7.5 8a8.44 8.44 0 0 1 .5 4q2.436-.21 3.5 2a3.65 3.65 0 0 1 1.5-1 14.7 14.7 0 0 1 1.5 5l1-2a23 23 0 0 1 2 5l1-2q2.265 1.596.5 4-4.564.771-7 4.5a73.7 73.7 0 0 0 5.5 12.5 67 67 0 0 1 12.5-5q1.983.255 3.5-1 10.783 12.26 21.5 22.5a4.93 4.93 0 0 0 3 .5v3q4.647-.13 1 1.5a12.8 12.8 0 0 0 6 3l-1 1q3.248 3.892 6.5 5.5 1.779 4.877 6.5 6.5-1.73 1.37.5 2.5 2.337-1.268 3 2 1.37-1.73 2.5.5l-3 1q4.559 1.547 7.5 5.5l1-1 3.5 3.5-1 1q1.823 2.61 5 3-1.578 2.574 2 3-1.26 2.5 1.5.5.926 1.423-.5 2.5 2.61 2.541 6 3.5-.329 1.763 1 3 3.873 3.43 7.5 5 1.67 1.89.5 3.5 3.75 1.75 5.5 5.5l1-2 1 4 1-1q1.186 3.156 4.5 4-2.266 3.507 1 2l15 16h-26q-2.665-1.65-6-2.5 3.946-2.537-1-3.5 1.693-3.044-1.5-1-1.85-3.351-5.5-4.5 3.644-.677.5-2.5a3.65 3.65 0 0 1-1.5 1q-2.097-3.597-6-5a13 13 0 0 0-4-4.5l1-1a11.3 11.3 0 0 1-1.5-3.5q-.539 4.567-2 1-2.335 1.058-3.5-2 1.663-2.197-1.5-3l-1 1a34.7 34.7 0 0 0-6.5-7.5l2-1a8.4 8.4 0 0 0-4-.5q.009-4.988-4.5-7l-1 1a10.8 10.8 0 0 0-2.5-3 3.65 3.65 0 0 1 1-1.5 20.6 20.6 0 0 1-6-2q5.535-.636.5-2.5-1.37 1.73-2.5-.5 2-2.76-.5-1.5-1.328-4.006-6.5-6-4.14-4.232-6-8.5-4.28-1.581-8-4.5-1.19-3.94-5-5.5 1.17-1.61-.5-3.5-1.37 1.73-2.5-.5 1.26-2.5-1.5-.5-3.144-1.823.5-2.5l-4-1q2-2.76-.5-1.5-2.426-5.405-8-7a8.44 8.44 0 0 1-.5-4 8.4 8.4 0 0 1-4-.5q2.184-.634 1.5-2.5l-1 1q-1.978-2.98-5.5-3.5 1.425-1.077.5-2.5-2.76 2-1.5-.5a57.5 57.5 0 0 1-10-8q1.26-2.5-1.5-.5-2.854-2.911-2.5-7-3.27.324-5-2.5l1-1q-2.744-.41-4.5-2.5l-1 1-1-4q-1.075 1.426-2.5.5a23.2 23.2 0 0 0-4.5-6.5l-1 1q-.684-1.866 1.5-2.5a96 96 0 0 1-10-6.5z"/><path style="opacity:1" fill="#8150b9" d="M349.5 241.5v41a4.93 4.93 0 0 1-3-.5q-4.562-7.116-11-10 3.567-1.461-1-2 1.137-2.046-1.5-3.5-1.37 1.73-2.5-.5 1.137-2.046-1.5-3.5l-1 1q-1.526-4.818-6.5-5.5 1.426-1.077.5-2.5a545 545 0 0 0-20.5-18q-1.817-1.16 0-2.5-5.713-1.699-6.5-6.5l-1 1a72 72 0 0 0-6.5-5.5l1-1q-2.61-2.541-6-3.5a6.85 6.85 0 0 0-1-4q-2.545-1.296-3.5-4l-1 1a26 26 0 0 0-3.5-5q-1.388-1.712-2.5 0-2.23-1.13-.5-2.5l-3-1q2-1 0-2a4.93 4.93 0 0 0-3-.5q5.903-3.965 12-8a124 124 0 0 1 7.5 11 199 199 0 0 0 9.5-16q.975-.456 2-1z"/><path style="opacity:1" fill="#352f91" d="M-.5 201.5a96 96 0 0 0 10 6.5q-2.184.634-1.5 2.5l1-1a23.2 23.2 0 0 1 4.5 6.5q1.425.926 2.5-.5l1 4 1-1q1.756 2.09 4.5 2.5l-1 1q1.73 2.824 5 2.5-.354 4.089 2.5 7 2.76-2 1.5.5a57.5 57.5 0 0 0 10 8q-1.26 2.5 1.5.5.925 1.423-.5 2.5 3.522.52 5.5 3.5l1-1q.684 1.866-1.5 2.5a8.4 8.4 0 0 0 4 .5 8.44 8.44 0 0 0 .5 4q5.574 1.595 8 7 2.5-1.26.5 1.5l4 1q-3.644.677-.5 2.5 2.76-2 1.5.5 1.13 2.23 2.5.5 1.67 1.89.5 3.5 3.81 1.56 5 5.5 3.72 2.919 8 4.5 1.86 4.268 6 8.5 5.172 1.994 6.5 6 2.5-1.26.5 1.5 1.13 2.23 2.5.5 5.035 1.864-.5 2.5a20.6 20.6 0 0 0 6 2 3.65 3.65 0 0 0-1 1.5 10.8 10.8 0 0 1 2.5 3l1-1q4.509 2.012 4.5 7a8.4 8.4 0 0 1 4 .5l-2 1a34.7 34.7 0 0 1 6.5 7.5l1-1q3.163.803 1.5 3 1.165 3.058 3.5 2 1.461 3.567 2-1a11.3 11.3 0 0 0 1.5 3.5l-1 1a13 13 0 0 1 4 4.5q3.903 1.403 6 5a3.65 3.65 0 0 0 1.5-1q3.144 1.823-.5 2.5 3.65 1.149 5.5 4.5 3.193-2.044 1.5 1 4.946.963 1 3.5 3.335.85 6 2.5h-38q-.19-4.642-5-5.5 3.644-.677.5-2.5l-1 1-4-6q-1.746-.502-4 0-.476-2.342-2.5-3.5 2.045-3.194-1-1.5-1.329-1.237-1-3-2.217.393-4-1a9.4 9.4 0 0 0-3-3q1.238-1.427.5-3-5.289-2.766-10.5-7.5-1.7-1.524 1-2-3.75-1.75-5.5-5.5l-1 1a40.2 40.2 0 0 0-7-8q-3.437 1.216-5.5-2.5l2-1a30.4 30.4 0 0 1-5.5-7.5l-1 2a33.8 33.8 0 0 0-6-5 23 23 0 0 0-2-5q-4.893 2.012-1.5-1a25.5 25.5 0 0 0-4.5-4l-1 1q-.75-1.75-2.5-2.5 1.425-1.077.5-2.5-1.512-.723-3.5-.5-4.762-6.26-9.5-12.5.115 1.857-.5 3-1.329-1.237-1-3h-3a10.1 10.1 0 0 0-1.5-6q-1 4-2 0-2.5 1.26-.5-1.5-3.735-.743-4.5-4.5l-1 1q-3.16-2.815-4-7l-2 2a18.6 18.6 0 0 0-3.5-6.5q.977-1.962-2-2.5z"/><path style="opacity:1" fill="#784cb4" d="M264.5 201.5a4.93 4.93 0 0 1 3 .5q2 1 0 2l3 1q-1.73 1.37.5 2.5 1.112-1.712 2.5 0a26 26 0 0 1 3.5 5l1-1q.955 2.704 3.5 4a6.85 6.85 0 0 1 1 4q3.39.959 6 3.5l-1 1a72 72 0 0 1 6.5 5.5l1-1q.787 4.801 6.5 6.5-1.817 1.34 0 2.5a545 545 0 0 1 20.5 18q.926 1.423-.5 2.5 4.974.682 6.5 5.5l1-1q2.637 1.454 1.5 3.5 1.13 2.23 2.5.5 2.637 1.454 1.5 3.5 4.567.539 1 2 6.438 2.884 11 10a4.93 4.93 0 0 0 3 .5v29a2.43 2.43 0 0 1-2-.5q1.26-2.5-1.5-.5a123 123 0 0 0-10-12q-.634 2.184-2.5 1.5-.841-2.349 2-4-2.023-1.158-2.5-3.5l-1 6q-1.94-2.031-.5-4a19.6 19.6 0 0 0-7-4.5l1-1q-3.803-1.393-3-5.5-2.552-.699-4.5 0-1.026-1.926.5-3.5-1.423-.926-2.5.5l-1-3q-1 2-2 0-2.452-3.017-2.5-6-1.902 1.392-4 .5l1-1q-5.853-4.543-8.5-11.5a6.8 6.8 0 0 1-1.5 3 31.4 31.4 0 0 1-3.5-7q-1.512-.722-3.5-.5 3.71-2.103 0-4.5-.616 1.143-.5 3a21.8 21.8 0 0 0-6.5-4.5q2.184-.634 1.5-2.5-1.72 1.437-3-1l-1 2-1-4q-1.112-1.712-2.5 0-3.816-2.838 0-5.5-1.573-.738-3 .5l-1-2a3.65 3.65 0 0 0-1.5 1 6.98 6.98 0 0 0-2.5-3.5l2-3q-4.881-.988-9-5.5-2.734-1.87-6-2a8.4 8.4 0 0 0-.5-4l-1 1-1-3-1 1q-1.026-1.926.5-3.5a32.4 32.4 0 0 0-6-2.5 221 221 0 0 1 17-11"/><path style="opacity:1" fill="#4e3a9f" d="M121.5 215.5a231 231 0 0 1 14 11.5l-1 1a17.8 17.8 0 0 1 4.5 5.5l1-1q5.049 4.488 8 9l1-1q3.657 7.853 11.5 11.5l-1 1a96.6 96.6 0 0 1 16.5 16.5q2.5-1.26.5 1.5 4.04-1.295 5 3.5a32 32 0 0 1 4 2.5q-1.17 1.61.5 3.5l1-1a18.8 18.8 0 0 1 5.5 4.5l-2 1q2.174 1.676 5 2l-2 1a36.2 36.2 0 0 0 7 4 21.5 21.5 0 0 0 3.5 6.5l1-1q1.98 3.231 5.5 4.5l-2 1q5.466 4.39 10 7-3.601 1.207.5 2.5 7.509 4.044 12 13l1-1a57.2 57.2 0 0 1 9.5 8.5l-1 1q4.49 1.736 5 6.5 7.506 1.748 10 9h-27q-2.051-2.462-1-5-2.919-2.375-6-1.5 1.526-1.574.5-3.5-6.413-2.412-9-9l-1 1a377 377 0 0 0-4.5-5q-2.403 1.575-2.5-2-2.958-1.208-4.5-4a3.65 3.65 0 0 0-1.5 1 11.3 11.3 0 0 0-1.5-3.5l1-1q-2.73-1.468-3.5-4.5a4.46 4.46 0 0 1-1.5 2q.393-2.448-3-3.5l3-1q-3.031-.77-4.5-3.5-2.316 4.146-3.5-.5 4.146-2.316-.5-3.5a3.65 3.65 0 0 1-1.5 1q-1.055-4.776-6-4.5l2-1-7-5q3.644-.677.5-2.5l-1 1a11.5 11.5 0 0 0-4.5-3.5l1-1-4-4q1.73-1.37-.5-2.5-2.76 2-1.5-.5a20.1 20.1 0 0 0-6-1.5q2.17-5.425-4-7 1.506-3.266-2-1-6.772-2.625-8.5-11-1.112 1.712-2.5 0a18.7 18.7 0 0 0-6-6.5l1-1q-3.78-.879-7-4.5a58 58 0 0 0-5.5-7q-1.697 1.656-2.5-1a3.65 3.65 0 0 1 1-1.5q-5.37-2.505-8.5-7.5-2.76 2-1.5-.5-4.316-2.009-5-5.5 2.222-2.166-1-2 7.9-4.692 17-7"/><path style="opacity:1" fill="#6d47af" d="M247.5 212.5a32.4 32.4 0 0 1 6 2.5q-1.526 1.574-.5 3.5l1-1 1 3 1-1a8.4 8.4 0 0 1 .5 4q3.266.13 6 2 4.119 4.512 9 5.5l-2 3a6.98 6.98 0 0 1 2.5 3.5 3.65 3.65 0 0 1 1.5-1l1 2q1.427-1.238 3-.5-3.816 2.662 0 5.5 1.388-1.712 2.5 0l1 4 1-2q1.28 2.437 3 1 .684 1.866-1.5 2.5a21.8 21.8 0 0 1 6.5 4.5q-.116-1.857.5-3 3.71 2.397 0 4.5 1.988-.222 3.5.5a31.4 31.4 0 0 0 3.5 7 6.8 6.8 0 0 0 1.5-3q2.647 6.957 8.5 11.5l-1 1q2.098.892 4-.5.048 2.983 2.5 6 1 2 2 0l1 3q1.077-1.426 2.5-.5-1.526 1.574-.5 3.5 1.948-.699 4.5 0-.803 4.107 3 5.5l-1 1a19.6 19.6 0 0 1 7 4.5q-1.44 1.969.5 4l1-6q.477 2.342 2.5 3.5-2.841 1.651-2 4 1.866.684 2.5-1.5a123 123 0 0 1 10 12q2.76-2 1.5.5a2.43 2.43 0 0 0 2 .5v22q-3.357 11.857-15 16h-3q.016-2.276 2-3.5l-6-4 2-1-5.5-5.5-1 1a40.2 40.2 0 0 0-7-8 3.65 3.65 0 0 1-1.5 1 26 26 0 0 0-5-3.5l3-1q-4.422-3.927-6.5-9.5l-1 3q-3.634-1.927-5.5-5.5.166-2.582 1.5-.5.402-3.135-3-4-1.088 2.487-3.5 1.5a4.46 4.46 0 0 0 2-1.5 31.1 31.1 0 0 0-9-5.5q2.858-1.24 1-3.5-1.046 2.827-3 1a32.4 32.4 0 0 1-4-5.5l1-1q-2.447-1.638-5-2.5.393-2.217-1-4-.57 2.281-.5 5-1.514-2.288-1.5-5-1.763.329-3-1 .21-2.634-1.5-5-1 4-2 0l-1 1-3.5-5.5q1.26-2.5-1.5-.5a10.8 10.8 0 0 0-2.5-3q-.998-2.401-1-4.5-2.72-.921-1 1-1.734 2.423-4 0l2-1q-2.883-2.19-2-5-1.866-.684-2.5 1.5-2.579-4.078-7-6a30 30 0 0 0-4.5-5.5q1.817-1.34 0-2.5-2.552.465-5-1.5a7.3 7.3 0 0 0 3-2q-1.75-.75-2.5-2.5-2.044 3.426-4.5.5l2-1q-3.078-4.059-8-6 2-1.5 0-3-4.406-1.043-8-3.5a249 249 0 0 1 31-20"/><path style="opacity:1" fill="#553da2" d="M159.5 226.5q.907 2.289 3.5 3l1 3 1-1a15.3 15.3 0 0 0 4.5 1.5q-3.644.677-.5 2.5 2.76-2 1.5.5a6.98 6.98 0 0 1 2.5 3.5q.959-4.092 3.5-1.5-3.644.677-.5 2.5l1-1q-1.052 6.68 5.5 5.5l-1 1q2.201 1.647 2.5 4.5a3.65 3.65 0 0 1 1.5-1q3.427 2.504 2.5 6a3.65 3.65 0 0 1 1.5-1 8.9 8.9 0 0 0 4 3q.747 1.654 1 3 1.236-3.371 3-.5l-1 1a39 39 0 0 1 4.5 4.5 3.65 3.65 0 0 1 1.5-1 10.8 10.8 0 0 0 3 2.5q-2.656.803-1 2.5 2.633-.21 5 1.5a6.55 6.55 0 0 1-3 3q6.435-.846 6.5 5.5l1-2a56 56 0 0 1 5.5 4.5l-1 1q2.288 1.514 5 1.5a4.93 4.93 0 0 1-.5 3q-.634-2.184-2.5-1.5 2 1.5 0 3 1.988-.223 3.5.5l2-2a14.4 14.4 0 0 0 2.5 5.5l-1 1q2.023 1.158 2.5 3.5a7.25 7.25 0 0 0 2.5 2q7.641-3.79 3 4 4.132 2.898 7.5 1l1.5 1.5q-1.469 2.668 1 5l-1 1a10.8 10.8 0 0 1 3 2.5q1.137-1.966 3-1.5-1.846 1.774 0 3.5a10.9 10.9 0 0 1 4.5 5q1.72-1.437 3 1l1 3q1.61-1.17 3.5.5-1.817 1.34 0 2.5 3.418 2.439 7 2.5l-2 1q3.523 3.843 5.5 8.5a7.3 7.3 0 0 0 2-3q4.461 5.427 6.5 12h-26q-2.494-7.252-10-9-.51-4.764-5-6.5l1-1a57.2 57.2 0 0 0-9.5-8.5l-1 1q-4.491-8.956-12-13-4.101-1.293-.5-2.5-4.534-2.61-10-7l2-1q-3.52-1.269-5.5-4.5l-1 1a21.5 21.5 0 0 1-3.5-6.5 36.2 36.2 0 0 1-7-4l2-1q-2.826-.324-5-2l2-1a18.8 18.8 0 0 0-5.5-4.5l-1 1q-1.67-1.89-.5-3.5a32 32 0 0 0-4-2.5q-.96-4.795-5-3.5 2-2.76-.5-1.5a96.6 96.6 0 0 0-16.5-16.5l1-1q-7.843-3.647-11.5-11.5l-1 1q-2.952-4.512-8-9l-1 1a17.8 17.8 0 0 0-4.5-5.5l1-1a231 231 0 0 0-14-11.5q2.32-2.04 5.5-3a1962 1962 0 0 0 32.5 14"/><path style="opacity:1" fill="#45369a" d="M104.5 222.5q3.222-.166 1 2 .684 3.491 5 5.5-1.26 2.5 1.5.5 3.13 4.995 8.5 7.5a3.65 3.65 0 0 0-1 1.5q.803 2.656 2.5 1a58 58 0 0 1 5.5 7q3.22 3.621 7 4.5l-1 1a18.7 18.7 0 0 1 6 6.5q1.388 1.712 2.5 0 1.728 8.375 8.5 11 3.506-2.266 2 1 6.17 1.575 4 7 3.096.28 6 1.5-1.26 2.5 1.5.5 2.23 1.13.5 2.5l4 4-1 1a11.5 11.5 0 0 1 4.5 3.5l1-1q3.144 1.823-.5 2.5l7 5-2 1q4.945-.276 6 4.5a3.65 3.65 0 0 0 1.5-1q4.646 1.184.5 3.5 1.184 4.646 3.5.5 1.469 2.73 4.5 3.5l-3 1q3.393 1.052 3 3.5a4.46 4.46 0 0 0 1.5-2q.77 3.032 3.5 4.5l-1 1a11.3 11.3 0 0 1 1.5 3.5 3.65 3.65 0 0 1 1.5-1q1.542 2.792 4.5 4 .097 3.575 2.5 2 2.235 2.438 4.5 5l1-1q2.587 6.588 9 9 1.026 1.926-.5 3.5 3.081-.875 6 1.5-1.051 2.538 1 5h-52l-15-16q-3.266 1.507-1-2-3.314-.844-4.5-4l-1 1-1-4-1 2q-1.75-3.75-5.5-5.5 1.17-1.61-.5-3.5-3.627-1.57-7.5-5-1.329-1.237-1-3-3.39-.959-6-3.5 1.426-1.077.5-2.5-2.76 2-1.5-.5-3.578-.426-2-3-3.177-.39-5-3l1-1-3.5-3.5-1 1q-2.941-3.953-7.5-5.5l3-1q-1.13-2.23-2.5-.5-.663-3.268-3-2-2.23-1.13-.5-2.5-4.721-1.623-6.5-6.5-3.252-1.608-6.5-5.5l1-1a12.8 12.8 0 0 1-6-3q3.647-1.63-1-1.5v-3a4.93 4.93 0 0 1-3-.5Q77.783 250.76 67 238.5q-1.517 1.255-3.5 1a510 510 0 0 1 41-17"/><path style="opacity:1" fill="#5c40a6" d="M159.5 226.5a2648 2648 0 0 1 37 15.5q2 1 4 0 2.115-2.058 5-2.5 1.951 2.072 2.5 5l1-1q2.588 4.917 6.5 6.5l-3 1 5 1a3.65 3.65 0 0 0-1 1.5 34.2 34.2 0 0 0 9 6.5q-2.701.476-1 2a1342 1342 0 0 1 10 6q3.093 3.102 3.5 7.5.256-2.091 1.5-2.5 2 1 0 2 7.29 6.22 11.5 13.5 1-4 2 0 1.207-3.601 2.5.5a7.25 7.25 0 0 0-2 2.5q2.318 1.428 5 1-.014 2.712 1.5 5l1-1q.426 3.579 3 2 1.05 2.298 3.5 3 .048 2.983 2.5 6a20.5 20.5 0 0 1 6.5 3.5q2 4 6 6l-2 1q2.845 1.664 5.5.5.926 1.423-.5 2.5 4.842 2.344 6.5 7.5l1-2a10.8 10.8 0 0 0 2.5 3 3.65 3.65 0 0 1-1 1.5 48 48 0 0 1 5 2.5q-2.116 2.276.5 4l1-3q2.052 2.29 1.5 4.5l5 1-2 1a15.5 15.5 0 0 0 5 3l-1 3q2.429.354 3 2.5h-31q-2.039-6.573-6.5-12a7.3 7.3 0 0 1-2 3q-1.977-4.657-5.5-8.5l2-1q-3.582-.061-7-2.5-1.817-1.16 0-2.5-1.89-1.67-3.5-.5l-1-3q-1.28-2.437-3-1a10.9 10.9 0 0 0-4.5-5q-1.846-1.726 0-3.5-1.863-.466-3 1.5a10.8 10.8 0 0 0-3-2.5l1-1q-2.469-2.332-1-5l-1.5-1.5q-3.368 1.898-7.5-1 4.641-7.79-3-4a7.25 7.25 0 0 1-2.5-2q-.477-2.342-2.5-3.5l1-1a14.4 14.4 0 0 1-2.5-5.5l-2 2q-1.512-.723-3.5-.5 2-1.5 0-3 1.866-.684 2.5 1.5a4.93 4.93 0 0 0 .5-3q-2.712.014-5-1.5l1-1a56 56 0 0 0-5.5-4.5l-1 2q-.065-6.346-6.5-5.5a6.55 6.55 0 0 0 3-3q-2.367-1.71-5-1.5-1.656-1.697 1-2.5a10.8 10.8 0 0 1-3-2.5 3.65 3.65 0 0 0-1.5 1 39 39 0 0 0-4.5-4.5l1-1q-1.764-2.871-3 .5-.253-1.346-1-3a8.9 8.9 0 0 1-4-3 3.65 3.65 0 0 0-1.5 1q.927-3.496-2.5-6a3.65 3.65 0 0 0-1.5 1q-.299-2.853-2.5-4.5l1-1q-6.552 1.18-5.5-5.5l-1 1q-3.144-1.823.5-2.5-2.541-2.592-3.5 1.5a6.98 6.98 0 0 0-2.5-3.5q1.26-2.5-1.5-.5-3.144-1.823.5-2.5a15.3 15.3 0 0 1-4.5-1.5l-1 1-1-3q-2.593-.711-3.5-3"/><path style="opacity:1" fill="#6343a9" d="M216.5 232.5q3.594 2.457 8 3.5 2 1.5 0 3 4.922 1.941 8 6l-2 1q2.456 2.926 4.5-.5.75 1.75 2.5 2.5a7.3 7.3 0 0 1-3 2q2.448 1.965 5 1.5 1.817 1.16 0 2.5a30 30 0 0 1 4.5 5.5q4.421 1.922 7 6 .634-2.184 2.5-1.5-.883 2.81 2 5l-2 1q2.266 2.423 4 0-1.72-1.921 1-1 .002 2.099 1 4.5a10.8 10.8 0 0 1 2.5 3q2.76-2 1.5.5l3.5 5.5 1-1q1 4 2 0 1.71 2.366 1.5 5 1.237 1.329 3 1-.014 2.712 1.5 5-.07-2.719.5-5 1.393 1.783 1 4 2.553.862 5 2.5l-1 1a32.4 32.4 0 0 0 4 5.5q1.954 1.827 3-1 1.858 2.26-1 3.5a31.1 31.1 0 0 1 9 5.5 4.46 4.46 0 0 1-2 1.5q2.412.987 3.5-1.5 3.402.865 3 4-1.334-2.082-1.5.5 1.866 3.573 5.5 5.5l1-3q2.078 5.573 6.5 9.5l-3 1a26 26 0 0 1 5 3.5 3.65 3.65 0 0 0 1.5-1 40.2 40.2 0 0 1 7 8l1-1 5.5 5.5-2 1 6 4q-1.984 1.224-2 3.5h-19q-.571-2.146-3-2.5l1-3a15.5 15.5 0 0 1-5-3l2-1-5-1q.552-2.21-1.5-4.5l-1 3q-2.616-1.724-.5-4a48 48 0 0 0-5-2.5 3.65 3.65 0 0 0 1-1.5 10.8 10.8 0 0 1-2.5-3l-1 2q-1.658-5.156-6.5-7.5 1.426-1.077.5-2.5-2.655 1.164-5.5-.5l2-1q-4-2-6-6a20.5 20.5 0 0 0-6.5-3.5q-2.452-3.017-2.5-6-2.45-.702-3.5-3-2.574 1.579-3-2l-1 1q-1.514-2.288-1.5-5-2.682.428-5-1a7.25 7.25 0 0 1 2-2.5q-1.293-4.101-2.5-.5-1-4-2 0-4.21-7.28-11.5-13.5 2-1 0-2-1.244.409-1.5 2.5-.407-4.398-3.5-7.5a1342 1342 0 0 0-10-6q-1.701-1.524 1-2a34.2 34.2 0 0 1-9-6.5 3.65 3.65 0 0 1 1-1.5l-5-1 3-1q-3.912-1.583-6.5-6.5l-1 1q-.549-2.928-2.5-5 4.725-4.619 11-7"/><path style="opacity:1" fill="#2c2b8d" d="M-.5 233.5q2.977.538 2 2.5a18.6 18.6 0 0 1 3.5 6.5l2-2q.84 4.185 4 7l1-1q.765 3.757 4.5 4.5-2 2.76.5 1.5 1 4 2 0a10.1 10.1 0 0 1 1.5 6h3q-.329 1.763 1 3 .615-1.143.5-3 4.738 6.24 9.5 12.5 1.988-.223 3.5.5.925 1.423-.5 2.5 1.75.75 2.5 2.5l1-1a25.5 25.5 0 0 1 4.5 4q-3.393 3.012 1.5 1a23 23 0 0 1 2 5 33.8 33.8 0 0 1 6 5l1-2a30.4 30.4 0 0 0 5.5 7.5l-2 1q2.063 3.716 5.5 2.5a40.2 40.2 0 0 1 7 8l1-1q1.75 3.75 5.5 5.5-2.7.476-1 2 5.211 4.734 10.5 7.5.738 1.573-.5 3a9.4 9.4 0 0 1 3 3q1.783 1.393 4 1-.329 1.763 1 3 3.045-1.694 1 1.5 2.024 1.158 2.5 3.5 2.254-.502 4 0l4 6 1-1q3.144 1.823-.5 2.5 4.81.858 5 5.5h-98q-11.643-4.143-15-16z"/><path style="opacity:1" fill="#f8f8fb" d="M-.5 333.5q3.357 11.857 15 16h-15z"/><path style="opacity:1" fill="#faf8fc" d="M349.5 333.5v16h-15q11.643-4.143 15-16"/></svg>