<?xml version="1.0" encoding="UTF-8"?>
<!DOCTYPE svg PUBLIC "-//W3C//DTD SVG 1.1//EN" "http://www.w3.org/Graphics/SVG/1.1/DTD/svg11.dtd">
<svg xmlns="http://www.w3.org/2000/svg" version="1.1" width="28px" height="28px" style="shape-rendering:geometricPrecision; text-rendering:geometricPrecision; image-rendering:optimizeQuality; fill-rule:evenodd; clip-rule:evenodd" xmlns:xlink="http://www.w3.org/1999/xlink">
<g><path style="opacity:0.996" fill="#fcfafb" d="M 0.5,-0.5 C 9.16667,-0.5 17.8333,-0.5 26.5,-0.5C 26.5,0.166667 26.8333,0.5 27.5,0.5C 27.5,9.16667 27.5,17.8333 27.5,26.5C 26.8333,26.5 26.5,26.8333 26.5,27.5C 17.8333,27.5 9.16667,27.5 0.5,27.5C 0.5,26.8333 0.166667,26.5 -0.5,26.5C -0.5,17.8333 -0.5,9.16667 -0.5,0.5C 0.166667,0.5 0.5,0.166667 0.5,-0.5 Z"/></g>
<g><path style="opacity:1" fill="#924266" d="M 16.5,14.5 C 16.795,12.5767 17.6283,10.9101 19,9.5C 19.2494,11.668 18.4161,13.3347 16.5,14.5 Z"/></g>
<g><path style="opacity:1" fill="#53466f" d="M 8.5,11.5 C 8.44312,12.609 8.10978,13.609 7.5,14.5C 7.09186,15.6431 6.42519,16.6431 5.5,17.5C 3.78917,15.7597 2.95583,13.7597 3,11.5C 3.83333,12.5 4.66667,13.5 5.5,14.5C 6.28763,13.2299 7.28763,12.2299 8.5,11.5 Z"/></g>
<g><path style="opacity:1" fill="#a26783" d="M 16.5,14.5 C 16.2249,16.7583 15.2249,17.0916 13.5,15.5C 12.8333,16.1667 12.1667,16.8333 11.5,17.5C 10.7174,15.7118 9.38411,14.7118 7.5,14.5C 8.10978,13.609 8.44312,12.609 8.5,11.5C 8.36912,10.6236 8.70245,9.95689 9.5,9.5C 9.1493,11.2028 9.81597,12.8695 11.5,14.5C 12.1667,13.8333 12.8333,13.1667 13.5,12.5C 14.2652,13.6119 15.2652,14.2786 16.5,14.5 Z"/></g>
<g><path style="opacity:1" fill="#c74c87" d="M 21.5,10.5 C 25.3421,9.51413 26.8421,11.1808 26,15.5C 23.415,18.1283 20.915,18.1283 18.5,15.5C 18.6667,15.1667 18.8333,14.8333 19,14.5C 22.3554,17.3824 24.3554,16.7158 25,12.5C 24.1841,11.1772 23.0174,10.5106 21.5,10.5 Z"/></g>
</svg>
