<?xml version="1.0" encoding="UTF-8"?>
<!DOCTYPE svg PUBLIC "-//W3C//DTD SVG 1.1//EN" "http://www.w3.org/Graphics/SVG/1.1/DTD/svg11.dtd">
<svg xmlns="http://www.w3.org/2000/svg" version="1.1" width="256px" height="256px" style="shape-rendering:geometricPrecision; text-rendering:geometricPrecision; image-rendering:optimizeQuality; fill-rule:evenodd; clip-rule:evenodd" xmlns:xlink="http://www.w3.org/1999/xlink">
<g><path style="opacity:1" fill="#010102" d="M -0.5,-0.5 C 84.8333,-0.5 170.167,-0.5 255.5,-0.5C 255.5,84.8333 255.5,170.167 255.5,255.5C 170.167,255.5 84.8333,255.5 -0.5,255.5C -0.5,170.167 -0.5,84.8333 -0.5,-0.5 Z"/></g>
<g><path style="opacity:1" fill="#14c7ee" d="M 202.5,25.5 C 204.091,26.2189 205.591,27.2189 207,28.5C 216.271,25.3767 219.771,28.7101 217.5,38.5C 215.527,44.3648 214.194,50.3648 213.5,56.5C 213.167,56.5 212.833,56.5 212.5,56.5C 205.555,55.8668 198.555,55.2001 191.5,54.5C 195.462,54.0576 199.129,52.891 202.5,51C 200.875,50.1475 200.542,49.1475 201.5,48C 200.642,45.1182 199.142,42.6182 197,40.5C 193.786,44.4641 191.952,44.1308 191.5,39.5C 191.952,34.8692 193.786,34.5359 197,38.5C 199.238,36.6909 200.405,34.3576 200.5,31.5C 197.206,31.741 194.206,30.9076 191.5,29C 150.833,28.3333 110.167,28.3333 69.5,29C 66.209,30.5438 62.8757,30.7105 59.5,29.5C 61.3316,28.9432 62.6649,27.9432 63.5,26.5C 64.5,26.5 65.5,26.5 66.5,26.5C 111.853,26.8077 157.186,26.4744 202.5,25.5 Z"/></g>
<g><path style="opacity:1" fill="#083148" d="M 202.5,25.5 C 208.181,25.963 213.848,26.6297 219.5,27.5C 219.931,28.2935 220.265,29.1268 220.5,30C 219.564,32.9802 218.564,35.8136 217.5,38.5C 219.771,28.7101 216.271,25.3767 207,28.5C 205.591,27.2189 204.091,26.2189 202.5,25.5 Z"/></g>
<g><path style="opacity:1" fill="#27c8d7" d="M 66.5,26.5 C 65.5,26.5 64.5,26.5 63.5,26.5C 57.8916,28.3193 52.2249,29.986 46.5,31.5C 45.6594,34.8715 44.1594,37.8715 42,40.5C 40.7748,45.0853 40.2748,49.752 40.5,54.5C 39.0413,54.5674 37.7079,54.2341 36.5,53.5C 37.0884,45.2332 39.7551,37.7332 44.5,31C 48.1122,29.8605 51.4456,28.1939 54.5,26C 58.6888,25.1881 62.6888,25.3547 66.5,26.5 Z"/></g>
<g><path style="opacity:1" fill="#05cbf8" d="M 63.5,26.5 C 62.6649,27.9432 61.3316,28.9432 59.5,29.5C 62.8757,30.7105 66.209,30.5438 69.5,29C 110.167,28.3333 150.833,28.3333 191.5,29C 194.206,30.9076 197.206,31.741 200.5,31.5C 200.405,34.3576 199.238,36.6909 197,38.5C 193.786,34.5359 191.952,34.8692 191.5,39.5C 191.952,44.1308 193.786,44.4641 197,40.5C 199.142,42.6182 200.642,45.1182 201.5,48C 200.542,49.1475 200.875,50.1475 202.5,51C 199.129,52.891 195.462,54.0576 191.5,54.5C 198.555,55.2001 205.555,55.8668 212.5,56.5C 212.5,56.8333 212.5,57.1667 212.5,57.5C 168.143,57.1875 123.81,57.5209 79.5,58.5C 72.8419,60.1452 67.5085,63.8119 63.5,69.5C 64.0167,74.0998 64.0167,78.7665 63.5,83.5C 63.5,84.8333 63.5,86.1667 63.5,87.5C 62.5,87.5 61.5,87.5 60.5,87.5C 60.6653,91.1817 60.4986,94.8484 60,98.5C 59.6667,98.8333 59.3333,99.1667 59,99.5C 58.51,98.2068 58.3433,96.8734 58.5,95.5C 57.5,95.5 56.5,95.5 55.5,95.5C 55.7521,98.2438 55.0855,100.744 53.5,103C 53.8777,104.635 54.5444,106.135 55.5,107.5C 56.731,106.349 56.731,105.183 55.5,104C 56,103.5 56.5,103 57,102.5C 57.1667,104 57.3333,105.5 57.5,107C 56.7452,114.976 55.7452,122.809 54.5,130.5C 51.7846,145.416 49.4512,160.416 47.5,175.5C 44.6142,182.412 43.2809,189.745 43.5,197.5C 43.1667,197.5 42.8333,197.5 42.5,197.5C 38.3002,196.78 33.9669,196.114 29.5,195.5C 21.8485,196.533 17.1818,193.2 15.5,185.5C 14.6807,180.473 14.514,175.14 15,169.5C 22.4915,130.877 29.6582,92.2104 36.5,53.5C 37.7079,54.2341 39.0413,54.5674 40.5,54.5C 40.2748,49.752 40.7748,45.0853 42,40.5C 44.1594,37.8715 45.6594,34.8715 46.5,31.5C 52.2249,29.986 57.8916,28.3193 63.5,26.5 Z"/></g>
<g><path style="opacity:1" fill="#340739" d="M 212.5,56.5 C 212.833,56.5 213.167,56.5 213.5,56.5C 221.174,56.3336 228.841,56.5003 236.5,57C 237.737,57.2321 238.737,57.7321 239.5,58.5C 230.468,57.8764 221.468,57.8764 212.5,58.5C 212.5,58.1667 212.5,57.8333 212.5,57.5C 212.5,57.1667 212.5,56.8333 212.5,56.5 Z"/></g>
<g><path style="opacity:1" fill="#2854e9" d="M 212.5,57.5 C 212.5,57.8333 212.5,58.1667 212.5,58.5C 211.833,58.5 211.5,58.8333 211.5,59.5C 199.5,59.5 187.5,59.5 175.5,59.5C 162.833,59.5 150.167,59.5 137.5,59.5C 120.167,59.5 102.833,59.5 85.5,59.5C 80.8649,60.0464 76.5316,61.3797 72.5,63.5C 75.0094,62.0787 77.3428,60.4121 79.5,58.5C 123.81,57.5209 168.143,57.1875 212.5,57.5 Z"/></g>
<g><path style="opacity:1" fill="#3c18fa" d="M 208.5,73.5 C 206.749,89.7218 204.082,105.722 200.5,121.5C 199.833,123.5 199.167,125.5 198.5,127.5C 196.763,130.008 195.93,133.008 196,136.5C 195.085,135.672 194.419,134.672 194,133.5C 194,137.5 194,141.5 194,145.5C 193.374,143.009 192.541,143.009 191.5,145.5C 190.702,145.043 190.369,144.376 190.5,143.5C 190.969,139.084 189.969,135.084 187.5,131.5C 189.198,127.507 188.532,126.84 185.5,129.5C 184.881,126.968 183.881,124.635 182.5,122.5C 183.782,119.867 185.116,119.867 186.5,122.5C 186.384,118.918 186.884,115.252 188,111.5C 189,110.167 190,110.167 191,111.5C 191.509,108.862 190.342,107.528 187.5,107.5C 187.5,106.5 187.5,105.5 187.5,104.5C 186.5,104.5 185.5,104.5 184.5,104.5C 184.737,103.209 184.404,102.209 183.5,101.5C 182.972,100.279 182.305,99.1127 181.5,98C 176.896,96.9393 172.229,96.2727 167.5,96C 168.448,95.5172 169.448,95.3505 170.5,95.5C 170.18,84.585 170.513,73.7517 171.5,63C 183.266,61.4967 195.266,60.6634 207.5,60.5C 207.786,62.2769 208.453,63.9436 209.5,65.5C 208.731,68.1147 208.397,70.7814 208.5,73.5 Z"/></g>
<g><path style="opacity:1" fill="#4e39fa" d="M 85.5,59.5 C 102.833,59.5 120.167,59.5 137.5,59.5C 122.777,62.2808 107.777,63.6141 92.5,63.5C 92.1667,68.8333 91.8333,74.1667 91.5,79.5C 92.552,79.3505 93.552,79.5172 94.5,80C 92.9837,81.897 92.317,84.0637 92.5,86.5C 96.3253,87.9218 98.6587,90.7551 99.5,95C 100.938,95.2189 102.271,95.7189 103.5,96.5C 104.026,98.2652 104.359,99.9319 104.5,101.5C 104.586,102.496 104.252,103.329 103.5,104C 102.062,104.219 100.729,104.719 99.5,105.5C 100.964,107.993 100.797,110.326 99,112.5C 98.0662,109.408 96.8996,109.075 95.5,111.5C 95.9391,113.104 96.6057,114.604 97.5,116C 96.2576,117.651 95.4243,119.485 95,121.5C 94.462,113.62 92.6286,106.12 89.5,99C 87.9387,98.8119 87.272,99.6453 87.5,101.5C 85.857,101.52 84.5237,100.853 83.5,99.5C 81.936,102.136 80.6026,101.969 79.5,99C 77.1667,98.6667 74.8333,98.3333 72.5,98C 74.087,97.1376 75.7536,96.4709 77.5,96C 75.0844,95.3386 73.4177,93.8386 72.5,91.5C 70.9967,87.6447 70.3301,83.6447 70.5,79.5C 72.8333,79.5 75.1667,79.5 77.5,79.5C 77.888,75.5751 77.2213,71.9085 75.5,68.5C 75.6667,67.8333 75.8333,67.1667 76,66.5C 76.6891,67.3567 77.5224,68.0233 78.5,68.5C 79.4519,66.9547 79.7852,65.288 79.5,63.5C 83.1817,63.6653 86.8484,63.4986 90.5,63C 88.0995,62.8142 85.7662,62.3142 83.5,61.5C 84.2427,60.8182 84.9094,60.1515 85.5,59.5 Z"/></g>
<g><path style="opacity:1" fill="#4830fb" d="M 137.5,59.5 C 150.167,59.5 162.833,59.5 175.5,59.5C 162.495,61.1975 149.161,62.5308 135.5,63.5C 135.168,75.1857 135.501,86.8523 136.5,98.5C 137.719,97.7366 138.719,96.7366 139.5,95.5C 140.429,96.6888 140.762,98.0222 140.5,99.5C 139.325,99.281 138.325,99.6143 137.5,100.5C 139.631,101.169 141.631,101.835 143.5,102.5C 139.833,102.5 136.167,102.5 132.5,102.5C 130.852,109.661 128.685,115.995 126,121.5C 125.333,122.167 124.667,122.833 124,123.5C 123.329,122.748 122.496,122.414 121.5,122.5C 121.5,122.167 121.5,121.833 121.5,121.5C 120.888,117.837 120.721,114.17 121,110.5C 122.813,111.609 123.646,110.942 123.5,108.5C 122.167,108.5 120.833,108.5 119.5,108.5C 119.682,106.409 119.348,104.409 118.5,102.5C 119.935,101.071 120.935,99.4048 121.5,97.5C 121.167,96.8333 120.833,96.1667 120.5,95.5C 119.614,96.325 119.281,97.325 119.5,98.5C 116.894,99.1359 114.394,99.1359 112,98.5C 109.886,100.3 107.386,101.3 104.5,101.5C 104.359,99.9319 104.026,98.2652 103.5,96.5C 102.271,95.7189 100.938,95.2189 99.5,95C 98.6587,90.7551 96.3253,87.9218 92.5,86.5C 92.317,84.0637 92.9837,81.897 94.5,80C 93.552,79.5172 92.552,79.3505 91.5,79.5C 91.8333,74.1667 92.1667,68.8333 92.5,63.5C 107.777,63.6141 122.777,62.2808 137.5,59.5 Z"/></g>
<g><path style="opacity:1" fill="#4223fb" d="M 175.5,59.5 C 187.5,59.5 199.5,59.5 211.5,59.5C 210.99,64.3914 209.99,69.058 208.5,73.5C 208.397,70.7814 208.731,68.1147 209.5,65.5C 208.453,63.9436 207.786,62.2769 207.5,60.5C 195.266,60.6634 183.266,61.4967 171.5,63C 170.513,73.7517 170.18,84.585 170.5,95.5C 169.448,95.3505 168.448,95.5172 167.5,96C 172.229,96.2727 176.896,96.9393 181.5,98C 182.305,99.1127 182.972,100.279 183.5,101.5C 179.012,101.101 174.512,100.767 170,100.5C 167.071,100.525 164.571,101.191 162.5,102.5C 158.946,103.769 155.946,105.769 153.5,108.5C 152.167,108.5 150.833,108.5 149.5,108.5C 149.833,106.5 150.167,104.5 150.5,102.5C 148.167,102.5 145.833,102.5 143.5,102.5C 141.631,101.835 139.631,101.169 137.5,100.5C 138.325,99.6143 139.325,99.281 140.5,99.5C 140.762,98.0222 140.429,96.6888 139.5,95.5C 138.719,96.7366 137.719,97.7366 136.5,98.5C 135.501,86.8523 135.168,75.1857 135.5,63.5C 149.161,62.5308 162.495,61.1975 175.5,59.5 Z"/></g>
<g><path style="opacity:1" fill="#24bafc" d="M 79.5,58.5 C 77.3428,60.4121 75.0094,62.0787 72.5,63.5C 70.4131,64.5846 69.0798,66.2512 68.5,68.5C 67.2101,69.0577 66.3768,70.0577 66,71.5C 65.5026,74.146 65.3359,76.8127 65.5,79.5C 64.8333,80.8333 64.1667,82.1667 63.5,83.5C 64.0167,78.7665 64.0167,74.0998 63.5,69.5C 67.5085,63.8119 72.8419,60.1452 79.5,58.5 Z"/></g>
<g><path style="opacity:1" fill="#2c68e5" d="M 68.5,68.5 C 68.634,70.2915 68.3007,71.9582 67.5,73.5C 66.8333,75.5 66.1667,77.5 65.5,79.5C 65.3359,76.8127 65.5026,74.146 66,71.5C 66.3768,70.0577 67.2101,69.0577 68.5,68.5 Z"/></g>
<g><path style="opacity:1" fill="#772e78" d="M 239.5,60.5 C 240.818,63.2575 241.485,66.4242 241.5,70C 241.498,73.3518 241.165,76.5185 240.5,79.5C 240.593,73.1373 240.26,66.8039 239.5,60.5 Z"/></g>
<g><path style="opacity:1" fill="#b449ce" d="M 212.5,58.5 C 212.623,64.6094 211.956,70.6094 210.5,76.5C 211.5,76.5 212.5,76.5 213.5,76.5C 212.21,79.8743 211.21,83.3743 210.5,87C 212.215,89.7221 211.715,91.8887 209,93.5C 208.667,92.8333 208.333,92.1667 208,91.5C 207,95.5 206,99.5 205,103.5C 205.013,109.818 205.179,116.151 205.5,122.5C 204.835,120.631 204.169,118.631 203.5,116.5C 202.675,118.36 201.675,120.026 200.5,121.5C 204.082,105.722 206.749,89.7218 208.5,73.5C 209.99,69.058 210.99,64.3914 211.5,59.5C 211.5,58.8333 211.833,58.5 212.5,58.5 Z"/></g>
<g><path style="opacity:1" fill="#9a4396" d="M 239.5,87.5 C 238.373,95.8132 236.706,103.813 234.5,111.5C 235.179,103.776 236.346,96.1098 238,88.5C 238.383,87.944 238.883,87.6107 239.5,87.5 Z"/></g>
<g><path style="opacity:1" fill="#19befc" d="M 63.5,87.5 C 61.0024,97.3377 59.3357,107.338 58.5,117.5C 56.9769,121.596 55.9769,125.929 55.5,130.5C 55.1667,130.5 54.8333,130.5 54.5,130.5C 55.7452,122.809 56.7452,114.976 57.5,107C 57.3333,105.5 57.1667,104 57,102.5C 56.5,103 56,103.5 55.5,104C 56.731,105.183 56.731,106.349 55.5,107.5C 54.5444,106.135 53.8777,104.635 53.5,103C 55.0855,100.744 55.7521,98.2438 55.5,95.5C 56.5,95.5 57.5,95.5 58.5,95.5C 58.3433,96.8734 58.51,98.2068 59,99.5C 59.3333,99.1667 59.6667,98.8333 60,98.5C 60.4986,94.8484 60.6653,91.1817 60.5,87.5C 61.5,87.5 62.5,87.5 63.5,87.5 Z"/></g>
<g><path style="opacity:1" fill="#d24acc" d="M 239.5,58.5 C 239.5,59.1667 239.5,59.8333 239.5,60.5C 240.26,66.8039 240.593,73.1373 240.5,79.5C 240.167,82.1667 239.833,84.8333 239.5,87.5C 238.883,87.6107 238.383,87.944 238,88.5C 236.346,96.1098 235.179,103.776 234.5,111.5C 233.793,114.786 233.46,118.119 233.5,121.5C 231.322,128.722 229.656,136.055 228.5,143.5C 226.906,146.061 225.906,149.061 225.5,152.5C 224.692,150.577 224.192,148.577 224,146.5C 223.672,151.525 223.672,156.525 224,161.5C 219.385,158.207 216.052,159.207 214,164.5C 210.894,161.973 211.061,160.14 214.5,159C 212.91,154.548 210.41,150.715 207,147.5C 205.119,152.807 203.452,158.141 202,163.5C 202.464,156.822 202.297,150.156 201.5,143.5C 204.007,138.646 204.007,133.812 201.5,129C 202.233,127.234 202.567,125.401 202.5,123.5C 203.791,123.737 204.791,123.404 205.5,122.5C 205.179,116.151 205.013,109.818 205,103.5C 206,99.5 207,95.5 208,91.5C 208.333,92.1667 208.667,92.8333 209,93.5C 211.715,91.8887 212.215,89.7221 210.5,87C 211.21,83.3743 212.21,79.8743 213.5,76.5C 212.5,76.5 211.5,76.5 210.5,76.5C 211.956,70.6094 212.623,64.6094 212.5,58.5C 221.468,57.8764 230.468,57.8764 239.5,58.5 Z"/></g>
<g><path style="opacity:1" fill="#4228cc" d="M 183.5,101.5 C 184.404,102.209 184.737,103.209 184.5,104.5C 185.5,104.5 186.5,104.5 187.5,104.5C 187.5,105.5 187.5,106.5 187.5,107.5C 180.025,101.734 171.692,100.068 162.5,102.5C 164.571,101.191 167.071,100.525 170,100.5C 174.512,100.767 179.012,101.101 183.5,101.5 Z"/></g>
<g><path style="opacity:1" fill="#f9f9fa" d="M 87.5,104.5 C 87.801,110.511 88.301,116.511 89,122.5C 89.2355,124.119 90.0689,125.119 91.5,125.5C 91.5,126.167 91.5,126.833 91.5,127.5C 91.687,129.564 92.187,131.564 93,133.5C 95.9903,127.363 98.4903,121.029 100.5,114.5C 101.833,111.833 103.167,109.167 104.5,106.5C 108.394,105.407 112.394,104.74 116.5,104.5C 116.89,107.466 116.223,110.132 114.5,112.5C 117.129,114.659 119.129,117.659 120.5,121.5C 120.833,121.5 121.167,121.5 121.5,121.5C 121.5,121.833 121.5,122.167 121.5,122.5C 121.125,125.397 121.625,128.063 123,130.5C 127.162,122.177 131.328,113.844 135.5,105.5C 139.445,104.509 143.445,104.176 147.5,104.5C 147.371,106.216 147.038,107.883 146.5,109.5C 146.5,109.833 146.5,110.167 146.5,110.5C 142.063,118.04 138.73,126.04 136.5,134.5C 133.132,138.569 130.799,143.236 129.5,148.5C 128.733,149.172 128.066,150.005 127.5,151C 123.179,151.499 118.846,151.666 114.5,151.5C 114.23,145.903 113.23,140.57 111.5,135.5C 111.5,134.833 111.5,134.167 111.5,133.5C 111.358,129.944 110.524,126.61 109,123.5C 107.002,127.33 105.502,131.33 104.5,135.5C 103.463,136.93 102.796,138.597 102.5,140.5C 100.399,143.797 99.0653,147.463 98.5,151.5C 93.5,151.5 88.5,151.5 83.5,151.5C 81.6563,139.945 79.3229,128.611 76.5,117.5C 75.9262,112.817 75.2596,108.15 74.5,103.5C 79.0323,103.182 83.3656,103.515 87.5,104.5 Z"/></g>
<g><path style="opacity:1" fill="#5e47d7" d="M 143.5,102.5 C 145.833,102.5 148.167,102.5 150.5,102.5C 150.167,104.5 149.833,106.5 149.5,108.5C 150.833,108.5 152.167,108.5 153.5,108.5C 149.5,114.833 149.5,121.167 153.5,127.5C 151.616,127.288 150.283,126.288 149.5,124.5C 148.338,119.869 148.172,115.202 149,110.5C 149.654,111.696 150.154,111.696 150.5,110.5C 149.311,109.571 147.978,109.238 146.5,109.5C 147.038,107.883 147.371,106.216 147.5,104.5C 143.445,104.176 139.445,104.509 135.5,105.5C 131.328,113.844 127.162,122.177 123,130.5C 121.625,128.063 121.125,125.397 121.5,122.5C 122.496,122.414 123.329,122.748 124,123.5C 124.667,122.833 125.333,122.167 126,121.5C 128.685,115.995 130.852,109.661 132.5,102.5C 136.167,102.5 139.833,102.5 143.5,102.5 Z"/></g>
<g><path style="opacity:1" fill="#3a50e9" d="M 67.5,73.5 C 68.1622,79.6112 66.9955,85.2778 64,90.5C 62.3085,99.1117 60.9752,107.778 60,116.5C 59.6174,117.056 59.1174,117.389 58.5,117.5C 59.3357,107.338 61.0024,97.3377 63.5,87.5C 63.5,86.1667 63.5,84.8333 63.5,83.5C 64.1667,82.1667 64.8333,80.8333 65.5,79.5C 66.1667,77.5 66.8333,75.5 67.5,73.5 Z"/></g>
<g><path style="opacity:1" fill="#5a41c3" d="M 178.5,116.5 C 174.481,116.354 170.481,116.021 166.5,115.5C 166.5,116.833 166.5,118.167 166.5,119.5C 163.983,117.923 163.983,116.09 166.5,114C 170.797,113.759 174.797,114.592 178.5,116.5 Z"/></g>
<g><path style="opacity:1" fill="#5841dd" d="M 146.5,110.5 C 146.824,114.555 146.491,118.555 145.5,122.5C 144.391,121.41 143.391,121.41 142.5,122.5C 140.791,126.755 138.791,130.755 136.5,134.5C 138.73,126.04 142.063,118.04 146.5,110.5 Z"/></g>
<g><path style="opacity:1" fill="#4c34c5" d="M 177.5,124.5 C 174.088,123.925 171.088,122.592 168.5,120.5C 169.93,120.579 171.264,120.246 172.5,119.5C 173.386,120.325 173.719,121.325 173.5,122.5C 175.483,122.157 176.817,122.824 177.5,124.5 Z"/></g>
<g><path style="opacity:1" fill="#f9f7fa" d="M 187.5,107.5 C 187.611,108.117 187.944,108.617 188.5,109C 186.5,111.333 184.5,113.667 182.5,116C 181.207,116.49 179.873,116.657 178.5,116.5C 174.797,114.592 170.797,113.759 166.5,114C 163.983,116.09 163.983,117.923 166.5,119.5C 166.842,120.338 167.508,120.672 168.5,120.5C 171.088,122.592 174.088,123.925 177.5,124.5C 181.558,126.227 184.225,129.227 185.5,133.5C 185.879,138.216 184.879,142.55 182.5,146.5C 171.489,155.744 159.822,156.744 147.5,149.5C 146.19,147.852 144.857,146.186 143.5,144.5C 145.69,142.144 147.69,139.644 149.5,137C 152.822,137.809 156.155,138.976 159.5,140.5C 162.64,141.641 165.973,141.808 169.5,141C 170.801,139.384 170.801,137.884 169.5,136.5C 164.202,133.515 158.868,130.515 153.5,127.5C 149.5,121.167 149.5,114.833 153.5,108.5C 155.946,105.769 158.946,103.769 162.5,102.5C 171.692,100.068 180.025,101.734 187.5,107.5 Z"/></g>
<g><path style="opacity:1" fill="#5744c4" d="M 100.5,114.5 C 98.4903,121.029 95.9903,127.363 93,133.5C 92.187,131.564 91.687,129.564 91.5,127.5C 92.5,127.5 93.5,127.5 94.5,127.5C 95.7431,122.749 97.7431,118.416 100.5,114.5 Z"/></g>
<g><path style="opacity:1" fill="#5e4bcb" d="M 111.5,133.5 C 110.221,132.032 108.554,131.365 106.5,131.5C 106.771,133.38 106.104,134.713 104.5,135.5C 105.502,131.33 107.002,127.33 109,123.5C 110.524,126.61 111.358,129.944 111.5,133.5 Z"/></g>
<g><path style="opacity:1" fill="#6251cb" d="M 76.5,117.5 C 79.3229,128.611 81.6563,139.945 83.5,151.5C 82.6851,150.571 81.8518,149.571 81,148.5C 80.7303,142.192 79.3969,136.192 77,130.5C 76.501,126.179 76.3343,121.846 76.5,117.5 Z"/></g>
<g><path style="opacity:1" fill="#9345e2" d="M 200.5,121.5 C 200.665,124.518 200.498,127.518 200,130.5C 199.229,135.109 198.062,139.442 196.5,143.5C 197.003,138.141 197.67,132.807 198.5,127.5C 199.167,125.5 199.833,123.5 200.5,121.5 Z"/></g>
<g><path style="opacity:1" fill="#4329f8" d="M 146.5,109.5 C 147.978,109.238 149.311,109.571 150.5,110.5C 150.154,111.696 149.654,111.696 149,110.5C 148.172,115.202 148.338,119.869 149.5,124.5C 150.283,126.288 151.616,127.288 153.5,127.5C 153.277,132.225 150.777,134.892 146,135.5C 145.51,136.793 145.343,138.127 145.5,139.5C 142.8,138.484 140.134,138.484 137.5,139.5C 136.548,137.955 136.215,136.288 136.5,134.5C 138.791,130.755 140.791,126.755 142.5,122.5C 143.391,121.41 144.391,121.41 145.5,122.5C 146.491,118.555 146.824,114.555 146.5,110.5C 146.5,110.167 146.5,109.833 146.5,109.5 Z"/></g>
<g><path style="opacity:1" fill="#462be6" d="M 153.5,127.5 C 158.868,130.515 164.202,133.515 169.5,136.5C 169.5,137.5 169.5,138.5 169.5,139.5C 166.167,139.833 162.833,140.167 159.5,140.5C 156.155,138.976 152.822,137.809 149.5,137C 147.69,139.644 145.69,142.144 143.5,144.5C 144.857,146.186 146.19,147.852 147.5,149.5C 145.712,149.785 144.045,149.452 142.5,148.5C 141.07,146.614 139.403,144.947 137.5,143.5C 136.242,146.6 134.742,149.6 133,152.5C 130.745,153.761 128.578,155.094 126.5,156.5C 126.5,155.167 126.5,153.833 126.5,152.5C 127.5,152.5 128.5,152.5 129.5,152.5C 129.5,151.167 129.5,149.833 129.5,148.5C 130.799,143.236 133.132,138.569 136.5,134.5C 136.215,136.288 136.548,137.955 137.5,139.5C 140.134,138.484 142.8,138.484 145.5,139.5C 145.343,138.127 145.51,136.793 146,135.5C 150.777,134.892 153.277,132.225 153.5,127.5 Z"/></g>
<g><path style="opacity:1" fill="#4d35bd" d="M 169.5,136.5 C 170.801,137.884 170.801,139.384 169.5,141C 165.973,141.808 162.64,141.641 159.5,140.5C 162.833,140.167 166.167,139.833 169.5,139.5C 169.5,138.5 169.5,137.5 169.5,136.5 Z"/></g>
<g><path style="opacity:1" fill="#503df7" d="M 85.5,59.5 C 84.9094,60.1515 84.2427,60.8182 83.5,61.5C 85.7662,62.3142 88.0995,62.8142 90.5,63C 86.8484,63.4986 83.1817,63.6653 79.5,63.5C 79.7852,65.288 79.4519,66.9547 78.5,68.5C 77.5224,68.0233 76.6891,67.3567 76,66.5C 75.8333,67.1667 75.6667,67.8333 75.5,68.5C 77.2213,71.9085 77.888,75.5751 77.5,79.5C 75.1667,79.5 72.8333,79.5 70.5,79.5C 70.3301,83.6447 70.9967,87.6447 72.5,91.5C 73.4177,93.8386 75.0844,95.3386 77.5,96C 75.7536,96.4709 74.087,97.1376 72.5,98C 74.8333,98.3333 77.1667,98.6667 79.5,99C 80.6026,101.969 81.936,102.136 83.5,99.5C 84.5237,100.853 85.857,101.52 87.5,101.5C 87.272,99.6453 87.9387,98.8119 89.5,99C 92.6286,106.12 94.462,113.62 95,121.5C 95.4243,119.485 96.2576,117.651 97.5,116C 96.6057,114.604 95.9391,113.104 95.5,111.5C 96.8996,109.075 98.0662,109.408 99,112.5C 100.797,110.326 100.964,107.993 99.5,105.5C 100.729,104.719 102.062,104.219 103.5,104C 104.252,103.329 104.586,102.496 104.5,101.5C 107.386,101.3 109.886,100.3 112,98.5C 114.394,99.1359 116.894,99.1359 119.5,98.5C 119.281,97.325 119.614,96.325 120.5,95.5C 120.833,96.1667 121.167,96.8333 121.5,97.5C 120.935,99.4048 119.935,101.071 118.5,102.5C 119.348,104.409 119.682,106.409 119.5,108.5C 120.833,108.5 122.167,108.5 123.5,108.5C 123.646,110.942 122.813,111.609 121,110.5C 120.721,114.17 120.888,117.837 121.5,121.5C 121.167,121.5 120.833,121.5 120.5,121.5C 119.714,115.451 118.714,109.451 117.5,103.5C 113.486,103.334 109.486,103.501 105.5,104C 104.748,104.671 104.414,105.504 104.5,106.5C 103.167,109.167 101.833,111.833 100.5,114.5C 97.7431,118.416 95.7431,122.749 94.5,127.5C 93.5,127.5 92.5,127.5 91.5,127.5C 91.5,126.833 91.5,126.167 91.5,125.5C 91.1667,122.833 90.8333,120.167 90.5,117.5C 90.85,112.485 90.1834,107.652 88.5,103C 83.1771,102.501 77.8437,102.334 72.5,102.5C 72.7076,104.92 72.3742,107.253 71.5,109.5C 72.325,110.386 73.325,110.719 74.5,110.5C 74.3379,112.527 74.5045,114.527 75,116.5C 75.3826,117.056 75.8826,117.389 76.5,117.5C 76.3343,121.846 76.501,126.179 77,130.5C 79.3969,136.192 80.7303,142.192 81,148.5C 81.8518,149.571 82.6851,150.571 83.5,151.5C 88.0286,152.273 92.6953,152.94 97.5,153.5C 96.1917,154.232 94.8584,155.066 93.5,156C 90.1182,156.176 86.7848,156.676 83.5,157.5C 84.6085,159.214 83.9418,159.881 81.5,159.5C 81.1867,155.67 79.6867,152.337 77,149.5C 76.5045,147.527 76.3379,145.527 76.5,143.5C 75.5,143.5 74.5,143.5 73.5,143.5C 73.6941,146.33 74.3608,148.996 75.5,151.5C 74.5,151.5 73.5,151.5 72.5,151.5C 72.7239,153.787 73.3906,155.953 74.5,158C 73.5656,163.785 73.2323,169.618 73.5,175.5C 78.1804,176.196 82.3471,175.196 86,172.5C 89.529,174.958 89.029,175.958 84.5,175.5C 84.8134,178.247 84.48,180.914 83.5,183.5C 82.2638,184.246 80.9305,184.579 79.5,184.5C 79.5,187.167 79.5,189.833 79.5,192.5C 93.1446,193.385 106.811,193.718 120.5,193.5C 133.402,194.981 146.402,195.647 159.5,195.5C 165.189,195.468 170.855,195.134 176.5,194.5C 176.167,195.167 175.833,195.833 175.5,196.5C 173.5,196.5 171.5,196.5 169.5,196.5C 127.833,196.5 86.1667,196.5 44.5,196.5C 45.4646,192.227 46.1313,187.894 46.5,183.5C 48.2016,181.789 49.5349,179.789 50.5,177.5C 49.4307,171.513 49.4307,165.513 50.5,159.5C 51.5,159.5 52.5,159.5 53.5,159.5C 53.3379,161.527 53.5045,163.527 54,165.5C 56.9645,157.871 57.1312,150.205 54.5,142.5C 55.1638,138.524 55.4971,134.524 55.5,130.5C 55.9769,125.929 56.9769,121.596 58.5,117.5C 59.1174,117.389 59.6174,117.056 60,116.5C 60.9752,107.778 62.3085,99.1117 64,90.5C 66.9955,85.2778 68.1622,79.6112 67.5,73.5C 68.3007,71.9582 68.634,70.2915 68.5,68.5C 69.0798,66.2512 70.4131,64.5846 72.5,63.5C 76.5316,61.3797 80.8649,60.0464 85.5,59.5 Z"/></g>
<g><path style="opacity:1" fill="#e0dbf8" d="M 87.5,104.5 C 88.4076,108.851 89.4076,113.184 90.5,117.5C 90.8333,120.167 91.1667,122.833 91.5,125.5C 90.0689,125.119 89.2355,124.119 89,122.5C 88.301,116.511 87.801,110.511 87.5,104.5 Z"/></g>
<g><path style="opacity:1" fill="#e6e2fa" d="M 120.5,121.5 C 119.129,117.659 117.129,114.659 114.5,112.5C 116.223,110.132 116.89,107.466 116.5,104.5C 112.394,104.74 108.394,105.407 104.5,106.5C 104.414,105.504 104.748,104.671 105.5,104C 109.486,103.501 113.486,103.334 117.5,103.5C 118.714,109.451 119.714,115.451 120.5,121.5 Z"/></g>
<g><path style="opacity:1" fill="#5241c8" d="M 90.5,117.5 C 89.4076,113.184 88.4076,108.851 87.5,104.5C 83.3656,103.515 79.0323,103.182 74.5,103.5C 75.2596,108.15 75.9262,112.817 76.5,117.5C 75.8826,117.389 75.3826,117.056 75,116.5C 74.5045,114.527 74.3379,112.527 74.5,110.5C 73.325,110.719 72.325,110.386 71.5,109.5C 72.3742,107.253 72.7076,104.92 72.5,102.5C 77.8437,102.334 83.1771,102.501 88.5,103C 90.1834,107.652 90.85,112.485 90.5,117.5 Z"/></g>
<g><path style="opacity:1" fill="#5f46ca" d="M 185.5,133.5 C 186.638,136.304 186.805,139.304 186,142.5C 185.34,144.324 184.173,145.657 182.5,146.5C 184.879,142.55 185.879,138.216 185.5,133.5 Z"/></g>
<g><path style="opacity:1" fill="#210a1e" d="M 233.5,121.5 C 232.173,134.597 229.84,147.263 226.5,159.5C 226.887,154.126 227.554,148.793 228.5,143.5C 229.656,136.055 231.322,128.722 233.5,121.5 Z"/></g>
<g><path style="opacity:1" fill="#3e20e6" d="M 187.5,107.5 C 190.342,107.528 191.509,108.862 191,111.5C 190,110.167 189,110.167 188,111.5C 186.884,115.252 186.384,118.918 186.5,122.5C 185.116,119.867 183.782,119.867 182.5,122.5C 183.881,124.635 184.881,126.968 185.5,129.5C 188.532,126.84 189.198,127.507 187.5,131.5C 189.969,135.084 190.969,139.084 190.5,143.5C 187.422,145.331 186.088,147.831 186.5,151C 185.552,151.483 184.552,151.649 183.5,151.5C 183.62,154.205 182.62,154.872 180.5,153.5C 178.198,156.899 175.032,158.899 171,159.5C 165.597,156.359 159.763,155.192 153.5,156C 152.542,157.147 152.875,158.147 154.5,159C 152.833,159.667 151.167,159.667 149.5,159C 150.684,157.855 150.684,156.688 149.5,155.5C 148.833,153.5 148.167,151.5 147.5,149.5C 159.822,156.744 171.489,155.744 182.5,146.5C 184.173,145.657 185.34,144.324 186,142.5C 186.805,139.304 186.638,136.304 185.5,133.5C 184.225,129.227 181.558,126.227 177.5,124.5C 176.817,122.824 175.483,122.157 173.5,122.5C 173.719,121.325 173.386,120.325 172.5,119.5C 171.264,120.246 169.93,120.579 168.5,120.5C 167.508,120.672 166.842,120.338 166.5,119.5C 166.5,118.167 166.5,116.833 166.5,115.5C 170.481,116.021 174.481,116.354 178.5,116.5C 179.873,116.657 181.207,116.49 182.5,116C 184.5,113.667 186.5,111.333 188.5,109C 187.944,108.617 187.611,108.117 187.5,107.5 Z"/></g>
<g><path style="opacity:1" fill="#543ecc" d="M 111.5,135.5 C 113.23,140.57 114.23,145.903 114.5,151.5C 118.846,151.666 123.179,151.499 127.5,151C 128.066,150.005 128.733,149.172 129.5,148.5C 129.5,149.833 129.5,151.167 129.5,152.5C 128.5,152.5 127.5,152.5 126.5,152.5C 121.901,152.8 117.401,152.467 113,151.5C 111.809,146.233 111.309,140.899 111.5,135.5 Z"/></g>
<g><path style="opacity:1" fill="#da55cf" d="M 205.5,122.5 C 204.791,123.404 203.791,123.737 202.5,123.5C 202.567,125.401 202.233,127.234 201.5,129C 204.007,133.812 204.007,138.646 201.5,143.5C 202.297,150.156 202.464,156.822 202,163.5C 203.452,158.141 205.119,152.807 207,147.5C 210.41,150.715 212.91,154.548 214.5,159C 211.061,160.14 210.894,161.973 214,164.5C 216.052,159.207 219.385,158.207 224,161.5C 223.672,156.525 223.672,151.525 224,146.5C 224.192,148.577 224.692,150.577 225.5,152.5C 225.906,149.061 226.906,146.061 228.5,143.5C 227.554,148.793 226.887,154.126 226.5,159.5C 225.655,160.671 224.989,162.005 224.5,163.5C 222.733,165.409 221.067,167.409 219.5,169.5C 218.237,175.358 216.403,181.025 214,186.5C 213.26,189.176 212.927,191.842 213,194.5C 218.248,184.059 219.581,185.059 217,197.5C 216.29,198.973 215.124,199.64 213.5,199.5C 213.5,204.833 213.5,210.167 213.5,215.5C 211.988,217.317 209.988,218.317 207.5,218.5C 206.73,214.249 208.397,211.749 212.5,211C 211.552,210.517 210.552,210.351 209.5,210.5C 209.045,203.773 209.045,197.106 209.5,190.5C 209,189.5 208.5,188.5 208,187.5C 206.853,188.458 205.853,188.125 205,186.5C 204.501,182.848 204.335,179.182 204.5,175.5C 201.921,175.917 199.754,175.25 198,173.5C 196.594,176.657 194.428,178.991 191.5,180.5C 191.5,178.833 191.5,177.167 191.5,175.5C 191.073,169.886 191.74,164.553 193.5,159.5C 195.559,154.494 196.559,149.16 196.5,143.5C 198.062,139.442 199.229,135.109 200,130.5C 200.498,127.518 200.665,124.518 200.5,121.5C 201.675,120.026 202.675,118.36 203.5,116.5C 204.169,118.631 204.835,120.631 205.5,122.5 Z"/></g>
<g><path style="opacity:1" fill="#984fe9" d="M 196.5,143.5 C 196.559,149.16 195.559,154.494 193.5,159.5C 193.754,153.905 194.754,148.572 196.5,143.5 Z"/></g>
<g><path style="opacity:1" fill="#5641d1" d="M 102.5,140.5 C 102.547,144.776 101.547,148.776 99.5,152.5C 99.0431,153.298 98.3764,153.631 97.5,153.5C 92.6953,152.94 88.0286,152.273 83.5,151.5C 88.5,151.5 93.5,151.5 98.5,151.5C 99.0653,147.463 100.399,143.797 102.5,140.5 Z"/></g>
<g><path style="opacity:1" fill="#472efd" d="M 147.5,149.5 C 148.167,151.5 148.833,153.5 149.5,155.5C 147.418,155.332 145.418,155.332 143.5,155.5C 144.311,156.216 144.978,157.05 145.5,158C 143.57,169.353 142.903,180.853 143.5,192.5C 147.182,192.335 150.848,192.501 154.5,193C 156.744,193.05 158.411,193.883 159.5,195.5C 146.402,195.647 133.402,194.981 120.5,193.5C 116.688,192.676 112.688,192.176 108.5,192C 109.448,191.517 110.448,191.351 111.5,191.5C 111.82,180.585 111.487,169.752 110.5,159C 111.364,157.303 112.697,156.137 114.5,155.5C 118.429,156.433 122.429,156.766 126.5,156.5C 128.578,155.094 130.745,153.761 133,152.5C 134.742,149.6 136.242,146.6 137.5,143.5C 139.403,144.947 141.07,146.614 142.5,148.5C 144.045,149.452 145.712,149.785 147.5,149.5 Z"/></g>
<g><path style="opacity:1" fill="#4647ef" d="M 54.5,130.5 C 54.8333,130.5 55.1667,130.5 55.5,130.5C 55.4971,134.524 55.1638,138.524 54.5,142.5C 57.1312,150.205 56.9645,157.871 54,165.5C 53.5045,163.527 53.3379,161.527 53.5,159.5C 52.5,159.5 51.5,159.5 50.5,159.5C 49.4307,165.513 49.4307,171.513 50.5,177.5C 49.5349,179.789 48.2016,181.789 46.5,183.5C 46.8333,180.833 47.1667,178.167 47.5,175.5C 49.4512,160.416 51.7846,145.416 54.5,130.5 Z"/></g>
<g><path style="opacity:1" fill="#4d35fb" d="M 111.5,133.5 C 111.5,134.167 111.5,134.833 111.5,135.5C 111.309,140.899 111.809,146.233 113,151.5C 117.401,152.467 121.901,152.8 126.5,152.5C 126.5,153.833 126.5,155.167 126.5,156.5C 122.429,156.766 118.429,156.433 114.5,155.5C 112.697,156.137 111.364,157.303 110.5,159C 111.487,169.752 111.82,180.585 111.5,191.5C 110.448,191.351 109.448,191.517 108.5,192C 112.688,192.176 116.688,192.676 120.5,193.5C 106.811,193.718 93.1446,193.385 79.5,192.5C 79.5,189.833 79.5,187.167 79.5,184.5C 80.9305,184.579 82.2638,184.246 83.5,183.5C 84.48,180.914 84.8134,178.247 84.5,175.5C 89.029,175.958 89.529,174.958 86,172.5C 82.3471,175.196 78.1804,176.196 73.5,175.5C 73.2323,169.618 73.5656,163.785 74.5,158C 73.3906,155.953 72.7239,153.787 72.5,151.5C 73.5,151.5 74.5,151.5 75.5,151.5C 74.3608,148.996 73.6941,146.33 73.5,143.5C 74.5,143.5 75.5,143.5 76.5,143.5C 76.3379,145.527 76.5045,147.527 77,149.5C 79.6867,152.337 81.1867,155.67 81.5,159.5C 83.9418,159.881 84.6085,159.214 83.5,157.5C 86.7848,156.676 90.1182,156.176 93.5,156C 94.8584,155.066 96.1917,154.232 97.5,153.5C 98.3764,153.631 99.0431,153.298 99.5,152.5C 101.547,148.776 102.547,144.776 102.5,140.5C 102.796,138.597 103.463,136.93 104.5,135.5C 106.104,134.713 106.771,133.38 106.5,131.5C 108.554,131.365 110.221,132.032 111.5,133.5 Z"/></g>
<g><path style="opacity:1" fill="#401ffb" d="M 198.5,127.5 C 197.67,132.807 197.003,138.141 196.5,143.5C 194.754,148.572 193.754,153.905 193.5,159.5C 191.74,164.553 191.073,169.886 191.5,175.5C 189.427,181.001 186.76,186.334 183.5,191.5C 181.372,192.957 179.038,193.957 176.5,194.5C 170.855,195.134 165.189,195.468 159.5,195.5C 158.411,193.883 156.744,193.05 154.5,193C 150.848,192.501 147.182,192.335 143.5,192.5C 142.903,180.853 143.57,169.353 145.5,158C 144.978,157.05 144.311,156.216 143.5,155.5C 145.418,155.332 147.418,155.332 149.5,155.5C 150.684,156.688 150.684,157.855 149.5,159C 151.167,159.667 152.833,159.667 154.5,159C 152.875,158.147 152.542,157.147 153.5,156C 159.763,155.192 165.597,156.359 171,159.5C 175.032,158.899 178.198,156.899 180.5,153.5C 182.62,154.872 183.62,154.205 183.5,151.5C 184.552,151.649 185.552,151.483 186.5,151C 186.088,147.831 187.422,145.331 190.5,143.5C 190.369,144.376 190.702,145.043 191.5,145.5C 192.541,143.009 193.374,143.009 194,145.5C 194,141.5 194,137.5 194,133.5C 194.419,134.672 195.085,135.672 196,136.5C 195.93,133.008 196.763,130.008 198.5,127.5 Z"/></g>
<g><path style="opacity:1" fill="#af50e3" d="M 191.5,175.5 C 191.5,177.167 191.5,178.833 191.5,180.5C 189.895,182.48 188.728,184.813 188,187.5C 186.693,189.192 185.193,190.525 183.5,191.5C 186.76,186.334 189.427,181.001 191.5,175.5 Z"/></g>
<g><path style="opacity:1" fill="#d75bc8" d="M 224.5,163.5 C 222.22,176.794 220.22,190.127 218.5,203.5C 217.345,208.476 215.845,213.476 214,218.5C 212.251,221.753 209.751,224.087 206.5,225.5C 205.5,225.5 204.5,225.5 203.5,225.5C 204.091,224.849 204.757,224.182 205.5,223.5C 204.674,222.549 204.508,221.549 205,220.5C 208.985,221.083 211.819,219.416 213.5,215.5C 213.5,210.167 213.5,204.833 213.5,199.5C 215.124,199.64 216.29,198.973 217,197.5C 219.581,185.059 218.248,184.059 213,194.5C 212.927,191.842 213.26,189.176 214,186.5C 216.403,181.025 218.237,175.358 219.5,169.5C 221.067,167.409 222.733,165.409 224.5,163.5 Z"/></g>
<g><path style="opacity:1" fill="#6463ec" d="M 47.5,175.5 C 47.1667,178.167 46.8333,180.833 46.5,183.5C 46.1313,187.894 45.4646,192.227 44.5,196.5C 86.1667,196.5 127.833,196.5 169.5,196.5C 150.674,197.497 131.674,197.83 112.5,197.5C 89.8333,197.5 67.1667,197.5 44.5,197.5C 44.1667,197.5 43.8333,197.5 43.5,197.5C 43.2809,189.745 44.6142,182.412 47.5,175.5 Z"/></g>
<g><path style="opacity:1" fill="#0c2031" d="M 15.5,185.5 C 17.1818,193.2 21.8485,196.533 29.5,195.5C 33.9669,196.114 38.3002,196.78 42.5,197.5C 35.5778,197.188 28.7445,197.521 22,198.5C 19.9935,197.331 17.8268,196.665 15.5,196.5C 15.5,192.833 15.5,189.167 15.5,185.5 Z"/></g>
<g><path style="opacity:1" fill="#c16ee5" d="M 169.5,196.5 C 171.5,196.5 173.5,196.5 175.5,196.5C 172.091,197.903 168.425,198.57 164.5,198.5C 147.167,198.5 129.833,198.5 112.5,198.5C 112.5,198.167 112.5,197.833 112.5,197.5C 131.674,197.83 150.674,197.497 169.5,196.5 Z"/></g>
<g><path style="opacity:1" fill="#f99df3" d="M 44.5,198.5 C 58.1732,198.758 71.8399,199.258 85.5,200C 83.4233,200.192 81.4233,200.692 79.5,201.5C 82.7848,202.324 86.1182,202.824 89.5,203C 87.6079,203.973 85.6079,204.64 83.5,205C 84.7932,205.49 86.1266,205.657 87.5,205.5C 90.3813,211.576 94.0479,217.242 98.5,222.5C 100.369,223.624 102.369,224.457 104.5,225C 102.833,225.333 101.167,225.667 99.5,226C 102.036,226.186 104.369,226.686 106.5,227.5C 89.83,227.667 73.1633,227.5 56.5,227C 53.8934,224.895 50.8934,224.062 47.5,224.5C 47.5,222.833 47.5,221.167 47.5,219.5C 50.5849,219.582 52.2515,218.082 52.5,215C 51.8179,210.99 49.6513,208.157 46,206.5C 45.8195,204.512 45.9862,202.512 46.5,200.5C 45.325,200.719 44.325,200.386 43.5,199.5C 43.6236,198.893 43.9569,198.56 44.5,198.5 Z"/></g>
<g><path style="opacity:1" fill="#ef8be8" d="M 44.5,198.5 C 44.5,198.167 44.5,197.833 44.5,197.5C 67.1667,197.5 89.8333,197.5 112.5,197.5C 112.5,197.833 112.5,198.167 112.5,198.5C 117.547,199.271 123.88,200.438 131.5,202C 124.976,203.796 118.309,205.296 111.5,206.5C 113.167,207.167 114.833,207.833 116.5,208.5C 120.436,213.404 124.103,218.404 127.5,223.5C 132.899,223.309 138.233,223.809 143.5,225C 142.167,225.333 140.833,225.667 139.5,226C 156.791,227.412 174.125,227.912 191.5,227.5C 194.059,227.802 196.393,227.468 198.5,226.5C 200.216,226.371 201.883,226.038 203.5,225.5C 204.5,225.5 205.5,225.5 206.5,225.5C 205.992,227.233 205.159,227.566 204,226.5C 203.25,227.126 202.416,227.626 201.5,228C 171.502,228.5 141.502,228.667 111.5,228.5C 110.081,227.549 108.415,227.216 106.5,227.5C 104.369,226.686 102.036,226.186 99.5,226C 101.167,225.667 102.833,225.333 104.5,225C 102.369,224.457 100.369,223.624 98.5,222.5C 94.0479,217.242 90.3813,211.576 87.5,205.5C 86.1266,205.657 84.7932,205.49 83.5,205C 85.6079,204.64 87.6079,203.973 89.5,203C 86.1182,202.824 82.7848,202.324 79.5,201.5C 81.4233,200.692 83.4233,200.192 85.5,200C 71.8399,199.258 58.1732,198.758 44.5,198.5 Z"/></g>
<g><path style="opacity:1" fill="#ef7de4" d="M 112.5,198.5 C 129.833,198.5 147.167,198.5 164.5,198.5C 164.5,199.167 164.833,199.5 165.5,199.5C 164.185,201.65 162.185,202.984 159.5,203.5C 160.833,204.5 162.167,205.5 163.5,206.5C 165.771,214.247 170.105,220.413 176.5,225C 181.511,225.388 186.511,225.222 191.5,224.5C 191.5,225.5 191.5,226.5 191.5,227.5C 174.125,227.912 156.791,227.412 139.5,226C 140.833,225.667 142.167,225.333 143.5,225C 138.233,223.809 132.899,223.309 127.5,223.5C 124.103,218.404 120.436,213.404 116.5,208.5C 114.833,207.833 113.167,207.167 111.5,206.5C 118.309,205.296 124.976,203.796 131.5,202C 123.88,200.438 117.547,199.271 112.5,198.5 Z"/></g>
<g><path style="opacity:1" fill="#e96bdc" d="M 165.5,199.5 C 170.076,200.81 174.743,201.81 179.5,202.5C 179.5,201.5 179.5,200.5 179.5,199.5C 181.288,199.215 182.955,199.548 184.5,200.5C 183.263,201.281 182.263,202.281 181.5,203.5C 182.167,203.833 182.833,204.167 183.5,204.5C 177.005,206.387 177.338,207.387 184.5,207.5C 185.674,210.884 187.174,214.218 189,217.5C 192.181,220.578 195.348,223.578 198.5,226.5C 196.393,227.468 194.059,227.802 191.5,227.5C 191.5,226.5 191.5,225.5 191.5,224.5C 186.511,225.222 181.511,225.388 176.5,225C 170.105,220.413 165.771,214.247 163.5,206.5C 162.167,205.5 160.833,204.5 159.5,203.5C 162.185,202.984 164.185,201.65 165.5,199.5 Z"/></g>
<g><path style="opacity:1" fill="#e35fd5" d="M 213.5,215.5 C 211.819,219.416 208.985,221.083 205,220.5C 204.508,221.549 204.674,222.549 205.5,223.5C 204.757,224.182 204.091,224.849 203.5,225.5C 201.883,226.038 200.216,226.371 198.5,226.5C 195.348,223.578 192.181,220.578 189,217.5C 187.174,214.218 185.674,210.884 184.5,207.5C 177.338,207.387 177.005,206.387 183.5,204.5C 182.833,204.167 182.167,203.833 181.5,203.5C 182.263,202.281 183.263,201.281 184.5,200.5C 182.955,199.548 181.288,199.215 179.5,199.5C 179.5,200.5 179.5,201.5 179.5,202.5C 174.743,201.81 170.076,200.81 165.5,199.5C 164.833,199.5 164.5,199.167 164.5,198.5C 168.425,198.57 172.091,197.903 175.5,196.5C 175.833,195.833 176.167,195.167 176.5,194.5C 179.038,193.957 181.372,192.957 183.5,191.5C 185.193,190.525 186.693,189.192 188,187.5C 188.728,184.813 189.895,182.48 191.5,180.5C 194.428,178.991 196.594,176.657 198,173.5C 199.754,175.25 201.921,175.917 204.5,175.5C 204.335,179.182 204.501,182.848 205,186.5C 205.853,188.125 206.853,188.458 208,187.5C 208.5,188.5 209,189.5 209.5,190.5C 209.045,197.106 209.045,203.773 209.5,210.5C 210.552,210.351 211.552,210.517 212.5,211C 208.397,211.749 206.73,214.249 207.5,218.5C 209.988,218.317 211.988,217.317 213.5,215.5 Z"/></g>
<g><path style="opacity:1" fill="#eea2e7" d="M 42.5,197.5 C 42.8333,197.5 43.1667,197.5 43.5,197.5C 43.8333,197.5 44.1667,197.5 44.5,197.5C 44.5,197.833 44.5,198.167 44.5,198.5C 43.9569,198.56 43.6236,198.893 43.5,199.5C 44.325,200.386 45.325,200.719 46.5,200.5C 45.9862,202.512 45.8195,204.512 46,206.5C 49.6513,208.157 51.8179,210.99 52.5,215C 52.2515,218.082 50.5849,219.582 47.5,219.5C 47.5,221.167 47.5,222.833 47.5,224.5C 50.8934,224.062 53.8934,224.895 56.5,227C 73.1633,227.5 89.83,227.667 106.5,227.5C 108.415,227.216 110.081,227.549 111.5,228.5C 91.4134,228.653 71.4134,228.653 51.5,228.5C 51.631,227.761 51.4643,227.094 51,226.5C 50.2825,227.451 49.4491,227.617 48.5,227C 45.3333,224.5 42.5,221.667 40,218.5C 39.5927,211.365 40.4261,204.365 42.5,197.5 Z"/></g>
<g><path style="opacity:1" fill="#221020" d="M 218.5,203.5 C 218.55,208.552 218.05,213.552 217,218.5C 214.464,220.962 212.964,223.962 212.5,227.5C 210.605,229.632 208.438,229.966 206,228.5C 204.941,228.63 204.108,229.13 203.5,230C 152.825,230.224 102.158,230.724 51.5,231.5C 51.5,230.5 51.5,229.5 51.5,228.5C 71.4134,228.653 91.4134,228.653 111.5,228.5C 141.502,228.667 171.502,228.5 201.5,228C 202.416,227.626 203.25,227.126 204,226.5C 205.159,227.566 205.992,227.233 206.5,225.5C 209.751,224.087 212.251,221.753 214,218.5C 215.845,213.476 217.345,208.476 218.5,203.5 Z"/></g>
</svg>
