<?xml version="1.0" encoding="UTF-8"?>
<!DOCTYPE svg PUBLIC "-//W3C//DTD SVG 1.1//EN" "http://www.w3.org/Graphics/SVG/1.1/DTD/svg11.dtd">
<svg xmlns="http://www.w3.org/2000/svg" version="1.1" width="400px" height="400px" style="shape-rendering:geometricPrecision; text-rendering:geometricPrecision; image-rendering:optimizeQuality; fill-rule:evenodd; clip-rule:evenodd" xmlns:xlink="http://www.w3.org/1999/xlink">
<g><path style="opacity:1" fill="#a42869" d="M -0.5,-0.5 C 132.833,-0.5 266.167,-0.5 399.5,-0.5C 399.5,132.833 399.5,266.167 399.5,399.5C 266.167,399.5 132.833,399.5 -0.5,399.5C -0.5,266.167 -0.5,132.833 -0.5,-0.5 Z"/></g>
<g><path style="opacity:1" fill="#fce9f9" d="M 301.5,55.5 C 300.155,60.1819 298.822,64.8486 297.5,69.5C 297.167,69.5 296.833,69.5 296.5,69.5C 296.33,65.3556 296.997,61.3556 298.5,57.5C 282.167,56.1667 265.833,56.1667 249.5,57.5C 250.025,58.1924 250.692,58.6924 251.5,59C 249.638,60.3657 247.972,61.8657 246.5,63.5C 246.756,61.0628 247.423,58.7294 248.5,56.5C 266.154,55.5005 283.821,55.1671 301.5,55.5 Z"/></g>
<g><path style="opacity:1" fill="#641d3c" d="M 296.5,69.5 C 296.833,69.5 297.167,69.5 297.5,69.5C 296.884,73.8632 296.05,78.1966 295,82.5C 288.756,98.9987 282.756,115.665 277,132.5C 276.505,134.473 276.338,136.473 276.5,138.5C 275.661,139.641 274.994,140.974 274.5,142.5C 273.675,143.386 272.675,143.719 271.5,143.5C 269.325,146.738 267.825,150.405 267,154.5C 266.374,156.713 266.541,158.88 267.5,161C 265.497,164.36 263.497,167.693 261.5,171C 261.833,172 262.167,173 262.5,174C 259.647,184.196 255.814,194.03 251,203.5C 248.518,204.624 248.018,206.29 249.5,208.5C 247.039,212.23 245.372,216.23 244.5,220.5C 243.626,222.69 241.959,223.69 239.5,223.5C 258.475,172.206 277.475,120.873 296.5,69.5 Z"/></g>
<g><path style="opacity:1" fill="#731642" d="M 297.5,69.5 C 298.306,72.2783 299.306,75.1116 300.5,78C 296.69,85.7594 293.857,93.9261 292,102.5C 284.762,113.725 280.095,126.058 278,139.5C 277.617,138.944 277.117,138.611 276.5,138.5C 276.338,136.473 276.505,134.473 277,132.5C 282.756,115.665 288.756,98.9987 295,82.5C 296.05,78.1966 296.884,73.8632 297.5,69.5 Z"/></g>
<g><path style="opacity:1" fill="#f9f9f6" d="M 296.5,69.5 C 277.475,120.873 258.475,172.206 239.5,223.5C 234.45,237.268 229.117,250.935 223.5,264.5C 223.974,258.772 223.307,253.272 221.5,248C 222.986,245.411 223.653,242.577 223.5,239.5C 224.496,239.414 225.329,239.748 226,240.5C 227.866,232.325 230.2,224.325 233,216.5C 234.333,215.833 235.667,215.167 237,214.5C 236.412,207.344 238.412,201.011 243,195.5C 243.266,191.019 244.099,186.686 245.5,182.5C 246.5,182.5 247.5,182.5 248.5,182.5C 248.691,185.989 249.024,186.156 249.5,183C 249.167,181.333 248.833,179.667 248.5,178C 249.898,173.578 250.898,169.078 251.5,164.5C 257.955,145.598 264.955,126.931 272.5,108.5C 275.274,104.396 277.607,100.062 279.5,95.5C 281.197,96.3636 282.363,97.6969 283,99.5C 283.41,96.0552 282.577,92.8885 280.5,90C 281.947,86.6124 282.947,83.1124 283.5,79.5C 284.535,74.6869 285.868,70.0202 287.5,65.5C 276.833,65.5 266.167,65.5 255.5,65.5C 247.551,87.1406 239.551,108.807 231.5,130.5C 230.883,130.389 230.383,130.056 230,129.5C 229.333,130.833 228.667,132.167 228,133.5C 227.82,131.512 227.986,129.512 228.5,127.5C 227.5,127.5 226.5,127.5 225.5,127.5C 225.468,132.395 224.134,136.895 221.5,141C 221.944,142.762 222.444,142.595 223,140.5C 224.688,144.089 224.855,147.756 223.5,151.5C 222.42,157.828 220.42,163.828 217.5,169.5C 216.542,169.953 215.708,170.619 215,171.5C 214.667,169.167 214.333,166.833 214,164.5C 213.333,165.167 212.667,165.833 212,166.5C 211.33,170.011 210.163,173.344 208.5,176.5C 208.808,177.308 209.308,177.975 210,178.5C 210.98,176.941 211.813,175.274 212.5,173.5C 212.833,174.333 213.167,175.167 213.5,176C 213.007,178.819 211.84,181.319 210,183.5C 209.138,181.913 208.471,180.246 208,178.5C 207.924,182.819 208.091,187.152 208.5,191.5C 207.5,191.5 206.5,191.5 205.5,191.5C 205.261,193.467 205.594,195.301 206.5,197C 204.055,201.168 202.722,205.668 202.5,210.5C 201.174,216.816 199.007,222.816 196,228.5C 194.374,227.045 193.208,225.378 192.5,223.5C 192.428,220.807 192.095,218.14 191.5,215.5C 187.515,205.519 183.848,195.519 180.5,185.5C 177.29,171.098 172.956,157.098 167.5,143.5C 167.125,141.302 166.458,139.302 165.5,137.5C 156.014,136.506 146.348,136.173 136.5,136.5C 136.198,139.059 136.532,141.393 137.5,143.5C 139.791,146.499 141.624,149.832 143,153.5C 148.418,168.592 153.918,183.592 159.5,198.5C 160.188,202.221 161.188,205.888 162.5,209.5C 162.167,210.167 161.833,210.833 161.5,211.5C 160.719,210.271 160.219,208.938 160,207.5C 160.615,214.471 161.615,221.471 163,228.5C 165.637,232.785 167.47,237.452 168.5,242.5C 168.833,242.833 169.167,243.167 169.5,243.5C 170.167,241.5 170.833,239.5 171.5,237.5C 174.446,240.002 175.113,243.002 173.5,246.5C 174.53,246.554 175.697,246.888 177,247.5C 177.738,250.501 178.904,253.168 180.5,255.5C 181.651,260.65 181.817,265.984 181,271.5C 178.041,284.601 171.208,295.101 160.5,303C 155.207,305.171 149.874,307.004 144.5,308.5C 144.5,316.833 144.5,325.167 144.5,333.5C 149.518,333.387 154.518,333.053 159.5,332.5C 159.833,332.5 160.167,332.5 160.5,332.5C 160.953,333.458 161.619,334.292 162.5,335C 162.167,335.333 161.833,335.667 161.5,336C 158.443,336.256 155.443,336.756 152.5,337.5C 150.259,337.119 147.926,336.952 145.5,337C 146.5,336.667 147.5,336.333 148.5,336C 144.542,333.442 142.876,334.608 143.5,339.5C 141.669,338.948 140.003,338.948 138.5,339.5C 142.589,339.888 146.256,340.888 149.5,342.5C 149.167,342.5 148.833,342.5 148.5,342.5C 144.5,342.5 140.5,342.5 136.5,342.5C 136.333,329.496 136.5,316.496 137,303.5C 140.56,301.807 144.394,300.641 148.5,300C 149.252,299.329 149.586,298.496 149.5,297.5C 154.621,295.945 158.621,292.945 161.5,288.5C 169.834,279.119 173.001,268.119 171,255.5C 164.699,236.42 157.532,217.753 149.5,199.5C 140.469,175.395 131.469,151.395 122.5,127.5C 138.833,127.5 155.167,127.5 171.5,127.5C 173.477,134.405 175.31,141.405 177,148.5C 178.393,152.487 180.227,156.153 182.5,159.5C 187.067,172.699 191.567,186.032 196,199.5C 198.38,195.406 200.213,191.073 201.5,186.5C 216.326,145.348 231.326,104.348 246.5,63.5C 247.972,61.8657 249.638,60.3657 251.5,59C 250.692,58.6924 250.025,58.1924 249.5,57.5C 265.833,56.1667 282.167,56.1667 298.5,57.5C 296.997,61.3556 296.33,65.3556 296.5,69.5 Z"/></g>
<g><path style="opacity:1" fill="#eef8de" d="M 283.5,79.5 C 282.947,83.1124 281.947,86.6124 280.5,90C 282.577,92.8885 283.41,96.0552 283,99.5C 282.363,97.6969 281.197,96.3636 279.5,95.5C 277.607,100.062 275.274,104.396 272.5,108.5C 275.283,100.984 277.783,93.3175 280,85.5C 280.941,83.2726 282.108,81.2726 283.5,79.5 Z"/></g>
<g><path style="opacity:1" fill="#952962" d="M 201.5,186.5 C 200.213,191.073 198.38,195.406 196,199.5C 191.567,186.032 187.067,172.699 182.5,159.5C 180.364,151.76 178.031,144.093 175.5,136.5C 177.117,137.038 178.784,137.371 180.5,137.5C 179.599,141.241 180.932,143.241 184.5,143.5C 183.798,140.077 183.132,136.91 182.5,134C 184.473,133.505 186.473,133.338 188.5,133.5C 188.869,136.319 189.202,139.152 189.5,142C 189.437,144.281 188.603,146.114 187,147.5C 187.238,158.118 188.404,158.118 190.5,147.5C 191.897,151.324 191.564,154.991 189.5,158.5C 190.689,159.429 192.022,159.762 193.5,159.5C 191.68,165.98 190.846,172.647 191,179.5C 192.439,182.603 194.273,185.436 196.5,188C 198.495,188.613 200.162,188.113 201.5,186.5 Z"/></g>
<g><path style="opacity:1" fill="#f8fcef" d="M 231.5,130.5 C 230.301,134.099 229.301,137.765 228.5,141.5C 226.831,144.883 225.164,148.216 223.5,151.5C 224.855,147.756 224.688,144.089 223,140.5C 222.444,142.595 221.944,142.762 221.5,141C 224.134,136.895 225.468,132.395 225.5,127.5C 226.5,127.5 227.5,127.5 228.5,127.5C 227.986,129.512 227.82,131.512 228,133.5C 228.667,132.167 229.333,130.833 230,129.5C 230.383,130.056 230.883,130.389 231.5,130.5 Z"/></g>
<g><path style="opacity:1" fill="#b9d398" d="M 165.5,137.5 C 156.167,137.5 146.833,137.5 137.5,137.5C 137.5,139.5 137.5,141.5 137.5,143.5C 136.532,141.393 136.198,139.059 136.5,136.5C 146.348,136.173 156.014,136.506 165.5,137.5 Z"/></g>
<g><path style="opacity:1" fill="#f5dded" d="M 171.5,127.5 C 173.155,130.177 174.488,133.177 175.5,136.5C 178.031,144.093 180.364,151.76 182.5,159.5C 180.227,156.153 178.393,152.487 177,148.5C 175.31,141.405 173.477,134.405 171.5,127.5 Z"/></g>
<g><path style="opacity:1" fill="#7f1a4c" d="M 301.5,55.5 C 302.586,55.62 303.253,56.2867 303.5,57.5C 303.098,59.3002 302.431,60.9668 301.5,62.5C 300.378,64.2884 300.211,66.2884 301,68.5C 302.212,69.776 303.045,71.276 303.5,73C 302.642,77.7948 302.309,82.6281 302.5,87.5C 301.5,87.5 300.5,87.5 299.5,87.5C 296.967,98.5637 293.3,109.23 288.5,119.5C 287.52,122.086 287.187,124.753 287.5,127.5C 286.5,127.5 285.5,127.5 284.5,127.5C 284.663,129.857 284.497,132.19 284,134.5C 279.709,146.051 275.043,157.385 270,168.5C 269.503,170.81 269.337,173.143 269.5,175.5C 268.5,175.5 267.5,175.5 266.5,175.5C 263.293,184.762 259.293,193.762 254.5,202.5C 254.987,203.446 255.32,204.446 255.5,205.5C 254.105,209.549 252.605,213.549 251,217.5C 250.505,219.473 250.338,221.473 250.5,223.5C 249.325,223.281 248.325,223.614 247.5,224.5C 245.695,229.456 243.862,234.456 242,239.5C 241.23,238.402 240.397,238.402 239.5,239.5C 241.279,234.76 242.946,229.927 244.5,225C 244.905,224.055 245.572,223.388 246.5,223C 245.244,222.583 244.577,221.75 244.5,220.5C 245.372,216.23 247.039,212.23 249.5,208.5C 248.018,206.29 248.518,204.624 251,203.5C 255.814,194.03 259.647,184.196 262.5,174C 262.167,173 261.833,172 261.5,171C 263.497,167.693 265.497,164.36 267.5,161C 266.541,158.88 266.374,156.713 267,154.5C 267.825,150.405 269.325,146.738 271.5,143.5C 272.675,143.719 273.675,143.386 274.5,142.5C 274.994,140.974 275.661,139.641 276.5,138.5C 277.117,138.611 277.617,138.944 278,139.5C 280.095,126.058 284.762,113.725 292,102.5C 293.857,93.9261 296.69,85.7594 300.5,78C 299.306,75.1116 298.306,72.2783 297.5,69.5C 298.822,64.8486 300.155,60.1819 301.5,55.5 Z"/></g>
<g><path style="opacity:1" fill="#79b229" d="M 283.5,79.5 C 282.108,81.2726 280.941,83.2726 280,85.5C 277.783,93.3175 275.283,100.984 272.5,108.5C 264.955,126.931 257.955,145.598 251.5,164.5C 241.105,189.06 231.772,214.06 223.5,239.5C 215.806,258.919 207.806,278.253 199.5,297.5C 194.363,304.814 188.696,311.814 182.5,318.5C 180.157,320.511 177.824,322.511 175.5,324.5C 169.981,326.993 164.648,329.66 159.5,332.5C 154.518,333.053 149.518,333.387 144.5,333.5C 144.5,325.167 144.5,316.833 144.5,308.5C 149.874,307.004 155.207,305.171 160.5,303C 171.208,295.101 178.041,284.601 181,271.5C 181.817,265.984 181.651,260.65 180.5,255.5C 179.961,250.679 178.795,246.012 177,241.5C 171.225,226.99 165.392,212.657 159.5,198.5C 153.918,183.592 148.418,168.592 143,153.5C 141.624,149.832 139.791,146.499 137.5,143.5C 137.5,141.5 137.5,139.5 137.5,137.5C 146.833,137.5 156.167,137.5 165.5,137.5C 166.458,139.302 167.125,141.302 167.5,143.5C 167.83,146.157 168.163,148.824 168.5,151.5C 167.809,154.198 167.142,156.865 166.5,159.5C 168.39,159.703 169.89,159.037 171,157.5C 171.333,160.167 171.667,162.833 172,165.5C 174.54,172.382 177.374,179.048 180.5,185.5C 183.848,195.519 187.515,205.519 191.5,215.5C 192.095,218.14 192.428,220.807 192.5,223.5C 191.641,229.809 193.807,231.476 199,228.5C 201.431,221.643 203.265,214.643 204.5,207.5C 206.821,205.91 207.821,203.577 207.5,200.5C 208.552,200.351 209.552,200.517 210.5,201C 209.577,203.041 209.244,205.208 209.5,207.5C 210.833,207.5 212.167,207.5 213.5,207.5C 213.646,204.174 212.979,201.007 211.5,198C 212.054,195.176 212.554,192.343 213,189.5C 213.71,190.973 214.876,191.64 216.5,191.5C 216.421,189.334 215.754,187.334 214.5,185.5C 215.448,181.581 216.615,181.581 218,185.5C 218.273,183.899 218.773,182.399 219.5,181C 218.422,180.326 217.755,179.326 217.5,178C 218.421,174.031 219.588,170.198 221,166.5C 222.044,167.623 222.71,168.956 223,170.5C 223.553,167.641 223.386,164.808 222.5,162C 224.332,158.111 226.165,154.278 228,150.5C 228.498,147.518 228.665,144.518 228.5,141.5C 229.301,137.765 230.301,134.099 231.5,130.5C 239.551,108.807 247.551,87.1406 255.5,65.5C 266.167,65.5 276.833,65.5 287.5,65.5C 285.868,70.0202 284.535,74.6869 283.5,79.5 Z"/></g>
<g><path style="opacity:1" fill="#81b23c" d="M 228.5,141.5 C 228.665,144.518 228.498,147.518 228,150.5C 226.165,154.278 224.332,158.111 222.5,162C 223.386,164.808 223.553,167.641 223,170.5C 222.71,168.956 222.044,167.623 221,166.5C 219.588,170.198 218.421,174.031 217.5,178C 217.755,179.326 218.422,180.326 219.5,181C 218.773,182.399 218.273,183.899 218,185.5C 216.615,181.581 215.448,181.581 214.5,185.5C 215.754,187.334 216.421,189.334 216.5,191.5C 214.876,191.64 213.71,190.973 213,189.5C 212.554,192.343 212.054,195.176 211.5,198C 212.979,201.007 213.646,204.174 213.5,207.5C 212.167,207.5 210.833,207.5 209.5,207.5C 209.244,205.208 209.577,203.041 210.5,201C 209.552,200.517 208.552,200.351 207.5,200.5C 207.821,203.577 206.821,205.91 204.5,207.5C 208.324,194.549 212.658,181.882 217.5,169.5C 220.42,163.828 222.42,157.828 223.5,151.5C 225.164,148.216 226.831,144.883 228.5,141.5 Z"/></g>
<g><path style="opacity:1" fill="#f4fcec" d="M 217.5,169.5 C 212.658,181.882 208.324,194.549 204.5,207.5C 203.833,208.5 203.167,209.5 202.5,210.5C 202.722,205.668 204.055,201.168 206.5,197C 205.594,195.301 205.261,193.467 205.5,191.5C 206.5,191.5 207.5,191.5 208.5,191.5C 208.091,187.152 207.924,182.819 208,178.5C 208.471,180.246 209.138,181.913 210,183.5C 211.84,181.319 213.007,178.819 213.5,176C 213.167,175.167 212.833,174.333 212.5,173.5C 211.813,175.274 210.98,176.941 210,178.5C 209.308,177.975 208.808,177.308 208.5,176.5C 210.163,173.344 211.33,170.011 212,166.5C 212.667,165.833 213.333,165.167 214,164.5C 214.333,166.833 214.667,169.167 215,171.5C 215.708,170.619 216.542,169.953 217.5,169.5 Z"/></g>
<g><path style="opacity:1" fill="#88b549" d="M 167.5,143.5 C 172.956,157.098 177.29,171.098 180.5,185.5C 177.374,179.048 174.54,172.382 172,165.5C 171.667,162.833 171.333,160.167 171,157.5C 169.89,159.037 168.39,159.703 166.5,159.5C 167.142,156.865 167.809,154.198 168.5,151.5C 168.163,148.824 167.83,146.157 167.5,143.5 Z"/></g>
<g><path style="opacity:1" fill="#edf8de" d="M 251.5,164.5 C 250.898,169.078 249.898,173.578 248.5,178C 248.833,179.667 249.167,181.333 249.5,183C 249.024,186.156 248.691,185.989 248.5,182.5C 247.5,182.5 246.5,182.5 245.5,182.5C 244.099,186.686 243.266,191.019 243,195.5C 238.412,201.011 236.412,207.344 237,214.5C 235.667,215.167 234.333,215.833 233,216.5C 230.2,224.325 227.866,232.325 226,240.5C 225.329,239.748 224.496,239.414 223.5,239.5C 231.772,214.06 241.105,189.06 251.5,164.5 Z"/></g>
<g><path style="opacity:1" fill="#f6fbf0" d="M 159.5,198.5 C 165.392,212.657 171.225,226.99 177,241.5C 178.795,246.012 179.961,250.679 180.5,255.5C 178.904,253.168 177.738,250.501 177,247.5C 175.697,246.888 174.53,246.554 173.5,246.5C 175.113,243.002 174.446,240.002 171.5,237.5C 170.833,239.5 170.167,241.5 169.5,243.5C 169.167,243.167 168.833,242.833 168.5,242.5C 167.47,237.452 165.637,232.785 163,228.5C 161.615,221.471 160.615,214.471 160,207.5C 160.219,208.938 160.719,210.271 161.5,211.5C 161.833,210.833 162.167,210.167 162.5,209.5C 161.188,205.888 160.188,202.221 159.5,198.5 Z"/></g>
<g><path style="opacity:1" fill="#92215b" d="M 301.5,62.5 C 301.215,64.288 301.548,65.9547 302.5,67.5C 303.429,66.3112 303.762,64.9778 303.5,63.5C 304.833,63.5 306.167,63.5 307.5,63.5C 307.973,66.6965 308.639,69.8632 309.5,73C 306.901,85.0902 302.901,97.2568 297.5,109.5C 297.709,110.086 298.043,110.586 298.5,111C 296.741,112.008 295.574,113.508 295,115.5C 294.385,121.709 292.052,127.042 288,131.5C 287.501,135.486 287.334,139.486 287.5,143.5C 285.91,143.628 284.577,144.295 283.5,145.5C 280.691,153.013 278.191,160.679 276,168.5C 270.708,174.505 267.208,181.505 265.5,189.5C 252.162,221.489 239.995,253.822 229,286.5C 227.019,291.128 224.519,295.461 221.5,299.5C 220.675,300.386 219.675,300.719 218.5,300.5C 218.75,299.078 219.583,298.078 221,297.5C 221.99,289.463 224.657,282.13 229,275.5C 229.94,271.81 230.607,268.143 231,264.5C 233.035,261.755 234.701,258.755 236,255.5C 236.054,252.139 237.054,249.139 239,246.5C 239.497,244.19 239.663,241.857 239.5,239.5C 240.397,238.402 241.23,238.402 242,239.5C 243.862,234.456 245.695,229.456 247.5,224.5C 248.325,223.614 249.325,223.281 250.5,223.5C 250.338,221.473 250.505,219.473 251,217.5C 252.605,213.549 254.105,209.549 255.5,205.5C 255.32,204.446 254.987,203.446 254.5,202.5C 259.293,193.762 263.293,184.762 266.5,175.5C 267.5,175.5 268.5,175.5 269.5,175.5C 269.337,173.143 269.503,170.81 270,168.5C 275.043,157.385 279.709,146.051 284,134.5C 284.497,132.19 284.663,129.857 284.5,127.5C 285.5,127.5 286.5,127.5 287.5,127.5C 287.187,124.753 287.52,122.086 288.5,119.5C 293.3,109.23 296.967,98.5637 299.5,87.5C 300.5,87.5 301.5,87.5 302.5,87.5C 302.309,82.6281 302.642,77.7948 303.5,73C 303.045,71.276 302.212,69.776 301,68.5C 300.211,66.2884 300.378,64.2884 301.5,62.5 Z"/></g>
<g><path style="opacity:1" fill="#8fb653" d="M 204.5,207.5 C 203.265,214.643 201.431,221.643 199,228.5C 193.807,231.476 191.641,229.809 192.5,223.5C 193.208,225.378 194.374,227.045 196,228.5C 199.007,222.816 201.174,216.816 202.5,210.5C 203.167,209.5 203.833,208.5 204.5,207.5 Z"/></g>
<g><path style="opacity:1" fill="#9d2b66" d="M 149.5,199.5 C 157.532,217.753 164.699,236.42 171,255.5C 173.001,268.119 169.834,279.119 161.5,288.5C 161.018,287.584 160.685,286.584 160.5,285.5C 161.865,282.313 162.699,278.98 163,275.5C 164.011,274.663 165.178,274.33 166.5,274.5C 166.5,273.5 166.5,272.5 166.5,271.5C 165.167,271.5 163.833,271.5 162.5,271.5C 162.02,265.342 162.687,259.342 164.5,253.5C 162.831,248.827 161.165,244.16 159.5,239.5C 158.5,239.5 157.5,239.5 156.5,239.5C 156.579,238.07 156.246,236.736 155.5,235.5C 150.995,234.228 150.662,232.561 154.5,230.5C 151.235,227.209 149.735,223.209 150,218.5C 148.117,219.653 147.284,221.319 147.5,223.5C 146.5,223.5 145.5,223.5 144.5,223.5C 143.988,216.066 143.988,208.732 144.5,201.5C 144.833,200.833 145.167,200.167 145.5,199.5C 147.192,203.265 148.525,203.265 149.5,199.5 Z"/></g>
<g><path style="opacity:1" fill="#f5faee" d="M 223.5,239.5 C 223.653,242.577 222.986,245.411 221.5,248C 223.307,253.272 223.974,258.772 223.5,264.5C 223.167,265.833 222.833,267.167 222.5,268.5C 221.504,268.586 220.671,268.252 220,267.5C 219.667,269.833 219.333,272.167 219,274.5C 218.517,273.552 218.351,272.552 218.5,271.5C 216.396,271.201 214.396,271.534 212.5,272.5C 209.893,276.955 209.226,281.621 210.5,286.5C 209.675,287.386 208.675,287.719 207.5,287.5C 208.413,290.223 209.08,292.723 209.5,295C 208.638,297.734 207.805,297.901 207,295.5C 205.731,296.905 205.231,298.571 205.5,300.5C 204.5,300.5 203.5,300.5 202.5,300.5C 202.5,299.5 202.5,298.5 202.5,297.5C 201.5,297.5 200.5,297.5 199.5,297.5C 207.806,278.253 215.806,258.919 223.5,239.5 Z"/></g>
<g><path style="opacity:1" fill="#60213d" d="M 239.5,223.5 C 238.857,229.547 237.023,235.213 234,240.5C 231.189,250.072 228.522,259.739 226,269.5C 224.166,270.495 222.999,271.995 222.5,274C 221.223,278.583 219.889,283.083 218.5,287.5C 217.5,287.5 216.5,287.5 215.5,287.5C 216.049,291.226 214.715,293.893 211.5,295.5C 214.972,286.415 218.639,277.415 222.5,268.5C 222.833,267.167 223.167,265.833 223.5,264.5C 229.117,250.935 234.45,237.268 239.5,223.5 Z"/></g>
<g><path style="opacity:1" fill="#751745" d="M 244.5,220.5 C 244.577,221.75 245.244,222.583 246.5,223C 245.572,223.388 244.905,224.055 244.5,225C 242.946,229.927 241.279,234.76 239.5,239.5C 239.663,241.857 239.497,244.19 239,246.5C 237.054,249.139 236.054,252.139 236,255.5C 234.701,258.755 233.035,261.755 231,264.5C 230.607,268.143 229.94,271.81 229,275.5C 224.657,282.13 221.99,289.463 221,297.5C 219.583,298.078 218.75,299.078 218.5,300.5C 213.666,308.446 208.166,315.446 202,321.5C 201.887,323.974 200.887,325.974 199,327.5C 198.667,327.167 198.333,326.833 198,326.5C 196.345,330.654 193.511,333.654 189.5,335.5C 188.972,334.279 188.305,333.113 187.5,332C 188.536,330.383 189.703,330.216 191,331.5C 192.582,330.04 193.915,328.373 195,326.5C 195.333,326.833 195.667,327.167 196,327.5C 200.355,320.643 205.022,313.977 210,307.5C 210.494,303.634 210.994,299.634 211.5,295.5C 214.715,293.893 216.049,291.226 215.5,287.5C 216.5,287.5 217.5,287.5 218.5,287.5C 219.889,283.083 221.223,278.583 222.5,274C 222.999,271.995 224.166,270.495 226,269.5C 228.522,259.739 231.189,250.072 234,240.5C 237.023,235.213 238.857,229.547 239.5,223.5C 241.959,223.69 243.626,222.69 244.5,220.5 Z"/></g>
<g><path style="opacity:1" fill="#fce9fa" d="M 149.5,297.5 C 149.586,298.496 149.252,299.329 148.5,300C 144.394,300.641 140.56,301.807 137,303.5C 136.5,316.496 136.333,329.496 136.5,342.5C 140.5,342.5 144.5,342.5 148.5,342.5C 148.5,342.833 148.5,343.167 148.5,343.5C 144.167,343.5 139.833,343.5 135.5,343.5C 135.167,329.151 135.501,314.818 136.5,300.5C 140.864,299.606 145.197,298.606 149.5,297.5 Z"/></g>
<g><path style="opacity:1" fill="#f9f7f8" d="M 222.5,268.5 C 218.639,277.415 214.972,286.415 211.5,295.5C 207.326,302.516 202.659,309.183 197.5,315.5C 196.84,313.656 195.84,311.99 194.5,310.5C 196.751,306.417 198.418,302.084 199.5,297.5C 200.5,297.5 201.5,297.5 202.5,297.5C 202.5,298.5 202.5,299.5 202.5,300.5C 203.5,300.5 204.5,300.5 205.5,300.5C 205.231,298.571 205.731,296.905 207,295.5C 207.805,297.901 208.638,297.734 209.5,295C 209.08,292.723 208.413,290.223 207.5,287.5C 208.675,287.719 209.675,287.386 210.5,286.5C 209.226,281.621 209.893,276.955 212.5,272.5C 214.396,271.534 216.396,271.201 218.5,271.5C 218.351,272.552 218.517,273.552 219,274.5C 219.333,272.167 219.667,269.833 220,267.5C 220.671,268.252 221.504,268.586 222.5,268.5 Z"/></g>
<g><path style="opacity:1" fill="#f1f9e4" d="M 199.5,297.5 C 198.418,302.084 196.751,306.417 194.5,310.5C 195.84,311.99 196.84,313.656 197.5,315.5C 196.07,315.421 194.736,315.754 193.5,316.5C 192.167,315.5 190.833,314.5 189.5,313.5C 185.566,316.262 182.566,319.762 180.5,324C 178.231,326.023 175.564,326.856 172.5,326.5C 172.5,327.5 172.5,328.5 172.5,329.5C 173.675,329.281 174.675,329.614 175.5,330.5C 174.833,330.833 174.167,331.167 173.5,331.5C 171.666,330.246 169.666,329.579 167.5,329.5C 167.5,330.5 167.5,331.5 167.5,332.5C 167.635,334.006 165.302,334.006 160.5,332.5C 160.167,332.5 159.833,332.5 159.5,332.5C 164.648,329.66 169.981,326.993 175.5,324.5C 177.824,322.511 180.157,320.511 182.5,318.5C 188.696,311.814 194.363,304.814 199.5,297.5 Z"/></g>
<g><path style="opacity:1" fill="#9d2564" d="M 287.5,143.5 C 286.478,148.402 285.145,153.235 283.5,158C 284.452,161.63 283.452,164.796 280.5,167.5C 279.808,166.975 279.308,166.308 279,165.5C 278.608,168.188 278.108,170.855 277.5,173.5C 277.919,174.672 278.585,175.672 279.5,176.5C 277.515,176.604 276.015,177.937 275,180.5C 274.501,184.152 274.335,187.818 274.5,191.5C 273.5,191.5 272.5,191.5 271.5,191.5C 272.348,196.912 270.681,201.245 266.5,204.5C 264.048,211.741 261.881,219.074 260,226.5C 258.799,228.909 257.133,230.909 255,232.5C 252.594,239.886 250.094,247.22 247.5,254.5C 247.833,255.167 248.167,255.833 248.5,256.5C 242.232,266.058 237.898,276.391 235.5,287.5C 234.5,287.5 233.5,287.5 232.5,287.5C 231.704,292.766 230.037,297.766 227.5,302.5C 228.221,305.881 227.221,308.881 224.5,311.5C 223.548,313.045 223.215,314.712 223.5,316.5C 222.178,316.33 221.011,316.663 220,317.5C 220.984,319.598 220.651,321.598 219,323.5C 215.363,328.499 210.697,331.832 205,333.5C 203.418,335.624 203.251,337.79 204.5,340C 200.794,343.849 196.461,346.682 191.5,348.5C 191.5,349.5 191.5,350.5 191.5,351.5C 187.147,353.552 182.481,355.052 177.5,356C 176.027,356.71 175.36,357.876 175.5,359.5C 164.813,359.832 154.146,359.499 143.5,358.5C 139.838,358.171 137.838,356.171 137.5,352.5C 138.853,351.476 139.52,350.143 139.5,348.5C 138.167,348.5 136.833,348.5 135.5,348.5C 135.5,347.167 135.5,345.833 135.5,344.5C 139.555,344.176 143.555,344.509 147.5,345.5C 145.167,346.167 142.833,346.833 140.5,347.5C 144.235,348.153 147.901,348.986 151.5,350C 155.029,350.622 158.529,350.455 162,349.5C 166.341,351.316 170.841,351.816 175.5,351C 172.894,350.55 171.561,349.05 171.5,346.5C 173.492,346.328 175.158,346.995 176.5,348.5C 182.754,345.467 188.754,341.967 194.5,338C 195.167,336.667 195.833,335.333 196.5,334C 198.556,333.689 200.556,333.189 202.5,332.5C 204.044,328.09 205.711,323.757 207.5,319.5C 209.903,319.607 211.736,318.607 213,316.5C 214.08,314.004 215.414,311.67 217,309.5C 218.149,306.607 218.649,303.607 218.5,300.5C 219.675,300.719 220.675,300.386 221.5,299.5C 224.519,295.461 227.019,291.128 229,286.5C 239.995,253.822 252.162,221.489 265.5,189.5C 267.208,181.505 270.708,174.505 276,168.5C 278.191,160.679 280.691,153.013 283.5,145.5C 284.577,144.295 285.91,143.628 287.5,143.5 Z"/></g>
<g><path style="opacity:1" fill="#faf5f7" d="M 197.5,315.5 C 185.675,331.75 169.675,340.75 149.5,342.5C 146.256,340.888 142.589,339.888 138.5,339.5C 140.003,338.948 141.669,338.948 143.5,339.5C 142.876,334.608 144.542,333.442 148.5,336C 147.5,336.333 146.5,336.667 145.5,337C 147.926,336.952 150.259,337.119 152.5,337.5C 155.443,336.756 158.443,336.256 161.5,336C 161.833,335.667 162.167,335.333 162.5,335C 161.619,334.292 160.953,333.458 160.5,332.5C 165.302,334.006 167.635,334.006 167.5,332.5C 167.5,331.5 167.5,330.5 167.5,329.5C 169.666,329.579 171.666,330.246 173.5,331.5C 174.167,331.167 174.833,330.833 175.5,330.5C 174.675,329.614 173.675,329.281 172.5,329.5C 172.5,328.5 172.5,327.5 172.5,326.5C 175.564,326.856 178.231,326.023 180.5,324C 182.566,319.762 185.566,316.262 189.5,313.5C 190.833,314.5 192.167,315.5 193.5,316.5C 194.736,315.754 196.07,315.421 197.5,315.5 Z"/></g>
<g><path style="opacity:1" fill="#67193d" d="M 211.5,295.5 C 210.994,299.634 210.494,303.634 210,307.5C 205.022,313.977 200.355,320.643 196,327.5C 195.667,327.167 195.333,326.833 195,326.5C 193.915,328.373 192.582,330.04 191,331.5C 189.703,330.216 188.536,330.383 187.5,332C 188.305,333.113 188.972,334.279 189.5,335.5C 187.801,335.34 186.134,335.506 184.5,336C 183.036,339.54 180.369,341.373 176.5,341.5C 175.614,342.325 175.281,343.325 175.5,344.5C 168.736,342.885 162.07,343.219 155.5,345.5C 152.891,345.559 150.557,344.892 148.5,343.5C 148.5,343.167 148.5,342.833 148.5,342.5C 148.833,342.5 149.167,342.5 149.5,342.5C 169.675,340.75 185.675,331.75 197.5,315.5C 202.659,309.183 207.326,302.516 211.5,295.5 Z"/></g>
<g><path style="opacity:1" fill="#881e54" d="M 218.5,300.5 C 218.649,303.607 218.149,306.607 217,309.5C 215.414,311.67 214.08,314.004 213,316.5C 211.736,318.607 209.903,319.607 207.5,319.5C 205.711,323.757 204.044,328.09 202.5,332.5C 200.556,333.189 198.556,333.689 196.5,334C 195.833,335.333 195.167,336.667 194.5,338C 188.754,341.967 182.754,345.467 176.5,348.5C 175.158,346.995 173.492,346.328 171.5,346.5C 171.561,349.05 172.894,350.55 175.5,351C 170.841,351.816 166.341,351.316 162,349.5C 158.529,350.455 155.029,350.622 151.5,350C 147.901,348.986 144.235,348.153 140.5,347.5C 142.833,346.833 145.167,346.167 147.5,345.5C 143.555,344.509 139.555,344.176 135.5,344.5C 135.5,344.167 135.5,343.833 135.5,343.5C 139.833,343.5 144.167,343.5 148.5,343.5C 150.557,344.892 152.891,345.559 155.5,345.5C 162.07,343.219 168.736,342.885 175.5,344.5C 175.281,343.325 175.614,342.325 176.5,341.5C 180.369,341.373 183.036,339.54 184.5,336C 186.134,335.506 187.801,335.34 189.5,335.5C 193.511,333.654 196.345,330.654 198,326.5C 198.333,326.833 198.667,327.167 199,327.5C 200.887,325.974 201.887,323.974 202,321.5C 208.166,315.446 213.666,308.446 218.5,300.5 Z"/></g>
</svg>
