<?xml version="1.0" encoding="utf-8"?>
<!-- Generator: Adobe Illustrator 24.3.0, SVG Export Plug-In . SVG Version: 6.00 Build 0)  -->
<svg version="1.1" id="Layer_1" xmlns="http://www.w3.org/2000/svg" xmlns:xlink="http://www.w3.org/1999/xlink" x="0px" y="0px"
	 width="340.1px" height="340.1px" viewBox="0 0 340.1 340.1" style="enable-background:new 0 0 340.1 340.1;" xml:space="preserve"
	>
<style type="text/css">
	.st0{fill:url(#SVGID_1_);}
	.st1{fill:url(#SVGID_2_);}
	.st2{fill:#FF1744;}
	.st3{fill:#F0244C;}
	.st4{fill:#FFFFFF;}
	.st5{fill:url(#SVGID_3_);}
	.st6{fill:#41B783;}
	.st7{fill:#35495E;}
	.st8{fill:#FF3E00;}
	.st9{fill:#83CD29;}
	.st10{fill:#2BA977;}
	.st11{fill:#CC0000;}
	.st12{fill:#FE2D20;}
	.st13{fill:#39CDFC;}
	.st14{fill:#03559A;}
	.st15{fill:#16B8FC;}
	.st16{fill:#00D8FF;}
	.st17{fill:url(#SVGID_4_);}
	.st18{fill:url(#SVGID_5_);}
	.st19{fill:url(#SVGID_6_);}
</style>
<g>
	<path d="M314,58.9L172.6,6.8c-1.7-0.6-3.5-0.6-5.2,0L26.1,58.9c-3.2,1.2-5.2,4.4-4.8,7.8l22.3,193.5c0.3,2.4,1.7,4.5,3.8,5.6
		l119.1,67c2.3,1.3,5,1.3,7.3,0l119.1-67c2.1-1.2,3.5-3.3,3.8-5.6l22.3-193.5C319.3,63.3,317.3,60,314,58.9L314,58.9z"/>
	<path class="st2" d="M282.2,254.7L170,317.8L57.9,254.7L36.7,70.8L170,21.7l133.3,49.1L282.2,254.7z"/>
	<path class="st3" d="M167.4,22.6v293.7l2.6,1.5l112.1-63.1l21.2-183.9L170,21.7L167.4,22.6z"/>
	<path class="st4" d="M163.2,55.5L81.3,249c-1.8,3.7-0.3,8.2,3.4,10c3.7,1.8,8.2,0.3,10-3.4c0.1-0.2,0.2-0.5,0.3-0.8l23.3-55h103.5
		l23.3,55c1.2,2.8,3.9,4.6,6.8,4.6c1,0,2-0.2,2.9-0.6c3.8-1.6,5.5-6,3.9-9.7L176.9,55.5c-2-3.8-6.7-5.2-10.5-3.2
		C165.1,53,163.9,54.1,163.2,55.5L163.2,55.5z M215.5,184.9h-90.9L170,77.5L215.5,184.9z"/>
	
		<linearGradient id="SVGID_1_" gradientUnits="userSpaceOnUse" x1="4280.4932" y1="6623.1904" x2="4294.6309" y2="6616.5981" gradientTransform="matrix(21.3333 0 0 -21.3333 -91307.3203 141383.1719)">
		<stop  offset="0" style="stop-color:#FFFFFF;stop-opacity:0.2"/>
		<stop  offset="1" style="stop-color:#FFFFFF;stop-opacity:0"/>
	</linearGradient>
	<path class="st0" d="M314,58.9L172.6,6.8c-1.7-0.6-3.5-0.6-5.2,0L26.1,58.9c-3.2,1.2-5.2,4.4-4.8,7.8l22.3,193.5
		c0.3,2.4,1.7,4.5,3.8,5.6l119.1,67c2.3,1.3,5,1.3,7.3,0l119.1-67c2.1-1.2,3.5-3.3,3.8-5.6l22.3-193.5C319.3,63.3,317.3,60,314,58.9
		L314,58.9z"/>
</g>
</svg>
