<?xml version="1.0" encoding="utf-8"?>
<!-- Generator: Adobe Illustrator 24.3.0, SVG Export Plug-In . SVG Version: 6.00 Build 0)  -->
<svg version="1.1" id="Layer_1" xmlns="http://www.w3.org/2000/svg" xmlns:xlink="http://www.w3.org/1999/xlink" x="0px" y="0px"
	 width="340.1px" height="340.1px" viewBox="0 0 340.1 340.1" style="enable-background:new 0 0 340.1 340.1;" xml:space="preserve"
	>
<style type="text/css">
	.st0{fill:url(#SVGID_1_);}
	.st1{fill:url(#SVGID_2_);}
	.st2{fill:#FF1744;}
	.st3{fill:#F0244C;}
	.st4{fill:#FFFFFF;}
	.st5{fill:url(#SVGID_3_);}
	.st6{fill:#41B783;}
	.st7{fill:#35495E;}
	.st8{fill:#FF3E00;}
	.st9{fill:#83CD29;}
	.st10{fill:#2BA977;}
	.st11{fill:#CC0000;}
	.st12{fill:#FE2D20;}
	.st13{fill:#39CDFC;}
	.st14{fill:#03559A;}
	.st15{fill:#16B8FC;}
	.st16{fill:#00D8FF;}
	.st17{fill:url(#SVGID_4_);}
	.st18{fill:url(#SVGID_5_);}
	.st19{fill:url(#SVGID_6_);}
</style>
<g>
	<path class="st10" d="M157.1,5.6H211v246.9c-27.6,5.2-47.9,7.3-69.9,7.3c-65.8-0.1-100-29.5-100-85.9c0-54.4,36.3-89.7,92.6-89.7
		c8.7,0,15.4,0.7,23.4,2.7V5.6L157.1,5.6z M159,131.4c-6.3-2.1-11.5-2.7-18.2-2.7c-27.2,0-43,16.6-43,45.7c0,28.4,15,44,42.6,44
		c6,0,10.8-0.3,18.5-1.4V131.4L159,131.4z"/>
	<path class="st10" d="M299,90.8v123.6c0,42.6-3.2,63-12.5,80.7c-8.7,17-20.2,27.7-44,39.5l-50-23.6c23.8-11,35.3-20.8,42.6-35.7
		c7.7-15.2,10.1-32.9,10.1-79.3V90.8L299,90.8L299,90.8z M239.8,5.6h53.9v54.7h-53.9V5.6z"/>
</g>
</svg>
