<?xml version="1.0" encoding="utf-8"?>
<!-- Generator: Adobe Illustrator 24.3.0, SVG Export Plug-In . SVG Version: 6.00 Build 0)  -->
<svg version="1.1" id="Layer_1" xmlns="http://www.w3.org/2000/svg" xmlns:xlink="http://www.w3.org/1999/xlink" x="0px" y="0px"
	 width="340.1px" height="340.1px" viewBox="0 0 340.1 340.1" style="enable-background:new 0 0 340.1 340.1;" xml:space="preserve"
	>
<style type="text/css">
	.st0{fill:url(#SVGID_1_);}
	.st1{fill:url(#SVGID_2_);}
	.st2{fill:#FF1744;}
	.st3{fill:#F0244C;}
	.st4{fill:#FFFFFF;}
	.st5{fill:url(#SVGID_3_);}
	.st6{fill:#41B783;}
	.st7{fill:#35495E;}
	.st8{fill:#FF3E00;}
	.st9{fill:#83CD29;}
	.st10{fill:#2BA977;}
	.st11{fill:#CC0000;}
	.st12{fill:#FE2D20;}
	.st13{fill:#39CDFC;}
	.st14{fill:#03559A;}
	.st15{fill:#16B8FC;}
	.st16{fill:#00D8FF;}
	.st17{fill:url(#SVGID_4_);}
	.st18{fill:url(#SVGID_5_);}
	.st19{fill:url(#SVGID_6_);}
</style>
<g>
	<path class="st13" d="M299.1,5.2c-0.6,4.2-3.1,5.5-4.9,7.3C227.7,79.7,161,146.7,94.6,214.1c-5.6,5.7-8.5,6.7-14.3,0.3
		c-11.5-12.7-23.8-24.9-36.3-36.6c-5.8-5.4-6.5-8.4-0.3-14.4c29.5-28.9,58.5-58.4,87.6-87.7C152.7,54,174,32.4,195.3,10.7
		c3.1-3.2,6-5.6,11-5.5C237,5.3,267.8,5.2,299.1,5.2z"/>
	<path class="st13" d="M161.6,197.3c11.6-11.8,23.1-23.5,34.7-35.3c2.3-2.4,4.7-4.4,8.4-4.4c31.3,0.1,62.6,0.1,96.1,0.1
		c-30,30.7-58.7,59.9-87.4,89.2c-0.8,0.6-1.7,0.7-2.6,0.5C194.3,230.8,177.3,214.7,161.6,197.3z"/>
	<path class="st14" d="M211.6,247.4c0.6-0.1,1.2-0.2,1.8-0.4c28.9,28.3,57.7,56.6,86.6,84.9c-0.6,1-1.2,2-1.7,3c-14,0-28,0-41.9,0
		c-16.5,0-33,0-49.5,0c-3.7,0-6.9-0.3-9.8-3.4c-11.1-11.7-22.4-23.2-33.7-34.7c-0.7-2.9,0.8-5.1,2.6-7
		c13.3-13.6,26.6-27.1,40.3-40.2C207.7,248.3,209.5,247.3,211.6,247.4z"/>
	<path class="st15" d="M211.6,247.4c-16.1,16.5-32.1,33-48.2,49.5c-15.7-15.5-31.3-31.1-47.1-46.4c-3.8-3.6-2.4-5.7,0.6-8.6
		c15-14.8,29.8-29.7,44.7-44.6c1,0.2,2.2,0.1,2.8,0.7C180.9,213.7,198.4,228.5,211.6,247.4z"/>
</g>
</svg>
