<svg xmlns="http://www.w3.org/2000/svg" width="512" height="512" viewBox="0 0 512 512" xml:space="preserve"><path d="M490.787 0H244.296c0 61.44 49.737 111.177 111.176 111.177h45.348v43.886c0 61.44 49.736 111.176 111.176 111.176V21.212C511.997 9.509 502.488 0 490.787 0" fill="#2684ff" data-original="#2684ff"/><linearGradient id="a" x1="384.783" x2="279.903" y1="2310.806" y2="2202.649" gradientTransform="matrix(1 0 0 -1 0 2434)" gradientUnits="userSpaceOnUse"><stop offset=".176" style="stop-color:#0052cc" stop-color="#0052cc"/><stop offset="1" style="stop-color:#2684ff" stop-color="#2684ff"/></linearGradient><path d="M368.641 122.88H122.149c0 61.44 49.737 111.176 111.177 111.176h45.348v43.887c0 61.44 49.739 111.176 111.179 111.176V144.092c0-11.704-9.511-21.212-21.212-21.212" style="fill:url(#a)"/><linearGradient id="b" x1="269.698" x2="148.433" y1="2187.29" y2="2069.304" gradientTransform="matrix(1 0 0 -1 0 2434)" gradientUnits="userSpaceOnUse"><stop offset=".176" style="stop-color:#0052cc" stop-color="#0052cc"/><stop offset="1" style="stop-color:#2684ff" stop-color="#2684ff"/></linearGradient><path d="M246.495 245.76H.003c0 61.44 49.737 111.176 111.177 111.176h45.348v43.887c0 61.44 49.739 111.177 111.179 111.177V266.972c0-11.704-9.509-21.212-21.212-21.212" style="fill:url(#b)"/></svg>