<?xml version="1.0" encoding="utf-8"?>
<!-- Generator: Adobe Illustrator 24.3.0, SVG Export Plug-In . SVG Version: 6.00 Build 0)  -->
<svg version="1.1" id="Layer_1" xmlns="http://www.w3.org/2000/svg" xmlns:xlink="http://www.w3.org/1999/xlink" x="0px" y="0px"
	 width="340.1px" height="340.1px" viewBox="0 0 340.1 340.1" style="enable-background:new 0 0 340.1 340.1;" xml:space="preserve"
	>
<style type="text/css">
	.st0{fill:url(#SVGID_1_);}
	.st1{fill:url(#SVGID_2_);}
	.st2{fill:#FF1744;}
	.st3{fill:#F0244C;}
	.st4{fill:#FFFFFF;}
	.st5{fill:url(#SVGID_3_);}
	.st6{fill:#41B783;}
	.st7{fill:#35495E;}
	.st8{fill:#FF3E00;}
	.st9{fill:#83CD29;}
	.st10{fill:#2BA977;}
	.st11{fill:#CC0000;}
	.st12{fill:#FE2D20;}
	.st13{fill:#39CDFC;}
	.st14{fill:#03559A;}
	.st15{fill:#16B8FC;}
	.st16{fill:#00D8FF;}
	.st17{fill:url(#SVGID_4_);}
	.st18{fill:url(#SVGID_5_);}
	.st19{fill:url(#SVGID_6_);}
</style>
<g>
	<path class="st12" d="M330.5,82.6c0-3.3-1.2-5.3-4.1-6.9C306.7,64.4,287,53,267.3,41.6c-2.8-1.6-5.1-1.8-8-0.1
		c-19.7,11.5-39.4,22.8-59.2,34.1c-3,1.7-4.2,3.8-4.1,7.2c0.1,21.1,0,42.1,0.1,63.2c0,2.1-0.6,3.3-2.5,4.3
		c-15.5,8.8-30.9,17.8-46.4,26.7c-0.9,0.5-1.6,1.3-3,1.1c0-1.1,0-2.2,0-3.3c0-42.4,0-84.9,0-127.3c0-3.3-1.1-5.3-4-7
		c-19.9-11.3-39.7-22.8-59.5-34.3c-2.8-1.6-5-1.6-7.7,0C53.2,17.8,33.4,29.2,13.5,40.6c-2.9,1.6-4,3.7-3.9,7
		c0.1,69.8,0.1,139.6,0,209.3c0,3.3,1.2,5.3,4,6.9c40.4,23.2,80.8,46.4,121.1,69.8c3.2,1.9,5.7,1.7,8.8-0.1
		c40.1-23.2,80.2-46.3,120.3-69.3c3.4-1.9,4.7-4.3,4.7-8.2c-0.1-20.9,0-41.7-0.1-62.6c0-2.1,0.6-3.3,2.5-4.3
		c18.5-10.6,37-21.3,55.5-31.8c2.8-1.6,4.1-3.6,4.1-6.9C330.4,127.8,330.4,105.2,330.5,82.6z M133.8,55c0,1.5,0,2.5,0,3.5
		c0,40.9,0,81.7,0.1,122.6c0,2.6-0.6,4-3,5.3c-15.1,8.6-30.2,17.3-45.3,26c-1,0.6-2,1.1-2.9,1.6c-1-0.6-0.6-1.5-0.6-2.3
		c0-41.6,0-83.1,0-124.7c0-1.5,0.2-2.7,1.7-3.5c16.2-9.3,32.3-18.6,48.5-27.9C132.6,55.4,133,55.3,133.8,55z M27.7,44.4
		c15.5-9,31-17.9,46.6-26.9c1.5-0.9,2.7-1.5,4.5-0.4c16.2,9.4,32.4,18.8,48.7,28.2c0.3,0.2,0.5,0.4,0.9,0.8c-7,4-14,8-20.9,12
		C98,63.5,88.5,68.9,79.1,74.4c-1.3,0.8-2.4,1.2-3.9,0.3c-16.3-9.5-32.7-18.8-49-28.3c-0.2-0.1-0.3-0.3-0.5-0.5
		C26,45,27,44.8,27.7,44.4z M133.8,317.8c0,3.2,0,3.3-2.9,1.6C94.7,298.6,58.5,277.7,22.3,257c-2-1.1-2.3-2.4-2.3-4.5
		c0-32.4,0-64.8,0-97.2c0-32.3,0-64.6,0-96.9c0-3.5,0-3.5,2.9-1.8C38.3,65.4,53.6,74.3,69,83c2,1.1,2.6,2.3,2.6,4.6
		c-0.1,44.4,0,88.8-0.1,133.2c0,4,1.3,6.4,4.9,8.4c18.4,10.2,36.6,20.7,54.9,31c1.7,1,2.5,2,2.5,4.1
		C133.8,282.1,133.8,299.9,133.8,317.8z M141.1,251.4c-1.3,0.8-2.4,1.1-3.9,0.3c-16-9.2-32.1-18.2-48.1-27.3
		c-0.4-0.2-0.8-0.6-1.5-1.1c2.2-1.3,4.1-2.5,6-3.6c34.9-20.1,69.9-40.2,104.8-60.4c2.1-1.2,3.5-1.1,5.6,0.1
		c15.1,8.8,30.4,17.5,45.6,26.2c1,0.6,1.9,1.2,3.2,2c-25.1,14.4-49.8,28.5-74.5,42.6C165.8,237.3,153.4,244.3,141.1,251.4z
		 M256,256.8c-36.5,20.9-72.9,41.9-109.3,62.9c-2.4,1.4-2.6,0.6-2.6-1.6c0.1-18,0-35.9,0-53.9c0-1.7,0.3-2.8,2-3.7
		c36.8-21,73.6-42,110.4-63c0.3-0.2,0.7-0.3,1.6-0.7c0,9.9,0,19.4,0,28.8c0,9.2,0,18.4,0,27.6C258.1,254.9,257.6,255.9,256,256.8z
		 M258,177.2c0,0.3-0.1,0.6-0.1,0.9c-1,0.4-1.6-0.4-2.2-0.7c-15.7-9-31.4-18.1-47.1-27.2c-1.4-0.8-2.3-1.7-2.3-3.5
		c0.1-18.2,0-36.3,0.1-54.5c0-0.6-0.2-1.3,0.6-2c3.7,2.1,7.5,4.3,11.3,6.5c12.6,7.3,25.1,14.5,37.7,21.8c1.4,0.8,2.1,1.6,2.1,3.3
		C258,140.3,258,158.7,258,177.2z M264.9,109.8c-1,0.6-1.9,0.9-3.1,0.2c-16.6-9.6-33.2-19.1-49.8-28.7c0.4-1.3,1.5-1.4,2.3-1.9
		c15.5-9,31-17.9,46.5-27c1.7-1,2.9-1.1,4.7-0.1c15.5,9.1,31,18,46.5,26.9c0.8,0.5,1.5,1,2.8,1.8c-14.1,8.1-27.9,16-41.6,23.9
		C270.4,106.6,267.7,108.2,264.9,109.8z M317.3,150.6c-15.3,8.7-30.6,17.6-45.8,26.4c-0.9,0.5-1.8,0.9-2.6,1.4
		c-0.7-1.1-0.4-2-0.4-2.9c0-17.6,0-35.3,0-52.9c0-1.6,0-2.8,1.7-3.8c16.1-9.2,32.2-18.5,48.2-27.8c0.4-0.2,0.9-0.4,1.7-0.8
		c0,1.3,0,2.3,0,3.3c0,17.4-0.1,34.9,0.1,52.3C320.2,148.2,319.4,149.4,317.3,150.6z"/>
</g>
</svg>
