<?xml version="1.0" encoding="utf-8"?>
<!-- Generator: Adobe Illustrator 24.3.0, SVG Export Plug-In . SVG Version: 6.00 Build 0)  -->
<svg version="1.1" id="Layer_1" xmlns="http://www.w3.org/2000/svg" xmlns:xlink="http://www.w3.org/1999/xlink" x="0px" y="0px"
	 width="340.1px" height="340.1px" viewBox="0 0 340.1 340.1" style="enable-background:new 0 0 340.1 340.1;" xml:space="preserve"
	>
<style type="text/css">
	.st0{fill:url(#SVGID_1_);}
	.st1{fill:url(#SVGID_2_);}
	.st2{fill:#FF1744;}
	.st3{fill:#F0244C;}
	.st4{fill:#FFFFFF;}
	.st5{fill:url(#SVGID_3_);}
	.st6{fill:#41B783;}
	.st7{fill:#35495E;}
	.st8{fill:#FF3E00;}
	.st9{fill:#83CD29;}
	.st10{fill:#2BA977;}
	.st11{fill:#CC0000;}
	.st12{fill:#FE2D20;}
	.st13{fill:#39CDFC;}
	.st14{fill:#03559A;}
	.st15{fill:#16B8FC;}
	.st16{fill:#00D8FF;}
	.st17{fill:url(#SVGID_4_);}
	.st18{fill:url(#SVGID_5_);}
	.st19{fill:url(#SVGID_6_);}
</style>
<g>
	<path class="st4" d="M259,308.3c-10.1-15.2-20-30.3-30-45.4c-32.9-49.7-65.8-99.4-98.6-149.2c-2.1-3.2-4.6-4.8-8.4-4.6
		c-2.3,0.1-4.7-0.1-7.1,0.1c-4.1,0.2-6.4,2.7-6.4,6.8c0,41.1-0.1,82.1-0.1,123.2c0,5.2,2.1,7.3,7.4,7.3c2.2,0,4.5,0,6.7-0.1
		c3.5-0.2,5.5-2.1,5.7-5.6c0.1-2.6,0.1-5.1,0.1-7.7c0.2-27.6,0.3-55.2,0.5-82.8c0-1.1,0.1-2.2,0.5-3.5
		c38.6,56.6,76.2,113.8,118.9,167.5c-51.7,30.9-146.8,33-206.9-41.9c-58.5-72.9-44.8-182.6,35.8-238c76.9-53,185.6-31.6,235,53.1
		C358.4,166.8,329.7,264,259,308.3z M229.1,224.4c0.2-0.1,0.5-0.2,0.7-0.3c0-1.1,0-2.1,0-3.2c0-17.1,0.2-34.2,0.1-51.3
		c0-19.6-0.1-39.1-0.2-58.7c0-3.9-2.2-6.1-6.1-6.3c-2-0.1-4.1-0.1-6.1,0c-5.7,0.1-7.8,2-7.8,7.7c-0.1,21.5-0.1,43-0.2,64.5
		c0,5.9-1.1,12.1,0.5,17.5c1.6,5.4,6,10,9.2,14.9C222.5,214.3,225.8,219.4,229.1,224.4z"/>
</g>
</svg>
