<?xml version="1.0" encoding="utf-8"?>
<!-- Generator: Adobe Illustrator 24.3.0, SVG Export Plug-In . SVG Version: 6.00 Build 0)  -->
<svg version="1.1" id="Layer_1" xmlns="http://www.w3.org/2000/svg" xmlns:xlink="http://www.w3.org/1999/xlink" x="0px" y="0px"
	 width="340.1px" height="340.1px" viewBox="0 0 340.1 340.1" style="enable-background:new 0 0 340.1 340.1;" xml:space="preserve"
	>
<style type="text/css">
	.st0{fill:url(#SVGID_1_);}
	.st1{fill:url(#SVGID_2_);}
	.st2{fill:#FF1744;}
	.st3{fill:#F0244C;}
	.st4{fill:#FFFFFF;}
	.st5{fill:url(#SVGID_3_);}
	.st6{fill:#41B783;}
	.st7{fill:#35495E;}
	.st8{fill:#FF3E00;}
	.st9{fill:#83CD29;}
	.st10{fill:#2BA977;}
	.st11{fill:#CC0000;}
	.st12{fill:#FE2D20;}
	.st13{fill:#39CDFC;}
	.st14{fill:#03559A;}
	.st15{fill:#16B8FC;}
	.st16{fill:#00D8FF;}
	.st17{fill:url(#SVGID_4_);}
	.st18{fill:url(#SVGID_5_);}
	.st19{fill:url(#SVGID_6_);}
</style>
<path class="st9" d="M303.8,78.5L183.7,8.8c-7.6-4.3-17.5-4.3-25.1,0l-121,69.7c-7.8,4.5-13.1,12.9-13.1,22v139.1
	c0,9,5.4,17.5,13.2,22l31.9,18.2c15.3,7.5,19.5,7.5,26.5,7.5c22.7,0,34.4-13.7,34.4-37.6V112.3c0-1.9,1.2-4.8-0.7-4.8h-15.3
	c-1.9,0-5.8,2.9-5.8,4.8v137.4c0,10.6-9.8,21.1-27.8,12.2l-33-19.1c-1.1-0.6-1.8-1.9-1.8-3.2V100.4c0-1.3,1.3-2.6,2.4-3.3
	l120.7-69.5c1.1-0.6,2.7-0.6,3.8,0l119.6,69.5c1.1,0.7,1,2,1,3.3v139.1c0,1.3,0.3,2.6-0.9,3.3l-120.1,69.6c-1,0.6-2.4,0.6-3.5,0
	L138.6,294c-0.9-0.5-2-0.7-2.9-0.2c-8.6,4.9-10.1,5.5-18.2,8.3c-2,0.7-4.9,1.9,1.1,5.2l40.3,23.8c3.9,2.2,8.2,3.4,12.6,3.4
	c4.5,0,8.8-1.2,12.7-3.4l119.6-69.6c7.8-4.5,11.8-13,11.8-22V100.4C315.6,91.4,311.6,83,303.8,78.5z M208.7,217.5
	c-31.9,0-38.9-8.8-41.3-24.7c-0.3-1.7-1.7-3.8-3.5-3.8h-15.6c-1.9,0-3.5,2.3-3.5,4.3c0,20.3,11,44.9,63.8,44.9
	c38.2,0,60.1-14.8,60.1-41.1c0-26-17.6-32.9-54.6-37.8c-37.4-4.9-41.2-7.4-41.2-16.2c0-7.2,3.2-16.9,30.9-16.9
	c24.8,0,33.9,5.3,37.7,22c0.3,1.6,1.8,2.7,3.4,2.7h15.7c1,0,1.9-0.4,2.6-1.1c0.7-0.7,1-1.7,0.9-2.7c-2.4-28.8-21.5-42.2-60.2-42.2
	c-34.4,0-54.9,14.5-54.9,38.8c0,26.4,20.4,33.7,53.4,36.9c39.5,3.9,42.5,9.6,42.5,17.4C244.9,211.8,234.1,217.5,208.7,217.5z"/>
</svg>
