<?xml version="1.0" encoding="utf-8"?>
<!-- Generator: Adobe Illustrator 24.3.0, SVG Export Plug-In . SVG Version: 6.00 Build 0)  -->
<svg version="1.1" id="Layer_1" xmlns="http://www.w3.org/2000/svg" xmlns:xlink="http://www.w3.org/1999/xlink" x="0px" y="0px"
	 width="340.1px" height="340.1px" viewBox="0 0 340.1 340.1" style="enable-background:new 0 0 340.1 340.1;" xml:space="preserve"
	>
<style type="text/css">
	.st0{fill:url(#SVGID_1_);}
	.st1{fill:url(#SVGID_2_);}
	.st2{fill:#FF1744;}
	.st3{fill:#F0244C;}
	.st4{fill:#FFFFFF;}
	.st5{fill:url(#SVGID_3_);}
	.st6{fill:#41B783;}
	.st7{fill:#35495E;}
	.st8{fill:#FF3E00;}
	.st9{fill:#83CD29;}
	.st10{fill:#2BA977;}
	.st11{fill:#CC0000;}
	.st12{fill:#FE2D20;}
	.st13{fill:#39CDFC;}
	.st14{fill:#03559A;}
	.st15{fill:#16B8FC;}
	.st16{fill:#00D8FF;}
	.st17{fill:url(#SVGID_4_);}
	.st18{fill:url(#SVGID_5_);}
	.st19{fill:url(#SVGID_6_);}
</style>
<g>
	<path class="st16" d="M70.4,269.2c0.2-15.1,2.1-28.3,5.5-41.4c0.6-2.4-0.1-3.2-2.3-3.9c-8-2.5-16-5.1-23.7-8.5
		c-12.3-5.6-23.7-12.5-33.2-22.4c-4.3-4.5-7.7-9.6-9.7-15.6c-2.7-7.9-0.9-15.3,3.3-22.2c4.4-7.2,10.6-12.6,17.4-17.5
		c12.5-9,26.7-14.2,41-19.2c1.9-0.7,4-1.1,6-1.6c1.6-0.4,2.2-1.1,1.7-2.8c-2.1-7.4-3.7-14.9-4.5-22.5c-1.5-13-2.4-26.1,0.6-39.1
		c1.5-6.3,3.5-12.4,7.4-17.7c5.2-7.1,12.4-10.1,21.1-10.5c8.5-0.3,16.3,2.3,23.9,5.5c13.5,5.6,25.1,14.4,36.2,23.8
		c2.6,2.3,5.1,4.7,7.5,7.1c1.1,1.1,1.9,1.2,3.1,0.1c6.9-6.3,13.6-12.7,21.2-18.1c9.1-6.5,18.7-12.1,29.3-15.7
		c7.6-2.6,15.5-4.4,23.7-2c8.2,2.4,13.5,7.9,17.3,15.2c3.4,6.7,5,13.9,5.7,21.3c1.7,16.4-0.2,32.5-3.9,48.5c-1.4,6.1-1.4,6,4.4,7.9
		c15.1,4.9,29.9,10.6,42.9,19.8c7.4,5.2,14,11.2,18.5,19.2c5.9,10.4,3.9,20.2-2.3,29.7c-3.8,5.7-8.8,10.2-14.2,14.3
		c-6.4,4.8-13.4,8.6-20.6,12.1c-8.8,4.3-17.9,7.6-27.3,10.2c-2.9,0.8-1.8,2.7-1.3,4.3c3.4,12.9,5.2,26,5.1,39.3
		c-0.1,11.3-1.6,22.5-6.7,32.9c-2.8,5.8-6.7,10.5-12.5,13.5c-1.9,1-3.8,1.6-5.8,2c-7.9,1.6-15.5,0.5-23.1-2.1
		c-11.4-3.9-21.7-9.9-31.2-17.2c-6.3-4.8-12.3-9.9-17.9-15.5c-1.6-1.6-2.6-1.5-4.2,0c-11.3,10.7-23.7,20.1-37.6,27.3
		c-8.9,4.6-18.3,7.8-28.2,8.1c-10.5,0.3-19.5-3.5-25.8-15c-3.8-7-5.4-14.6-6.2-22.5C70.7,274.8,70.3,271.2,70.4,269.2z M194.2,226.2
		c2.1,0.1,4.3,0.2,6.4-0.2c1.3-0.2,2.2-0.8,3-1.9c6.6-9.7,12.5-19.8,18.2-29.9c4.1-7.2,8-14.6,11.6-22.1c0.5-1,1-1.9,0.4-3.1
		c-1.6-3.2-3.1-6.5-4.8-9.8c-4.3-8.2-8.8-16.2-13.7-24c-4-6.4-7.7-13-12.2-19.1c-0.7-0.9-1.5-1.4-2.7-1.5
		c-15.8-1.5-31.7-1.6-47.6-0.8c-4.3,0.2-8.7-0.1-13.1,0.7c-1.1,0.2-2,0.5-2.7,1.5c-1.9,2.9-3.9,5.7-5.8,8.6
		c-3.3,5.2-6.4,10.5-9.6,15.8c-5.3,9-9.9,18.4-14.9,27.6c-0.6,1.2-0.9,2.4-0.2,3.7c5.8,11.7,11.7,23.4,18.8,34.4
		c3.5,5.4,6.9,10.8,10.2,16.3c1.5,2.6,3.6,3.7,6.5,3.8c1.5,0.1,3,0.2,4.4,0.2c7.6,0.3,15.3,1,22.9,0.6
		C177.7,226.7,186,227.4,194.2,226.2z M96.2,170.4c0-1.6-0.5-2.5-1-3.5c-3.2-6.4-5.9-13.1-8.3-19.8c-2.5-6.8-5.4-13.5-7-20.5
		c-0.4-1.7-1.4-2.1-3.1-1.6c-12.5,3.4-24.5,8-35.9,14.3c-8,4.4-15.2,9.7-21.2,16.8c-5.7,6.8-7,15.7-3.1,22.7
		c3.7,6.6,9,11.8,14.9,16.3c13.6,10.2,29.2,16.1,45.2,21.1c1.4,0.4,2.2,0.2,2.7-1.4c1.3-4.3,2.7-8.6,4.2-12.9
		c3.6-10.1,7.8-19.9,12-29.8C95.9,171.4,96.1,170.7,96.2,170.4z M78.8,269.8c-0.2,2.8,0.5,7.8,1.2,12.7c0.9,5.7,2.3,11.1,5.5,16
		c2.5,3.8,5.6,6.8,10.2,8.1c7,2,13.7,0.6,20.1-1.5c18.6-6.1,33.6-18.2,47.8-31.2c1.2-1.1,0.8-1.8-0.1-2.8c-3.2-3.5-6.4-7.1-9.5-10.7
		c-6.8-7.9-13.1-16-19.2-24.4c-1.1-1.5-2.4-2-4.2-2.1c-6.1-0.5-12.1-0.9-18.2-1.8c-8.7-1.3-17.5-2.4-26-4.7c-1.2-0.3-1.8,0-2.1,1.3
		C81.1,241.3,79,254.3,78.8,269.8z M261.9,266.2c-0.3-4-0.5-8.1-0.8-12.2c-0.8-8.5-2.2-17-4.3-25.3c-0.6-2.2-1.7-2.4-3.6-2
		c-4.4,1-8.8,1.9-13.3,2.8c-8.8,1.7-17.7,3-26.6,3.6c-3.9,0.3-6.6,1.1-9.1,4.7c-7.9,11.5-16.3,22.5-25.9,32.7
		c-1.3,1.4-1.2,2.2,0.1,3.5c2.1,2.1,4.3,4,6.5,6c8.6,7.9,17.8,14.9,28.3,20.1c7,3.5,14.2,6.8,22.1,7.4c4.9,0.4,10,0.1,14.1-3.2
		c3.4-2.8,5.9-6.3,7.6-10.5C260.7,285,261.3,275.7,261.9,266.2z M78.9,71.2c0.1,15.3,2.4,27.2,5.2,40.2c0.5,2.3,1.5,2.7,3.6,2.1
		c7-1.7,14-2.8,21.1-4c7.4-1.2,14.8-2.2,22.3-2.8c1.7-0.1,2.7-0.9,3.6-2.2c2.2-3.2,4.6-6.4,7-9.6c6.6-8.5,13.3-16.9,20.8-24.7
		c1.1-1.2,1.3-2,0.1-3.3c-3.6-3.9-7.6-7.2-11.7-10.6c-4.3-3.5-8.8-6.8-13.5-9.9c-9.7-6.3-19.8-11.6-31.4-13.2
		c-11.8-1.6-18.8,1.9-23.3,13.8C79.7,55.1,78.6,63.7,78.9,71.2z M239.5,32.5c-7.8,0-19.3,3.6-27,7.9c-12.9,7.2-24.4,16.4-35.1,26.6
		c-1,0.9-1.1,1.7-0.1,2.7c1.4,1.4,2.7,2.9,4,4.3c8.6,9.9,16.9,20,24.3,30.8c0.9,1.3,2,1.7,3.5,1.9c5.1,0.5,10.1,1.1,15.2,1.8
		c9.6,1.3,19.2,3,28.6,5.3c2.2,0.5,2.6-0.3,3.1-2.1c3.8-14.8,5.8-29.7,4.9-44.9c-0.5-7.3-1.4-14.5-4.6-21.3
		C252.7,37.8,247.4,33,239.5,32.5z M326.2,169.8c-0.1-2.4-0.7-4.4-1.5-6.3c-3-7.1-8.4-12.2-14.3-16.7c-7.9-6-16.6-10.7-25.8-14.3
		c-6.7-2.6-13.4-5.1-20.2-7.2c-2.1-0.6-3.2-0.2-3.8,2.1c-0.5,2.2-1.6,4.3-2.3,6.5c-3.6,11.7-8.6,23-13.7,34.1
		c-0.6,1.3-0.7,2.4,0,3.7c6.5,13.7,12.4,27.6,16.7,42.2c0.5,1.5,1.2,1.8,2.7,1.4c10.2-3,20.3-6.5,29.7-11.5
		c10-5.3,19.6-11.2,26.8-20.3C323.7,179.4,325.6,174.7,326.2,169.8z M215.5,224.8c0.2,0,0.5,0,0.7-0.1c11.5-1.6,23-3.1,34.3-5.9
		c3.3-0.8,3.2-0.8,2.3-3.9c-3.3-11.2-8-21.9-12.5-32.7c-0.3-0.7-0.3-1.7-1.2-1.7c-0.9,0-0.9,1-1.3,1.6c-3.3,6.1-6.5,12.2-9.8,18.2
		c-4.3,7.6-8.5,15.2-13.5,22.3c-0.3,0.5-0.8,1-0.5,1.6C214.2,224.9,214.9,224.7,215.5,224.8z M125,224.6c0.5,0.1,1,0.2,1.3-0.3
		c0.3-0.5-0.1-0.9-0.4-1.3c-1.8-2.9-3.6-5.7-5.4-8.6c-2.6-4.2-5.2-8.4-7.6-12.7c-3.5-6.2-6.8-12.6-10.2-18.9
		c-0.3-0.6-0.4-1.6-1.4-1.4c-0.7,0.1-0.8,1-1.1,1.6c-2.6,5.2-4.5,10.6-6.6,16c-2.1,5.7-3.9,11.5-5.9,17.3c-0.7,1.9,0.1,2.7,2.1,3.2
		c6.7,1.5,13.5,2.1,20.2,3.4C115,223.9,120,224.1,125,224.6z M144.9,235.1c3.1,5.2,6.9,9.4,10.4,13.8c4.5,5.7,9.3,11,14.3,16.3
		c0.7,0.7,1.3,0.9,2.1,0.2c0.7-0.7,1.4-1.4,2.1-2.1c6.6-7.7,13.1-15.6,19-23.9c0.9-1.3,3.2-2.4,2.3-3.9c-0.9-1.4-3.2-0.6-4.9-0.5
		c-8.4,0.8-16.8,0.7-25.1,0.7C158.5,235.5,151.9,235.5,144.9,235.1z M180.8,105.1c3.4-0.3,7.7,0.5,12.1,0.5c0.8,0,1.8,0.4,2.2-0.5
		c0.3-0.7-0.4-1.3-0.9-1.9c-6.9-9.4-14.4-18.2-22.2-26.8c-1.6-1.7-2.4-1.5-3.8,0.1c-7.7,8.5-15.1,17.4-21.8,26.7
		c-0.5,0.6-1.6,1.1-1.1,2c0.5,0.9,1.6,0.5,2.5,0.4c7-0.3,14-0.8,20.9-0.8C172.4,104.8,176.1,105.1,180.8,105.1z M125.6,115.7
		c-4.6,0.6-8.9,1.2-13.2,1.8c-7.7,1.1-15.2,2.7-22.8,4.2c-1.7,0.3-2.3,1-1.7,2.9c3.4,11.2,7.8,22,12.2,32.8c0.3,0.8,0.3,2.1,1.5,2
		c0.9,0,1-1.2,1.4-1.9c5.1-10.2,10.5-20.1,16.5-29.7c2.2-3.4,4.3-6.8,6.5-10.2C126.5,116.8,127.2,115.8,125.6,115.7z M238.9,160.1
		c1.6-3.6,3-6.5,4.2-9.4c3.6-8.5,6.4-17.3,9.4-26c0.4-1.2,0.8-2.5-1.2-2.7c-5.6-0.7-11-2.6-16.7-3.3c-6.1-0.7-12.1-2.2-18.3-2.5
		c-0.7,0-1.6-0.4-2.1,0.3c-0.5,0.7,0.4,1.3,0.8,1.9c1,1.8,2.1,3.5,3.2,5.3c3.3,5.5,6.9,10.9,9.9,16.5
		C231.5,146.5,235.5,152.7,238.9,160.1z"/>
	<path class="st16" d="M140.2,170.4c-0.7-17.3,13.6-31.5,31.7-30.6c15,0.7,28.2,13.4,28.1,29.9c-0.1,17.9-12.9,30.6-31.4,30.2
		C153.2,199.6,139.7,185.8,140.2,170.4z"/>
</g>
</svg>
