<?xml version="1.0" encoding="utf-8"?>
<!-- Generator: Adobe Illustrator 24.3.0, SVG Export Plug-In . SVG Version: 6.00 Build 0)  -->
<svg version="1.1" id="Layer_1" xmlns="http://www.w3.org/2000/svg" xmlns:xlink="http://www.w3.org/1999/xlink" x="0px" y="0px"
	 width="340.1px" height="340.1px" viewBox="0 0 340.1 340.1" style="enable-background:new 0 0 340.1 340.1;" xml:space="preserve"
	>
<style type="text/css">
	.st0{fill:url(#SVGID_1_);}
	.st1{fill:url(#SVGID_2_);}
	.st2{fill:#FF1744;}
	.st3{fill:#F0244C;}
	.st4{fill:#FFFFFF;}
	.st5{fill:url(#SVGID_3_);}
	.st6{fill:#41B783;}
	.st7{fill:#35495E;}
	.st8{fill:#FF3E00;}
	.st9{fill:#83CD29;}
	.st10{fill:#2BA977;}
	.st11{fill:#CC0000;}
	.st12{fill:#FE2D20;}
	.st13{fill:#39CDFC;}
	.st14{fill:#03559A;}
	.st15{fill:#16B8FC;}
	.st16{fill:#00D8FF;}
	.st17{fill:url(#SVGID_4_);}
	.st18{fill:url(#SVGID_5_);}
	.st19{fill:url(#SVGID_6_);}
</style>
<g>
	
		<linearGradient id="SVGID_1_" gradientUnits="userSpaceOnUse" x1="644.426" y1="1154.7234" x2="644.426" y2="1464.8237" gradientTransform="matrix(1.149 0 0 1.149 -570.411 -1333.1373)">
		<stop  offset="0" style="stop-color:#00EFD1"/>
		<stop  offset="1" style="stop-color:#00ACEA"/>
	</linearGradient>
	<path class="st0" d="M307.9,81.8c-12.2-19.1-38.4-27-73.8-22.5c-1.2,0.1-2.6,0.4-3.8,0.5c-0.5-1.2-1-2.4-1.6-3.5
		c-15.2-32.3-36-50.1-58.6-50.1s-43.5,17.8-58.6,50.1c-0.5,1.2-1.1,2.4-1.6,3.5c-1.3-0.2-2.6-0.4-3.8-0.5
		c-35.4-4.6-61.6,3.4-73.8,22.5c-12.2,19.1-8.5,46.2,10.5,76.4c2.6,4.1,5.3,8,8.2,11.8c-2.9,4-5.7,7.9-8.2,11.8
		c-19,30.1-22.7,57.3-10.5,76.4c9.9,15.6,29.2,23.7,55.1,23.7c6.2,0,12.4-0.5,18.6-1.3c1.2-0.1,2.6-0.4,3.8-0.5
		c0.5,1.2,1,2.4,1.6,3.5c15.2,32.3,36,50.1,58.6,50.1c22.6,0,43.5-17.8,58.6-50.1c0.5-1.2,1.1-2.4,1.6-3.5c1.3,0.2,2.6,0.4,3.8,0.5
		c6.2,0.8,12.4,1.3,18.6,1.3c25.9,0,45.2-8.2,55.1-23.7c12.2-19.1,8.5-46.2-10.5-76.4c-2.6-4.1-5.3-8-8.2-11.8
		c2.9-4,5.7-7.9,8.2-11.8C316.4,128,320.2,100.9,307.9,81.8L307.9,81.8z M124.7,62.6C137.1,36.1,153.6,21,170,21
		s32.9,15.1,45.3,41.6c0,0.1,0,0.1,0.1,0.1c-15.6,3.8-30.8,8.9-45.5,15.5c-14.6-6.6-29.9-11.8-45.5-15.5
		C124.6,62.7,124.6,62.7,124.7,62.6L124.7,62.6z M236.2,170c0,11.8-0.6,23.5-1.9,35.2c-9.2,7.4-18.7,14.3-28.7,20.6
		c-11.5,7.4-23.4,14-35.7,19.8c-12.3-5.9-24.2-12.5-35.7-19.8c-9.9-6.3-19.5-13.2-28.7-20.6c-2.5-23.4-2.5-47,0-70.4
		c19.8-15.9,41.4-29.5,64.4-40.3c12.3,5.8,24.2,12.5,35.7,19.8c9.9,6.3,19.5,13.2,28.7,20.6C235.6,146.5,236.2,158.3,236.2,170
		L236.2,170z M250.3,148.7c7.2,6.7,14,13.8,20.3,21.4c-6.3,7.5-13.1,14.7-20.3,21.4c0.4-7.1,0.7-14.2,0.7-21.4
		C250.9,162.8,250.7,155.7,250.3,148.7z M231.3,226.1c-2.3,12.7-5.7,25.2-10.1,37.4c-11.4-2.6-22.6-6-33.5-10.3
		c8.8-4.6,17.5-9.7,25.9-15C219.7,234.4,225.6,230.3,231.3,226.1z M152.3,253.2c-10.9,4.3-22.1,7.8-33.5,10.3
		c-4.4-12.2-7.7-24.7-10.1-37.4c5.7,4.2,11.5,8.2,17.6,12.1C135,243.7,143.6,248.7,152.3,253.2z M89.8,191.4
		c-7.2-6.7-14-13.8-20.3-21.4c6.3-7.5,13.1-14.7,20.3-21.4c-0.4,7.1-0.7,14.2-0.7,21.4S89.3,184.4,89.8,191.4z M108.7,114
		c2.3-12.7,5.7-25.2,10.1-37.4c11.4,2.6,22.6,6,33.5,10.3c-8.8,4.6-17.5,9.7-25.9,15C120.4,105.7,114.5,109.8,108.7,114z
		 M213.6,101.8c-8.5-5.4-17.2-10.5-25.9-15c10.9-4.3,22.1-7.8,33.5-10.3c4.4,12.2,7.7,24.7,10.1,37.4
		C225.6,109.8,219.7,105.7,213.6,101.8z M55.1,150.3c-15.6-24.7-19.4-46.8-10.6-60.6c7.1-11,22.3-17,43-17c5.5,0,11.1,0.4,16.5,1.1
		h0.1c-5.9,17.3-10.1,35.1-12.3,53.3c-11.3,9.4-21.9,19.8-31.5,30.9C58.5,155.6,56.7,153,55.1,150.3L55.1,150.3z M103.9,266.2
		c-5.5,0.7-11,1.1-16.5,1.1c-20.7,0-35.9-5.9-43-17c-8.8-13.8-5-35.9,10.6-60.6c1.6-2.6,3.4-5.2,5.2-7.8
		c9.7,11.1,20.2,21.5,31.5,30.9c2.3,18.1,6.4,36,12.3,53.3C104.1,266.2,104,266.2,103.9,266.2L103.9,266.2z M215.4,277.5
		c-12.4,26.5-29,41.6-45.3,41.6s-32.9-15.1-45.3-41.6c0-0.1,0-0.1-0.1-0.1c15.6-3.8,30.8-8.9,45.5-15.5
		c14.6,6.6,29.9,11.8,45.5,15.5C215.4,277.3,215.4,277.4,215.4,277.5L215.4,277.5z M285,189.7c15.6,24.7,19.4,46.8,10.6,60.6
		c-8.8,13.8-30.5,19.6-59.5,15.8h-0.1c5.9-17.3,10.1-35.1,12.3-53.3c11.3-9.4,21.9-19.8,31.5-30.9
		C281.6,184.5,283.3,187.1,285,189.7L285,189.7z M248.2,127.2c-2.3-18.1-6.4-36-12.3-53.3h0.1c29-3.7,50.6,2,59.5,15.8
		s5,35.9-10.6,60.6c-1.6,2.6-3.4,5.2-5.2,7.8C270.1,147,259.5,136.6,248.2,127.2L248.2,127.2z"/>
	
		<linearGradient id="SVGID_2_" gradientUnits="userSpaceOnUse" x1="644.4068" y1="1154.7234" x2="644.4068" y2="1464.8237" gradientTransform="matrix(1.149 0 0 1.149 -570.411 -1333.1373)">
		<stop  offset="0" style="stop-color:#00EFD1"/>
		<stop  offset="1" style="stop-color:#00ACEA"/>
	</linearGradient>
	<path class="st1" d="M170,140.9c-16.1,0-29.1,13-29.1,29.1c0,16.1,13,29.1,29.1,29.1c16.1,0,29.1-13,29.1-29.1
		C199.1,154,186.1,140.9,170,140.9L170,140.9z M170,184.4c-8,0-14.4-6.4-14.4-14.4s6.5-14.4,14.4-14.4s14.4,6.5,14.4,14.4
		C184.4,178,178,184.4,170,184.4z"/>
</g>
</svg>
