<?xml version="1.0" encoding="utf-8"?>
<!-- Generator: Adobe Illustrator 24.3.0, SVG Export Plug-In . SVG Version: 6.00 Build 0)  -->
<svg version="1.1" id="Layer_1" xmlns="http://www.w3.org/2000/svg" xmlns:xlink="http://www.w3.org/1999/xlink" x="0px" y="0px"
	 width="340.1px" height="340.1px" viewBox="0 0 340.1 340.1" style="enable-background:new 0 0 340.1 340.1;" xml:space="preserve"
	>
<style type="text/css">
	.st0{fill:url(#SVGID_1_);}
	.st1{fill:url(#SVGID_2_);}
	.st2{fill:#FF1744;}
	.st3{fill:#F0244C;}
	.st4{fill:#FFFFFF;}
	.st5{fill:url(#SVGID_3_);}
	.st6{fill:#41B783;}
	.st7{fill:#35495E;}
	.st8{fill:#FF3E00;}
	.st9{fill:#83CD29;}
	.st10{fill:#2BA977;}
	.st11{fill:#CC0000;}
	.st12{fill:#FE2D20;}
	.st13{fill:#39CDFC;}
	.st14{fill:#03559A;}
	.st15{fill:#16B8FC;}
	.st16{fill:#00D8FF;}
	.st17{fill:url(#SVGID_4_);}
	.st18{fill:url(#SVGID_5_);}
	.st19{fill:url(#SVGID_6_);}
</style>
<g>
	<path class="st11" d="M26.5,318.4c32.8-157,120.4-271.7,309.2-277.5v14.5c-116.6,31.8-173.4,113.7-153.2,263H26.5z"/>
	<path class="st11" d="M196.1,277l-3.9,26l28.9,12.5l1-26L196.1,277z M16.9,203.8L4.3,238.4l32.8,9.6l12.5-33.7L16.9,203.8z
		 M84.3,99.7l-24.1,26l29.9,22.2l24.1-28.9L84.3,99.7z M172.9,36.1l-26,18.3l20.2,23.1l27-17.3L172.9,36.1z M245.2,26.5l5.8,17.3
		l27-6.7l-5.8-15.4L245.2,26.5z M277.9,93.9l12.5,19.3l15.4-14.5l-6.7-15.4L277.9,93.9z M240.4,119.9L224,137.3l22.2,26l11.6-18.3
		L240.4,119.9z M204.7,195.1l-7.7,24.1l29.9,17.3l1-26L204.7,195.1z"/>
</g>
</svg>
