<?xml version="1.0" encoding="utf-8"?>
<!-- Generator: Adobe Illustrator 24.3.0, SVG Export Plug-In . SVG Version: 6.00 Build 0)  -->
<svg version="1.1" id="Layer_1" xmlns="http://www.w3.org/2000/svg" xmlns:xlink="http://www.w3.org/1999/xlink" x="0px" y="0px"
	 width="340.1px" height="340.1px" viewBox="0 0 340.1 340.1" style="enable-background:new 0 0 340.1 340.1;" xml:space="preserve"
	>
<style type="text/css">
	.st0{fill:url(#SVGID_1_);}
	.st1{fill:url(#SVGID_2_);}
	.st2{fill:#FF1744;}
	.st3{fill:#F0244C;}
	.st4{fill:#FFFFFF;}
	.st5{fill:url(#SVGID_3_);}
	.st6{fill:#41B783;}
	.st7{fill:#35495E;}
	.st8{fill:#FF3E00;}
	.st9{fill:#83CD29;}
	.st10{fill:#2BA977;}
	.st11{fill:#CC0000;}
	.st12{fill:#FE2D20;}
	.st13{fill:#39CDFC;}
	.st14{fill:#03559A;}
	.st15{fill:#16B8FC;}
	.st16{fill:#00D8FF;}
	.st17{fill:url(#SVGID_4_);}
	.st18{fill:url(#SVGID_5_);}
	.st19{fill:url(#SVGID_6_);}
</style>
<g>
	<path class="st8" d="M133,334.5c-71.5-0.2-124-75.4-88.5-141.9c1.6-3,1.5-8.1,0.2-11.4C27.2,137,40.6,93.7,80.4,67.8
		c24.4-15.8,48.8-31.6,73.6-46.9c58.2-36.1,133.6-5.7,150.3,60.7c5.6,22.1,2.5,43.5-7.6,64.1c-2,4-2.4,10.2-0.8,14.3
		c16.8,42.9,3.5,86.6-35.2,111.8c-24.9,16.3-50.2,32-75.4,47.9C169.4,329.8,152,335,133,334.5z M75.1,217.9
		c-0.5,0.8-1.3,1.6-1.6,2.5c-7.6,22.3-0.2,47.6,18.6,63.4c20.1,16.9,47,20.1,69.4,6.6c27.3-16.5,54.2-33.8,80.8-51.4
		c14.7-9.8,22.8-24.4,23.3-42.2c0.7-23.3-9.8-41.2-29.3-53.2c-20.4-12.6-41.6-13.1-62.5-0.9c-10.4,6.1-20.2,13.2-30.7,19.2
		c-8.5,4.9-18.7,2.3-23.5-5.2c-5.2-8-3.9-16.8,4.6-22.3c25.6-16.6,51.3-33.1,77.3-48.9c11.2-6.8,23-0.3,25.6,12.5
		c0.6,2.8,1.7,6.7,3.8,7.8c11.2,5.8,22.7,10.8,34.5,16.3c0.7-1.7,1.8-3.5,2.3-5.5c6.2-24.7-1.5-45.2-20.6-60.8
		c-20.2-16.5-43.7-20-66.5-7.1C152,65,124.3,83,97.3,101.9c-8.6,6.1-15.5,16.8-19.6,26.8c-8.6,21.1,0,47.1,18.3,62.3
		c19.8,16.4,46.9,19.4,68.6,7.2c10.5-5.9,20.4-12.9,30.7-19.1c9.9-5.9,19.9-4.1,25.2,4.1c5.4,8.4,2.7,18-7.2,24.3
		c-23.6,15.2-47.1,30.3-70.9,45.2c-14.7,9.2-26.1,4.2-30.1-12.6c-0.6-2.5-2.7-5.4-5-6.6C97.1,228.2,86.5,223.4,75.1,217.9z"/>
	<path class="st4" d="M75.1,217.9c11.4,5.5,22,10.3,32.3,15.7c2.2,1.2,4.4,4.1,5,6.6c4,16.7,15.5,21.8,30.1,12.6
		c23.7-14.9,47.3-30,70.9-45.2c9.9-6.4,12.5-15.9,7.2-24.3c-5.2-8.2-15.2-10-25.2-4.1c-10.3,6.2-20.2,13.2-30.7,19.1
		c-21.7,12.3-48.8,9.2-68.6-7.2c-18.3-15.1-26.9-41.1-18.3-62.3c4.1-10,10.9-20.7,19.6-26.8C124.3,83,152,65,180.7,48.7
		c22.8-13,46.3-9.5,66.5,7.1c19.1,15.6,26.8,36.1,20.6,60.8c-0.5,2-1.6,3.9-2.3,5.5c-11.8-5.4-23.3-10.5-34.5-16.3
		c-2.1-1.1-3.3-5-3.8-7.8c-2.6-12.8-14.4-19.3-25.6-12.5c-26.1,15.8-51.8,32.3-77.3,48.9c-8.4,5.5-9.7,14.3-4.6,22.3
		c4.8,7.5,15,10.1,23.5,5.2c10.4-6,20.2-13.1,30.7-19.2c20.9-12.2,42.1-11.6,62.5,0.9c19.5,12,30,29.9,29.3,53.2
		c-0.5,17.8-8.6,32.4-23.3,42.2c-26.6,17.7-53.5,34.9-80.8,51.4c-22.3,13.5-49.3,10.3-69.4-6.6c-18.8-15.8-26.2-41.1-18.6-63.4
		C73.8,219.4,74.6,218.7,75.1,217.9z"/>
</g>
</svg>
