<?xml version="1.0" encoding="utf-8"?>
<!-- Generator: Adobe Illustrator 24.3.0, SVG Export Plug-In . SVG Version: 6.00 Build 0)  -->
<svg version="1.1" id="Layer_1" xmlns="http://www.w3.org/2000/svg" xmlns:xlink="http://www.w3.org/1999/xlink" x="0px" y="0px"
	 width="340.1px" height="340.1px" viewBox="0 0 340.1 340.1" style="enable-background:new 0 0 340.1 340.1;" xml:space="preserve"
	>
<style type="text/css">
	.st0{fill:url(#SVGID_1_);}
	.st1{fill:url(#SVGID_2_);}
	.st2{fill:#FF1744;}
	.st3{fill:#F0244C;}
	.st4{fill:#FFFFFF;}
	.st5{fill:url(#SVGID_3_);}
	.st6{fill:#41B783;}
	.st7{fill:#35495E;}
	.st8{fill:#FF3E00;}
	.st9{fill:#83CD29;}
	.st10{fill:#2BA977;}
	.st11{fill:#CC0000;}
	.st12{fill:#FE2D20;}
	.st13{fill:#39CDFC;}
	.st14{fill:#03559A;}
	.st15{fill:#16B8FC;}
	.st16{fill:#00D8FF;}
	.st17{fill:url(#SVGID_4_);}
	.st18{fill:url(#SVGID_5_);}
	.st19{fill:url(#SVGID_6_);}
</style>
<g>
	<path class="st6" d="M269.9,28.3c21.7,0,43.4,0,65.6,0C280.3,122.9,225.4,217.1,170,311.9C114.8,217.2,59.8,123,4.6,28.3
		c22.3,0,44,0,65.6,0c0.4,0.9,0.6,2,1.1,2.8c4,6.9,8,13.7,12.1,20.6C96.7,74.3,110,97,123.3,119.6c15,25.6,30,51.2,44.9,76.8
		c1.4,2.5,2.3,2.5,3.7,0c10.8-18.6,21.7-37.1,32.6-55.6c19-32.4,38.1-64.9,57-97.4C264.4,38.5,267.9,33.8,269.9,28.3z"/>
	<path class="st7" d="M269.9,28.3c-2,5.5-5.5,10.2-8.4,15.1c-18.9,32.5-38,64.9-57,97.4c-10.9,18.5-21.8,37-32.6,55.6
		c-1.4,2.5-2.3,2.5-3.7,0c-14.9-25.6-29.9-51.2-44.9-76.8C110,97,96.7,74.3,83.4,51.7c-4-6.9-8.1-13.7-12.1-20.6
		c-0.5-0.9-0.7-1.9-1.1-2.8c18.8,0,37.5,0,56.3-0.1c2,0,2.7,1.1,3.6,2.5c12.8,21.7,25.7,43.3,38.6,65c0.6,1,1,2.3,2.3,3.2
		c3.6-6.2,7.1-12.4,10.6-18.5c9.5-16.6,18.9-33.1,28.4-49.7c0.8-1.4,1.5-2.5,3.6-2.5C232.3,28.3,251.1,28.3,269.9,28.3z"/>
</g>
</svg>
